<?xml version="1.0" encoding="UTF-8"?>
<svg width="633px" height="124px" viewBox="0 0 633 124" version="1.1" xmlns="http://www.w3.org/2000/svg" xmlns:xlink="http://www.w3.org/1999/xlink">
    <!-- Generator: Sketch 50.2 (55047) - http://www.bohemiancoding.com/sketch -->
    <title>Group 3</title>
    <desc>Created with Sketch.</desc>
    <defs></defs>
    <g id="Page-1" stroke="none" stroke-width="1" fill="none" fill-rule="evenodd">
        <g id="Group-3" fill-rule="nonzero">
            <rect id="Rectangle-5" fill="#DCBC3F" x="276" y="0.6" width="143" height="123"></rect>
            <path d="M20.8,5.4 L30.4,5.4 L51,102.6 L42,102.6 L37.2,76.6 L14,76.6 L9.1,102.6 L0.2,102.6 L20.8,5.4 Z M36,70 L25.7,17.5 L15.4,70 L36,70 Z" id="Shape" fill="#0B0B0B"></path>
            <path d="M61.6,33.2 L70.5,33.2 L70.5,42.7 C72.6,39.3 75,36.7 77.9,35 C80.7,33.3 83.6,32.5 86.5,32.5 C87.2,32.5 87.7,32.5 88.1,32.6 L88.1,42 C86.7,41.5 85.2,41.3 83.8,41.3 C78.3,41.3 73.9,44 70.6,49.3 L70.6,102.6 L61.7,102.6 L61.7,33.2 L61.6,33.2 Z" id="Shape" fill="#0B0B0B"></path>
            <path d="M103.2,99.5 C101.4,96.9 100.6,93.1 100.6,88.2 L100.6,39 L92,39 L92,33.2 L100.5,33.2 L100.5,11.8 L109.3,11.8 L109.3,33.3 L120.8,33.3 L120.8,39 L109.3,39 L109.3,87.4 C109.3,90.9 109.7,93.3 110.5,94.7 C111.3,96 112.9,96.7 115.4,96.7 C116.9,96.7 118.6,96.5 120.4,96.1 L120.4,102.8 C117.9,103.3 115.4,103.5 113,103.5 C108.2,103.4 105,102.1 103.2,99.5 Z" id="Shape" fill="#0B0B0B"></path>
            <path d="M159,39.6 L150.1,39.6 L150.1,33.2 L159,33.2 L159,26 C159,22.1 159.3,18.9 159.9,16.4 C160.5,13.9 161.7,12 163.6,10.5 C165.4,9.1 168.2,8.3 171.8,8.3 C174.1,8.3 176.5,8.5 178.9,9 L178.9,15.6 C178.3,15.5 177.4,15.4 176.4,15.2 C175.4,15 174.6,15 174,15 C171.5,15 169.9,15.7 169.1,17.2 C168.3,18.7 168,21.3 168,25.1 L168,33.1 L179,33.1 L179,39.5 L167.8,39.5 L167.8,102.5 L159,102.5 L159,39.6 Z" id="Shape" fill="#0B0B0B"></path>
            <path d="M189.6,97.3 C186.9,93 185.5,86.4 185.5,77.6 L185.5,58.3 C185.5,49.4 186.9,42.8 189.6,38.6 C192.3,34.3 197.1,32.2 204,32.2 C210.9,32.2 215.7,34.3 218.4,38.6 C221.1,42.9 222.5,49.5 222.5,58.3 L222.5,77.5 C222.5,86.4 221.1,93 218.4,97.2 C215.7,101.5 210.9,103.6 204,103.6 C197.1,103.7 192.3,101.5 189.6,97.3 Z M210.4,94.8 C211.8,93.3 212.7,91.2 213.1,88.6 C213.5,86 213.7,82.4 213.7,78 L213.7,57.8 C213.7,53.4 213.5,49.9 213.1,47.2 C212.7,44.6 211.8,42.5 210.4,41 C209,39.5 206.9,38.7 204,38.7 C201.1,38.7 199,39.5 197.6,41 C196.2,42.5 195.3,44.6 194.9,47.2 C194.5,49.8 194.3,53.3 194.3,57.8 L194.3,78 C194.3,82.5 194.5,86 194.9,88.6 C195.3,91.2 196.2,93.3 197.6,94.8 C199,96.3 201.1,97.1 204,97.1 C206.9,97.1 209,96.3 210.4,94.8 Z" id="Shape" fill="#0B0B0B"></path>
            <path d="M235.2,33.2 L244.1,33.2 L244.1,42.7 C246.2,39.3 248.6,36.7 251.5,35 C254.3,33.3 257.2,32.5 260.1,32.5 C260.8,32.5 261.3,32.5 261.7,32.6 L261.7,42 C260.3,41.5 258.8,41.3 257.4,41.3 C251.9,41.3 247.5,44 244.2,49.3 L244.2,102.6 L235.3,102.6 L235.3,33.2 L235.2,33.2 Z" id="Shape" fill="#0B0B0B"></path>
            <path d="M296.6,99.2 C294,96.2 292.8,92.6 292.8,88.2 C292.8,83.6 293.7,79.9 295.4,77 C297.2,74.1 299.9,71.5 303.7,69.1 C307.5,66.8 313.1,63.9 320.7,60.5 L320.7,55.6 C320.7,51.3 320.4,47.9 319.9,45.5 C319.4,43.1 318.5,41.4 317.3,40.3 C316.1,39.3 314.3,38.7 312.1,38.7 C305.6,38.7 302.4,42.7 302.4,50.6 L302.4,53.1 L293.8,52.9 L293.9,50.9 C294.1,44.3 295.8,39.6 298.9,36.6 C302,33.6 306.6,32.2 312.6,32.2 C318.7,32.2 323,34 325.6,37.7 C328.2,41.4 329.5,47.2 329.5,55.1 L329.5,88.8 C329.5,91 329.6,93.6 329.7,96.5 C329.8,99.4 330,101.4 330.1,102.6 L322.3,102.6 L321,93 C320,96 318.2,98.6 315.7,100.6 C313.2,102.6 310.2,103.7 306.8,103.7 C302.6,103.7 299.2,102.2 296.6,99.2 Z M316,93.8 C318,92.2 319.5,90.2 320.7,88 L320.7,66.4 C315.1,69.4 311.1,71.6 308.8,73.1 C306.5,74.6 304.7,76.3 303.4,78.3 C302.1,80.3 301.5,82.9 301.5,86.1 C301.5,89.5 302.2,92.1 303.7,93.8 C305.2,95.5 307.1,96.3 309.4,96.3 C311.9,96.2 314.1,95.4 316,93.8 Z" id="Shape" fill="#0B0B0B"></path>
            <path d="M343,33.2 L351.9,33.2 L351.9,42.7 C354,39.3 356.4,36.7 359.3,35 C362.1,33.3 365,32.5 367.9,32.5 C368.6,32.5 369.1,32.5 369.5,32.6 L369.5,42 C368.1,41.5 366.6,41.3 365.2,41.3 C359.7,41.3 355.3,44 352,49.3 L352,102.6 L343,102.6 L343,33.2 Z" id="Shape" fill="#0B0B0B"></path>
            <path d="M384.6,99.5 C382.8,96.9 382,93.1 382,88.2 L382,39 L373.5,39 L373.5,33.2 L382,33.2 L382,11.8 L390.8,11.8 L390.8,33.3 L402.3,33.3 L402.3,39 L390.8,39 L390.8,87.4 C390.8,90.9 391.2,93.3 392,94.7 C392.8,96 394.4,96.7 396.9,96.7 C398.4,96.7 400.1,96.5 401.9,96.1 L401.9,102.8 C399.4,103.3 396.9,103.5 394.5,103.5 C389.6,103.4 386.4,102.1 384.6,99.5 Z" id="Shape" fill="#0B0B0B"></path>
            <path d="M438.8,98.4 C435.5,94.9 433.6,90.1 433.1,84 L440.4,81.7 C440.9,87 442.1,90.9 444.1,93.3 C446.1,95.8 448.8,97 452.3,97 C455.3,97 457.7,96.1 459.4,94.4 C461.1,92.6 462,90.2 462,87.2 C462,82.7 459.2,78.1 453.6,73.3 L444.1,65.1 C440.9,62.5 438.5,59.8 437,57.2 C435.4,54.6 434.7,51.5 434.7,48.1 C434.7,43.1 436.2,39.1 439.1,36.3 C442.1,33.5 446.1,32.1 451.2,32.1 C456.3,32.1 460.3,33.7 463,37 C465.8,40.3 467.3,44.7 467.6,50.3 L461.4,52.3 C460.9,43.2 457.6,38.6 451.6,38.6 C448.9,38.6 446.7,39.3 445.1,40.8 C443.5,42.3 442.7,44.3 442.8,47 C442.8,49.2 443.2,51.1 444,52.7 C444.8,54.3 446.3,56.1 448.4,57.9 L458.2,66.7 C461.9,70 464.7,73.1 466.7,76 C468.7,78.9 469.7,82.5 469.7,86.9 C469.7,92.2 468.1,96.3 464.9,99.2 C461.7,102.1 457.4,103.6 451.9,103.6 C446.5,103.7 442.1,101.9 438.8,98.4 Z" id="Shape" fill="#0B0B0B"></path>
            <path d="M481.6,99.2 C479,96.2 477.8,92.6 477.8,88.2 C477.8,83.6 478.7,79.9 480.4,77 C482.2,74.1 484.9,71.5 488.7,69.1 C492.5,66.8 498.1,63.9 505.7,60.5 L505.7,55.6 C505.7,51.3 505.4,47.9 504.9,45.5 C504.4,43.1 503.5,41.4 502.3,40.3 C501.1,39.3 499.3,38.7 497.1,38.7 C490.6,38.7 487.4,42.7 487.4,50.6 L487.4,53.1 L478.8,52.9 L478.9,50.9 C479.1,44.3 480.8,39.6 483.9,36.6 C487,33.6 491.6,32.2 497.6,32.2 C503.7,32.2 508,34 510.6,37.7 C513.2,41.4 514.5,47.2 514.5,55.1 L514.5,88.8 C514.5,91 514.6,93.6 514.7,96.5 C514.8,99.4 515,101.4 515.1,102.6 L507.3,102.6 L506,93 C505,96 503.2,98.6 500.7,100.6 C498.2,102.6 495.2,103.7 491.8,103.7 C487.5,103.7 484.1,102.2 481.6,99.2 Z M500.9,93.8 C502.9,92.2 504.4,90.2 505.6,88 L505.6,66.4 C500,69.4 496,71.6 493.7,73.1 C491.4,74.6 489.6,76.3 488.3,78.3 C487,80.3 486.4,82.9 486.4,86.1 C486.4,89.5 487.1,92.1 488.6,93.8 C490.1,95.5 492,96.3 494.3,96.3 C496.8,96.2 499,95.4 500.9,93.8 Z" id="Shape" fill="#0B0B0B"></path>
            <polygon id="Shape" fill="#0B0B0B" points="527.4 5.4 536.2 5.4 536.2 67.1 559.4 33.3 568.6 33.3 551 60 567.8 102.6 558.9 102.6 544.3 64.9 536.1 76.3 536.1 102.6 527.3 102.6 527.3 5.4"></polygon>
            <path d="M581.9,101 C579.2,99.2 577.2,96.4 575.9,92.5 C574.6,88.6 574,83.3 574,76.5 L574,59 C574,52.2 574.7,46.9 576,43 C577.3,39.1 579.4,36.3 582.1,34.7 C584.8,33.1 588.4,32.2 592.8,32.2 C597.6,32.2 601.3,33.2 603.9,35.3 C606.5,37.3 608.3,40.4 609.3,44.5 C610.3,48.6 610.8,54.1 610.8,60.9 L610.7,67.1 L582.7,67.1 L582.7,77.4 C582.7,82.3 583,86.1 583.5,88.9 C584.1,91.7 585.1,93.8 586.5,95.1 C587.9,96.4 590,97.1 592.6,97.1 C595.6,97.1 598,96.1 599.6,94.2 C601.2,92.3 602.1,88.8 602.1,83.8 L602.1,79 L610.6,79 L610.6,82.8 C610.6,89.5 609.2,94.7 606.4,98.3 C603.6,101.9 599,103.7 592.6,103.7 C588.2,103.7 584.6,102.8 581.9,101 Z M602.1,62 L602.1,56.2 C602.1,52 601.9,48.8 601.4,46.4 C601,44 600.1,42.1 598.7,40.8 C597.3,39.4 595.3,38.8 592.6,38.8 C590.1,38.8 588.2,39.3 586.7,40.4 C585.3,41.5 584.2,43.4 583.6,46 C583,48.7 582.6,52.5 582.6,57.3 L582.6,62 L602.1,62 Z" id="Shape" fill="#0B0B0B"></path>
            <path d="M623.3,92 L632.7,92 L632.7,102.6 L623.3,102.6 L623.3,92 Z M623.4,5.4 L632.8,5.4 L629.6,81.7 L626.5,81.7 L623.4,5.4 Z" id="Shape" fill="#0B0B0B"></path>
        </g>
    </g>
</svg>