<?xml version="1.0" encoding="UTF-8"?>
<svg width="597px" height="250px" viewBox="0 0 597 250" version="1.1" xmlns="http://www.w3.org/2000/svg" xmlns:xlink="http://www.w3.org/1999/xlink">
    <!-- Generator: Sketch 50.2 (55047) - http://www.bohemiancoding.com/sketch -->
    <title>Group 4</title>
    <desc>Created with Sketch.</desc>
    <defs></defs>
    <g id="Page-1" stroke="none" stroke-width="1" fill="none" fill-rule="evenodd">
        <g id="Group-4" fill="#DCBC3F">
            <path d="M42.3629032,2.49193548 L60.2217742,2.49193548 L102.861559,100.508065 L78.4959677,100.508065 L70.0510753,79.7419355 L31.9798387,79.7419355 L23.811828,100.508065 L0,100.508065 L42.3629032,2.49193548 Z M50.6693548,31.0107527 L38.7634409,61.4677419 L62.7137097,61.4677419 L50.6693548,31.0107527 Z M112.69086,2.49193548 L150.623656,2.49193548 C155.607552,2.49193548 160.337567,2.97647365 164.813844,3.94556452 C169.290121,4.91465538 173.212573,6.5297826 176.581317,8.79099462 C179.950062,11.0522066 182.626558,14.0978751 184.610887,17.9280914 C186.595216,21.7583077 187.587366,26.5344696 187.587366,32.2567204 C187.587366,39.1787981 185.787652,45.0624758 182.188172,49.9079301 C178.588692,54.7533844 173.327992,57.8221262 166.405914,59.1142473 L191.325269,100.508065 L165.436828,100.508065 L144.947581,61.3293011 L134.287634,61.3293011 L134.287634,100.508065 L112.69086,100.508065 L112.69086,2.49193548 Z M134.287634,43.0551075 L147.024194,43.0551075 C148.962375,43.0551075 151.015894,42.9858878 153.184812,42.8474462 C155.353729,42.7090047 157.314955,42.2936863 159.068548,41.6014785 C160.822141,40.9092707 162.275756,39.8248282 163.429435,38.3481183 C164.583115,36.8714084 165.159946,34.7948162 165.159946,32.1182796 C165.159946,29.6263316 164.652335,27.6420325 163.637097,26.1653226 C162.621859,24.6886127 161.329757,23.5580236 159.760753,22.7735215 C158.191748,21.9890194 156.392035,21.4583347 154.361559,21.1814516 C152.331083,20.9045685 150.346784,20.766129 148.408602,20.766129 L134.287634,20.766129 L134.287634,43.0551075 Z M218.875,21.5967742 L190.909946,21.5967742 L190.909946,2.49193548 L268.436828,2.49193548 L268.436828,21.5967742 L240.471774,21.5967742 L240.471774,100.508065 L218.875,100.508065 L218.875,21.5967742 Z M321.182796,2.49193548 L386.942204,2.49193548 L386.942204,22.4274194 L342.77957,22.4274194 L342.77957,42.3629032 L383.619624,42.3629032 L383.619624,62.2983871 L342.77957,62.2983871 L342.77957,100.508065 L321.182796,100.508065 L321.182796,2.49193548 Z M397.186828,51.5 C397.186828,43.6549787 398.502003,36.5484189 401.132392,30.1801075 C403.762782,23.8117961 407.431428,18.3895833 412.138441,13.9133065 C416.845454,9.43702959 422.429179,5.99911594 428.889785,3.59946237 C435.350391,1.19980879 442.410804,0 450.071237,0 C457.731669,0 464.792082,1.19980879 471.252688,3.59946237 C477.713294,5.99911594 483.297019,9.43702959 488.004032,13.9133065 C492.711045,18.3895833 496.379691,23.8117961 499.010081,30.1801075 C501.64047,36.5484189 502.955645,43.6549787 502.955645,51.5 C502.955645,59.3450213 501.64047,66.4515811 499.010081,72.8198925 C496.379691,79.1882039 492.711045,84.6104167 488.004032,89.0866935 C483.297019,93.5629704 477.713294,97.0008841 471.252688,99.4005376 C464.792082,101.800191 457.731669,103 450.071237,103 C442.410804,103 435.350391,101.800191 428.889785,99.4005376 C422.429179,97.0008841 416.845454,93.5629704 412.138441,89.0866935 C407.431428,84.6104167 403.762782,79.1882039 401.132392,72.8198925 C398.502003,66.4515811 397.186828,59.3450213 397.186828,51.5 Z M419.614247,51.5 C419.614247,56.1147184 420.329518,60.3371224 421.760081,64.1673387 C423.190643,67.997555 425.244162,71.3201024 427.920699,74.1350806 C430.597236,76.9500589 433.804417,79.1420172 437.542339,80.7110215 C441.280261,82.2800258 445.456518,83.0645161 450.071237,83.0645161 C454.685955,83.0645161 458.862212,82.2800258 462.600134,80.7110215 C466.338056,79.1420172 469.545238,76.9500589 472.221774,74.1350806 C474.898311,71.3201024 476.95183,67.997555 478.382392,64.1673387 C479.812955,60.3371224 480.528226,56.1147184 480.528226,51.5 C480.528226,46.977576 479.812955,42.7782452 478.382392,38.9018817 C476.95183,35.0255183 474.898311,31.6798976 472.221774,28.8649194 C469.545238,26.0499411 466.338056,23.8579828 462.600134,22.2889785 C458.862212,20.7199742 454.685955,19.9354839 450.071237,19.9354839 C445.456518,19.9354839 441.280261,20.7199742 437.542339,22.2889785 C433.804417,23.8579828 430.597236,26.0499411 427.920699,28.8649194 C425.244162,31.6798976 423.190643,35.0255183 421.760081,38.9018817 C420.329518,42.7782452 419.614247,46.977576 419.614247,51.5 Z M517.630376,2.49193548 L555.563172,2.49193548 C560.547068,2.49193548 565.277083,2.97647365 569.75336,3.94556452 C574.229637,4.91465538 578.152089,6.5297826 581.520833,8.79099462 C584.889578,11.0522066 587.566074,14.0978751 589.550403,17.9280914 C591.534732,21.7583077 592.526882,26.5344696 592.526882,32.2567204 C592.526882,39.1787981 590.727169,45.0624758 587.127688,49.9079301 C583.528208,54.7533844 578.267508,57.8221262 571.34543,59.1142473 L596.264785,100.508065 L570.376344,100.508065 L549.887097,61.3293011 L539.227151,61.3293011 L539.227151,100.508065 L517.630376,100.508065 L517.630376,2.49193548 Z M539.227151,43.0551075 L551.96371,43.0551075 C553.901891,43.0551075 555.95541,42.9858878 558.124328,42.8474462 C560.293246,42.7090047 562.254472,42.2936863 564.008065,41.6014785 C565.761658,40.9092707 567.215272,39.8248282 568.368952,38.3481183 C569.522631,36.8714084 570.099462,34.7948162 570.099462,32.1182796 C570.099462,29.6263316 569.591851,27.6420325 568.576613,26.1653226 C567.561375,24.6886127 566.269273,23.5580236 564.700269,22.7735215 C563.131265,21.9890194 561.331551,21.4583347 559.301075,21.1814516 C557.270599,20.9045685 555.2863,20.766129 553.348118,20.766129 L539.227151,20.766129 L539.227151,43.0551075 Z" id="ART-FOR"></path>
            <g id="Group-3" transform="translate(0.000000, 113.000000)">
                <path d="M0,0 L597,0 L597,137 L0,137 L0,0 Z M55.77,109.35 L55.77,117.28 L73.71,117.28 L73.71,85.17 C73.71,79.8833069 73.276671,75.2250201 72.41,71.195 C71.543329,67.1649798 70.0050111,63.7633472 67.795,60.99 C65.584989,58.2166528 62.6383518,56.1150071 58.955,54.685 C55.2716482,53.2549929 50.5700286,52.54 44.85,52.54 C39.649974,52.54 34.6233576,53.3849915 29.77,55.075 C24.9166424,56.7650084 20.6700182,59.2999831 17.03,62.68 L27.43,73.34 C29.5100104,70.9999883 31.8716535,69.15834 34.515,67.815 C37.1583466,66.47166 40.0833173,65.8 43.29,65.8 C46.6700169,65.8 49.5949877,66.8183231 52.065,68.855 C54.5350124,70.8916768 55.77,73.643316 55.77,77.11 C53.0833199,77.11 50.1583492,77.1533329 46.995,77.24 C43.8316509,77.3266671 40.6683492,77.5866645 37.505,78.02 C34.3416509,78.4533355 31.2866814,79.1249954 28.34,80.035 C25.3933186,80.9450045 22.7716782,82.2233251 20.475,83.87 C18.1783218,85.5166749 16.3583401,87.5966541 15.015,90.11 C13.67166,92.6233459 13,95.6999818 13,99.34 C13,102.546683 13.6066606,105.363321 14.82,107.79 C16.0333394,110.216679 17.6799896,112.253325 19.76,113.9 C21.8400104,115.546675 24.2449864,116.781663 26.975,117.605 C29.7050137,118.428337 32.5433186,118.84 35.49,118.84 C39.4766866,118.84 43.2683154,118.103341 46.865,116.63 C50.4616847,115.156659 53.3433225,112.730017 55.51,109.35 L55.77,109.35 Z M85.93,54.1 L85.93,117.28 L105.43,117.28 L105.43,90.89 C105.43,87.7699844 105.603332,84.910013 105.95,82.31 C106.296668,79.709987 107.054994,77.4783426 108.225,75.615 C109.395006,73.7516573 111.063323,72.3000052 113.23,71.26 C115.396678,70.2199948 118.343315,69.7 122.07,69.7 C123.543341,69.7 124.95166,69.8083322 126.295,70.025 C127.63834,70.2416677 129.003326,70.5666645 130.39,71 L130.39,53.19 C129.436662,52.9299987 128.396672,52.7566671 127.27,52.67 C126.143328,52.5833329 125.016672,52.54 123.89,52.54 C119.556645,52.54 115.960014,53.5149902 113.1,55.465 C110.239986,57.4150097 107.77001,60.3399805 105.69,64.24 L105.43,64.24 L105.43,54.1 L85.93,54.1 Z M181.87,69.7 L181.87,54.1 L164.71,54.1 L164.71,35.38 L145.21,35.38 L145.21,54.1 L132.73,54.1 L132.73,69.7 L145.21,69.7 L145.21,99.73 C145.21,103.196684 145.794994,106.143321 146.965,108.57 C148.135006,110.996679 149.75999,112.968326 151.84,114.485 C153.92001,116.001674 156.346653,117.106663 159.12,117.8 C161.893347,118.493337 164.92665,118.84 168.22,118.84 C170.473345,118.84 172.769988,118.710001 175.11,118.45 C177.450012,118.189999 179.703323,117.670004 181.87,116.89 L181.87,100.64 C181.003329,101.420004 179.725008,101.918332 178.035,102.135 C176.344992,102.351668 174.980005,102.46 173.94,102.46 C171.85999,102.46 170.191673,102.178336 168.935,101.615 C167.678327,101.051664 166.74667,100.250005 166.14,99.21 C165.53333,98.1699948 165.143334,96.9350071 164.97,95.505 C164.796666,94.0749928 164.71,92.493342 164.71,90.76 L164.71,69.7 L181.87,69.7 Z M206.57,61.9 L218.27,25.24 L199.55,25.24 L189.93,61.9 L206.57,61.9 Z M256.36,72.69 L268.32,60.86 C265.373319,57.7399844 261.776688,55.5733394 257.53,54.36 C253.283312,53.1466606 249.080021,52.54 244.92,52.54 C241.62665,52.54 238.376683,52.9516625 235.17,53.775 C231.963317,54.5983374 229.125012,55.876658 226.655,57.61 C224.184988,59.343342 222.191674,61.5533199 220.675,64.24 C219.158326,66.9266801 218.4,70.1333147 218.4,73.86 C218.4,77.8466866 219.201659,81.0316547 220.805,83.415 C222.408341,85.7983452 224.444988,87.6399935 226.915,88.94 C229.385012,90.2400065 232.028319,91.2149967 234.845,91.865 C237.661681,92.5150032 240.304988,93.1216639 242.775,93.685 C245.245012,94.2483362 247.281659,94.9416625 248.885,95.765 C250.488341,96.5883374 251.29,97.8233251 251.29,99.47 C251.29,101.203342 250.380009,102.394997 248.56,103.045 C246.739991,103.695003 244.703345,104.02 242.45,104.02 C239.503319,104.02 236.925011,103.435006 234.715,102.265 C232.504989,101.094994 230.490009,99.3833446 228.67,97.13 L216.84,110.26 C219.960016,113.466683 223.773311,115.698327 228.28,116.955 C232.786689,118.211673 237.249978,118.84 241.67,118.84 C245.050017,118.84 248.473316,118.515003 251.94,117.865 C255.406684,117.214997 258.526653,116.088341 261.3,114.485 C264.073347,112.881659 266.348324,110.758347 268.125,108.115 C269.901676,105.471653 270.79,102.113354 270.79,98.04 C270.79,94.0533134 269.988341,90.8683452 268.385,88.485 C266.781659,86.1016547 264.745012,84.2166736 262.275,82.83 C259.804988,81.4433264 257.161681,80.4250032 254.345,79.775 C251.528319,79.1249967 248.885012,78.5183361 246.415,77.955 C243.944988,77.3916638 241.908341,76.7416703 240.305,76.005 C238.701659,75.2683296 237.9,74.1200078 237.9,72.56 C237.9,70.6533238 238.679992,69.3100039 240.24,68.53 C241.800008,67.7499961 243.403325,67.36 245.05,67.36 C249.730023,67.36 253.499986,69.1366489 256.36,72.69 Z M355.03,72.69 L366.99,60.86 C364.043319,57.7399844 360.446688,55.5733394 356.2,54.36 C351.953312,53.1466606 347.750021,52.54 343.59,52.54 C340.29665,52.54 337.046683,52.9516625 333.84,53.775 C330.633317,54.5983374 327.795012,55.876658 325.325,57.61 C322.854988,59.343342 320.861674,61.5533199 319.345,64.24 C317.828326,66.9266801 317.07,70.1333147 317.07,73.86 C317.07,77.8466866 317.871659,81.0316547 319.475,83.415 C321.078341,85.7983452 323.114988,87.6399935 325.585,88.94 C328.055012,90.2400065 330.698319,91.2149967 333.515,91.865 C336.331681,92.5150032 338.974988,93.1216639 341.445,93.685 C343.915012,94.2483362 345.951659,94.9416625 347.555,95.765 C349.158341,96.5883374 349.96,97.8233251 349.96,99.47 C349.96,101.203342 349.050009,102.394997 347.23,103.045 C345.409991,103.695003 343.373345,104.02 341.12,104.02 C338.173319,104.02 335.595011,103.435006 333.385,102.265 C331.174989,101.094994 329.160009,99.3833446 327.34,97.13 L315.51,110.26 C318.630016,113.466683 322.443311,115.698327 326.95,116.955 C331.456689,118.211673 335.919978,118.84 340.34,118.84 C343.720017,118.84 347.143316,118.515003 350.61,117.865 C354.076684,117.214997 357.196653,116.088341 359.97,114.485 C362.743347,112.881659 365.018324,110.758347 366.795,108.115 C368.571676,105.471653 369.46,102.113354 369.46,98.04 C369.46,94.0533134 368.658341,90.8683452 367.055,88.485 C365.451659,86.1016547 363.415012,84.2166736 360.945,82.83 C358.474988,81.4433264 355.831681,80.4250032 353.015,79.775 C350.198319,79.1249967 347.555012,78.5183361 345.085,77.955 C342.614988,77.3916638 340.578341,76.7416703 338.975,76.005 C337.371659,75.2683296 336.57,74.1200078 336.57,72.56 C336.57,70.6533238 337.349992,69.3100039 338.91,68.53 C340.470008,67.7499961 342.073325,67.36 343.72,67.36 C348.400023,67.36 352.169986,69.1366489 355.03,72.69 Z M419.12,109.35 L419.12,117.28 L437.06,117.28 L437.06,85.17 C437.06,79.8833069 436.626671,75.2250201 435.76,71.195 C434.893329,67.1649798 433.355011,63.7633472 431.145,60.99 C428.934989,58.2166528 425.988352,56.1150071 422.305,54.685 C418.621648,53.2549929 413.920029,52.54 408.2,52.54 C402.999974,52.54 397.973358,53.3849915 393.12,55.075 C388.266642,56.7650084 384.020018,59.2999831 380.38,62.68 L390.78,73.34 C392.86001,70.9999883 395.221653,69.15834 397.865,67.815 C400.508347,66.47166 403.433317,65.8 406.64,65.8 C410.020017,65.8 412.944988,66.8183231 415.415,68.855 C417.885012,70.8916768 419.12,73.643316 419.12,77.11 C416.43332,77.11 413.508349,77.1533329 410.345,77.24 C407.181651,77.3266671 404.018349,77.5866645 400.855,78.02 C397.691651,78.4533355 394.636681,79.1249954 391.69,80.035 C388.743319,80.9450045 386.121678,82.2233251 383.825,83.87 C381.528322,85.5166749 379.70834,87.5966541 378.365,90.11 C377.02166,92.6233459 376.35,95.6999818 376.35,99.34 C376.35,102.546683 376.956661,105.363321 378.17,107.79 C379.383339,110.216679 381.02999,112.253325 383.11,113.9 C385.19001,115.546675 387.594986,116.781663 390.325,117.605 C393.055014,118.428337 395.893319,118.84 398.84,118.84 C402.826687,118.84 406.618315,118.103341 410.215,116.63 C413.811685,115.156659 416.693323,112.730017 418.86,109.35 L419.12,109.35 Z M449.28,19 L449.28,117.28 L468.78,117.28 L468.78,85.3 L469.04,85.3 L490.36,117.28 L514.93,117.28 L489.19,82.57 L514.28,54.1 L490.36,54.1 L468.78,79.06 L468.78,19 L449.28,19 Z M581.36,106.36 L567.71,96.35 C566.063325,98.6033446 564.135011,100.444993 561.925,101.875 C559.714989,103.305007 557.006683,104.02 553.8,104.02 C549.986648,104.02 546.780013,102.915011 544.18,100.705 C541.579987,98.4949889 539.890004,95.5266853 539.11,91.8 L584.35,91.8 L584.35,85.69 C584.35,80.6633082 583.656674,76.1133537 582.27,72.04 C580.883326,67.9666463 578.911679,64.4783478 576.355,61.575 C573.798321,58.6716521 570.678352,56.4400078 566.995,54.88 C563.311648,53.3199922 559.216689,52.54 554.71,52.54 C549.856642,52.54 545.285021,53.3199922 540.995,54.88 C536.704979,56.4400078 532.978349,58.6716521 529.815,61.575 C526.651651,64.4783478 524.160009,67.9666463 522.34,72.04 C520.519991,76.1133537 519.61,80.6633082 519.61,85.69 C519.61,90.7166918 520.519991,95.2666463 522.34,99.34 C524.160009,103.413354 526.651651,106.901652 529.815,109.805 C532.978349,112.708348 536.704979,114.939992 540.995,116.5 C545.285021,118.060008 549.856642,118.84 554.71,118.84 C559.823359,118.84 564.76331,117.756677 569.53,115.59 C574.296691,113.423322 578.239984,110.346687 581.36,106.36 Z" id="Combined-Shape"></path>
                <path d="M32.4262544,100.940808 C31.0085383,96.6421172 33.265273,92.7544348 37.1519747,90.9105293 C39.7431092,89.681259 46.3591176,89.0444159 57,89 C57,94.0947448 56.2123799,97.7565926 54.6371398,99.9855435 C52.2742797,103.32897 46.8329936,105.347146 45.1856992,105.717131 C40.932551,106.672396 33.8439705,105.239499 32.4262544,100.940808 Z" id="Path-2"></path>
                <path d="M395.426254,100.940808 C394.008538,96.6421172 396.265273,92.7544348 400.151975,90.9105293 C402.743109,89.681259 409.359118,89.0444159 420,89 C420,94.0947448 419.21238,97.7565926 417.63714,99.9855435 C415.27428,103.32897 409.832994,105.347146 408.185699,105.717131 C403.932551,106.672396 396.843971,105.239499 395.426254,100.940808 Z" id="Path-2"></path>
                <path d="M539.5,78.5 L565.5,78.5 C564.5,70.5 560.166667,66.5 552.5,66.5 C544.833333,66.5 540.5,70.5 539.5,78.5 Z" id="Path-3"></path>
            </g>
        </g>
    </g>
</svg>