<?xml version="1.0" encoding="utf-8"?>
<!-- Generator: Adobe Illustrator 21.1.0, SVG Export Plug-In . SVG Version: 6.00 Build 0)  -->
<svg version="1.1" id="Layer_1" xmlns="http://www.w3.org/2000/svg" xmlns:xlink="http://www.w3.org/1999/xlink" x="0px" y="0px"
	 viewBox="0 0 643.1 139.6" style="enable-background:new 0 0 643.1 139.6;" xml:space="preserve">
<style type="text/css">
	.st0{fill:#F1C929;}
	.st1{enable-background:new    ;}
	.st2{fill:#0B0B0B;}
</style>
<title>Group 5</title>
<g>
	<rect id="Rectangle-5" x="279" y="6.6" class="st0" width="143" height="123"/>
	<g class="st1">
		<path class="st2" d="M23.8,11.4h9.6L54,108.6h-9l-4.8-26H17l-4.9,26H3.2L23.8,11.4z M39,76L28.7,23.5L18.4,76H39z"/>
		<path class="st2" d="M64.6,39.2h8.9v9.5c2.1-3.4,4.5-6,7.4-7.7c2.8-1.7,5.7-2.5,8.6-2.5c0.7,0,1.2,0,1.6,0.1V48
			c-1.4-0.5-2.9-0.7-4.3-0.7c-5.5,0-9.9,2.7-13.2,8v53.3h-8.9V39.2z"/>
		<path class="st2" d="M106.2,105.5c-1.8-2.6-2.6-6.4-2.6-11.3V45H95v-5.8h8.5V17.8h8.8v21.5h11.5V45h-11.5v48.4
			c0,3.5,0.4,5.9,1.2,7.3c0.8,1.3,2.4,2,4.9,2c1.5,0,3.2-0.2,5-0.6v6.7c-2.5,0.5-5,0.7-7.4,0.7C111.2,109.4,108,108.1,106.2,105.5z"
			/>
		<path class="st2" d="M162,45.6h-8.9v-6.4h8.9V32c0-3.9,0.3-7.1,0.9-9.6c0.6-2.5,1.8-4.4,3.7-5.9c1.8-1.4,4.6-2.2,8.2-2.2
			c2.3,0,4.7,0.2,7.1,0.7v6.6c-0.6-0.1-1.5-0.2-2.5-0.4c-1-0.2-1.8-0.2-2.4-0.2c-2.5,0-4.1,0.7-4.9,2.2c-0.8,1.5-1.1,4.1-1.1,7.9v8
			H182v6.4h-11.2v63H162V45.6z"/>
		<path class="st2" d="M192.6,103.3c-2.7-4.3-4.1-10.9-4.1-19.7V64.3c0-8.9,1.4-15.5,4.1-19.7c2.7-4.3,7.5-6.4,14.4-6.4
			c6.9,0,11.7,2.1,14.4,6.4c2.7,4.3,4.1,10.9,4.1,19.7v19.2c0,8.9-1.4,15.5-4.1,19.7c-2.7,4.3-7.5,6.4-14.4,6.4
			C200.1,109.7,195.3,107.5,192.6,103.3z M213.4,100.8c1.4-1.5,2.3-3.6,2.7-6.2c0.4-2.6,0.6-6.2,0.6-10.6V63.8
			c0-4.4-0.2-7.9-0.6-10.6c-0.4-2.6-1.3-4.7-2.7-6.2c-1.4-1.5-3.5-2.3-6.4-2.3s-5,0.8-6.4,2.3c-1.4,1.5-2.3,3.6-2.7,6.2
			c-0.4,2.6-0.6,6.1-0.6,10.6V84c0,4.5,0.2,8,0.6,10.6c0.4,2.6,1.3,4.7,2.7,6.2c1.4,1.5,3.5,2.3,6.4,2.3S212,102.3,213.4,100.8z"/>
		<path class="st2" d="M238.2,39.2h8.9v9.5c2.1-3.4,4.5-6,7.4-7.7c2.8-1.7,5.7-2.5,8.6-2.5c0.7,0,1.2,0,1.6,0.1V48
			c-1.4-0.5-2.9-0.7-4.3-0.7c-5.5,0-9.9,2.7-13.2,8v53.3h-8.9V39.2z"/>
		<path class="st2" d="M299.6,105.2c-2.6-3-3.8-6.6-3.8-11c0-4.6,0.9-8.3,2.6-11.2c1.8-2.9,4.5-5.5,8.3-7.9c3.8-2.3,9.4-5.2,17-8.6
			v-4.9c0-4.3-0.3-7.7-0.8-10.1c-0.5-2.4-1.4-4.1-2.6-5.2c-1.2-1-3-1.6-5.2-1.6c-6.5,0-9.7,4-9.7,11.9v2.5l-8.6-0.2l0.1-2
			c0.2-6.6,1.9-11.3,5-14.3c3.1-3,7.7-4.4,13.7-4.4c6.1,0,10.4,1.8,13,5.5c2.6,3.7,3.9,9.5,3.9,17.4v33.7c0,2.2,0.1,4.8,0.2,7.7
			c0.1,2.9,0.3,4.9,0.4,6.1h-7.8L324,99c-1,3-2.8,5.6-5.3,7.6c-2.5,2-5.5,3.1-8.9,3.1C305.6,109.7,302.2,108.2,299.6,105.2z
			 M319,99.8c2-1.6,3.5-3.6,4.7-5.8V72.4c-5.6,3-9.6,5.2-11.9,6.7c-2.3,1.5-4.1,3.2-5.4,5.2c-1.3,2-1.9,4.6-1.9,7.8
			c0,3.4,0.7,6,2.2,7.7c1.5,1.7,3.4,2.5,5.7,2.5C314.9,102.2,317.1,101.4,319,99.8z"/>
		<path class="st2" d="M346,39.2h8.9v9.5c2.1-3.4,4.5-6,7.4-7.7c2.8-1.7,5.7-2.5,8.6-2.5c0.7,0,1.2,0,1.6,0.1V48
			c-1.4-0.5-2.9-0.7-4.3-0.7c-5.5,0-9.9,2.7-13.2,8v53.3H346V39.2z"/>
		<path class="st2" d="M387.6,105.5c-1.8-2.6-2.6-6.4-2.6-11.3V45h-8.5v-5.8h8.5V17.8h8.8v21.5h11.5V45h-11.5v48.4
			c0,3.5,0.4,5.9,1.2,7.3c0.8,1.3,2.4,2,4.9,2c1.5,0,3.2-0.2,5-0.6v6.7c-2.5,0.5-5,0.7-7.4,0.7C392.6,109.4,389.4,108.1,387.6,105.5
			z"/>
		<path class="st2" d="M441.8,104.4c-3.3-3.5-5.2-8.3-5.7-14.4l7.3-2.3c0.5,5.3,1.7,9.2,3.7,11.6c2,2.5,4.7,3.7,8.2,3.7
			c3,0,5.4-0.9,7.1-2.6c1.7-1.8,2.6-4.2,2.6-7.2c0-4.5-2.8-9.1-8.4-13.9l-9.5-8.2c-3.2-2.6-5.6-5.3-7.1-7.9
			c-1.6-2.6-2.3-5.7-2.3-9.1c0-5,1.5-9,4.4-11.8c3-2.8,7-4.2,12.1-4.2c5.1,0,9.1,1.6,11.8,4.9c2.8,3.3,4.3,7.7,4.6,13.3l-6.2,2
			c-0.5-9.1-3.8-13.7-9.8-13.7c-2.7,0-4.9,0.7-6.5,2.2c-1.6,1.5-2.4,3.5-2.3,6.2c0,2.2,0.4,4.1,1.2,5.7c0.8,1.6,2.3,3.4,4.4,5.2
			l9.8,8.8c3.7,3.3,6.5,6.4,8.5,9.3c2,2.9,3,6.5,3,10.9c0,5.3-1.6,9.4-4.8,12.3c-3.2,2.9-7.5,4.4-13,4.4
			C449.5,109.7,445.1,107.9,441.8,104.4z"/>
		<path class="st2" d="M484.6,105.2c-2.6-3-3.8-6.6-3.8-11c0-4.6,0.9-8.3,2.6-11.2c1.8-2.9,4.5-5.5,8.3-7.9c3.8-2.3,9.4-5.2,17-8.6
			v-4.9c0-4.3-0.3-7.7-0.8-10.1c-0.5-2.4-1.4-4.1-2.6-5.2c-1.2-1-3-1.6-5.2-1.6c-6.5,0-9.7,4-9.7,11.9v2.5l-8.6-0.2l0.1-2
			c0.2-6.6,1.9-11.3,5-14.3c3.1-3,7.7-4.4,13.7-4.4c6.1,0,10.4,1.8,13,5.5c2.6,3.7,3.9,9.5,3.9,17.4v33.7c0,2.2,0.1,4.8,0.2,7.7
			c0.1,2.9,0.3,4.9,0.4,6.1h-7.8l-1.3-9.6c-1,3-2.8,5.6-5.3,7.6c-2.5,2-5.5,3.1-8.9,3.1C490.5,109.7,487.1,108.2,484.6,105.2z
			 M503.9,99.8c2-1.6,3.5-3.6,4.7-5.8V72.4c-5.6,3-9.6,5.2-11.9,6.7c-2.3,1.5-4.1,3.2-5.4,5.2c-1.3,2-1.9,4.6-1.9,7.8
			c0,3.4,0.7,6,2.2,7.7c1.5,1.7,3.4,2.5,5.7,2.5C499.8,102.2,502,101.4,503.9,99.8z"/>
		<path class="st2" d="M530.4,11.4h8.8v61.7l23.2-33.8h9.2L554,66l16.8,42.6h-8.9l-14.6-37.7l-8.2,11.4v26.3h-8.8V11.4z"/>
		<path class="st2" d="M584.9,107c-2.7-1.8-4.7-4.6-6-8.5c-1.3-3.9-1.9-9.2-1.9-16V65c0-6.8,0.7-12.1,2-16c1.3-3.9,3.4-6.7,6.1-8.3
			s6.3-2.5,10.7-2.5c4.8,0,8.5,1,11.1,3.1c2.6,2,4.4,5.1,5.4,9.2c1,4.1,1.5,9.6,1.5,16.4l-0.1,6.2h-28v10.3c0,4.9,0.3,8.7,0.8,11.5
			c0.6,2.8,1.6,4.9,3,6.2s3.5,2,6.1,2c3,0,5.4-1,7-2.9c1.6-1.9,2.5-5.4,2.5-10.4V85h8.5v3.8c0,6.7-1.4,11.9-4.2,15.5
			c-2.8,3.6-7.4,5.4-13.8,5.4C591.2,109.7,587.6,108.8,584.9,107z M605.1,68v-5.8c0-4.2-0.2-7.4-0.7-9.8c-0.4-2.4-1.3-4.3-2.7-5.6
			c-1.4-1.4-3.4-2-6.1-2c-2.5,0-4.4,0.5-5.9,1.6c-1.4,1.1-2.5,3-3.1,5.6c-0.6,2.7-1,6.5-1,11.3V68H605.1z"/>
		<path class="st2" d="M626.3,98h9.4v10.6h-9.4V98z M626.4,11.4h9.4l-3.2,76.3h-3.1L626.4,11.4z"/>
	</g>
	<desc>Created with Sketch.</desc>
</g>
</svg>
