<?xml version="1.0" encoding="UTF-8"?>
<svg width="821px" height="472px" viewBox="0 0 821 472" version="1.1" xmlns="http://www.w3.org/2000/svg" xmlns:xlink="http://www.w3.org/1999/xlink">
    <!-- Generator: Sketch 50.2 (55047) - http://www.bohemiancoding.com/sketch -->
    <title>Group 32</title>
    <desc>Created with Sketch.</desc>
    <defs></defs>
    <g id="Page-1" stroke="none" stroke-width="1" fill="none" fill-rule="evenodd">
        <g id="Group-32">
            <polygon id="Rectangle-8" fill="#DCBC3F" points="0 0 819 0 819 264.523381 0 265"></polygon>
            <path d="M22,246.170685 L44.0347945,18.1238356 L121.289315,18.1238356 L143.05863,246.170685 L99.7854795,246.170685 L96.599726,209.269041 L68.989863,209.269041 L66.3350685,246.170685 L22,246.170685 Z M72.4410959,172.898356 L93.1484932,172.898356 L83.060274,56.8838356 L80.9364384,56.8838356 L72.4410959,172.898356 Z M156.863562,18.1238356 L226.950137,18.1238356 C238.10033,18.1238356 246.728326,20.6458652 252.834384,25.69 C258.940441,30.7341348 263.055332,37.8135161 265.179178,46.9283562 C267.303024,56.0431963 268.364932,67.6799292 268.364932,81.8389041 C268.364932,94.7589687 266.683578,104.847087 263.320822,112.103562 C259.958065,119.360036 254.117576,124.404095 245.799178,127.23589 C252.701678,128.651788 257.701491,132.102986 260.798767,137.589589 C263.896043,143.076192 265.444658,150.509542 265.444658,159.889863 L264.913699,246.170685 L220.313151,246.170685 L220.313151,156.969589 C220.313151,150.59805 219.074259,146.527406 216.596438,144.757534 C214.118618,142.987662 209.605512,142.10274 203.056986,142.10274 L203.056986,246.170685 L156.863562,246.170685 L156.863562,18.1238356 Z M214.207123,102.546301 C220.578662,102.546301 223.764384,95.6439046 223.764384,81.8389041 C223.764384,75.8213398 223.498907,71.3082342 222.967945,68.2994521 C222.436984,65.2906699 221.463569,63.2111016 220.047671,62.0606849 C218.631774,60.9102682 216.596452,60.3350685 213.941644,60.3350685 L203.322466,60.3350685 L203.322466,102.546301 L214.207123,102.546301 Z M303.14274,246.170685 L303.14274,61.9279452 L276.063836,61.9279452 L276.063836,18.1238356 L375.88411,18.1238356 L375.88411,61.9279452 L348.805205,61.9279452 L348.805205,246.170685 L303.14274,246.170685 Z M450.749315,246.170685 L450.749315,18.1238356 L542.074247,18.1238356 L542.074247,62.4589041 L496.67726,62.4589041 L496.67726,98.829589 L539.684932,98.829589 L539.684932,142.633699 L496.67726,142.633699 L496.67726,246.170685 L450.749315,246.170685 Z M569.153151,231.436575 C559.595843,220.197889 554.81726,204.40202 554.81726,184.048493 L554.81726,75.4673973 C554.81726,55.8218196 559.595843,40.9993651 569.153151,30.999589 C578.710459,20.999813 592.692237,16 611.098904,16 C629.505571,16 643.487349,20.999813 653.044658,30.999589 C662.601966,40.9993651 667.380548,55.8218196 667.380548,75.4673973 L667.380548,184.048493 C667.380548,204.579007 662.601966,220.419122 653.044658,231.569315 C643.487349,242.719508 629.505571,248.294521 611.098904,248.294521 C592.692237,248.294521 578.710459,242.675262 569.153151,231.436575 Z M619.328767,201.039178 C620.744665,197.499434 621.452603,192.543867 621.452603,186.172329 L621.452603,74.6709589 C621.452603,69.7153177 620.788911,65.6889196 619.461507,62.5916438 C618.134103,59.4943681 615.435089,57.9457534 611.364384,57.9457534 C603.753935,57.9457534 599.948767,63.6977507 599.948767,75.2019178 L599.948767,186.437808 C599.948767,192.986334 600.745198,197.941901 602.338082,201.304658 C603.930967,204.667414 606.851212,206.348767 611.098904,206.348767 C615.169609,206.348767 617.91287,204.578922 619.328767,201.039178 Z M685.69863,18.1238356 L755.785205,18.1238356 C766.935398,18.1238356 775.563394,20.6458652 781.669452,25.69 C787.77551,30.7341348 791.8904,37.8135161 794.014247,46.9283562 C796.138093,56.0431963 797.2,67.6799292 797.2,81.8389041 C797.2,94.7589687 795.518647,104.847087 792.15589,112.103562 C788.793134,119.360036 782.952644,124.404095 774.634247,127.23589 C781.536747,128.651788 786.53656,132.102986 789.633836,137.589589 C792.731111,143.076192 794.279726,150.509542 794.279726,159.889863 L793.748767,246.170685 L749.148219,246.170685 L749.148219,156.969589 C749.148219,150.59805 747.909327,146.527406 745.431507,144.757534 C742.953686,142.987662 738.440581,142.10274 731.892055,142.10274 L731.892055,246.170685 L685.69863,246.170685 L685.69863,18.1238356 Z M743.042192,102.546301 C749.41373,102.546301 752.599452,95.6439046 752.599452,81.8389041 C752.599452,75.8213398 752.333975,71.3082342 751.803014,68.2994521 C751.272052,65.2906699 750.298637,63.2111016 748.88274,62.0606849 C747.466842,60.9102682 745.43152,60.3350685 742.776712,60.3350685 L732.157534,60.3350685 L732.157534,102.546301 L743.042192,102.546301 Z" id="ART-FOR" fill="#FFFFFF"></path>
            <path d="M0,469.841352 L0,259.744835 L90.6298701,261.683442 L110.50059,469.841352 L71.0014758,469.841352 L68.0935655,436.158058 L42.8916765,436.158058 L40.4684179,469.841352 L0,469.841352 Z M46.0419126,402.959416 L64.9433294,402.959416 L55.7349469,297.063017 L53.79634,297.063017 L46.0419126,402.959416 Z M123.101535,261.683442 L187.075561,261.683442 C197.253298,261.683442 205.128809,263.985514 210.702332,268.589728 C216.275854,273.193943 220.031868,279.655901 221.970484,287.975797 C223.909101,296.295693 224.878394,306.917537 224.878394,319.841647 C224.878394,331.634898 223.343679,340.843188 220.274203,347.466795 C217.204727,354.090401 211.873611,358.694546 204.280697,361.279368 C210.5812,362.571779 215.144958,365.721984 217.972107,370.730077 C220.799257,375.738169 222.21281,382.523226 222.21281,391.085449 L221.728158,469.841352 L181.017414,469.841352 L181.017414,388.419864 C181.017414,382.604015 179.886572,378.888389 177.624852,377.272875 C175.363133,375.657361 171.243635,374.849616 165.266234,374.849616 L165.266234,469.841352 L123.101535,469.841352 L123.101535,261.683442 Z M175.44392,338.743064 C181.259769,338.743064 184.167651,332.442655 184.167651,319.841647 C184.167651,314.3489 183.925327,310.229402 183.440673,307.483028 C182.956019,304.736655 182.0675,302.838455 180.775089,301.788371 C179.482678,300.738287 177.624865,300.213253 175.201594,300.213253 L165.50856,300.213253 L165.50856,338.743064 L175.44392,338.743064 Z M256.623081,469.841352 L256.623081,301.667208 L231.905844,301.667208 L231.905844,261.683442 L323.020366,261.683442 L323.020366,301.667208 L298.303129,301.667208 L298.303129,469.841352 L256.623081,469.841352 Z M399.837662,457.725059 C391.436991,448.355079 387.236718,433.250252 387.236718,412.410124 L387.236718,392.054752 L428.189787,392.054752 L428.189787,417.983619 C428.189787,428.322907 431.501541,433.492473 438.125148,433.492473 C441.840829,433.492473 444.425613,432.402018 445.879575,430.221074 C447.333537,428.040131 448.060508,424.364892 448.060508,419.195248 C448.060508,412.41009 447.252763,406.796264 445.637249,402.353601 C444.021735,397.910938 441.961986,394.195312 439.45794,391.206612 C436.953893,388.217911 432.47091,383.573379 426.008855,377.272875 L408.076741,359.340762 C394.183323,345.770446 387.236718,330.746393 387.236718,314.268152 C387.236718,296.497501 391.315829,282.967776 399.474174,273.678571 C407.632518,264.389367 419.546754,259.744835 435.217237,259.744835 C453.957197,259.744835 467.446535,264.712465 475.685655,274.647875 C483.924776,284.583285 488.044274,300.132372 488.044274,321.295602 L445.637249,321.295602 L445.394923,306.998377 C445.394923,304.252003 444.627566,302.071092 443.092828,300.455579 C441.55809,298.840065 439.417566,298.03232 436.671192,298.03232 C433.440165,298.03232 431.016931,298.920839 429.401417,300.697904 C427.785903,302.47497 426.978158,304.898204 426.978158,307.96768 C426.978158,314.752838 430.855333,321.780217 438.609799,329.05003 L462.842385,352.313312 C468.496683,357.806059 473.181603,363.016012 476.897285,367.943329 C480.612966,372.870646 483.601622,378.686409 485.863341,385.390791 C488.125061,392.095173 489.255903,400.051459 489.255903,409.259888 C489.255903,429.776913 485.49989,445.326 477.987751,455.907615 C470.475612,466.48923 458.076729,471.779959 440.790732,471.779959 C421.889221,471.779959 408.238334,467.095039 399.837662,457.725059 Z M497.494982,469.841352 L517.608028,261.683442 L588.124852,261.683442 L607.995573,469.841352 L568.496458,469.841352 L565.588548,436.158058 L540.386659,436.158058 L537.9634,469.841352 L497.494982,469.841352 Z M543.536895,402.959416 L562.438312,402.959416 L553.229929,297.063017 L551.291322,297.063017 L543.536895,402.959416 Z M620.596517,469.841352 L620.596517,261.683442 L661.791913,261.683442 L661.791913,345.043536 L681.177981,261.683442 L723.100354,261.683442 L699.837072,356.917503 L727.946871,469.841352 L684.812869,469.841352 L662.034238,369.033796 L662.034238,469.841352 L620.596517,469.841352 Z M734.974321,469.841352 L734.974321,261.683442 L819,261.683442 L819,301.909534 L777.381346,301.909534 L777.381346,342.377952 L816.638135,342.377952 L816.638135,381.63474 L777.381346,381.63474 L777.381346,429.372934 L821,429.372934 L821,469.841352 L734.974321,469.841352 Z" id="ART-SAKE" fill="#DCBC3F"></path>
        </g>
    </g>
</svg>