<?xml version="1.0" encoding="UTF-8"?>
<svg width="546px" height="398px" viewBox="0 0 546 398" version="1.1" xmlns="http://www.w3.org/2000/svg" xmlns:xlink="http://www.w3.org/1999/xlink">
    <!-- Generator: Sketch 50.2 (55047) - http://www.bohemiancoding.com/sketch -->
    <title>Group 18</title>
    <desc>Created with Sketch.</desc>
    <defs></defs>
    <g id="Page-1" stroke="none" stroke-width="1" fill="none" fill-rule="evenodd">
        <g id="Group-18">
            <rect id="Rectangle-8" fill="#DCBC3F" x="0" y="0" width="545" height="252"></rect>
            <path d="M26,211.6 L42.6,39.8 L100.8,39.8 L117.2,211.6 L84.6,211.6 L82.2,183.8 L61.4,183.8 L59.4,211.6 L26,211.6 Z M64,156.4 L79.6,156.4 L72,69 L70.4,69 L64,156.4 Z M127,65.2 L162,65.2 L162,81.4 C163.733342,75.666638 166.766645,71.233349 171.1,68.1 C175.433355,64.966651 180.799968,63.4 187.2,63.4 L187.2,92.6 C182.266642,92.6 176.833363,93.299993 170.9,94.7 C164.966637,96.100007 162,97.733324 162,99.6 L162,211.6 L127,211.6 L127,65.2 Z M207,207.4 C203.533316,203.533314 201.8,197.333376 201.8,188.8 L201.8,97.4 L192,97.4 L192,70.8 L201.8,70.8 L201.8,39.8 L235.8,39.8 L235.8,70.8 L245.8,70.8 L245.8,97.4 L235.8,97.4 L235.8,179.6 C235.8,182.133346 235.999998,183.999994 236.4,185.2 C236.800002,186.400006 237.866658,187 239.6,187 C240.93334,187 242.199994,186.933334 243.4,186.8 C244.600006,186.666666 245.399998,186.6 245.8,186.6 L245.8,210.6 C243.79999,211.133336 240.900019,211.699997 237.1,212.3 C233.299981,212.900003 229.600018,213.2 226,213.2 C216.799954,213.2 210.466684,211.266686 207,207.4 Z M306.8,98.2 L300.6,98.2 L300.8,71.6 L306.8,71.6 L306.8,61.6 C306.8,45.866588 314.666588,38 330.4,38 C337.866704,38 343.866644,38.933324 348.4,40.8 L348.4,62.4 C347.06666,61.999998 346.000004,61.8 345.2,61.8 C343.333324,61.8 342.133336,62.46666 341.6,63.8 C341.066664,65.13334 340.8,67.13332 340.8,69.8 L340.8,71.6 L348.4,71.6 L348.4,98.6 L341.6,98.6 L341.6,211.6 L306.8,211.6 L306.8,98.2 Z M358.4,167.8 L358.4,109 C358.4,95.133264 362.299961,84.100041 370.1,75.9 C377.900039,67.699959 388.599932,63.6 402.2,63.6 C415.800068,63.6 426.499961,67.699959 434.3,75.9 C442.100039,84.100041 446,95.133264 446,109 L446,167.8 C446,198.066818 431.400146,213.2 402.2,213.2 C372.999854,213.2 358.4,198.066818 358.4,167.8 Z M408.4,183.2 C409.73334,181.19999 410.4,178.466684 410.4,175 L410.4,103.4 C410.4,94.866624 407.666694,90.6 402.2,90.6 C396.733306,90.6 394,94.866624 394,103.4 L394,175 C394,178.466684 394.66666,181.19999 396,183.2 C397.33334,185.20001 399.399986,186.2 402.2,186.2 C405.000014,186.2 407.06666,185.20001 408.4,183.2 Z M459,65.2 L494,65.2 L494,81.4 C495.733342,75.666638 498.766645,71.233349 503.1,68.1 C507.433355,64.966651 512.799968,63.4 519.2,63.4 L519.2,92.6 C514.266642,92.6 508.833363,93.299993 502.9,94.7 C496.966637,96.100007 494,97.733324 494,99.6 L494,211.6 L459,211.6 L459,65.2 Z" id="Art-for" fill="#FFFFFF"></path>
            <path d="M0,396.931507 L11.0856164,282.202055 L49.9520548,282.202055 L60.9041096,396.931507 L39.1335616,396.931507 L37.5308219,378.366438 L23.640411,378.366438 L22.3047945,396.931507 L0,396.931507 Z M25.3767123,360.068493 L35.7945205,360.068493 L30.7191781,301.702055 L29.6506849,301.702055 L25.3767123,360.068493 Z M67.8493151,282.202055 L103.109589,282.202055 C108.719206,282.202055 113.059916,283.470878 116.131849,286.008562 C119.203782,288.546246 121.273967,292.107854 122.342466,296.693493 C123.410964,301.279133 123.945205,307.133526 123.945205,314.256849 C123.945205,320.756882 123.099324,325.832174 121.407534,329.482877 C119.715745,333.13358 116.777418,335.671226 112.592466,337.09589 C116.065086,337.808223 118.580472,339.544507 120.138699,342.304795 C121.696926,345.065082 122.476027,348.804771 122.476027,353.523973 L122.208904,396.931507 L99.7705479,396.931507 L99.7705479,352.054795 C99.7705479,348.849299 99.1472665,346.801374 97.9006849,345.910959 C96.6541034,345.020543 94.3835781,344.575342 91.0890411,344.575342 L91.0890411,396.931507 L67.8493151,396.931507 L67.8493151,282.202055 Z M96.6986301,324.674658 C99.9041256,324.674658 101.506849,321.20209 101.506849,314.256849 C101.506849,311.229437 101.373289,308.958912 101.106164,307.445205 C100.83904,305.931499 100.349319,304.885277 99.6369863,304.306507 C98.924654,303.727737 97.9006916,303.438356 96.5650685,303.438356 L91.2226027,303.438356 L91.2226027,324.674658 L96.6986301,324.674658 Z M141.441781,396.931507 L141.441781,304.239726 L127.818493,304.239726 L127.818493,282.202055 L178.037671,282.202055 L178.037671,304.239726 L164.414384,304.239726 L164.414384,396.931507 L141.441781,396.931507 Z M186.585616,315.859589 L190.859589,300.366438 L182.578767,300.366438 L182.578767,281 L207.020548,281 L207.020548,299.832192 L200.342466,315.859589 L186.585616,315.859589 Z M220.109589,390.253425 C215.479429,385.089015 213.164384,376.763756 213.164384,365.277397 L213.164384,354.058219 L235.736301,354.058219 L235.736301,368.349315 C235.736301,374.047974 237.561626,376.89726 241.212329,376.89726 C243.260284,376.89726 244.684928,376.296239 245.486301,375.094178 C246.287675,373.892117 246.688356,371.866453 246.688356,369.017123 C246.688356,365.277379 246.243155,362.183231 245.35274,359.734589 C244.462324,357.285947 243.327062,355.238022 241.946918,353.590753 C240.566774,351.943485 238.095908,349.383579 234.534247,345.910959 L224.650685,336.027397 C216.993112,328.547908 213.164384,320.267169 213.164384,311.184932 C213.164384,301.390362 215.412649,293.933245 219.909247,288.813356 C224.405844,283.693468 230.97256,281.133562 239.609589,281.133562 C249.938408,281.133562 257.373265,283.871548 261.914384,289.347603 C266.455502,294.823658 268.726027,303.393777 268.726027,315.058219 L245.35274,315.058219 L245.219178,307.178082 C245.219178,305.664376 244.796237,304.462333 243.950342,303.571918 C243.104448,302.681502 241.924665,302.236301 240.410959,302.236301 C238.630128,302.236301 237.294525,302.726022 236.40411,303.705479 C235.513694,304.684936 235.068493,306.020539 235.068493,307.712329 C235.068493,311.452073 237.205458,315.325322 241.479452,319.332192 L254.835616,332.15411 C257.95207,335.181522 260.534236,338.053069 262.582192,340.768836 C264.630147,343.484603 266.277391,346.69005 267.523973,350.385274 C268.770554,354.080498 269.393836,358.465728 269.393836,363.541096 C269.393836,374.849372 267.323651,383.419491 263.183219,389.251712 C259.042788,395.083933 252.208952,398 242.681507,398 C232.263647,398 224.739749,395.417834 220.109589,390.253425 Z M312.934932,390.253425 C308.304771,385.089015 305.989726,376.763756 305.989726,365.277397 L305.989726,354.058219 L328.561644,354.058219 L328.561644,368.349315 C328.561644,374.047974 330.386968,376.89726 334.037671,376.89726 C336.085627,376.89726 337.51027,376.296239 338.311644,375.094178 C339.113018,373.892117 339.513699,371.866453 339.513699,369.017123 C339.513699,365.277379 339.068498,362.183231 338.178082,359.734589 C337.287667,357.285947 336.152404,355.238022 334.77226,353.590753 C333.392116,351.943485 330.921251,349.383579 327.359589,345.910959 L317.476027,336.027397 C309.818455,328.547908 305.989726,320.267169 305.989726,311.184932 C305.989726,301.390362 308.237991,293.933245 312.734589,288.813356 C317.231187,283.693468 323.797902,281.133562 332.434932,281.133562 C342.76375,281.133562 350.198607,283.871548 354.739726,289.347603 C359.280845,294.823658 361.55137,303.393777 361.55137,315.058219 L338.178082,315.058219 L338.044521,307.178082 C338.044521,305.664376 337.62158,304.462333 336.775685,303.571918 C335.92979,302.681502 334.750008,302.236301 333.236301,302.236301 C331.455471,302.236301 330.119867,302.726022 329.229452,303.705479 C328.339037,304.684936 327.893836,306.020539 327.893836,307.712329 C327.893836,311.452073 330.030801,315.325322 334.304795,319.332192 L347.660959,332.15411 C350.777413,335.181522 353.359579,338.053069 355.407534,340.768836 C357.45549,343.484603 359.102733,346.69005 360.349315,350.385274 C361.595897,354.080498 362.219178,358.465728 362.219178,363.541096 C362.219178,374.849372 360.148993,383.419491 356.008562,389.251712 C351.86813,395.083933 345.034294,398 335.506849,398 C325.088989,398 317.565092,395.417834 312.934932,390.253425 Z M366.760274,396.931507 L377.84589,282.202055 L416.712329,282.202055 L427.664384,396.931507 L405.893836,396.931507 L404.291096,378.366438 L390.400685,378.366438 L389.065068,396.931507 L366.760274,396.931507 Z M392.136986,360.068493 L402.554795,360.068493 L397.479452,301.702055 L396.410959,301.702055 L392.136986,360.068493 Z M434.609589,396.931507 L434.609589,282.202055 L457.315068,282.202055 L457.315068,328.14726 L468,282.202055 L491.106164,282.202055 L478.284247,334.691781 L493.777397,396.931507 L470.003425,396.931507 L457.44863,341.369863 L457.44863,396.931507 L434.609589,396.931507 Z M497.650685,396.931507 L497.650685,282.202055 L543.59589,282.202055 L543.59589,304.373288 L521.023973,304.373288 L521.023973,326.678082 L542.660959,326.678082 L542.660959,348.315068 L521.023973,348.315068 L521.023973,374.626712 L545.065068,374.626712 L545.065068,396.931507 L497.650685,396.931507 Z" id="ART’S-SAKE" fill="#DCBC3F"></path>
        </g>
    </g>
</svg>