<?xml version="1.0" encoding="UTF-8"?>
<svg width="821px" height="474px" viewBox="0 0 821 474" version="1.1" xmlns="http://www.w3.org/2000/svg" xmlns:xlink="http://www.w3.org/1999/xlink">
    <!-- Generator: Sketch 50.2 (55047) - http://www.bohemiancoding.com/sketch -->
    <title>Group 29</title>
    <desc>Created with Sketch.</desc>
    <defs></defs>
    <g id="Page-1" stroke="none" stroke-width="1" fill="none" fill-rule="evenodd">
        <g id="Group-29">
            <polygon id="Rectangle-8" fill="#DCBC3F" points="0 0 819 0 819 264.523381 0 265"></polygon>
            <path d="M22,246.170685 L44.0347945,18.1238356 L121.289315,18.1238356 L143.05863,246.170685 L99.7854795,246.170685 L96.599726,209.269041 L68.989863,209.269041 L66.3350685,246.170685 L22,246.170685 Z M72.4410959,172.898356 L93.1484932,172.898356 L83.060274,56.8838356 L80.9364384,56.8838356 L72.4410959,172.898356 Z M156.863562,18.1238356 L226.950137,18.1238356 C238.10033,18.1238356 246.728326,20.6458652 252.834384,25.69 C258.940441,30.7341348 263.055332,37.8135161 265.179178,46.9283562 C267.303024,56.0431963 268.364932,67.6799292 268.364932,81.8389041 C268.364932,94.7589687 266.683578,104.847087 263.320822,112.103562 C259.958065,119.360036 254.117576,124.404095 245.799178,127.23589 C252.701678,128.651788 257.701491,132.102986 260.798767,137.589589 C263.896043,143.076192 265.444658,150.509542 265.444658,159.889863 L264.913699,246.170685 L220.313151,246.170685 L220.313151,156.969589 C220.313151,150.59805 219.074259,146.527406 216.596438,144.757534 C214.118618,142.987662 209.605512,142.10274 203.056986,142.10274 L203.056986,246.170685 L156.863562,246.170685 L156.863562,18.1238356 Z M214.207123,102.546301 C220.578662,102.546301 223.764384,95.6439046 223.764384,81.8389041 C223.764384,75.8213398 223.498907,71.3082342 222.967945,68.2994521 C222.436984,65.2906699 221.463569,63.2111016 220.047671,62.0606849 C218.631774,60.9102682 216.596452,60.3350685 213.941644,60.3350685 L203.322466,60.3350685 L203.322466,102.546301 L214.207123,102.546301 Z M303.14274,246.170685 L303.14274,61.9279452 L276.063836,61.9279452 L276.063836,18.1238356 L375.88411,18.1238356 L375.88411,61.9279452 L348.805205,61.9279452 L348.805205,246.170685 L303.14274,246.170685 Z M450.749315,246.170685 L450.749315,18.1238356 L542.074247,18.1238356 L542.074247,62.4589041 L496.67726,62.4589041 L496.67726,98.829589 L539.684932,98.829589 L539.684932,142.633699 L496.67726,142.633699 L496.67726,246.170685 L450.749315,246.170685 Z M569.153151,231.436575 C559.595843,220.197889 554.81726,204.40202 554.81726,184.048493 L554.81726,75.4673973 C554.81726,55.8218196 559.595843,40.9993651 569.153151,30.999589 C578.710459,20.999813 592.692237,16 611.098904,16 C629.505571,16 643.487349,20.999813 653.044658,30.999589 C662.601966,40.9993651 667.380548,55.8218196 667.380548,75.4673973 L667.380548,184.048493 C667.380548,204.579007 662.601966,220.419122 653.044658,231.569315 C643.487349,242.719508 629.505571,248.294521 611.098904,248.294521 C592.692237,248.294521 578.710459,242.675262 569.153151,231.436575 Z M619.328767,201.039178 C620.744665,197.499434 621.452603,192.543867 621.452603,186.172329 L621.452603,74.6709589 C621.452603,69.7153177 620.788911,65.6889196 619.461507,62.5916438 C618.134103,59.4943681 615.435089,57.9457534 611.364384,57.9457534 C603.753935,57.9457534 599.948767,63.6977507 599.948767,75.2019178 L599.948767,186.437808 C599.948767,192.986334 600.745198,197.941901 602.338082,201.304658 C603.930967,204.667414 606.851212,206.348767 611.098904,206.348767 C615.169609,206.348767 617.91287,204.578922 619.328767,201.039178 Z M685.69863,18.1238356 L755.785205,18.1238356 C766.935398,18.1238356 775.563394,20.6458652 781.669452,25.69 C787.77551,30.7341348 791.8904,37.8135161 794.014247,46.9283562 C796.138093,56.0431963 797.2,67.6799292 797.2,81.8389041 C797.2,94.7589687 795.518647,104.847087 792.15589,112.103562 C788.793134,119.360036 782.952644,124.404095 774.634247,127.23589 C781.536747,128.651788 786.53656,132.102986 789.633836,137.589589 C792.731111,143.076192 794.279726,150.509542 794.279726,159.889863 L793.748767,246.170685 L749.148219,246.170685 L749.148219,156.969589 C749.148219,150.59805 747.909327,146.527406 745.431507,144.757534 C742.953686,142.987662 738.440581,142.10274 731.892055,142.10274 L731.892055,246.170685 L685.69863,246.170685 L685.69863,18.1238356 Z M743.042192,102.546301 C749.41373,102.546301 752.599452,95.6439046 752.599452,81.8389041 C752.599452,75.8213398 752.333975,71.3082342 751.803014,68.2994521 C751.272052,65.2906699 750.298637,63.2111016 748.88274,62.0606849 C747.466842,60.9102682 745.43152,60.3350685 742.776712,60.3350685 L732.157534,60.3350685 L732.157534,102.546301 L743.042192,102.546301 Z" id="ART-FOR" fill="#FFFFFF"></path>
            <path d="M0,471.096517 L20.113046,262.938607 L90.6298701,262.938607 L110.50059,471.096517 L71.0014758,471.096517 L68.0935655,437.413223 L42.8916765,437.413223 L40.4684179,471.096517 L0,471.096517 Z M46.0419126,404.214581 L64.9433294,404.214581 L55.7349469,298.318182 L53.79634,298.318182 L46.0419126,404.214581 Z M123.101535,262.938607 L187.075561,262.938607 C197.253298,262.938607 205.128809,265.240679 210.702332,269.844894 C216.275854,274.449108 220.031868,280.911066 221.970484,289.230962 C223.909101,297.550858 224.878394,308.172702 224.878394,321.096812 C224.878394,332.890063 223.343679,342.098353 220.274203,348.72196 C217.204727,355.345566 211.873611,359.949712 204.280697,362.534534 C210.5812,363.826945 215.144958,366.977149 217.972107,371.985242 C220.799257,376.993335 222.21281,383.778391 222.21281,392.340614 L221.728158,471.096517 L181.017414,471.096517 L181.017414,389.67503 C181.017414,383.85918 179.886572,380.143554 177.624852,378.52804 C175.363133,376.912526 171.243635,376.104782 165.266234,376.104782 L165.266234,471.096517 L123.101535,471.096517 L123.101535,262.938607 Z M175.44392,339.998229 C181.259769,339.998229 184.167651,333.69782 184.167651,321.096812 C184.167651,315.604065 183.925327,311.484567 183.440673,308.738194 C182.956019,305.99182 182.0675,304.09362 180.775089,303.043536 C179.482678,301.993452 177.624865,301.468418 175.201594,301.468418 L165.50856,301.468418 L165.50856,339.998229 L175.44392,339.998229 Z M256.623081,471.096517 L256.623081,302.922373 L231.905844,302.922373 L231.905844,262.938607 L323.020366,262.938607 L323.020366,302.922373 L298.303129,302.922373 L298.303129,471.096517 L256.623081,471.096517 Z M399.837662,458.980224 C391.436991,449.610244 387.236718,434.505417 387.236718,413.665289 L387.236718,393.309917 L428.189787,393.309917 L428.189787,419.238784 C428.189787,429.578072 431.501541,434.747639 438.125148,434.747639 C441.840829,434.747639 444.425613,433.657183 445.879575,431.47624 C447.333537,429.295296 448.060508,425.620057 448.060508,420.450413 C448.060508,413.665255 447.252763,408.051429 445.637249,403.608766 C444.021735,399.166103 441.961986,395.450477 439.45794,392.461777 C436.953893,389.473076 432.47091,384.828544 426.008855,378.52804 L408.076741,360.595927 C394.183323,347.025611 387.236718,332.001558 387.236718,315.523318 C387.236718,297.752666 391.315829,284.222941 399.474174,274.933737 C407.632518,265.644532 419.546754,261 435.217237,261 C453.957197,261 467.446535,265.96763 475.685655,275.90304 C483.924776,285.83845 488.044274,301.387537 488.044274,322.550767 L445.637249,322.550767 L445.394923,308.253542 C445.394923,305.507168 444.627566,303.326258 443.092828,301.710744 C441.55809,300.09523 439.417566,299.287485 436.671192,299.287485 C433.440165,299.287485 431.016931,300.176004 429.401417,301.95307 C427.785903,303.730135 426.978158,306.153369 426.978158,309.222845 C426.978158,316.008003 430.855333,323.035383 438.609799,330.305195 L462.842385,353.568477 C468.496683,359.061224 473.181603,364.271178 476.897285,369.198495 C480.612966,374.125812 483.601622,379.941574 485.863341,386.645956 C488.125061,393.350339 489.255903,401.306625 489.255903,410.515053 C489.255903,431.032078 485.49989,446.581165 477.987751,457.16278 C470.475612,467.744396 458.076729,473.035124 440.790732,473.035124 C421.889221,473.035124 408.238334,468.350204 399.837662,458.980224 Z M497.494982,471.096517 L517.608028,262.938607 L588.124852,262.938607 L607.995573,471.096517 L568.496458,471.096517 L565.588548,437.413223 L540.386659,437.413223 L537.9634,471.096517 L497.494982,471.096517 Z M543.536895,404.214581 L562.438312,404.214581 L553.229929,298.318182 L551.291322,298.318182 L543.536895,404.214581 Z M620.596517,471.096517 L620.596517,262.938607 L661.791913,262.938607 L661.791913,346.298701 L681.177981,262.938607 L723.100354,262.938607 L699.837072,358.172668 L727.946871,471.096517 L684.812869,471.096517 L662.034238,370.288961 L662.034238,471.096517 L620.596517,471.096517 Z M734.974321,471.096517 L734.974321,262.938607 L819,262.938607 L819,303.164699 L777.381346,303.164699 L777.381346,343.633117 L816.638135,343.633117 L816.638135,382.889906 L777.381346,382.889906 L777.381346,430.628099 L821,430.628099 L821,471.096517 L734.974321,471.096517 Z" id="ART-SAKE" fill="#DCBC3F"></path>
        </g>
    </g>
</svg>