<?xml version="1.0" encoding="UTF-8"?>
<svg width="821px" height="478px" viewBox="0 0 821 478" version="1.1" xmlns="http://www.w3.org/2000/svg" xmlns:xlink="http://www.w3.org/1999/xlink">
    <!-- Generator: Sketch 50.2 (55047) - http://www.bohemiancoding.com/sketch -->
    <title>Group 32</title>
    <desc>Created with Sketch.</desc>
    <defs></defs>
    <g id="Page-1" stroke="none" stroke-width="1" fill="none" fill-rule="evenodd">
        <g id="Group-32">
            <polygon id="Rectangle-8" fill="#DCBC3F" points="0 0 819 0 819 270.51259 0 271"></polygon>
            <path d="M18,251 L40.2061404,21 L118.061404,21 L140,251 L96.3903509,251 L93.1798246,213.782305 L65.3552632,213.782305 L62.6798246,251 L18,251 Z M69,177 L90,177 L79.7692308,60 L77.6153846,60 L69,177 Z M154,21 L224.4,21 C235.600056,21 244.266636,23.54363 250.4,28.6309662 C256.533364,33.7183025 260.666656,40.8583165 262.8,50.0512224 C264.933344,59.2441282 266,70.9805262 266,85.2607683 C266,98.2914893 264.311128,108.466009 260.933333,115.784633 C257.555539,123.103257 251.688931,128.190517 243.333333,131.046566 C250.266701,132.47459 255.288873,135.955347 258.4,141.488941 C261.511127,147.022534 263.066667,154.519549 263.066667,163.98021 L262.533333,251 L217.733333,251 L217.733333,161.034924 C217.733333,154.608815 216.488901,150.503307 214,148.718277 C211.511099,146.933247 206.977811,146.040745 200.4,146.040745 L200.4,251 L154,251 L154,21 Z M212.181818,107 C218.727305,107 222,99.9686238 222,85.9056604 C222,79.7756507 221.727275,75.1782124 221.181818,72.1132075 C220.636361,69.0482027 219.636371,66.9297753 218.181818,65.7578616 C216.727265,64.585948 214.636377,64 211.909091,64 L201,64 L201,107 L212.181818,107 Z M301.398936,251 L301.398936,65.1792782 L274,65.1792782 L274,21 L375,21 L375,65.1792782 L347.601064,65.1792782 L347.601064,251 L301.398936,251 Z M451,251 L451,21 L543,21 L543,65.7147846 L497.267442,65.7147846 L497.267442,102.396973 L540.593023,102.396973 L540.593023,146.576251 L497.267442,146.576251 L497.267442,251 L451,251 Z M569.518868,236.018286 C559.839574,224.697086 555,208.785245 555,188.282286 L555,78.904 C555,59.1141868 559.839574,44.1829075 569.518868,34.1097143 C579.198162,24.0365211 593.358397,19 612,19 C630.641603,19 644.801838,24.0365211 654.481132,34.1097143 C664.160426,44.1829075 669,59.1141868 669,78.904 L669,188.282286 C669,208.963532 664.160426,224.919944 654.481132,236.152 C644.801838,247.384056 630.641603,253 612,253 C593.358397,253 579.198162,247.339485 569.518868,236.018286 Z M620.82716,204.669052 C622.275727,201.115069 623,196.139567 623,189.742397 L623,77.7924866 C623,72.8169101 622.320994,68.7743149 620.962963,65.6645796 C619.604931,62.5548443 616.843642,61 612.679012,61 C604.892965,61 601,66.775136 601,78.3255814 L601,190.008945 C601,196.583813 601.814807,201.559315 603.444444,204.935599 C605.074082,208.311883 608.061707,210 612.407407,210 C616.572037,210 619.378594,208.223035 620.82716,204.669052 Z M688,21 L758.4,21 C769.600056,21 778.266636,23.54363 784.4,28.6309662 C790.533364,33.7183025 794.666656,40.8583165 796.8,50.0512224 C798.933344,59.2441282 800,70.9805262 800,85.2607683 C800,98.2914893 798.311128,108.466009 794.933333,115.784633 C791.555539,123.103257 785.688931,128.190517 777.333333,131.046566 C784.266701,132.47459 789.288873,135.955347 792.4,141.488941 C795.511127,147.022534 797.066667,154.519549 797.066667,163.98021 L796.533333,251 L751.733333,251 L751.733333,161.034924 C751.733333,154.608815 750.488901,150.503307 748,148.718277 C745.511099,146.933247 740.977811,146.040745 734.4,146.040745 L734.4,251 L688,251 L688,21 Z M745.181818,107 C751.727305,107 755,99.9686238 755,85.9056604 C755,79.7756507 754.727275,75.1782124 754.181818,72.1132075 C753.636361,69.0482027 752.636371,66.9297753 751.181818,65.7578616 C749.727265,64.585948 747.636377,64 744.909091,64 L734,64 L734,107 L745.181818,107 Z" id="ART-FOR" fill="#FFFFFF"></path>
            <path d="M0,476.061714 L0,266 L90.6298701,267.938286 L110.50059,476.061714 L71.0014758,476.061714 L68.0935655,442.384 L42.8916765,442.384 L40.4684179,476.061714 L0,476.061714 Z M46.0419126,409.190857 L64.9433294,409.190857 L55.7349469,303.312 L53.79634,303.312 L46.0419126,409.190857 Z M123.101535,267.938286 L187.075561,267.938286 C197.253298,267.938286 205.128809,270.239977 210.702332,274.843429 C216.275854,279.44688 220.031868,285.907768 221.970484,294.226286 C223.909101,302.544803 224.878394,313.164888 224.878394,326.086857 C224.878394,337.878154 223.343679,347.084919 220.274203,353.707429 C217.204727,360.329938 211.873611,364.93332 204.280697,367.517714 C210.5812,368.809911 215.144958,371.959594 217.972107,376.966857 C220.799257,381.97412 222.21281,388.758052 222.21281,397.318857 L221.728158,476.061714 L181.017414,476.061714 L181.017414,394.653714 C181.017414,388.838828 179.886572,385.123818 177.624852,383.508571 C175.363133,381.893325 171.243635,381.085714 165.266234,381.085714 L165.266234,476.061714 L123.101535,476.061714 L123.101535,267.938286 Z M175.44392,344.985143 C181.259769,344.985143 184.167651,338.685777 184.167651,326.086857 C184.167651,320.59502 183.925327,316.476204 183.440673,313.730286 C182.956019,310.984367 182.0675,309.086481 180.775089,308.036571 C179.482678,306.986661 177.624865,306.461714 175.201594,306.461714 L165.50856,306.461714 L165.50856,344.985143 L175.44392,344.985143 Z M256.623081,476.061714 L256.623081,307.915429 L231.905844,307.915429 L231.905844,267.938286 L323.020366,267.938286 L323.020366,307.915429 L298.303129,307.915429 L298.303129,476.061714 L256.623081,476.061714 Z M399.837662,463.947429 C391.436991,454.579001 387.236718,439.476676 387.236718,418.64 L387.236718,398.288 L428.189787,398.288 L428.189787,424.212571 C428.189787,434.550147 431.501541,439.718857 438.125148,439.718857 C441.840829,439.718857 444.425613,438.628582 445.879575,436.448 C447.333537,434.267418 448.060508,430.592788 448.060508,425.424 C448.060508,418.639966 447.252763,413.02707 445.637249,408.585143 C444.021735,404.143216 441.961986,400.428205 439.45794,397.44 C436.953893,394.451795 432.47091,389.808031 426.008855,383.508571 L408.076741,365.579429 C394.183323,352.011361 387.236718,336.989797 387.236718,320.514286 C387.236718,302.746578 391.315829,289.219094 399.474174,279.931429 C407.632518,270.643763 419.546754,266 435.217237,266 C453.957197,266 467.446535,270.966807 475.685655,280.900571 C483.924776,290.834335 488.044274,306.380847 488.044274,327.540571 L445.637249,327.540571 L445.394923,313.245714 C445.394923,310.499796 444.627566,308.319246 443.092828,306.704 C441.55809,305.088754 439.417566,304.281143 436.671192,304.281143 C433.440165,304.281143 431.016931,305.169515 429.401417,306.946286 C427.785903,308.723057 426.978158,311.145889 426.978158,314.214857 C426.978158,320.998891 430.855333,328.025107 438.609799,335.293714 L462.842385,358.553143 C468.496683,364.04498 473.181603,369.254071 476.897285,374.180571 C480.612966,379.107072 483.601622,384.921871 485.863341,391.625143 C488.125061,398.328414 489.255903,406.283383 489.255903,415.490286 C489.255903,436.003912 485.49989,451.550423 477.987751,462.130286 C470.475612,472.710148 458.076729,478 440.790732,478 C421.889221,478 408.238334,473.315856 399.837662,463.947429 Z M497.494982,476.061714 L517.608028,267.938286 L588.124852,267.938286 L607.995573,476.061714 L568.496458,476.061714 L565.588548,442.384 L540.386659,442.384 L537.9634,476.061714 L497.494982,476.061714 Z M543.536895,409.190857 L562.438312,409.190857 L553.229929,303.312 L551.291322,303.312 L543.536895,409.190857 Z M620.596517,476.061714 L620.596517,267.938286 L661.791913,267.938286 L661.791913,351.284571 L681.177981,267.938286 L723.100354,267.938286 L699.837072,363.156571 L727.946871,476.061714 L684.812869,476.061714 L662.034238,375.270857 L662.034238,476.061714 L620.596517,476.061714 Z M734.974321,476.061714 L734.974321,267.938286 L819,267.938286 L819,308.157714 L777.381346,308.157714 L777.381346,348.619429 L816.638135,348.619429 L816.638135,387.869714 L777.381346,387.869714 L777.381346,435.6 L821,435.6 L821,476.061714 L734.974321,476.061714 Z" id="ART-SAKE" fill="#DCBC3F"></path>
        </g>
    </g>
</svg>