<?xml version="1.0" encoding="UTF-8"?>
<svg width="884px" height="563px" viewBox="0 0 884 563" version="1.1" xmlns="http://www.w3.org/2000/svg" xmlns:xlink="http://www.w3.org/1999/xlink">
    <!-- Generator: Sketch 50.2 (55047) - http://www.bohemiancoding.com/sketch -->
    <title>Group 9</title>
    <desc>Created with Sketch.</desc>
    <defs></defs>
    <g id="Page-1" stroke="none" stroke-width="1" fill="none" fill-rule="evenodd">
        <g id="Group-9">
            <path d="M0.9,261 L25.8,3.3 L113.1,3.3 L137.7,261 L88.8,261 L85.2,219.3 L54,219.3 L51,261 L0.9,261 Z M57.9,178.2 L81.3,178.2 L69.9,47.1 L67.5,47.1 L57.9,178.2 Z M153.3,3.3 L232.5,3.3 C245.100063,3.3 254.849966,6.1499715 261.75,11.85 C268.650034,17.5500285 273.299988,25.5499485 275.7,35.85 C278.100012,46.1500515 279.3,59.29992 279.3,75.3 C279.3,89.900073 277.400019,101.299959 273.6,109.5 C269.799981,117.700041 263.200047,123.399984 253.8,126.6 C261.600039,128.200008 267.249982,132.099969 270.75,138.3 C274.250018,144.500031 276,152.899947 276,163.5 L275.4,261 L225,261 L225,160.2 C225,152.999964 223.600014,148.40001 220.8,146.4 C217.999986,144.39999 212.900037,143.4 205.5,143.4 L205.5,261 L153.3,261 L153.3,3.3 Z M218.1,98.7 C225.300036,98.7 228.9,90.900078 228.9,75.3 C228.9,68.499966 228.600003,63.400017 228,60 C227.399997,56.599983 226.300008,54.2500065 224.7,52.95 C223.099992,51.6499935 220.800015,51 217.8,51 L205.8,51 L205.8,98.7 L218.1,98.7 Z M318.6,261 L318.6,52.8 L288,52.8 L288,3.3 L400.8,3.3 L400.8,52.8 L370.2,52.8 L370.2,261 L318.6,261 Z M485.4,261 L485.4,3.3 L588.6,3.3 L588.6,53.4 L537.3,53.4 L537.3,94.5 L585.9,94.5 L585.9,144 L537.3,144 L537.3,261 L485.4,261 Z M619.2,244.35 C608.399946,231.649937 603,213.800115 603,190.8 L603,68.1 C603,45.899889 608.399946,29.1500565 619.2,17.85 C630.000054,6.5499435 645.799896,0.9 666.6,0.9 C687.400104,0.9 703.199946,6.5499435 714,17.85 C724.800054,29.1500565 730.2,45.899889 730.2,68.1 L730.2,190.8 C730.2,214.000116 724.800054,231.899937 714,244.5 C703.199946,257.100063 687.400104,263.4 666.6,263.4 C645.799896,263.4 630.000054,257.050064 619.2,244.35 Z M675.9,210 C677.500008,205.99998 678.3,200.400036 678.3,193.2 L678.3,67.2 C678.3,61.599972 677.550007,57.0500175 676.05,53.55 C674.549993,50.0499825 671.500023,48.3 666.9,48.3 C658.299957,48.3 654,54.799935 654,67.8 L654,193.5 C654,200.900037 654.899991,206.499981 656.7,210.3 C658.500009,214.100019 661.799976,216 666.6,216 C671.200023,216 674.299992,214.00002 675.9,210 Z M750.9,3.3 L830.1,3.3 C842.700063,3.3 852.449965,6.1499715 859.35,11.85 C866.250035,17.5500285 870.899988,25.5499485 873.3,35.85 C875.700012,46.1500515 876.9,59.29992 876.9,75.3 C876.9,89.900073 875.000019,101.299959 871.2,109.5 C867.399981,117.700041 860.800047,123.399984 851.4,126.6 C859.200039,128.200008 864.849983,132.099969 868.35,138.3 C871.850018,144.500031 873.6,152.899947 873.6,163.5 L873,261 L822.6,261 L822.6,160.2 C822.6,152.999964 821.200014,148.40001 818.4,146.4 C815.599986,144.39999 810.500037,143.4 803.1,143.4 L803.1,261 L750.9,261 L750.9,3.3 Z M815.7,98.7 C822.900036,98.7 826.5,90.900078 826.5,75.3 C826.5,68.499966 826.200003,63.400017 825.6,60 C824.999997,56.599983 823.900008,54.2500065 822.3,52.95 C820.699992,51.6499935 818.400015,51 815.4,51 L803.4,51 L803.4,98.7 L815.7,98.7 Z" id="ART-FOR" fill="#DCBC3F"></path>
            <rect id="Rectangle-8" fill="#DCBC3F" x="1" y="311" width="883" height="252"></rect>
            <path d="M42.5035336,512.325913 C38.1678228,504.54315 36,493.420164 36,478.956621 C36,467.110291 37.5484449,458.019058 40.6453811,451.682648 C43.7423174,445.346239 48.0435532,440.697313 53.5492176,437.735731 C59.054882,434.774148 67.4508943,431.502682 78.7375063,427.921233 L88.6476527,424.615297 L88.6476527,409.118721 C88.6476527,405.124029 87.8562253,402.059181 86.2733468,399.924087 C84.6904683,397.788992 82.7979245,396.721461 80.5956588,396.721461 C78.6686762,396.721461 76.9825918,397.61681 75.5373549,399.407534 C74.092118,401.198259 73.3695103,403.608813 73.3695103,406.639269 L73.3695103,415.730594 L38.2710752,415.730594 L38.2710752,410.771689 C38.2710752,395.894903 41.7464737,385.288464 48.6973751,378.952055 C55.6482764,372.615646 66.969129,369.447489 82.6602726,369.447489 C95.1856591,369.447489 105.370986,372.718955 113.216557,379.261986 C121.062129,385.805017 124.984856,395.068433 124.984856,407.052511 L124.984856,522.347032 L89.0605755,522.347032 L89.0605755,504.371005 C87.2712345,510.569666 84.415214,515.390774 80.4924281,518.834475 C76.5696422,522.278176 71.9243075,524 66.5562847,524 C54.8567478,524 46.8392443,520.108677 42.5035336,512.325913 Z M86.6862696,492.490297 C87.8562232,490.217454 88.4411913,487.428099 88.4411913,484.122146 L88.4411913,441.971461 C83.0731685,444.037682 79.1160316,446.654855 76.5696618,449.823059 C74.023292,452.991264 72.7501262,457.399135 72.7501262,463.046804 L72.7501262,482.469178 C72.7501262,491.4228 75.4340973,495.899543 80.8021201,495.899543 C83.5549523,495.899543 85.5163159,494.763139 86.6862696,492.490297 Z M138.817769,371.100457 L174.948511,371.100457 L174.948511,387.836758 C176.737852,381.913593 179.869151,377.33354 184.342504,374.096461 C188.815856,370.859383 194.355848,369.240868 200.962645,369.240868 L200.962645,399.407534 C195.869906,399.407534 190.261094,400.130701 184.136042,401.577055 C178.010991,403.023409 174.948511,404.710797 174.948511,406.639269 L174.948511,522.347032 L138.817769,522.347032 L138.817769,371.100457 Z M221.402322,518.007991 C217.82364,514.013298 216.034326,507.608111 216.034326,498.792237 L216.034326,404.366438 L205.917718,404.366438 L205.917718,376.885845 L216.034326,376.885845 L216.034326,344.859589 L251.132761,344.859589 L251.132761,376.885845 L261.45583,376.885845 L261.45583,404.366438 L251.132761,404.366438 L251.132761,489.287671 C251.132761,491.904884 251.339221,493.833327 251.752145,495.073059 C252.16507,496.312792 253.266187,496.932648 255.055528,496.932648 C256.431944,496.932648 257.739519,496.863775 258.978294,496.726027 C260.217068,496.588279 261.042906,496.519406 261.45583,496.519406 L261.45583,521.313927 C259.391206,521.864919 256.397546,522.450339 252.47476,523.070205 C248.551974,523.690072 244.732477,524 241.016153,524 C231.518882,524 224.981004,522.002684 221.402322,518.007991 Z M276.733973,396.928082 L283.340737,372.960046 L270.540131,372.960046 L270.540131,343 L308.322564,343 L308.322564,372.133562 L297.999495,396.928082 L276.733973,396.928082 Z M317.406865,478.543379 L317.613327,466.559361 L353.744069,466.559361 L353.95053,484.328767 C353.95053,487.910216 354.638728,490.630698 356.015144,492.490297 C357.39156,494.349895 359.662612,495.27968 362.82837,495.27968 C367.645826,495.27968 370.054518,491.353921 370.054518,483.502283 C370.054518,477.716866 368.918992,473.171249 366.647905,469.865297 C364.376819,466.559344 360.76378,463.046822 355.808682,459.327626 L336.607774,444.450913 C330.000977,439.354236 325.252412,434.085453 322.361938,428.644406 C319.471465,423.203359 318.026249,415.524022 318.026249,405.606164 C318.026249,397.892275 320.056433,391.314905 324.11686,385.873858 C328.177288,380.432811 333.57964,376.334869 340.324079,373.579909 C347.068518,370.824948 354.569873,369.447489 362.82837,369.447489 C392.146033,369.447489 406.804644,384.04856 406.804644,413.251142 L406.804644,416.143836 L369.435134,416.143836 L369.435134,410.358447 C369.435134,406.776999 368.850166,403.712151 367.680212,401.163813 C366.510258,398.615474 364.548895,397.341324 361.796063,397.341324 C359.318514,397.341324 357.42597,398.06449 356.118375,399.510845 C354.810779,400.957199 354.156991,402.920079 354.156991,405.399543 C354.156991,410.909464 356.290404,415.179589 360.557294,418.210046 L382.855124,434.533105 C390.838337,440.45627 396.963297,446.895894 401.230187,453.852169 C405.497077,460.808444 407.63049,469.589749 407.63049,480.196347 C407.63049,494.246646 403.638943,505.059703 395.655729,512.635845 C387.672516,520.211986 376.523713,524 362.208985,524 C332.340756,524 317.406865,508.847945 317.406865,478.543379 Z M463.787986,478.543379 L463.994447,466.559361 L500.125189,466.559361 L500.331651,484.328767 C500.331651,487.910216 501.019848,490.630698 502.396265,492.490297 C503.772681,494.349895 506.043733,495.27968 509.20949,495.27968 C514.026947,495.27968 516.435639,491.353921 516.435639,483.502283 C516.435639,477.716866 515.300112,473.171249 513.029026,469.865297 C510.757939,466.559344 507.144901,463.046822 502.189803,459.327626 L482.988894,444.450913 C476.382097,439.354236 471.633533,434.085453 468.743059,428.644406 C465.852585,423.203359 464.40737,415.524022 464.40737,405.606164 C464.40737,397.892275 466.437553,391.314905 470.497981,385.873858 C474.558408,380.432811 479.96076,376.334869 486.705199,373.579909 C493.449638,370.824948 500.950994,369.447489 509.20949,369.447489 C538.527153,369.447489 553.185765,384.04856 553.185765,413.251142 L553.185765,416.143836 L515.816254,416.143836 L515.816254,410.358447 C515.816254,406.776999 515.231286,403.712151 514.061333,401.163813 C512.891379,398.615474 510.930015,397.341324 508.177183,397.341324 C505.699634,397.341324 503.807091,398.06449 502.499495,399.510845 C501.1919,400.957199 500.538112,402.920079 500.538112,405.399543 C500.538112,410.909464 502.671525,415.179589 506.938415,418.210046 L529.236244,434.533105 C537.219458,440.45627 543.344418,446.895894 547.611307,453.852169 C551.878197,460.808444 554.01161,469.589749 554.01161,480.196347 C554.01161,494.246646 550.020063,505.059703 542.03685,512.635845 C534.053637,520.211986 522.904833,524 508.590106,524 C478.721877,524 463.787986,508.847945 463.787986,478.543379 Z M568.567138,512.325913 C564.231427,504.54315 562.063604,493.420164 562.063604,478.956621 C562.063604,467.110291 563.612049,458.019058 566.708985,451.682648 C569.805922,445.346239 574.107157,440.697313 579.612822,437.735731 C585.118486,434.774148 593.514499,431.502682 604.801111,427.921233 L614.711257,424.615297 L614.711257,409.118721 C614.711257,405.124029 613.91983,402.059181 612.336951,399.924087 C610.754073,397.788992 608.861529,396.721461 606.659263,396.721461 C604.73228,396.721461 603.046196,397.61681 601.600959,399.407534 C600.155722,401.198259 599.433115,403.608813 599.433115,406.639269 L599.433115,415.730594 L564.334679,415.730594 L564.334679,410.771689 C564.334679,395.894903 567.810078,385.288464 574.760979,378.952055 C581.711881,372.615646 593.032733,369.447489 608.723877,369.447489 C621.249263,369.447489 631.43459,372.718955 639.280162,379.261986 C647.125733,385.805017 651.04846,395.068433 651.04846,407.052511 L651.04846,522.347032 L615.12418,522.347032 L615.12418,504.371005 C613.334839,510.569666 610.478818,515.390774 606.556032,518.834475 C602.633246,522.278176 597.987912,524 592.619889,524 C580.920352,524 572.902849,520.108677 568.567138,512.325913 Z M612.749874,492.490297 C613.919827,490.217454 614.504796,487.428099 614.504796,484.122146 L614.504796,441.971461 C609.136773,444.037682 605.179636,446.654855 602.633266,449.823059 C600.086896,452.991264 598.81373,457.399135 598.81373,463.046804 L598.81373,482.469178 C598.81373,491.4228 601.497702,495.899543 606.865724,495.899543 C609.618557,495.899543 611.57992,494.763139 612.749874,492.490297 Z M664.881373,522.347032 L664.881373,343.826484 L700.599192,343.826484 L700.599192,423.16895 L717.941949,371.100457 L755.311459,371.100457 L732.600707,436.805936 L761.5053,522.347032 L723.103483,522.347032 L700.599192,451.062785 L700.599192,522.347032 L664.881373,522.347032 Z M775.131752,511.189498 C768.387313,502.64912 765.015144,489.907619 765.015144,472.964612 L765.015144,412.218037 C765.015144,398.305486 769.006691,387.699047 776.989904,380.398402 C784.973117,373.097756 796.121921,369.447489 810.436648,369.447489 C839.479028,369.447489 854,383.704195 854,412.218037 L854,423.16895 C854,434.188792 853.86236,443.142279 853.587077,450.02968 L801.145886,450.02968 L801.145886,479.369863 C801.145886,484.604288 801.696444,488.70223 802.797577,491.663813 C803.89871,494.625395 806.238582,496.106164 809.817264,496.106164 C812.570096,496.106164 814.53146,495.279689 815.701413,493.626712 C816.871367,491.973736 817.559565,490.079729 817.766027,487.944635 C817.97249,485.80954 818.075719,482.67582 818.075719,478.543379 L818.075719,463.873288 L854,463.873288 L854,472.55137 C854,490.183117 850.593421,503.165674 843.780162,511.499429 C836.966902,519.833185 825.233131,524 808.578496,524 C793.024994,524 781.876191,519.729875 775.131752,511.189498 Z M818.075719,432.053653 L818.075719,412.631279 C818.075719,401.749185 815.391748,396.308219 810.023725,396.308219 C803.967495,396.308219 800.939425,401.749185 800.939425,412.631279 L800.939425,432.053653 L818.075719,432.053653 Z" id="art’s-sake" fill="#FFFFFF"></path>
        </g>
    </g>
</svg>