<?xml version="1.0" encoding="UTF-8"?>
<svg width="885px" height="573px" viewBox="0 0 885 573" version="1.1" xmlns="http://www.w3.org/2000/svg" xmlns:xlink="http://www.w3.org/1999/xlink">
    <!-- Generator: Sketch 50.2 (55047) - http://www.bohemiancoding.com/sketch -->
    <title>Group 10</title>
    <desc>Created with Sketch.</desc>
    <defs></defs>
    <g id="Page-1" stroke="none" stroke-width="1" fill="none" fill-rule="evenodd">
        <g id="Group-10">
            <rect id="Rectangle-8" fill="#DCBC3F" x="0" y="0" width="885" height="311"></rect>
            <path d="M48.516129,243.625885 C40.8386713,232.587744 37,215.862262 37,193.448938 L37,99.9201213 C37,79.8660945 41.4714193,64.699411 50.4143921,54.4196158 C59.3573648,44.1398205 72.6872563,39 90.4044665,39 C104.74697,39 115.883335,41.864818 123.813896,47.5945399 C131.744457,53.3242619 137.228273,61.6659378 140.265509,72.619818 C143.302745,83.5736982 144.82134,97.6450101 144.82134,114.834176 L102.300248,114.834176 L102.300248,95.3700708 C102.300248,90.1459125 101.583134,86.1014636 100.148883,83.2366026 C98.714633,80.3717417 96.1414578,78.9393327 92.4292804,78.9393327 C84.161249,78.9393327 80.0272953,84.3319312 80.0272953,95.1172902 L80.0272953,200.274014 C80.0272953,206.846342 80.8709593,211.817644 82.5583127,215.188069 C84.245666,218.558493 87.1984901,220.24368 91.4168734,220.24368 C95.6352568,220.24368 98.5880809,218.558493 100.275434,215.188069 C101.962788,211.817644 102.806452,206.846342 102.806452,200.274014 L102.806452,169.182002 L91.1637717,169.182002 L91.1637717,131.770475 L144.315136,131.770475 L144.315136,258.160768 L126.851117,258.160768 L119.511166,239.960566 C111.749341,253.442265 99.7693118,260.183013 83.5707196,260.183013 C67.8783334,260.183013 56.1935868,254.664026 48.516129,243.625885 Z M160.766749,73.1253792 L205.059553,73.1253792 L205.059553,93.6006067 C207.253113,86.3541936 211.091784,80.7509467 216.575682,76.7906977 C222.059581,72.8304487 228.851076,70.8503539 236.950372,70.8503539 L236.950372,107.75632 C230.707165,107.75632 223.831303,108.641043 216.322581,110.410516 C208.813858,112.179989 205.059553,114.244343 205.059553,116.60364 L205.059553,258.160768 L160.766749,258.160768 L160.766749,73.1253792 Z M252.009926,245.90091 C246.694763,236.37946 244.037221,222.771575 244.037221,205.076845 C244.037221,190.584019 245.935465,179.461785 249.73201,171.709808 C253.528555,163.957831 258.801455,158.270325 265.550868,154.647118 C272.300282,151.023912 282.592983,147.021593 296.42928,142.64004 L308.578164,138.595551 L308.578164,119.637007 C308.578164,114.749891 307.60795,111.00035 305.667494,108.388271 C303.727037,105.776192 301.406961,104.470172 298.707196,104.470172 C296.344901,104.470172 294.277924,105.565543 292.506203,107.75632 C290.734482,109.947096 289.848635,112.896173 289.848635,116.60364 L289.848635,127.725986 L246.82134,127.725986 L246.82134,121.659252 C246.82134,103.458959 251.081843,90.4830182 259.602978,82.7310415 C268.124112,74.9790647 282.002385,71.1031345 301.238213,71.1031345 C316.593129,71.1031345 329.079356,75.1054537 338.69727,83.1102123 C348.315185,91.1149709 353.124069,102.447854 353.124069,117.109201 L353.124069,258.160768 L309.084367,258.160768 L309.084367,236.168857 C306.890808,243.752313 303.389602,249.650468 298.580645,253.863498 C293.771688,258.076529 288.076956,260.183013 281.496278,260.183013 C267.153774,260.183013 257.325089,255.42236 252.009926,245.90091 Z M306.173697,221.633974 C307.607948,218.853373 308.325062,215.44087 308.325062,211.39636 L308.325062,159.82912 C301.744384,162.356939 296.893316,165.558794 293.771712,169.434783 C290.650108,173.310771 289.08933,178.70337 289.08933,185.61274 L289.08933,209.374115 C289.08933,220.327995 292.37962,225.804853 298.960298,225.804853 C302.335004,225.804853 304.739447,224.414574 306.173697,221.633974 Z M415.640199,238.443883 L415.640199,258.160768 L370.081886,258.160768 L370.081886,39.7583418 L415.640199,39.7583418 L415.640199,81.9726997 C422.727083,74.7262867 430.99499,71.1031345 440.444169,71.1031345 C454.786672,71.1031345 465.079373,75.3582318 471.322581,83.8685541 C477.565788,92.3788764 480.687345,104.638612 480.687345,120.648129 L480.687345,209.879676 C480.687345,225.046587 477.481422,237.222064 471.069479,246.406471 C464.657536,255.590878 454.871034,260.183013 441.709677,260.183013 C429.560733,260.183013 420.870994,252.936709 415.640199,238.443883 Z M433.230769,222.897877 C434.496284,220.959882 435.255582,218.516361 435.508685,215.56724 C435.761788,212.618118 435.888337,208.025983 435.888337,201.790698 L435.888337,124.692619 C435.888337,118.120291 435.297773,113.233248 434.116625,110.031345 C432.935478,106.829441 430.404486,105.228514 426.523573,105.228514 C422.30519,105.228514 419.436732,106.829441 417.918114,110.031345 C416.399496,113.233248 415.640199,117.951772 415.640199,124.187058 L415.640199,201.790698 C415.640199,209.879717 416.31513,215.904261 417.665012,219.86451 C419.014895,223.824759 422.052086,225.804853 426.776675,225.804853 C429.813911,225.804853 431.965254,224.835871 433.230769,222.897877 Z M556.111663,73.1253792 L599.39206,73.1253792 L599.39206,94.611729 C601.416884,86.691231 604.875906,80.7930763 609.769231,76.917088 C614.662555,73.0410996 621.5806,71.1031345 630.523573,71.1031345 C637.779193,71.1031345 644.06449,72.7461919 649.379653,76.0323559 C654.694816,79.31852 658.449121,83.8263953 660.64268,89.5561173 C664.354857,83.1523104 668.488811,78.4759163 673.044665,75.5267947 C677.600519,72.5776732 683.927999,71.1031345 692.027295,71.1031345 C706.538534,71.1031345 716.620319,75.5267505 722.272953,84.3741153 C727.925587,93.22148 730.751861,106.071031 730.751861,122.923155 L730.245658,258.160768 L685.699752,258.160768 L685.699752,122.164813 C685.699752,110.199805 682.662561,104.217391 676.588089,104.217391 C672.369706,104.217391 669.332515,106.281745 667.476427,110.410516 C665.620338,114.539286 664.692308,119.468458 664.692308,125.19818 L664.692308,258.160768 L620.399504,258.160768 L620.399504,122.164813 C620.399504,116.940655 619.851122,112.727687 618.754342,109.525784 C617.657563,106.32388 615.337487,104.722952 611.794045,104.722952 C607.238191,104.722952 604.032267,106.955825 602.176179,111.421638 C600.32009,115.887451 599.39206,121.23792 599.39206,127.473205 L599.39206,258.160768 L556.111663,258.160768 L556.111663,73.1253792 Z M744.419355,260.941355 L765.679901,260.941355 C768.717137,260.941355 770.235732,259.677465 770.235732,257.149646 C770.235732,255.969997 770.151366,255.043145 769.98263,254.36906 L741.129032,73.1253792 L783.397022,73.1253792 L791.74938,163.368049 L795.799007,209.374115 L800.60794,163.368049 L810.478908,73.1253792 L853,73.1253792 L818.578164,267.766431 C817.397016,275.012844 814.992574,280.363313 811.364764,283.817998 C807.736955,287.272683 802.042222,289 794.280397,289 L744.419355,289 L744.419355,260.941355 Z" id="Grab-my" fill="#FFFFFF"></path>
            <path d="M0,571.107429 L19.6351243,367.892571 L88.4763432,367.892571 L107.8749,571.107429 L69.3143545,571.107429 L66.4755413,538.224 L41.872494,538.224 L39.5068164,571.107429 L0,571.107429 Z M44.9478749,505.813714 L63.4001604,505.813714 L54.4105854,402.432 L52.5180433,402.432 L44.9478749,505.813714 Z M137.682438,571.107429 L137.682438,406.926857 L113.552526,406.926857 L113.552526,367.892571 L202.502005,367.892571 L202.502005,406.926857 L178.372093,406.926857 L178.372093,571.107429 L137.682438,571.107429 Z M231.363272,571.107429 L231.363272,406.926857 L207.23336,406.926857 L207.23336,367.892571 L296.182839,367.892571 L296.182839,406.926857 L272.052927,406.926857 L272.052927,571.107429 L231.363272,571.107429 Z M307.538091,571.107429 L307.538091,367.892571 L388.917402,367.892571 L388.917402,407.163429 L348.93745,407.163429 L348.93745,446.670857 L387.261427,446.670857 L387.261427,484.995429 L348.93745,484.995429 L348.93745,531.6 L391.519647,531.6 L391.519647,571.107429 L307.538091,571.107429 Z M405.00401,571.107429 L405.00401,367.892571 L446.876504,367.892571 L465.565357,465.123429 L465.565357,367.892571 L504.835605,367.892571 L504.835605,571.107429 L465.092221,571.107429 L444.747394,469.381714 L444.747394,571.107429 L405.00401,571.107429 Z M540.32077,571.107429 L540.32077,406.926857 L516.190858,406.926857 L516.190858,367.892571 L605.140337,367.892571 L605.140337,406.926857 L581.010425,406.926857 L581.010425,571.107429 L540.32077,571.107429 Z M614.603047,571.107429 L614.603047,367.892571 L653.873296,367.892571 L653.873296,571.107429 L614.603047,571.107429 Z M681.315156,557.977714 C672.798674,547.962807 668.540497,533.886948 668.540497,515.749714 L668.540497,418.992 C668.540497,401.485627 672.798674,388.277187 681.315156,379.366286 C689.831638,370.455384 702.290749,366 718.692863,366 C735.094976,366 747.554087,370.455384 756.070569,379.366286 C764.587051,388.277187 768.845229,401.485627 768.845229,418.992 L768.845229,515.749714 C768.845229,534.044663 764.587051,548.15995 756.070569,558.096 C747.554087,568.03205 735.094976,573 718.692863,573 C702.290749,573 689.831638,567.992622 681.315156,557.977714 Z M726.026464,530.890286 C727.288165,527.735984 727.919006,523.320028 727.919006,517.642286 L727.919006,418.282286 C727.919006,413.866264 727.327592,410.2783 726.144747,407.518286 C724.961903,404.758272 722.556821,403.378286 718.929431,403.378286 C712.147788,403.378286 708.757017,408.503949 708.757017,418.755429 L708.757017,517.878857 C708.757017,523.714315 709.466713,528.130271 710.886127,531.126857 C712.30554,534.123444 714.90776,535.621714 718.692863,535.621714 C722.320253,535.621714 724.764762,534.044587 726.026464,530.890286 Z M785.168404,571.107429 L785.168404,367.892571 L827.040898,367.892571 L845.729751,465.123429 L845.729751,367.892571 L885,367.892571 L885,571.107429 L845.256616,571.107429 L824.911788,469.381714 L824.911788,571.107429 L785.168404,571.107429 Z" id="ATTENTION" fill="#DCBC3F"></path>
        </g>
    </g>
</svg>