<?xml version="1.0" encoding="UTF-8"?>
<svg width="885px" height="454px" viewBox="0 0 885 454" version="1.1" xmlns="http://www.w3.org/2000/svg" xmlns:xlink="http://www.w3.org/1999/xlink">
    <!-- Generator: Sketch 50.2 (55047) - http://www.bohemiancoding.com/sketch -->
    <title>Group 29</title>
    <desc>Created with Sketch.</desc>
    <defs></defs>
    <g id="Page-1" stroke="none" stroke-width="1" fill="none" fill-rule="evenodd">
        <g id="Group-29">
            <path d="M0,452 L0,255 L90.3991228,256.931373 L110,452 L71.0372807,452 L68.1688596,420.434762 L43.3092105,420.434762 L40.9188596,452 L0,452 Z M46,391 L64,391 L55.2307692,291 L53.3846154,291 L46,391 Z M139.414894,452 L139.414894,294.456345 L115,294.456345 L115,257 L205,257 L205,294.456345 L180.585106,294.456345 L180.585106,452 L139.414894,452 Z M231.414894,452 L231.414894,294.456345 L205,294.456345 L205,257 L297,257 L297,294.456345 L272.585106,294.456345 L272.585106,452 L231.414894,452 Z M308,452 L308,257 L389.397183,257 L389.397183,294.683353 L349.408451,294.683353 L349.408451,332.593714 L387.740845,332.593714 L387.740845,369.369034 L349.408451,369.369034 L349.408451,414.089639 L392,414.089639 L392,452 L308,452 Z M406,452 L406,257 L448.362559,257 L467.270142,350.300349 L467.270142,257 L507,257 L507,452 L466.791469,452 L446.208531,354.386496 L446.208531,452 L406,452 Z M540.414894,452 L540.414894,294.456345 L516,294.456345 L516,257 L606,257 L606,294.456345 L581.585106,294.456345 L581.585106,452 L540.414894,452 Z M615,452 L615,257 L654,257 L654,452 L615,452 Z M679.990566,439.558286 C671.330145,429.930428 667,416.398563 667,398.962286 L667,305.944 C667,289.114202 671.330145,276.416233 679.990566,267.849714 C688.650987,259.283195 701.320671,255 718,255 C734.679329,255 747.349013,259.283195 756.009434,267.849714 C764.669855,276.416233 769,289.114202 769,305.944 L769,398.962286 C769,416.550183 764.669855,430.119952 756.009434,439.672 C747.349013,449.224048 734.679329,454 718,454 C701.320671,454 688.650987,449.186143 679.990566,439.558286 Z M726.024691,414.420394 C727.34157,411.367307 728,407.093051 728,401.597496 L728,305.42576 C728,301.15144 727.382722,297.678606 726.148148,295.007156 C724.913574,292.335705 722.403311,291 718.617284,291 C711.539059,291 708,295.961191 708,305.883721 L708,401.826476 C708,407.474685 708.740733,411.748942 710.222222,414.649374 C711.703711,417.549806 714.419733,419 718.37037,419 C722.156398,419 724.707812,417.47348 726.024691,414.420394 Z M784,452 L784,257 L826.362559,257 L845.270142,350.300349 L845.270142,257 L885,257 L885,452 L844.791469,452 L824.208531,354.386496 L824.208531,452 L784,452 Z" id="ATTENTION" fill="#DCBC3F"></path>
            <g id="Group-28">
                <rect id="Rectangle-8" fill="#DCBC3F" x="0" y="0" width="885" height="265"></rect>
                <path d="M30.608263,227.52503 C22.8693823,216.384444 19,199.503732 19,176.882388 L19,82.4855247 C19,62.2453753 23.5071926,46.9379288 32.5217129,36.5627262 C41.5362333,26.1875235 54.9727696,21 72.831725,21 C87.2889746,21 98.5144353,23.8914066 106.508444,29.6743064 C114.502453,35.4572062 120.030142,43.8763018 123.091677,54.9318456 C126.153212,65.9873894 127.683957,80.1892981 127.683957,97.5379976 L84.8226779,97.5379976 L84.8226779,77.8932449 C84.8226779,72.6206009 84.0998263,68.5386152 82.6541013,65.6471653 C81.2083764,62.7557153 78.6146146,61.3100121 74.8727382,61.3100121 C66.5385591,61.3100121 62.371532,66.7526597 62.371532,77.6381182 L62.371532,183.770808 C62.371532,190.404134 63.2219457,195.421575 64.9227986,198.823281 C66.6236514,202.224987 69.6000994,203.925814 73.8522316,203.925814 C78.1043638,203.925814 81.0808118,202.224987 82.7816647,198.823281 C84.4825176,195.421575 85.3329312,190.404134 85.3329312,183.770808 L85.3329312,152.390229 L73.5971049,152.390229 L73.5971049,114.631484 L127.173703,114.631484 L127.173703,242.194813 L109.569964,242.194813 L102.171291,223.825694 C94.3473674,237.432517 82.271493,244.235826 65.9433052,244.235826 C50.1253733,244.235826 38.3471436,238.665617 30.608263,227.52503 Z M144.522316,23.0410133 L211.875754,23.0410133 C222.591127,23.0410133 230.882661,25.4646923 236.750603,30.312123 C242.618546,35.1595538 246.572969,41.9628633 248.613993,50.7222557 C250.655016,59.4816481 251.675513,70.6645882 251.675513,84.2714113 C251.675513,96.6876375 250.059727,106.382354 246.828106,113.35585 C243.596486,120.329347 237.983755,125.176705 229.989747,127.89807 C236.623073,129.258752 241.42791,132.575366 244.404403,137.84801 C247.380895,143.120654 248.869119,150.264129 248.869119,159.278649 L248.358866,242.194813 L205.497587,242.194813 L205.497587,156.472256 C205.497587,150.349185 204.307008,146.437282 201.925814,144.736429 C199.54462,143.035577 195.20751,142.185163 188.914355,142.185163 L188.914355,242.194813 L144.522316,242.194813 L144.522316,23.0410133 Z M199.629674,104.171291 C205.752745,104.171291 208.814234,97.5380639 208.814234,84.2714113 C208.814234,78.4885115 208.55911,74.1514017 208.048854,71.2599517 C207.538598,68.3685018 206.603143,66.3700297 205.242461,65.2644753 C203.881778,64.1589209 201.925827,63.606152 199.374548,63.606152 L189.169481,63.606152 L189.169481,104.171291 L199.629674,104.171291 Z M260.349819,242.194813 L281.525332,23.0410133 L355.767189,23.0410133 L376.687575,242.194813 L335.10193,242.194813 L332.04041,206.732207 L305.507238,206.732207 L302.955971,242.194813 L260.349819,242.194813 Z M308.823884,171.779855 L328.723764,171.779855 L319.028951,60.2895054 L316.987937,60.2895054 L308.823884,171.779855 Z M389.954162,23.0410133 L449.398673,23.0410133 C465.38669,23.0410133 476.994837,26.9529162 484.223462,34.7768396 C491.452087,42.6007629 495.066345,55.3569683 495.066345,73.0458384 L495.066345,82.7406514 C495.066345,103.661142 487.582705,116.162223 472.615199,120.24427 C481.799805,122.625464 488.262949,128.153153 492.004825,136.827503 C495.746701,145.501853 497.617612,156.982438 497.617612,171.269602 C497.617612,194.571287 494.130915,212.217371 487.157419,224.208384 C480.183922,236.199397 467.597799,242.194813 449.398673,242.194813 L389.954162,242.194813 L389.954162,23.0410133 Z M441.744873,105.446924 C445.48675,105.446924 448.037991,104.043741 449.398673,101.237334 C450.759355,98.4309269 451.439686,94.4765032 451.439686,89.3739445 L451.439686,67.4330519 C451.439686,60.2894697 448.293156,56.7177322 442,56.7177322 L432.81544,56.7177322 L432.81544,105.446924 L441.744873,105.446924 Z M454.24608,187.342581 L454.24608,160.044029 C454.24608,153.410703 453.268104,148.393262 451.312123,144.991556 C449.356142,141.58985 445.911967,139.889023 440.979493,139.889023 L432.81544,139.889023 L432.81544,203.415561 L437.152593,203.670688 C448.548308,203.670688 454.24608,198.22804 454.24608,187.342581 Z M571.859469,242.194813 L571.859469,23.0410133 L638.702654,23.0410133 L657.071773,156.727382 L675.440893,23.0410133 L742.794331,23.0410133 L742.794331,242.194813 L702.739445,242.194813 L702.739445,84.2714113 L677.481906,242.194813 L638.1924,242.194813 L611.404101,84.2714113 L611.404101,242.194813 L571.859469,242.194813 Z M788.717129,242.194813 L788.717129,169.993969 L753.764777,23.0410133 L797.136309,23.0410133 L809.382388,97.2828709 L821.628468,23.0410133 L865,23.0410133 L830.047648,169.993969 L830.047648,242.194813 L788.717129,242.194813 Z" id="GRAB-MY" fill="#FFFFFF"></path>
            </g>
        </g>
    </g>
</svg>