<?xml version="1.0" encoding="UTF-8"?>
<svg width="751px" height="369px" viewBox="0 0 751 369" version="1.1" xmlns="http://www.w3.org/2000/svg" xmlns:xlink="http://www.w3.org/1999/xlink">
    <!-- Generator: Sketch 50.2 (55047) - http://www.bohemiancoding.com/sketch -->
    <title>Group</title>
    <desc>Created with Sketch.</desc>
    <defs></defs>
    <g id="Page-1" stroke="none" stroke-width="1" fill="none" fill-rule="evenodd">
        <g id="Group" fill="#DCBC3F">
            <path d="M40.815,273.96 L57.585,273.96 L97.625,366 L74.745,366 L66.815,346.5 L31.065,346.5 L23.395,366 L1.035,366 L40.815,273.96 Z M48.615,300.74 L37.435,329.34 L59.925,329.34 L48.615,300.74 Z M112.705,291.9 L86.445,291.9 L86.445,273.96 L159.245,273.96 L159.245,291.9 L132.985,291.9 L132.985,366 L112.705,366 L112.705,291.9 Z M187.325,291.9 L161.065,291.9 L161.065,273.96 L233.865,273.96 L233.865,291.9 L207.605,291.9 L207.605,366 L187.325,366 L187.325,291.9 Z M244.915,273.96 L307.445,273.96 L307.445,292.68 L265.195,292.68 L265.195,309.84 L305.105,309.84 L305.105,328.56 L265.195,328.56 L265.195,347.28 L309.785,347.28 L309.785,366 L244.915,366 L244.915,273.96 Z M326.035,273.96 L353.595,273.96 L392.725,337.92 L392.985,337.92 L392.985,273.96 L413.265,273.96 L413.265,366 L386.745,366 L346.575,300.48 L346.315,300.48 L346.315,366 L326.035,366 L326.035,273.96 Z M449.795,291.9 L423.535,291.9 L423.535,273.96 L496.335,273.96 L496.335,291.9 L470.075,291.9 L470.075,366 L449.795,366 L449.795,291.9 Z M506.345,273.96 L526.625,273.96 L526.625,366 L506.345,366 L506.345,273.96 Z M540.145,319.98 C540.145,312.613296 541.379988,305.94003 543.85,299.96 C546.320012,293.97997 549.764978,288.888354 554.185,284.685 C558.605022,280.481646 563.848303,277.253345 569.915,275 C575.981697,272.746655 582.611631,271.62 589.805,271.62 C596.998369,271.62 603.628303,272.746655 609.695,275 C615.761697,277.253345 621.004978,280.481646 625.425,284.685 C629.845022,288.888354 633.289988,293.97997 635.76,299.96 C638.230012,305.94003 639.465,312.613296 639.465,319.98 C639.465,327.346704 638.230012,334.01997 635.76,340 C633.289988,345.98003 629.845022,351.071646 625.425,355.275 C621.004978,359.478354 615.761697,362.706655 609.695,364.96 C603.628303,367.213345 596.998369,368.34 589.805,368.34 C582.611631,368.34 575.981697,367.213345 569.915,364.96 C563.848303,362.706655 558.605022,359.478354 554.185,355.275 C549.764978,351.071646 546.320012,345.98003 543.85,340 C541.379988,334.01997 540.145,327.346704 540.145,319.98 Z M561.205,319.98 C561.205,324.313355 561.87666,328.278315 563.22,331.875 C564.56334,335.471685 566.491654,338.591653 569.005,341.235 C571.518346,343.878347 574.529982,345.936659 578.04,347.41 C581.550018,348.883341 585.471645,349.62 589.805,349.62 C594.138355,349.62 598.059982,348.883341 601.57,347.41 C605.080018,345.936659 608.091654,343.878347 610.605,341.235 C613.118346,338.591653 615.04666,335.471685 616.39,331.875 C617.73334,328.278315 618.405,324.313355 618.405,319.98 C618.405,315.733312 617.73334,311.790018 616.39,308.15 C615.04666,304.509982 613.118346,301.368347 610.605,298.725 C608.091654,296.081653 605.080018,294.023341 601.57,292.55 C598.059982,291.076659 594.138355,290.34 589.805,290.34 C585.471645,290.34 581.550018,291.076659 578.04,292.55 C574.529982,294.023341 571.518346,296.081653 569.005,298.725 C566.491654,301.368347 564.56334,304.509982 563.22,308.15 C561.87666,311.790018 561.205,315.733312 561.205,319.98 Z M653.245,273.96 L680.805,273.96 L719.935,337.92 L720.195,337.92 L720.195,273.96 L740.475,273.96 L740.475,366 L713.955,366 L673.785,300.48 L673.525,300.48 L673.525,366 L653.245,366 L653.245,273.96 Z" id="ATTENTION"></path>
            <g id="Group-2">
                <path d="M0,0 L751,0 L751,231 L0,231 L0,0 Z M141.389908,162.811765 L141.389908,96.9952941 L92.2818951,96.9952941 L92.2818951,122.610353 L114.797121,122.610353 L114.797121,143.066824 C112.196925,144.489889 108.71035,145.883287 104.337292,147.247059 C99.9642339,148.61083 94.7639187,149.292706 88.7361902,149.292706 C82.8266524,149.292706 77.478601,148.284716 72.6918754,146.268706 C67.9051498,144.252696 63.7980827,141.436253 60.3705508,137.819294 C56.9430189,134.202335 54.3133141,129.933201 52.4813574,125.011765 C50.6494007,120.090328 49.7334361,114.664971 49.7334361,108.735529 C49.7334361,102.924677 50.6494007,97.5289661 52.4813574,92.5482353 C54.3133141,87.5675045 56.9430189,83.268724 60.3705508,79.6517647 C63.7980827,76.0348054 67.9051498,73.218363 72.6918754,71.2023529 C77.478601,69.1863429 82.8266524,68.1783529 88.7361902,68.1783529 C95.8276355,68.1783529 101.737085,69.1863429 106.464715,71.2023529 C111.192345,73.218363 115.447148,76.1830393 119.229252,80.0964706 L138.73063,58.7505882 C132.348329,52.8211468 124.93197,48.6409533 116.481331,46.2098824 C108.030692,43.7788114 98.7824043,42.5632941 88.7361902,42.5632941 C78.9263575,42.5632941 69.8849004,44.1049258 61.6115475,47.1882353 C53.3381947,50.2715448 46.1877613,54.6889124 40.1600328,60.4404706 C34.1323043,66.1920288 29.4342923,73.1590179 26.0658557,81.3416471 C22.6974192,89.5242762 21.0132262,98.655479 21.0132262,108.735529 C21.0132262,118.81558 22.6974192,127.946783 26.0658557,136.129412 C29.4342923,144.312041 34.1323043,151.27903 40.1600328,157.030588 C46.1877613,162.782146 53.3381947,167.199514 61.6115475,170.282824 C69.8849004,173.366133 78.9263575,174.907765 88.7361902,174.907765 C97.955069,174.907765 106.996526,173.959068 115.860833,172.061647 C124.725139,170.164226 133.234746,167.080963 141.389908,162.811765 Z M162.309567,85.2550588 L162.309567,171.705882 L188.902354,171.705882 L188.902354,135.595765 C188.902354,131.326567 189.138732,127.413194 189.611495,123.855529 C190.084258,120.297865 191.118412,117.244248 192.713987,114.694588 C194.309562,112.144928 196.5847,110.158595 199.539469,108.735529 C202.494238,107.312463 206.512663,106.600941 211.594866,106.600941 C213.604108,106.600941 215.524679,106.749175 217.356636,107.045647 C219.188593,107.342119 221.050069,107.786821 222.941121,108.379765 L222.941121,84.0098824 C221.641023,83.6541159 220.222755,83.4169418 218.686275,83.2983529 C217.149796,83.1797641 215.613339,83.1204706 214.076859,83.1204706 C208.167321,83.1204706 203.262479,84.4545749 199.362184,87.1228235 C195.461889,89.7910722 192.093503,93.7933851 189.256925,99.1298824 L188.902354,99.1298824 L188.902354,85.2550588 L162.309567,85.2550588 Z M288.536662,160.855059 L288.536662,171.705882 L313.002026,171.705882 L313.002026,127.768941 C313.002026,120.535023 312.411081,114.160969 311.229174,108.646588 C310.047266,103.132208 307.949412,98.477666 304.935548,94.6828235 C301.921683,90.887981 297.903258,88.0122451 292.880151,86.0555294 C287.857044,84.0988137 281.445291,83.1204706 273.644702,83.1204706 C266.553256,83.1204706 259.698295,84.2766943 253.079613,86.5891765 C246.460931,88.9016586 240.669671,92.3703298 235.705659,96.9952941 L249.888479,111.581647 C252.725057,108.379749 255.945707,105.859774 259.550525,104.021647 C263.155343,102.18352 267.144221,101.264471 271.517279,101.264471 C276.126718,101.264471 280.115596,102.657868 283.484033,105.444706 C286.852469,108.231543 288.536662,111.996682 288.536662,116.740235 C284.872749,116.740235 280.883871,116.799529 276.569908,116.918118 C272.255946,117.036706 267.942048,117.392468 263.628085,117.985412 C259.314123,118.578356 255.147961,119.497406 251.129475,120.742588 C247.11099,121.987771 243.535773,123.73693 240.403718,125.990118 C237.271663,128.243305 234.789694,131.089395 232.957738,134.528471 C231.125781,137.967547 230.209816,142.177387 230.209816,147.158118 C230.209816,151.545904 231.037139,155.399983 232.69181,158.720471 C234.34648,162.040958 236.592071,164.827753 239.428649,167.080941 C242.265227,169.334129 245.544972,171.023994 249.26798,172.150588 C252.990989,173.277182 256.861678,173.840471 260.880164,173.840471 C266.316939,173.840471 271.487707,172.832481 276.392623,170.816471 C281.297539,168.800461 285.227323,165.480023 288.182092,160.855059 L288.536662,160.855059 Z M332.148833,37.2268235 L332.148833,171.705882 L356.614197,171.705882 L356.614197,160.321412 L356.968767,160.321412 C358.032484,161.863067 359.421205,163.434345 361.13497,165.035294 C362.848736,166.636243 364.857949,168.088935 367.162669,169.393412 C369.467389,170.697889 371.978904,171.765172 374.697292,172.595294 C377.415679,173.425416 380.311309,173.840471 383.384269,173.840471 C389.76657,173.840471 395.55783,172.74354 400.758223,170.549647 C405.958616,168.355754 410.42025,165.27249 414.143259,161.299765 C417.866268,157.327039 420.732351,152.613204 422.741593,147.158118 C424.750836,141.703032 425.755443,135.714386 425.755443,129.192 C425.755443,123.14397 424.839478,117.362851 423.007521,111.848471 C421.175565,106.33409 418.575407,101.442374 415.20697,97.1731765 C411.838534,92.9039787 407.731467,89.494601 402.885646,86.9449412 C398.039825,84.3952814 392.544037,83.1204706 386.398118,83.1204706 C380.843153,83.1204706 375.672385,83.9802267 370.885659,85.6997647 C366.098933,87.4193027 362.16915,90.3543322 359.09619,94.5049412 L358.74162,94.5049412 L358.74162,37.2268235 L332.148833,37.2268235 Z M493.832977,85.2550588 L493.832977,171.705882 L520.425764,171.705882 L520.425764,128.658353 C520.425764,125.812221 520.603047,123.084719 520.95762,120.475765 C521.312192,117.86681 522.050873,115.524716 523.173685,113.449412 C524.296497,111.374107 525.921596,109.713889 528.04903,108.468706 C530.176463,107.223523 532.953904,106.600941 536.381436,106.600941 C539.454396,106.600941 541.788628,107.312463 543.384203,108.735529 C544.979778,110.158595 546.132121,111.878108 546.841266,113.894118 C547.55041,115.910128 547.964072,118.044695 548.082262,120.297882 C548.200453,122.55107 548.259548,124.448463 548.259548,125.990118 L548.259548,171.705882 L574.852334,171.705882 L574.852334,125.990118 C574.852334,123.381163 575.11826,120.890835 575.650118,118.519059 C576.181976,116.147282 577.068394,114.072009 578.309397,112.293176 C579.5504,110.514344 581.205045,109.120946 583.273384,108.112941 C585.341722,107.104936 587.912332,106.600941 590.985292,106.600941 C595.35835,106.600941 598.401716,108.053633 600.115482,110.959059 C601.829248,113.864485 602.686118,117.333156 602.686118,121.365176 L602.686118,171.705882 L629.278905,171.705882 L629.278905,120.653647 C629.278905,115.435739 628.776602,110.544023 627.77198,105.978353 C626.767359,101.412683 625.112713,97.4400169 622.807993,94.0602353 C620.503274,90.6804537 617.371266,88.0122451 613.411875,86.0555294 C609.452485,84.0988137 604.57719,83.1204706 598.785843,83.1204706 C592.403542,83.1204706 587.025943,84.3063411 582.652885,86.6781176 C578.279827,89.0498942 574.556874,93.0225604 571.483915,98.5962353 C569.1201,93.259738 565.603977,89.3463654 560.935443,86.856 C556.266908,84.3656346 550.918856,83.1204706 544.891128,83.1204706 C541.699977,83.1204706 538.745253,83.5355253 536.026866,84.3656471 C533.308478,85.1957689 530.885604,86.2630523 528.75817,87.5675294 C526.630737,88.8720065 524.798808,90.3543446 523.262328,92.0145882 C521.725848,93.6748318 520.543958,95.3350505 519.716623,96.9952941 L519.362052,96.9952941 L519.362052,85.2550588 L493.832977,85.2550588 Z M697.71101,185.758588 L736.713764,85.2550588 L709.411836,85.2550588 L690.442315,142.355294 L690.087744,142.355294 L667.927089,85.2550588 L639.206879,85.2550588 L676.968636,172.417412 L675.018498,177.398118 C674.072972,179.769894 673.186555,181.845168 672.35922,183.624 C671.531884,185.402832 670.497731,186.914817 669.256728,188.16 C668.015725,189.405183 666.449721,190.353879 664.558669,191.006118 C662.667617,191.658356 660.244743,191.984471 657.289974,191.984471 C653.035107,191.984471 648.898492,191.095068 644.880007,189.316235 L641.334302,211.195765 C647.716602,213.330364 654.335185,214.397647 661.190249,214.397647 C667.57255,214.397647 672.713771,213.775065 676.614066,212.529882 C680.51436,211.2847 683.73501,209.4466 686.276111,207.015529 C688.817213,204.584458 690.915067,201.590135 692.569738,198.032471 C694.224408,194.474806 695.938149,190.383553 697.71101,185.758588 Z" id="Combined-Shape"></path>
                <path d="M256.562656,148.452811 C254.691271,142.889799 257.67016,137.85868 262.800607,135.47245 C266.220904,133.881629 274.954035,133.057479 289,133 C289,139.593199 287.960342,144.332061 285.881025,147.216586 C282.762049,151.543373 275.579552,154.15513 273.405123,154.633935 C267.790967,155.87016 258.434041,154.015822 256.562656,148.452811 Z" id="Path-2"></path>
                <path d="M379.617647,150 C392.238978,150 400,139.967395 400,127.591549 C400,115.215704 392.238978,107 379.617647,107 C366.996316,107 358,116.124154 358,128.5 C358,140.875846 366.996316,150 379.617647,150 Z" id="Oval"></path>
            </g>
        </g>
    </g>
</svg>