<?xml version="1.0" encoding="UTF-8"?>
<svg width="754px" height="405px" viewBox="0 0 754 405" version="1.1" xmlns="http://www.w3.org/2000/svg" xmlns:xlink="http://www.w3.org/1999/xlink">
    <!-- Generator: Sketch 51.3 (57544) - http://www.bohemiancoding.com/sketch -->
    <title>Group</title>
    <desc>Created with Sketch.</desc>
    <defs></defs>
    <g id="Page-1" stroke="none" stroke-width="1" fill="none" fill-rule="evenodd">
        <g id="Desktop-projects" transform="translate(-136.000000, -2139.000000)">
            <g id="Group" transform="translate(136.000000, 2139.000000)">
                <path d="M0,403.231156 L0,229 L77.0180097,230.708149 L93.7175141,403.231156 L60.5221578,403.231156 L58.0783279,375.314162 L36.8984686,375.314162 L34.8619437,403.231156 L0,403.231156 Z M39.1909605,349.281407 L54.5265537,349.281407 L47.0553672,260.839196 L45.4824859,260.839196 L39.1909605,349.281407 Z M118.778339,403.231156 L118.778339,263.896064 L97.9774011,263.896064 L97.9774011,230.768844 L174.655367,230.768844 L174.655367,263.896064 L153.85443,263.896064 L153.85443,403.231156 L118.778339,403.231156 Z M197.16026,403.231156 L197.16026,263.896064 L174.655367,263.896064 L174.655367,230.768844 L253.037288,230.768844 L253.037288,263.896064 L232.236351,263.896064 L232.236351,403.231156 L197.16026,403.231156 Z M262.40904,403.231156 L262.40904,230.768844 L331.7576,230.768844 L331.7576,264.096835 L297.688104,264.096835 L297.688104,297.625596 L330.346437,297.625596 L330.346437,330.150502 L297.688104,330.150502 L297.688104,369.702394 L333.975141,369.702394 L333.975141,403.231156 L262.40904,403.231156 Z M345.902825,403.231156 L345.902825,230.768844 L381.994768,230.768844 L398.103601,313.285736 L398.103601,230.768844 L431.952542,230.768844 L431.952542,403.231156 L397.695783,403.231156 L380.159584,316.899614 L380.159584,403.231156 L345.902825,403.231156 Z M460.421277,403.231156 L460.421277,263.896064 L439.620339,263.896064 L439.620339,230.768844 L516.298305,230.768844 L516.298305,263.896064 L495.497367,263.896064 L495.497367,403.231156 L460.421277,403.231156 Z M523.966102,403.231156 L523.966102,230.768844 L557.19322,230.768844 L557.19322,403.231156 L523.966102,403.231156 Z M579.336595,392.227429 C571.958113,383.712338 568.268927,371.744458 568.268927,356.323429 L568.268927,274.056 C568.268927,259.171354 571.958113,247.94099 579.336595,240.364571 C586.715078,232.788153 597.509363,229 611.719774,229 C625.930185,229 636.72447,232.788153 644.102953,240.364571 C651.481435,247.94099 655.170621,259.171354 655.170621,274.056 L655.170621,356.323429 C655.170621,371.878554 651.481435,383.879958 644.102953,392.328 C636.72447,400.776042 625.930185,405 611.719774,405 C597.509363,405 586.715078,400.742519 579.336595,392.227429 Z M618.55663,369.994921 C619.678581,367.294704 620.239548,363.514457 620.239548,358.654066 L620.239548,273.597657 C620.239548,269.817354 619.713641,266.745903 618.661812,264.383213 C617.609983,262.020523 615.471296,260.839196 612.245686,260.839196 C606.215199,260.839196 603.2,265.226983 603.2,274.002688 L603.2,358.856582 C603.2,363.851983 603.831088,367.63223 605.093283,370.197436 C606.355478,372.762642 608.669468,374.045226 612.035321,374.045226 C615.260931,374.045226 617.434679,372.695138 618.55663,369.994921 Z M667.950282,403.231156 L667.950282,230.768844 L704.042226,230.768844 L720.151059,313.285736 L720.151059,230.768844 L754,230.768844 L754,403.231156 L719.74324,403.231156 L702.207042,316.899614 L702.207042,403.231156 L667.950282,403.231156 Z" id="ATTENTION" fill="#DCBC3F"></path>
                <g id="Group-28">
                    <rect id="Rectangle-8" fill="#DCBC3F" x="0" y="0" width="754" height="238.227344"></rect>
                    <path d="M26.0775483,204.538429 C19.4841969,194.523363 16.1875706,179.348091 16.1875706,159.012157 L16.1875706,74.1521036 C16.1875706,55.956794 20.0275968,42.1958419 27.7077644,32.8688345 C35.3879321,23.5418271 46.8355574,18.8783933 62.0509838,18.8783933 C74.3682337,18.8783933 83.9320726,21.4776842 90.7427872,26.6763441 C97.5535019,31.875004 102.262968,39.4435277 104.871327,49.3821421 C107.479686,59.3207566 108.783845,72.0878622 108.783845,87.6838418 L72.2670047,87.6838418 L72.2670047,70.0237767 C72.2670047,65.2838221 71.6511514,61.6142349 70.4194264,59.0149049 C69.1877014,56.415575 66.977875,55.1159295 63.7898809,55.1159295 C56.6893486,55.1159295 53.1391357,60.0087125 53.1391357,69.7944252 L53.1391357,165.204647 C53.1391357,171.167816 53.863669,175.67835 55.3127572,178.736385 C56.7618454,181.794421 59.2977118,183.323415 62.9204323,183.323415 C66.5431529,183.323415 69.0790193,181.794421 70.5281075,178.736385 C71.9771957,175.67835 72.701729,171.167816 72.701729,165.204647 L72.701729,136.994413 L62.7030702,136.994413 L62.7030702,103.050392 L108.349121,103.050392 L108.349121,217.72614 L93.351133,217.72614 L87.0476307,201.212832 C80.3818249,213.444973 70.0934528,219.560952 56.1822058,219.560952 C42.7056852,219.560952 32.6708998,214.553494 26.0775483,204.538429 Z M123.129747,20.7132052 L180.513354,20.7132052 C189.64261,20.7132052 196.706809,22.8920227 201.706164,27.2497229 C206.705518,31.6074231 210.074598,37.7234018 211.813503,45.5978425 C213.552409,53.4722832 214.421849,63.5254232 214.421849,75.7575641 C214.421849,86.9193927 213.045236,95.6346623 210.291968,101.903635 C207.538701,108.172607 202.756781,112.530242 195.946067,114.97667 C201.597511,116.199884 205.691124,119.181423 208.227028,123.921378 C210.762932,128.661333 212.030866,135.08311 212.030866,143.186904 L211.596141,217.72614 L175.0793,217.72614 L175.0793,140.664037 C175.0793,135.159574 174.064954,131.642886 172.03623,130.113868 C170.007507,128.584851 166.312387,127.820353 160.950761,127.820353 L160.950761,217.72614 L123.129747,217.72614 L123.129747,20.7132052 Z M170.079971,93.6469807 C175.296689,93.6469807 177.905008,87.6839015 177.905008,75.7575641 C177.905008,70.5589042 177.687648,66.6599678 177.252922,64.0606378 C176.818196,61.4613079 176.021209,59.6647391 174.861938,58.6708777 C173.702668,57.6770163 172.036241,57.180093 169.862609,57.180093 L161.168123,57.180093 L161.168123,93.6469807 L170.079971,93.6469807 Z M221.812162,217.72614 L239.85322,20.7132052 L303.105605,20.7132052 L320.929302,217.72614 L285.499271,217.72614 L282.890926,185.846282 L260.285262,185.846282 L258.111641,217.72614 L221.812162,217.72614 Z M263.11097,154.425127 L280.065218,154.425127 L271.805456,54.1985235 L270.066559,54.1985235 L263.11097,154.425127 Z M332.232133,20.7132052 L382.877514,20.7132052 C396.498943,20.7132052 406.388822,24.229893 412.547447,31.263374 C418.706072,38.296855 421.785338,49.7643151 421.785338,65.6660983 L421.785338,74.3814551 C421.785338,93.1883718 415.409445,104.426483 402.657469,108.096125 C410.482545,110.23675 415.988998,115.205982 419.176992,123.003972 C422.364986,130.801962 423.958959,141.122676 423.958959,153.966424 C423.958959,174.913965 420.988373,190.777285 415.047111,201.556859 C409.10585,212.336433 398.382758,217.72614 382.877514,217.72614 L332.232133,217.72614 L332.232133,20.7132052 Z M376.356649,94.7937382 C379.544643,94.7937382 381.718243,93.5323176 382.877514,91.0094385 C384.036784,88.4865595 384.616411,84.9316468 384.616411,80.344594 L384.616411,60.6203654 C384.616411,54.1984914 381.935638,50.9876026 376.574011,50.9876026 L368.748974,50.9876026 L368.748974,94.7937382 L376.356649,94.7937382 Z M387.007394,168.415568 L387.007394,143.874958 C387.007394,137.911789 386.174181,133.401255 384.50773,130.34322 C382.841278,127.285185 379.906919,125.75619 375.704563,125.75619 L368.748974,125.75619 L368.748974,182.864712 L372.44413,183.094064 C382.153022,183.094064 387.007394,178.201281 387.007394,168.415568 Z M487.211344,217.72614 L487.211344,20.7132052 L544.160227,20.7132052 L559.810302,140.893389 L575.460376,20.7132052 L632.843983,20.7132052 L632.843983,217.72614 L598.718126,217.72614 L598.718126,75.7575641 L577.199274,217.72614 L543.725503,217.72614 L520.902477,75.7575641 L520.902477,217.72614 L487.211344,217.72614 Z M671.96917,217.72614 L671.96917,152.819666 L642.190556,20.7132052 L679.142121,20.7132052 L689.575504,87.4544903 L700.008887,20.7132052 L736.960452,20.7132052 L707.181838,152.819666 L707.181838,217.72614 L671.96917,217.72614 Z" id="GRAB-MY" fill="#FFFFFF"></path>
                </g>
            </g>
        </g>
    </g>
</svg>