<?xml version="1.0" encoding="UTF-8"?>
<svg width="573px" height="208px" viewBox="0 0 573 208" version="1.1" xmlns="http://www.w3.org/2000/svg" xmlns:xlink="http://www.w3.org/1999/xlink">
    <!-- Generator: Sketch 50.2 (55047) - http://www.bohemiancoding.com/sketch -->
    <title>Group 2</title>
    <desc>Created with Sketch.</desc>
    <defs>
        <path d="M531.355189,61.657571 L550.795189,61.657571 L544.315189,176.317571 L537.475189,176.317571 L531.355189,61.657571 Z M531.355189,187.657571 L550.795189,187.657571 L550.795189,207.457571 L531.355189,207.457571 L531.355189,187.657571 Z" id="path-1"></path>
    </defs>
    <g id="Page-1" stroke="none" stroke-width="1" fill="none" fill-rule="evenodd">
        <g id="Group-2">
            <rect id="Rectangle-path" fill="#B4928F" fill-rule="nonzero" x="0" y="96.8" width="520" height="110.75"></rect>
            <g id="Group" transform="translate(8.000000, 109.000000)" fill="#0B0B0B" fill-rule="nonzero">
                <path d="M52.81,66.29 C52.1465981,63.338431 51.2641544,60.4404056 50.17,57.62 L45.75,46.62 L16.04,46.62 L11.62,57.62 C10.4660195,60.4193735 9.5820068,63.3225515 8.98,66.29 L0.14,66.29 C1.84,63.48 2.44,62.21 4.73,56.51 L23.73,9.59 C24.8634188,7.03683999 25.7734888,4.39027614 26.45,1.68 L35.04,1.68 C35.38,3.3 35.81,4.4 37.93,9.59 L56.93,56.51 C58.2240688,59.8624881 59.7304544,63.129107 61.44,66.29 L52.81,66.29 Z M32.75,12.74 C32.5,12.06 32.5,11.98 30.88,7.3 C30.46,8.58 30.11,9.51 29.94,10.11 C29.43,11.47 29.17,12.4 29,12.74 L18.12,40.79 L43.71,40.79 L32.75,12.74 Z" id="Shape"></path>
                <path d="M93.61,56.69 C93.5411425,59.9074167 93.7687706,63.1243376 94.29,66.3 L86.29,66.3 C86.8213727,63.1255345 87.0490683,59.9076601 86.97,56.69 L86.97,7.69 L73.72,7.69 C70.4491852,7.62742708 67.1786369,7.82807421 63.94,8.29 L63.94,1.15 C67.1487614,1.6080783 70.3893659,1.80539065 73.63,1.74 L106.78,1.74 C110.123966,1.82326824 113.469025,1.62590977 116.78,1.15 L116.78,8.29 C113.468755,7.81615991 110.124146,7.61548335 106.78,7.69 L93.61,7.69 L93.61,56.69 Z" id="Shape"></path>
                <path d="M148.77,56.69 C148.701142,59.9074167 148.928771,63.1243376 149.45,66.3 L141.45,66.3 C141.981373,63.1255345 142.209068,59.9076601 142.13,56.69 L142.13,7.69 L128.88,7.69 C125.609185,7.62742708 122.338637,7.82807421 119.1,8.29 L119.1,1.15 C122.308761,1.6080783 125.549366,1.80539065 128.79,1.74 L161.94,1.74 C165.283966,1.82326824 168.629025,1.62590977 171.94,1.15 L171.94,8.29 C168.628755,7.81615991 165.284146,7.61548335 161.94,7.69 L148.77,7.69 L148.77,56.69 Z" id="Shape"></path>
                <path d="M223.4,66.93 C220.249379,66.46144 217.064367,66.2640495 213.88,66.34 L188.98,66.34 C184.9,66.34 182.52,66.42 179.63,66.59 C180.149278,63.242721 180.3768,59.8566597 180.31,56.47 L180.31,11.12 C180.334578,7.87726526 180.107227,4.63752038 179.63,1.43 C182.63,1.6 184.9,1.68 188.98,1.68 L213.21,1.68 C216.393645,1.72258257 219.575976,1.52535825 222.73,1.09 L222.73,8.23 C219.577776,7.77614049 216.394263,7.57549891 213.21,7.63 L187.04,7.63 L187.04,29.39 L209.4,29.39 C212.58336,29.4212879 215.764863,29.2241149 218.92,28.8 L218.92,35.93 C215.768388,35.4709324 212.584178,35.2735916 209.4,35.34 L187.04,35.34 L187.04,60.34 L213.99,60.34 C217.147005,60.3801551 220.302563,60.1829328 223.43,59.75 L223.4,66.93 Z" id="Shape"></path>
                <path d="M243.37,1.69 C244.559496,4.37756377 246.013317,6.94017349 247.71,9.34 L274.57,49.55 C275.51,51 278.06,55.16 280.1,58.82 C279.76,52.02 279.59,48.28 279.59,47.51 L279.59,11.51 C279.66117,8.23610544 279.433561,4.96254314 278.91,1.73 L286.82,1.73 C286.293029,4.96214829 286.065397,8.23602449 286.14,11.51 L286.14,56.82 C286.053962,60.0079536 286.281725,63.1966402 286.82,66.34 L277.55,66.34 C276.275502,63.6801743 274.797787,61.1225921 273.13,58.69 L245.84,17.69 C245.16,16.69 242.35,11.82 241.16,9.53 C241.5,13.53 241.67,17.69 241.67,19.9 L241.67,56.2 C241.580541,59.5871586 241.8082,62.975258 242.35,66.32 L234.44,66.32 C234.982033,62.9752847 235.209693,59.5871634 235.12,56.2 L235.12,11.2 C235.178965,8.01270393 234.951383,4.82655688 234.44,1.68 L243.37,1.69 Z" id="Shape"></path>
                <path d="M324.38,56.69 C324.311426,59.9074098 324.539052,63.1243046 325.06,66.3 L317.06,66.3 C317.591071,63.1254987 317.818765,59.9076531 317.74,56.69 L317.74,7.69 L304.49,7.69 C301.219185,7.62742708 297.948637,7.82807421 294.71,8.29 L294.71,1.15 C297.918761,1.6080783 301.159366,1.80539065 304.4,1.74 L337.55,1.74 C340.893965,1.82317424 344.239016,1.62581623 347.55,1.15 L347.55,8.29 C344.238733,7.81638467 340.894142,7.61570922 337.55,7.69 L324.38,7.69 L324.38,56.69 Z" id="Shape"></path>
                <path d="M363.31,1.69 C362.772573,4.83423165 362.51822,8.02032746 362.55,11.21 L362.55,56.77 C362.514573,59.9597987 362.768951,63.1462225 363.31,66.29 L355.23,66.29 C355.750976,63.1445703 355.978621,59.9575438 355.91,56.77 L355.91,11.21 C355.982065,8.02237141 355.754397,4.83502412 355.23,1.69 L363.31,1.69 Z" id="Shape"></path>
                <path d="M433.04,33.99 C433.04,54.48 421.56,67.57 403.63,67.57 C385.7,67.57 374.3,54.48 374.3,33.99 C374.3,13.5 385.86,0.41 403.71,0.41 C421.56,0.41 433.04,13.51 433.04,33.99 Z M418.5,55.75 C423.35,50.99 426.07,43.08 426.07,33.99 C426.07,24.64 423.52,17.16 418.59,12.23 C414.615063,8.36141266 409.255571,6.24715075 403.71,6.36 C390.11,6.36 381.18,17.24 381.18,33.9 C381.18,50.56 390.18,61.53 403.79,61.53 C409.266162,61.6822154 414.567617,59.5948578 418.47,55.75 L418.5,55.75 Z" id="Shape"></path>
                <path d="M453.04,1.69 C454.229968,4.37732613 455.683763,6.93989024 457.38,9.34 L484.24,49.55 C485.17,51 487.73,55.16 489.77,58.82 C489.43,52.02 489.26,48.28 489.26,47.51 L489.26,11.51 C489.33117,8.23610544 489.103561,4.96254314 488.58,1.73 L496.49,1.73 C495.963029,4.96214829 495.735397,8.23602449 495.81,11.51 L495.81,56.82 C495.723962,60.0079536 495.951725,63.1966402 496.49,66.34 L487.24,66.34 C485.965502,63.6801743 484.487787,61.1225921 482.82,58.69 L455.53,17.69 C454.85,16.69 452.04,11.82 450.86,9.53 C451.2,13.53 451.37,17.69 451.37,19.9 L451.37,56.2 C451.2806,59.5871574 451.508258,62.9752514 452.05,66.32 L444.14,66.32 C444.682325,62.975318 444.909987,59.5871693 444.82,56.2 L444.82,11.2 C444.879181,8.01269823 444.651598,4.82653181 444.14,1.68 L453.04,1.69 Z" id="Shape"></path>
            </g>
            <path d="M15.95,76.25 C12.9166667,71.8166667 11.4,65.4333333 11.4,57.1 L11.4,25.5 C11.4,17.1 12.9,10.75 15.9,6.45 C18.9,2.15 24.2333333,0 31.9,0 C38.9,0 43.9166667,1.95 46.95,5.85 C49.9833333,9.75 51.5,15.5666667 51.5,23.3 L51.5,26.1 L44.3,26.1 L44.3,23.3 C44.3,17.2333333 43.4333333,12.85 41.7,10.15 C39.9666667,7.45 36.7333333,6.1 32,6.1 C28.4666667,6.1 25.75,6.86666667 23.85,8.4 C21.9129691,9.99364009 20.5734029,12.1968741 20.05,14.65 C19.3526307,17.9361385 19.0338875,21.2913307 19.1,24.65 L19.1,57.95 C19.1,64.2833333 20.0166667,68.9833333 21.85,72.05 C23.6833333,75.1166667 27.1,76.65 32.1,76.65 C36.8333333,76.65 40.1333333,75.1 42,72 C43.8666667,68.9 44.8,64.15 44.8,57.75 L44.8,48.25 L32.8,48.25 L32.8,42.55 L51.8,42.55 L51.8,81.75 L46.9,81.75 L46,72.55 C45.0564561,75.5418618 43.2468289,78.1867016 40.8,80.15 C38.4666667,81.95 35.3333333,82.85 31.4,82.85 C24.1333333,82.9033333 18.9833333,80.7033333 15.95,76.25 Z" id="Shape" fill="#0B0B0B" fill-rule="nonzero"></path>
            <path d="M64.04,24 L71.44,24 L71.44,31.93 C72.9256838,29.3182826 75.0395217,27.1185164 77.59,25.53 C79.7379794,24.1927339 82.2100294,23.4666773 84.74,23.43 C85.1756793,23.4160115 85.6115857,23.4495427 86.04,23.53 L86.04,31.33 C84.8803089,30.9367702 83.6645391,30.7341419 82.44,30.73 C77.84,30.73 74.1733333,32.9633333 71.44,37.43 L71.44,81.83 L64.04,81.83 L64.04,24 Z" id="Shape" fill="#0B0B0B" fill-rule="nonzero"></path>
            <path d="M94.6,79 C92.4306843,76.4355153 91.2903854,73.1571561 91.4,69.8 C91.2672922,66.5410578 92.028048,63.3078458 93.6,60.45 C95.3445115,57.7474591 97.7103857,55.501593 100.5,53.9 C105.086796,51.2213209 109.828458,48.817098 114.7,46.7 L114.7,42.6 C114.766106,39.7852729 114.548339,36.9710498 114.05,34.2 C113.809459,32.5637445 113.036222,31.0524188 111.85,29.9 C110.599754,28.9650988 109.05821,28.5044073 107.5,28.6 C102.1,28.6 99.4,31.9 99.4,38.5 L99.4,40.6 L92.2,40.4 L92.3,38.7 C92.5,33.2333333 93.9,29.2666667 96.5,26.8 C99.1,24.3333333 102.9,23.1 107.9,23.1 C112.966667,23.1 116.583333,24.6333333 118.75,27.7 C120.916667,30.7666667 122,35.6 122,42.2 L122,70.3 C122,72.1666667 122.05,74.3 122.15,76.7 C122.25,79.1 122.366667,80.8 122.5,81.8 L116.04,81.8 L114.94,73.8 C114.096567,76.299744 112.551801,78.5040734 110.49,80.15 C108.384959,81.8517326 105.746303,82.7548968 103.04,82.7 C99.8088223,82.8225426 96.6992995,81.4593632 94.6,79 Z M110.75,74.45 C112.367421,73.1034921 113.70878,71.4565063 114.7,69.6 L114.7,51.6 C110.033333,54.0666667 106.733333,55.9166667 104.8,57.15 C103.00002,58.2535776 101.463943,59.7384521 100.3,61.5 C99.1546468,63.4685111 98.5992627,65.724759 98.7,68 C98.7,70.8666667 99.3166667,73 100.55,74.4 C101.73266,75.7844903 103.480042,76.5570168 105.3,76.5 C107.304782,76.4981367 109.240972,75.7698449 110.75,74.45 Z" id="Shape" fill="#0B0B0B" fill-rule="nonzero"></path>
            <path d="M140.1,77.2 L140.1,81.8 L132.8,81.8 L132.8,0.8 L140.1,0.8 L140.1,28.8 C141.37227,27.1286094 142.971389,25.7336334 144.8,24.7 C146.721629,23.6191073 148.895482,23.0670178 151.1,23.1 C156.166667,23.1 159.633333,25.2 161.5,29.4 C163.366667,33.6 164.3,39.1666667 164.3,46.1 L164.3,58.3 C164.3,66.2333333 163.266667,72.2833333 161.2,76.45 C159.133333,80.6166667 155.533333,82.7 150.4,82.7 C146.666667,82.7 143.233333,80.8666667 140.1,77.2 Z M155.35,72.6 C156.383333,69.7333333 156.9,65.0333333 156.9,58.5 L156.9,46.1 C156.9,39.9 156.383333,35.4666667 155.35,32.8 C154.316667,30.1333333 152.2,28.8 149,28.8 C146.066667,28.8 143.1,30.3 140.1,33.3 L140.1,72.7 C142.331785,75.3613916 145.626692,76.8990147 149.1,76.9 C151.932768,77.1054002 154.529239,75.3190286 155.35,72.6 Z" id="Shape" fill="#0B0B0B" fill-rule="nonzero"></path>
            <path d="M194.7,24 L201.5,24 L201.5,29.93 C203.213186,27.7881294 205.360214,26.03302 207.8,24.78 C210.061841,23.6306734 212.562901,23.0311042 215.1,23.03 C219.9,23.03 222.966667,25.53 224.3,30.53 C226.05534,28.2141403 228.289455,26.3040569 230.85,24.93 C233.207035,23.6826428 235.833258,23.0303782 238.5,23.03 C241.195763,22.9548943 243.783138,24.0926055 245.55,26.13 C247.383333,28.1966667 248.3,31.5633333 248.3,36.23 L248.3,81.83 L241.5,81.83 L241.5,36.43 C241.5,33.2966667 241,31.1133333 240,29.88 C238.939009,28.6191985 237.344989,27.9333992 235.7,28.03 C233.76065,28.0883034 231.86799,28.6388953 230.2,29.63 C228.163615,30.7799869 226.337592,32.2678576 224.8,34.03 C224.915354,34.75809 224.982168,35.4930444 225,36.23 L225,81.83 L218.1,81.83 L218.1,36.43 C218.1,33.23 217.6,31.03 216.6,29.83 C215.523456,28.5955063 213.934941,27.9305466 212.3,28.03 C210.390841,28.0805951 208.52856,28.6323822 206.9,29.63 C204.904318,30.7987259 203.08593,32.2467014 201.5,33.93 L201.5,81.83 L194.7,81.83 L194.7,24 Z" id="Shape" fill="#0B0B0B" fill-rule="nonzero"></path>
            <path d="M257.5,90.5 C262.033333,90.5 265.116667,90.0666667 266.75,89.2 C268.372108,88.3542446 269.33535,86.62434 269.2,84.8 C269.209453,84.1651381 269.176044,83.530362 269.1,82.9 C268.966667,81.8333333 268.566667,79.9 267.9,77.1 L267.4,74.9 C266.2,69.8333333 264.766667,63.7666667 263.1,56.7 C261.433333,49.6333333 259.866667,42.9666667 258.4,36.7 C256.466667,28.3666667 255.5,24.1333333 255.5,24 L262.8,24 L272.8,73.2 L282.5,24 L289.9,24 L275.9,85.9 C275.033333,89.5666667 273.3,92.2 270.7,93.8 C268.1,95.4 264.333333,96.2 259.4,96.2 L257.5,96.2 L257.5,90.5 Z" id="Shape" fill="#0B0B0B" fill-rule="nonzero"></path>
            <g id="!" transform="translate(541.075189, 134.557571) rotate(-18.000000) translate(-541.075189, -134.557571) ">
                <use fill="#000000" xlink:href="#path-1"></use>
                <use fill="#DCBC3F" xlink:href="#path-1"></use>
            </g>
        </g>
    </g>
</svg>