<svg xmlns="http://www.w3.org/2000/svg" xmlns:xlink="http://www.w3.org/1999/xlink" viewBox="0 0 606.32 264.63"><defs><style>.cls-1{fill:none;}.cls-2{fill:#b4928f;}.cls-3{isolation:isolate;}.cls-4{fill:#0b0b0b;}.cls-5{clip-path:url(#clip-path);}.cls-6{clip-path:url(#clip-path-2);}.cls-7{font-size:180px;fill:#f1c929;font-family:Oswald-Medium, Oswald;}</style><clipPath id="clip-path" transform="translate(-121.96 -289.07)"><rect class="cls-1" x="635.85" y="280.02" width="56" height="215" transform="matrix(0.95, -0.31, 0.31, 0.95, -87.26, 224.11)"/></clipPath><clipPath id="clip-path-2" transform="translate(-121.96 -289.07)"><rect class="cls-1" width="1024" height="1870"/></clipPath></defs><title>AttentionAsset 1</title><g id="Layer_2" data-name="Layer 2"><g id="Layer_1-2" data-name="Layer 1"><rect class="cls-2" y="96.8" width="520" height="110.75"/><g id="Page-1"><g id="Desktop-Copy-2"><g id="Grab-my-ATTENTION" class="cls-3"><g class="cls-3"><path class="cls-4" d="M182.77,464.36a60.89,60.89,0,0,0-2.64-8.67l-4.42-11H146l-4.42,11a47.56,47.56,0,0,0-2.64,8.67h-8.84c1.7-2.81,2.3-4.08,4.59-9.78l19-46.92a48.36,48.36,0,0,0,2.72-7.91h8.59c.34,1.62.77,2.72,2.89,7.91l19,46.92a84.59,84.59,0,0,0,4.51,9.78Zm-20.06-53.55c-.25-.68-.25-.76-1.87-5.44-.42,1.28-.77,2.21-.94,2.81-.51,1.36-.77,2.29-.94,2.63l-10.88,28.05h25.59Z" transform="translate(-121.96 -289.07)"/><path class="cls-4" d="M223.57,454.76a52.41,52.41,0,0,0,.68,9.61h-8a50.67,50.67,0,0,0,.68-9.61v-49H203.68a61,61,0,0,0-9.78.6v-7.14a60,60,0,0,0,9.69.59h33.15a59.82,59.82,0,0,0,10-.59v7.14a61,61,0,0,0-10-.6H223.57Z" transform="translate(-121.96 -289.07)"/><path class="cls-4" d="M278.73,454.76a52.41,52.41,0,0,0,.68,9.61h-8a50.67,50.67,0,0,0,.68-9.61v-49H258.84a61,61,0,0,0-9.78.6v-7.14a60,60,0,0,0,9.69.59h33.15a59.82,59.82,0,0,0,10-.59v7.14a61,61,0,0,0-10-.6H278.73Z" transform="translate(-121.96 -289.07)"/><path class="cls-4" d="M353.36,465a55.69,55.69,0,0,0-9.52-.59H318.94c-4.08,0-6.46.08-9.35.25a58.49,58.49,0,0,0,.68-10.12V409.19a62.62,62.62,0,0,0-.68-9.69c3,.17,5.27.25,9.35.25h24.23a63.42,63.42,0,0,0,9.52-.59v7.14a59.64,59.64,0,0,0-9.52-.6H317v21.76h22.36a66.55,66.55,0,0,0,9.52-.59V434a57.7,57.7,0,0,0-9.52-.59H317v25h26.95a63,63,0,0,0,9.44-.59Z" transform="translate(-121.96 -289.07)"/><path class="cls-4" d="M373.33,399.76a44.33,44.33,0,0,0,4.34,7.65l26.86,40.21c.94,1.45,3.49,5.61,5.53,9.27-.34-6.8-.51-10.54-.51-11.31v-36a53.85,53.85,0,0,0-.68-9.78h7.91a53.24,53.24,0,0,0-.68,9.78v45.31a48.63,48.63,0,0,0,.68,9.52h-9.27a57.37,57.37,0,0,0-4.42-7.65l-27.29-41c-.68-1-3.49-5.87-4.68-8.16.34,4,.51,8.16.51,10.37v36.3a54.32,54.32,0,0,0,.68,10.12h-7.91a54.28,54.28,0,0,0,.68-10.12v-45a53.21,53.21,0,0,0-.68-9.52Z" transform="translate(-121.96 -289.07)"/><path class="cls-4" d="M454.34,454.76a52.46,52.46,0,0,0,.68,9.61h-8a50.72,50.72,0,0,0,.68-9.61v-49H434.45a61,61,0,0,0-9.78.6v-7.14a60,60,0,0,0,9.69.59h33.15a59.84,59.84,0,0,0,10-.59v7.14a61.05,61.05,0,0,0-10-.6H454.34Z" transform="translate(-121.96 -289.07)"/><path class="cls-4" d="M493.27,399.76a53.35,53.35,0,0,0-.76,9.52v45.56a52.68,52.68,0,0,0,.76,9.52h-8.08a51.48,51.48,0,0,0,.68-9.52V409.28a50.89,50.89,0,0,0-.68-9.52Z" transform="translate(-121.96 -289.07)"/><path class="cls-4" d="M563,432.06c0,20.49-11.48,33.58-29.41,33.58s-29.33-13.09-29.33-33.58,11.56-33.58,29.41-33.58S563,411.58,563,432.06Zm-14.54,21.76c4.85-4.76,7.57-12.67,7.57-21.76,0-9.35-2.55-16.83-7.48-21.76a20.73,20.73,0,0,0-14.88-5.87c-13.6,0-22.53,10.88-22.53,27.54s9,27.63,22.61,27.63A20.12,20.12,0,0,0,548.43,453.82Z" transform="translate(-121.96 -289.07)"/><path class="cls-4" d="M583,399.76a44.41,44.41,0,0,0,4.34,7.65l26.86,40.21c.93,1.45,3.49,5.61,5.53,9.27-.34-6.8-.51-10.54-.51-11.31v-36a53.85,53.85,0,0,0-.68-9.78h7.91a53.24,53.24,0,0,0-.68,9.78v45.31a48.63,48.63,0,0,0,.68,9.52H617.2a57.37,57.37,0,0,0-4.42-7.65l-27.29-41c-.68-1-3.49-5.87-4.67-8.16.34,4,.51,8.16.51,10.37v36.3a54.33,54.33,0,0,0,.68,10.12H574.1a54.23,54.23,0,0,0,.68-10.12v-45a53.17,53.17,0,0,0-.68-9.52Z" transform="translate(-121.96 -289.07)"/></g><path class="cls-4" d="M137.91,365.32q-4.55-6.65-4.55-19.15v-31.6q0-12.6,4.5-19.05t16-6.45q10.5,0,15.05,5.85t4.55,17.45v2.8h-7.2v-2.8q0-9.1-2.6-13.15t-9.7-4.05q-5.3,0-8.15,2.3a11.09,11.09,0,0,0-3.8,6.25,44,44,0,0,0-.95,10v33.3q0,9.5,2.75,14.1t10.25,4.6q7.1,0,9.9-4.65t2.8-14.25v-9.5h-12v-5.7h19v39.2h-4.9l-.9-9.2a15.86,15.86,0,0,1-5.2,7.6q-3.5,2.7-9.4,2.7Q142.46,372,137.91,365.32Z" transform="translate(-121.96 -289.07)"/><path class="cls-4" d="M186,313.07h7.4V321a18.06,18.06,0,0,1,6.15-6.4,13.91,13.91,0,0,1,7.15-2.1,6,6,0,0,1,1.3.1v7.8a11.33,11.33,0,0,0-3.6-.6q-6.9,0-11,6.7v44.4H186Z" transform="translate(-121.96 -289.07)"/><path class="cls-4" d="M216.56,368.07a13.56,13.56,0,0,1-3.2-9.2,17.89,17.89,0,0,1,2.2-9.35,20.16,20.16,0,0,1,6.9-6.55,134.31,134.31,0,0,1,14.2-7.2v-4.1a41.9,41.9,0,0,0-.65-8.4,7.52,7.52,0,0,0-2.2-4.3,6.59,6.59,0,0,0-4.35-1.3q-8.1,0-8.1,9.9v2.1l-7.2-.2.1-1.7q.3-8.2,4.2-11.9t11.4-3.7q7.6,0,10.85,4.6t3.25,14.5v28.1q0,2.8.15,6.4t.35,5.1H238l-1.1-8a13.75,13.75,0,0,1-4.45,6.35,11.48,11.48,0,0,1-7.45,2.55A10.57,10.57,0,0,1,216.56,368.07Zm16.15-4.55a16.3,16.3,0,0,0,3.95-4.85v-18q-7,3.7-9.9,5.55a14.44,14.44,0,0,0-4.5,4.35,11.88,11.88,0,0,0-1.6,6.5q0,4.3,1.85,6.4a6,6,0,0,0,4.75,2.1A8.29,8.29,0,0,0,232.71,363.52Z" transform="translate(-121.96 -289.07)"/><path class="cls-4" d="M262.06,366.27v4.6h-7.3v-81h7.3v28a15.48,15.48,0,0,1,4.7-4.1,12.47,12.47,0,0,1,6.3-1.6q7.6,0,10.4,6.3t2.8,16.7v12.2q0,11.9-3.1,18.15t-10.8,6.25Q266.76,371.77,262.06,366.27Zm15.25-4.6q1.55-4.3,1.55-14.1v-12.4q0-9.3-1.55-13.3t-6.35-4q-4.4,0-8.9,4.5v39.4a11.75,11.75,0,0,0,9,4.2A6.07,6.07,0,0,0,277.31,361.67Z" transform="translate(-121.96 -289.07)"/><path class="cls-4" d="M316.66,313.07h6.8V319a19.44,19.44,0,0,1,6.3-5.15,16.13,16.13,0,0,1,7.3-1.75q7.2,0,9.2,7.5a20.21,20.21,0,0,1,6.55-5.6,16.36,16.36,0,0,1,7.65-1.9,9,9,0,0,1,7.05,3.1q2.75,3.1,2.75,10.1v45.6h-6.8v-45.4q0-4.7-1.5-6.55a5.22,5.22,0,0,0-4.3-1.85,11.44,11.44,0,0,0-5.5,1.6,20.63,20.63,0,0,0-5.4,4.4,16.63,16.63,0,0,1,.2,2.2v45.6h-6.9v-45.4q0-4.8-1.5-6.6a5.28,5.28,0,0,0-4.3-1.8,10.89,10.89,0,0,0-5.4,1.6,24.27,24.27,0,0,0-5.4,4.3v47.9h-6.8Z" transform="translate(-121.96 -289.07)"/><path class="cls-4" d="M379.46,379.57q6.8,0,9.25-1.3a4.58,4.58,0,0,0,2.45-4.4,14.11,14.11,0,0,0-.1-1.9q-.2-1.6-1.2-5.8l-.5-2.2q-1.8-7.6-4.3-18.2t-4.7-20q-2.9-12.5-2.9-12.7h7.3l10,49.2,9.7-49.2h7.4l-14,61.9q-1.3,5.5-5.2,7.9t-11.3,2.4h-1.9Z" transform="translate(-121.96 -289.07)"/></g></g></g><g class="cls-5"><g class="cls-6"><text class="cls-7" transform="translate(548.47 209.34) rotate(-18)">!</text></g></g></g></g></svg>