<?xml version="1.0" encoding="UTF-8"?>
<svg width="53px" height="39px" viewBox="0 0 53 39" version="1.1" xmlns="http://www.w3.org/2000/svg" xmlns:xlink="http://www.w3.org/1999/xlink">
    <!-- Generator: Sketch 51.3 (57544) - http://www.bohemiancoding.com/sketch -->
    <title>Group 6</title>
    <desc>Created with Sketch.</desc>
    <defs></defs>
    <g id="Page-1" stroke="none" stroke-width="1" fill="none" fill-rule="evenodd">
        <g id="Mobile-Copy" transform="translate(-250.000000, -18.000000)" fill="#FFFFFF" fill-rule="nonzero">
            <g id="Group-6" transform="translate(250.000000, 18.000000)">
                <path d="M4.92342105,2.09652409e-05 L48.0765789,2.09652409e-05 C50.7825888,-0.00789772666 52.9846359,2.22839067 53,5 C52.9846359,7.77160933 50.7825888,10.0078977 48.0765789,9.99997903 L4.92342105,9.99997903 C2.21741118,10.0078977 0.0153640747,7.77160933 0,5 C0.0153640747,2.22839067 2.21741118,-0.00789772666 4.92342105,2.09652409e-05" id="Fill-1"></path>
                <path d="M4.88929898,15 L48.110701,15 C49.8574793,15 51.471569,15.9529946 52.3449581,17.5 C53.2183473,19.0470054 53.2183473,20.9529946 52.3449581,22.5 C51.471569,24.0470054 49.8574793,25 48.110701,25 L4.88929898,25 C3.14252071,25 1.52843101,24.0470054 0.65504186,22.5 C-0.218347287,20.9529946 -0.218347287,19.0470054 0.65504186,17.5 C1.52843101,15.9529946 3.14252071,15 4.88929898,15" id="Fill-3"></path>
                <path d="M4.88929889,29 L48.1107011,29 C50.8109863,29 53,31.2385763 53,34 C53,36.7614237 50.8109863,39 48.1107011,39 L4.88929889,39 C2.18901368,39 3.29570027e-16,36.7614237 0,34 C-3.29570027e-16,31.2385763 2.18901368,29 4.88929889,29" id="Fill-5"></path>
            </g>
        </g>
    </g>
</svg>