<svg xmlns="http://www.w3.org/2000/svg" viewBox="0 0 38 28"><title>burgermenuAsset 3</title><g id="Layer_2" data-name="Layer 2"><g id="Layer_1-2" data-name="Layer 1"><g id="Page-1"><g id="Mobile"><g id="Page-1-2" data-name="Page-1"><path id="Fill-1" d="M3.53,0H34.47A3.52,3.52,0,0,1,38,3.5,3.52,3.52,0,0,1,34.47,7H3.53A3.52,3.52,0,0,1,0,3.5,3.52,3.52,0,0,1,3.53,0"/><path id="Fill-3" d="M3.53,11H34.47a3.5,3.5,0,1,1,0,7H3.53a3.5,3.5,0,1,1,0-7"/><path id="Fill-5" d="M3.53,21H34.47a3.5,3.5,0,1,1,0,7H3.53a3.5,3.5,0,1,1,0-7"/></g></g></g></g></g></svg>