<?xml version="1.0" encoding="UTF-8"?>
<svg width="167px" height="192px" viewBox="0 0 167 192" version="1.1" xmlns="http://www.w3.org/2000/svg" xmlns:xlink="http://www.w3.org/1999/xlink">
    <!-- Generator: Sketch 51.3 (57544) - http://www.bohemiancoding.com/sketch -->
    <title>Layer_2</title>
    <desc>Created with Sketch.</desc>
    <defs></defs>
    <g id="Page-1" stroke="none" stroke-width="1" fill="none" fill-rule="evenodd">
        <g id="Mobile-Copy-2" transform="translate(-77.000000, -334.000000)" fill="#000000" fill-rule="nonzero">
            <g id="Layer_2" transform="translate(77.000000, 334.000000)">
                <g id="Layer_1-2">
                    <path d="M166.397017,176.393018 C164.063737,177.230617 161.730455,177.989691 159.344741,178.696414 C157.142543,173.696998 154.861696,168.697582 152.318681,163.88139 C148.464835,156.578578 143.772057,149.589865 137.42763,144.197824 C134.596233,141.763553 131.424019,139.748082 128.042072,138.20376 C129.012088,138.072885 129.92967,137.758786 130.821036,137.313811 C131.004553,137.209112 131.056986,136.947362 130.952119,136.764137 C130.899686,136.685613 130.821036,136.633262 130.742386,136.607088 C130.427787,136.528563 130.113187,136.423863 129.824804,136.266813 C129.116954,135.664789 129.012088,135.324515 129.510204,135.219815 L129.92967,135.507739 C130.113187,135.612439 130.375353,135.56009 130.48022,135.35069 C130.506437,135.29834 130.532653,135.219815 130.532653,135.167465 C130.48022,134.617791 130.08697,134.356042 129.641287,134.356042 L128.618838,133.623143 L129.92967,133.649318 C130.139403,133.649318 130.32292,133.466093 130.32292,133.256694 C130.32292,133.125819 130.24427,132.994944 130.139403,132.916419 C129.746154,132.733195 129.431554,132.44527 129.221821,132.104995 C130.32292,132.60232 131.764835,132.18352 132.577551,131.215047 C133.390267,130.220399 133.52135,128.859301 133.573783,127.655253 C133.626217,125.744482 133.573783,123.859885 133.573783,121.949113 L133.495134,98.4440041 L133.468917,93.0257883 C133.468917,91.7170406 133.626217,90.1465434 132.970801,88.9424954 C131.817269,86.7961493 128.959654,87.3719982 127.543956,88.8901456 C126.521507,89.9633189 125.944741,91.4029413 125.315542,92.7378641 L124.738775,93.9680868 C124.764992,91.7955656 124.00471,89.649219 122.589011,87.9740222 C120.989796,85.9847255 119.128415,84.3357034 117.870016,82.0584825 C115.379435,77.5825653 114.671585,72.3475741 113.93752,67.3481578 C112.128571,54.9674047 110.319623,42.586651 108.510675,30.2058975 C108.222292,28.242776 107.855259,19.6835658 103.739247,21.2540631 C101.877865,21.9869618 101.248666,25.0232565 100.645683,26.6461037 C99.6756674,29.342124 98.8367348,32.0904943 98.1288854,34.8650394 C97.4734697,37.5610597 96.9229197,40.283255 96.5296702,43.0578002 C94.8255888,42.1416768 93.0166405,41.461128 91.1814758,40.9899788 C92.4136579,40.30943 93.4623236,39.4456565 94.091523,38.1630837 C94.8780219,36.5664114 95.1664051,34.6556398 95.5334382,32.9019178 C96.3199371,29.2112492 96.4772371,25.7038053 95.6645213,22.0131367 C95.1926219,19.8929655 94.5634225,17.7989691 94.2488225,15.6526228 C93.9604393,13.6109763 94.0653062,11.5955049 94.1439562,9.5538584 C94.2750393,6.30816403 94.3012556,2.879245 91.9679747,0.366449364 C91.8106753,0.209399636 91.5747253,0.209399636 91.4174253,0.366449364 C88.5860281,3.61214372 86.9343798,7.72161156 86.7246466,12.0143041 C84.1816326,10.8102562 81.2191522,10.9934809 78.8334382,12.4592783 C78.4401882,8.66390994 76.6574567,5.15646604 73.7736264,2.61749545 C73.7211933,2.5913205 73.6949764,2.56514554 73.6425433,2.53897059 C73.5114601,2.27722104 73.1182101,2.14634627 72.9609107,2.48662068 C71.4665618,5.83701487 70.8635792,9.5015085 71.2306124,13.1398272 C71.3354787,14.2130003 71.4403455,15.2338236 71.0733124,16.2808217 C70.7587129,17.1707702 70.2343798,17.9821938 69.7886972,18.8197923 C68.9497646,20.4426395 68.3729983,22.1963614 68.032182,24.0024333 C67.4291994,27.4051774 67.1670331,30.8602714 67.3243326,34.3153654 C67.4291994,37.5348848 68.5302983,40.2570801 71.5452118,41.7490525 C72.2268444,42.0893269 72.9346938,42.3772514 73.6425433,42.6390009 C71.7549449,43.5289494 69.9984303,44.6282975 68.3729983,45.9893951 C67.6913657,41.408778 66.8262168,36.828161 65.410518,32.4307687 C64.3880691,29.2897741 62.2907376,22.6936856 57.8601258,23.3218845 C57.755259,23.3480594 57.7028258,23.3742344 57.6503927,23.4265843 C55.8938775,24.2903578 55.6841444,27.012553 55.5268444,28.6877502 C55.1073781,32.6925182 55.3171112,36.7758111 55.4219781,40.8067541 C55.6841444,50.648537 55.8938775,60.987644 53.0100471,70.5153273 C49.6805338,81.5611581 43.6769231,91.952615 43.5982731,103.75752 C43.5982731,104.699818 43.6244898,105.615942 43.7031397,106.55824 C41.8941915,102.972271 40.0590267,99.3863021 38.2500785,95.8003336 C37.7257457,94.8056852 37.1489796,93.5492874 35.9954474,93.1304884 C35.0254317,92.7640388 34.1078493,93.235188 33.5048666,94.0204366 C32.7708006,95.015085 32.456201,96.3238326 32.1416012,97.4755309 C31.722135,99.0983779 31.4075353,100.721225 31.2240188,102.396422 C30.3850863,109.56836 31.4075353,116.844997 30.3064364,124.016934 C29.8607535,126.974704 28.6547881,130.770073 30.7521193,133.387568 C31.8532182,134.748666 33.7408163,135.612439 35.366248,135.115115 C35.366248,135.429215 35.4186813,135.743314 35.6021978,136.031239 C35.7070644,136.214463 35.8643642,136.371513 36.021664,136.502388 L34.7632653,138.15141 C34.5535322,138.439335 34.8943485,138.805784 35.2089482,138.727259 L35.9954474,138.517859 L35.1565149,139.486333 C35.1040816,139.512508 35.077865,139.564858 35.0254317,139.591032 C34.8943485,139.748082 34.8943485,139.983657 35.0516484,140.140706 C35.2089482,140.271581 35.444898,140.271581 35.5759812,140.140706 C36.100314,139.591032 36.8868132,139.407808 37.5946625,139.643383 C29.8345369,146.893845 22.389011,154.563107 15.5726844,162.703517 C11.4566719,167.624409 7.68147567,173.042624 4.85007849,178.827289 C4.66656201,179.193739 4.50926217,179.560188 4.32574569,179.926637 C3.11978022,179.638713 1.91381476,179.350788 0.707849292,179.062864 C0.209733124,178.931989 6.12287998e-14,179.691063 0.49811617,179.821938 C1.65164835,180.109862 2.83139717,180.397786 3.98492935,180.659536 C2.62166405,183.826706 1.49434851,187.360324 1.91381476,190.815419 C1.91381476,190.841593 1.91381476,190.893944 1.91381476,190.946293 C1.96624804,191.208043 2.0711146,191.469792 2.17598116,191.731542 C2.25463108,191.940942 2.46436421,192.045641 2.67409733,191.993291 C9.62150708,190.946293 16.5689168,190.056345 23.5425431,189.218746 C28.6810047,188.616722 33.8718995,188.433498 39.0365777,188.642897 C44.8042386,188.852297 50.5194662,189.637546 56.287127,189.92547 C67.874882,190.501319 79.5150708,189.97782 91.076609,189.76842 L126.390424,189.114047 C132.734851,189.009346 139.105494,188.826122 145.449921,189.271096 C151.505966,189.66372 157.797959,191.469792 163.854003,190.108695 C164.063737,190.056345 164.19482,189.82077 164.11617,189.61137 C164.11617,189.585196 164.089953,189.559021 164.089953,189.532846 C162.595604,186.182451 161.153689,182.805883 159.685557,179.455488 C162.018838,178.748764 164.325903,177.989691 166.632967,177.178267 C167.07865,176.968867 166.868917,176.209794 166.397017,176.393018 Z M69.7100472,39.4456565 C68.4516483,37.979859 68.1632652,35.9905625 68.1370489,34.1321407 C68.0583989,30.8602714 68.189482,27.4313524 68.8186815,24.2380079 C69.1594977,22.3795861 69.7886972,20.5735142 70.6800629,18.8721422 C71.4141287,17.4848696 72.1219781,16.2546468 72.1481944,14.6317996 C72.1744112,12.7995528 71.8335949,11.0458308 71.9908949,9.18740906 C72.1744112,7.19811249 72.6725275,5.23499091 73.459027,3.40274409 C76.2117741,5.94171468 77.8896388,9.44915859 78.1255888,13.1921771 C78.1518056,13.4539266 78.4664051,13.7156761 78.7285714,13.5324515 C81.1142859,11.7525546 84.3389326,11.543155 86.9343798,13.0089524 C87.1178966,13.1136522 87.3800629,13.0613023 87.4849292,12.8519027 C87.5111461,12.7995528 87.5373624,12.7210279 87.5373624,12.668678 C87.6160124,8.50686022 89.0841444,4.47591722 91.7320253,1.28257277 C93.619623,3.61214372 93.5147567,6.72696333 93.3836736,9.60620831 C93.2525904,12.5378032 93.3050236,15.3123484 93.9604393,18.1915934 C94.7207219,21.5681625 95.7169545,24.8400319 95.4810045,28.3474758 C95.323705,30.2320725 95.0091051,32.1166692 94.5372056,33.975091 C94.1701725,35.5979382 93.9080062,37.430185 92.8331242,38.7651076 C92.1252747,39.6288812 91.1028258,40.2570801 90.0541601,40.7544042 C84.9943483,39.707406 79.6461539,40.2047301 74.8747253,42.1678517 C74.533909,42.0631519 74.1930927,41.9846271 73.8522764,41.8799272 C72.3317112,41.3564281 70.7849292,40.6497044 69.7100472,39.4456565 Z M46.1150706,92.3714145 C47.5832025,87.1102486 49.8378336,82.0846572 51.6992151,76.9805413 C53.5081633,71.9811249 55.0811618,66.9817086 55.6317112,61.668193 C56.1036107,57.3755003 56.3395607,53.0566328 56.365777,48.7377653 C56.365777,44.5497726 56.1822607,40.3879549 56.1298275,36.1999621 C56.0773938,32.9804427 55.9200944,29.5253487 56.7328101,26.3843542 C56.9425433,25.5991055 57.2571427,24.4474075 58.1222921,24.1333081 C58.1485084,24.1333081 58.1485084,24.1333081 58.1747253,24.1071331 C60.2458399,23.8453836 61.7139719,25.9917299 62.5791208,27.5622271 C63.7850865,29.6823984 64.5715854,32.0381444 65.2270017,34.3938903 C66.3543169,38.5033581 67.1932494,42.6651759 67.7700157,46.8793436 C67.8224489,47.193443 68.2419152,47.2196179 68.4254315,47.0625682 C70.3392466,45.3611962 72.4890112,44.0262735 74.8222921,43.0316252 C74.8222921,43.0316252 74.8222921,43.0316252 74.8222921,43.0316252 C75.2155416,42.7960507 75.7136579,42.586651 76.3428573,42.4296013 C80.2229197,41.0685036 84.4700157,40.6497044 88.5335949,41.2517283 C89.1365775,41.2517283 89.687127,41.3826031 90.1328101,41.5396529 C90.1328101,41.5396529 90.1328101,41.5396529 90.1328101,41.5396529 C92.4136579,42.036977 94.6158556,42.8484006 96.6607534,44.0000986 C96.8442702,44.1047984 97.0802197,44.0524485 97.2113028,43.8430489 C97.2375197,43.8168738 97.2375197,43.7906989 97.2375197,43.7645239 C97.9978022,38.3986583 99.2562011,33.1374924 101.012716,28.0072013 C101.537049,26.462879 103.136263,20.1023651 105.626844,22.4057611 C107.252276,23.8977335 107.22606,26.8555033 107.514443,28.8447999 L112.495604,62.8984157 C113.203454,67.7931324 113.70157,72.8187233 115.169702,77.5825653 C115.798901,79.7289114 116.7427,81.796733 117.948666,83.6813295 C119.128415,85.4612265 120.701413,86.8484991 122.038462,88.5236964 C123.952276,90.931792 124.188226,93.5754625 123.637676,96.2453077 L122.851178,97.920505 L119.443014,105.092443 C119.443014,103.181671 119.259498,101.244724 118.918681,99.3339523 C117.319466,90.5391677 111.971271,81.5349835 103.424647,78.0013642 C98.810518,76.0905931 93.5671899,75.4623938 88.6122449,75.3838689 C83.4737832,75.3053439 78.3615382,75.9597183 73.4328101,77.3208158 C64.6764522,79.7289114 55.1860281,84.4142283 50.4145997,92.5022892 C45.9315542,100.119201 46.9802198,109.044861 49.156201,117.368496 C48.9989011,117.106746 48.8678179,116.818822 48.7367347,116.557073 C47.3734694,113.887227 46.0364207,111.217382 44.6993721,108.573711 C44.6993721,108.495186 44.6731554,108.416662 44.6731554,108.338137 C44.0177394,102.946096 44.6731554,97.5278807 46.1150706,92.3714145 Z M113.989953,122.498787 C114.09482,122.812886 114.225903,123.126986 114.356986,123.441086 C114.409419,123.519611 114.435636,123.598135 114.488069,123.67666 C114.330769,123.807535 114.17347,123.912235 113.989953,124.04311 C113.518053,124.357209 113.046154,124.645134 112.548038,124.880708 C111.368289,125.456557 110.10989,125.823007 108.851492,126.110931 C104.525746,127.105579 99.9902669,127.445854 95.5334382,127.917003 C93.6458399,127.393504 91.7320253,126.94853 89.7919938,126.68678 C81.1929354,125.482732 72.6200944,127.629078 64.4142859,130.063349 C63.9686028,130.194224 63.5229197,130.325098 63.0772371,130.455973 C62.1334382,130.272749 61.1896388,130.010999 60.2720567,129.6969 C57.0736264,128.545202 54.3208792,126.660605 52.0400314,124.278684 C52.0400314,124.252509 52.0400314,124.200159 52.0138148,124.173984 L52.0138148,124.200159 C49.1824176,115.405374 46.2199372,105.406542 49.4970172,96.3238326 C52.6954474,87.4766978 61.6615382,82.1370075 70.1032966,79.1792377 C79.2004708,75.9858929 89.3987444,75.1744691 98.810518,77.3731656 C103.63438,78.4986887 107.829042,80.8020847 111.079906,84.5712783 C114.01617,88.0001974 116.165934,92.03114 117.398116,96.3761824 C118.394348,99.8051015 118.761381,103.312546 118.630298,106.819989 C118.630298,106.819989 118.630298,106.819989 118.630298,106.819989 L117.712716,108.756936 C116.139717,112.081156 113.963737,115.588599 113.649137,119.331617 C113.54427,120.352441 113.649137,121.477964 113.989953,122.498787 Z M113.989953,132.23587 C108.300942,132.052646 102.92653,130.089524 97.499686,128.466677 C100.173783,128.152577 102.874097,127.838478 105.548194,127.472029 C108.746625,127.053229 112.285871,126.37268 114.881319,124.357209 C115.353218,125.037758 115.929984,125.613607 116.66405,126.032406 C115.746468,126.84383 114.488069,127.812303 114.278336,128.964001 C114.252119,129.068701 114.252119,129.173401 114.252119,129.2781 C113.806437,129.408975 113.439403,129.775425 113.255887,130.246573 C112.941287,131.031823 113.38697,131.712371 113.989953,132.23587 Z M50.6505494,131.974121 C50.5456829,131.790896 50.2835165,131.738546 50.1,131.843246 C50.0213501,131.895596 49.9427002,131.974121 49.9164835,132.078821 L49.8902669,132.23587 C49.6805338,131.817071 49.5232339,131.372097 49.365934,130.927122 C49.2872842,130.639198 49.1824176,130.377448 49.0251178,130.141874 C50.6505494,129.121051 51.5419152,127.288804 51.6729984,125.325682 C51.6729984,125.220983 51.6729984,125.142458 51.6729984,125.037758 C52.800314,126.163281 54.0324961,127.184104 55.3957612,128.100227 C57.3620095,129.408975 59.4331242,130.325098 61.6353219,130.900948 C57.8601258,132.052646 54.0587129,133.204343 50.2048666,134.120467 L50.5456829,132.759369 C50.755416,132.60232 50.8078493,132.314395 50.6505494,131.974121 Z M163.198587,189.454321 C157.745526,190.527494 152.161381,189.035522 146.70832,188.590548 C140.966876,188.119398 135.225431,188.197923 129.457771,188.302623 C117.791366,188.512023 106.098744,188.721422 94.4323393,188.956997 C82.8445837,189.166396 71.1781792,189.66372 59.5904236,189.323446 C48.5532182,188.983172 37.6208791,187.098575 26.5574569,188.145573 C18.6138148,188.904647 10.6701727,190.03017 2.77896389,191.234218 C2.72653061,191.103343 2.70031397,190.972468 2.64788069,190.841593 C2.22841444,187.438849 3.38194662,183.983756 4.77142857,180.868936 C12.0596546,182.544133 19.4265306,183.879055 26.8196233,184.847529 C27.3177394,184.899879 27.3177394,184.11463 26.8196233,184.06228 C19.5051806,183.093807 12.2693878,181.785059 5.08602826,180.136037 C5.1122449,180.083687 5.13846154,180.005162 5.19089482,179.926637 C6.92119309,176.262144 9.07095764,172.80705 11.4042386,169.48283 C15.022135,164.326364 19.1905808,159.614873 23.4376766,155.008081 C28.2615385,149.77309 33.2951334,144.695149 38.5384615,139.826607 C38.6957614,139.669557 38.6957614,139.407808 38.5384615,139.276933 C38.5122449,139.250758 38.4860283,139.224583 38.4598116,139.224583 C37.9354788,138.884309 37.3587127,138.753434 36.7819466,138.805784 L37.3849294,138.125235 C37.5422292,137.968185 37.5422292,137.706436 37.3849294,137.575561 C37.2800628,137.470861 37.1489796,137.444686 37.0178964,137.470861 L36.0740973,137.732611 L36.9130298,136.633262 C37.0178964,136.450038 36.9654631,136.188288 36.75573,136.083589 C36.7295134,136.057414 36.7032967,136.057414 36.6770801,136.057414 C36.0740973,135.874189 35.9692308,135.167465 36.2838304,134.722491 C36.4149137,134.643966 36.5197802,134.539266 36.6508634,134.434567 C36.9916798,134.120467 36.5459969,133.596968 36.1789639,133.806367 C36.1527472,133.832543 36.1265306,133.832543 36.100314,133.858718 C34.055416,135.743314 31.1453689,133.439918 30.5948194,131.293572 C29.8607535,128.519027 30.9618524,125.535082 31.2764521,122.786712 C31.9318681,117.289971 31.4861852,111.740881 31.722135,106.217966 C31.8007849,103.44342 32.1678179,100.69505 32.8232339,97.99903 C33.111617,96.8735069 33.4524333,94.93656 34.4748822,94.2036612 C36.2576138,92.9210887 37.411146,96.0359079 38.0141287,97.2137808 L43.9390895,108.913986 L45.1450549,111.295906 L46.0626374,113.075803 C47.5569859,116.007399 49.3921507,118.965168 50.388383,122.106163 C50.4408163,122.315563 50.5194662,122.498787 50.5718995,122.708187 C50.7029828,123.179336 50.7816326,123.702835 50.8078493,124.200159 C50.9913658,126.47738 50.3359498,128.859301 48.055102,129.827775 C48.0026688,129.853949 47.9502355,129.880124 47.8978022,129.9063 C47.8715856,129.9063 47.8453689,129.932474 47.8191523,129.932474 C47.8191523,129.932474 47.7929356,129.932474 47.7929356,129.958649 C47.4259027,130.168049 47.6618524,130.848598 48.1075353,130.665373 C48.1599686,130.639198 48.2124019,130.613023 48.2648352,130.613023 C48.5270016,130.665373 48.7367347,132.18352 48.9202512,132.419095 C49.1299843,132.680844 49.3921507,132.890244 49.7067504,132.968769 L49.2872842,134.643966 C49.2348508,134.853365 49.365934,135.062765 49.5756672,135.115115 C49.6281005,135.14129 49.7067504,135.14129 49.7854003,135.115115 C54.2946624,134.068117 58.7252747,132.65467 63.1821034,131.319747 C63.3131871,131.267397 63.4442702,131.241222 63.6015697,131.188872 C63.6015697,131.188872 63.6015697,131.188872 63.6277865,131.188872 C64.0472528,131.057997 64.4667191,130.927122 64.9124017,130.796248 C68.4254315,129.74925 71.9384618,128.806951 75.530141,128.126403 C79.8821034,127.288804 84.3389326,126.922355 88.7695449,127.419678 C90.3163264,127.602904 91.8368916,127.890828 93.3312404,128.231102 C93.4098899,128.257277 93.4885399,128.283452 93.5934067,128.283452 C94.1177393,128.414327 94.6420725,128.545202 95.1664051,128.702251 C95.2712714,128.728427 95.3761382,128.754601 95.4810045,128.780776 C97.499686,129.33045 99.4921506,129.958649 101.484615,130.586848 C105.993878,131.974121 110.555573,133.204343 115.300785,133.125819 C115.510518,133.125819 115.694034,132.942594 115.694034,132.733195 C115.694034,132.60232 115.615385,132.471445 115.510518,132.39292 C115.195919,132.23587 114.881319,132.052646 114.619152,131.817071 C114.278336,131.633846 114.199686,131.345922 114.383202,130.900948 C114.199686,130.377448 114.252119,130.141874 114.514286,130.141874 C114.645369,130.272749 114.828885,130.325098 115.091052,130.298924 C115.300785,130.298924 115.484302,130.115699 115.484302,129.880124 C115.484302,129.74925 115.405652,129.618375 115.300785,129.566025 C115.222135,129.513675 115.143485,129.461325 115.064835,129.408975 C115.064835,129.199575 115.300785,128.676076 115.327002,128.649902 C115.589168,128.361977 115.851334,128.074052 116.139717,127.812303 L117.634066,126.32033 C117.791366,126.163281 117.791366,125.927706 117.634066,125.770656 C117.607849,125.744482 117.581633,125.718306 117.555416,125.718306 C116.611617,125.273332 115.929984,124.697483 115.431868,124.016934 C115.431868,124.016934 115.431868,124.016934 115.431868,124.016934 C115.248352,123.807535 115.117269,123.57196 115.038619,123.310211 C115.038619,123.310211 115.012402,123.336385 115.012402,123.336385 C114.933752,123.179336 114.855102,123.022286 114.802669,122.839062 C114.802669,122.839062 114.802669,122.839062 114.802669,122.839062 C114.697802,122.655837 114.619152,122.367912 114.566719,122.079988 C114.540502,121.949113 114.540502,121.844413 114.514286,121.713538 C114.514286,121.713538 114.514286,121.739714 114.488069,121.739714 C113.963737,118.284619 116.192151,113.861052 117.502983,111.086507 L118.472998,109.044861 C118.472998,109.123385 118.472998,109.175735 118.446782,109.25426 L124.555259,96.0882583 C124.633909,95.9312083 124.712559,95.7741584 124.817425,95.6432836 L125.315542,94.6224607 C126.33799,92.4761146 127.622606,88.1310721 130.689953,88.3928217 C132.498901,88.5498711 132.656201,90.408293 132.656201,91.8217402 C132.682417,93.3660628 132.656201,94.9103854 132.656201,96.4808826 L132.708634,114.541601 L132.734851,124.880708 C132.734851,126.398855 132.918367,128.126403 132.498901,129.618375 C132.105652,130.979472 129.955887,132.759369 128.881005,130.927122 C128.776138,130.743898 128.513972,130.691548 128.330455,130.796248 C128.199372,130.874773 128.146939,131.005647 128.146939,131.136522 C128.120722,131.817071 128.330455,132.471445 128.749921,132.968769 L127.334223,132.942594 C127.12449,132.942594 126.940973,133.125819 126.940973,133.335219 C126.940973,133.466093 127.019623,133.596968 127.12449,133.675493 L128.749921,134.827191 C128.697488,134.879541 128.645055,134.93189 128.618838,134.98424 C127.858556,135.900364 128.749921,136.659438 129.641287,137.130587 C128.618838,137.523211 127.543956,137.706436 126.442857,137.654086 C126.442857,137.654086 126.41664,137.654086 126.41664,137.654086 C126.390424,137.654086 126.364207,137.654086 126.311774,137.654086 C125.839874,137.627911 125.813658,138.282285 126.206907,138.439335 C142.199058,144.799848 150.4573,160.97597 157.063893,175.76482 C157.56201,176.890343 158.060126,177.989691 158.558242,179.115214 C151.768132,181.10451 144.873156,182.596483 137.847096,183.617306 C137.34898,183.695831 137.558713,184.454905 138.056829,184.37638 C145.109105,183.381731 152.056515,181.863584 158.872842,179.848113 C160.314757,182.910582 161.756672,186.182451 163.198587,189.454321 Z" id="Shape"></path>
                    <path d="M87.3276298,167.15326 C84.7583989,166.94386 82.110518,166.708285 79.5412871,166.917685 C77.6012556,167.04856 75.6612247,167.336484 73.7736264,167.781459 C72.3579275,168.147908 70.3916798,168.671407 70.3392466,170.451304 C70.3392466,170.503654 70.3392466,170.556004 70.3654629,170.608354 C70.8111461,173.147324 73.7474096,172.7547 75.6350079,173.147324 C77.2866562,173.487598 78.8072213,174.272847 80.0918365,175.372196 C80.8521191,176.026569 81.5599685,177.544717 82.6348511,177.649416 C83.3689169,177.727941 83.8932494,177.125917 84.3127157,176.602418 C85.5186815,175.084271 86.7246466,174.220497 88.6122449,173.723173 C90.0541601,173.330549 91.5485084,173.225849 92.9904236,172.91175 C94.1439562,172.676175 96.0053376,172.335901 96.7394034,171.315077 C99.1513343,168.017033 88.8219781,167.284135 87.3276298,167.15326 Z M95.5596545,171.262727 C95.0615382,171.681527 93.9080062,171.890927 93.2788067,172.047976 C91.9155416,172.362075 90.5522764,172.466775 89.1890112,172.780875 C87.3538461,173.173499 85.5186815,173.880223 84.2864994,175.34602 C84.0767663,175.60777 83.8932494,175.895695 83.6835163,176.157444 C83.3427,176.576243 82.7921506,176.890343 82.2416011,176.550068 C81.7697017,176.235969 81.3764522,175.50307 80.956986,175.110446 C80.0394034,174.246672 79.0169545,173.566123 77.8634225,173.042624 C76.8147567,172.571475 75.687441,172.309726 74.5601258,172.205026 C73.223077,172.074151 71.4403455,172.074151 71.1257455,170.398954 C71.2568287,168.985507 73.6687596,168.619057 74.7436421,168.383483 C76.2117741,168.095558 77.6799056,167.886158 79.1480376,167.781459 C80.7472528,167.676759 82.346468,167.650584 83.9718994,167.755283 C87.5897961,167.912333 91.5222921,168.043208 94.9566719,169.299606 C95.9004708,169.613705 96.8442702,170.163379 95.5596545,171.262727 Z" id="Shape"></path>
                    <path d="M119.285714,159.588697 C118.971115,159.798097 118.656515,160.007497 118.341915,160.243072 C118.656515,159.955147 118.971115,159.719573 119.285714,159.588697 Z" id="Shape"></path>
                    <path d="M136.116798,162.310893 C133.67865,157.390002 127.701256,156.290654 122.746311,157.390002 C121.356829,157.704101 120.045997,158.201425 118.866248,158.881974 C118.604081,159.039024 118.368132,159.196073 118.132182,159.353123 C118.132182,159.353123 118.105966,159.379298 118.105966,159.379298 C117.214599,160.033672 116.401884,160.845095 115.720251,161.813569 C114.042386,164.274014 113.38697,167.284135 113.85887,170.241904 C113.85887,170.294254 113.885087,170.320429 113.885087,170.372779 C114.986185,174.979571 120.439247,177.858816 124.922292,177.937341 C127.937206,177.963516 130.87347,176.968867 133.259184,175.110446 C137.086813,172.047976 138.240345,166.73446 136.116798,162.310893 Z M118.368132,160.243072 C118.368132,160.243072 118.368132,160.243072 118.368132,160.243072 C118.656515,159.955147 118.971115,159.719573 119.311931,159.588697 C119.469231,159.510173 119.62653,159.457823 119.810047,159.457823 C121.671429,159.248424 123.008477,162.101493 122.720094,163.619641 C122.431711,165.111613 120.884929,166.760635 119.259498,166.655935 C117.502983,166.551236 116.952433,164.483414 117.031083,162.912917 C117.293249,163.253191 117.712716,163.410241 118.237049,163.305541 C118.656515,163.227016 119.390581,162.912917 119.469231,162.415593 C119.547881,161.865919 118.971115,161.211545 118.525431,161.002145 C118.315698,160.897446 118.053532,160.871271 117.817583,160.897446 C117.974882,160.661871 118.158399,160.452471 118.368132,160.243072 Z M118.368132,161.839744 C118.472998,161.944444 118.577865,162.075319 118.630298,162.206193 C118.630298,162.206193 118.630298,162.206193 118.630298,162.232368 C118.577865,162.284718 118.499215,162.310893 118.446782,162.363243 C118.315698,162.441768 118.184615,162.494118 118.053532,162.520293 C117.712716,162.572642 117.555416,162.415593 117.476766,162.127668 C117.476766,161.630344 118.053532,161.55182 118.368132,161.839744 Z M132.970801,174.377547 C130.87347,176.157444 127.989639,177.125917 125.263108,177.178267 C120.989796,177.282967 115.615385,174.508422 114.619152,170.084855 C114.619152,170.058679 114.619152,170.058679 114.592935,170.032505 C114.199686,167.336484 114.828885,164.666639 116.244584,162.546468 C116.034851,164.431064 116.66405,166.917685 118.708948,167.388834 C120.858713,167.886158 123.034694,165.818337 123.427943,163.82904 C123.794976,161.970618 122.615228,159.510173 120.753846,158.803449 C121.147096,158.646399 121.540345,158.515525 121.933595,158.410825 C126.521507,157.154427 132.341601,157.625576 135.041915,162.075319 C137.480063,166.053911 136.48383,171.393602 132.970801,174.377547 Z" id="Shape"></path>
                    <path d="M118.866248,158.908149 C118.604081,159.067251 118.368132,159.226354 118.132182,159.385457 C118.368132,159.199837 118.630298,159.040735 118.866248,158.908149 Z" id="Shape"></path>
                    <path d="M47.8715856,159.012849 C43.8080063,156.840327 38.1714286,158.17525 34.8681319,161.159195 C32.2464678,163.514941 30.4899529,167.388834 30.7259027,170.948628 L30.7259027,170.974803 C30.778336,172.100326 30.778336,173.0688 31.3813187,174.037273 C32.0629513,175.084271 32.9281005,176.000394 33.9243328,176.759468 C35.8381476,178.225265 38.3025118,178.61789 40.6357928,178.801114 C43.0739403,178.984339 45.9315542,179.272263 48.2124019,178.068216 C50.5456829,176.837993 51.5681319,174.037273 52.1186813,171.629177 C53.1935636,167.074735 52.3808477,161.420945 47.8715856,159.012849 Z M47.6094192,161.23772 C47.5307692,162.022968 46.8753532,162.467943 46.1150706,162.441768 C45.6693878,162.180018 45.066405,161.892093 45.4072213,161.34242 C45.6431711,160.949795 46.2461538,160.688046 46.6656201,160.609521 C47.2161696,160.478646 47.6880691,160.583346 47.6094192,161.23772 Z M46.8753532,159.771923 C46.0626374,159.850448 45.1188383,160.269246 44.7255887,160.97597 C44.122606,161.996794 45.0401884,162.677343 45.8266876,163.148491 C45.9053375,163.200842 45.9839874,163.200842 46.0626374,163.200842 C47.2161696,163.331716 48.2386185,162.520293 48.3959184,161.39477 C48.422135,161.29007 48.422135,161.159195 48.422135,161.054495 C49.3397174,162.389418 49.3921507,164.274014 48.1075353,165.504238 C46.8491366,166.708285 44.1488226,167.04856 42.9690738,165.478063 C42.4185243,164.745164 42.5758242,163.541116 42.5496075,162.677343 C42.5496075,162.651167 42.5496075,162.624992 42.5496075,162.598818 C42.5496075,161.447119 42.9690738,160.714221 43.9915228,160.112197 C44.8828885,159.536348 45.9053375,159.353123 46.8753532,159.771923 Z M51.777865,168.331133 C51.7254317,170.660703 51.1486656,172.937925 50.1,175.005746 C48.710518,177.623241 46.1675039,178.14674 43.4147567,178.120566 C40.8717425,178.068216 38.0403454,178.015865 35.6808477,176.890343 C34.6059655,176.366843 33.7932496,175.581595 32.9805338,174.743996 C31.8532182,173.566123 31.5910518,172.519125 31.5124019,170.974803 C31.0405024,164.064615 37.411146,158.27995 44.2012559,158.803449 C44.4372057,158.829624 44.6731554,158.855799 44.8828885,158.881974 C44.1750393,159.065198 43.5196233,159.405473 42.9428571,159.876622 C41.9466248,160.661871 41.7368917,161.447119 41.7368917,162.624992 C41.7631083,164.614289 41.6844584,166.080087 43.7293563,166.94386 C45.9315542,167.859983 48.5794348,167.074735 49.5494506,164.745164 C49.9951334,163.67199 49.9164835,162.441768 49.4183674,161.39477 C51.043799,163.148491 51.8302983,165.713637 51.777865,168.331133 Z" id="Shape"></path>
                    <path d="M63.5804939,131.110347 C63.4476972,131.163382 63.3414596,131.189898 63.2352225,131.242933 C63.2086629,131.242933 63.1821034,131.242933 63.1821034,131.242933 C63.3149006,131.189898 63.4476972,131.136864 63.5804939,131.110347 Z" id="Shape"></path>
                    <path d="M93.5457709,128.205611 C93.4129742,128.179095 93.3067371,128.179095 93.1739404,128.152577 C93.2004994,128.152577 93.2536185,128.152577 93.2801775,128.152577 C93.3864152,128.152577 93.4660933,128.179095 93.5457709,128.205611 Z" id="Shape"></path>
                    <path d="M95.4592433,128.70362 C95.4326838,128.70362 95.4061248,128.70362 95.3795652,128.70362 C95.2998871,128.677103 95.220209,128.624069 95.1139719,128.597552 C95.2467686,128.650586 95.3530057,128.677103 95.4592433,128.70362 Z" id="Shape"></path>
                    <path d="M71.8598118,54.8888798 C70.9946624,53.7371817 69.6313972,53.0566328 68.2156983,52.978108 C66.8262168,52.951933 66.1183674,53.5801319 65.4367348,54.758005 C65.4367348,54.7841796 65.410518,54.7841796 65.410518,54.8103548 C64.9124017,55.7264782 64.178336,56.7473017 63.9686028,57.7942998 C63.7326528,59.1815724 63.9686028,60.5950197 64.6502354,61.7990678 C65.8824174,63.9192392 69.0284146,65.0447618 71.0995292,63.4480899 C73.5114601,61.589668 73.6949764,57.1922758 71.8598118,54.8888798 Z M69.343014,63.3957396 C66.8,63.8407142 64.9124017,61.6158432 64.7026685,59.286272 C64.5715854,57.6895997 65.331868,56.6164269 66.0921506,55.2291543 C66.0921506,55.2291543 66.0921506,55.2291543 66.0921506,55.2029791 C66.1708006,55.0459292 66.2756674,54.9150544 66.3805337,54.7841796 C66.3805337,54.7841796 66.4067506,54.758005 66.4067506,54.758005 C68.1370489,52.6116586 71.1781792,54.4962555 71.9908949,56.8258261 C71.9646781,56.7996515 71.9646781,56.7734763 71.9384618,56.7734763 C71.4141287,56.1714523 70.2868129,56.0405775 69.8411303,56.7996515 C69.8149135,56.8520013 69.7886972,56.9043511 69.7886972,56.9567009 C69.5265303,57.663425 69.9197803,58.3177989 70.5489798,58.6318982 C71.0208792,58.8674726 71.7811618,59.0768723 72.1219781,58.5533732 C72.1744112,58.4748483 72.2006281,58.3963233 72.2530612,58.3177989 C72.3841444,60.4117951 71.5189955,63.0031153 69.343014,63.3957396 Z" id="Shape"></path>
                    <path d="M100.593249,55.3862037 C98.5745685,53.5016071 95.7169545,53.5016071 94.0653062,55.8050031 C94.0653062,55.8050031 94.0653062,55.8050031 94.0653062,55.8050031 C94.0390893,55.8311778 94.0390893,55.8573529 94.012873,55.8573529 C93.9866562,55.8835281 93.9604393,55.9358779 93.9604393,55.9620525 C92.9642073,57.9251746 93.3312404,60.5950197 94.9566719,62.1393423 C96.9491365,63.9977636 100.068917,63.1863404 101.641915,61.1970437 C103.214913,59.2339222 102.271115,56.9567009 100.593249,55.3862037 Z M100.698116,61.0923436 C99.1775511,62.6366662 96.5821034,63.0292905 95.1401882,61.1970437 C94.0390893,59.7835959 93.8817899,57.8728242 94.6945056,56.2761524 C94.6945056,56.2761524 94.6945056,56.2761524 94.6945056,56.2761524 C97.5521191,52.1405094 103.975196,57.7419495 100.698116,61.0923436 Z" id="Shape"></path>
                    <path d="M96.5296702,58.6580728 C96.4510202,59.1030475 96.1626376,59.4956718 95.7693876,59.6788963 C95.2712714,59.9406459 94.7207219,59.7574213 94.5896388,59.1815724 C94.5896388,59.1553973 94.5634225,59.1030475 94.5634225,59.0768723 C94.4847725,58.4748483 94.8780219,57.9251746 95.4810045,57.8466496 C95.4810045,57.8466496 95.5072213,57.8466496 95.5072213,57.8466496 C95.5334382,57.8466496 95.5334382,57.8466496 95.5596545,57.8466496 C95.5596545,57.8466496 95.5858713,57.8466496 95.5858713,57.8466496 C96.1364208,57.7681246 96.5821034,58.082224 96.5296702,58.6580728 Z" id="Shape"></path>
                    <path d="M84.4175826,59.364797 C83.5262168,59.2600969 79.0693876,58.3963233 79.0169545,60.0976958 C78.9907376,60.1500456 78.9907376,60.2285706 79.0431713,60.3332702 C79.5937208,61.6158432 80.8259028,62.4796162 81.9794348,63.1601652 C82.1367348,63.2386902 82.3202511,63.212515 82.4513343,63.1078154 C83.5,62.2440419 84.3127157,61.1185188 84.810832,59.8621209 C84.889482,59.6003714 84.6273157,59.3909716 84.4175826,59.364797 Z M82.110518,62.3225668 C81.2191522,61.7728926 80.2229197,61.0923436 79.8034539,60.1500456 C79.9345371,59.7050715 82.6086343,59.9406459 83.8408163,60.0715206 C83.42135,60.9352942 82.8445837,61.6943676 82.110518,62.3225668 Z" id="Shape"></path>
                    <path d="M68.6613815,95.8003336 C68.110832,93.6539875 67.2456831,91.612341 66.1445837,89.7015693 C65.3843017,88.4713461 64.4929354,86.8746743 63.0772371,86.3511752 C63.0248039,86.325 62.9723702,86.2988249 62.8937208,86.2726502 C60.534223,85.9062006 58.6990579,88.0525472 57.3882259,89.727744 C55.7890112,91.7170406 54.6092624,94.0204366 53.9276298,96.4808826 C53.8751961,96.6902818 54.0062792,96.8996815 54.2160124,96.9520313 C54.3470955,96.9782065 54.4781792,96.9520313 54.5830455,96.8473317 L57.676609,94.3868858 L59.223391,93.1566631 C59.6952904,92.7902139 60.3244899,92.0573151 60.9012556,91.8740906 C62.1596545,91.5338161 63.8375197,93.2613632 64.7813185,93.915737 L68.110832,96.219133 C68.3729983,96.4547074 68.7400315,96.1144329 68.6613815,95.8003336 Z M64.3356359,92.6593392 C63.4442702,92.0573151 62.2645213,90.8270924 61.0847725,91.010317 C59.9836736,91.1935416 58.908791,92.4237643 58.0960753,93.0781381 L55.0549449,95.4862342 C55.6317112,93.7848623 56.4968601,92.1881899 57.5717427,90.7485675 C58.6990579,89.2827699 60.5080062,86.7699741 62.6053376,87.0317237 C62.6315539,87.0317237 62.6315539,87.0317237 62.6577708,87.0578988 C64.0734697,87.4766978 65.0697017,89.4398198 65.7775511,90.6700425 C66.5378337,92.03114 67.1408163,93.4707624 67.6127157,94.9627352 L64.3356359,92.6593392 Z" id="Shape"></path>
                    <path d="M90.6833595,93.0781381 C89.844427,88.7592708 86.5411303,84.2048286 81.9007848,83.498105 C81.8745685,83.4719298 81.8221348,83.4719298 81.7697017,83.4719298 C79.5412871,83.41958 77.9682888,85.4350518 76.840973,87.1102486 C75.3990579,89.2042449 74.4028258,91.5861659 73.9047096,94.0727864 C73.8522764,94.2821862 73.9833595,94.4915859 74.1930927,94.5439357 C74.3241758,94.5701109 74.455259,94.5439357 74.5601258,94.4392361 L77.7847725,91.1150166 C78.9120877,89.9633189 80.642386,87.3196484 82.4775511,88.0525472 C83.7621663,88.5760462 84.9943483,89.5968692 86.121664,90.3821178 C87.4849292,91.3244163 88.7695449,92.3452393 90.0279433,93.4184126 C90.1852433,93.5754625 90.4474096,93.5754625 90.5784927,93.4184126 C90.6571427,93.3660628 90.7095764,93.2090129 90.6833595,93.0781381 Z M86.3051803,89.6230444 C85.5186815,89.0733701 84.7059657,88.5498711 83.8932494,88.0525472 C83.26405,87.6599229 82.5299843,87.0840735 81.7697017,86.9531987 C80.4064365,86.7176243 79.2791208,88.5236964 78.4664051,89.3351197 L74.9795916,92.9210887 C75.4252747,91.2720665 76.1331242,89.6753942 77.0507062,88.2357717 C78.0993719,86.6129247 79.5675039,84.2310038 81.7697017,84.2833536 C81.7697017,84.2833536 81.7959185,84.2833536 81.7959185,84.2833536 C85.7021978,84.9639026 88.5335949,88.4975213 89.6346938,92.1358401 C88.5598118,91.2458914 87.4324961,90.408293 86.3051803,89.6230444 Z" id="Shape"></path>
                    <path d="M110.214757,97.0043816 C109.611774,94.858035 108.799058,92.7378641 107.829042,90.7223923 C106.885243,88.785446 105.521978,86.2464751 103.08383,86.0370753 C103.057614,86.0370753 103.00518,86.0109007 102.952747,86.0109007 C100.698116,86.1156003 99.2824174,88.0525472 98.1551022,89.7800938 C96.7918365,91.8479154 95.8218208,94.1774866 95.323705,96.6117573 C95.2712714,96.8211565 95.402355,97.0305563 95.6120877,97.0829061 C95.7431713,97.1090812 95.8742545,97.0829061 95.9791208,96.9782065 L99.0989011,94.5701109 L100.671899,93.3660628 C101.641915,92.6069894 102.087598,92.0573151 103.503297,92.633164 C105.810361,93.6016372 107.907692,95.538584 109.533124,97.3708308 C109.690424,97.5278807 109.95259,97.5278807 110.083674,97.3708308 C110.214757,97.2661312 110.240973,97.1352564 110.214757,97.0043816 Z M106.780377,93.7325119 C105.679278,92.9210887 104.237362,91.7693904 102.847881,91.5338161 C101.694348,91.3244163 100.776766,92.3190647 99.9378337,92.9734385 L96.3461539,95.7479838 C96.7918365,94.0466118 97.4734697,92.4499394 98.3910517,90.931792 C99.4135006,89.2565947 100.776766,86.9270241 102.978964,86.7961493 C102.978964,86.7961493 103.00518,86.7961493 103.00518,86.7961493 C105.390895,86.9270241 106.727943,90.0680185 107.566876,91.9264404 C108.091209,93.1304884 108.563108,94.3607111 108.982575,95.5909338 C108.274725,94.93656 107.54066,94.3083613 106.780377,93.7325119 Z" id="Shape"></path>
                    <path d="M79.7772371,18.0345437 C79.7510202,17.9821938 79.7248039,17.9298439 79.7248039,17.9036689 C79.7248039,17.9036689 79.7248039,17.9036689 79.7248039,17.9036689 C79.6985871,17.8774939 79.6723702,17.825144 79.6461539,17.7989691 C79.6461539,17.7989691 79.6461539,17.7989691 79.6461539,17.7989691 C78.7285714,16.6472711 76.6836736,16.5949212 75.5825747,17.4586947 C74.3241758,18.427168 74.3241758,20.2855898 74.8747253,21.6205124 C75.530141,23.2695346 77.3390893,23.8977335 78.8596545,22.9030852 C80.5113028,21.7513872 80.4850865,19.7359157 79.7772371,18.0345437 Z M78.5712714,22.0654866 C77.4177393,23.0601349 75.9758242,22.484286 75.5039247,21.0970134 C75.2417584,20.2855898 75.1368916,19.2124166 75.6350079,18.4795179 C76.2904236,17.5372196 78.3091051,17.2231201 79.0431713,18.2962932 C79.0431713,18.2962932 79.0431713,18.2962932 79.0431713,18.2962932 C79.6199371,19.578866 79.7248039,21.0970134 78.5712714,22.0654866 Z" id="Shape"></path>
                    <path d="M79.6461539,17.7727941 C79.6727129,17.7993112 79.6992725,17.8258284 79.725832,17.8788626 C79.6992725,17.8523455 79.6727129,17.8258284 79.6461539,17.7727941 Z" id="Shape"></path>
                    <path d="M79.7779225,18.0362544 C79.7513629,17.9832202 79.7248039,17.930186 79.7248039,17.9036689 C79.7513629,17.9567031 79.7779225,18.0097373 79.7779225,18.0362544 Z" id="Shape"></path>
                    <path d="M91.0241758,19.2909415 C90.3687596,17.8774939 88.7433281,16.3593466 87.0916798,17.1969451 C87.0654629,17.1969451 87.0392466,17.2231201 87.0130298,17.2231201 C86.9868129,17.249295 86.9605966,17.249295 86.9343798,17.27547 C86.9343798,17.27547 86.9343798,17.27547 86.9343798,17.27547 C85.5973315,18.1915934 84.7059657,20.2070649 85.4924646,21.7252123 C86.278964,23.2171846 88.376295,23.3742344 89.7919938,22.7722104 C91.312559,22.1701865 91.7058084,20.7567389 91.0241758,19.2909415 Z M89.1890112,22.1963614 C88.2189955,22.5104609 86.8032966,22.431936 86.2265303,21.4634627 C85.5186815,20.2855898 86.3838303,18.5842177 87.4062792,17.9298439 C88.6908949,17.249295 89.9492938,18.7412675 90.3687596,19.8144406 C90.8406595,20.9661385 90.3425433,21.8299121 89.1890112,22.1963614 Z" id="Shape"></path>
                    <path d="M88.8481944,19.6573908 C88.8481944,19.7097407 88.8481944,19.7620906 88.8481944,19.8144406 C88.7695449,20.3117647 88.3500786,20.6520391 87.8519624,20.6520391 C87.8519624,20.6520391 87.8519624,20.6520391 87.8519624,20.6520391 C87.7995292,20.6520391 87.7470955,20.6520391 87.6946624,20.6520391 C87.6684461,20.6520391 87.6684461,20.6258642 87.6422292,20.6258642 C87.2227629,20.4688144 86.8557298,19.9714903 87.2489798,19.578866 C87.5373624,19.2909415 88.0879123,19.2909415 88.4811618,19.2647665 C88.6646781,19.2647665 88.8481944,19.4479912 88.8481944,19.6573908 Z" id="Shape"></path>
                    <path d="M87.8278017,20.6783661 C87.7746832,20.6783661 87.7215646,20.6783661 87.6684461,20.6783661 C87.7215646,20.651849 87.7746832,20.6783661 87.8278017,20.6783661 Z" id="Shape"></path>
                    <path d="M77.4177393,20.5996892 C77.076923,20.8614387 76.6312404,21.0184885 76.1855573,20.9923135 C76.1593405,20.9923135 76.1331242,20.9923135 76.080691,20.9923135 C75.8709579,20.9399636 75.7398742,20.730564 75.7923079,20.5211643 C75.8709579,20.0761901 76.1331242,19.6835658 76.5263736,19.4218162 C76.8671899,19.1862417 77.4963893,18.976842 77.8372056,19.3171164 C77.8372056,19.3171164 77.8634225,19.3432914 77.8634225,19.3432914 C77.8634225,19.3432914 77.8634225,19.3432914 77.8634225,19.3694663 C77.8634225,19.3694663 77.8896388,19.3956413 77.8896388,19.3956413 C77.9158556,19.4479912 77.9420725,19.5265161 77.9420725,19.578866 C78.0207219,19.9976653 77.7323393,20.3641146 77.4177393,20.5996892 Z" id="Shape"></path>
                    <path d="M77.8899815,19.3436335 C77.8899815,19.3436335 77.8634225,19.3171164 77.8634225,19.3171164 C77.8634225,19.3171164 77.8634225,19.3171164 77.8634225,19.3171164 C77.8634225,19.3171164 77.8899815,19.3436335 77.8899815,19.3436335 Z" id="Shape"></path>
                    <path d="M77.9689742,19.5812611 C77.9689742,19.5282268 77.9424152,19.4486755 77.9158556,19.3956413 C77.9689742,19.4486755 77.9689742,19.5282268 77.9689742,19.5812611 Z" id="Shape"></path>
                </g>
            </g>
        </g>
    </g>
</svg>