<?xml version="1.0" encoding="UTF-8"?>
<svg width="212px" height="284px" viewBox="0 0 212 284" version="1.1" xmlns="http://www.w3.org/2000/svg" xmlns:xlink="http://www.w3.org/1999/xlink">
    <!-- Generator: Sketch 50.2 (55047) - http://www.bohemiancoding.com/sketch -->
    <title>Group 4</title>
    <desc>Created with Sketch.</desc>
    <defs></defs>
    <g id="Page-1" stroke="none" stroke-width="1" fill="none" fill-rule="evenodd">
        <g id="Tablet" transform="translate(-132.000000, -463.000000)">
            <g id="Group-4" transform="translate(132.000000, 463.000000)">
                <rect id="Rectangle-2" stroke="#000000" stroke-width="11" fill="#FFFFFF" x="5.5" y="5.5" width="201" height="273"></rect>
                <g id="Group-2" transform="translate(33.000000, 59.000000)" fill="#000000" fill-rule="nonzero">
                    <g id="Layer_2">
                        <g id="Layer_1-2">
                            <path d="M144.476452,152.407902 C142.45055,153.131607 140.424647,153.787466 138.353218,154.398093 C136.44113,150.078474 134.460754,145.758856 132.252747,141.597548 C128.906594,135.287738 124.832025,129.249319 119.323391,124.590463 C116.864992,122.487193 114.110675,120.745777 111.174255,119.411444 C112.016483,119.298365 112.813187,119.026975 113.587127,118.642507 C113.746468,118.552044 113.791994,118.325886 113.700942,118.167575 C113.655416,118.099728 113.587127,118.054496 113.518838,118.03188 C113.245683,117.964033 112.972528,117.87357 112.722135,117.737875 C112.107535,117.217711 112.016483,116.923706 112.448979,116.833243 L112.813187,117.082016 C112.972528,117.17248 113.200157,117.127248 113.291209,116.946322 C113.313972,116.90109 113.336734,116.833243 113.336734,116.788011 C113.291209,116.313079 112.949765,116.086921 112.562794,116.086921 L111.675039,115.453678 L112.813187,115.476294 C112.99529,115.476294 113.154631,115.317984 113.154631,115.137057 C113.154631,115.023978 113.086342,114.910899 112.99529,114.843052 C112.653846,114.684741 112.380691,114.435967 112.198587,114.141962 C113.154631,114.571662 114.406594,114.209809 115.112245,113.373025 C115.817896,112.513624 115.931711,111.337602 115.977237,110.297275 C116.022763,108.646322 115.977237,107.017984 115.977237,105.36703 L115.908948,85.0580382 L115.886185,80.3765667 C115.886185,79.2457765 116.022763,77.8888284 115.453689,76.8485013 C114.452119,74.9940055 111.970957,75.4915531 110.741758,76.8032698 C109.854003,77.7305179 109.353218,78.974387 108.806907,80.1277931 L108.306122,81.1907358 C108.328885,79.3136241 107.66876,77.4591278 106.439561,76.0117167 C105.051021,74.2929155 103.434851,72.8681198 102.342229,70.900545 C100.179749,67.0332426 99.565149,62.5100815 98.9277865,58.190463 C97.3571428,47.4931882 95.786499,36.7959128 94.2158558,26.0986376 C93.9654632,24.4024523 93.6467818,17.0070845 90.0729986,18.3640327 C88.456829,18.9972752 87.9105181,21.6207085 87.3869704,23.0228883 C86.5447412,25.3523161 85.8163266,27.7269755 85.2017268,30.1242507 C84.6326533,32.4536785 84.1546309,34.8057221 83.8131867,37.2029973 C82.333595,36.4114441 80.7629513,35.8234333 79.1695449,35.4163488 C80.2394035,34.8283379 81.1499217,34.0820164 81.6962326,32.973842 C82.3791208,31.5942779 82.6295134,29.9433243 82.9481948,28.4280654 C83.6310831,25.239237 83.7676609,22.2087193 83.0620095,19.019891 C82.6522765,17.1880109 82.1059656,15.3787466 81.8328099,13.5242507 C81.5824174,11.760218 81.6734694,10.0188011 81.7417584,8.25476839 C81.8555731,5.45040871 81.8783357,2.48773842 79.8524331,0.316621254 C79.7158558,0.18092643 79.510989,0.18092643 79.3744112,0.316621254 C76.9160124,3.12098093 75.4819465,6.67166211 75.2998429,10.380654 C73.0918367,9.34032698 70.5196232,9.49863759 68.4481948,10.7651226 C68.1067502,7.48583105 66.5588696,4.45531335 64.0549451,2.26158038 C64.0094193,2.23896458 63.9866562,2.21634877 63.9411304,2.19373297 C63.8273157,1.96757493 63.4858711,1.85449591 63.3492937,2.14850136 C62.0518052,5.04332426 61.5282574,8.20953679 61.8469389,11.3531335 C61.9379905,12.2803815 62.0290425,13.1623978 61.710361,14.06703 C61.4372058,14.8359673 60.9819465,15.5370572 60.5949766,16.260763 C59.8665621,17.6629428 59.365777,19.1782016 59.0698586,20.7386921 C58.5463109,23.6787466 58.3186815,26.6640327 58.4552588,29.6493188 C58.5463109,32.4310627 59.5023548,34.7831063 62.1200941,36.0722071 C62.7119308,36.3662125 63.3265306,36.6149864 63.9411304,36.8411444 C62.3021977,37.6100817 60.7770802,38.5599455 59.365777,39.7359673 C58.7739403,35.7782016 58.0227631,31.820436 56.7935635,28.0209809 C55.9058085,25.3070845 54.0847722,19.6079019 50.2378338,20.1506812 C50.1467818,20.173297 50.101256,20.1959128 50.0557302,20.2411444 C48.5306122,20.9874659 48.3485086,23.3395095 48.2119308,24.786921 C47.8477235,28.247139 48.0298271,31.7752044 48.1208792,35.2580381 C48.3485086,43.7615804 48.5306122,52.6948229 46.0266876,60.9269754 C43.1357928,70.4708445 37.9230769,79.4493186 37.8547881,89.6490463 C37.8547881,90.4632154 37.877551,91.2547685 37.9458399,92.0689371 C36.3751962,88.9705722 34.7817896,85.8722069 33.211146,82.773842 C32.755887,81.9144414 32.2551021,80.8288827 31.2535322,80.4670302 C30.411303,80.1504087 29.6145997,80.5574932 29.0910518,81.2359673 C28.4536892,82.0953679 28.1805338,83.226158 27.9073783,84.2212536 C27.5431711,85.6234333 27.2700157,87.025613 27.110675,88.4730246 C26.3822606,94.6697549 27.2700157,100.956948 26.3139717,107.153678 C25.9270016,109.709264 24.8799058,112.988556 26.7009419,115.250136 C27.6569859,116.426158 29.2959184,117.17248 30.7072213,116.742779 C30.7072213,117.014169 30.7527472,117.285559 30.9120879,117.534333 C31.0031397,117.692643 31.1397174,117.828338 31.2762951,117.941417 L30.1836734,119.366212 C30.0015699,119.614986 30.2974882,119.931607 30.5706436,119.86376 L31.2535322,119.682834 L30.5251177,120.519619 C30.4795918,120.542235 30.4568289,120.587466 30.411303,120.610082 C30.2974882,120.745777 30.2974882,120.949319 30.4340659,121.085014 C30.5706436,121.198093 30.7755102,121.198093 30.889325,121.085014 C31.344584,120.610082 32.0274725,120.451771 32.6420722,120.655314 C25.9042386,126.919891 19.4395605,133.546322 13.5211931,140.579836 C9.94740974,144.831607 6.66954475,149.513079 4.211146,154.511172 C4.05180534,154.827793 3.91522763,155.144414 3.75588697,155.461035 C2.70879121,155.212262 1.66169545,154.963488 0.614599685,154.714714 C0.182103611,154.601635 5.35127498e-14,155.257493 0.432496075,155.370572 C1.43406594,155.619346 2.45839874,155.86812 3.4599686,156.094278 C2.27629513,158.83079 1.29748823,161.883924 1.66169545,164.86921 C1.66169545,164.891825 1.66169545,164.937057 1.66169545,164.982289 C1.70722135,165.208447 1.79827316,165.434605 1.88932496,165.660763 C1.95761382,165.841689 2.13971743,165.932152 2.32182104,165.886921 C8.35400315,164.982289 14.3861852,164.213351 20.4411303,163.489646 C24.9026688,162.969482 29.4097331,162.811172 33.8940345,162.992098 C38.9018838,163.173025 43.8642072,163.851499 48.8720564,164.100272 C58.9332808,164.59782 69.0400315,164.145504 79.0784928,163.964578 L109.740188,163.399183 C115.248823,163.308719 120.78022,163.150409 126.288854,163.534877 C131.547096,163.874114 137.010204,165.434605 142.268446,164.258583 C142.45055,164.213351 142.564364,164.009809 142.496075,163.828883 C142.496075,163.806267 142.473312,163.783651 142.473312,163.761035 C141.175824,160.866212 139.923862,157.948774 138.649137,155.053951 C140.675039,154.443324 142.678179,153.787466 144.681319,153.086376 C145.068289,152.905449 144.886185,152.249591 144.476452,152.407902 Z M60.5266877,34.0820164 C59.4340659,32.8155314 59.1836734,31.0967302 59.1609107,29.4910082 C59.0926218,26.6640327 59.2064365,23.7013624 59.7527474,20.9422343 C60.0486657,19.3365123 60.5949766,17.7760218 61.3689169,16.3059946 C62.0062794,15.107357 62.6208792,14.0444142 62.6436418,12.6422343 C62.666405,11.0591281 62.3704866,9.5438692 62.5070645,7.93814716 C62.666405,6.21934605 63.0989011,4.52316076 63.7817899,2.94005449 C66.1718997,5.13378747 67.6287283,8.16430518 67.833595,11.3983651 C67.8563582,11.6245232 68.1295134,11.8506812 68.3571428,11.6923706 C70.4285716,10.1544959 73.2284145,9.9735695 75.4819465,11.2400545 C75.6412875,11.3305177 75.8689169,11.2852861 75.9599685,11.1043597 C75.9827316,11.0591281 76.0054943,10.9912807 76.0054943,10.9460491 C76.0737832,7.35013624 77.3485086,3.86730245 79.6475669,1.10817439 C81.286499,3.12098093 81.1954475,5.8122616 81.0816328,8.3 C80.967818,10.83297 81.0133438,13.2302452 81.5824174,15.7179836 C82.242543,18.6354223 83.1075353,21.4623978 82.9026686,24.4929155 C82.7660912,26.1212534 82.4929355,27.7495913 82.0832025,29.3553133 C81.764521,30.7574932 81.5368916,32.3405994 80.6036108,33.4940054 C79.989011,34.240327 79.101256,34.7831063 78.1907378,35.2128065 C73.7974881,34.3081744 69.1538462,34.7378746 65.010989,36.4340599 C64.7150707,36.3435967 64.4191523,36.2757493 64.123234,36.1852861 C62.8029828,35.73297 61.4599685,35.1223433 60.5266877,34.0820164 Z M40.0400314,79.8111716 C41.3147567,75.2653951 43.2723705,70.9231606 44.88854,66.513079 C46.4591837,62.1934605 47.8249608,57.873842 48.3029828,53.2828339 C48.7127159,49.573842 48.9175826,45.8422343 48.9403453,42.1106267 C48.9403453,38.4920981 48.7810048,34.8961853 48.735479,31.2776567 C48.6899527,28.4959128 48.5533754,25.5106267 49.2590267,22.7967302 C49.4411304,22.1182561 49.7142856,21.1231607 50.4654632,20.8517711 C50.4882259,20.8517711 50.4882259,20.8517711 50.510989,20.8291553 C52.3092622,20.6029973 53.5839876,22.4574932 54.3351648,23.8144414 C55.3822607,25.6463215 56.065149,27.6817439 56.634223,29.7171662 C57.6130296,33.2678474 58.3414441,36.8637602 58.8422292,40.5049046 C58.887755,40.7762943 59.2519623,40.7989101 59.4113028,40.6632152 C61.0729986,39.193188 62.9395606,38.039782 64.9654632,37.1803815 C64.9654632,37.1803815 64.9654632,37.1803815 64.9654632,37.1803815 C65.3069074,36.9768393 65.7394035,36.7959128 66.2857144,36.660218 C69.6546309,35.4841962 73.3422292,35.1223433 76.8704866,35.6425068 C77.3940344,35.6425068 77.8720564,35.7555858 78.2590267,35.8912807 C78.2590267,35.8912807 78.2590267,35.8912807 78.2590267,35.8912807 C80.2394035,36.3209809 82.1514914,37.0220709 83.9270014,38.0171662 C84.0863424,38.1076294 84.2912087,38.0623978 84.4050234,37.8814714 C84.4277865,37.8588556 84.4277865,37.8362398 84.4277865,37.813624 C85.0879121,33.1773842 86.1805339,28.6316076 87.7056514,24.1989101 C88.1609107,22.8645777 89.5494503,17.3689373 91.7119308,19.3591281 C93.123234,20.6482289 93.1004709,23.2038147 93.3508634,24.9226158 L97.6758243,54.3457765 C98.2904241,58.574932 98.7229198,62.9171661 99.9976452,67.0332426 C100.543956,68.8877383 101.363422,70.674387 102.410518,72.3027247 C103.434851,73.8405994 104.800628,75.039237 105.961539,76.4866487 C107.623234,78.5673025 107.8281,80.8514987 107.350078,83.1583105 L106.66719,84.6057222 L103.708006,90.8024524 C103.708006,89.1514987 103.548666,87.477929 103.252747,85.8269754 C101.864207,78.2280654 97.220565,70.448229 89.7998429,67.3950951 C85.7935635,65.7441419 81.2409733,65.2013624 76.9387755,65.1335149 C72.4772369,65.0656674 68.0384613,65.6310629 63.7590267,66.8070845 C56.156201,68.8877383 47.9160124,72.9359673 43.7731554,79.9242506 C39.8806907,86.5054494 40.7912088,94.2174388 42.6805338,101.409264 C42.5439561,101.183106 42.4301413,100.934333 42.3163266,100.708175 C41.1326531,98.4013624 39.9717426,96.0945506 38.810832,93.8103543 C38.810832,93.7425068 38.7880691,93.6746593 38.7880691,93.6068118 C38.2189953,88.9479562 38.7880691,84.2664851 40.0400314,79.8111716 Z M98.9733123,105.841962 C99.0643644,106.113351 99.1781791,106.384741 99.2919938,106.656131 C99.3375196,106.723978 99.3602827,106.791825 99.4058085,106.859673 C99.2692307,106.972752 99.1326533,107.063215 98.9733123,107.176294 C98.5635793,107.447684 98.1538462,107.696458 97.72135,107.9 C96.6970172,108.397548 95.6043954,108.714169 94.5117741,108.962943 C90.7558868,109.822343 86.8178964,110.116349 82.9481948,110.523433 C81.3092622,110.071117 79.6475669,109.686649 77.9631084,109.460491 C70.4968601,108.420164 63.0533754,110.274659 55.9285716,112.377929 C55.5416012,112.491008 55.1546309,112.604087 54.7676609,112.717166 C53.9481948,112.558856 53.1287283,112.332698 52.3320253,112.061308 C49.5549451,111.066212 47.1648352,109.437875 45.1844584,107.379836 C45.1844584,107.357221 45.1844584,107.311989 45.1616955,107.289373 L45.1616955,107.311989 C42.7032967,99.713079 40.1310832,91.073842 42.9764521,83.226158 C45.7535322,75.5820161 53.5384613,70.9683925 60.8681318,68.4128067 C68.7668758,65.6536784 77.6216643,64.9525883 85.7935635,66.8523161 C89.9819465,67.8247957 93.6240186,69.8149864 96.4466246,73.0716623 C98.9960755,76.0343326 100.862638,79.5171661 101.932496,83.2713895 C102.797488,86.2340599 103.11617,89.2645777 103.002355,92.2950951 C103.002355,92.2950951 103.002355,92.2950951 103.002355,92.2950951 L102.205651,93.9686648 C100.839874,96.8408722 98.9505497,99.8713895 98.677394,103.105449 C98.5863424,103.987466 98.677394,104.959946 98.9733123,105.841962 Z M98.9733123,114.255041 C94.0337521,114.09673 89.3673467,112.400545 84.655416,110.998365 C86.9772369,110.726975 89.3218209,110.455586 91.6436418,110.138965 C94.4207221,109.777112 97.4937206,109.189101 99.7472526,107.447684 C100.156986,108.035695 100.657771,108.533243 101.295133,108.895095 C100.49843,109.596185 99.4058085,110.43297 99.2237049,111.428065 C99.2009417,111.518528 99.2009417,111.608992 99.2009417,111.699455 C98.8139718,111.812534 98.4952904,112.129155 98.3359499,112.53624 C98.0627942,113.214714 98.4497646,113.802725 98.9733123,114.255041 Z M43.978022,114.028883 C43.8869702,113.870572 43.6593406,113.825341 43.5,113.915804 C43.4317111,113.961035 43.3634223,114.028883 43.3406594,114.119346 L43.3178964,114.255041 C43.1357928,113.893188 42.9992151,113.508719 42.8626373,113.124251 C42.7943485,112.875477 42.7032967,112.649319 42.566719,112.445777 C43.978022,111.56376 44.7519623,109.980654 44.8657771,108.284469 C44.8657771,108.194006 44.8657771,108.126158 44.8657771,108.035695 C45.844584,109.008175 46.9144427,109.890191 48.098116,110.681744 C49.8053376,111.812534 51.6036108,112.604087 53.5156987,113.101635 C50.2378338,114.09673 46.9372058,115.091825 43.5910518,115.883379 L43.8869702,114.707357 C44.0690738,114.571662 44.1145997,114.322888 43.978022,114.028883 Z M141.699372,163.693188 C136.964678,164.620436 132.11617,163.331335 127.381476,162.946867 C122.396389,162.539782 117.411303,162.60763 112.403454,162.698093 C102.27394,162.879019 92.1216643,163.059946 81.9921509,163.263488 C71.930926,163.444414 61.8014131,163.874114 51.7401882,163.580109 C42.1569859,163.286104 32.6648351,161.657765 23.0588697,162.562398 C16.1616955,163.218256 9.2645212,164.190736 2.41287284,165.231063 C2.36734694,165.117984 2.34458399,165.004905 2.29905808,164.891825 C1.93485086,161.951771 2.93642072,158.966485 4.14285714,156.275204 C10.4709576,157.722616 16.8673469,158.876022 23.2864992,159.712807 C23.7189953,159.758038 23.7189953,159.079564 23.2864992,159.034333 C16.9356358,158.197548 10.6530612,157.066757 4.41601256,155.641962 C4.43877551,155.59673 4.46153846,155.528883 4.50706436,155.461035 C6.00941915,152.294823 7.87598118,149.309537 9.90188381,146.43733 C13.0431711,141.982016 16.6624804,137.911172 20.3500785,133.93079 C24.5384616,129.40763 28.9089482,125.020164 33.4615384,120.813624 C33.5981162,120.677929 33.5981162,120.451771 33.4615384,120.338692 C33.4387755,120.316076 33.4160126,120.29346 33.3932496,120.29346 C32.9379906,119.999455 32.4372056,119.886376 31.9364207,119.931607 L32.4599686,119.343597 C32.5965463,119.207902 32.5965463,118.981744 32.4599686,118.868665 C32.3689168,118.778202 32.2551021,118.755586 32.1412873,118.778202 L31.321821,119.00436 L32.0502355,118.054496 C32.1412873,117.896185 32.0957614,117.670027 31.9136578,117.579564 C31.8908948,117.556948 31.8681319,117.556948 31.8453689,117.556948 C31.321821,117.398638 31.2307692,116.788011 31.5039246,116.403542 C31.6177394,116.335695 31.7087912,116.245232 31.822606,116.154768 C32.1185244,115.883379 31.7315542,115.431063 31.4128728,115.611989 C31.3901099,115.634605 31.3673469,115.634605 31.344584,115.657221 C29.5690738,117.285559 27.0423862,115.295368 26.5643642,113.440872 C25.9270016,111.043597 26.8830455,108.465395 27.156201,106.090736 C27.7252747,101.341417 27.3383045,96.5468666 27.5431711,91.774932 C27.61146,89.3776568 27.9301413,87.0029975 28.4992151,84.6735697 C28.7496075,83.7010901 29.0455259,82.0275204 29.933281,81.3942778 C31.4811617,80.2861037 32.4827316,82.977384 33.0062794,83.9950951 L38.1507064,94.1043598 L39.1978022,96.1623976 L39.9945055,97.7002723 C41.2919937,100.233243 42.8854003,102.788828 43.7503925,105.502725 C43.7959184,105.683651 43.8642072,105.841962 43.9097331,106.022888 C44.0235479,106.429973 44.0918367,106.882289 44.1145997,107.311989 C44.2739404,109.279564 43.7048666,111.337602 41.7244898,112.174387 C41.6789639,112.197003 41.633438,112.219619 41.5879121,112.242235 C41.5651491,112.242235 41.5423862,112.26485 41.5196233,112.26485 C41.5196233,112.26485 41.4968603,112.26485 41.4968603,112.287466 C41.178179,112.468393 41.3830455,113.056403 41.7700157,112.898093 C41.8155416,112.875477 41.8610675,112.852861 41.9065934,112.852861 C42.1342229,112.898093 42.3163266,114.209809 42.4756672,114.413351 C42.6577708,114.639509 42.8854003,114.820436 43.1585557,114.888283 L42.7943485,116.335695 C42.7488226,116.516621 42.8626373,116.697548 43.044741,116.742779 C43.0902669,116.765395 43.1585557,116.765395 43.2268446,116.742779 C47.1420721,115.838147 50.989011,114.616894 54.8587125,113.463488 C54.9725277,113.418256 55.0863424,113.39564 55.2229198,113.350409 C55.2229198,113.350409 55.2229198,113.350409 55.2456829,113.350409 C55.6098902,113.23733 55.9740974,113.124251 56.3610673,113.011172 C59.4113028,112.10654 62.4615387,111.29237 65.5800626,110.70436 C69.3587125,109.980654 73.2284145,109.664033 77.0753534,110.093733 C78.4183672,110.252044 79.7386184,110.500817 81.036107,110.794823 C81.1043954,110.817439 81.1726843,110.840054 81.2637364,110.840054 C81.7189952,110.953133 82.1742545,111.066212 82.6295134,111.201907 C82.720565,111.224523 82.811617,111.247139 82.9026686,111.269755 C84.655416,111.744686 86.3854002,112.287466 88.1153844,112.830245 C92.0306122,114.028883 95.9913658,115.091825 100.11146,115.023978 C100.293564,115.023978 100.452904,114.865667 100.452904,114.684741 C100.452904,114.571662 100.384616,114.458583 100.293564,114.390736 C100.020408,114.255041 99.7472526,114.09673 99.5196232,113.893188 C99.2237049,113.734877 99.155416,113.486104 99.3147565,113.101635 C99.155416,112.649319 99.2009417,112.445777 99.4285716,112.445777 C99.5423863,112.558856 99.7017268,112.604087 99.9293563,112.581472 C100.11146,112.581472 100.270801,112.423161 100.270801,112.219619 C100.270801,112.10654 100.202512,111.99346 100.11146,111.948229 C100.043171,111.902997 99.974882,111.857765 99.9065936,111.812534 C99.9065936,111.631607 100.11146,111.179291 100.134223,111.156676 C100.361852,110.907902 100.589482,110.659128 100.839874,110.43297 L102.137362,109.143869 C102.27394,109.008175 102.27394,108.804632 102.137362,108.668937 C102.1146,108.646322 102.091837,108.623706 102.069074,108.623706 C101.249607,108.239237 100.657771,107.741689 100.225275,107.153678 C100.225275,107.153678 100.225275,107.153678 100.225275,107.153678 C100.065934,106.972752 99.9521194,106.76921 99.8838305,106.543052 C99.8838305,106.543052 99.8610673,106.565667 99.8610673,106.565667 C99.7927784,106.429973 99.72449,106.294278 99.6789637,106.135967 C99.6789637,106.135967 99.6789637,106.135967 99.6789637,106.135967 C99.5879121,105.977657 99.5196232,105.728883 99.4740974,105.480109 C99.4513343,105.36703 99.4513343,105.276567 99.4285716,105.163488 C99.4285716,105.163488 99.4285716,105.186104 99.4058085,105.186104 C98.9505497,102.200817 100.8854,98.3787464 102.023548,95.9814716 L102.865777,94.2174388 C102.865777,94.2852859 102.865777,94.3305179 102.843014,94.3983649 L108.146782,83.022616 C108.215071,82.886921 108.28336,82.751226 108.374411,82.638147 L108.806907,81.7561308 C109.694662,79.9016351 110.810047,76.1474117 113.473312,76.3735697 C115.043956,76.5092642 115.180534,78.1149864 115.180534,79.3362396 C115.203297,80.6705722 115.180534,82.0049049 115.180534,83.361853 L115.22606,98.9667574 L115.248823,107.9 C115.248823,109.211717 115.408163,110.70436 115.043956,111.99346 C114.702512,113.169482 112.83595,114.707357 111.902669,113.124251 C111.811617,112.96594 111.583988,112.920709 111.424647,113.011172 C111.310832,113.079019 111.265306,113.192098 111.265306,113.305177 C111.242543,113.893188 111.424647,114.458583 111.788854,114.888283 L110.559655,114.865667 C110.377551,114.865667 110.21821,115.023978 110.21821,115.204905 C110.21821,115.317984 110.286499,115.431063 110.377551,115.49891 L111.788854,116.494006 C111.743328,116.539237 111.697802,116.584469 111.675039,116.6297 C111.014914,117.421254 111.788854,118.077112 112.562794,118.484196 C111.675039,118.823433 110.741758,118.981744 109.785714,118.936512 C109.785714,118.936512 109.762951,118.936512 109.762951,118.936512 C109.740188,118.936512 109.717425,118.936512 109.6719,118.936512 C109.262166,118.913896 109.239404,119.479291 109.580848,119.614986 C123.466248,125.110627 130.636578,139.087193 136.372841,151.865123 C136.805338,152.837602 137.237834,153.787466 137.67033,154.759946 C131.774725,156.478746 125.788069,157.767848 119.687598,158.649864 C119.255102,158.717711 119.437206,159.37357 119.869702,159.305722 C125.992936,158.446322 132.025118,157.134605 137.943485,155.393188 C139.195447,158.039237 140.44741,160.866212 141.699372,163.693188 Z" id="Shape"></path>
                            <path d="M75.8233911,144.424523 C73.5926218,144.243597 71.2935635,144.040054 69.0627942,144.220981 C67.3783357,144.33406 65.6938777,144.582834 64.0549451,144.967302 C62.8257455,145.283924 61.1185244,145.73624 61.0729986,147.274114 C61.0729986,147.319346 61.0729986,147.364578 61.0957612,147.409809 C61.4827316,149.603542 64.032182,149.264305 65.6711146,149.603542 C67.1051805,149.897548 68.4254317,150.576022 69.5408161,151.525886 C70.2009417,152.091281 70.8155415,153.402997 71.7488228,153.49346 C72.3861853,153.561308 72.8414441,153.041144 73.2056514,152.588828 C74.2527474,151.277112 75.2998429,150.53079 76.9387755,150.10109 C78.1907378,149.761853 79.4882259,149.67139 80.7401882,149.4 C81.7417584,149.196458 83.3579279,148.902452 83.9952904,148.020436 C86.0894819,145.170845 77.1208792,144.537602 75.8233911,144.424523 Z M82.9709575,147.975204 C82.5384613,148.337057 81.5368916,148.517984 80.9905807,148.653678 C79.8069074,148.925068 78.623234,149.015531 77.4395606,149.286921 C75.8461538,149.626158 74.2527474,150.236785 73.1828887,151.50327 C73.0007851,151.729428 72.8414441,151.978202 72.6593405,152.20436 C72.3634222,152.566212 71.8854002,152.837602 71.4073782,152.543597 C70.9976452,152.272207 70.656201,151.638965 70.2919938,151.299728 C69.4952904,150.553406 68.6075353,149.965395 67.6059656,149.513079 C66.6954475,149.105994 65.7166404,148.879836 64.7378338,148.789373 C63.5769231,148.676294 62.0290425,148.676294 61.7558868,147.228883 C61.8697015,146.00763 63.963893,145.691008 64.8971743,145.487466 C66.1718997,145.238692 67.4466246,145.057765 68.72135,144.967302 C70.1098902,144.876839 71.4984303,144.854223 72.909733,144.944686 C76.0510205,145.080381 79.4654632,145.19346 82.4474097,146.279019 C83.2668758,146.550409 84.0863424,147.025341 82.9709575,147.975204 Z" id="Shape"></path>
                            <path d="M103.571428,137.888556 C103.298273,138.069482 103.025118,138.250409 102.751962,138.453951 C103.025118,138.205177 103.298273,138.001635 103.571428,137.888556 Z" id="Shape"></path>
                            <path d="M118.185244,140.240599 C116.068289,135.988828 110.878336,135.038965 106.576138,135.988828 C105.369702,136.260218 104.231554,136.689918 103.207222,137.277929 C102.979592,137.413624 102.774725,137.549319 102.569859,137.685014 C102.569859,137.685014 102.547096,137.70763 102.547096,137.70763 C101.773155,138.273025 101.067504,138.974114 100.475667,139.810899 C99.0188381,141.936785 98.4497646,144.537602 98.8594976,147.093188 C98.8594976,147.13842 98.8822607,147.161035 98.8822607,147.206267 C99.8383047,151.186649 104.572999,153.674387 108.465463,153.742235 C111.083202,153.76485 113.632653,152.905449 115.704082,151.299728 C119.027472,148.653678 120.029043,144.06267 118.185244,140.240599 Z M102.774725,138.453951 C102.774725,138.453951 102.774725,138.453951 102.774725,138.453951 C103.025118,138.205177 103.298273,138.001635 103.594192,137.888556 C103.730769,137.820709 103.867347,137.775477 104.026688,137.775477 C105.642857,137.594551 106.803767,140.059673 106.553375,141.37139 C106.302983,142.660491 104.959968,144.085286 103.548666,143.994823 C102.023548,143.90436 101.545526,142.117711 101.613815,140.760763 C101.841444,141.054768 102.205651,141.190463 102.660911,141.1 C103.025118,141.032152 103.66248,140.760763 103.730769,140.331063 C103.799058,139.856131 103.298273,139.290736 102.911303,139.109809 C102.729199,139.019346 102.50157,138.99673 102.296703,139.019346 C102.433281,138.815804 102.592622,138.634877 102.774725,138.453951 Z M102.774725,139.833515 C102.865777,139.923978 102.956829,140.037057 103.002355,140.150136 C103.002355,140.150136 103.002355,140.150136 103.002355,140.172752 C102.956829,140.217984 102.88854,140.240599 102.843014,140.285831 C102.729199,140.353678 102.615384,140.39891 102.50157,140.421526 C102.205651,140.466757 102.069074,140.331063 102.000785,140.082289 C102.000785,139.652588 102.50157,139.584741 102.774725,139.833515 Z M115.453689,150.666485 C113.632653,152.20436 111.128728,153.041144 108.761382,153.086376 C105.051021,153.176839 100.384616,150.779564 99.5196232,146.957493 C99.5196232,146.934877 99.5196232,146.934877 99.4968601,146.912262 C99.155416,144.582834 99.7017268,142.276022 100.930926,140.444142 C100.748823,142.07248 101.295133,144.220981 103.070644,144.628065 C104.937206,145.057765 106.826531,143.271117 107.167975,141.552316 C107.486656,139.946594 106.462323,137.820709 104.846154,137.210082 C105.187598,137.074387 105.529043,136.961308 105.870487,136.870845 C109.854003,135.785286 114.907378,136.19237 117.251962,140.037057 C119.368917,143.474659 118.503925,148.088283 115.453689,150.666485 Z" id="Shape"></path>
                            <path d="M103.207222,137.300545 C102.979592,137.446458 102.774725,137.592371 102.569859,137.738284 C102.774725,137.568052 103.002355,137.422139 103.207222,137.300545 Z" id="Shape"></path>
                            <path d="M41.5651491,137.391008 C38.0368917,135.513896 33.1428572,136.667302 30.2747253,139.245504 C27.9984301,141.280927 26.4733124,144.628065 26.678179,147.703815 L26.678179,147.72643 C26.7237049,148.69891 26.7237049,149.535695 27.2472528,150.37248 C27.8390895,151.277112 28.5902669,152.068665 29.455259,152.724523 C31.1169545,153.991008 33.2566719,154.330245 35.2825745,154.488556 C37.399529,154.646867 39.8806907,154.89564 41.8610675,153.855314 C43.8869702,152.79237 44.7747253,150.37248 45.2527472,148.291825 C46.1860283,144.356676 45.4803767,139.471662 41.5651491,137.391008 Z M41.3375196,139.313351 C41.2692308,139.991825 40.700157,140.376294 40.0400314,140.353678 C39.6530612,140.12752 39.1295133,139.878746 39.4254317,139.403815 C39.6302983,139.064578 40.1538461,138.83842 40.5180534,138.770572 C40.9960754,138.657493 41.4058085,138.747956 41.3375196,139.313351 Z M40.700157,138.046867 C39.9945055,138.114714 39.1750393,138.476567 38.833595,139.087193 C38.3100471,139.96921 39.1067504,140.557221 39.7896389,140.964305 C39.8579278,141.009537 39.9262166,141.009537 39.9945055,141.009537 C40.9960754,141.122616 41.8838305,140.421526 42.0204082,139.449046 C42.0431711,139.358583 42.0431711,139.245504 42.0431711,139.155041 C42.8398744,140.308447 42.8854003,141.936785 41.7700157,142.999728 C40.677394,144.040054 38.33281,144.33406 37.3084772,142.977112 C36.8304553,142.343869 36.967033,141.303542 36.94427,140.557221 C36.94427,140.534605 36.94427,140.511989 36.94427,140.489373 C36.94427,139.494278 37.3084772,138.861035 38.1962323,138.340872 C38.9701727,137.843324 39.8579278,137.685014 40.700157,138.046867 Z M44.9568289,145.442235 C44.911303,147.455041 44.4105181,149.422616 43.5,151.209264 C42.2935636,153.470845 40.0855573,153.923161 37.6954474,153.900545 C35.4874411,153.855314 33.0290424,153.810082 30.9803767,152.837602 C30.0470958,152.385286 29.3414443,151.706812 28.6357928,150.983106 C27.6569859,149.965395 27.4293564,149.060763 27.3610675,147.72643 C26.9513344,141.755858 32.4827316,136.757765 38.378336,137.210082 C38.5832025,137.232698 38.7880691,137.255314 38.9701727,137.277929 C38.355573,137.43624 37.7864992,137.730245 37.2857143,138.13733 C36.4207222,138.815804 36.2386185,139.494278 36.2386185,140.511989 C36.2613815,142.23079 36.1930926,143.497275 37.9686028,144.243597 C39.8806907,145.03515 42.1797488,144.356676 43.021978,142.343869 C43.4089482,141.416621 43.3406594,140.353678 42.9081633,139.449046 C44.3194662,140.964305 45.0023548,143.180654 44.9568289,145.442235 Z" id="Shape"></path>
                            <path d="M55.223705,113.282561 C55.102041,113.331199 55.0047095,113.355518 54.9073785,113.404155 C54.8830455,113.404155 54.8587125,113.404155 54.8587125,113.404155 C54.980377,113.355518 55.102041,113.30688 55.223705,113.282561 Z" id="Shape"></path>
                            <path d="M81.2401881,110.775613 C81.1185241,110.751294 81.0211931,110.751294 80.8995291,110.726975 C80.9238616,110.726975 80.9725276,110.726975 80.9968601,110.726975 C81.0941916,110.726975 81.1671901,110.751294 81.2401881,110.775613 Z" id="Shape"></path>
                            <path d="M82.9003141,111.208719 C82.8759811,111.208719 82.8516486,111.208719 82.8273156,111.208719 C82.7543171,111.1844 82.6813186,111.135763 82.5839876,111.111444 C82.7056516,111.160082 82.8029826,111.1844 82.9003141,111.208719 Z" id="Shape"></path>
                            <path d="M62.3932498,47.4253407 C61.6420721,46.4302452 60.4583988,45.8422343 59.2291991,45.7743869 C58.0227631,45.7517711 57.4081633,46.2945504 56.8163266,47.3122617 C56.8163266,47.3348772 56.7935635,47.3348772 56.7935635,47.3574932 C56.3610673,48.1490463 55.7237049,49.0310629 55.5416012,49.935695 C55.3367345,51.1343326 55.5416012,52.3555858 56.1334379,53.3959129 C57.2032966,55.2277931 59.934851,56.2002723 61.7331242,54.8207086 C63.8273157,53.2149864 63.9866562,49.4155314 62.3932498,47.4253407 Z M60.2080062,54.7754766 C58,55.1599456 56.3610673,53.2376024 56.1789637,51.2247957 C56.065149,49.8452315 56.7252746,48.9179839 57.3854002,47.7193462 C57.3854002,47.7193462 57.3854002,47.7193462 57.3854002,47.6967302 C57.4536891,47.5610352 57.5447412,47.4479562 57.6357927,47.3348772 C57.6357927,47.3348772 57.6585559,47.3122617 57.6585559,47.3122617 C59.1609107,45.4577657 61.8014131,47.0861037 62.5070645,49.0989099 C62.4843013,49.0762944 62.4843013,49.0536784 62.4615387,49.0536784 C62.0062794,48.5335149 61.0274723,48.4204358 60.6405024,49.0762944 C60.6177393,49.1215259 60.5949766,49.1667574 60.5949766,49.2119889 C60.3673467,49.822616 60.7087913,50.3880111 61.2551022,50.6594006 C61.6648352,50.8629426 62.3249608,51.0438692 62.6208792,50.5915531 C62.666405,50.5237056 62.6891681,50.4558581 62.7346939,50.3880111 C62.8485086,52.1972753 62.0973314,54.4362396 60.2080062,54.7754766 Z" id="Shape"></path>
                            <path d="M87.3414441,47.8550408 C85.5886972,46.226703 83.1075353,46.226703 81.6734694,48.2168938 C81.6734694,48.2168938 81.6734694,48.2168938 81.6734694,48.2168938 C81.6507063,48.2395093 81.6507063,48.2621253 81.6279436,48.2621253 C81.6051805,48.2847413 81.5824174,48.3299728 81.5824174,48.3525883 C80.7174255,50.048774 81.036107,52.3555858 82.4474097,53.6899185 C84.177394,55.2956402 86.8861853,54.5945506 88.2519623,52.8757494 C89.6177393,51.1795642 88.7982732,49.2119889 87.3414441,47.8550408 Z M87.4324962,52.7852859 C86.112245,54.1196185 83.8587125,54.4588556 82.6067502,52.8757494 C81.6507063,51.6544957 81.5141289,50.003542 82.2197803,48.6239783 C82.2197803,48.6239783 82.2197803,48.6239783 82.2197803,48.6239783 C84.7009417,45.0506812 90.2778649,49.890463 87.4324962,52.7852859 Z" id="Shape"></path>
                            <path d="M83.8131867,50.6820161 C83.7448978,51.0664851 83.4945057,51.4057222 83.1530611,51.5640327 C82.720565,51.7901907 82.242543,51.6318802 82.1287283,51.1343326 C82.1287283,51.1117167 82.1059656,51.0664851 82.1059656,51.0438692 C82.0376767,50.5237056 82.3791208,50.048774 82.9026686,49.9809265 C82.9026686,49.9809265 82.9254317,49.9809265 82.9254317,49.9809265 C82.9481948,49.9809265 82.9481948,49.9809265 82.9709575,49.9809265 C82.9709575,49.9809265 82.9937206,49.9809265 82.9937206,49.9809265 C83.4717426,49.913079 83.8587125,50.1844686 83.8131867,50.6820161 Z" id="Shape"></path>
                            <path d="M73.2967034,51.2926432 C72.5227631,51.2021797 68.6530611,50.4558581 68.6075353,51.9258857 C68.5847722,51.9711173 68.5847722,52.0389648 68.6302985,52.1294278 C69.1083204,53.2376024 70.1781791,53.9839235 71.1797488,54.5719346 C71.3163266,54.6397821 71.4756671,54.6171661 71.5894819,54.5267031 C72.5,53.7803815 73.2056514,52.8079019 73.6381476,51.7223432 C73.7064365,51.4961852 73.4788071,51.3152587 73.2967034,51.2926432 Z M71.2935635,53.848229 C70.5196232,53.3732969 69.6546309,52.7852859 69.2904241,51.9711173 C69.4042388,51.5866487 71.7260597,51.7901907 72.7959183,51.9032698 C72.4317111,52.6495913 71.930926,53.3054494 71.2935635,53.848229 Z" id="Shape"></path>
                            <path d="M59.6161695,82.773842 C59.1381476,80.9193462 58.3869704,79.1553135 57.430926,77.5043598 C56.7708009,76.4414167 55.9968601,75.061853 54.7676609,74.609537 C54.7221351,74.586921 54.6766089,74.564305 54.6083204,74.5416895 C52.5596547,74.225068 50.9662479,76.0795642 49.8281003,77.5269754 C48.4395606,79.2457765 47.4152278,81.2359673 46.8233911,83.361853 C46.7778649,83.5427791 46.8916796,83.7237056 47.0737832,83.7689371 C47.1875979,83.7915531 47.3014131,83.7689371 47.3924647,83.6784741 L50.0784928,81.5525883 L51.4215072,80.4896457 C51.8312402,80.1730246 52.3775511,79.5397821 52.8783357,79.3814716 C53.9709575,79.087466 55.4277865,80.5801092 56.2472526,81.1455043 L59.1381476,83.135695 C59.365777,83.339237 59.6844585,83.0452315 59.6161695,82.773842 Z M55.8602827,80.0599456 C55.0863424,79.5397821 54.0620095,78.4768394 53.0376767,78.63515 C52.0816328,78.7934605 51.1483515,79.8564031 50.4427001,80.4217982 L47.8021977,82.5024524 C48.3029828,81.0324252 49.05416,79.6528611 49.9874413,78.4089919 C50.9662479,77.1425068 52.5368916,74.9713895 54.3579279,75.1975476 C54.3806905,75.1975476 54.3806905,75.1975476 54.4034537,75.2201636 C55.6326533,75.5820161 56.4976452,77.2782018 57.112245,78.3411444 C57.7723706,79.5171661 58.2959183,80.7610352 58.7056514,82.0501364 L55.8602827,80.0599456 Z" id="Shape"></path>
                            <path d="M78.7370487,80.4217982 C78.0086342,76.6901907 75.1405024,72.7550408 71.1114599,72.1444142 C71.0886972,72.1217982 71.043171,72.1217982 70.9976452,72.1217982 C69.0627942,72.0765667 67.6970172,73.8179839 66.7182101,75.2653951 C65.4662479,77.0746593 64.601256,79.1326975 64.1687598,81.2811988 C64.123234,81.4621253 64.2370487,81.6430518 64.4191523,81.6882833 C64.532967,81.7108993 64.6467818,81.6882833 64.7378338,81.5978203 L67.5376767,78.725613 C68.5164833,77.7305179 70.0188381,75.4463216 71.612245,76.0795642 C72.7276294,76.5318802 73.7974881,77.4138963 74.7762951,78.0923704 C75.9599685,78.9065395 77.0753534,79.7885556 78.1679747,80.7158037 C78.3045525,80.8514987 78.532182,80.8514987 78.6459967,80.7158037 C78.7142856,80.6705722 78.7598118,80.5348772 78.7370487,80.4217982 Z M74.9356356,77.4365123 C74.2527474,76.9615803 73.547096,76.5092642 72.8414441,76.0795642 C72.2951332,75.7403271 71.6577708,75.2427791 70.9976452,75.1297001 C69.8139718,74.926158 68.8351648,76.4866487 68.1295134,77.1877383 L65.1020406,80.2861037 C65.489011,78.861308 66.1036108,77.4817438 66.9003138,76.2378747 C67.8108319,74.835695 69.0855573,72.7776568 70.9976452,72.8228883 C70.9976452,72.8228883 71.0204083,72.8228883 71.0204083,72.8228883 C74.4120879,73.4108993 76.8704866,76.4640327 77.8265306,79.6076296 C76.8932498,78.838692 75.9144427,78.1149864 74.9356356,77.4365123 Z" id="Shape"></path>
                            <path d="M95.6954475,83.8141691 C95.1718997,81.9596729 94.4662479,80.1277931 93.6240186,78.3863759 C92.8045525,76.7128067 91.6208792,74.5190735 89.5039245,74.338147 C89.4811619,74.338147 89.4356356,74.3155314 89.3901098,74.3155314 C87.4324962,74.4059945 86.2032966,76.0795642 85.22449,77.5722069 C84.0408161,79.3588556 83.1985869,81.3716623 82.7660912,83.474932 C82.720565,83.6558581 82.8343801,83.8367846 83.0164833,83.8820161 C83.1302985,83.9046321 83.2441132,83.8820161 83.3351648,83.7915531 L86.0439561,81.7108993 L87.409733,80.6705722 C88.2519623,80.0147141 88.6389327,79.5397821 89.8681318,80.0373296 C91.8712717,80.8741143 93.6923075,82.5476839 95.1036108,84.1307901 C95.2401882,84.2664851 95.467818,84.2664851 95.5816328,84.1307901 C95.6954475,84.0403271 95.7182101,83.9272481 95.6954475,83.8141691 Z M92.713501,80.9871933 C91.757457,80.2861037 90.5054943,79.2910081 89.2990583,79.087466 C88.2974881,78.9065395 87.5007851,79.7659401 86.7723706,80.3313352 L83.6538462,82.7286105 C84.0408161,81.2585833 84.6326533,79.8790191 85.4293563,78.5673025 C86.3171113,77.1198908 87.5007851,75.1070845 89.412873,74.9940055 C89.412873,74.9940055 89.4356356,74.9940055 89.4356356,74.9940055 C91.5070645,75.1070845 92.6679747,77.8209809 93.3963892,79.4267031 C93.8516485,80.4670302 94.2613816,81.5299728 94.6255888,82.5929155 C94.010989,82.0275204 93.3736265,81.4847413 92.713501,80.9871933 Z" id="Shape"></path>
                            <path d="M69.2676609,15.5822888 C69.2448978,15.5370572 69.2221351,15.4918256 69.2221351,15.4692098 C69.2221351,15.4692098 69.2221351,15.4692098 69.2221351,15.4692098 C69.199372,15.446594 69.1766089,15.4013624 69.1538462,15.3787466 C69.1538462,15.3787466 69.1538462,15.3787466 69.1538462,15.3787466 C68.3571428,14.3836512 66.5816328,14.3384196 65.6255888,15.0847412 C64.532967,15.9215259 64.532967,17.527248 65.010989,18.680654 C65.5800626,20.1054496 67.1507063,20.6482289 68.4709575,19.7888283 C69.9050234,18.793733 69.8822607,17.0523161 69.2676609,15.5822888 Z M68.220565,19.0651226 C67.2189952,19.9245232 65.967033,19.4269755 65.5572999,18.2283379 C65.3296705,17.527248 65.2386184,16.6 65.6711146,15.9667575 C66.2401882,15.1525886 67.9929355,14.8811989 68.6302985,15.8084469 C68.6302985,15.8084469 68.6302985,15.8084469 68.6302985,15.8084469 C69.1310831,16.9166212 69.2221351,18.2283379 68.220565,19.0651226 Z" id="Shape"></path>
                            <path d="M69.1538462,15.3561308 C69.1781787,15.3804496 69.2025117,15.4047684 69.2268447,15.453406 C69.2025117,15.4290872 69.1781787,15.4047684 69.1538462,15.3561308 Z" id="Shape"></path>
                            <path d="M69.2708006,15.5908038 C69.2464676,15.5421662 69.2221351,15.4935286 69.2221351,15.4692098 C69.2464676,15.5178474 69.2708006,15.566485 69.2708006,15.5908038 Z" id="Shape"></path>
                            <path d="M79.032967,16.6678474 C78.463893,15.446594 77.0525903,14.1348774 75.6185244,14.8585831 C75.5957612,14.8585831 75.5729986,14.8811989 75.5502354,14.8811989 C75.5274723,14.9038147 75.5047096,14.9038147 75.4819465,14.9264305 C75.4819465,14.9264305 75.4819465,14.9264305 75.4819465,14.9264305 C74.3210363,15.7179836 73.547096,17.4594006 74.2299842,18.7711172 C74.912873,20.060218 76.7339088,20.1959128 77.9631084,19.6757493 C79.2833596,19.1555858 79.6248037,17.9343324 79.032967,16.6678474 Z M77.4395606,19.1782016 C76.5973314,19.4495913 75.3681318,19.3817439 74.8673467,18.5449591 C74.2527474,17.527248 75.0039245,16.0572207 75.8916796,15.4918256 C77.0070645,14.9038147 78.0996862,16.1929155 78.463893,17.1201635 C78.8736265,18.1152588 78.4411304,18.8615804 77.4395606,19.1782016 Z" id="Shape"></path>
                            <path d="M77.1436418,16.9844686 C77.1436418,17.0297003 77.1436418,17.0749319 77.1436418,17.1201635 C77.0753534,17.5498638 76.7111461,17.8438692 76.27865,17.8438692 C76.27865,17.8438692 76.27865,17.8438692 76.27865,17.8438692 C76.2331242,17.8438692 76.1875979,17.8438692 76.1420721,17.8438692 C76.1193095,17.8438692 76.1193095,17.8212534 76.0965463,17.8212534 C75.7323391,17.6855586 75.4136576,17.2558583 75.7551022,16.9166212 C76.0054943,16.6678474 76.4835167,16.6678474 76.8249608,16.6452316 C76.9843013,16.6452316 77.1436418,16.8035422 77.1436418,16.9844686 Z" id="Shape"></path>
                            <path d="M76.265306,17.8672419 C76.2166405,17.8672419 76.167975,17.8672419 76.1193095,17.8672419 C76.167975,17.8429231 76.2166405,17.8672419 76.265306,17.8672419 Z" id="Shape"></path>
                            <path d="M67.2189952,17.7986376 C66.9230769,18.0247956 66.536107,18.1604905 66.1491366,18.1378746 C66.1263735,18.1378746 66.1036108,18.1378746 66.058085,18.1378746 C65.8759814,18.092643 65.7621662,17.9117166 65.8076925,17.7307902 C65.8759814,17.3463215 66.1036108,17.0070845 66.4450549,16.7809264 C66.7409733,16.5773842 67.2872841,16.3964578 67.5832025,16.6904632 C67.5832025,16.6904632 67.6059656,16.713079 67.6059656,16.713079 C67.6059656,16.713079 67.6059656,16.713079 67.6059656,16.7356948 C67.6059656,16.7356948 67.6287283,16.7583106 67.6287283,16.7583106 C67.6514914,16.8035422 67.6742545,16.8713896 67.6742545,16.9166212 C67.742543,17.2784741 67.4921509,17.5950954 67.2189952,17.7986376 Z" id="Shape"></path>
                            <path d="M67.6302981,16.714782 C67.6302981,16.714782 67.6059656,16.6904632 67.6059656,16.6904632 C67.6059656,16.6904632 67.6059656,16.6904632 67.6059656,16.6904632 C67.6059656,16.6904632 67.6302981,16.714782 67.6302981,16.714782 Z" id="Shape"></path>
                            <path d="M67.7001569,16.9285422 C67.7001569,16.8799046 67.6758244,16.8069482 67.6514914,16.7583106 C67.7001569,16.8069482 67.7001569,16.8799046 67.7001569,16.9285422 Z" id="Shape"></path>
                        </g>
                    </g>
                </g>
            </g>
        </g>
    </g>
</svg>