<?xml version="1.0" encoding="UTF-8"?>
<svg width="764px" height="315px" viewBox="0 0 764 315" version="1.1" xmlns="http://www.w3.org/2000/svg" xmlns:xlink="http://www.w3.org/1999/xlink">
    <!-- Generator: Sketch 51.3 (57544) - http://www.bohemiancoding.com/sketch -->
    <title>Group 4</title>
    <desc>Created with Sketch.</desc>
    <defs></defs>
    <g id="Page-1" stroke="none" stroke-width="1" fill="none" fill-rule="evenodd">
        <g id="Desktop-Copy-9" transform="translate(-64.000000, -64.000000)">
            <g id="Group-4" transform="translate(64.000000, 64.000000)">
                <rect id="Rectangle" fill="#FFFFFF" fill-rule="nonzero" x="0" y="0" width="764" height="315"></rect>
                <g id="Group-3" transform="translate(42.000000, 40.000000)">
                    <g id="Group-2">
                        <g id="Group" transform="translate(0.000000, 53.000000)">
                            <path id="Line-2" d="M286.5,90.25 L272.5,83.25 L272.5,97.25 L286.5,90.25 Z M241.5,91.25 L273.5,91.25 L274.5,91.25 L274.5,89.25 L273.5,89.25 L241.5,89.25 L240.5,89.25 L240.5,91.25 L241.5,91.25 Z" fill="#E0BC02" fill-rule="nonzero"></path>
                            <path id="Line-2" d="M429.5,90.25 L415.5,83.25 L415.5,97.25 L429.5,90.25 Z M384.5,91.25 L416.5,91.25 L417.5,91.25 L417.5,89.25 L416.5,89.25 L384.5,89.25 L383.5,89.25 L383.5,91.25 L384.5,91.25 Z" fill="#EFCCBD" fill-rule="nonzero"></path>
                            <path id="Line-2" d="M572.5,92.25 L558.5,85.25 L558.5,99.25 L572.5,92.25 Z M527.5,93.25 L559.5,93.25 L560.5,93.25 L560.5,91.25 L559.5,91.25 L527.5,91.25 L526.5,91.25 L526.5,93.25 L527.5,93.25 Z" fill="#00414C" fill-rule="nonzero"></path>
                            <path id="Line-2" d="M142.5,91.5 L128.5,84.5 L128.5,98.5 L142.5,91.5 Z M97.5,92.5 L129.5,92.5 L130.5,92.5 L130.5,90.5 L129.5,90.5 L97.5,90.5 L96.5,90.5 L96.5,92.5 L97.5,92.5 Z" fill="#AA9087" fill-rule="nonzero"></path>
                            <rect id="Rectangle-22" fill="#AA9087" fill-rule="nonzero" x="0" y="38" width="107" height="107"></rect>
                            <text id="Empathise" font-family="Helvetica" font-size="18" font-weight="normal" fill="#000000">
                                <tspan x="11" y="99">Empathise</tspan>
                            </text>
                            <rect id="Rectangle-22" fill="#E0BC02" fill-rule="nonzero" x="143.25" y="38" width="107" height="107"></rect>
                            <text id="Define" font-family="Helvetica" font-size="18" font-weight="normal" fill="#000000">
                                <tspan x="170.25" y="99">Define</tspan>
                            </text>
                            <rect id="Rectangle-22" fill="#EFCCBD" fill-rule="nonzero" x="286.5" y="38" width="107" height="107"></rect>
                            <text id="Ideate" font-family="Helvetica" font-size="18" font-weight="normal" fill="#000000">
                                <tspan x="314.5" y="99">Ideate</tspan>
                            </text>
                            <rect id="Rectangle-22" fill="#00414C" fill-rule="nonzero" x="429.75" y="38" width="107" height="107"></rect>
                            <text id="Prototype" font-family="Helvetica" font-size="18" font-weight="normal" fill="#FFFFFF">
                                <tspan x="443.75" y="99">Prototype</tspan>
                            </text>
                            <rect id="Rectangle-22" fill="#000000" fill-rule="nonzero" x="573" y="38" width="107" height="107"></rect>
                            <text id="Test" font-family="Helvetica" font-size="18" font-weight="normal" fill="#FFFFFF">
                                <tspan x="610" y="99">Test</tspan>
                            </text>
                            <path id="Line-3" d="M197.592858,144.942326 L195.10404,160.395668 L208.462241,156.205385 L197.592858,144.942326 Z M631.620908,140.268617 C631.10676,145.311148 630.597841,148.93209 630.099889,151.11137 C626.712382,165.936745 618.367118,174.395788 604.94987,176.660449 C586.583857,179.760399 537.886677,180.350869 398.682275,180.286104 C389.648923,180.281901 385.50059,180.280148 380.410669,180.278631 C306.501996,180.256615 265.031237,180.455166 228.943484,181.200374 C212.066323,181.548885 209.642666,179.716559 204.909701,164.861418 C204.256039,162.809799 203.426001,160.185458 202.419639,156.988559 L202.119372,156.034704 L200.211662,156.635238 L200.511929,157.589093 C201.51893,160.788024 202.349631,163.414459 203.004085,165.468563 C207.999698,181.14807 211.199548,183.56721 228.984775,183.199947 C265.053757,182.455127 306.515576,182.256619 380.410074,182.278631 C385.499846,182.280147 389.648103,182.281901 398.681345,182.286104 C538.218204,182.351023 586.737786,181.762707 605.282736,178.632555 C619.52731,176.228252 628.487687,167.14571 632.049639,151.556876 C632.570326,149.278093 633.088732,145.589655 633.610592,140.47149 L633.712028,139.476648 L631.722344,139.273775 L631.620908,140.268617 Z" fill="#000000" fill-rule="nonzero"></path>
                            <path id="Line-3" d="M42.3218588,14.3692669 L39.8330412,29.8226092 L53.1912421,25.6323264 L42.3218588,14.3692669 Z M623.036231,0.830225948 C621.366617,10.9499195 620.276231,17.130297 619.773457,19.3306839 C617.546791,29.0756549 615.932119,34.2174431 613.378641,38.5503225 C610.275664,43.8156245 606.031176,46.8701164 599.798428,47.9221251 C582.490551,50.8434748 507.833912,51.226822 319.520084,50.4409721 C316.126461,50.4268102 312.895446,50.4132584 307.671069,50.3912977 C167.797577,49.8033368 114.803558,49.7779627 73.6724851,50.6273146 C56.7953243,50.975826 54.3716667,49.1434999 49.6387024,34.288359 C48.9850405,32.23674 48.155002,29.6123989 47.1486402,26.4154997 L46.8483732,25.4616446 L44.9406628,26.0621786 L45.2409299,27.0160338 C46.2479312,30.2149645 47.078632,32.8413998 47.7330855,34.8955035 C52.7286993,50.5750105 55.9285494,52.9941512 73.713776,52.6268883 C114.820097,51.7780476 167.813485,51.8034213 307.662662,52.39128 C312.887057,52.4132408 316.11809,52.4267927 319.511738,52.4409547 C508.305771,53.2288085 582.636468,52.847135 600.131294,49.8942305 C606.961726,48.7413404 611.706576,45.3267689 615.101688,39.5657583 C617.793331,34.9984322 619.451625,29.7177334 621.723206,19.7761896 C622.239072,17.5185131 623.331726,11.3252739 625.009554,1.15579776 L625.172339,0.169136348 L623.199017,-0.156435467 L623.036231,0.830225948 Z" fill="#AA9087" fill-rule="nonzero"></path>
                            <path id="Line-3" d="M335,144.572272 L330.90801,159.680403 L344.631311,156.910743 L335,144.572272 Z M489.02805,127.898564 C488.513902,132.941095 488.004983,136.562037 487.507031,138.741317 C487.108978,140.483389 486.774662,142.185551 486.241646,145.088389 C486.190873,145.364906 486.131522,145.688945 486.02115,146.291617 C485.931964,146.778267 485.864945,147.142632 485.798777,147.499995 C485.629117,148.416302 485.483402,149.186195 485.339362,149.922586 C483.747612,158.060285 482.039011,163.176696 479.099219,167.204445 C475.441081,172.216385 470.072516,174.830107 462.199868,174.830107 C442.839371,174.830107 442.839371,174.830107 425.882484,174.830107 C413.146168,174.830107 413.146168,174.830107 399.391361,174.830107 C382.071912,174.830107 382.071912,174.830107 360.371272,174.830107 C348.509923,174.830107 347.19204,174.781489 345.704032,174.141834 C345.036044,173.854684 344.657909,173.445913 344.197793,172.53489 C344.091042,172.323524 342.859725,169.52143 342.254065,168.339035 C341.005692,165.901908 339.758581,162.116576 338.528032,157.001882 L338.294115,156.029625 L336.349602,156.497458 L336.583518,157.469714 C337.84791,162.725072 339.139639,166.645833 340.474005,169.250838 C341.044397,170.364382 342.272649,173.159502 342.412562,173.436528 C343.067357,174.733012 343.762053,175.483992 344.914173,175.979257 C346.802942,176.791188 347.857901,176.830107 360.371272,176.830107 C382.071912,176.830107 382.071912,176.830107 399.391361,176.830107 C413.146168,176.830107 413.146168,176.830107 425.882484,176.830107 C442.839371,176.830107 442.839371,176.830107 462.199868,176.830107 C470.698947,176.830107 476.67229,173.921945 480.714682,168.383546 C483.873546,164.055651 485.658042,158.711974 487.302166,150.306515 C487.447656,149.562706 487.594562,148.786521 487.765351,147.864119 C487.831781,147.505341 487.898999,147.139891 487.988387,146.652145 C488.098828,146.049091 488.158081,145.725591 488.20876,145.449588 C488.736876,142.57343 489.066891,140.89317 489.456781,139.186823 C489.977469,136.908039 490.495874,133.219601 491.017734,128.101436 L491.119171,127.106594 L489.129487,126.903722 L489.02805,127.898564 Z" fill="#00414C" fill-rule="nonzero"></path>
                            <path id="Line-3" d="M42,23.5722723 L37.9080101,38.6804032 L51.6313107,35.9107428 L42,23.5722723 Z M196.02805,6.89856355 C195.513902,11.9410947 195.004983,15.5620368 194.507031,17.7413168 C194.108978,19.483389 193.774662,21.1855514 193.241646,24.0883889 C193.190873,24.3649057 193.131522,24.6889452 193.02115,25.2916167 C192.931964,25.7782668 192.864945,26.1426318 192.798777,26.4999954 C192.629117,27.4163016 192.483402,28.1861948 192.339362,28.9225863 C190.747612,37.0602852 189.039011,42.1766962 186.099219,46.2044447 C182.441081,51.2163849 177.072516,53.8301069 169.199868,53.8301069 C149.839371,53.8301069 149.839371,53.8301069 132.882484,53.8301069 C120.146168,53.8301069 120.146168,53.8301069 106.391361,53.8301069 C89.0719117,53.8301069 89.0719117,53.8301069 67.3712717,53.8301069 C55.5099228,53.8301069 54.1920398,53.7814889 52.7040317,53.1418342 C52.0360444,52.8546844 51.6579089,52.4459127 51.1977927,51.5348896 C51.0910416,51.3235241 49.8597253,48.5214301 49.2540654,47.3390352 C48.0056919,44.9019075 46.7585811,41.1165762 45.5280316,36.001882 L45.2941153,35.0296252 L43.3496018,35.4974577 L43.5835181,36.4697144 C44.8479099,41.7250719 46.1396392,45.6458328 47.4740049,48.2508381 C48.0443973,49.3643824 49.2726488,52.1595018 49.4125622,52.4365281 C50.0673571,53.7330122 50.7620532,54.4839918 51.9141729,54.9792571 C53.8029425,55.7911884 54.8579014,55.8301069 67.3712717,55.8301069 C89.0719117,55.8301069 89.0719117,55.8301069 106.391361,55.8301069 C120.146168,55.8301069 120.146168,55.8301069 132.882484,55.8301069 C149.839371,55.8301069 149.839371,55.8301069 169.199868,55.8301069 C177.698947,55.8301069 183.67229,52.9219445 187.714682,47.3835462 C190.873546,43.0556514 192.658042,37.7119738 194.302166,29.3065145 C194.447656,28.5627062 194.594562,27.786521 194.765351,26.8641191 C194.831781,26.5053407 194.898999,26.1398909 194.988387,25.6521448 C195.098828,25.0490912 195.158081,24.7255912 195.20876,24.4495878 C195.736876,21.5734296 196.066891,19.8931698 196.456781,18.1868225 C196.977469,15.908039 197.495874,12.2196014 198.017734,7.10143645 L198.119171,6.10659443 L196.129487,5.90372153 L196.02805,6.89856355 Z" fill="#AA9087" fill-rule="nonzero"></path>
                        </g>
                        <text id="Design-Thinking" font-family="Helvetica" font-size="36" font-weight="normal" fill="#000000">
                            <tspan x="211" y="35">Design Thinking</tspan>
                        </text>
                    </g>
                </g>
            </g>
        </g>
    </g>
</svg>