<?xml version="1.0" encoding="UTF-8"?>
<svg width="1659px" height="200px" viewBox="0 0 1659 200" version="1.1" xmlns="http://www.w3.org/2000/svg" xmlns:xlink="http://www.w3.org/1999/xlink">
    <!-- Generator: Sketch 50.2 (55047) - http://www.bohemiancoding.com/sketch -->
    <title>Group 13</title>
    <desc>Created with Sketch.</desc>
    <defs></defs>
    <g id="Page-1" stroke="none" stroke-width="1" fill="none" fill-rule="evenodd">
        <g id="Group-13">
            <rect id="Rectangle-2" fill="#417505" x="0" y="0" width="1659" height="200" rx="16"></rect>
            <g id="facebook" transform="translate(417.000000, 33.000000)" fill="#FFFFFF" fill-rule="nonzero">
                <path d="M111.625232,0 L22.3747681,0 C9.94434137,0 0,9.94434137 0,22.3747681 L0,111.625232 C0,124.055659 9.94434137,134 22.3747681,134 L67.1243043,134 L67.1243043,75.3283859 L50.2189239,75.3283859 L50.2189239,58.6716141 L67.1243043,58.6716141 L67.1243043,46.2411874 C67.1243043,34.5565863 76.5714286,25.3580705 88.0074212,25.3580705 L108.890538,25.3580705 L108.890538,42.0148423 L88.0074212,42.0148423 C85.7699443,42.0148423 83.7810761,44.0037106 83.7810761,46.2411874 L83.7810761,58.9202226 L106.90167,58.9202226 L102.675325,75.5769944 L83.7810761,75.5769944 L83.7810761,134 L111.625232,134 C124.055659,134 134,124.055659 134,111.625232 L134,22.3747681 C134,9.94434137 124.055659,0 111.625232,0 Z" id="Shape"></path>
            </g>
            <path d="M649.44,122.96 C652.320014,122.96 654.013331,123.173331 654.52,123.6 C655.026669,124.026669 655.28,125.466654 655.28,127.92 L655.28,130.08 L632,130.08 L632,72.48 L634,72.48 C636.880014,72.48 638.573331,72.679998 639.08,73.08 C639.586669,73.480002 639.84,74.9066544 639.84,77.36 L639.84,120.96 L639.12,122.96 L649.44,122.96 Z M659.68,108.8 L659.68,103.84 C659.68,100.533317 659.759999,98.3200056 659.92,97.2 C660.080001,96.0799944 660.266666,94.9733388 660.48,93.88 C660.693334,92.7866612 660.946665,91.9866692 661.24,91.48 C661.533335,90.9733308 661.906664,90.3733368 662.36,89.68 C662.813336,88.9866632 663.33333,88.506668 663.92,88.24 C664.50667,87.973332 665.199996,87.6800016 666,87.36 C667.33334,86.826664 669.279987,86.56 671.84,86.56 C674.400013,86.56 676.466659,86.8666636 678.04,87.48 C679.613341,88.0933364 680.839996,88.7866628 681.72,89.56 C682.600004,90.3333372 683.226665,91.8266556 683.6,94.04 C683.973335,96.2533444 684.2,98.2133248 684.28,99.92 C684.36,101.626675 684.4,103.946652 684.4,106.88 L684.4,112.88 C684.4,116.29335 684.320001,118.559994 684.16,119.68 C683.999999,120.800006 683.813334,121.919994 683.6,123.04 C683.386666,124.160006 683.133335,124.973331 682.84,125.48 C682.546665,125.986669 682.173336,126.599996 681.72,127.32 C681.266664,128.040004 680.733336,128.546665 680.12,128.84 C679.506664,129.133335 678.800004,129.439998 678,129.76 C676.719994,130.34667 675.013344,130.64 672.88,130.64 C670.746656,130.64 669.106672,130.560001 667.96,130.4 C666.813328,130.239999 665.800004,129.893336 664.92,129.36 C664.039996,128.826664 663.30667,128.320002 662.72,127.84 C662.13333,127.359998 661.640002,126.546672 661.24,125.4 C660.839998,124.253328 660.533334,123.280004 660.32,122.48 C660.106666,121.679996 659.973334,120.373342 659.92,118.56 C659.759999,115.519985 659.68,112.266684 659.68,108.8 Z M672,93.36 C669.599988,93.36 668.133336,94.3333236 667.6,96.28 C667.066664,98.2266764 666.8,101.586643 666.8,106.36 C666.8,111.133357 666.826666,114.22666 666.88,115.64 C666.933334,117.05334 667.119998,118.546659 667.44,120.12 C667.760002,121.693341 668.279996,122.706664 669,123.16 C669.720004,123.613336 670.719994,123.84 672,123.84 C674.400012,123.84 675.866664,122.826677 676.4,120.8 C676.933336,118.773323 677.2,115.360024 677.2,110.56 C677.2,105.759976 677.173334,102.666674 677.12,101.28 C677.066666,99.8933264 676.880002,98.4533408 676.56,96.96 C676.239998,95.4666592 675.720004,94.4933356 675,94.04 C674.279996,93.5866644 673.280006,93.36 672,93.36 Z M710.08,137.4 C710.66667,136.679996 710.96,135.61334 710.96,134.2 C710.96,132.78666 710.680003,131.840002 710.12,131.36 C709.559997,130.879998 708.32001,130.64 706.4,130.64 C699.039963,130.64 694.73334,130.280004 693.48,129.56 C692.22666,128.839996 691.6,126.320022 691.6,122 C691.6,119.066652 692.746655,116.64001 695.04,114.72 C693.813327,113.599994 692.933336,112.253341 692.4,110.68 C691.866664,109.106659 691.6,106.906681 691.6,104.08 C691.6,101.253319 691.613333,99.4133376 691.64,98.56 C691.666667,97.7066624 691.72,96.61334 691.8,95.28 C691.88,93.94666 692.026666,93.0000028 692.24,92.44 C692.453334,91.8799972 692.759998,91.1733376 693.16,90.32 C693.560002,89.4666624 694.05333,88.8800016 694.64,88.56 C695.22667,88.2399984 695.946662,87.8933352 696.8,87.52 C698.186674,86.8799968 700.58665,86.56 704,86.56 L718.48,86.56 C718.48,89.1200128 718.240002,90.8266624 717.76,91.68 C717.279998,92.5333376 716.320007,93.0133328 714.88,93.12 C715.840005,95.2000104 716.32,98.3466456 716.32,102.56 L716.32,106.16 C716.32,108.773346 716.213334,110.533329 716,111.44 C715.786666,112.346671 715.533335,113.253329 715.24,114.16 C714.946665,115.066671 714.600002,115.706665 714.2,116.08 C713.799998,116.453335 713.293336,116.906664 712.68,117.44 C712.066664,117.973336 711.360004,118.346666 710.56,118.56 C708.266655,119.040002 705.960012,119.28 703.64,119.28 C701.319988,119.28 699.86667,119.439998 699.28,119.76 C698.69333,120.080002 698.4,120.666662 698.4,121.52 C698.4,122.373338 698.533332,122.906666 698.8,123.12 C699.38667,123.600002 701.999977,123.84 706.64,123.84 C711.280023,123.84 714.293326,124.399994 715.68,125.52 C717.066674,126.640006 717.76,129.346645 717.76,133.64 C717.76,137.933355 716.973341,140.906658 715.4,142.56 C713.826659,144.213342 710.74669,145.04 706.16,145.04 L701.36,145.04 C698.799987,145.04 697.306669,144.786669 696.88,144.28 C696.453331,143.773331 696.24,142.026682 696.24,139.04 L706.08,138.48 C708.16001,138.48 709.49333,138.120004 710.08,137.4 Z M708.96,107.56 C709.013334,105.933325 709.04,104.280008 709.04,102.6 C709.04,100.919992 709.026667,99.7200036 709,99 C708.973333,98.2799964 708.880001,97.453338 708.72,96.52 C708.559999,95.586662 708.320002,94.9600016 708,94.64 C707.039995,93.7866624 705.533344,93.36 703.48,93.36 C701.426656,93.36 700.133336,93.959994 699.6,95.16 C699.066664,96.360006 698.8,98.8399812 698.8,102.6 C698.8,106.360019 699.106664,108.973326 699.72,110.44 C700.333336,111.906674 701.63999,112.64 703.64,112.64 C705.64001,112.64 707.01333,112.200004 707.76,111.32 C708.50667,110.439996 708.906666,109.186675 708.96,107.56 Z M744.16,137.4 C744.74667,136.679996 745.04,135.61334 745.04,134.2 C745.04,132.78666 744.760003,131.840002 744.2,131.36 C743.639997,130.879998 742.40001,130.64 740.48,130.64 C733.119963,130.64 728.81334,130.280004 727.56,129.56 C726.30666,128.839996 725.68,126.320022 725.68,122 C725.68,119.066652 726.826655,116.64001 729.12,114.72 C727.893327,113.599994 727.013336,112.253341 726.48,110.68 C725.946664,109.106659 725.68,106.906681 725.68,104.08 C725.68,101.253319 725.693333,99.4133376 725.72,98.56 C725.746667,97.7066624 725.8,96.61334 725.88,95.28 C725.96,93.94666 726.106666,93.0000028 726.32,92.44 C726.533334,91.8799972 726.839998,91.1733376 727.24,90.32 C727.640002,89.4666624 728.13333,88.8800016 728.72,88.56 C729.30667,88.2399984 730.026662,87.8933352 730.88,87.52 C732.266674,86.8799968 734.66665,86.56 738.08,86.56 L752.56,86.56 C752.56,89.1200128 752.320002,90.8266624 751.84,91.68 C751.359998,92.5333376 750.400007,93.0133328 748.96,93.12 C749.920005,95.2000104 750.4,98.3466456 750.4,102.56 L750.4,106.16 C750.4,108.773346 750.293334,110.533329 750.08,111.44 C749.866666,112.346671 749.613335,113.253329 749.32,114.16 C749.026665,115.066671 748.680002,115.706665 748.28,116.08 C747.879998,116.453335 747.373336,116.906664 746.76,117.44 C746.146664,117.973336 745.440004,118.346666 744.64,118.56 C742.346655,119.040002 740.040012,119.28 737.72,119.28 C735.399988,119.28 733.94667,119.439998 733.36,119.76 C732.77333,120.080002 732.48,120.666662 732.48,121.52 C732.48,122.373338 732.613332,122.906666 732.88,123.12 C733.46667,123.600002 736.079977,123.84 740.72,123.84 C745.360023,123.84 748.373326,124.399994 749.76,125.52 C751.146674,126.640006 751.84,129.346645 751.84,133.64 C751.84,137.933355 751.053341,140.906658 749.48,142.56 C747.906659,144.213342 744.82669,145.04 740.24,145.04 L735.44,145.04 C732.879987,145.04 731.386669,144.786669 730.96,144.28 C730.533331,143.773331 730.32,142.026682 730.32,139.04 L740.16,138.48 C742.24001,138.48 743.57333,138.120004 744.16,137.4 Z M743.04,107.56 C743.093334,105.933325 743.12,104.280008 743.12,102.6 C743.12,100.919992 743.106667,99.7200036 743.08,99 C743.053333,98.2799964 742.960001,97.453338 742.8,96.52 C742.639999,95.586662 742.400002,94.9600016 742.08,94.64 C741.119995,93.7866624 739.613344,93.36 737.56,93.36 C735.506656,93.36 734.213336,93.959994 733.68,95.16 C733.146664,96.360006 732.88,98.8399812 732.88,102.6 C732.88,106.360019 733.186664,108.973326 733.8,110.44 C734.413336,111.906674 735.71999,112.64 737.72,112.64 C739.72001,112.64 741.09333,112.200004 741.84,111.32 C742.58667,110.439996 742.986666,109.186675 743.04,107.56 Z M774.88,97.04 L774.96,94.88 C774.96,94.1333296 774.880001,93.7333336 774.72,93.68 C774.559999,93.6266664 774.373334,93.5066676 774.16,93.32 C773.946666,93.1333324 773.666668,93.0933328 773.32,93.2 C772.973332,93.3066672 772.560002,93.3333336 772.08,93.28 L767.76,93.84 C766.639994,94.0000008 765.680004,94.08 764.88,94.08 C764.079996,94.08 763.466669,93.8933352 763.04,93.52 C762.613331,93.1466648 762.186669,91.4400152 761.76,88.4 L771.04,86.56 C774.826686,86.56 777.199995,86.8399972 778.16,87.4 C779.120005,87.9600028 779.813331,88.4266648 780.24,88.8 C780.666669,89.1733352 780.959999,89.9199944 781.12,91.04 C781.386668,92.4266736 781.52,94.6133184 781.52,97.6 L781.52,130.08 C778.426651,130.08 776.480004,129.920002 775.68,129.6 C774.879996,129.279998 774.453334,128.506673 774.4,127.28 L767.76,130.64 C766.266659,130.64 765.160004,130.626667 764.44,130.6 C763.719996,130.573333 763.000004,130.346669 762.28,129.92 C761.559996,129.493331 761.080001,129.066669 760.84,128.64 C760.599999,128.213331 760.373334,127.306674 760.16,125.92 C759.893332,124.266658 759.76,120.880026 759.76,115.76 L759.76,110.24 C759.76,104.213303 765.013281,101.093334 775.52,100.88 L774.88,98.96 L774.88,97.04 Z M767.28,123.84 C767.333334,123.84 770.02664,122.826677 775.36,120.8 L774.56,118.48 L774.56,108.96 L775.2,107.12 C773.013322,107.173334 771.093342,107.386665 769.44,107.76 C767.786658,108.133335 766.96,108.639997 766.96,109.28 L766.88,119.84 C766.88,122.50668 767.013332,123.84 767.28,123.84 Z M806.16,81.56 C805.199995,80.5733284 804.72,79.4266732 804.72,78.12 C804.72,76.8133268 805.199995,75.7066712 806.16,74.8 C807.120005,73.8933288 808.239994,73.44 809.52,73.44 C810.800006,73.44 811.919995,73.8933288 812.88,74.8 C813.840005,75.7066712 814.32,76.8133268 814.32,78.12 C814.32,79.4266732 813.840005,80.5733284 812.88,81.56 C811.919995,82.5466716 810.800006,83.04 809.52,83.04 C808.239994,83.04 807.120005,82.5466716 806.16,81.56 Z M806,125.6 L806,87.12 C809.573351,87.12 811.65333,87.319998 812.24,87.72 C812.82667,88.120002 813.12,89.519988 813.12,91.92 L813.12,130.4 C809.546649,130.4 807.46667,130.200002 806.88,129.8 C806.29333,129.399998 806,128.000012 806,125.6 Z M840.72,108.72 L840.8,101.68 C840.8,99.546656 840.746667,97.946672 840.64,96.88 C840.426666,94.6399888 839.173345,93.4666672 836.88,93.36 L829.52,95.52 L830.24,97.76 L830.24,130.08 C826.666649,130.08 824.58667,129.880002 824,129.48 C823.41333,129.079998 823.12,127.680012 823.12,125.28 L823.12,87.12 C826.213349,87.12 828.159996,87.1999992 828.96,87.36 C829.760004,87.5200008 830.186666,87.999996 830.24,88.8 L836.16,86.56 C839.41335,86.56 841.546662,86.7733312 842.56,87.2 C843.573338,87.6266688 844.346664,87.9999984 844.88,88.32 C845.413336,88.6400016 845.893331,89.2933284 846.32,90.28 C846.746669,91.2666716 847.039999,92.1733292 847.2,93 C847.360001,93.8266708 847.519999,95.1466576 847.68,96.96 C847.840001,99.5733464 847.92,103.519974 847.92,108.8 L847.92,130.08 C844.346649,130.08 842.253336,129.880002 841.64,129.48 C841.026664,129.079998 840.72,127.680012 840.72,125.28 L840.72,108.72 Z M895.44,130.08 C891.866649,130.08 889.78667,129.880002 889.2,129.48 C888.61333,129.079998 888.32,127.680012 888.32,125.28 L888.24,105.68 L888.24,102.56 C888.24,101.333327 888.253333,100.400003 888.28,99.76 C888.306667,99.1199968 888.293334,98.3866708 888.24,97.56 C888.186666,96.7333292 888.093334,96.120002 887.96,95.72 C887.826666,95.319998 887.653334,94.9066688 887.44,94.48 C887.066665,93.7333296 886.266673,93.36 885.04,93.36 L877.92,95.44 L878.64,97.76 L878.64,130.08 C875.066649,130.08 872.98667,129.880002 872.4,129.48 C871.81333,129.079998 871.52,127.680012 871.52,125.28 L871.52,87.12 C874.453348,87.12 876.319996,87.1999992 877.12,87.36 C877.920004,87.5200008 878.399999,87.999996 878.56,88.8 L884.56,86.56 C886.906678,86.56 888.693327,86.759998 889.92,87.16 C891.146673,87.560002 892.239995,88.3199944 893.2,89.44 L900.56,86.56 C903.706682,86.56 905.826661,86.7866644 906.92,87.24 C908.013339,87.6933356 908.813331,88.0799984 909.32,88.4 C909.826669,88.7200016 910.279998,89.3866616 910.68,90.4 C911.080002,91.4133384 911.373332,92.319996 911.56,93.12 C911.746668,93.920004 911.893333,95.253324 912,97.12 C912.160001,99.8933472 912.24,103.786642 912.24,108.8 L912.24,130.08 C908.613315,130.08 906.50667,129.880002 905.92,129.48 C905.33333,129.079998 905.04,127.680012 905.04,125.28 L905.04,108.72 C905.04,101.359963 904.960001,97.2533376 904.8,96.4 C904.533332,94.8533256 903.786673,93.9200016 902.56,93.6 C902.133331,93.4933328 901.600003,93.4133336 900.96,93.36 L894.72,95.2 L895.44,97.44 L895.44,130.08 Z M932.32,123.84 C935.946685,123.84 939.626648,123.573336 943.36,123.04 L943.36,129.28 C938.399975,130.186671 934.88001,130.64 932.8,130.64 C930.71999,130.64 929.05334,130.493335 927.8,130.2 C926.54666,129.906665 925.466671,129.560002 924.56,129.16 C923.653329,128.759998 922.90667,128.080005 922.32,127.12 C921.73333,126.159995 921.280002,125.266671 920.96,124.44 C920.639998,123.613329 920.400001,122.346675 920.24,120.64 C920.026666,118.346655 919.92,115.90668 919.92,113.32 L919.92,102.64 C919.92,98.8533144 920.026666,96.493338 920.24,95.56 C920.453334,94.626662 920.693332,93.6133388 920.96,92.52 C921.226668,91.4266612 921.573331,90.6533356 922,90.2 C922.426669,89.7466644 922.946664,89.2133364 923.56,88.6 C924.173336,87.9866636 924.879996,87.5733344 925.68,87.36 C928.186679,86.826664 930.426657,86.56 932.4,86.56 C934.373343,86.56 936.06666,86.8666636 937.48,87.48 C938.89334,88.0933364 939.986663,88.8533288 940.76,89.76 C941.533337,90.6666712 942.133331,91.9466584 942.56,93.6 C943.253337,96.2133464 943.6,99.6266456 943.6,103.84 L943.84,109.28 L926.4,109.68 L927.04,111.52 C927.04,116.800026 927.293331,120.173326 927.8,121.64 C928.306669,123.106674 929.813321,123.84 932.32,123.84 Z M935.64,95 C935.133331,93.9066612 933.92001,93.36 932,93.36 C930.07999,93.36 928.840003,93.8399952 928.28,94.8 C927.719997,95.7600048 927.44,97.839984 927.44,101.04 L926.8,102.8 L937.28,102.8 L936.48,101.04 C936.426666,98.106652 936.146669,96.0933388 935.64,95 Z M950.16,108.72 C950.16,104.773314 950.2,101.920009 950.28,100.16 C950.36,98.3999912 950.599998,96.4133444 951,94.2 C951.400002,91.9866556 952.053329,90.4533376 952.96,89.6 C955.093344,87.5733232 958.373311,86.56 962.8,86.56 L967.28,88.16 L967.28,72.48 C970.853351,72.48 972.93333,72.679998 973.52,73.08 C974.10667,73.480002 974.4,74.9066544 974.4,77.36 L974.4,130.08 C971.199984,130.08 969.22667,129.946668 968.48,129.68 C967.73333,129.413332 967.333334,128.640006 967.28,127.36 L962.4,130.64 C958.186646,130.64 954.986678,129.653343 952.8,127.68 C951.359993,126.34666 950.506668,122.880028 950.24,117.28 C950.186666,115.519991 950.16,112.666686 950.16,108.72 Z M968.08,121.2 L967.28,118.64 L967.28,97.2 L968,94.96 L961.76,93.36 C959.733323,93.5200008 958.480002,94.6399896 958,96.72 C957.519998,98.8000104 957.28,102.933302 957.28,109.12 C957.28,115.306698 957.519998,119.199992 958,120.8 C958.58667,122.773343 959.866657,123.786666 961.84,123.84 L968.08,121.2 Z M1022.16,95.52 L1022.16,102.64 L1006,102.64 L1006.64,104.48 L1006.64,130.08 L1004.64,130.08 C1001.75999,130.08 1000.06667,129.880002 999.56,129.48 C999.053331,129.079998 998.8,127.653346 998.8,125.2 L998.8,72.48 L1023.12,72.48 L1023.12,79.28 L1005.92,79.28 L1006.64,81.28 L1006.64,93.52 L1005.92,95.52 L1022.16,95.52 Z M1044.24,97.04 L1044.32,94.88 C1044.32,94.1333296 1044.24,93.7333336 1044.08,93.68 C1043.92,93.6266664 1043.73333,93.5066676 1043.52,93.32 C1043.30667,93.1333324 1043.02667,93.0933328 1042.68,93.2 C1042.33333,93.3066672 1041.92,93.3333336 1041.44,93.28 L1037.12,93.84 C1035.99999,94.0000008 1035.04,94.08 1034.24,94.08 C1033.44,94.08 1032.82667,93.8933352 1032.4,93.52 C1031.97333,93.1466648 1031.54667,91.4400152 1031.12,88.4 L1040.4,86.56 C1044.18669,86.56 1046.56,86.8399972 1047.52,87.4 C1048.48,87.9600028 1049.17333,88.4266648 1049.6,88.8 C1050.02667,89.1733352 1050.32,89.9199944 1050.48,91.04 C1050.74667,92.4266736 1050.88,94.6133184 1050.88,97.6 L1050.88,130.08 C1047.78665,130.08 1045.84,129.920002 1045.04,129.6 C1044.24,129.279998 1043.81333,128.506673 1043.76,127.28 L1037.12,130.64 C1035.62666,130.64 1034.52,130.626667 1033.8,130.6 C1033.08,130.573333 1032.36,130.346669 1031.64,129.92 C1030.92,129.493331 1030.44,129.066669 1030.2,128.64 C1029.96,128.213331 1029.73333,127.306674 1029.52,125.92 C1029.25333,124.266658 1029.12,120.880026 1029.12,115.76 L1029.12,110.24 C1029.12,104.213303 1034.37328,101.093334 1044.88,100.88 L1044.24,98.96 L1044.24,97.04 Z M1036.64,123.84 C1036.69333,123.84 1039.38664,122.826677 1044.72,120.8 L1043.92,118.48 L1043.92,108.96 L1044.56,107.12 C1042.37332,107.173334 1040.45334,107.386665 1038.8,107.76 C1037.14666,108.133335 1036.32,108.639997 1036.32,109.28 L1036.24,119.84 C1036.24,122.50668 1036.37333,123.84 1036.64,123.84 Z M1065.2,108.4 C1065.2,111.760017 1065.22667,114.14666 1065.28,115.56 C1065.33333,116.97334 1065.50667,118.466659 1065.8,120.04 C1066.09333,121.613341 1066.57333,122.639998 1067.24,123.12 C1067.90667,123.600002 1068.78666,123.84 1069.88,123.84 C1070.97334,123.84 1071.98666,123.746668 1072.92,123.56 C1073.85334,123.373332 1074.87999,123.133335 1076,122.84 C1077.12001,122.546665 1078.05333,122.346667 1078.8,122.24 L1078.8,128.48 C1078.32,128.586667 1077.06668,128.97333 1075.04,129.64 C1073.01332,130.30667 1071.34667,130.64 1070.04,130.64 C1068.73333,130.64 1067.56001,130.546668 1066.52,130.36 C1065.47999,130.173332 1064.54667,129.960001 1063.72,129.72 C1062.89333,129.479999 1062.18667,129.02667 1061.6,128.36 C1061.01333,127.69333 1060.52,127.120002 1060.12,126.64 C1059.72,126.159998 1059.38667,125.333339 1059.12,124.16 C1058.85333,122.986661 1058.65333,122.02667 1058.52,121.28 C1058.38667,120.53333 1058.28,119.293342 1058.2,117.56 C1058.12,115.826658 1058.08,114.453338 1058.08,113.44 L1058.08,103.52 C1058.08,99.8933152 1058.18667,97.5066724 1058.4,96.36 C1058.61333,95.2133276 1058.85333,94.0533392 1059.12,92.88 C1059.38667,91.7066608 1059.72,90.8933356 1060.12,90.44 C1060.52,89.9866644 1061.01333,89.4400032 1061.6,88.8 C1062.18667,88.1599968 1062.90666,87.7333344 1063.76,87.52 C1065.84001,86.8799968 1067.94666,86.56 1070.08,86.56 L1079.12,88.48 C1078.69333,91.5200152 1078.26667,93.2266648 1077.84,93.6 C1077.41333,93.9733352 1076.8,94.16 1076,94.16 C1075.2,94.16 1074.24001,94.0800008 1073.12,93.92 L1070.08,93.36 C1068.85333,93.36 1067.90667,93.5733312 1067.24,94 C1066.57333,94.4266688 1066.09333,95.3999924 1065.8,96.92 C1065.50667,98.4400076 1065.33333,99.8933264 1065.28,101.28 C1065.22667,102.666674 1065.2,105.039983 1065.2,108.4 Z M1097.28,123.84 C1100.90668,123.84 1104.58665,123.573336 1108.32,123.04 L1108.32,129.28 C1103.35998,130.186671 1099.84001,130.64 1097.76,130.64 C1095.67999,130.64 1094.01334,130.493335 1092.76,130.2 C1091.50666,129.906665 1090.42667,129.560002 1089.52,129.16 C1088.61333,128.759998 1087.86667,128.080005 1087.28,127.12 C1086.69333,126.159995 1086.24,125.266671 1085.92,124.44 C1085.6,123.613329 1085.36,122.346675 1085.2,120.64 C1084.98667,118.346655 1084.88,115.90668 1084.88,113.32 L1084.88,102.64 C1084.88,98.8533144 1084.98667,96.493338 1085.2,95.56 C1085.41333,94.626662 1085.65333,93.6133388 1085.92,92.52 C1086.18667,91.4266612 1086.53333,90.6533356 1086.96,90.2 C1087.38667,89.7466644 1087.90666,89.2133364 1088.52,88.6 C1089.13334,87.9866636 1089.84,87.5733344 1090.64,87.36 C1093.14668,86.826664 1095.38666,86.56 1097.36,86.56 C1099.33334,86.56 1101.02666,86.8666636 1102.44,87.48 C1103.85334,88.0933364 1104.94666,88.8533288 1105.72,89.76 C1106.49334,90.6666712 1107.09333,91.9466584 1107.52,93.6 C1108.21334,96.2133464 1108.56,99.6266456 1108.56,103.84 L1108.8,109.28 L1091.36,109.68 L1092,111.52 C1092,116.800026 1092.25333,120.173326 1092.76,121.64 C1093.26667,123.106674 1094.77332,123.84 1097.28,123.84 Z M1100.6,95 C1100.09333,93.9066612 1098.88001,93.36 1096.96,93.36 C1095.03999,93.36 1093.8,93.8399952 1093.24,94.8 C1092.68,95.7600048 1092.4,97.839984 1092.4,101.04 L1091.76,102.8 L1102.24,102.8 L1101.44,101.04 C1101.38667,98.106652 1101.10667,96.0933388 1100.6,95 Z M1115.92,130.08 L1115.92,72 C1119.44002,72 1121.49333,72.199998 1122.08,72.6 C1122.66667,73.000002 1122.96,74.4266544 1122.96,76.88 L1122.96,88.16 L1127.6,86.56 C1131.01335,86.56 1133.29333,86.9066632 1134.44,87.6 C1135.58667,88.2933368 1136.46666,88.8799976 1137.08,89.36 C1137.69334,89.8400024 1138.2,90.6399944 1138.6,91.76 C1139,92.8800056 1139.30667,93.8666624 1139.52,94.72 C1139.73333,95.5733376 1139.89333,96.8799912 1140,98.64 C1140.16,101.253346 1140.24,104.573313 1140.24,108.6 C1140.24,112.626687 1140.2,115.506658 1140.12,117.24 C1140.04,118.973342 1139.81334,120.946656 1139.44,123.16 C1139.06666,125.373344 1138.45334,126.879996 1137.6,127.68 C1135.30666,129.653343 1132.05335,130.64 1127.84,130.64 L1122.96,127.36 C1122.90667,128.640006 1122.52,129.413332 1121.8,129.68 C1121.08,129.946668 1119.12002,130.08 1115.92,130.08 Z M1132.36,120.8 C1132.81334,118.826657 1133.04,114.920029 1133.04,109.08 C1133.04,103.239971 1132.8,99.2000112 1132.32,96.96 C1131.84,94.7199888 1130.58668,93.5200008 1128.56,93.36 L1122.24,94.88 L1122.96,97.12 L1122.96,118.56 L1122.24,121.04 L1128.48,123.84 C1130.61334,123.786666 1131.90666,122.773343 1132.36,120.8 Z M1147.44,108.8 L1147.44,103.84 C1147.44,100.533317 1147.52,98.3200056 1147.68,97.2 C1147.84,96.0799944 1148.02667,94.9733388 1148.24,93.88 C1148.45333,92.7866612 1148.70667,91.9866692 1149,91.48 C1149.29333,90.9733308 1149.66666,90.3733368 1150.12,89.68 C1150.57334,88.9866632 1151.09333,88.506668 1151.68,88.24 C1152.26667,87.973332 1152.96,87.6800016 1153.76,87.36 C1155.09334,86.826664 1157.03999,86.56 1159.6,86.56 C1162.16001,86.56 1164.22666,86.8666636 1165.8,87.48 C1167.37334,88.0933364 1168.6,88.7866628 1169.48,89.56 C1170.36,90.3333372 1170.98666,91.8266556 1171.36,94.04 C1171.73334,96.2533444 1171.96,98.2133248 1172.04,99.92 C1172.12,101.626675 1172.16,103.946652 1172.16,106.88 L1172.16,112.88 C1172.16,116.29335 1172.08,118.559994 1171.92,119.68 C1171.76,120.800006 1171.57333,121.919994 1171.36,123.04 C1171.14667,124.160006 1170.89333,124.973331 1170.6,125.48 C1170.30667,125.986669 1169.93334,126.599996 1169.48,127.32 C1169.02666,128.040004 1168.49334,128.546665 1167.88,128.84 C1167.26666,129.133335 1166.56,129.439998 1165.76,129.76 C1164.47999,130.34667 1162.77334,130.64 1160.64,130.64 C1158.50666,130.64 1156.86667,130.560001 1155.72,130.4 C1154.57333,130.239999 1153.56,129.893336 1152.68,129.36 C1151.8,128.826664 1151.06667,128.320002 1150.48,127.84 C1149.89333,127.359998 1149.4,126.546672 1149,125.4 C1148.6,124.253328 1148.29333,123.280004 1148.08,122.48 C1147.86667,121.679996 1147.73333,120.373342 1147.68,118.56 C1147.52,115.519985 1147.44,112.266684 1147.44,108.8 Z M1159.76,93.36 C1157.35999,93.36 1155.89334,94.3333236 1155.36,96.28 C1154.82666,98.2266764 1154.56,101.586643 1154.56,106.36 C1154.56,111.133357 1154.58667,114.22666 1154.64,115.64 C1154.69333,117.05334 1154.88,118.546659 1155.2,120.12 C1155.52,121.693341 1156.04,122.706664 1156.76,123.16 C1157.48,123.613336 1158.47999,123.84 1159.76,123.84 C1162.16001,123.84 1163.62666,122.826677 1164.16,120.8 C1164.69334,118.773323 1164.96,115.360024 1164.96,110.56 C1164.96,105.759976 1164.93333,102.666674 1164.88,101.28 C1164.82667,99.8933264 1164.64,98.4533408 1164.32,96.96 C1164,95.4666592 1163.48,94.4933356 1162.76,94.04 C1162.04,93.5866644 1161.04001,93.36 1159.76,93.36 Z M1179.36,108.8 L1179.36,103.84 C1179.36,100.533317 1179.44,98.3200056 1179.6,97.2 C1179.76,96.0799944 1179.94667,94.9733388 1180.16,93.88 C1180.37333,92.7866612 1180.62667,91.9866692 1180.92,91.48 C1181.21333,90.9733308 1181.58666,90.3733368 1182.04,89.68 C1182.49334,88.9866632 1183.01333,88.506668 1183.6,88.24 C1184.18667,87.973332 1184.88,87.6800016 1185.68,87.36 C1187.01334,86.826664 1188.95999,86.56 1191.52,86.56 C1194.08001,86.56 1196.14666,86.8666636 1197.72,87.48 C1199.29334,88.0933364 1200.52,88.7866628 1201.4,89.56 C1202.28,90.3333372 1202.90666,91.8266556 1203.28,94.04 C1203.65334,96.2533444 1203.88,98.2133248 1203.96,99.92 C1204.04,101.626675 1204.08,103.946652 1204.08,106.88 L1204.08,112.88 C1204.08,116.29335 1204,118.559994 1203.84,119.68 C1203.68,120.800006 1203.49333,121.919994 1203.28,123.04 C1203.06667,124.160006 1202.81333,124.973331 1202.52,125.48 C1202.22667,125.986669 1201.85334,126.599996 1201.4,127.32 C1200.94666,128.040004 1200.41334,128.546665 1199.8,128.84 C1199.18666,129.133335 1198.48,129.439998 1197.68,129.76 C1196.39999,130.34667 1194.69334,130.64 1192.56,130.64 C1190.42666,130.64 1188.78667,130.560001 1187.64,130.4 C1186.49333,130.239999 1185.48,129.893336 1184.6,129.36 C1183.72,128.826664 1182.98667,128.320002 1182.4,127.84 C1181.81333,127.359998 1181.32,126.546672 1180.92,125.4 C1180.52,124.253328 1180.21333,123.280004 1180,122.48 C1179.78667,121.679996 1179.65333,120.373342 1179.6,118.56 C1179.44,115.519985 1179.36,112.266684 1179.36,108.8 Z M1191.68,93.36 C1189.27999,93.36 1187.81334,94.3333236 1187.28,96.28 C1186.74666,98.2266764 1186.48,101.586643 1186.48,106.36 C1186.48,111.133357 1186.50667,114.22666 1186.56,115.64 C1186.61333,117.05334 1186.8,118.546659 1187.12,120.12 C1187.44,121.693341 1187.96,122.706664 1188.68,123.16 C1189.4,123.613336 1190.39999,123.84 1191.68,123.84 C1194.08001,123.84 1195.54666,122.826677 1196.08,120.8 C1196.61334,118.773323 1196.88,115.360024 1196.88,110.56 C1196.88,105.759976 1196.85333,102.666674 1196.8,101.28 C1196.74667,99.8933264 1196.56,98.4533408 1196.24,96.96 C1195.92,95.4666592 1195.4,94.4933356 1194.68,94.04 C1193.96,93.5866644 1192.96001,93.36 1191.68,93.36 Z M1219.6,130.08 L1218.48,130.08 C1215.49332,130.08 1213.74667,129.880002 1213.24,129.48 C1212.73333,129.079998 1212.48,127.680012 1212.48,125.28 L1212.48,72.48 C1216.05335,72.48 1218.13333,72.679998 1218.72,73.08 C1219.30667,73.480002 1219.6,74.9066544 1219.6,77.36 L1219.6,130.08 Z M1228.48,106.8 L1241.28,130.08 L1233.04,130.08 L1220.8,106.8 L1232.08,87.12 L1239.92,87.12 L1228.48,106.8 Z" id="Logga-in-med-Faceboo" fill="#FFFFFF"></path>
        </g>
    </g>
</svg>