<?xml version="1.0" encoding="UTF-8"?>
<svg width="109px" height="14px" viewBox="0 0 109 14" version="1.1" xmlns="http://www.w3.org/2000/svg" xmlns:xlink="http://www.w3.org/1999/xlink">
    <!-- Generator: Sketch 50.2 (55047) - http://www.bohemiancoding.com/sketch -->
    <title>Group 17</title>
    <desc>Created with Sketch.</desc>
    <defs></defs>
    <g id="Page-1" stroke="none" stroke-width="1" fill="none" fill-rule="evenodd">
        <g id="Group-17">
            <rect id="Rectangle-2" fill="#417505" x="0" y="0.736738703" width="109" height="13.1119843" rx="2"></rect>
            <path d="M35.1194567,2.68958743 L29.1625945,2.68958743 C28.332948,2.68958743 27.6692308,3.3520964 27.6692308,4.18023262 L27.6692308,10.1262507 C27.6692308,10.9543869 28.332948,11.6168959 29.1625945,11.6168959 L32.1493221,11.6168959 L32.1493221,7.70809292 L31.0210028,7.70809292 L31.0210028,6.59839038 L32.1493221,6.59839038 L32.1493221,5.77025416 C32.1493221,4.99180612 32.7798535,4.37898531 33.5431283,4.37898531 L34.9369345,4.37898531 L34.9369345,5.48868785 L33.5431283,5.48868785 C33.3937919,5.48868785 33.2610485,5.62118964 33.2610485,5.77025416 L33.2610485,6.61495311 L34.804191,6.61495311 L34.5221112,7.72465564 L33.2610485,7.72465564 L33.2610485,11.6168959 L35.1194567,11.6168959 C35.9491033,11.6168959 36.6128205,10.9543869 36.6128205,10.1262507 L36.6128205,4.18023262 C36.6128205,3.3520964 35.9491033,2.68958743 35.1194567,2.68958743 Z" id="Shape" fill="#FFFFFF" fill-rule="nonzero"></path>
            <path d="M42.7955936,8.50932718 C42.9858337,8.50932718 43.0976862,8.5231792 43.1311544,8.55088366 C43.1646226,8.57858811 43.1813564,8.67208924 43.1813564,8.83138986 L43.1813564,8.97164296 L41.6435897,8.97164296 L41.6435897,5.23156028 L41.7757003,5.23156028 C41.9659404,5.23156028 42.0777929,5.24454655 42.111261,5.27051948 C42.1447292,5.2964924 42.161463,5.38912778 42.161463,5.5484284 L42.161463,8.3794632 L42.1139033,8.50932718 L42.7955936,8.50932718 Z M43.4719996,7.58989019 L43.4719996,7.26782752 C43.4719996,7.05311799 43.4772839,6.90940329 43.4878528,6.8366791 C43.4984217,6.7639549 43.5107519,6.69209755 43.5248438,6.62110489 C43.5389356,6.55011222 43.5556695,6.49816715 43.5750458,6.46526811 C43.5944221,6.43236907 43.6190825,6.39341026 43.6490277,6.34839053 C43.6789729,6.30337079 43.7133213,6.27220374 43.7520739,6.25488846 C43.7908265,6.23757317 43.8366244,6.21852665 43.8894689,6.19774831 C43.977543,6.16311774 44.1061293,6.14580271 44.2752316,6.14580271 C44.444334,6.14580271 44.5808468,6.16571499 44.6847743,6.20554015 C44.7887018,6.2453653 44.8697288,6.29038436 44.9278577,6.34059869 C44.9859866,6.39081301 45.0273808,6.48777715 45.0520416,6.63149401 C45.0767023,6.77521086 45.0916747,6.90247629 45.0969592,7.01329411 C45.1022436,7.12411193 45.1048858,7.27475264 45.1048858,7.46522077 L45.1048858,7.85481271 C45.1048858,8.07644835 45.0996014,8.22362606 45.0890325,8.29635025 C45.0784636,8.36907445 45.0661334,8.44179755 45.0520416,8.51452174 C45.0379497,8.58724593 45.0212159,8.64005676 45.0018396,8.6729558 C44.9824633,8.70585484 44.9578029,8.74567939 44.9278577,8.79243066 C44.8979125,8.83918193 44.8626834,8.87208048 44.8221693,8.89112729 C44.7816552,8.9101741 44.7349766,8.93008638 44.6821321,8.95086472 C44.5975809,8.98895834 44.4848477,9.00800487 44.3439291,9.00800487 C44.2030105,9.00800487 44.0946809,9.00281036 44.0189372,8.99242119 C43.9431934,8.98203202 43.8762581,8.95952249 43.8181292,8.92489192 C43.7600002,8.89026136 43.7115602,8.85736281 43.6728076,8.8261953 C43.634055,8.79502779 43.601468,8.74221696 43.5750458,8.66776124 C43.5486235,8.59330552 43.5283668,8.53010568 43.5142749,8.47815983 C43.5001831,8.42621397 43.4913758,8.34137035 43.4878528,8.22362642 C43.4772839,8.02623218 43.4719996,7.81498889 43.4719996,7.58989019 Z M44.2858005,6.58734025 C44.127267,6.58734025 44.0303869,6.65054009 43.9951573,6.77694167 C43.9599276,6.90334324 43.9423131,7.12151255 43.9423131,7.43145613 C43.9423131,7.74139972 43.9440745,7.942254 43.9475975,8.03402501 C43.9511205,8.12579601 43.9634507,8.22276015 43.9845885,8.32492033 C44.0057262,8.4270805 44.0400746,8.4928776 44.0876347,8.52231358 C44.1351947,8.55174956 44.2012493,8.56646733 44.2858005,8.56646733 C44.4443339,8.56646733 44.541214,8.50067024 44.5764437,8.36907408 C44.6116733,8.23747792 44.6292879,8.01584561 44.6292879,7.7041705 C44.6292879,7.39249538 44.6275264,7.1916411 44.6240034,7.10160162 C44.6204805,7.01156214 44.6081503,6.91806101 44.5870125,6.82109542 C44.5658747,6.72412983 44.5315263,6.66092999 44.4839663,6.63149401 C44.4364062,6.60205802 44.3703516,6.58734025 44.2858005,6.58734025 Z M46.8011851,9.44694513 C46.8399377,9.40019386 46.8593137,9.33093377 46.8593137,9.23916276 C46.8593137,9.14739175 46.8408184,9.08592342 46.8038273,9.05475591 C46.7668362,9.02358839 46.6849285,9.00800487 46.5581017,9.00800487 C46.0719325,9.00800487 45.7874573,8.98462959 45.7046676,8.93787832 C45.621878,8.89112705 45.5804837,8.72750007 45.5804837,8.44699247 C45.5804837,8.25652435 45.6562263,8.09895762 45.8077139,7.97428758 C45.7266857,7.90156338 45.6685576,7.81412251 45.6333279,7.71196233 C45.5980983,7.60980216 45.5804837,7.46695321 45.5804837,7.28341119 C45.5804837,7.09986918 45.5813645,6.98039551 45.5831259,6.9249866 C45.5848874,6.8695777 45.5884103,6.7985861 45.5936948,6.71200967 C45.5989792,6.62543325 45.6086672,6.56396492 45.6227591,6.52760282 C45.636851,6.49124072 45.6571077,6.44535591 45.68353,6.389947 C45.7099522,6.33453809 45.7425391,6.29644504 45.7812917,6.2756667 C45.8200444,6.25488836 45.8676037,6.23237882 45.9239711,6.20813743 C46.0155682,6.16658074 46.1740993,6.14580271 46.3995691,6.14580271 L47.3560493,6.14580271 C47.3560493,6.31202944 47.3401962,6.4228456 47.3084895,6.47825451 C47.2767829,6.53366342 47.2133704,6.56483046 47.1182504,6.57175657 C47.1816638,6.70681579 47.21337,6.91113308 47.21337,7.18471457 L47.21337,7.41846974 C47.21337,7.58815952 47.2063241,7.70243868 47.1922323,7.76131065 C47.1781404,7.82018261 47.1614066,7.8790537 47.1420303,7.93792566 C47.122654,7.99679763 47.099755,8.03835369 47.0733328,8.06259508 C47.0469106,8.08683648 47.0134429,8.11627202 46.9729288,8.15090259 C46.9324147,8.18553316 46.8857361,8.20977419 46.8328916,8.22362642 C46.6814041,8.25479393 46.5290382,8.27037746 46.3757892,8.27037746 C46.2225402,8.27037746 46.1265408,8.28076647 46.0877882,8.30154481 C46.0490356,8.32232315 46.0296596,8.36041621 46.0296596,8.41582512 C46.0296596,8.47123402 46.0384668,8.50586407 46.0560817,8.5197163 C46.0948343,8.55088381 46.267457,8.56646733 46.573955,8.56646733 C46.8804529,8.56646733 47.0794975,8.60282889 47.1710946,8.67555308 C47.2626917,8.74827727 47.3084895,8.92402477 47.3084895,9.20280084 C47.3084895,9.48157692 47.2565266,9.67463944 47.1525991,9.7819942 C47.0486716,9.88934896 46.8452234,9.94302554 46.5422484,9.94302554 L46.2251832,9.94302554 C46.0560808,9.94302554 45.9574393,9.92657627 45.9292555,9.89367723 C45.9010718,9.86077819 45.8869802,9.74736478 45.8869802,9.5534336 L46.536964,9.51707168 C46.6743597,9.51707168 46.7624325,9.4936964 46.8011851,9.44694513 Z M46.7272032,7.50937452 C46.7307262,7.40375129 46.7324876,7.29639814 46.7324876,7.18731185 C46.7324876,7.07822556 46.7316069,7.00030795 46.7298454,6.95355668 C46.7280839,6.90680541 46.7219188,6.85312884 46.7113499,6.79252534 C46.700781,6.73192185 46.6849279,6.69123154 46.6637901,6.6704532 C46.6003768,6.61504429 46.5008545,6.58734025 46.3652203,6.58734025 C46.2295862,6.58734025 46.1441555,6.62629906 46.1089259,6.70421784 C46.0736962,6.78213661 46.0560817,6.94316634 46.0560817,7.18731185 C46.0560817,7.43145735 46.0763384,7.60114459 46.1168525,7.69637866 C46.1573666,7.79161272 46.243678,7.83922904 46.3757892,7.83922904 C46.5079004,7.83922904 46.5986154,7.81065925 46.6479369,7.75351881 C46.6972584,7.69637837 46.7236802,7.61499776 46.7272032,7.50937452 Z M49.0523486,9.44694513 C49.0911012,9.40019386 49.1104773,9.33093377 49.1104773,9.23916276 C49.1104773,9.14739175 49.091982,9.08592342 49.0549908,9.05475591 C49.0179997,9.02358839 48.936092,9.00800487 48.8092652,9.00800487 C48.323096,9.00800487 48.0386209,8.98462959 47.9558312,8.93787832 C47.8730415,8.89112705 47.8316473,8.72750007 47.8316473,8.44699247 C47.8316473,8.25652435 47.9073899,8.09895762 48.0588774,7.97428758 C47.9778492,7.90156338 47.9197211,7.81412251 47.8844915,7.71196233 C47.8492618,7.60980216 47.8316473,7.46695321 47.8316473,7.28341119 C47.8316473,7.09986918 47.832528,6.98039551 47.8342895,6.9249866 C47.836051,6.8695777 47.8395739,6.7985861 47.8448583,6.71200967 C47.8501428,6.62543325 47.8598308,6.56396492 47.8739226,6.52760282 C47.8880145,6.49124072 47.9082713,6.44535591 47.9346935,6.389947 C47.9611157,6.33453809 47.9937027,6.29644504 48.0324553,6.2756667 C48.0712079,6.25488836 48.1187672,6.23237882 48.1751347,6.20813743 C48.2667318,6.16658074 48.4252628,6.14580271 48.6507326,6.14580271 L49.6072129,6.14580271 C49.6072129,6.31202944 49.5913598,6.4228456 49.5596531,6.47825451 C49.5279464,6.53366342 49.464534,6.56483046 49.3694139,6.57175657 C49.4328273,6.70681579 49.4645335,6.91113308 49.4645335,7.18471457 L49.4645335,7.41846974 C49.4645335,7.58815952 49.4574877,7.70243868 49.4433958,7.76131065 C49.429304,7.82018261 49.4125701,7.8790537 49.3931938,7.93792566 C49.3738175,7.99679763 49.3509186,8.03835369 49.3244963,8.06259508 C49.2980741,8.08683648 49.2646064,8.11627202 49.2240923,8.15090259 C49.1835782,8.18553316 49.1368996,8.20977419 49.0840552,8.22362642 C48.9325677,8.25479393 48.7802017,8.27037746 48.6269527,8.27037746 C48.4737037,8.27037746 48.3777044,8.28076647 48.3389517,8.30154481 C48.3001991,8.32232315 48.2808231,8.36041621 48.2808231,8.41582512 C48.2808231,8.47123402 48.2896304,8.50586407 48.3072452,8.5197163 C48.3459978,8.55088381 48.5186205,8.56646733 48.8251185,8.56646733 C49.1316165,8.56646733 49.330661,8.60282889 49.4222581,8.67555308 C49.5138552,8.74827727 49.5596531,8.92402477 49.5596531,9.20280084 C49.5596531,9.48157692 49.5076901,9.67463944 49.4037627,9.7819942 C49.2998352,9.88934896 49.096387,9.94302554 48.793412,9.94302554 L48.4763467,9.94302554 C48.3072444,9.94302554 48.2086028,9.92657627 48.1804191,9.89367723 C48.1522354,9.86077819 48.1381437,9.74736478 48.1381437,9.5534336 L48.7881276,9.51707168 C48.9255232,9.51707168 49.013596,9.4936964 49.0523486,9.44694513 Z M48.9783667,7.50937452 C48.9818897,7.40375129 48.9836512,7.29639814 48.9836512,7.18731185 C48.9836512,7.07822556 48.9827704,7.00030795 48.9810089,6.95355668 C48.9792475,6.90680541 48.9730824,6.85312884 48.9625135,6.79252534 C48.9519446,6.73192185 48.9360915,6.69123154 48.9149537,6.6704532 C48.8515403,6.61504429 48.752018,6.58734025 48.6163839,6.58734025 C48.4807497,6.58734025 48.3953191,6.62629906 48.3600894,6.70421784 C48.3248598,6.78213661 48.3072452,6.94316634 48.3072452,7.18731185 C48.3072452,7.43145735 48.327502,7.60114459 48.3680161,7.69637866 C48.4085302,7.79161272 48.4948415,7.83922904 48.6269527,7.83922904 C48.7590639,7.83922904 48.8497789,7.81065925 48.8991004,7.75351881 C48.9484219,7.69637837 48.9748438,7.61499776 48.9783667,7.50937452 Z M51.0815665,6.82628998 L51.0868509,6.68603688 C51.0868509,6.63755408 51.0815665,6.61158155 51.0709976,6.60811849 C51.0604287,6.60465543 51.0480985,6.59686367 51.0340067,6.58474297 C51.0199148,6.57262227 51.0014195,6.57002502 50.9785203,6.57695113 C50.955621,6.58387725 50.9283184,6.58560875 50.8966117,6.58214569 L50.611253,6.61850761 C50.5372707,6.62889678 50.4738583,6.63409129 50.4210138,6.63409129 C50.3681693,6.63409129 50.3276558,6.62197077 50.2994721,6.59772937 C50.2712884,6.57348797 50.2431051,6.46267182 50.2149214,6.26527758 L50.8279142,6.14580271 C51.0780448,6.14580271 51.2348144,6.16398349 51.2982278,6.20034559 C51.3616411,6.23670768 51.407439,6.26700898 51.4356227,6.29125037 C51.4638064,6.31549177 51.4831825,6.36397384 51.4937513,6.43669803 C51.5113662,6.52673751 51.5201735,6.66872071 51.5201735,6.86265189 L51.5201735,8.97164296 C51.3158415,8.97164296 51.1872552,8.96125394 51.1344107,8.9404756 C51.0815662,8.91969726 51.0533829,8.86948369 51.0498599,8.78983338 L50.611253,9.00800487 C50.5126099,9.00800487 50.4395095,9.00713912 50.3919495,9.00540759 C50.3443894,9.00367606 50.2968301,8.98895829 50.2492701,8.96125384 C50.2017101,8.93354938 50.1700039,8.90584534 50.1541505,8.87814089 C50.1382972,8.85043644 50.1233248,8.79156535 50.1092329,8.70152587 C50.0916181,8.59417111 50.0828108,8.3742703 50.0828108,8.04181685 L50.0828108,7.68339226 C50.0828108,7.29206684 50.4298177,7.08948105 51.1238418,7.07562882 L51.0815665,6.9509594 L51.0815665,6.82628998 Z M50.5795464,8.56646733 C50.5830694,8.56646733 50.7609765,8.50067024 51.113273,8.36907408 L51.0604288,8.21843186 L51.0604288,7.60027931 L51.1027042,7.48080445 C50.9582626,7.4842675 50.8314377,7.49811952 50.7222258,7.52236092 C50.6130139,7.54660232 50.5584087,7.57950086 50.5584087,7.62105755 L50.5531243,8.30673937 C50.5531243,8.47989221 50.5619316,8.56646733 50.5795464,8.56646733 Z M53.1477753,5.82114276 C53.0843619,5.75707621 53.0526557,5.6826216 53.0526557,5.59777671 C53.0526557,5.51293182 53.0843619,5.44107447 53.1477753,5.3822025 C53.2111886,5.32333054 53.2851698,5.29389499 53.369721,5.29389499 C53.4542721,5.29389499 53.5282533,5.32333054 53.5916667,5.3822025 C53.65508,5.44107447 53.6867863,5.51293182 53.6867863,5.59777671 C53.6867863,5.6826216 53.65508,5.75707621 53.5916667,5.82114276 C53.5282533,5.88520931 53.4542721,5.91724211 53.369721,5.91724211 C53.2851698,5.91724211 53.2111886,5.88520931 53.1477753,5.82114276 Z M53.1372064,8.68074764 L53.1372064,6.18216463 C53.3732451,6.18216463 53.5106387,6.1951509 53.5493913,6.22112382 C53.5881439,6.24709675 53.6075199,6.33800063 53.6075199,6.49383819 L53.6075199,8.99242119 C53.3714813,8.99242119 53.2340877,8.97943493 53.1953351,8.953462 C53.1565824,8.92748907 53.1372064,8.8365852 53.1372064,8.68074764 Z M55.4306453,7.58469563 L55.4359298,7.12757442 C55.4359298,6.98905214 55.4324068,6.885162 55.4253609,6.81590086 C55.4112691,6.67045247 55.3284806,6.59426637 55.1769931,6.58734025 L54.6908263,6.72759335 L54.7383861,6.87304101 L54.7383861,8.97164296 C54.5023475,8.97164296 54.3649539,8.95865669 54.3262012,8.93268376 C54.2874486,8.90671084 54.2680726,8.81580696 54.2680726,8.6599694 L54.2680726,6.18216463 C54.4724046,6.18216463 54.6009909,6.18735914 54.6538354,6.19774831 C54.7066799,6.20813748 54.7348632,6.23930452 54.7383861,6.29125037 L55.1294333,6.14580271 C55.3443342,6.14580271 55.4852507,6.15965473 55.552187,6.18735919 C55.6191234,6.21506364 55.6702056,6.23930468 55.7054353,6.26008302 C55.7406649,6.28086136 55.7723711,6.32328317 55.8005548,6.38734972 C55.8287386,6.45141627 55.8481146,6.51028735 55.8586835,6.56396474 C55.8692524,6.61764212 55.8798211,6.70335149 55.89039,6.82109542 C55.9009589,6.9907852 55.9062433,7.24704757 55.9062433,7.58989019 L55.9062433,8.97164296 C55.6702046,8.97164296 55.5319303,8.95865669 55.4914162,8.93268376 C55.4509021,8.90671084 55.4306453,8.81580696 55.4306453,8.6599694 L55.4306453,7.58469563 Z M59.0451896,8.97164296 C58.8091509,8.97164296 58.6717574,8.95865669 58.6330047,8.93268376 C58.5942521,8.90671084 58.5748761,8.81580696 58.5748761,8.6599694 L58.5695917,7.38730238 L58.5695917,7.18471457 C58.5695917,7.10506426 58.5704724,7.04446168 58.5722339,7.00290499 C58.5739954,6.96134831 58.5731146,6.91373199 58.5695917,6.86005461 C58.5660687,6.80637723 58.5599036,6.76655268 58.5510962,6.74057975 C58.5422888,6.71460682 58.5308393,6.68776854 58.5167475,6.66006408 C58.4920867,6.61158129 58.439243,6.58734025 58.3582148,6.58734025 L57.8879013,6.72239879 L57.9354611,6.87304101 L57.9354611,8.97164296 C57.6994224,8.97164296 57.5620289,8.95865669 57.5232762,8.93268376 C57.4845236,8.90671084 57.4651476,8.81580696 57.4651476,8.6599694 L57.4651476,6.18216463 C57.6589107,6.18216463 57.7822126,6.18735914 57.8350571,6.19774831 C57.8879016,6.20813748 57.9196078,6.23930452 57.9301767,6.29125037 L58.3265083,6.14580271 C58.4815188,6.14580271 58.5995363,6.15878898 58.6805645,6.18476191 C58.7615927,6.21073484 58.8338124,6.26008265 58.8972258,6.33280685 L59.3833926,6.14580271 C59.5912475,6.14580271 59.7312833,6.16052049 59.8035041,6.18995647 C59.8757249,6.21939245 59.9285686,6.24449924 59.9620367,6.26527758 C59.9955049,6.28605592 60.0254497,6.32934348 60.0518719,6.39514156 C60.0782941,6.46093964 60.0976702,6.51981072 60.1100005,6.57175657 C60.1223309,6.62370243 60.1320189,6.71027755 60.1390649,6.83148454 C60.1496338,7.01156349 60.1549181,7.26436285 60.1549181,7.58989019 L60.1549181,8.97164296 C59.9153565,8.97164296 59.7762014,8.95865669 59.7374488,8.93268376 C59.6986962,8.90671084 59.6793202,8.81580696 59.6793202,8.6599694 L59.6793202,7.58469563 C59.6793202,7.10679379 59.6740358,6.84014241 59.6634669,6.7847335 C59.6458521,6.68430486 59.5965313,6.62370227 59.5155031,6.60292393 C59.4873194,6.59599782 59.4520903,6.59080331 59.4098147,6.58734025 L58.9976298,6.70681512 L59.0451896,6.85226277 L59.0451896,8.97164296 Z M61.4813079,8.56646733 C61.7208695,8.56646733 61.9639505,8.54915231 62.2105581,8.51452174 L62.2105581,8.91969736 C61.8829223,8.97856933 61.6504101,9.00800487 61.5130144,9.00800487 C61.3756188,9.00800487 61.2655278,8.99848161 61.1827381,8.9794348 C61.0999484,8.96038798 61.0286094,8.93787845 60.968719,8.91190553 C60.9088286,8.8859326 60.8595078,8.84177929 60.8207552,8.77944426 C60.7820026,8.71710924 60.7520579,8.65910391 60.7309201,8.60542653 C60.7097823,8.55174915 60.6939292,8.46950278 60.6833603,8.35868496 C60.6692684,8.20977352 60.6622226,8.05134105 60.6622226,7.88338279 L60.6622226,7.18990913 C60.6622226,6.94403209 60.6692684,6.79079413 60.6833603,6.73019063 C60.6974521,6.66958714 60.7133052,6.60379004 60.7309201,6.53279738 C60.7485349,6.46180471 60.7714338,6.41159114 60.7996175,6.38215516 C60.8278013,6.35271918 60.8621497,6.31808913 60.9026638,6.27826398 C60.9431779,6.23843882 60.9898564,6.21160053 61.0427009,6.19774831 C61.2082803,6.16311774 61.3562426,6.14580271 61.4865923,6.14580271 C61.616942,6.14580271 61.7287945,6.16571499 61.8221531,6.20554015 C61.9155117,6.2453653 61.9877314,6.29471312 62.0388144,6.35358509 C62.0898974,6.41245705 62.1295301,6.49556917 62.1577139,6.60292393 C62.2035124,6.77261371 62.2264113,6.99424603 62.2264113,7.26782752 L62.2422646,7.62105755 L61.0902607,7.64703034 L61.1325361,7.76650521 C61.1325361,8.10934783 61.1492699,8.32838289 61.1827381,8.42361695 C61.2162063,8.51885102 61.3157285,8.56646733 61.4813079,8.56646733 Z M61.7006114,6.69382872 C61.6671432,6.62283605 61.586997,6.58734025 61.4601702,6.58734025 C61.3333435,6.58734025 61.2514358,6.6185073 61.2144446,6.68084232 C61.1774535,6.74317734 61.1589582,6.87823453 61.1589582,7.08601794 L61.1166828,7.20029825 L61.808942,7.20029825 L61.7560978,7.08601794 C61.7525749,6.89554982 61.7340796,6.76482138 61.7006114,6.69382872 Z M62.6597339,7.58469563 C62.6597339,7.32842943 62.6623761,7.14315867 62.6676605,7.02887779 C62.672945,6.91459691 62.6887981,6.78559998 62.7152203,6.64188312 C62.7416426,6.49816627 62.7847982,6.39860488 62.8446886,6.34319597 C62.9856073,6.21159981 63.2022664,6.14580271 63.4946725,6.14580271 L63.7906001,6.2496939 L63.7906001,5.23156028 C64.0266388,5.23156028 64.1640323,5.24454655 64.202785,5.27051948 C64.2415376,5.2964924 64.2609136,5.38912778 64.2609136,5.5484284 L64.2609136,8.97164296 C64.0495357,8.97164296 63.9191879,8.96298544 63.8698664,8.94567016 C63.8205449,8.92835488 63.7941231,8.87814131 63.7906001,8.79502794 L63.4682504,9.00800487 C63.1899361,9.00800487 62.9785614,8.94393928 62.8341198,8.81580618 C62.7389997,8.72922976 62.6826331,8.50413444 62.6650183,8.14051347 C62.6614953,8.0262326 62.6597339,7.84096184 62.6597339,7.58469563 Z M63.8434443,8.39504688 L63.7906001,8.22882098 L63.7906001,6.8366791 L63.8381599,6.69123144 L63.425975,6.58734025 C63.2921023,6.59772942 63.2093139,6.67045253 63.1776072,6.80551174 C63.1459005,6.94057096 63.1300474,7.20895384 63.1300474,7.61066843 C63.1300474,8.01238302 63.1459005,8.26518238 63.1776072,8.36907408 C63.2163598,8.49720718 63.3009097,8.56300428 63.4312594,8.56646733 L63.8434443,8.39504688 Z M67.4157132,6.72759335 L67.4157132,7.18990913 L66.3482601,7.18990913 L66.3905354,7.30938399 L66.3905354,8.97164296 L66.2584249,8.97164296 C66.0681848,8.97164296 65.9563323,8.95865669 65.9228641,8.93268376 C65.889396,8.90671084 65.8726621,8.81407546 65.8726621,8.65477484 L65.8726621,5.23156028 L67.4791263,5.23156028 L67.4791263,5.67309782 L66.3429757,5.67309782 L66.3905354,5.8029618 L66.3905354,6.59772937 L66.3429757,6.72759335 L67.4157132,6.72759335 Z M68.8742135,6.82628998 L68.879498,6.68603688 C68.879498,6.63755408 68.8742136,6.61158155 68.8636447,6.60811849 C68.8530758,6.60465543 68.8407456,6.59686367 68.8266537,6.58474297 C68.8125619,6.57262227 68.7940666,6.57002502 68.7711673,6.57695113 C68.748268,6.58387725 68.7209655,6.58560875 68.6892588,6.58214569 L68.4039,6.61850761 C68.3299178,6.62889678 68.2665053,6.63409129 68.2136608,6.63409129 C68.1608164,6.63409129 68.1203029,6.62197077 68.0921192,6.59772937 C68.0639354,6.57348797 68.0357521,6.46267182 68.0075684,6.26527758 L68.6205613,6.14580271 C68.8706918,6.14580271 69.0274614,6.16398349 69.0908748,6.20034559 C69.1542882,6.23670768 69.200086,6.26700898 69.2282698,6.29125037 C69.2564535,6.31549177 69.2758295,6.36397384 69.2863984,6.43669803 C69.3040132,6.52673751 69.3128205,6.66872071 69.3128205,6.86265189 L69.3128205,8.97164296 C69.1084885,8.97164296 68.9799022,8.96125394 68.9270577,8.9404756 C68.8742133,8.91969726 68.84603,8.86948369 68.842507,8.78983338 L68.4039,9.00800487 C68.305257,9.00800487 68.2321566,9.00713912 68.1845965,9.00540759 C68.1370365,9.00367606 68.0894772,8.98895829 68.0419172,8.96125384 C67.9943571,8.93354938 67.9626509,8.90584534 67.9467976,8.87814089 C67.9309442,8.85043644 67.9159718,8.79156535 67.90188,8.70152587 C67.8842652,8.59417111 67.8754579,8.3742703 67.8754579,8.04181685 L67.8754579,7.68339226 C67.8754579,7.29206684 68.2224647,7.08948105 68.9164889,7.07562882 L68.8742135,6.9509594 L68.8742135,6.82628998 Z M68.3721935,8.56646733 C68.3757165,8.56646733 68.5536235,8.50067024 68.9059201,8.36907408 L68.8530758,8.21843186 L68.8530758,7.60027931 L68.8953512,7.48080445 C68.7509096,7.4842675 68.6240848,7.49811952 68.5148729,7.52236092 C68.4056609,7.54660232 68.3510558,7.57950086 68.3510558,7.62105755 L68.3457714,8.30673937 C68.3457714,8.47989221 68.3545787,8.56646733 68.3721935,8.56646733 Z M70.258732,7.56391739 C70.258732,7.78208998 70.2604934,7.93705944 70.2640164,8.02883045 C70.2675393,8.12060146 70.2789888,8.21756559 70.2983651,8.31972577 C70.3177414,8.42188595 70.3494476,8.48854879 70.3934847,8.5197163 C70.4375218,8.55088381 70.4956498,8.56646733 70.5678706,8.56646733 C70.6400914,8.56646733 70.7070267,8.56040708 70.7686786,8.54828638 C70.8303305,8.53616568 70.8981466,8.52058216 70.9721289,8.50153534 C71.0461111,8.48248853 71.1077621,8.46950226 71.1570836,8.46257615 L71.1570836,8.86775177 C71.1253769,8.87467789 71.0425885,8.89978467 70.9087158,8.94307288 C70.7748431,8.98636109 70.6647521,9.00800487 70.5784395,9.00800487 C70.4921268,9.00800487 70.4146227,9.00194461 70.3459249,8.98982391 C70.2772271,8.97770322 70.2155761,8.9638512 70.1609702,8.94826744 C70.1063642,8.93268368 70.0596856,8.90324814 70.020933,8.85995993 C69.9821804,8.81667172 69.9495934,8.77944442 69.9231712,8.74827691 C69.896749,8.7171094 69.8747307,8.66343282 69.8571159,8.58724557 C69.8395011,8.51105832 69.8262902,8.44872423 69.8174828,8.40024144 C69.8086753,8.35175864 69.8016295,8.27124378 69.7963451,8.15869443 C69.7910606,8.04614508 69.7884184,7.95697271 69.7884184,7.89117463 L69.7884184,7.24704928 C69.7884184,7.01156142 69.7954643,6.85659195 69.8095561,6.78213622 C69.823648,6.7076805 69.8395011,6.63236015 69.8571159,6.5561729 C69.8747307,6.47998565 69.896749,6.42717482 69.9231712,6.39773884 C69.9495934,6.36830286 69.9821804,6.33280706 70.020933,6.29125037 C70.0596856,6.24969369 70.1072449,6.22198965 70.1636124,6.20813743 C70.301008,6.16658074 70.4401631,6.14580271 70.5810817,6.14580271 L71.1782213,6.27047214 C71.1500376,6.46786638 71.1218543,6.57868253 71.0936705,6.60292393 C71.0654868,6.62716533 71.0249733,6.63928584 70.9721289,6.63928584 C70.9192844,6.63928584 70.8558719,6.63409134 70.7818897,6.62370217 L70.5810817,6.58734025 C70.5000535,6.58734025 70.4375218,6.60119227 70.3934847,6.62889673 C70.3494476,6.65660118 70.3177414,6.71980102 70.2983651,6.81849814 C70.2789888,6.91719526 70.2675393,7.01156214 70.2640164,7.10160162 C70.2604934,7.1916411 70.258732,7.34574481 70.258732,7.56391739 Z M72.377785,8.56646733 C72.6173466,8.56646733 72.8604276,8.54915231 73.1070351,8.51452174 L73.1070351,8.91969736 C72.7793994,8.97856933 72.5468871,9.00800487 72.4094915,9.00800487 C72.2720958,9.00800487 72.1620048,8.99848161 72.0792151,8.9794348 C71.9964255,8.96038798 71.9250865,8.93787845 71.8651961,8.91190553 C71.8053057,8.8859326 71.7559849,8.84177929 71.7172323,8.77944426 C71.6784797,8.71710924 71.6485349,8.65910391 71.6273971,8.60542653 C71.6062593,8.55174915 71.5904062,8.46950278 71.5798373,8.35868496 C71.5657455,8.20977352 71.5586996,8.05134105 71.5586996,7.88338279 L71.5586996,7.18990913 C71.5586996,6.94403209 71.5657455,6.79079413 71.5798373,6.73019063 C71.5939292,6.66958714 71.6097823,6.60379004 71.6273971,6.53279738 C71.6450119,6.46180471 71.6679109,6.41159114 71.6960946,6.38215516 C71.7242783,6.35271918 71.7586267,6.31808913 71.7991408,6.27826398 C71.8396549,6.23843882 71.8863335,6.21160053 71.939178,6.19774831 C72.1047573,6.16311774 72.2527197,6.14580271 72.3830694,6.14580271 C72.5134191,6.14580271 72.6252716,6.16571499 72.7186301,6.20554015 C72.8119887,6.2453653 72.8842084,6.29471312 72.9352914,6.35358509 C72.9863744,6.41245705 73.0260072,6.49556917 73.0541909,6.60292393 C73.0999895,6.77261371 73.1228884,6.99424603 73.1228884,7.26782752 L73.1387417,7.62105755 L71.9867378,7.64703034 L72.0290131,7.76650521 C72.0290131,8.10934783 72.045747,8.32838289 72.0792151,8.42361695 C72.1126833,8.51885102 72.2122056,8.56646733 72.377785,8.56646733 Z M72.5970885,6.69382872 C72.5636203,6.62283605 72.483474,6.58734025 72.3566473,6.58734025 C72.2298205,6.58734025 72.1479128,6.6185073 72.1109217,6.68084232 C72.0739305,6.74317734 72.0554353,6.87823453 72.0554353,7.08601794 L72.0131599,7.20029825 L72.7054191,7.20029825 L72.6525749,7.08601794 C72.6490519,6.89554982 72.6305566,6.76482138 72.5970885,6.69382872 Z M73.6090552,8.97164296 L73.6090552,5.20039293 C73.8415709,5.20039293 73.977203,5.2133792 74.0159556,5.23935212 C74.0547082,5.26532505 74.0740842,5.35796043 74.0740842,5.51726104 L74.0740842,6.2496939 L74.3805807,6.14580271 C74.6060505,6.14580271 74.756655,6.16831225 74.8323987,6.21333198 C74.9081425,6.25835172 74.9662705,6.29644478 75.0067846,6.32761229 C75.0472987,6.3587798 75.0807664,6.41072487 75.1071886,6.48344907 C75.1336109,6.55617326 75.1538676,6.62023885 75.1679595,6.67564776 C75.1820514,6.73105667 75.1926201,6.81590029 75.199666,6.93018116 C75.2102349,7.09987095 75.2155193,7.315443 75.2155193,7.57690379 C75.2155193,7.83836458 75.2128771,8.02536685 75.2075927,8.13791619 C75.2023082,8.25046554 75.1873358,8.37859672 75.1626751,8.52231358 C75.1380143,8.66603044 75.0975008,8.76386033 75.0411334,8.81580618 C74.8896459,8.94393928 74.6747482,9.00800487 74.396434,9.00800487 L74.0740842,8.79502794 C74.0705613,8.87814131 74.0450202,8.92835488 73.9974601,8.94567016 C73.9499001,8.96298544 73.8204331,8.97164296 73.6090552,8.97164296 Z M74.6950038,8.36907408 C74.724949,8.24094098 74.7399214,7.98727587 74.7399214,7.60807115 C74.7399214,7.22886643 74.7240682,6.96654381 74.6923616,6.82109542 C74.6606549,6.67564703 74.5778664,6.59772942 74.4439938,6.58734025 L74.0265245,6.68603688 L74.0740842,6.83148454 L74.0740842,8.22362642 L74.0265245,8.38465776 L74.4387093,8.56646733 C74.5796279,8.56300428 74.6650586,8.49720718 74.6950038,8.36907408 Z M75.6911172,7.58989019 L75.6911172,7.26782752 C75.6911172,7.05311799 75.6964016,6.90940329 75.7069705,6.8366791 C75.7175394,6.7639549 75.7298696,6.69209755 75.7439614,6.62110489 C75.7580533,6.55011222 75.7747871,6.49816715 75.7941634,6.46526811 C75.8135397,6.43236907 75.8382001,6.39341026 75.8681453,6.34839053 C75.8980905,6.30337079 75.9324389,6.27220374 75.9711916,6.25488846 C76.0099442,6.23757317 76.055742,6.21852665 76.1085865,6.19774831 C76.1966606,6.16311774 76.3252469,6.14580271 76.4943493,6.14580271 C76.6634516,6.14580271 76.7999645,6.16571499 76.9038919,6.20554015 C77.0078194,6.2453653 77.0888464,6.29038436 77.1469753,6.34059869 C77.2051043,6.39081301 77.2464985,6.48777715 77.2711592,6.63149401 C77.29582,6.77521086 77.3107924,6.90247629 77.3160768,7.01329411 C77.3213613,7.12411193 77.3240034,7.27475264 77.3240034,7.46522077 L77.3240034,7.85481271 C77.3240034,8.07644835 77.3187191,8.22362606 77.3081502,8.29635025 C77.2975813,8.36907445 77.2852511,8.44179755 77.2711592,8.51452174 C77.2570674,8.58724593 77.2403335,8.64005676 77.2209572,8.6729558 C77.2015809,8.70585484 77.1769205,8.74567939 77.1469753,8.79243066 C77.1170301,8.83918193 77.081801,8.87208048 77.0412869,8.89112729 C77.0007728,8.9101741 76.9540942,8.93008638 76.9012497,8.95086472 C76.8166986,8.98895834 76.7039654,9.00800487 76.5630468,9.00800487 C76.4221281,9.00800487 76.3137986,9.00281036 76.2380548,8.99242119 C76.1623111,8.98203202 76.0953757,8.95952249 76.0372468,8.92489192 C75.9791179,8.89026136 75.9306778,8.85736281 75.8919252,8.8261953 C75.8531726,8.79502779 75.8205857,8.74221696 75.7941634,8.66776124 C75.7677412,8.59330552 75.7474844,8.53010568 75.7333926,8.47815983 C75.7193007,8.42621397 75.7104934,8.34137035 75.7069705,8.22362642 C75.6964016,8.02623218 75.6911172,7.81498889 75.6911172,7.58989019 Z M76.5049181,6.58734025 C76.3463847,6.58734025 76.2495046,6.65054009 76.2142749,6.77694167 C76.1790453,6.90334324 76.1614307,7.12151255 76.1614307,7.43145613 C76.1614307,7.74139972 76.1631922,7.942254 76.1667151,8.03402501 C76.1702381,8.12579601 76.1825683,8.22276015 76.2037061,8.32492033 C76.2248439,8.4270805 76.2591923,8.4928776 76.3067523,8.52231358 C76.3543123,8.55174956 76.420367,8.56646733 76.5049181,8.56646733 C76.6634516,8.56646733 76.7603316,8.50067024 76.7955613,8.36907408 C76.830791,8.23747792 76.8484055,8.01584561 76.8484055,7.7041705 C76.8484055,7.39249538 76.8466441,7.1916411 76.8431211,7.10160162 C76.8395981,7.01156214 76.8272679,6.91806101 76.8061301,6.82109542 C76.7849924,6.72412983 76.750644,6.66092999 76.7030839,6.63149401 C76.6555239,6.60205802 76.5894693,6.58734025 76.5049181,6.58734025 Z M77.7996014,7.58989019 L77.7996014,7.26782752 C77.7996014,7.05311799 77.8048857,6.90940329 77.8154546,6.8366791 C77.8260235,6.7639549 77.8383537,6.69209755 77.8524456,6.62110489 C77.8665375,6.55011222 77.8832713,6.49816715 77.9026476,6.46526811 C77.9220239,6.43236907 77.9466843,6.39341026 77.9766295,6.34839053 C78.0065747,6.30337079 78.0409231,6.27220374 78.0796757,6.25488846 C78.1184283,6.23757317 78.1642262,6.21852665 78.2170707,6.19774831 C78.3051448,6.16311774 78.4337311,6.14580271 78.6028334,6.14580271 C78.7719358,6.14580271 78.9084486,6.16571499 79.0123761,6.20554015 C79.1163036,6.2453653 79.1973306,6.29038436 79.2554595,6.34059869 C79.3135884,6.39081301 79.3549826,6.48777715 79.3796434,6.63149401 C79.4043042,6.77521086 79.4192765,6.90247629 79.424561,7.01329411 C79.4298454,7.12411193 79.4324876,7.27475264 79.4324876,7.46522077 L79.4324876,7.85481271 C79.4324876,8.07644835 79.4272032,8.22362606 79.4166343,8.29635025 C79.4060655,8.36907445 79.3937353,8.44179755 79.3796434,8.51452174 C79.3655515,8.58724593 79.3488177,8.64005676 79.3294414,8.6729558 C79.3100651,8.70585484 79.2854047,8.74567939 79.2554595,8.79243066 C79.2255143,8.83918193 79.1902852,8.87208048 79.1497711,8.89112729 C79.109257,8.9101741 79.0625784,8.93008638 79.0097339,8.95086472 C78.9251827,8.98895834 78.8124495,9.00800487 78.6715309,9.00800487 C78.5306123,9.00800487 78.4222828,9.00281036 78.346539,8.99242119 C78.2707952,8.98203202 78.2038599,8.95952249 78.145731,8.92489192 C78.0876021,8.89026136 78.039162,8.85736281 78.0004094,8.8261953 C77.9616568,8.79502779 77.9290698,8.74221696 77.9026476,8.66776124 C77.8762254,8.59330552 77.8559686,8.53010568 77.8418768,8.47815983 C77.8277849,8.42621397 77.8189776,8.34137035 77.8154546,8.22362642 C77.8048857,8.02623218 77.7996014,7.81498889 77.7996014,7.58989019 Z M78.6134023,6.58734025 C78.4548688,6.58734025 78.3579888,6.65054009 78.3227591,6.77694167 C78.2875295,6.90334324 78.2699149,7.12151255 78.2699149,7.43145613 C78.2699149,7.74139972 78.2716763,7.942254 78.2751993,8.03402501 C78.2787223,8.12579601 78.2910525,8.22276015 78.3121903,8.32492033 C78.3333281,8.4270805 78.3676764,8.4928776 78.4152365,8.52231358 C78.4627965,8.55174956 78.5288511,8.56646733 78.6134023,8.56646733 C78.7719357,8.56646733 78.8688158,8.50067024 78.9040455,8.36907408 C78.9392751,8.23747792 78.9568897,8.01584561 78.9568897,7.7041705 C78.9568897,7.39249538 78.9551282,7.1916411 78.9516053,7.10160162 C78.9480823,7.01156214 78.9357521,6.91806101 78.9146143,6.82109542 C78.8934765,6.72412983 78.8591281,6.66092999 78.8115681,6.63149401 C78.7640081,6.60205802 78.6979535,6.58734025 78.6134023,6.58734025 Z M80.4576654,8.97164296 L80.3836835,8.97164296 C80.1863974,8.97164296 80.071022,8.95865669 80.0375539,8.93268376 C80.0040857,8.90671084 79.9873519,8.81580696 79.9873519,8.6599694 L79.9873519,5.23156028 C80.2233905,5.23156028 80.3607841,5.24454655 80.3995367,5.27051948 C80.4382894,5.2964924 80.4576654,5.38912778 80.4576654,5.5484284 L80.4576654,8.97164296 Z M81.0442362,7.46002621 L81.8897436,8.97164296 L81.3454482,8.97164296 L80.5369317,7.46002621 L81.2820351,6.18216463 L81.7999084,6.18216463 L81.0442362,7.46002621 Z" id="Logga-in-med-Faceboo" fill="#FFFFFF"></path>
        </g>
    </g>
</svg>