<?xml version="1.0" encoding="UTF-8"?>
<svg width="1659px" height="200px" viewBox="0 0 1659 200" version="1.1" xmlns="http://www.w3.org/2000/svg" xmlns:xlink="http://www.w3.org/1999/xlink">
    <!-- Generator: Sketch 50.2 (55047) - http://www.bohemiancoding.com/sketch -->
    <title>Group 10</title>
    <desc>Created with Sketch.</desc>
    <defs></defs>
    <g id="Page-1" stroke="none" stroke-width="1" fill="none" fill-rule="evenodd">
        <g id="Group-10">
            <rect id="Rectangle-2" fill="#417505" x="0" y="0" width="1659" height="200" rx="16"></rect>
            <path d="M654.44,114.44 C657.320014,114.44 659.013331,114.653331 659.52,115.08 C660.026669,115.506669 660.28,116.946654 660.28,119.4 L660.28,121.56 L637,121.56 L637,63.96 L639,63.96 C641.880014,63.96 643.573331,64.159998 644.08,64.56 C644.586669,64.960002 644.84,66.3866544 644.84,68.84 L644.84,112.44 L644.12,114.44 L654.44,114.44 Z M664.68,100.28 L664.68,95.32 C664.68,92.0133168 664.759999,89.8000056 664.92,88.68 C665.080001,87.5599944 665.266666,86.4533388 665.48,85.36 C665.693334,84.2666612 665.946665,83.4666692 666.24,82.96 C666.533335,82.4533308 666.906664,81.8533368 667.36,81.16 C667.813336,80.4666632 668.33333,79.986668 668.92,79.72 C669.50667,79.453332 670.199996,79.1600016 671,78.84 C672.33334,78.306664 674.279987,78.04 676.84,78.04 C679.400013,78.04 681.466659,78.3466636 683.04,78.96 C684.613341,79.5733364 685.839996,80.2666628 686.72,81.04 C687.600004,81.8133372 688.226665,83.3066556 688.6,85.52 C688.973335,87.7333444 689.2,89.6933248 689.28,91.4 C689.36,93.1066752 689.4,95.426652 689.4,98.36 L689.4,104.36 C689.4,107.77335 689.320001,110.039994 689.16,111.16 C688.999999,112.280006 688.813334,113.399994 688.6,114.52 C688.386666,115.640006 688.133335,116.453331 687.84,116.96 C687.546665,117.466669 687.173336,118.079996 686.72,118.8 C686.266664,119.520004 685.733336,120.026665 685.12,120.32 C684.506664,120.613335 683.800004,120.919998 683,121.24 C681.719994,121.82667 680.013344,122.12 677.88,122.12 C675.746656,122.12 674.106672,122.040001 672.96,121.88 C671.813328,121.719999 670.800004,121.373336 669.92,120.84 C669.039996,120.306664 668.30667,119.800002 667.72,119.32 C667.13333,118.839998 666.640002,118.026672 666.24,116.88 C665.839998,115.733328 665.533334,114.760004 665.32,113.96 C665.106666,113.159996 664.973334,111.853342 664.92,110.04 C664.759999,106.999985 664.68,103.746684 664.68,100.28 Z M677,84.84 C674.599988,84.84 673.133336,85.8133236 672.6,87.76 C672.066664,89.7066764 671.8,93.0666428 671.8,97.84 C671.8,102.613357 671.826666,105.70666 671.88,107.12 C671.933334,108.53334 672.119998,110.026659 672.44,111.6 C672.760002,113.173341 673.279996,114.186664 674,114.64 C674.720004,115.093336 675.719994,115.32 677,115.32 C679.400012,115.32 680.866664,114.306677 681.4,112.28 C681.933336,110.253323 682.2,106.840024 682.2,102.04 C682.2,97.239976 682.173334,94.1466736 682.12,92.76 C682.066666,91.3733264 681.880002,89.9333408 681.56,88.44 C681.239998,86.9466592 680.720004,85.9733356 680,85.52 C679.279996,85.0666644 678.280006,84.84 677,84.84 Z M715.08,128.88 C715.66667,128.159996 715.96,127.09334 715.96,125.68 C715.96,124.26666 715.680003,123.320002 715.12,122.84 C714.559997,122.359998 713.32001,122.12 711.4,122.12 C704.039963,122.12 699.73334,121.760004 698.48,121.04 C697.22666,120.319996 696.6,117.800022 696.6,113.48 C696.6,110.546652 697.746655,108.12001 700.04,106.2 C698.813327,105.079994 697.933336,103.733341 697.4,102.16 C696.866664,100.586659 696.6,98.3866808 696.6,95.56 C696.6,92.7333192 696.613333,90.8933376 696.64,90.04 C696.666667,89.1866624 696.72,88.09334 696.8,86.76 C696.88,85.42666 697.026666,84.4800028 697.24,83.92 C697.453334,83.3599972 697.759998,82.6533376 698.16,81.8 C698.560002,80.9466624 699.05333,80.3600016 699.64,80.04 C700.22667,79.7199984 700.946662,79.3733352 701.8,79 C703.186674,78.3599968 705.58665,78.04 709,78.04 L723.48,78.04 C723.48,80.6000128 723.240002,82.3066624 722.76,83.16 C722.279998,84.0133376 721.320007,84.4933328 719.88,84.6 C720.840005,86.6800104 721.32,89.8266456 721.32,94.04 L721.32,97.64 C721.32,100.253346 721.213334,102.013329 721,102.92 C720.786666,103.826671 720.533335,104.733329 720.24,105.64 C719.946665,106.546671 719.600002,107.186665 719.2,107.56 C718.799998,107.933335 718.293336,108.386664 717.68,108.92 C717.066664,109.453336 716.360004,109.826666 715.56,110.04 C713.266655,110.520002 710.960012,110.76 708.64,110.76 C706.319988,110.76 704.86667,110.919998 704.28,111.24 C703.69333,111.560002 703.4,112.146662 703.4,113 C703.4,113.853338 703.533332,114.386666 703.8,114.6 C704.38667,115.080002 706.999977,115.32 711.64,115.32 C716.280023,115.32 719.293326,115.879994 720.68,117 C722.066674,118.120006 722.76,120.826645 722.76,125.12 C722.76,129.413355 721.973341,132.386658 720.4,134.04 C718.826659,135.693342 715.74669,136.52 711.16,136.52 L706.36,136.52 C703.799987,136.52 702.306669,136.266669 701.88,135.76 C701.453331,135.253331 701.24,133.506682 701.24,130.52 L711.08,129.96 C713.16001,129.96 714.49333,129.600004 715.08,128.88 Z M713.96,99.04 C714.013334,97.4133252 714.04,95.7600084 714.04,94.08 C714.04,92.3999916 714.026667,91.2000036 714,90.48 C713.973333,89.7599964 713.880001,88.933338 713.72,88 C713.559999,87.066662 713.320002,86.4400016 713,86.12 C712.039995,85.2666624 710.533344,84.84 708.48,84.84 C706.426656,84.84 705.133336,85.439994 704.6,86.64 C704.066664,87.840006 703.8,90.3199812 703.8,94.08 C703.8,97.8400188 704.106664,100.453326 704.72,101.92 C705.333336,103.386674 706.63999,104.12 708.64,104.12 C710.64001,104.12 712.01333,103.680004 712.76,102.8 C713.50667,101.919996 713.906666,100.666675 713.96,99.04 Z M749.16,128.88 C749.74667,128.159996 750.04,127.09334 750.04,125.68 C750.04,124.26666 749.760003,123.320002 749.2,122.84 C748.639997,122.359998 747.40001,122.12 745.48,122.12 C738.119963,122.12 733.81334,121.760004 732.56,121.04 C731.30666,120.319996 730.68,117.800022 730.68,113.48 C730.68,110.546652 731.826655,108.12001 734.12,106.2 C732.893327,105.079994 732.013336,103.733341 731.48,102.16 C730.946664,100.586659 730.68,98.3866808 730.68,95.56 C730.68,92.7333192 730.693333,90.8933376 730.72,90.04 C730.746667,89.1866624 730.8,88.09334 730.88,86.76 C730.96,85.42666 731.106666,84.4800028 731.32,83.92 C731.533334,83.3599972 731.839998,82.6533376 732.24,81.8 C732.640002,80.9466624 733.13333,80.3600016 733.72,80.04 C734.30667,79.7199984 735.026662,79.3733352 735.88,79 C737.266674,78.3599968 739.66665,78.04 743.08,78.04 L757.56,78.04 C757.56,80.6000128 757.320002,82.3066624 756.84,83.16 C756.359998,84.0133376 755.400007,84.4933328 753.96,84.6 C754.920005,86.6800104 755.4,89.8266456 755.4,94.04 L755.4,97.64 C755.4,100.253346 755.293334,102.013329 755.08,102.92 C754.866666,103.826671 754.613335,104.733329 754.32,105.64 C754.026665,106.546671 753.680002,107.186665 753.28,107.56 C752.879998,107.933335 752.373336,108.386664 751.76,108.92 C751.146664,109.453336 750.440004,109.826666 749.64,110.04 C747.346655,110.520002 745.040012,110.76 742.72,110.76 C740.399988,110.76 738.94667,110.919998 738.36,111.24 C737.77333,111.560002 737.48,112.146662 737.48,113 C737.48,113.853338 737.613332,114.386666 737.88,114.6 C738.46667,115.080002 741.079977,115.32 745.72,115.32 C750.360023,115.32 753.373326,115.879994 754.76,117 C756.146674,118.120006 756.84,120.826645 756.84,125.12 C756.84,129.413355 756.053341,132.386658 754.48,134.04 C752.906659,135.693342 749.82669,136.52 745.24,136.52 L740.44,136.52 C737.879987,136.52 736.386669,136.266669 735.96,135.76 C735.533331,135.253331 735.32,133.506682 735.32,130.52 L745.16,129.96 C747.24001,129.96 748.57333,129.600004 749.16,128.88 Z M748.04,99.04 C748.093334,97.4133252 748.12,95.7600084 748.12,94.08 C748.12,92.3999916 748.106667,91.2000036 748.08,90.48 C748.053333,89.7599964 747.960001,88.933338 747.8,88 C747.639999,87.066662 747.400002,86.4400016 747.08,86.12 C746.119995,85.2666624 744.613344,84.84 742.56,84.84 C740.506656,84.84 739.213336,85.439994 738.68,86.64 C738.146664,87.840006 737.88,90.3199812 737.88,94.08 C737.88,97.8400188 738.186664,100.453326 738.8,101.92 C739.413336,103.386674 740.71999,104.12 742.72,104.12 C744.72001,104.12 746.09333,103.680004 746.84,102.8 C747.58667,101.919996 747.986666,100.666675 748.04,99.04 Z M779.88,88.52 L779.96,86.36 C779.96,85.6133296 779.880001,85.2133336 779.72,85.16 C779.559999,85.1066664 779.373334,84.9866676 779.16,84.8 C778.946666,84.6133324 778.666668,84.5733328 778.32,84.68 C777.973332,84.7866672 777.560002,84.8133336 777.08,84.76 L772.76,85.32 C771.639994,85.4800008 770.680004,85.56 769.88,85.56 C769.079996,85.56 768.466669,85.3733352 768.04,85 C767.613331,84.6266648 767.186669,82.9200152 766.76,79.88 L776.04,78.04 C779.826686,78.04 782.199995,78.3199972 783.16,78.88 C784.120005,79.4400028 784.813331,79.9066648 785.24,80.28 C785.666669,80.6533352 785.959999,81.3999944 786.12,82.52 C786.386668,83.9066736 786.52,86.0933184 786.52,89.08 L786.52,121.56 C783.426651,121.56 781.480004,121.400002 780.68,121.08 C779.879996,120.759998 779.453334,119.986673 779.4,118.76 L772.76,122.12 C771.266659,122.12 770.160004,122.106667 769.44,122.08 C768.719996,122.053333 768.000004,121.826669 767.28,121.4 C766.559996,120.973331 766.080001,120.546669 765.84,120.12 C765.599999,119.693331 765.373334,118.786674 765.16,117.4 C764.893332,115.746658 764.76,112.360026 764.76,107.24 L764.76,101.72 C764.76,95.6933032 770.013281,92.5733344 780.52,92.36 L779.88,90.44 L779.88,88.52 Z M772.28,115.32 C772.333334,115.32 775.02664,114.306677 780.36,112.28 L779.56,109.96 L779.56,100.44 L780.2,98.6 C778.013322,98.6533336 776.093342,98.8666648 774.44,99.24 C772.786658,99.6133352 771.96,100.119997 771.96,100.76 L771.88,111.32 C771.88,113.98668 772.013332,115.32 772.28,115.32 Z M811.16,73.04 C810.199995,72.0533284 809.72,70.9066732 809.72,69.6 C809.72,68.2933268 810.199995,67.1866712 811.16,66.28 C812.120005,65.3733288 813.239994,64.92 814.52,64.92 C815.800006,64.92 816.919995,65.3733288 817.88,66.28 C818.840005,67.1866712 819.32,68.2933268 819.32,69.6 C819.32,70.9066732 818.840005,72.0533284 817.88,73.04 C816.919995,74.0266716 815.800006,74.52 814.52,74.52 C813.239994,74.52 812.120005,74.0266716 811.16,73.04 Z M811,117.08 L811,78.6 C814.573351,78.6 816.65333,78.799998 817.24,79.2 C817.82667,79.600002 818.12,80.999988 818.12,83.4 L818.12,121.88 C814.546649,121.88 812.46667,121.680002 811.88,121.28 C811.29333,120.879998 811,119.480012 811,117.08 Z M845.72,100.2 L845.8,93.16 C845.8,91.026656 845.746667,89.426672 845.64,88.36 C845.426666,86.1199888 844.173345,84.9466672 841.88,84.84 L834.52,87 L835.24,89.24 L835.24,121.56 C831.666649,121.56 829.58667,121.360002 829,120.96 C828.41333,120.559998 828.12,119.160012 828.12,116.76 L828.12,78.6 C831.213349,78.6 833.159996,78.6799992 833.96,78.84 C834.760004,79.0000008 835.186666,79.479996 835.24,80.28 L841.16,78.04 C844.41335,78.04 846.546662,78.2533312 847.56,78.68 C848.573338,79.1066688 849.346664,79.4799984 849.88,79.8 C850.413336,80.1200016 850.893331,80.7733284 851.32,81.76 C851.746669,82.7466716 852.039999,83.6533292 852.2,84.48 C852.360001,85.3066708 852.519999,86.6266576 852.68,88.44 C852.840001,91.0533464 852.92,94.9999736 852.92,100.28 L852.92,121.56 C849.346649,121.56 847.253336,121.360002 846.64,120.96 C846.026664,120.559998 845.72,119.160012 845.72,116.76 L845.72,100.2 Z M900.44,121.56 C896.866649,121.56 894.78667,121.360002 894.2,120.96 C893.61333,120.559998 893.32,119.160012 893.32,116.76 L893.24,97.16 L893.24,94.04 C893.24,92.8133272 893.253333,91.8800032 893.28,91.24 C893.306667,90.5999968 893.293334,89.8666708 893.24,89.04 C893.186666,88.2133292 893.093334,87.600002 892.96,87.2 C892.826666,86.799998 892.653334,86.3866688 892.44,85.96 C892.066665,85.2133296 891.266673,84.84 890.04,84.84 L882.92,86.92 L883.64,89.24 L883.64,121.56 C880.066649,121.56 877.98667,121.360002 877.4,120.96 C876.81333,120.559998 876.52,119.160012 876.52,116.76 L876.52,78.6 C879.453348,78.6 881.319996,78.6799992 882.12,78.84 C882.920004,79.0000008 883.399999,79.479996 883.56,80.28 L889.56,78.04 C891.906678,78.04 893.693327,78.239998 894.92,78.64 C896.146673,79.040002 897.239995,79.7999944 898.2,80.92 L905.56,78.04 C908.706682,78.04 910.826661,78.2666644 911.92,78.72 C913.013339,79.1733356 913.813331,79.5599984 914.32,79.88 C914.826669,80.2000016 915.279998,80.8666616 915.68,81.88 C916.080002,82.8933384 916.373332,83.799996 916.56,84.6 C916.746668,85.400004 916.893333,86.733324 917,88.6 C917.160001,91.3733472 917.24,95.2666416 917.24,100.28 L917.24,121.56 C913.613315,121.56 911.50667,121.360002 910.92,120.96 C910.33333,120.559998 910.04,119.160012 910.04,116.76 L910.04,100.2 C910.04,92.8399632 909.960001,88.7333376 909.8,87.88 C909.533332,86.3333256 908.786673,85.4000016 907.56,85.08 C907.133331,84.9733328 906.600003,84.8933336 905.96,84.84 L899.72,86.68 L900.44,88.92 L900.44,121.56 Z M937.32,115.32 C940.946685,115.32 944.626648,115.053336 948.36,114.52 L948.36,120.76 C943.399975,121.666671 939.88001,122.12 937.8,122.12 C935.71999,122.12 934.05334,121.973335 932.8,121.68 C931.54666,121.386665 930.466671,121.040002 929.56,120.64 C928.653329,120.239998 927.90667,119.560005 927.32,118.6 C926.73333,117.639995 926.280002,116.746671 925.96,115.92 C925.639998,115.093329 925.400001,113.826675 925.24,112.12 C925.026666,109.826655 924.92,107.38668 924.92,104.8 L924.92,94.12 C924.92,90.3333144 925.026666,87.973338 925.24,87.04 C925.453334,86.106662 925.693332,85.0933388 925.96,84 C926.226668,82.9066612 926.573331,82.1333356 927,81.68 C927.426669,81.2266644 927.946664,80.6933364 928.56,80.08 C929.173336,79.4666636 929.879996,79.0533344 930.68,78.84 C933.186679,78.306664 935.426657,78.04 937.4,78.04 C939.373343,78.04 941.06666,78.3466636 942.48,78.96 C943.89334,79.5733364 944.986663,80.3333288 945.76,81.24 C946.533337,82.1466712 947.133331,83.4266584 947.56,85.08 C948.253337,87.6933464 948.6,91.1066456 948.6,95.32 L948.84,100.76 L931.4,101.16 L932.04,103 C932.04,108.280026 932.293331,111.653326 932.8,113.12 C933.306669,114.586674 934.813321,115.32 937.32,115.32 Z M940.64,86.48 C940.133331,85.3866612 938.92001,84.84 937,84.84 C935.07999,84.84 933.840003,85.3199952 933.28,86.28 C932.719997,87.2400048 932.44,89.319984 932.44,92.52 L931.8,94.28 L942.28,94.28 L941.48,92.52 C941.426666,89.586652 941.146669,87.5733388 940.64,86.48 Z M955.16,100.2 C955.16,96.2533136 955.2,93.4000088 955.28,91.64 C955.36,89.8799912 955.599998,87.8933444 956,85.68 C956.400002,83.4666556 957.053329,81.9333376 957.96,81.08 C960.093344,79.0533232 963.373311,78.04 967.8,78.04 L972.28,79.64 L972.28,63.96 C975.853351,63.96 977.93333,64.159998 978.52,64.56 C979.10667,64.960002 979.4,66.3866544 979.4,68.84 L979.4,121.56 C976.199984,121.56 974.22667,121.426668 973.48,121.16 C972.73333,120.893332 972.333334,120.120006 972.28,118.84 L967.4,122.12 C963.186646,122.12 959.986678,121.133343 957.8,119.16 C956.359993,117.82666 955.506668,114.360028 955.24,108.76 C955.186666,106.999991 955.16,104.146686 955.16,100.2 Z M973.08,112.68 L972.28,110.12 L972.28,88.68 L973,86.44 L966.76,84.84 C964.733323,85.0000008 963.480002,86.1199896 963,88.2 C962.519998,90.2800104 962.28,94.4133024 962.28,100.6 C962.28,106.786698 962.519998,110.679992 963,112.28 C963.58667,114.253343 964.866657,115.266666 966.84,115.32 L973.08,112.68 Z M1011.4,87.72 L1011.4,96.92 C1011.4,100.653352 1011.49333,103.159994 1011.68,104.44 L1012.24,108.28 C1012.42667,109.560006 1012.69333,110.519997 1013.04,111.16 C1013.38667,111.800003 1013.8,112.466663 1014.28,113.16 C1014.76,113.853337 1015.32,114.333332 1015.96,114.6 C1016.6,114.866668 1017.34666,115 1018.2,115 C1019.48001,115 1021.71998,114.733336 1024.92,114.2 L1024.28,112.2 L1024.28,96.84 C1024.28,93.906652 1024.48,92.2000024 1024.88,91.72 C1025.28,91.2399976 1026.67999,91 1029.08,91 L1031.72,91 L1031.72,120.76 C1030.81333,120.866667 1029.40001,121.053332 1027.48,121.32 C1023.74665,121.853336 1020.86668,122.12 1018.84,122.12 C1016.81332,122.12 1015.16001,121.946668 1013.88,121.6 C1012.59999,121.253332 1011.49334,120.826669 1010.56,120.32 C1009.62666,119.813331 1008.8,119.040005 1008.08,118 C1007.36,116.959995 1006.76,116.013338 1006.28,115.16 C1005.8,114.306662 1005.4,113.066675 1005.08,111.44 C1004.76,109.813325 1004.52,108.466672 1004.36,107.4 C1004.2,106.333328 1004.06667,104.746677 1003.96,102.64 C1003.85333,100.533323 1003.8,98.8933392 1003.8,97.72 L1003.8,92.28 C1003.8,87.9599784 1003.84,84.7733436 1003.92,82.72 C1004,80.6666564 1004.28,78.106682 1004.76,75.04 C1005.24,71.973318 1005.96,69.7466736 1006.92,68.36 C1007.88,66.9733264 1009.30666,65.7333388 1011.2,64.64 C1013.09334,63.5466612 1015.42665,63 1018.2,63 L1030.12,65.56 C1029.69333,68.6000152 1028.97334,70.386664 1027.96,70.92 C1027.48,71.1333344 1026.72001,71.24 1025.68,71.24 C1024.63999,71.24 1023.16001,71.0533352 1021.24,70.68 L1018.2,70.12 C1016.43999,70.12 1015.13334,70.7333272 1014.28,71.96 C1013.8,72.6000032 1013.38667,73.2266636 1013.04,73.84 C1012.69333,74.4533364 1012.42667,75.3866604 1012.24,76.64 C1012.05333,77.8933396 1011.90667,78.9466624 1011.8,79.8 C1011.53333,81.3466744 1011.4,83.986648 1011.4,87.72 Z M1039.32,100.28 L1039.32,95.32 C1039.32,92.0133168 1039.4,89.8000056 1039.56,88.68 C1039.72,87.5599944 1039.90667,86.4533388 1040.12,85.36 C1040.33333,84.2666612 1040.58667,83.4666692 1040.88,82.96 C1041.17333,82.4533308 1041.54666,81.8533368 1042,81.16 C1042.45334,80.4666632 1042.97333,79.986668 1043.56,79.72 C1044.14667,79.453332 1044.84,79.1600016 1045.64,78.84 C1046.97334,78.306664 1048.91999,78.04 1051.48,78.04 C1054.04001,78.04 1056.10666,78.3466636 1057.68,78.96 C1059.25334,79.5733364 1060.48,80.2666628 1061.36,81.04 C1062.24,81.8133372 1062.86666,83.3066556 1063.24,85.52 C1063.61334,87.7333444 1063.84,89.6933248 1063.92,91.4 C1064,93.1066752 1064.04,95.426652 1064.04,98.36 L1064.04,104.36 C1064.04,107.77335 1063.96,110.039994 1063.8,111.16 C1063.64,112.280006 1063.45333,113.399994 1063.24,114.52 C1063.02667,115.640006 1062.77333,116.453331 1062.48,116.96 C1062.18667,117.466669 1061.81334,118.079996 1061.36,118.8 C1060.90666,119.520004 1060.37334,120.026665 1059.76,120.32 C1059.14666,120.613335 1058.44,120.919998 1057.64,121.24 C1056.35999,121.82667 1054.65334,122.12 1052.52,122.12 C1050.38666,122.12 1048.74667,122.040001 1047.6,121.88 C1046.45333,121.719999 1045.44,121.373336 1044.56,120.84 C1043.68,120.306664 1042.94667,119.800002 1042.36,119.32 C1041.77333,118.839998 1041.28,118.026672 1040.88,116.88 C1040.48,115.733328 1040.17333,114.760004 1039.96,113.96 C1039.74667,113.159996 1039.61333,111.853342 1039.56,110.04 C1039.4,106.999985 1039.32,103.746684 1039.32,100.28 Z M1051.64,84.84 C1049.23999,84.84 1047.77334,85.8133236 1047.24,87.76 C1046.70666,89.7066764 1046.44,93.0666428 1046.44,97.84 C1046.44,102.613357 1046.46667,105.70666 1046.52,107.12 C1046.57333,108.53334 1046.76,110.026659 1047.08,111.6 C1047.4,113.173341 1047.92,114.186664 1048.64,114.64 C1049.36,115.093336 1050.35999,115.32 1051.64,115.32 C1054.04001,115.32 1055.50666,114.306677 1056.04,112.28 C1056.57334,110.253323 1056.84,106.840024 1056.84,102.04 C1056.84,97.239976 1056.81333,94.1466736 1056.76,92.76 C1056.70667,91.3733264 1056.52,89.9333408 1056.2,88.44 C1055.88,86.9466592 1055.36,85.9733356 1054.64,85.52 C1053.92,85.0666644 1052.92001,84.84 1051.64,84.84 Z M1071.24,100.28 L1071.24,95.32 C1071.24,92.0133168 1071.32,89.8000056 1071.48,88.68 C1071.64,87.5599944 1071.82667,86.4533388 1072.04,85.36 C1072.25333,84.2666612 1072.50667,83.4666692 1072.8,82.96 C1073.09333,82.4533308 1073.46666,81.8533368 1073.92,81.16 C1074.37334,80.4666632 1074.89333,79.986668 1075.48,79.72 C1076.06667,79.453332 1076.76,79.1600016 1077.56,78.84 C1078.89334,78.306664 1080.83999,78.04 1083.4,78.04 C1085.96001,78.04 1088.02666,78.3466636 1089.6,78.96 C1091.17334,79.5733364 1092.4,80.2666628 1093.28,81.04 C1094.16,81.8133372 1094.78666,83.3066556 1095.16,85.52 C1095.53334,87.7333444 1095.76,89.6933248 1095.84,91.4 C1095.92,93.1066752 1095.96,95.426652 1095.96,98.36 L1095.96,104.36 C1095.96,107.77335 1095.88,110.039994 1095.72,111.16 C1095.56,112.280006 1095.37333,113.399994 1095.16,114.52 C1094.94667,115.640006 1094.69333,116.453331 1094.4,116.96 C1094.10667,117.466669 1093.73334,118.079996 1093.28,118.8 C1092.82666,119.520004 1092.29334,120.026665 1091.68,120.32 C1091.06666,120.613335 1090.36,120.919998 1089.56,121.24 C1088.27999,121.82667 1086.57334,122.12 1084.44,122.12 C1082.30666,122.12 1080.66667,122.040001 1079.52,121.88 C1078.37333,121.719999 1077.36,121.373336 1076.48,120.84 C1075.6,120.306664 1074.86667,119.800002 1074.28,119.32 C1073.69333,118.839998 1073.2,118.026672 1072.8,116.88 C1072.4,115.733328 1072.09333,114.760004 1071.88,113.96 C1071.66667,113.159996 1071.53333,111.853342 1071.48,110.04 C1071.32,106.999985 1071.24,103.746684 1071.24,100.28 Z M1083.56,84.84 C1081.15999,84.84 1079.69334,85.8133236 1079.16,87.76 C1078.62666,89.7066764 1078.36,93.0666428 1078.36,97.84 C1078.36,102.613357 1078.38667,105.70666 1078.44,107.12 C1078.49333,108.53334 1078.68,110.026659 1079,111.6 C1079.32,113.173341 1079.84,114.186664 1080.56,114.64 C1081.28,115.093336 1082.27999,115.32 1083.56,115.32 C1085.96001,115.32 1087.42666,114.306677 1087.96,112.28 C1088.49334,110.253323 1088.76,106.840024 1088.76,102.04 C1088.76,97.239976 1088.73333,94.1466736 1088.68,92.76 C1088.62667,91.3733264 1088.44,89.9333408 1088.12,88.44 C1087.8,86.9466592 1087.28,85.9733356 1086.56,85.52 C1085.84,85.0666644 1084.84001,84.84 1083.56,84.84 Z M1121.64,128.88 C1122.22667,128.159996 1122.52,127.09334 1122.52,125.68 C1122.52,124.26666 1122.24,123.320002 1121.68,122.84 C1121.12,122.359998 1119.88001,122.12 1117.96,122.12 C1110.59996,122.12 1106.29334,121.760004 1105.04,121.04 C1103.78666,120.319996 1103.16,117.800022 1103.16,113.48 C1103.16,110.546652 1104.30666,108.12001 1106.6,106.2 C1105.37333,105.079994 1104.49334,103.733341 1103.96,102.16 C1103.42666,100.586659 1103.16,98.3866808 1103.16,95.56 C1103.16,92.7333192 1103.17333,90.8933376 1103.2,90.04 C1103.22667,89.1866624 1103.28,88.09334 1103.36,86.76 C1103.44,85.42666 1103.58667,84.4800028 1103.8,83.92 C1104.01333,83.3599972 1104.32,82.6533376 1104.72,81.8 C1105.12,80.9466624 1105.61333,80.3600016 1106.2,80.04 C1106.78667,79.7199984 1107.50666,79.3733352 1108.36,79 C1109.74667,78.3599968 1112.14665,78.04 1115.56,78.04 L1130.04,78.04 C1130.04,80.6000128 1129.8,82.3066624 1129.32,83.16 C1128.84,84.0133376 1127.88001,84.4933328 1126.44,84.6 C1127.4,86.6800104 1127.88,89.8266456 1127.88,94.04 L1127.88,97.64 C1127.88,100.253346 1127.77333,102.013329 1127.56,102.92 C1127.34667,103.826671 1127.09333,104.733329 1126.8,105.64 C1126.50667,106.546671 1126.16,107.186665 1125.76,107.56 C1125.36,107.933335 1124.85334,108.386664 1124.24,108.92 C1123.62666,109.453336 1122.92,109.826666 1122.12,110.04 C1119.82666,110.520002 1117.52001,110.76 1115.2,110.76 C1112.87999,110.76 1111.42667,110.919998 1110.84,111.24 C1110.25333,111.560002 1109.96,112.146662 1109.96,113 C1109.96,113.853338 1110.09333,114.386666 1110.36,114.6 C1110.94667,115.080002 1113.55998,115.32 1118.2,115.32 C1122.84002,115.32 1125.85333,115.879994 1127.24,117 C1128.62667,118.120006 1129.32,120.826645 1129.32,125.12 C1129.32,129.413355 1128.53334,132.386658 1126.96,134.04 C1125.38666,135.693342 1122.30669,136.52 1117.72,136.52 L1112.92,136.52 C1110.35999,136.52 1108.86667,136.266669 1108.44,135.76 C1108.01333,135.253331 1107.8,133.506682 1107.8,130.52 L1117.64,129.96 C1119.72001,129.96 1121.05333,129.600004 1121.64,128.88 Z M1120.52,99.04 C1120.57333,97.4133252 1120.6,95.7600084 1120.6,94.08 C1120.6,92.3999916 1120.58667,91.2000036 1120.56,90.48 C1120.53333,89.7599964 1120.44,88.933338 1120.28,88 C1120.12,87.066662 1119.88,86.4400016 1119.56,86.12 C1118.6,85.2666624 1117.09334,84.84 1115.04,84.84 C1112.98666,84.84 1111.69334,85.439994 1111.16,86.64 C1110.62666,87.840006 1110.36,90.3199812 1110.36,94.08 C1110.36,97.8400188 1110.66666,100.453326 1111.28,101.92 C1111.89334,103.386674 1113.19999,104.12 1115.2,104.12 C1117.20001,104.12 1118.57333,103.680004 1119.32,102.8 C1120.06667,101.919996 1120.46667,100.666675 1120.52,99.04 Z M1145.56,68.84 L1145.56,121.88 C1141.98665,121.88 1139.90667,121.680002 1139.32,121.28 C1138.73333,120.879998 1138.44,119.480012 1138.44,117.08 L1138.44,63.96 C1141.96002,63.96 1144.02666,64.159998 1144.64,64.56 C1145.25334,64.960002 1145.56,66.3866544 1145.56,68.84 Z M1165.64,115.32 C1169.26668,115.32 1172.94665,115.053336 1176.68,114.52 L1176.68,120.76 C1171.71998,121.666671 1168.20001,122.12 1166.12,122.12 C1164.03999,122.12 1162.37334,121.973335 1161.12,121.68 C1159.86666,121.386665 1158.78667,121.040002 1157.88,120.64 C1156.97333,120.239998 1156.22667,119.560005 1155.64,118.6 C1155.05333,117.639995 1154.6,116.746671 1154.28,115.92 C1153.96,115.093329 1153.72,113.826675 1153.56,112.12 C1153.34667,109.826655 1153.24,107.38668 1153.24,104.8 L1153.24,94.12 C1153.24,90.3333144 1153.34667,87.973338 1153.56,87.04 C1153.77333,86.106662 1154.01333,85.0933388 1154.28,84 C1154.54667,82.9066612 1154.89333,82.1333356 1155.32,81.68 C1155.74667,81.2266644 1156.26666,80.6933364 1156.88,80.08 C1157.49334,79.4666636 1158.2,79.0533344 1159,78.84 C1161.50668,78.306664 1163.74666,78.04 1165.72,78.04 C1167.69334,78.04 1169.38666,78.3466636 1170.8,78.96 C1172.21334,79.5733364 1173.30666,80.3333288 1174.08,81.24 C1174.85334,82.1466712 1175.45333,83.4266584 1175.88,85.08 C1176.57334,87.6933464 1176.92,91.1066456 1176.92,95.32 L1177.16,100.76 L1159.72,101.16 L1160.36,103 C1160.36,108.280026 1160.61333,111.653326 1161.12,113.12 C1161.62667,114.586674 1163.13332,115.32 1165.64,115.32 Z M1168.96,86.48 C1168.45333,85.3866612 1167.24001,84.84 1165.32,84.84 C1163.39999,84.84 1162.16,85.3199952 1161.6,86.28 C1161.04,87.2400048 1160.76,89.319984 1160.76,92.52 L1160.12,94.28 L1170.6,94.28 L1169.8,92.52 C1169.74667,89.586652 1169.46667,87.5733388 1168.96,86.48 Z" id="Logga-in-med-Google" fill="#FFFFFF"></path>
            <g id="24338-google-plus-logo" transform="translate(417.000000, 32.000000)" fill="#FFFFFF" fill-rule="nonzero">
                <path d="M0.107887163,116.351168 C0.0752641398,116.012607 0.0475217265,115.672763 0.0297974069,115.330093 C0.0472648523,115.67302 0.0752641398,116.012607 0.107887163,116.351168 Z M31.5621326,75.6104062 C43.8720579,75.9769657 52.1297927,63.20852 50.0064706,47.0870954 C47.880066,30.9682395 36.1732813,18.0325686 23.8633561,17.6639542 C11.550862,17.2986791 3.29441158,29.6355761 5.42004556,45.7595695 C7.54490892,61.8766273 19.2473267,75.2430761 31.5621326,75.6104062 Z M136.999743,34.2498073 L136.999743,22.836373 C136.999743,10.2762523 126.727344,0 114.167737,0 L22.8358593,0 C10.4904853,0 0.358082631,9.93152709 0.0164399486,22.1990681 C7.82464492,15.3240871 18.6562592,9.58063694 29.8343968,9.58063694 C41.7821294,9.58063694 77.6296943,9.58063694 77.6296943,9.58063694 L66.9334527,18.6272324 L51.7796732,18.6272324 C61.8311605,22.4808591 67.1862169,34.1632407 67.1862169,46.150532 C67.1862169,56.2179456 61.5925244,64.8748629 53.6885053,71.030853 C45.9766282,77.0383699 44.5145003,79.5541958 44.5145003,84.6611117 C44.5145003,89.0197531 52.7753176,96.4344268 57.0949141,99.4830097 C69.722079,108.384985 73.8071494,116.649912 73.8071494,130.449194 C73.8071494,132.647524 73.5340921,134.841486 72.9956838,136.999486 L114.167994,136.999486 C126.727601,136.999486 137,126.731197 137,114.16337 L137,42.8124518 L111.31258,42.8124518 L111.31258,68.4998716 L102.749936,68.4998716 L102.749936,42.8124518 L77.0625161,42.8124518 L77.0625161,34.2500642 L102.749936,34.2500642 L102.749936,8.56264449 L111.31258,8.56264449 L111.31258,34.2500642 L136.999743,34.2500642 L136.999743,34.2498073 Z M24.8695323,102.473539 C27.7611651,102.473539 30.4113362,102.394422 33.1557801,102.394422 C29.5238359,98.8713923 26.6501842,94.5543645 26.6501842,89.2324449 C26.6501842,86.0741766 27.6620117,83.033043 29.0761041,80.3327815 C27.6334986,80.4355311 26.1608389,80.4658423 24.6442536,80.4658423 C14.6962866,80.4658423 6.24743735,77.2446399 0,71.9227202 L0,80.9189684 L0.000770622592,107.908227 C7.15060703,104.513377 15.6392718,102.473539 24.8695323,102.473539 Z M0.45774982,118.704906 C0.308762785,117.974869 0.194710642,117.232503 0.117648382,116.479605 C0.194453767,117.232503 0.309019659,117.974869 0.45774982,118.704906 Z M60.9341558,127.479729 C58.9194915,119.612186 51.7758201,115.711808 41.8175781,108.807286 C38.1956519,107.639536 34.205625,106.951113 29.9245596,106.906674 C17.9346996,106.777466 6.76452511,111.581271 0.462116681,118.729566 C2.59211752,129.126035 11.838818,136.999486 22.8361161,136.999486 L61.1591776,136.999486 C61.4021806,135.510643 61.519829,133.971453 61.519829,132.392961 C61.519829,130.71583 61.3143296,129.075945 60.9341558,127.479729 Z" id="Shape"></path>
            </g>
        </g>
    </g>
</svg>