<?xml version="1.0" encoding="UTF-8"?>
<svg width="1669px" height="200px" viewBox="0 0 1669 200" version="1.1" xmlns="http://www.w3.org/2000/svg" xmlns:xlink="http://www.w3.org/1999/xlink">
    <!-- Generator: Sketch 50.2 (55047) - http://www.bohemiancoding.com/sketch -->
    <title>Group 8</title>
    <desc>Created with Sketch.</desc>
    <defs></defs>
    <g id="Page-1" stroke="none" stroke-width="1" fill="none" fill-rule="evenodd">
        <g id="Group-8">
            <rect id="Rectangle-2" fill="#417505" x="0" y="0" width="1669" height="200" rx="16"></rect>
            <path d="M658.44,114.44 C661.320014,114.44 663.013331,114.653331 663.52,115.08 C664.026669,115.506669 664.28,116.946654 664.28,119.4 L664.28,121.56 L641,121.56 L641,63.96 L643,63.96 C645.880014,63.96 647.573331,64.159998 648.08,64.56 C648.586669,64.960002 648.84,66.3866544 648.84,68.84 L648.84,112.44 L648.12,114.44 L658.44,114.44 Z M668.68,100.28 L668.68,95.32 C668.68,92.0133168 668.759999,89.8000056 668.92,88.68 C669.080001,87.5599944 669.266666,86.4533388 669.48,85.36 C669.693334,84.2666612 669.946665,83.4666692 670.24,82.96 C670.533335,82.4533308 670.906664,81.8533368 671.36,81.16 C671.813336,80.4666632 672.33333,79.986668 672.92,79.72 C673.50667,79.453332 674.199996,79.1600016 675,78.84 C676.33334,78.306664 678.279987,78.04 680.84,78.04 C683.400013,78.04 685.466659,78.3466636 687.04,78.96 C688.613341,79.5733364 689.839996,80.2666628 690.72,81.04 C691.600004,81.8133372 692.226665,83.3066556 692.6,85.52 C692.973335,87.7333444 693.2,89.6933248 693.28,91.4 C693.36,93.1066752 693.4,95.426652 693.4,98.36 L693.4,104.36 C693.4,107.77335 693.320001,110.039994 693.16,111.16 C692.999999,112.280006 692.813334,113.399994 692.6,114.52 C692.386666,115.640006 692.133335,116.453331 691.84,116.96 C691.546665,117.466669 691.173336,118.079996 690.72,118.8 C690.266664,119.520004 689.733336,120.026665 689.12,120.32 C688.506664,120.613335 687.800004,120.919998 687,121.24 C685.719994,121.82667 684.013344,122.12 681.88,122.12 C679.746656,122.12 678.106672,122.040001 676.96,121.88 C675.813328,121.719999 674.800004,121.373336 673.92,120.84 C673.039996,120.306664 672.30667,119.800002 671.72,119.32 C671.13333,118.839998 670.640002,118.026672 670.24,116.88 C669.839998,115.733328 669.533334,114.760004 669.32,113.96 C669.106666,113.159996 668.973334,111.853342 668.92,110.04 C668.759999,106.999985 668.68,103.746684 668.68,100.28 Z M681,84.84 C678.599988,84.84 677.133336,85.8133236 676.6,87.76 C676.066664,89.7066764 675.8,93.0666428 675.8,97.84 C675.8,102.613357 675.826666,105.70666 675.88,107.12 C675.933334,108.53334 676.119998,110.026659 676.44,111.6 C676.760002,113.173341 677.279996,114.186664 678,114.64 C678.720004,115.093336 679.719994,115.32 681,115.32 C683.400012,115.32 684.866664,114.306677 685.4,112.28 C685.933336,110.253323 686.2,106.840024 686.2,102.04 C686.2,97.239976 686.173334,94.1466736 686.12,92.76 C686.066666,91.3733264 685.880002,89.9333408 685.56,88.44 C685.239998,86.9466592 684.720004,85.9733356 684,85.52 C683.279996,85.0666644 682.280006,84.84 681,84.84 Z M719.08,128.88 C719.66667,128.159996 719.96,127.09334 719.96,125.68 C719.96,124.26666 719.680003,123.320002 719.12,122.84 C718.559997,122.359998 717.32001,122.12 715.4,122.12 C708.039963,122.12 703.73334,121.760004 702.48,121.04 C701.22666,120.319996 700.6,117.800022 700.6,113.48 C700.6,110.546652 701.746655,108.12001 704.04,106.2 C702.813327,105.079994 701.933336,103.733341 701.4,102.16 C700.866664,100.586659 700.6,98.3866808 700.6,95.56 C700.6,92.7333192 700.613333,90.8933376 700.64,90.04 C700.666667,89.1866624 700.72,88.09334 700.8,86.76 C700.88,85.42666 701.026666,84.4800028 701.24,83.92 C701.453334,83.3599972 701.759998,82.6533376 702.16,81.8 C702.560002,80.9466624 703.05333,80.3600016 703.64,80.04 C704.22667,79.7199984 704.946662,79.3733352 705.8,79 C707.186674,78.3599968 709.58665,78.04 713,78.04 L727.48,78.04 C727.48,80.6000128 727.240002,82.3066624 726.76,83.16 C726.279998,84.0133376 725.320007,84.4933328 723.88,84.6 C724.840005,86.6800104 725.32,89.8266456 725.32,94.04 L725.32,97.64 C725.32,100.253346 725.213334,102.013329 725,102.92 C724.786666,103.826671 724.533335,104.733329 724.24,105.64 C723.946665,106.546671 723.600002,107.186665 723.2,107.56 C722.799998,107.933335 722.293336,108.386664 721.68,108.92 C721.066664,109.453336 720.360004,109.826666 719.56,110.04 C717.266655,110.520002 714.960012,110.76 712.64,110.76 C710.319988,110.76 708.86667,110.919998 708.28,111.24 C707.69333,111.560002 707.4,112.146662 707.4,113 C707.4,113.853338 707.533332,114.386666 707.8,114.6 C708.38667,115.080002 710.999977,115.32 715.64,115.32 C720.280023,115.32 723.293326,115.879994 724.68,117 C726.066674,118.120006 726.76,120.826645 726.76,125.12 C726.76,129.413355 725.973341,132.386658 724.4,134.04 C722.826659,135.693342 719.74669,136.52 715.16,136.52 L710.36,136.52 C707.799987,136.52 706.306669,136.266669 705.88,135.76 C705.453331,135.253331 705.24,133.506682 705.24,130.52 L715.08,129.96 C717.16001,129.96 718.49333,129.600004 719.08,128.88 Z M717.96,99.04 C718.013334,97.4133252 718.04,95.7600084 718.04,94.08 C718.04,92.3999916 718.026667,91.2000036 718,90.48 C717.973333,89.7599964 717.880001,88.933338 717.72,88 C717.559999,87.066662 717.320002,86.4400016 717,86.12 C716.039995,85.2666624 714.533344,84.84 712.48,84.84 C710.426656,84.84 709.133336,85.439994 708.6,86.64 C708.066664,87.840006 707.8,90.3199812 707.8,94.08 C707.8,97.8400188 708.106664,100.453326 708.72,101.92 C709.333336,103.386674 710.63999,104.12 712.64,104.12 C714.64001,104.12 716.01333,103.680004 716.76,102.8 C717.50667,101.919996 717.906666,100.666675 717.96,99.04 Z M753.16,128.88 C753.74667,128.159996 754.04,127.09334 754.04,125.68 C754.04,124.26666 753.760003,123.320002 753.2,122.84 C752.639997,122.359998 751.40001,122.12 749.48,122.12 C742.119963,122.12 737.81334,121.760004 736.56,121.04 C735.30666,120.319996 734.68,117.800022 734.68,113.48 C734.68,110.546652 735.826655,108.12001 738.12,106.2 C736.893327,105.079994 736.013336,103.733341 735.48,102.16 C734.946664,100.586659 734.68,98.3866808 734.68,95.56 C734.68,92.7333192 734.693333,90.8933376 734.72,90.04 C734.746667,89.1866624 734.8,88.09334 734.88,86.76 C734.96,85.42666 735.106666,84.4800028 735.32,83.92 C735.533334,83.3599972 735.839998,82.6533376 736.24,81.8 C736.640002,80.9466624 737.13333,80.3600016 737.72,80.04 C738.30667,79.7199984 739.026662,79.3733352 739.88,79 C741.266674,78.3599968 743.66665,78.04 747.08,78.04 L761.56,78.04 C761.56,80.6000128 761.320002,82.3066624 760.84,83.16 C760.359998,84.0133376 759.400007,84.4933328 757.96,84.6 C758.920005,86.6800104 759.4,89.8266456 759.4,94.04 L759.4,97.64 C759.4,100.253346 759.293334,102.013329 759.08,102.92 C758.866666,103.826671 758.613335,104.733329 758.32,105.64 C758.026665,106.546671 757.680002,107.186665 757.28,107.56 C756.879998,107.933335 756.373336,108.386664 755.76,108.92 C755.146664,109.453336 754.440004,109.826666 753.64,110.04 C751.346655,110.520002 749.040012,110.76 746.72,110.76 C744.399988,110.76 742.94667,110.919998 742.36,111.24 C741.77333,111.560002 741.48,112.146662 741.48,113 C741.48,113.853338 741.613332,114.386666 741.88,114.6 C742.46667,115.080002 745.079977,115.32 749.72,115.32 C754.360023,115.32 757.373326,115.879994 758.76,117 C760.146674,118.120006 760.84,120.826645 760.84,125.12 C760.84,129.413355 760.053341,132.386658 758.48,134.04 C756.906659,135.693342 753.82669,136.52 749.24,136.52 L744.44,136.52 C741.879987,136.52 740.386669,136.266669 739.96,135.76 C739.533331,135.253331 739.32,133.506682 739.32,130.52 L749.16,129.96 C751.24001,129.96 752.57333,129.600004 753.16,128.88 Z M752.04,99.04 C752.093334,97.4133252 752.12,95.7600084 752.12,94.08 C752.12,92.3999916 752.106667,91.2000036 752.08,90.48 C752.053333,89.7599964 751.960001,88.933338 751.8,88 C751.639999,87.066662 751.400002,86.4400016 751.08,86.12 C750.119995,85.2666624 748.613344,84.84 746.56,84.84 C744.506656,84.84 743.213336,85.439994 742.68,86.64 C742.146664,87.840006 741.88,90.3199812 741.88,94.08 C741.88,97.8400188 742.186664,100.453326 742.8,101.92 C743.413336,103.386674 744.71999,104.12 746.72,104.12 C748.72001,104.12 750.09333,103.680004 750.84,102.8 C751.58667,101.919996 751.986666,100.666675 752.04,99.04 Z M783.88,88.52 L783.96,86.36 C783.96,85.6133296 783.880001,85.2133336 783.72,85.16 C783.559999,85.1066664 783.373334,84.9866676 783.16,84.8 C782.946666,84.6133324 782.666668,84.5733328 782.32,84.68 C781.973332,84.7866672 781.560002,84.8133336 781.08,84.76 L776.76,85.32 C775.639994,85.4800008 774.680004,85.56 773.88,85.56 C773.079996,85.56 772.466669,85.3733352 772.04,85 C771.613331,84.6266648 771.186669,82.9200152 770.76,79.88 L780.04,78.04 C783.826686,78.04 786.199995,78.3199972 787.16,78.88 C788.120005,79.4400028 788.813331,79.9066648 789.24,80.28 C789.666669,80.6533352 789.959999,81.3999944 790.12,82.52 C790.386668,83.9066736 790.52,86.0933184 790.52,89.08 L790.52,121.56 C787.426651,121.56 785.480004,121.400002 784.68,121.08 C783.879996,120.759998 783.453334,119.986673 783.4,118.76 L776.76,122.12 C775.266659,122.12 774.160004,122.106667 773.44,122.08 C772.719996,122.053333 772.000004,121.826669 771.28,121.4 C770.559996,120.973331 770.080001,120.546669 769.84,120.12 C769.599999,119.693331 769.373334,118.786674 769.16,117.4 C768.893332,115.746658 768.76,112.360026 768.76,107.24 L768.76,101.72 C768.76,95.6933032 774.013281,92.5733344 784.52,92.36 L783.88,90.44 L783.88,88.52 Z M776.28,115.32 C776.333334,115.32 779.02664,114.306677 784.36,112.28 L783.56,109.96 L783.56,100.44 L784.2,98.6 C782.013322,98.6533336 780.093342,98.8666648 778.44,99.24 C776.786658,99.6133352 775.96,100.119997 775.96,100.76 L775.88,111.32 C775.88,113.98668 776.013332,115.32 776.28,115.32 Z M815.16,73.04 C814.199995,72.0533284 813.72,70.9066732 813.72,69.6 C813.72,68.2933268 814.199995,67.1866712 815.16,66.28 C816.120005,65.3733288 817.239994,64.92 818.52,64.92 C819.800006,64.92 820.919995,65.3733288 821.88,66.28 C822.840005,67.1866712 823.32,68.2933268 823.32,69.6 C823.32,70.9066732 822.840005,72.0533284 821.88,73.04 C820.919995,74.0266716 819.800006,74.52 818.52,74.52 C817.239994,74.52 816.120005,74.0266716 815.16,73.04 Z M815,117.08 L815,78.6 C818.573351,78.6 820.65333,78.799998 821.24,79.2 C821.82667,79.600002 822.12,80.999988 822.12,83.4 L822.12,121.88 C818.546649,121.88 816.46667,121.680002 815.88,121.28 C815.29333,120.879998 815,119.480012 815,117.08 Z M849.72,100.2 L849.8,93.16 C849.8,91.026656 849.746667,89.426672 849.64,88.36 C849.426666,86.1199888 848.173345,84.9466672 845.88,84.84 L838.52,87 L839.24,89.24 L839.24,121.56 C835.666649,121.56 833.58667,121.360002 833,120.96 C832.41333,120.559998 832.12,119.160012 832.12,116.76 L832.12,78.6 C835.213349,78.6 837.159996,78.6799992 837.96,78.84 C838.760004,79.0000008 839.186666,79.479996 839.24,80.28 L845.16,78.04 C848.41335,78.04 850.546662,78.2533312 851.56,78.68 C852.573338,79.1066688 853.346664,79.4799984 853.88,79.8 C854.413336,80.1200016 854.893331,80.7733284 855.32,81.76 C855.746669,82.7466716 856.039999,83.6533292 856.2,84.48 C856.360001,85.3066708 856.519999,86.6266576 856.68,88.44 C856.840001,91.0533464 856.92,94.9999736 856.92,100.28 L856.92,121.56 C853.346649,121.56 851.253336,121.360002 850.64,120.96 C850.026664,120.559998 849.72,119.160012 849.72,116.76 L849.72,100.2 Z M904.44,121.56 C900.866649,121.56 898.78667,121.360002 898.2,120.96 C897.61333,120.559998 897.32,119.160012 897.32,116.76 L897.24,97.16 L897.24,94.04 C897.24,92.8133272 897.253333,91.8800032 897.28,91.24 C897.306667,90.5999968 897.293334,89.8666708 897.24,89.04 C897.186666,88.2133292 897.093334,87.600002 896.96,87.2 C896.826666,86.799998 896.653334,86.3866688 896.44,85.96 C896.066665,85.2133296 895.266673,84.84 894.04,84.84 L886.92,86.92 L887.64,89.24 L887.64,121.56 C884.066649,121.56 881.98667,121.360002 881.4,120.96 C880.81333,120.559998 880.52,119.160012 880.52,116.76 L880.52,78.6 C883.453348,78.6 885.319996,78.6799992 886.12,78.84 C886.920004,79.0000008 887.399999,79.479996 887.56,80.28 L893.56,78.04 C895.906678,78.04 897.693327,78.239998 898.92,78.64 C900.146673,79.040002 901.239995,79.7999944 902.2,80.92 L909.56,78.04 C912.706682,78.04 914.826661,78.2666644 915.92,78.72 C917.013339,79.1733356 917.813331,79.5599984 918.32,79.88 C918.826669,80.2000016 919.279998,80.8666616 919.68,81.88 C920.080002,82.8933384 920.373332,83.799996 920.56,84.6 C920.746668,85.400004 920.893333,86.733324 921,88.6 C921.160001,91.3733472 921.24,95.2666416 921.24,100.28 L921.24,121.56 C917.613315,121.56 915.50667,121.360002 914.92,120.96 C914.33333,120.559998 914.04,119.160012 914.04,116.76 L914.04,100.2 C914.04,92.8399632 913.960001,88.7333376 913.8,87.88 C913.533332,86.3333256 912.786673,85.4000016 911.56,85.08 C911.133331,84.9733328 910.600003,84.8933336 909.96,84.84 L903.72,86.68 L904.44,88.92 L904.44,121.56 Z M941.32,115.32 C944.946685,115.32 948.626648,115.053336 952.36,114.52 L952.36,120.76 C947.399975,121.666671 943.88001,122.12 941.8,122.12 C939.71999,122.12 938.05334,121.973335 936.8,121.68 C935.54666,121.386665 934.466671,121.040002 933.56,120.64 C932.653329,120.239998 931.90667,119.560005 931.32,118.6 C930.73333,117.639995 930.280002,116.746671 929.96,115.92 C929.639998,115.093329 929.400001,113.826675 929.24,112.12 C929.026666,109.826655 928.92,107.38668 928.92,104.8 L928.92,94.12 C928.92,90.3333144 929.026666,87.973338 929.24,87.04 C929.453334,86.106662 929.693332,85.0933388 929.96,84 C930.226668,82.9066612 930.573331,82.1333356 931,81.68 C931.426669,81.2266644 931.946664,80.6933364 932.56,80.08 C933.173336,79.4666636 933.879996,79.0533344 934.68,78.84 C937.186679,78.306664 939.426657,78.04 941.4,78.04 C943.373343,78.04 945.06666,78.3466636 946.48,78.96 C947.89334,79.5733364 948.986663,80.3333288 949.76,81.24 C950.533337,82.1466712 951.133331,83.4266584 951.56,85.08 C952.253337,87.6933464 952.6,91.1066456 952.6,95.32 L952.84,100.76 L935.4,101.16 L936.04,103 C936.04,108.280026 936.293331,111.653326 936.8,113.12 C937.306669,114.586674 938.813321,115.32 941.32,115.32 Z M944.64,86.48 C944.133331,85.3866612 942.92001,84.84 941,84.84 C939.07999,84.84 937.840003,85.3199952 937.28,86.28 C936.719997,87.2400048 936.44,89.319984 936.44,92.52 L935.8,94.28 L946.28,94.28 L945.48,92.52 C945.426666,89.586652 945.146669,87.5733388 944.64,86.48 Z M959.16,100.2 C959.16,96.2533136 959.2,93.4000088 959.28,91.64 C959.36,89.8799912 959.599998,87.8933444 960,85.68 C960.400002,83.4666556 961.053329,81.9333376 961.96,81.08 C964.093344,79.0533232 967.373311,78.04 971.8,78.04 L976.28,79.64 L976.28,63.96 C979.853351,63.96 981.93333,64.159998 982.52,64.56 C983.10667,64.960002 983.4,66.3866544 983.4,68.84 L983.4,121.56 C980.199984,121.56 978.22667,121.426668 977.48,121.16 C976.73333,120.893332 976.333334,120.120006 976.28,118.84 L971.4,122.12 C967.186646,122.12 963.986678,121.133343 961.8,119.16 C960.359993,117.82666 959.506668,114.360028 959.24,108.76 C959.186666,106.999991 959.16,104.146686 959.16,100.2 Z M977.08,112.68 L976.28,110.12 L976.28,88.68 L977,86.44 L970.76,84.84 C968.733323,85.0000008 967.480002,86.1199896 967,88.2 C966.519998,90.2800104 966.28,94.4133024 966.28,100.6 C966.28,106.786698 966.519998,110.679992 967,112.28 C967.58667,114.253343 968.866657,115.266666 970.84,115.32 L977.08,112.68 Z M1015.4,87.72 L1015.4,96.92 C1015.4,100.653352 1015.49333,103.159994 1015.68,104.44 L1016.24,108.28 C1016.42667,109.560006 1016.69333,110.519997 1017.04,111.16 C1017.38667,111.800003 1017.8,112.466663 1018.28,113.16 C1018.76,113.853337 1019.32,114.333332 1019.96,114.6 C1020.6,114.866668 1021.34666,115 1022.2,115 C1023.48001,115 1025.71998,114.733336 1028.92,114.2 L1028.28,112.2 L1028.28,96.84 C1028.28,93.906652 1028.48,92.2000024 1028.88,91.72 C1029.28,91.2399976 1030.67999,91 1033.08,91 L1035.72,91 L1035.72,120.76 C1034.81333,120.866667 1033.40001,121.053332 1031.48,121.32 C1027.74665,121.853336 1024.86668,122.12 1022.84,122.12 C1020.81332,122.12 1019.16001,121.946668 1017.88,121.6 C1016.59999,121.253332 1015.49334,120.826669 1014.56,120.32 C1013.62666,119.813331 1012.8,119.040005 1012.08,118 C1011.36,116.959995 1010.76,116.013338 1010.28,115.16 C1009.8,114.306662 1009.4,113.066675 1009.08,111.44 C1008.76,109.813325 1008.52,108.466672 1008.36,107.4 C1008.2,106.333328 1008.06667,104.746677 1007.96,102.64 C1007.85333,100.533323 1007.8,98.8933392 1007.8,97.72 L1007.8,92.28 C1007.8,87.9599784 1007.84,84.7733436 1007.92,82.72 C1008,80.6666564 1008.28,78.106682 1008.76,75.04 C1009.24,71.973318 1009.96,69.7466736 1010.92,68.36 C1011.88,66.9733264 1013.30666,65.7333388 1015.2,64.64 C1017.09334,63.5466612 1019.42665,63 1022.2,63 L1034.12,65.56 C1033.69333,68.6000152 1032.97334,70.386664 1031.96,70.92 C1031.48,71.1333344 1030.72001,71.24 1029.68,71.24 C1028.63999,71.24 1027.16001,71.0533352 1025.24,70.68 L1022.2,70.12 C1020.43999,70.12 1019.13334,70.7333272 1018.28,71.96 C1017.8,72.6000032 1017.38667,73.2266636 1017.04,73.84 C1016.69333,74.4533364 1016.42667,75.3866604 1016.24,76.64 C1016.05333,77.8933396 1015.90667,78.9466624 1015.8,79.8 C1015.53333,81.3466744 1015.4,83.986648 1015.4,87.72 Z M1043.32,100.28 L1043.32,95.32 C1043.32,92.0133168 1043.4,89.8000056 1043.56,88.68 C1043.72,87.5599944 1043.90667,86.4533388 1044.12,85.36 C1044.33333,84.2666612 1044.58667,83.4666692 1044.88,82.96 C1045.17333,82.4533308 1045.54666,81.8533368 1046,81.16 C1046.45334,80.4666632 1046.97333,79.986668 1047.56,79.72 C1048.14667,79.453332 1048.84,79.1600016 1049.64,78.84 C1050.97334,78.306664 1052.91999,78.04 1055.48,78.04 C1058.04001,78.04 1060.10666,78.3466636 1061.68,78.96 C1063.25334,79.5733364 1064.48,80.2666628 1065.36,81.04 C1066.24,81.8133372 1066.86666,83.3066556 1067.24,85.52 C1067.61334,87.7333444 1067.84,89.6933248 1067.92,91.4 C1068,93.1066752 1068.04,95.426652 1068.04,98.36 L1068.04,104.36 C1068.04,107.77335 1067.96,110.039994 1067.8,111.16 C1067.64,112.280006 1067.45333,113.399994 1067.24,114.52 C1067.02667,115.640006 1066.77333,116.453331 1066.48,116.96 C1066.18667,117.466669 1065.81334,118.079996 1065.36,118.8 C1064.90666,119.520004 1064.37334,120.026665 1063.76,120.32 C1063.14666,120.613335 1062.44,120.919998 1061.64,121.24 C1060.35999,121.82667 1058.65334,122.12 1056.52,122.12 C1054.38666,122.12 1052.74667,122.040001 1051.6,121.88 C1050.45333,121.719999 1049.44,121.373336 1048.56,120.84 C1047.68,120.306664 1046.94667,119.800002 1046.36,119.32 C1045.77333,118.839998 1045.28,118.026672 1044.88,116.88 C1044.48,115.733328 1044.17333,114.760004 1043.96,113.96 C1043.74667,113.159996 1043.61333,111.853342 1043.56,110.04 C1043.4,106.999985 1043.32,103.746684 1043.32,100.28 Z M1055.64,84.84 C1053.23999,84.84 1051.77334,85.8133236 1051.24,87.76 C1050.70666,89.7066764 1050.44,93.0666428 1050.44,97.84 C1050.44,102.613357 1050.46667,105.70666 1050.52,107.12 C1050.57333,108.53334 1050.76,110.026659 1051.08,111.6 C1051.4,113.173341 1051.92,114.186664 1052.64,114.64 C1053.36,115.093336 1054.35999,115.32 1055.64,115.32 C1058.04001,115.32 1059.50666,114.306677 1060.04,112.28 C1060.57334,110.253323 1060.84,106.840024 1060.84,102.04 C1060.84,97.239976 1060.81333,94.1466736 1060.76,92.76 C1060.70667,91.3733264 1060.52,89.9333408 1060.2,88.44 C1059.88,86.9466592 1059.36,85.9733356 1058.64,85.52 C1057.92,85.0666644 1056.92001,84.84 1055.64,84.84 Z M1075.24,100.28 L1075.24,95.32 C1075.24,92.0133168 1075.32,89.8000056 1075.48,88.68 C1075.64,87.5599944 1075.82667,86.4533388 1076.04,85.36 C1076.25333,84.2666612 1076.50667,83.4666692 1076.8,82.96 C1077.09333,82.4533308 1077.46666,81.8533368 1077.92,81.16 C1078.37334,80.4666632 1078.89333,79.986668 1079.48,79.72 C1080.06667,79.453332 1080.76,79.1600016 1081.56,78.84 C1082.89334,78.306664 1084.83999,78.04 1087.4,78.04 C1089.96001,78.04 1092.02666,78.3466636 1093.6,78.96 C1095.17334,79.5733364 1096.4,80.2666628 1097.28,81.04 C1098.16,81.8133372 1098.78666,83.3066556 1099.16,85.52 C1099.53334,87.7333444 1099.76,89.6933248 1099.84,91.4 C1099.92,93.1066752 1099.96,95.426652 1099.96,98.36 L1099.96,104.36 C1099.96,107.77335 1099.88,110.039994 1099.72,111.16 C1099.56,112.280006 1099.37333,113.399994 1099.16,114.52 C1098.94667,115.640006 1098.69333,116.453331 1098.4,116.96 C1098.10667,117.466669 1097.73334,118.079996 1097.28,118.8 C1096.82666,119.520004 1096.29334,120.026665 1095.68,120.32 C1095.06666,120.613335 1094.36,120.919998 1093.56,121.24 C1092.27999,121.82667 1090.57334,122.12 1088.44,122.12 C1086.30666,122.12 1084.66667,122.040001 1083.52,121.88 C1082.37333,121.719999 1081.36,121.373336 1080.48,120.84 C1079.6,120.306664 1078.86667,119.800002 1078.28,119.32 C1077.69333,118.839998 1077.2,118.026672 1076.8,116.88 C1076.4,115.733328 1076.09333,114.760004 1075.88,113.96 C1075.66667,113.159996 1075.53333,111.853342 1075.48,110.04 C1075.32,106.999985 1075.24,103.746684 1075.24,100.28 Z M1087.56,84.84 C1085.15999,84.84 1083.69334,85.8133236 1083.16,87.76 C1082.62666,89.7066764 1082.36,93.0666428 1082.36,97.84 C1082.36,102.613357 1082.38667,105.70666 1082.44,107.12 C1082.49333,108.53334 1082.68,110.026659 1083,111.6 C1083.32,113.173341 1083.84,114.186664 1084.56,114.64 C1085.28,115.093336 1086.27999,115.32 1087.56,115.32 C1089.96001,115.32 1091.42666,114.306677 1091.96,112.28 C1092.49334,110.253323 1092.76,106.840024 1092.76,102.04 C1092.76,97.239976 1092.73333,94.1466736 1092.68,92.76 C1092.62667,91.3733264 1092.44,89.9333408 1092.12,88.44 C1091.8,86.9466592 1091.28,85.9733356 1090.56,85.52 C1089.84,85.0666644 1088.84001,84.84 1087.56,84.84 Z M1125.64,128.88 C1126.22667,128.159996 1126.52,127.09334 1126.52,125.68 C1126.52,124.26666 1126.24,123.320002 1125.68,122.84 C1125.12,122.359998 1123.88001,122.12 1121.96,122.12 C1114.59996,122.12 1110.29334,121.760004 1109.04,121.04 C1107.78666,120.319996 1107.16,117.800022 1107.16,113.48 C1107.16,110.546652 1108.30666,108.12001 1110.6,106.2 C1109.37333,105.079994 1108.49334,103.733341 1107.96,102.16 C1107.42666,100.586659 1107.16,98.3866808 1107.16,95.56 C1107.16,92.7333192 1107.17333,90.8933376 1107.2,90.04 C1107.22667,89.1866624 1107.28,88.09334 1107.36,86.76 C1107.44,85.42666 1107.58667,84.4800028 1107.8,83.92 C1108.01333,83.3599972 1108.32,82.6533376 1108.72,81.8 C1109.12,80.9466624 1109.61333,80.3600016 1110.2,80.04 C1110.78667,79.7199984 1111.50666,79.3733352 1112.36,79 C1113.74667,78.3599968 1116.14665,78.04 1119.56,78.04 L1134.04,78.04 C1134.04,80.6000128 1133.8,82.3066624 1133.32,83.16 C1132.84,84.0133376 1131.88001,84.4933328 1130.44,84.6 C1131.4,86.6800104 1131.88,89.8266456 1131.88,94.04 L1131.88,97.64 C1131.88,100.253346 1131.77333,102.013329 1131.56,102.92 C1131.34667,103.826671 1131.09333,104.733329 1130.8,105.64 C1130.50667,106.546671 1130.16,107.186665 1129.76,107.56 C1129.36,107.933335 1128.85334,108.386664 1128.24,108.92 C1127.62666,109.453336 1126.92,109.826666 1126.12,110.04 C1123.82666,110.520002 1121.52001,110.76 1119.2,110.76 C1116.87999,110.76 1115.42667,110.919998 1114.84,111.24 C1114.25333,111.560002 1113.96,112.146662 1113.96,113 C1113.96,113.853338 1114.09333,114.386666 1114.36,114.6 C1114.94667,115.080002 1117.55998,115.32 1122.2,115.32 C1126.84002,115.32 1129.85333,115.879994 1131.24,117 C1132.62667,118.120006 1133.32,120.826645 1133.32,125.12 C1133.32,129.413355 1132.53334,132.386658 1130.96,134.04 C1129.38666,135.693342 1126.30669,136.52 1121.72,136.52 L1116.92,136.52 C1114.35999,136.52 1112.86667,136.266669 1112.44,135.76 C1112.01333,135.253331 1111.8,133.506682 1111.8,130.52 L1121.64,129.96 C1123.72001,129.96 1125.05333,129.600004 1125.64,128.88 Z M1124.52,99.04 C1124.57333,97.4133252 1124.6,95.7600084 1124.6,94.08 C1124.6,92.3999916 1124.58667,91.2000036 1124.56,90.48 C1124.53333,89.7599964 1124.44,88.933338 1124.28,88 C1124.12,87.066662 1123.88,86.4400016 1123.56,86.12 C1122.6,85.2666624 1121.09334,84.84 1119.04,84.84 C1116.98666,84.84 1115.69334,85.439994 1115.16,86.64 C1114.62666,87.840006 1114.36,90.3199812 1114.36,94.08 C1114.36,97.8400188 1114.66666,100.453326 1115.28,101.92 C1115.89334,103.386674 1117.19999,104.12 1119.2,104.12 C1121.20001,104.12 1122.57333,103.680004 1123.32,102.8 C1124.06667,101.919996 1124.46667,100.666675 1124.52,99.04 Z M1149.56,68.84 L1149.56,121.88 C1145.98665,121.88 1143.90667,121.680002 1143.32,121.28 C1142.73333,120.879998 1142.44,119.480012 1142.44,117.08 L1142.44,63.96 C1145.96002,63.96 1148.02666,64.159998 1148.64,64.56 C1149.25334,64.960002 1149.56,66.3866544 1149.56,68.84 Z M1169.64,115.32 C1173.26668,115.32 1176.94665,115.053336 1180.68,114.52 L1180.68,120.76 C1175.71998,121.666671 1172.20001,122.12 1170.12,122.12 C1168.03999,122.12 1166.37334,121.973335 1165.12,121.68 C1163.86666,121.386665 1162.78667,121.040002 1161.88,120.64 C1160.97333,120.239998 1160.22667,119.560005 1159.64,118.6 C1159.05333,117.639995 1158.6,116.746671 1158.28,115.92 C1157.96,115.093329 1157.72,113.826675 1157.56,112.12 C1157.34667,109.826655 1157.24,107.38668 1157.24,104.8 L1157.24,94.12 C1157.24,90.3333144 1157.34667,87.973338 1157.56,87.04 C1157.77333,86.106662 1158.01333,85.0933388 1158.28,84 C1158.54667,82.9066612 1158.89333,82.1333356 1159.32,81.68 C1159.74667,81.2266644 1160.26666,80.6933364 1160.88,80.08 C1161.49334,79.4666636 1162.2,79.0533344 1163,78.84 C1165.50668,78.306664 1167.74666,78.04 1169.72,78.04 C1171.69334,78.04 1173.38666,78.3466636 1174.8,78.96 C1176.21334,79.5733364 1177.30666,80.3333288 1178.08,81.24 C1178.85334,82.1466712 1179.45333,83.4266584 1179.88,85.08 C1180.57334,87.6933464 1180.92,91.1066456 1180.92,95.32 L1181.16,100.76 L1163.72,101.16 L1164.36,103 C1164.36,108.280026 1164.61333,111.653326 1165.12,113.12 C1165.62667,114.586674 1167.13332,115.32 1169.64,115.32 Z M1172.96,86.48 C1172.45333,85.3866612 1171.24001,84.84 1169.32,84.84 C1167.39999,84.84 1166.16,85.3199952 1165.6,86.28 C1165.04,87.2400048 1164.76,89.319984 1164.76,92.52 L1164.12,94.28 L1174.6,94.28 L1173.8,92.52 C1173.74667,89.586652 1173.46667,87.5733388 1172.96,86.48 Z" id="Logga-in-med-Google" fill="#FFFFFF"></path>
            <g id="24338-google-plus-logo" transform="translate(421.000000, 32.000000)" fill="#FFFFFF" fill-rule="nonzero">
                <path d="M0.107887163,116.351168 C0.0752641398,116.012607 0.0475217265,115.672763 0.0297974069,115.330093 C0.0472648523,115.67302 0.0752641398,116.012607 0.107887163,116.351168 Z M31.5621326,75.6104062 C43.8720579,75.9769657 52.1297927,63.20852 50.0064706,47.0870954 C47.880066,30.9682395 36.1732813,18.0325686 23.8633561,17.6639542 C11.550862,17.2986791 3.29441158,29.6355761 5.42004556,45.7595695 C7.54490892,61.8766273 19.2473267,75.2430761 31.5621326,75.6104062 Z M136.999743,34.2498073 L136.999743,22.836373 C136.999743,10.2762523 126.727344,0 114.167737,0 L22.8358593,0 C10.4904853,0 0.358082631,9.93152709 0.0164399486,22.1990681 C7.82464492,15.3240871 18.6562592,9.58063694 29.8343968,9.58063694 C41.7821294,9.58063694 77.6296943,9.58063694 77.6296943,9.58063694 L66.9334527,18.6272324 L51.7796732,18.6272324 C61.8311605,22.4808591 67.1862169,34.1632407 67.1862169,46.150532 C67.1862169,56.2179456 61.5925244,64.8748629 53.6885053,71.030853 C45.9766282,77.0383699 44.5145003,79.5541958 44.5145003,84.6611117 C44.5145003,89.0197531 52.7753176,96.4344268 57.0949141,99.4830097 C69.722079,108.384985 73.8071494,116.649912 73.8071494,130.449194 C73.8071494,132.647524 73.5340921,134.841486 72.9956838,136.999486 L114.167994,136.999486 C126.727601,136.999486 137,126.731197 137,114.16337 L137,42.8124518 L111.31258,42.8124518 L111.31258,68.4998716 L102.749936,68.4998716 L102.749936,42.8124518 L77.0625161,42.8124518 L77.0625161,34.2500642 L102.749936,34.2500642 L102.749936,8.56264449 L111.31258,8.56264449 L111.31258,34.2500642 L136.999743,34.2500642 L136.999743,34.2498073 Z M24.8695323,102.473539 C27.7611651,102.473539 30.4113362,102.394422 33.1557801,102.394422 C29.5238359,98.8713923 26.6501842,94.5543645 26.6501842,89.2324449 C26.6501842,86.0741766 27.6620117,83.033043 29.0761041,80.3327815 C27.6334986,80.4355311 26.1608389,80.4658423 24.6442536,80.4658423 C14.6962866,80.4658423 6.24743735,77.2446399 0,71.9227202 L0,80.9189684 L0.000770622592,107.908227 C7.15060703,104.513377 15.6392718,102.473539 24.8695323,102.473539 Z M0.45774982,118.704906 C0.308762785,117.974869 0.194710642,117.232503 0.117648382,116.479605 C0.194453767,117.232503 0.309019659,117.974869 0.45774982,118.704906 Z M60.9341558,127.479729 C58.9194915,119.612186 51.7758201,115.711808 41.8175781,108.807286 C38.1956519,107.639536 34.205625,106.951113 29.9245596,106.906674 C17.9346996,106.777466 6.76452511,111.581271 0.462116681,118.729566 C2.59211752,129.126035 11.838818,136.999486 22.8361161,136.999486 L61.1591776,136.999486 C61.4021806,135.510643 61.519829,133.971453 61.519829,132.392961 C61.519829,130.71583 61.3143296,129.075945 60.9341558,127.479729 Z" id="Shape"></path>
            </g>
        </g>
    </g>
</svg>