<?xml version="1.0" encoding="UTF-8"?>
<svg width="109px" height="14px" viewBox="0 0 109 14" version="1.1" xmlns="http://www.w3.org/2000/svg" xmlns:xlink="http://www.w3.org/1999/xlink">
    <!-- Generator: Sketch 50.2 (55047) - http://www.bohemiancoding.com/sketch -->
    <title>Group 16</title>
    <desc>Created with Sketch.</desc>
    <defs></defs>
    <g id="Page-1" stroke="none" stroke-width="1" fill="none" fill-rule="evenodd">
        <g id="Group-16">
            <rect id="Rectangle-2" fill="#417505" x="0" y="0.31237721" width="109" height="13.1119843" rx="2"></rect>
            <path d="M43.0690903,7.81534768 C43.2583411,7.81534768 43.3696119,7.82910926 43.4029061,7.85663284 C43.4362002,7.88415642 43.452847,7.97704709 43.452847,8.13530766 L43.452847,8.27464507 L41.9230769,8.27464507 L41.9230769,4.55898078 L42.0545005,4.55898078 C42.2437513,4.55898078 42.3550222,4.57188227 42.3883163,4.59768562 C42.4216104,4.62348897 42.4382572,4.71551955 42.4382572,4.87378012 L42.4382572,7.68633156 L42.3909448,7.81534768 L43.0690903,7.81534768 Z M43.7419788,6.90191354 L43.7419788,6.58195356 C43.7419788,6.36864584 43.7472357,6.22586943 43.7577497,6.15362004 C43.7682636,6.08137065 43.7805297,6.00998245 43.7945482,5.93945328 C43.8085668,5.86892411 43.8252136,5.81731818 43.8444892,5.78463393 C43.8637647,5.75194969 43.8882969,5.71324524 43.9180864,5.66851943 C43.9478759,5.62379361 43.9820456,5.59283005 44.0205967,5.57562782 C44.0591478,5.55842558 44.1047076,5.53950341 44.1572772,5.51886072 C44.2448934,5.48445625 44.372811,5.46725428 44.541034,5.46725428 C44.709257,5.46725428 44.84506,5.48703655 44.948447,5.52660169 C45.051834,5.56616683 45.1324397,5.61089197 45.1902663,5.66077846 C45.248093,5.71066494 45.2892719,5.80699601 45.3138045,5.94977457 C45.338337,6.09255312 45.3532315,6.21898766 45.3584885,6.32908197 C45.3637454,6.43917627 45.3663739,6.58883348 45.3663739,6.77805807 L45.3663739,7.16510643 C45.3663739,7.38529504 45.361117,7.53151185 45.3506031,7.60376124 C45.3400891,7.67601063 45.327823,7.74825894 45.3138045,7.82050833 C45.2997859,7.89275771 45.2831391,7.94522375 45.2638635,7.97790799 C45.244588,8.01059224 45.2200558,8.05015679 45.1902663,8.09660282 C45.1604768,8.14304886 45.1254309,8.17573262 45.0851275,8.19465508 C45.0448241,8.21357754 44.9983882,8.23335981 44.9458185,8.25400249 C44.861707,8.29184741 44.7495601,8.31076959 44.6093742,8.31076959 C44.4691884,8.31076959 44.3614222,8.30560899 44.2860723,8.29528765 C44.2107224,8.28496631 44.1441352,8.26260374 44.0863085,8.22819927 C44.0284819,8.1937948 43.9802937,8.16111104 43.9417426,8.13014702 C43.9031915,8.09918299 43.870774,8.04671696 43.8444892,7.97274735 C43.8182044,7.89877774 43.7980529,7.83599052 43.7840344,7.78438381 C43.7700158,7.73277711 43.7612543,7.64848742 43.7577497,7.53151221 C43.7472357,7.33540673 43.7419788,7.1255426 43.7419788,6.90191354 Z M44.5515479,5.90590909 C44.3938388,5.90590909 44.2974625,5.96869631 44.2624161,6.09427262 C44.2273696,6.21984894 44.2098467,6.43659386 44.2098467,6.74451388 C44.2098467,7.05243389 44.211599,7.25197683 44.2151036,7.34314868 C44.2186082,7.43432053 44.2308743,7.5306516 44.2519022,7.63214479 C44.2729301,7.73363798 44.3070998,7.79900549 44.3544126,7.82824929 C44.4017253,7.85749309 44.4674364,7.87211477 44.5515479,7.87211477 C44.7092569,7.87211477 44.8056332,7.80674726 44.8406797,7.67601027 C44.8757261,7.54527328 44.8932491,7.32508797 44.8932491,7.01544773 C44.8932491,6.70580749 44.8914968,6.50626455 44.8879922,6.41681293 C44.8844875,6.3273613 44.8722214,6.23447062 44.8511936,6.13813811 C44.8301657,6.04180559 44.7959959,5.97901837 44.7486832,5.94977457 C44.7013705,5.92053077 44.6356594,5.90590909 44.5515479,5.90590909 Z M47.0538522,8.74684408 C47.0924033,8.70039804 47.1116786,8.63159013 47.1116786,8.54041828 C47.1116786,8.44924643 47.0932795,8.38817941 47.0564807,8.35721539 C47.0196819,8.32625137 46.9382001,8.31076959 46.8120329,8.31076959 C46.3283918,8.31076959 46.045396,8.28754692 45.9630368,8.24110088 C45.8806776,8.19465484 45.8394986,8.03209616 45.8394986,7.75341994 C45.8394986,7.56419535 45.9148474,7.40765736 46.0655472,7.28380126 C45.9849403,7.21155187 45.9271145,7.12468189 45.8920681,7.0231887 C45.8570216,6.92169551 45.8394986,6.77977919 45.8394986,6.5974355 C45.8394986,6.4150918 45.8403748,6.29639816 45.8421271,6.241351 C45.8438794,6.18630385 45.847384,6.11577574 45.852641,6.02976456 C45.857898,5.94375339 45.8675356,5.88268637 45.8815542,5.84656167 C45.8955728,5.81043698 45.9157242,5.76485174 45.942009,5.70980458 C45.9682939,5.65475743 46.0007113,5.61691308 46.0392624,5.5962704 C46.0778135,5.57562771 46.1251255,5.55326514 46.1811999,5.52918201 C46.2723207,5.48789665 46.4300273,5.46725428 46.6543246,5.46725428 L47.6058311,5.46725428 C47.6058311,5.63239574 47.5900605,5.74248839 47.5585187,5.79753555 C47.5269768,5.8525827 47.4638942,5.88354626 47.3692687,5.89042715 C47.4323524,6.02460459 47.4638937,6.22758792 47.4638937,6.49938325 L47.4638937,6.73161226 C47.4638937,6.90019417 47.4568845,7.01372722 47.4428659,7.07221482 C47.4288473,7.13070242 47.4122005,7.18918915 47.392925,7.24767675 C47.3736494,7.30616435 47.3508696,7.34744909 47.3245847,7.37153222 C47.2982999,7.39561535 47.2650063,7.42485872 47.2247028,7.45926319 C47.1843994,7.49366766 47.1379636,7.51775043 47.0853939,7.53151221 C46.9346941,7.56247624 46.7831205,7.57795802 46.6306684,7.57795802 C46.4782163,7.57795802 46.3827162,7.5882792 46.3441651,7.60892189 C46.305614,7.62956457 46.2863387,7.66740892 46.2863387,7.72245607 C46.2863387,7.77750323 46.2951002,7.81190718 46.3126234,7.82566897 C46.3511745,7.85663299 46.5228996,7.87211477 46.8278037,7.87211477 C47.1327079,7.87211477 47.3307174,7.90823893 47.4218382,7.98048832 C47.5129589,8.0527377 47.5585187,8.22733778 47.5585187,8.50429377 C47.5585187,8.78124976 47.5068259,8.97305181 47.4034389,9.07970567 C47.3000518,9.18635953 47.0976616,9.23968566 46.7962621,9.23968566 L46.4808456,9.23968566 C46.3126226,9.23968566 46.214494,9.22334378 46.1864568,9.19065953 C46.1584197,9.15797528 46.1444013,9.04530233 46.1444013,8.85263729 L46.7910051,8.81651278 C46.9276863,8.81651278 47.0153011,8.79329011 47.0538522,8.74684408 Z M46.980255,6.82192355 C46.9837597,6.71698991 46.985512,6.61033765 46.985512,6.50196357 C46.985512,6.39358948 46.9846358,6.31618059 46.9828835,6.26973455 C46.9811312,6.22328851 46.9749982,6.16996238 46.9644842,6.10975456 C46.9539703,6.04954674 46.9381996,6.00912209 46.9171717,5.98847941 C46.8540881,5.93343225 46.7550834,5.90590909 46.6201545,5.90590909 C46.4852257,5.90590909 46.4002393,5.94461354 46.3651928,6.0220236 C46.3301464,6.09943366 46.3126234,6.25941205 46.3126234,6.50196357 C46.3126234,6.74451509 46.3327748,6.91309447 46.3730783,7.00770676 C46.4133817,7.10231906 46.4992442,7.1496245 46.6306684,7.1496245 C46.7620926,7.1496245 46.8523359,7.12124123 46.9014009,7.06447386 C46.950466,7.00770648 46.9767504,6.92685718 46.980255,6.82192355 Z M49.2933095,8.74684408 C49.3318606,8.70039804 49.3511358,8.63159013 49.3511358,8.54041828 C49.3511358,8.44924643 49.3327367,8.38817941 49.295938,8.35721539 C49.2591392,8.32625137 49.1776574,8.31076959 49.0514902,8.31076959 C48.5678491,8.31076959 48.2848532,8.28754692 48.202494,8.24110088 C48.1201349,8.19465484 48.0789559,8.03209616 48.0789559,7.75341994 C48.0789559,7.56419535 48.1543047,7.40765736 48.3050044,7.28380126 C48.2243976,7.21155187 48.1665718,7.12468189 48.1315253,7.0231887 C48.0964789,6.92169551 48.0789559,6.77977919 48.0789559,6.5974355 C48.0789559,6.4150918 48.0798321,6.29639816 48.0815844,6.241351 C48.0833367,6.18630385 48.0868413,6.11577574 48.0920983,6.02976456 C48.0973552,5.94375339 48.1069929,5.88268637 48.1210114,5.84656167 C48.13503,5.81043698 48.1551814,5.76485174 48.1814663,5.70980458 C48.2077511,5.65475743 48.2401686,5.61691308 48.2787197,5.5962704 C48.3172708,5.57562771 48.3645828,5.55326514 48.4206571,5.52918201 C48.5117779,5.48789665 48.6694846,5.46725428 48.8937819,5.46725428 L49.8452884,5.46725428 C49.8452884,5.63239574 49.8295177,5.74248839 49.7979759,5.79753555 C49.7664341,5.8525827 49.7033514,5.88354626 49.608726,5.89042715 C49.6718096,6.02460459 49.703351,6.22758792 49.703351,6.49938325 L49.703351,6.73161226 C49.703351,6.90019417 49.6963418,7.01372722 49.6823232,7.07221482 C49.6683046,7.13070242 49.6516578,7.18918915 49.6323822,7.24767675 C49.6131067,7.30616435 49.5903268,7.34744909 49.564042,7.37153222 C49.5377572,7.39561535 49.5044635,7.42485872 49.4641601,7.45926319 C49.4238567,7.49366766 49.3774208,7.51775043 49.3248511,7.53151221 C49.1741514,7.56247624 49.0225777,7.57795802 48.8701257,7.57795802 C48.7176736,7.57795802 48.6221734,7.5882792 48.5836223,7.60892189 C48.5450712,7.62956457 48.525796,7.66740892 48.525796,7.72245607 C48.525796,7.77750323 48.5345574,7.81190718 48.5520807,7.82566897 C48.5906318,7.85663299 48.7623568,7.87211477 49.067261,7.87211477 C49.3721651,7.87211477 49.5701746,7.90823893 49.6612954,7.98048832 C49.7524162,8.0527377 49.7979759,8.22733778 49.7979759,8.50429377 C49.7979759,8.78124976 49.7462832,8.97305181 49.6428961,9.07970567 C49.5395091,9.18635953 49.3371188,9.23968566 49.0357193,9.23968566 L48.7203028,9.23968566 C48.5520798,9.23968566 48.4539512,9.22334378 48.4259141,9.19065953 C48.3978769,9.15797528 48.3838585,9.04530233 48.3838585,8.85263729 L49.0304624,8.81651278 C49.1671436,8.81651278 49.2547584,8.79329011 49.2933095,8.74684408 Z M49.2197123,6.82192355 C49.2232169,6.71698991 49.2249692,6.61033765 49.2249692,6.50196357 C49.2249692,6.39358948 49.2240931,6.31618059 49.2223408,6.26973455 C49.2205884,6.22328851 49.2144554,6.16996238 49.2039415,6.10975456 C49.1934275,6.04954674 49.1776569,6.00912209 49.156629,5.98847941 C49.0935454,5.93343225 48.9945406,5.90590909 48.8596118,5.90590909 C48.7246829,5.90590909 48.6396965,5.94461354 48.6046501,6.0220236 C48.5696036,6.09943366 48.5520807,6.25941205 48.5520807,6.50196357 C48.5520807,6.74451509 48.5722321,6.91309447 48.6125355,7.00770676 C48.6528389,7.10231906 48.7387015,7.1496245 48.8701257,7.1496245 C49.0015499,7.1496245 49.0917931,7.12124123 49.1408582,7.06447386 C49.1899232,7.00770648 49.2162077,6.92685718 49.2197123,6.82192355 Z M51.3119752,6.14329875 L51.3172321,6.00396134 C51.3172321,5.95579508 51.3119752,5.92999211 51.3014613,5.92655167 C51.2909474,5.92311122 51.2786813,5.91537033 51.2646627,5.90332877 C51.2506441,5.8912872 51.232245,5.8887069 51.2094648,5.8955878 C51.1866846,5.90246869 51.159524,5.90418889 51.1279822,5.90074844 L50.8441073,5.93687296 C50.7705098,5.9471943 50.7074271,5.95235489 50.6548574,5.95235489 C50.6022878,5.95235489 50.5619849,5.94031351 50.5339478,5.91623038 C50.5059106,5.89214725 50.4778739,5.78205459 50.4498367,5.58594911 L51.059642,5.46725428 C51.3084718,5.46725428 51.4644262,5.48531635 51.5275098,5.52144105 C51.5905934,5.55756574 51.6361531,5.5876692 51.6641903,5.61175233 C51.6922275,5.63583546 51.7115027,5.684001 51.7220166,5.75625039 C51.7395399,5.84570201 51.7483014,5.98675823 51.7483014,6.17942326 L51.7483014,8.27464507 C51.5450319,8.27464507 51.4171143,8.26432389 51.3645446,8.2436812 C51.3119749,8.22303852 51.2839382,8.17315279 51.2804335,8.0940225 L50.8441073,8.31076959 C50.7459773,8.31076959 50.673257,8.30990949 50.6259443,8.30818926 C50.5786315,8.30646904 50.5313195,8.29184736 50.4840068,8.26432378 C50.4366941,8.23680021 50.4051528,8.20927704 50.3893819,8.18175346 C50.373611,8.15422989 50.3587164,8.09574316 50.3446979,8.00629154 C50.3271746,7.89963768 50.3184132,7.68117257 50.3184132,7.35088964 L50.3184132,6.99480515 C50.3184132,6.60603463 50.6636156,6.40477149 51.3540307,6.3910097 L51.3119752,6.26715423 L51.3119752,6.14329875 Z M50.8125657,7.87211477 C50.8160703,7.87211477 50.9930523,7.80674726 51.3435168,7.67601027 L51.2909474,7.52635157 L51.2909474,6.91223483 L51.3330029,6.79354 C51.1893125,6.79698045 51.0631471,6.81074203 50.9545031,6.83482516 C50.8458591,6.85890829 50.7915379,6.89159205 50.7915379,6.93287741 L50.786281,7.61408253 C50.786281,7.78610489 50.7950425,7.87211477 50.8125657,7.87211477 Z M53.3674395,5.14471397 C53.3043558,5.0810657 53.2728145,5.0070972 53.2728145,4.92280624 C53.2728145,4.83851529 53.3043558,4.76712708 53.3674395,4.70863948 C53.4305231,4.65015188 53.5041195,4.62090852 53.588231,4.62090852 C53.6723425,4.62090852 53.745939,4.65015188 53.8090226,4.70863948 C53.8721062,4.76712708 53.9036475,4.83851529 53.9036475,4.92280624 C53.9036475,5.0070972 53.8721062,5.0810657 53.8090226,5.14471397 C53.745939,5.20836224 53.6723425,5.2401859 53.588231,5.2401859 C53.5041195,5.2401859 53.4305231,5.20836224 53.3674395,5.14471397 Z M53.3569256,7.98564896 L53.3569256,5.50337879 C53.5917368,5.50337879 53.728416,5.51628027 53.7669671,5.54208363 C53.8055182,5.56788698 53.8247934,5.65819736 53.8247934,5.81301748 L53.8247934,8.29528765 C53.5899822,8.29528765 53.453303,8.28238617 53.4147519,8.25658282 C53.3762008,8.23077946 53.3569256,8.14046908 53.3569256,7.98564896 Z M55.6384384,6.8967529 L55.6436953,6.44261615 C55.6436953,6.30499827 55.6401907,6.2017864 55.6331814,6.13297746 C55.6191628,5.98847868 55.5368049,5.91278998 55.3861052,5.90590909 L54.9024665,6.0452465 L54.949779,6.18974455 L54.949779,8.27464507 C54.7149677,8.27464507 54.5782886,8.26174359 54.5397375,8.23594024 C54.5011864,8.21013688 54.4819112,8.1198265 54.4819112,7.96500638 L54.4819112,5.50337879 C54.6851806,5.50337879 54.8130982,5.50853938 54.8656679,5.51886072 C54.9182376,5.52918207 54.9462743,5.56014563 54.949779,5.61175233 L55.3387927,5.46725428 C55.5525761,5.46725428 55.6927598,5.48101586 55.759348,5.50853943 C55.8259363,5.53606301 55.8767529,5.56014578 55.9117994,5.58078846 C55.9468458,5.60143115 55.9783871,5.64357599 56.0064243,5.70722426 C56.0344615,5.77087253 56.0537367,5.82935926 56.0642507,5.88268619 C56.0747646,5.93601312 56.0852784,6.0211629 56.0957923,6.13813811 C56.1063063,6.30672001 56.1115631,6.56130928 56.1115631,6.90191354 L56.1115631,8.27464507 C55.8767519,8.27464507 55.7391966,8.26174359 55.6988932,8.23594024 C55.6585898,8.21013688 55.6384384,8.1198265 55.6384384,7.96500638 L55.6384384,6.8967529 Z M59.2341866,8.27464507 C58.9993754,8.27464507 58.8626963,8.26174359 58.8241452,8.23594024 C58.7855941,8.21013688 58.7663188,8.1198265 58.7663188,7.96500638 L58.7610619,6.70064839 L58.7610619,6.49938325 C58.7610619,6.42025296 58.761938,6.36004604 58.7636903,6.31876068 C58.7654427,6.27747531 58.7645665,6.23016987 58.7610619,6.17684294 C58.7575572,6.12351601 58.7514242,6.08395146 58.7426626,6.05814811 C58.733901,6.03234476 58.722511,6.00568169 58.7084925,5.97815812 C58.6839599,5.92999186 58.631391,5.90590909 58.5507842,5.90590909 L58.0829164,6.04008585 L58.1302288,6.18974455 L58.1302288,8.27464507 C57.8954176,8.27464507 57.7587385,8.26174359 57.7201874,8.23594024 C57.6816363,8.21013688 57.662361,8.1198265 57.662361,7.96500638 L57.662361,5.50337879 C57.8551165,5.50337879 57.9777773,5.50853938 58.0303469,5.51886072 C58.0829166,5.52918207 58.114458,5.56014563 58.1249719,5.61175233 L58.5192425,5.46725428 C58.6734469,5.46725428 58.7908508,5.48015576 58.8714576,5.50595911 C58.9520645,5.53176247 59.0239086,5.5807881 59.0869923,5.65303749 L59.5706309,5.46725428 C59.777405,5.46725428 59.9167126,5.48187596 59.9885578,5.51111976 C60.060403,5.54036356 60.1129719,5.56530642 60.1462661,5.58594911 C60.1795602,5.60659179 60.2093492,5.64959673 60.2356341,5.71496523 C60.2619189,5.78033372 60.2811942,5.83882045 60.2934604,5.89042715 C60.3057267,5.94203386 60.3153643,6.02804375 60.3223736,6.1484594 C60.3328876,6.32736264 60.3381444,6.57851152 60.3381444,6.90191354 L60.3381444,8.27464507 C60.0998286,8.27464507 59.9613971,8.26174359 59.922846,8.23594024 C59.8842949,8.21013688 59.8650197,8.1198265 59.8650197,7.96500638 L59.8650197,6.8967529 C59.8650197,6.4219712 59.8597628,6.15706075 59.8492488,6.10201359 C59.8317256,6.00224063 59.7826613,5.94203371 59.7020545,5.92139102 C59.6740173,5.91451013 59.6389714,5.90934954 59.5969156,5.90590909 L59.1868742,6.02460392 L59.2341866,6.16910198 L59.2341866,8.27464507 Z M61.6576369,7.87211477 C61.8959528,7.87211477 62.1377697,7.8549128 62.3830948,7.82050833 L62.3830948,8.22303862 C62.0571628,8.28152622 61.8258597,8.31076959 61.6891785,8.31076959 C61.5524973,8.31076959 61.4429788,8.3013085 61.3606196,8.28238604 C61.2782605,8.26346358 61.2072925,8.24110101 61.1477135,8.21529766 C61.0881345,8.1894943 61.0390702,8.14562926 61.0005191,8.08370121 C60.961968,8.02177316 60.932179,7.96414654 60.9111511,7.91081961 C60.8901232,7.85749268 60.8743526,7.77578329 60.8638386,7.66568898 C60.8498201,7.51774976 60.8428109,7.36035166 60.8428109,7.19348998 L60.8428109,6.50454389 C60.8428109,6.26027215 60.8498201,6.10803465 60.8638386,6.04782682 C60.8778572,5.987619 60.8936279,5.92225148 60.9111511,5.85172232 C60.9286743,5.78119315 60.9514542,5.73130742 60.9794914,5.70206362 C61.0075285,5.67281982 61.0416983,5.63841586 61.0820017,5.59885072 C61.1223051,5.55928558 61.168741,5.53262251 61.2213107,5.51886072 C61.386029,5.48445625 61.5332219,5.46725428 61.6628938,5.46725428 C61.7925657,5.46725428 61.9038365,5.48703655 61.9967096,5.52660169 C62.0895827,5.56616683 62.1614269,5.61519247 62.2122442,5.67368007 C62.2630616,5.73216767 62.3024883,5.81473716 62.3305254,5.92139102 C62.3760858,6.08997293 62.3988657,6.31015824 62.3988657,6.58195356 L62.4146365,6.93287741 L61.2686232,6.95868064 L61.3106787,7.07737547 C61.3106787,7.41797973 61.3273255,7.63558475 61.3606196,7.73019704 C61.3939138,7.82480934 61.4929185,7.87211477 61.6576369,7.87211477 Z M61.8758,6.01170231 C61.8425058,5.94117314 61.7627763,5.90590909 61.6366091,5.90590909 C61.5104419,5.90590909 61.4289601,5.93687265 61.3921613,5.9988007 C61.3553625,6.06072874 61.3369634,6.19490417 61.3369634,6.40133099 L61.2949079,6.51486518 L61.9835673,6.51486518 L61.9309978,6.40133099 C61.9274932,6.2121064 61.9090941,6.08223147 61.8758,6.01170231 Z M62.8299349,6.8967529 C62.8299349,6.64215981 62.8325634,6.45809865 62.8378203,6.3445639 C62.8430773,6.23102915 62.858848,6.10287441 62.8851328,5.96009586 C62.9114176,5.8173173 62.9543489,5.71840593 63.0139279,5.66335878 C63.1541137,5.53262179 63.3696462,5.46725428 63.6605317,5.46725428 L63.9549205,5.57046717 L63.9549205,4.55898078 C64.1897317,4.55898078 64.3264108,4.57188227 64.3649619,4.59768562 C64.403513,4.62348897 64.4227883,4.71551955 64.4227883,4.87378012 L64.4227883,8.27464507 C64.2125096,8.27464507 64.0828396,8.26604408 64.0337746,8.24884185 C63.9847096,8.23163961 63.9584251,8.18175388 63.9549205,8.09918315 L63.634247,8.31076959 C63.35738,8.31076959 63.1471045,8.24712227 63.003414,8.11982573 C62.9087886,8.03381455 62.8527151,7.81018884 62.8351919,7.4489419 C62.8316872,7.33540714 62.8299349,7.15134598 62.8299349,6.8967529 Z M64.0074899,7.70181349 L63.9549205,7.53667286 L63.9549205,6.15362004 L64.002233,6.00912198 L63.5921915,5.90590909 C63.459015,5.91623043 63.376657,5.98847873 63.3451152,6.12265617 C63.3135734,6.25683361 63.2978027,6.52346426 63.2978027,6.92255612 C63.2978027,7.32164799 63.3135734,7.57279686 63.3451152,7.67601027 C63.3836663,7.80330681 63.4677765,7.86867433 63.5974484,7.87211477 L64.0074899,7.70181349 Z M66.5255651,6.0916923 L66.5255651,6.68516646 C66.5255651,6.92599776 66.5316981,7.08769634 66.5439644,7.17026708 L66.580763,7.41797803 C66.5930292,7.50054876 66.6105522,7.56247588 66.6333324,7.60376124 C66.6561126,7.64504661 66.6832732,7.68805155 66.714815,7.73277736 C66.7463568,7.77750318 66.783155,7.80846674 66.8252108,7.82566897 C66.8672665,7.84287121 66.9163308,7.85147219 66.9724051,7.85147219 C67.0565166,7.85147219 67.2037095,7.83427022 67.4139883,7.79986575 L67.3719327,7.67084963 L67.3719327,6.68000581 C67.3719327,6.49078122 67.3850749,6.38068857 67.4113598,6.34972454 C67.4376446,6.31876052 67.5296402,6.30327874 67.6873492,6.30327874 L67.8608283,6.30327874 L67.8608283,8.22303862 C67.8012493,8.22991952 67.7083776,8.2419609 67.5822104,8.25916314 C67.3368852,8.29356761 67.1476372,8.31076959 67.0144607,8.31076959 C66.8812841,8.31076959 66.7726418,8.2995883 66.6885303,8.27722539 C66.6044188,8.25486249 66.5316985,8.22733932 66.4703672,8.19465508 C66.4090359,8.16197083 66.3547147,8.11208509 66.307402,8.04499638 C66.2600893,7.97790766 66.2206626,7.91684064 66.1891208,7.86179348 C66.157579,7.80674633 66.1312945,7.72675714 66.1102667,7.6218235 C66.0892388,7.51688986 66.0734681,7.43001988 66.0629542,7.36121093 C66.0524403,7.29240199 66.0436788,7.19005023 66.0366695,7.05415257 C66.0296602,6.91825491 66.0261556,6.81246274 66.0261556,6.73677291 L66.0261556,6.38584906 C66.0261556,6.10717284 66.028784,5.90160921 66.034041,5.769152 C66.039298,5.63669479 66.0576971,5.4715558 66.0892389,5.27373009 C66.1207807,5.07590439 66.1680927,4.93226787 66.2311763,4.84281625 C66.2942599,4.75336463 66.3880078,4.67337543 66.5124227,4.60284626 C66.6368376,4.5323171 66.7901636,4.49705305 66.9724051,4.49705305 L67.7556895,4.66219368 C67.7276523,4.85829916 67.6803403,4.97355241 67.6137521,5.00795688 C67.5822102,5.02171867 67.5322698,5.02859946 67.4639292,5.02859946 C67.3955886,5.02859946 67.2983362,5.01655808 67.1721689,4.99247495 L66.9724051,4.95635044 C66.8567518,4.95635044 66.7708893,4.99591498 66.714815,5.07504527 C66.6832732,5.11633063 66.6561126,5.15675528 66.6333324,5.19632042 C66.6105522,5.23588556 66.5930292,5.29609248 66.580763,5.37694299 C66.5684967,5.4577935 66.5588591,5.52574131 66.5518498,5.58078846 C66.5343266,5.68056143 66.5255651,5.85086101 66.5255651,6.0916923 Z M68.3602378,6.90191354 L68.3602378,6.58195356 C68.3602378,6.36864584 68.3654947,6.22586943 68.3760086,6.15362004 C68.3865226,6.08137065 68.3987886,6.00998245 68.4128072,5.93945328 C68.4268258,5.86892411 68.4434726,5.81731818 68.4627482,5.78463393 C68.4820237,5.75194969 68.5065559,5.71324524 68.5363454,5.66851943 C68.5661348,5.62379361 68.6003046,5.59283005 68.6388557,5.57562782 C68.6774068,5.55842558 68.7229665,5.53950341 68.7755362,5.51886072 C68.8631524,5.48445625 68.99107,5.46725428 69.159293,5.46725428 C69.327516,5.46725428 69.4633189,5.48703655 69.566706,5.52660169 C69.670093,5.56616683 69.7506986,5.61089197 69.8085253,5.66077846 C69.8663519,5.71066494 69.9075309,5.80699601 69.9320634,5.94977457 C69.956596,6.09255312 69.9714905,6.21898766 69.9767474,6.32908197 C69.9820044,6.43917627 69.9846329,6.58883348 69.9846329,6.77805807 L69.9846329,7.16510643 C69.9846329,7.38529504 69.979376,7.53151185 69.968862,7.60376124 C69.9583481,7.67601063 69.946082,7.74825894 69.9320634,7.82050833 C69.9180449,7.89275771 69.901398,7.94522375 69.8821225,7.97790799 C69.8628469,8.01059224 69.8383148,8.05015679 69.8085253,8.09660282 C69.7787358,8.14304886 69.7436899,8.17573262 69.7033865,8.19465508 C69.663083,8.21357754 69.6166472,8.23335981 69.5640775,8.25400249 C69.479966,8.29184741 69.367819,8.31076959 69.2276332,8.31076959 C69.0874474,8.31076959 68.9796812,8.30560899 68.9043313,8.29528765 C68.8289814,8.28496631 68.7623941,8.26260374 68.7045675,8.22819927 C68.6467408,8.1937948 68.5985527,8.16111104 68.5600016,8.13014702 C68.5214505,8.09918299 68.489033,8.04671696 68.4627482,7.97274735 C68.4364633,7.89877774 68.4163119,7.83599052 68.4022933,7.78438381 C68.3882748,7.73277711 68.3795133,7.64848742 68.3760086,7.53151221 C68.3654947,7.33540673 68.3602378,7.1255426 68.3602378,6.90191354 Z M69.1698069,5.90590909 C69.0120978,5.90590909 68.9157215,5.96869631 68.8806751,6.09427262 C68.8456286,6.21984894 68.8281056,6.43659386 68.8281056,6.74451388 C68.8281056,7.05243389 68.8298579,7.25197683 68.8333626,7.34314868 C68.8368672,7.43432053 68.8491333,7.5306516 68.8701612,7.63214479 C68.891189,7.73363798 68.9253588,7.79900549 68.9726715,7.82824929 C69.0199842,7.85749309 69.0856954,7.87211477 69.1698069,7.87211477 C69.3275159,7.87211477 69.4238922,7.80674726 69.4589387,7.67601027 C69.4939851,7.54527328 69.5115081,7.32508797 69.5115081,7.01544773 C69.5115081,6.70580749 69.5097558,6.50626455 69.5062511,6.41681293 C69.5027465,6.3273613 69.4904804,6.23447062 69.4694525,6.13813811 C69.4484247,6.04180559 69.4142549,5.97901837 69.3669422,5.94977457 C69.3196295,5.92053077 69.2539183,5.90590909 69.1698069,5.90590909 Z M70.4577576,6.90191354 L70.4577576,6.58195356 C70.4577576,6.36864584 70.4630145,6.22586943 70.4735285,6.15362004 C70.4840424,6.08137065 70.4963085,6.00998245 70.510327,5.93945328 C70.5243456,5.86892411 70.5409924,5.81731818 70.560268,5.78463393 C70.5795435,5.75194969 70.6040757,5.71324524 70.6338652,5.66851943 C70.6636547,5.62379361 70.6978244,5.59283005 70.7363755,5.57562782 C70.7749266,5.55842558 70.8204864,5.53950341 70.873056,5.51886072 C70.9606722,5.48445625 71.0885898,5.46725428 71.2568128,5.46725428 C71.4250358,5.46725428 71.5608388,5.48703655 71.6642258,5.52660169 C71.7676128,5.56616683 71.8482185,5.61089197 71.9060451,5.66077846 C71.9638718,5.71066494 72.0050507,5.80699601 72.0295833,5.94977457 C72.0541158,6.09255312 72.0690103,6.21898766 72.0742673,6.32908197 C72.0795242,6.43917627 72.0821527,6.58883348 72.0821527,6.77805807 L72.0821527,7.16510643 C72.0821527,7.38529504 72.0768958,7.53151185 72.0663819,7.60376124 C72.0558679,7.67601063 72.0436018,7.74825894 72.0295833,7.82050833 C72.0155647,7.89275771 71.9989179,7.94522375 71.9796423,7.97790799 C71.9603668,8.01059224 71.9358346,8.05015679 71.9060451,8.09660282 C71.8762556,8.14304886 71.8412097,8.17573262 71.8009063,8.19465508 C71.7606029,8.21357754 71.714167,8.23335981 71.6615973,8.25400249 C71.5774858,8.29184741 71.4653389,8.31076959 71.325153,8.31076959 C71.1849672,8.31076959 71.077201,8.30560899 71.0018511,8.29528765 C70.9265012,8.28496631 70.859914,8.26260374 70.8020873,8.22819927 C70.7442607,8.1937948 70.6960725,8.16111104 70.6575214,8.13014702 C70.6189703,8.09918299 70.5865528,8.04671696 70.560268,7.97274735 C70.5339832,7.89877774 70.5138317,7.83599052 70.4998132,7.78438381 C70.4857946,7.73277711 70.4770331,7.64848742 70.4735285,7.53151221 C70.4630145,7.33540673 70.4577576,7.1255426 70.4577576,6.90191354 Z M71.2673267,5.90590909 C71.1096176,5.90590909 71.0132413,5.96869631 70.9781949,6.09427262 C70.9431484,6.21984894 70.9256255,6.43659386 70.9256255,6.74451388 C70.9256255,7.05243389 70.9273778,7.25197683 70.9308824,7.34314868 C70.934387,7.43432053 70.9466531,7.5306516 70.967681,7.63214479 C70.9887089,7.73363798 71.0228786,7.79900549 71.0701914,7.82824929 C71.1175041,7.85749309 71.1832152,7.87211477 71.2673267,7.87211477 C71.4250357,7.87211477 71.521412,7.80674726 71.5564585,7.67601027 C71.5915049,7.54527328 71.6090279,7.32508797 71.6090279,7.01544773 C71.6090279,6.70580749 71.6072756,6.50626455 71.603771,6.41681293 C71.6002663,6.3273613 71.5880002,6.23447062 71.5669724,6.13813811 C71.5459445,6.04180559 71.5117747,5.97901837 71.464462,5.94977457 C71.4171493,5.92053077 71.3514382,5.90590909 71.2673267,5.90590909 Z M73.769631,8.74684408 C73.8081821,8.70039804 73.8274574,8.63159013 73.8274574,8.54041828 C73.8274574,8.44924643 73.8090583,8.38817941 73.7722595,8.35721539 C73.7354607,8.32625137 73.6539789,8.31076959 73.5278117,8.31076959 C73.0441706,8.31076959 72.7611748,8.28754692 72.6788156,8.24110088 C72.5964564,8.19465484 72.5552774,8.03209616 72.5552774,7.75341994 C72.5552774,7.56419535 72.6306262,7.40765736 72.781326,7.28380126 C72.7007191,7.21155187 72.6428933,7.12468189 72.6078469,7.0231887 C72.5728004,6.92169551 72.5552774,6.77977919 72.5552774,6.5974355 C72.5552774,6.4150918 72.5561536,6.29639816 72.5579059,6.241351 C72.5596582,6.18630385 72.5631628,6.11577574 72.5684198,6.02976456 C72.5736768,5.94375339 72.5833144,5.88268637 72.597333,5.84656167 C72.6113516,5.81043698 72.631503,5.76485174 72.6577878,5.70980458 C72.6840727,5.65475743 72.7164901,5.61691308 72.7550412,5.5962704 C72.7935923,5.57562771 72.8409043,5.55326514 72.8969787,5.52918201 C72.9880995,5.48789665 73.1458061,5.46725428 73.3701034,5.46725428 L74.3216099,5.46725428 C74.3216099,5.63239574 74.3058393,5.74248839 74.2742975,5.79753555 C74.2427556,5.8525827 74.179673,5.88354626 74.0850475,5.89042715 C74.1481312,6.02460459 74.1796725,6.22758792 74.1796725,6.49938325 L74.1796725,6.73161226 C74.1796725,6.90019417 74.1726633,7.01372722 74.1586447,7.07221482 C74.1446262,7.13070242 74.1279793,7.18918915 74.1087038,7.24767675 C74.0894282,7.30616435 74.0666484,7.34744909 74.0403635,7.37153222 C74.0140787,7.39561535 73.9807851,7.42485872 73.9404816,7.45926319 C73.9001782,7.49366766 73.8537424,7.51775043 73.8011727,7.53151221 C73.6504729,7.56247624 73.4988993,7.57795802 73.3464472,7.57795802 C73.1939951,7.57795802 73.098495,7.5882792 73.0599439,7.60892189 C73.0213928,7.62956457 73.0021175,7.66740892 73.0021175,7.72245607 C73.0021175,7.77750323 73.010879,7.81190718 73.0284022,7.82566897 C73.0669533,7.85663299 73.2386784,7.87211477 73.5435825,7.87211477 C73.8484867,7.87211477 74.0464962,7.90823893 74.137617,7.98048832 C74.2287377,8.0527377 74.2742975,8.22733778 74.2742975,8.50429377 C74.2742975,8.78124976 74.2226047,8.97305181 74.1192177,9.07970567 C74.0158306,9.18635953 73.8134404,9.23968566 73.5120409,9.23968566 L73.1966244,9.23968566 C73.0284014,9.23968566 72.9302728,9.22334378 72.9022356,9.19065953 C72.8741985,9.15797528 72.8601801,9.04530233 72.8601801,8.85263729 L73.5067839,8.81651278 C73.6434651,8.81651278 73.7310799,8.79329011 73.769631,8.74684408 Z M73.6960338,6.82192355 C73.6995385,6.71698991 73.7012908,6.61033765 73.7012908,6.50196357 C73.7012908,6.39358948 73.7004146,6.31618059 73.6986623,6.26973455 C73.69691,6.22328851 73.690777,6.16996238 73.680263,6.10975456 C73.6697491,6.04954674 73.6539784,6.00912209 73.6329505,5.98847941 C73.5698669,5.93343225 73.4708622,5.90590909 73.3359333,5.90590909 C73.2010045,5.90590909 73.1160181,5.94461354 73.0809716,6.0220236 C73.0459252,6.09943366 73.0284022,6.25941205 73.0284022,6.50196357 C73.0284022,6.74451509 73.0485536,6.91309447 73.0888571,7.00770676 C73.1291605,7.10231906 73.215023,7.1496245 73.3464472,7.1496245 C73.4778714,7.1496245 73.5681147,7.12124123 73.6171797,7.06447386 C73.6662448,7.00770648 73.6925292,6.92685718 73.6960338,6.82192355 Z M75.3414567,4.87378012 L75.3414567,8.29528765 C75.1066454,8.29528765 74.9699663,8.28238617 74.9314152,8.25658282 C74.8928641,8.23077946 74.8735888,8.14046908 74.8735888,7.98564896 L74.8735888,4.55898078 C75.1048954,4.55898078 75.2406984,4.57188227 75.2810018,4.59768562 C75.3213053,4.62348897 75.3414567,4.71551955 75.3414567,4.87378012 Z M76.6609491,7.87211477 C76.899265,7.87211477 77.1410819,7.8549128 77.3864071,7.82050833 L77.3864071,8.22303862 C77.060475,8.28152622 76.8291719,8.31076959 76.6924907,8.31076959 C76.5558096,8.31076959 76.446291,8.3013085 76.3639319,8.28238604 C76.2815727,8.26346358 76.2106047,8.24110101 76.1510257,8.21529766 C76.0914467,8.1894943 76.0423824,8.14562926 76.0038313,8.08370121 C75.9652802,8.02177316 75.9354912,7.96414654 75.9144633,7.91081961 C75.8934355,7.85749268 75.8776648,7.77578329 75.8671509,7.66568898 C75.8531323,7.51774976 75.8461231,7.36035166 75.8461231,7.19348998 L75.8461231,6.50454389 C75.8461231,6.26027215 75.8531323,6.10803465 75.8671509,6.04782682 C75.8811694,5.987619 75.8969401,5.92225148 75.9144633,5.85172232 C75.9319866,5.78119315 75.9547664,5.73130742 75.9828036,5.70206362 C76.0108407,5.67281982 76.0450105,5.63841586 76.0853139,5.59885072 C76.1256174,5.55928558 76.1720532,5.53262251 76.2246229,5.51886072 C76.3893412,5.48445625 76.5365341,5.46725428 76.666206,5.46725428 C76.7958779,5.46725428 76.9071487,5.48703655 77.0000218,5.52660169 C77.0928949,5.56616683 77.1647391,5.61519247 77.2155565,5.67368007 C77.2663738,5.73216767 77.3058005,5.81473716 77.3338376,5.92139102 C77.379398,6.08997293 77.4021779,6.31015824 77.4021779,6.58195356 L77.4179487,6.93287741 L76.2719354,6.95868064 L76.3139909,7.07737547 C76.3139909,7.41797973 76.3306377,7.63558475 76.3639319,7.73019704 C76.397226,7.82480934 76.4962307,7.87211477 76.6609491,7.87211477 Z M76.8791122,6.01170231 C76.845818,5.94117314 76.7660886,5.90590909 76.6399213,5.90590909 C76.5137541,5.90590909 76.4322723,5.93687265 76.3954735,5.9988007 C76.3586747,6.06072874 76.3402756,6.19490417 76.3402756,6.40133099 L76.2982201,6.51486518 L76.9868795,6.51486518 L76.9343101,6.40133099 C76.9308054,6.2121064 76.9124063,6.08223147 76.8791122,6.01170231 Z" id="Logga-in-med-Google" fill="#FFFFFF"></path>
            <path d="M27.4222166,10.2056907 C27.4094685,10.1723827 27.3986275,10.1389484 27.3917013,10.1052361 C27.3985271,10.1389737 27.4094685,10.1723827 27.4222166,10.2056907 Z M29.4634461,7.50121661 C30.2722356,7.52524822 30.8147872,6.68814992 30.6752802,5.63123059 C30.5355707,4.57447967 29.7664088,3.72641811 28.9576193,3.70225177 C28.148661,3.67830436 27.6061938,4.48711036 27.7458527,5.5441981 C27.8854609,6.60083114 28.6543359,7.47713448 29.4634461,7.50121661 Z M36.3909323,4.789619 L36.3909323,4.04135514 C36.3909323,3.21791461 35.7160127,2.54420432 34.8908185,2.54420432 L28.8901105,2.54420432 C28.0789919,2.54420432 27.4132704,3.19531446 27.3908237,3.99957348 C27.9038402,3.54885027 28.6155014,3.17231013 29.34993,3.17231013 C30.1349227,3.17231013 32.4901876,3.17231013 32.4901876,3.17231013 L31.7874207,3.76540422 L30.7917836,3.76540422 C31.4521887,4.01804768 31.8040279,4.7839437 31.8040279,5.56982958 C31.8040279,6.22984842 31.4365098,6.79739524 30.9171981,7.20098146 C30.4105106,7.5948338 30.3144455,7.75977114 30.3144455,8.09458015 C30.3144455,8.38033234 30.8571997,8.86643776 31.1410068,9.06630262 C31.9706397,9.64991542 32.2390379,10.1917634 32.2390379,11.0964432 C32.2390379,11.2405655 32.2210974,11.3844016 32.1857228,11.5258799 L34.8908354,11.5258799 C35.7160296,11.5258799 36.3909491,10.8526916 36.3909491,10.0287459 L36.3909491,5.3509853 L34.7032284,5.3509853 L34.7032284,7.03505052 L34.1406435,7.03505052 L34.1406435,5.3509853 L32.4529228,5.3509853 L32.4529228,4.78963584 L34.1406435,4.78963584 L34.1406435,3.10557062 L34.7032284,3.10557062 L34.7032284,4.78963584 L36.3909323,4.78963584 L36.3909323,4.789619 Z M29.0237273,9.2623615 C29.2137141,9.2623615 29.3878362,9.25717457 29.5681523,9.25717457 C29.3295255,9.02620503 29.1407201,8.74318103 29.1407201,8.3942764 C29.1407201,8.18722058 29.2071995,7.9878441 29.3001085,7.81081516 C29.2053261,7.81755142 29.108569,7.81953862 29.008926,7.81953862 C28.3553224,7.81953862 27.8002142,7.60835684 27.3897436,7.25945221 L27.3897436,7.84924553 L27.3897942,9.61865917 C27.8595544,9.39609311 28.4172786,9.2623615 29.0237273,9.2623615 Z M27.4978525,10.3264886 C27.4538798,10.2786275 27.4202179,10.229958 27.3974734,10.1805981 C27.4201421,10.229958 27.4539556,10.2786275 27.4978525,10.3264886 Z M31.3932535,10.9017653 C31.2608856,10.3859698 30.7915304,10.1302613 30.1372517,9.67760146 C29.8992831,9.60104385 29.6371294,9.5559109 29.3558539,9.55299747 C28.5680934,9.54452662 27.834188,9.85946366 27.4201057,10.3281053 C27.5600515,11.009697 28.1675803,11.5258799 28.8901274,11.5258799 L31.408038,11.5258799 C31.4240038,11.4282715 31.4317336,11.3273623 31.4317336,11.2238765 C31.4317336,11.1139238 31.4182318,11.0064131 31.3932535,10.9017653 Z" id="Shape" fill="#FFFFFF" fill-rule="nonzero"></path>
        </g>
    </g>
</svg>