<?xml version="1.0" encoding="UTF-8"?>
<svg width="929px" height="252px" viewBox="0 0 929 252" version="1.1" xmlns="http://www.w3.org/2000/svg" xmlns:xlink="http://www.w3.org/1999/xlink">
    <!-- Generator: Sketch 50.2 (55047) - http://www.bohemiancoding.com/sketch -->
    <title>Group 16</title>
    <desc>Created with Sketch.</desc>
    <defs></defs>
    <g id="Page-1" stroke="none" stroke-width="1" fill="none" fill-rule="evenodd">
        <g id="Group-16">
            <rect id="Rectangle-8" fill="#DCBC3F" x="0" y="0" width="929" height="252"></rect>
            <path d="M58.4,195.5 C52.333303,186.766623 49.3,173.533422 49.3,155.8 L49.3,81.8 C49.3,65.933254 52.833298,53.933374 59.9,45.8 C66.966702,37.666626 77.49993,33.6 91.5,33.6 C102.83339,33.6 111.633302,35.866644 117.9,40.4 C124.166698,44.933356 128.499988,51.53329 130.9,60.2 C133.300012,68.86671 134.5,79.999932 134.5,93.6 L100.9,93.6 L100.9,78.2 C100.9,74.066646 100.333339,70.866678 99.2,68.6 C98.066661,66.333322 96.033348,65.2 93.1,65.2 C86.566634,65.2 83.3,69.466624 83.3,78 L83.3,161.2 C83.3,166.400026 83.96666,170.33332 85.3,173 C86.63334,175.66668 88.96665,177 92.3,177 C95.63335,177 97.96666,175.66668 99.3,173 C100.63334,170.33332 101.3,166.400026 101.3,161.2 L101.3,136.6 L92.1,136.6 L92.1,107 L134.1,107 L134.1,207 L120.3,207 L114.5,192.6 C108.366636,203.26672 98.900064,208.6 86.1,208.6 C73.699938,208.6 64.466697,204.233377 58.4,195.5 Z M147.1,60.6 L182.1,60.6 L182.1,76.8 C183.833342,71.066638 186.866645,66.633349 191.2,63.5 C195.533355,60.366651 200.899968,58.8 207.3,58.8 L207.3,88 C202.366642,88 196.933363,88.699993 191,90.1 C185.066637,91.500007 182.1,93.133324 182.1,95 L182.1,207 L147.1,207 L147.1,60.6 Z M215.9,60.6 L250.9,60.6 L250.9,76.8 C252.633342,71.066638 255.666645,66.633349 260,63.5 C264.333355,60.366651 269.699968,58.8 276.1,58.8 L276.1,88 C271.166642,88 265.733363,88.699993 259.8,90.1 C253.866637,91.500007 250.9,93.133324 250.9,95 L250.9,207 L215.9,207 L215.9,60.6 Z M284.7,60.6 L319.7,60.6 L319.7,76.8 C321.433342,71.066638 324.466645,66.633349 328.8,63.5 C333.133355,60.366651 338.499968,58.8 344.9,58.8 L344.9,88 C339.966642,88 334.533363,88.699993 328.6,90.1 C322.666637,91.500007 319.7,93.133324 319.7,95 L319.7,207 L284.7,207 L284.7,60.6 Z M362.1,196.2 C355.566634,187.933292 352.3,175.600082 352.3,159.2 L352.3,100.4 C352.3,86.933266 356.166628,76.666702 363.9,69.6 C371.633372,62.533298 382.433264,59 396.3,59 C424.433474,59 438.5,72.799862 438.5,100.4 L438.5,111 C438.5,121.66672 438.366668,130.3333 438.1,137 L387.3,137 L387.3,165.4 C387.3,170.466692 387.833328,174.433319 388.9,177.3 C389.966672,180.166681 392.233316,181.6 395.7,181.6 C398.36668,181.6 400.266661,180.800008 401.4,179.2 C402.533339,177.599992 403.199999,175.766677 403.4,173.7 C403.600001,171.633323 403.7,168.60002 403.7,164.6 L403.7,150.4 L438.5,150.4 L438.5,158.8 C438.5,175.866752 435.200033,188.433293 428.6,196.5 C421.999967,204.566707 410.633414,208.6 394.5,208.6 C379.433258,208.6 368.633366,204.466708 362.1,196.2 Z M403.7,119.6 L403.7,100.8 C403.7,90.266614 401.100026,85 395.9,85 C390.033304,85 387.1,90.266614 387.1,100.8 L387.1,119.6 L403.7,119.6 Z M454.4,197.3 C450.199979,189.766629 448.1,179.00007 448.1,165 C448.1,153.533276 449.599985,144.733364 452.6,138.6 C455.600015,132.466636 459.76664,127.966681 465.1,125.1 C470.43336,122.233319 478.566612,119.066684 489.5,115.6 L499.1,112.4 L499.1,97.4 C499.1,93.533314 498.333341,90.566677 496.8,88.5 C495.266659,86.433323 493.433344,85.4 491.3,85.4 C489.433324,85.4 487.800007,86.266658 486.4,88 C484.999993,89.733342 484.3,92.066652 484.3,95 L484.3,103.8 L450.3,103.8 L450.3,99 C450.3,84.599928 453.666633,74.333364 460.4,68.2 C467.133367,62.066636 478.099924,59 493.3,59 C505.433394,59 515.299962,62.166635 522.9,68.5 C530.500038,74.833365 534.3,83.799942 534.3,95.4 L534.3,207 L499.5,207 L499.5,189.6 C497.766658,195.60003 495.000019,200.26665 491.2,203.6 C487.399981,206.93335 482.900026,208.6 477.7,208.6 C466.36661,208.6 458.600021,204.833371 454.4,197.3 Z M497.2,178.1 C498.333339,175.899989 498.9,173.200016 498.9,170 L498.9,129.2 C493.699974,131.20001 489.866679,133.733318 487.4,136.8 C484.933321,139.866682 483.7,144.133306 483.7,149.6 L483.7,168.4 C483.7,177.06671 486.299974,181.4 491.5,181.4 C494.16668,181.4 496.066661,180.300011 497.2,178.1 Z M558.9,202.8 C555.433316,198.933314 553.7,192.733376 553.7,184.2 L553.7,92.8 L543.9,92.8 L543.9,66.2 L553.7,66.2 L553.7,35.2 L587.7,35.2 L587.7,66.2 L597.7,66.2 L597.7,92.8 L587.7,92.8 L587.7,175 C587.7,177.533346 587.899998,179.399994 588.3,180.6 C588.700002,181.800006 589.766658,182.4 591.5,182.4 C592.83334,182.4 594.099994,182.333334 595.3,182.2 C596.500006,182.066666 597.299998,182 597.7,182 L597.7,206 C595.69999,206.533336 592.800019,207.099997 589,207.7 C585.199981,208.300003 581.500018,208.6 577.9,208.6 C568.699954,208.6 562.366684,206.666686 558.9,202.8 Z M607.1,207 L607.1,177.8 L642.1,177.8 L642.1,207 L607.1,207 Z M655.1,207 L655.1,177.8 L689.9,177.8 L689.9,207 L655.1,207 Z M702.9,207 L702.9,177.8 L737.9,177.8 L737.9,207 L702.9,207 Z M748.7,207 L748.7,177.8 L783.7,177.8 L783.7,207 L748.7,207 Z M796.7,207 L796.7,177.8 L831.5,177.8 L831.5,207 L796.7,207 Z M844.5,207 L844.5,177.8 L879.5,177.8 L879.5,207 L844.5,207 Z" id="Grrreat……" fill="#FFFFFF"></path>
        </g>
    </g>
</svg>