<?xml version="1.0" encoding="UTF-8"?>
<svg width="773px" height="176px" viewBox="0 0 773 176" version="1.1" xmlns="http://www.w3.org/2000/svg" xmlns:xlink="http://www.w3.org/1999/xlink">
    <!-- Generator: Sketch 50.2 (55047) - http://www.bohemiancoding.com/sketch -->
    <title>GRRREAT…</title>
    <desc>Created with Sketch.</desc>
    <defs></defs>
    <g id="Page-1" stroke="none" stroke-width="1" fill="none" fill-rule="evenodd">
        <path d="M9.6,162.5 C3.533303,153.766623 0.5,140.533422 0.5,122.8 L0.5,48.8 C0.5,32.933254 4.033298,20.933374 11.1,12.8 C18.166702,4.666626 28.69993,0.6 42.7,0.6 C54.03339,0.6 62.833302,2.866644 69.1,7.4 C75.366698,11.933356 79.699988,18.53329 82.1,27.2 C84.500012,35.86671 85.7,46.999932 85.7,60.6 L52.1,60.6 L52.1,45.2 C52.1,41.066646 51.533339,37.866678 50.4,35.6 C49.266661,33.333322 47.233348,32.2 44.3,32.2 C37.766634,32.2 34.5,36.466624 34.5,45 L34.5,128.2 C34.5,133.400026 35.16666,137.33332 36.5,140 C37.83334,142.66668 40.16665,144 43.5,144 C46.83335,144 49.16666,142.66668 50.5,140 C51.83334,137.33332 52.5,133.400026 52.5,128.2 L52.5,103.6 L43.3,103.6 L43.3,74 L85.3,74 L85.3,174 L71.5,174 L65.7,159.6 C59.566636,170.26672 50.100064,175.6 37.3,175.6 C24.899938,175.6 15.666697,171.233377 9.6,162.5 Z M98.9,2.2 L151.7,2.2 C160.100042,2.2 166.599977,4.099981 171.2,7.9 C175.800023,11.700019 178.899992,17.033299 180.5,23.9 C182.100008,30.766701 182.9,39.53328 182.9,50.2 C182.9,59.933382 181.633346,67.533306 179.1,73 C176.566654,78.466694 172.166698,82.266656 165.9,84.4 C171.100026,85.466672 174.866655,88.066646 177.2,92.2 C179.533345,96.333354 180.7,101.933298 180.7,109 L180.3,174 L146.7,174 L146.7,106.8 C146.7,101.999976 145.766676,98.93334 143.9,97.6 C142.033324,96.26666 138.633358,95.6 133.7,95.6 L133.7,174 L98.9,174 L98.9,2.2 Z M142.1,65.8 C146.900024,65.8 149.3,60.600052 149.3,50.2 C149.3,45.666644 149.100002,42.266678 148.7,40 C148.299998,37.733322 147.566672,36.166671 146.5,35.3 C145.433328,34.433329 143.90001,34 141.9,34 L133.9,34 L133.9,65.8 L142.1,65.8 Z M194.3,2.2 L247.1,2.2 C255.500042,2.2 261.999977,4.099981 266.6,7.9 C271.200023,11.700019 274.299992,17.033299 275.9,23.9 C277.500008,30.766701 278.3,39.53328 278.3,50.2 C278.3,59.933382 277.033346,67.533306 274.5,73 C271.966654,78.466694 267.566698,82.266656 261.3,84.4 C266.500026,85.466672 270.266655,88.066646 272.6,92.2 C274.933345,96.333354 276.1,101.933298 276.1,109 L275.7,174 L242.1,174 L242.1,106.8 C242.1,101.999976 241.166676,98.93334 239.3,97.6 C237.433324,96.26666 234.033358,95.6 229.1,95.6 L229.1,174 L194.3,174 L194.3,2.2 Z M237.5,65.8 C242.300024,65.8 244.7,60.600052 244.7,50.2 C244.7,45.666644 244.500002,42.266678 244.1,40 C243.699998,37.733322 242.966672,36.166671 241.9,35.3 C240.833328,34.433329 239.30001,34 237.3,34 L229.3,34 L229.3,65.8 L237.5,65.8 Z M289.7,2.2 L342.5,2.2 C350.900042,2.2 357.399977,4.099981 362,7.9 C366.600023,11.700019 369.699992,17.033299 371.3,23.9 C372.900008,30.766701 373.7,39.53328 373.7,50.2 C373.7,59.933382 372.433346,67.533306 369.9,73 C367.366654,78.466694 362.966698,82.266656 356.7,84.4 C361.900026,85.466672 365.666655,88.066646 368,92.2 C370.333345,96.333354 371.5,101.933298 371.5,109 L371.1,174 L337.5,174 L337.5,106.8 C337.5,101.999976 336.566676,98.93334 334.7,97.6 C332.833324,96.26666 329.433358,95.6 324.5,95.6 L324.5,174 L289.7,174 L289.7,2.2 Z M332.9,65.8 C337.700024,65.8 340.1,60.600052 340.1,50.2 C340.1,45.666644 339.900002,42.266678 339.5,40 C339.099998,37.733322 338.366672,36.166671 337.3,35.3 C336.233328,34.433329 334.70001,34 332.7,34 L324.7,34 L324.7,65.8 L332.9,65.8 Z M385.1,174 L385.1,2.2 L453.9,2.2 L453.9,35.4 L420.1,35.4 L420.1,68.8 L452.5,68.8 L452.5,101.2 L420.1,101.2 L420.1,140.6 L456.1,140.6 L456.1,174 L385.1,174 Z M462.9,174 L479.5,2.2 L537.7,2.2 L554.1,174 L521.5,174 L519.1,146.2 L498.3,146.2 L496.3,174 L462.9,174 Z M500.9,118.8 L516.5,118.8 L508.9,31.4 L507.3,31.4 L500.9,118.8 Z M579.3,174 L579.3,35.2 L558.9,35.2 L558.9,2.2 L634.1,2.2 L634.1,35.2 L613.7,35.2 L613.7,174 L579.3,174 Z M641.5,174 L641.5,144.8 L676.5,144.8 L676.5,174 L641.5,174 Z M689.5,174 L689.5,144.8 L724.3,144.8 L724.3,174 L689.5,174 Z M737.3,174 L737.3,144.8 L772.3,144.8 L772.3,174 L737.3,174 Z" id="GRRREAT…" fill="#DCBC3F"></path>
    </g>
</svg>