<?xml version="1.0" encoding="UTF-8"?>
<svg width="1049px" height="318px" viewBox="0 0 1049 318" version="1.1" xmlns="http://www.w3.org/2000/svg" xmlns:xlink="http://www.w3.org/1999/xlink">
    <!-- Generator: Sketch 50.2 (55047) - http://www.bohemiancoding.com/sketch -->
    <title>Group 26</title>
    <desc>Created with Sketch.</desc>
    <defs></defs>
    <g id="Page-1" stroke="none" stroke-width="1" fill="none" fill-rule="evenodd">
        <g id="Group-26">
            <rect id="Rectangle-8" fill="#DCBC3F" x="0" y="0" width="633" height="318"></rect>
            <path d="M587.746217,318 L587.746217,0 L715.094296,0 L715.094296,61.4528522 L652.53085,61.4528522 L652.53085,123.275902 L712.50291,123.275902 L712.50291,183.247963 L652.53085,183.247963 L652.53085,256.17695 L719.166473,256.17695 L719.166473,318 L587.746217,318 Z M731.753201,318 L762.479627,0 L870.207218,0 L900.563446,318 L840.221187,318 L835.778813,266.542491 L797.278231,266.542491 L793.576251,318 L731.753201,318 Z M802.090803,215.825378 L830.96624,215.825378 L816.898719,54.0488941 L813.937136,54.0488941 L802.090803,215.825378 Z M947.208382,318 L947.208382,61.0826542 L909.448196,61.0826542 L909.448196,0 L1048.64261,0 L1048.64261,61.0826542 L1010.88242,61.0826542 L1010.88242,318 L947.208382,318 Z" id="EAT…" fill="#DCBC3F"></path>
            <path d="M39.2093483,274.801483 C29.7364021,261.164604 25,240.5014 25,212.811249 L25,97.2627022 C25,72.4873043 30.5171277,53.7498895 41.5515486,41.0498956 C52.5859695,28.3499017 69.0332559,22 90.8939011,22 C108.590614,22 122.331385,25.5392895 132.116626,32.6179746 C141.901867,39.6966597 148.668156,50.0022379 152.415695,63.5350182 C156.163234,77.0677986 158.036976,94.4519557 158.036976,115.688011 L105.571689,115.688011 L105.571689,91.6414215 C105.571689,85.1873263 104.686867,80.1906823 102.917196,76.6513398 C101.147525,73.1119972 97.9725737,71.3423525 93.392248,71.3423525 C83.1906136,71.3423525 78.0898729,78.0045444 78.0898729,91.3291282 L78.0898729,221.24317 C78.0898729,229.362838 79.1308404,235.504547 81.2128066,239.668479 C83.2947728,243.832411 86.938159,245.914346 92.1430746,245.914346 C97.3479901,245.914346 100.991376,243.832411 103.073343,239.668479 C105.155309,235.504547 106.196276,229.362838 106.196276,221.24317 L106.196276,182.831086 L91.8307812,182.831086 L91.8307812,136.611667 L157.412389,136.611667 L157.412389,292.758352 L135.864146,292.758352 L126.807639,270.273229 C117.230594,286.928959 102.448856,295.256699 82.4619801,295.256699 C63.0996943,295.256699 48.6822946,288.438362 39.2093483,274.801483 Z M178.648338,24.498347 L261.093788,24.498347 C274.210175,24.498347 284.359608,27.4651043 291.542391,33.398708 C298.725175,39.3323117 303.565674,47.6600516 306.064033,58.3821776 C308.562393,69.1043036 309.811554,82.7930261 309.811554,99.4487558 C309.811554,114.647109 307.833715,126.514139 303.877979,135.0502 C299.922244,143.586261 293.051858,149.519776 283.266617,152.850922 C291.386285,154.516495 297.267752,158.576268 300.911192,165.030363 C304.554633,171.484459 306.376326,180.228586 306.376326,191.263007 L305.75174,292.758352 L253.286454,292.758352 L253.286454,187.82778 C253.286454,180.332701 251.829099,175.544251 248.914346,173.462284 C245.999594,171.380318 240.690659,170.339351 232.987384,170.339351 L232.987384,292.758352 L178.648338,292.758352 L178.648338,24.498347 Z M246.103706,123.807639 C253.598784,123.807639 257.346267,115.688092 257.346267,99.4487558 C257.346267,92.3700707 257.033977,87.0611365 256.409387,83.5217939 C255.784797,79.9824513 254.639733,77.5361777 252.97416,76.1828997 C251.308587,74.8296217 248.914362,74.1529928 245.791413,74.1529928 L233.299678,74.1529928 L233.299678,123.807639 L246.103706,123.807639 Z M327.612276,24.498347 L410.057725,24.498347 C423.174112,24.498347 433.323545,27.4651043 440.506329,33.398708 C447.689112,39.3323117 452.529611,47.6600516 455.027971,58.3821776 C457.52633,69.1043036 458.775491,82.7930261 458.775491,99.4487558 C458.775491,114.647109 456.797653,126.514139 452.841917,135.0502 C448.886181,143.586261 442.015796,149.519776 432.230555,152.850922 C440.350223,154.516495 446.231689,158.576268 449.87513,165.030363 C453.518571,171.484459 455.340264,180.228586 455.340264,191.263007 L454.715677,292.758352 L402.250391,292.758352 L402.250391,187.82778 C402.250391,180.332701 400.793037,175.544251 397.878284,173.462284 C394.963531,171.380318 389.654597,170.339351 381.951322,170.339351 L381.951322,292.758352 L327.612276,292.758352 L327.612276,24.498347 Z M395.067644,123.807639 C402.562722,123.807639 406.310205,115.688092 406.310205,99.4487558 C406.310205,92.3700707 405.997915,87.0611365 405.373325,83.5217939 C404.748735,79.9824513 403.603671,77.5361777 401.938098,76.1828997 C400.272525,74.8296217 397.878299,74.1529928 394.75535,74.1529928 L382.263615,74.1529928 L382.263615,123.807639 L395.067644,123.807639 Z M476.576213,24.498347 L559.021663,24.498347 C572.13805,24.498347 582.287483,27.4651043 589.470266,33.398708 C596.65305,39.3323117 601.493549,47.6600516 603.991908,58.3821776 C606.490268,69.1043036 607.739429,82.7930261 607.739429,99.4487558 C607.739429,114.647109 605.76159,126.514139 601.805855,135.0502 C597.850119,143.586261 590.979733,149.519776 581.194492,152.850922 C589.31416,154.516495 595.195627,158.576268 598.839068,165.030363 C602.482508,171.484459 604.304202,180.228586 604.304202,191.263007 L603.679615,292.758352 L551.214329,292.758352 L551.214329,187.82778 C551.214329,180.332701 549.756974,175.544251 546.842221,173.462284 C543.927469,171.380318 538.618535,170.339351 530.91526,170.339351 L530.91526,292.758352 L476.576213,292.758352 L476.576213,24.498347 Z M544.031581,123.807639 C551.526659,123.807639 555.274142,115.688092 555.274142,99.4487558 C555.274142,92.3700707 554.961852,87.0611365 554.337262,83.5217939 C553.712672,79.9824513 552.567608,77.5361777 550.902035,76.1828997 C549.236462,74.8296217 546.842237,74.1529928 543.719288,74.1529928 L531.227553,74.1529928 L531.227553,123.807639 L544.031581,123.807639 Z" id="GRRR" fill="#FFFFFF"></path>
        </g>
    </g>
</svg>