<?xml version="1.0" encoding="UTF-8"?>
<svg width="740px" height="540px" viewBox="0 0 740 540" version="1.1" xmlns="http://www.w3.org/2000/svg" xmlns:xlink="http://www.w3.org/1999/xlink">
    <!-- Generator: Sketch 50.2 (55047) - http://www.bohemiancoding.com/sketch -->
    <title>Group 16</title>
    <desc>Created with Sketch.</desc>
    <defs></defs>
    <g id="Page-1" stroke="none" stroke-width="1" fill="none" fill-rule="evenodd">
        <g id="Group-16">
            <rect id="Rectangle-8" fill="#DCBC3F" x="0" y="288" width="739" height="252"></rect>
            <path d="M34.1,491.9 C28.033303,483.166623 25,469.933422 25,452.2 L25,378.2 C25,362.333254 28.533298,350.333374 35.6,342.2 C42.666702,334.066626 53.19993,330 67.2,330 C78.53339,330 87.333302,332.266644 93.6,336.8 C99.866698,341.333356 104.199988,347.93329 106.6,356.6 C109.000012,365.26671 110.2,376.399932 110.2,390 L76.6,390 L76.6,374.6 C76.6,370.466646 76.033339,367.266678 74.9,365 C73.766661,362.733322 71.733348,361.6 68.8,361.6 C62.266634,361.6 59,365.866624 59,374.4 L59,457.6 C59,462.800026 59.66666,466.73332 61,469.4 C62.33334,472.06668 64.66665,473.4 68,473.4 C71.33335,473.4 73.66666,472.06668 75,469.4 C76.33334,466.73332 77,462.800026 77,457.6 L77,433 L67.8,433 L67.8,403.4 L109.8,403.4 L109.8,503.4 L96,503.4 L90.2,489 C84.066636,499.66672 74.600064,505 61.8,505 C49.399938,505 40.166697,500.633377 34.1,491.9 Z M122.8,357 L157.8,357 L157.8,373.2 C159.533342,367.466638 162.566645,363.033349 166.9,359.9 C171.233355,356.766651 176.599968,355.2 183,355.2 L183,384.4 C178.066642,384.4 172.633363,385.099993 166.7,386.5 C160.766637,387.900007 157.8,389.533324 157.8,391.4 L157.8,503.4 L122.8,503.4 L122.8,357 Z M191.6,357 L226.6,357 L226.6,373.2 C228.333342,367.466638 231.366645,363.033349 235.7,359.9 C240.033355,356.766651 245.399968,355.2 251.8,355.2 L251.8,384.4 C246.866642,384.4 241.433363,385.099993 235.5,386.5 C229.566637,387.900007 226.6,389.533324 226.6,391.4 L226.6,503.4 L191.6,503.4 L191.6,357 Z M260.4,357 L295.4,357 L295.4,373.2 C297.133342,367.466638 300.166645,363.033349 304.5,359.9 C308.833355,356.766651 314.199968,355.2 320.6,355.2 L320.6,384.4 C315.666642,384.4 310.233363,385.099993 304.3,386.5 C298.366637,387.900007 295.4,389.533324 295.4,391.4 L295.4,503.4 L260.4,503.4 L260.4,357 Z M337.8,492.6 C331.266634,484.333292 328,472.000082 328,455.6 L328,396.8 C328,383.333266 331.866628,373.066702 339.6,366 C347.333372,358.933298 358.133264,355.4 372,355.4 C400.133474,355.4 414.2,369.199862 414.2,396.8 L414.2,407.4 C414.2,418.06672 414.066668,426.7333 413.8,433.4 L363,433.4 L363,461.8 C363,466.866692 363.533328,470.833319 364.6,473.7 C365.666672,476.566681 367.933316,478 371.4,478 C374.06668,478 375.966661,477.200008 377.1,475.6 C378.233339,473.999992 378.899999,472.166677 379.1,470.1 C379.300001,468.033323 379.4,465.00002 379.4,461 L379.4,446.8 L414.2,446.8 L414.2,455.2 C414.2,472.266752 410.900033,484.833293 404.3,492.9 C397.699967,500.966707 386.333414,505 370.2,505 C355.133258,505 344.333366,500.866708 337.8,492.6 Z M379.4,416 L379.4,397.2 C379.4,386.666614 376.800026,381.4 371.6,381.4 C365.733304,381.4 362.8,386.666614 362.8,397.2 L362.8,416 L379.4,416 Z M430.1,493.7 C425.899979,486.166629 423.8,475.40007 423.8,461.4 C423.8,449.933276 425.299985,441.133364 428.3,435 C431.300015,428.866636 435.46664,424.366681 440.8,421.5 C446.13336,418.633319 454.266612,415.466684 465.2,412 L474.8,408.8 L474.8,393.8 C474.8,389.933314 474.033341,386.966677 472.5,384.9 C470.966659,382.833323 469.133344,381.8 467,381.8 C465.133324,381.8 463.500007,382.666658 462.1,384.4 C460.699993,386.133342 460,388.466652 460,391.4 L460,400.2 L426,400.2 L426,395.4 C426,380.999928 429.366633,370.733364 436.1,364.6 C442.833367,358.466636 453.799924,355.4 469,355.4 C481.133394,355.4 490.999962,358.566635 498.6,364.9 C506.200038,371.233365 510,380.199942 510,391.8 L510,503.4 L475.2,503.4 L475.2,486 C473.466658,492.00003 470.700019,496.66665 466.9,500 C463.099981,503.33335 458.600026,505 453.4,505 C442.06661,505 434.300021,501.233371 430.1,493.7 Z M472.9,474.5 C474.033339,472.299989 474.6,469.600016 474.6,466.4 L474.6,425.6 C469.399974,427.60001 465.566679,430.133318 463.1,433.2 C460.633321,436.266682 459.4,440.533306 459.4,446 L459.4,464.8 C459.4,473.46671 461.999974,477.8 467.2,477.8 C469.86668,477.8 471.766661,476.700011 472.9,474.5 Z M534.6,499.2 C531.133316,495.333314 529.4,489.133376 529.4,480.6 L529.4,389.2 L519.6,389.2 L519.6,362.6 L529.4,362.6 L529.4,331.6 L563.4,331.6 L563.4,362.6 L573.4,362.6 L573.4,389.2 L563.4,389.2 L563.4,471.4 C563.4,473.933346 563.599998,475.799994 564,477 C564.400002,478.200006 565.466658,478.8 567.2,478.8 C568.53334,478.8 569.799994,478.733334 571,478.6 C572.200006,478.466666 572.999998,478.4 573.4,478.4 L573.4,502.4 C571.39999,502.933336 568.500019,503.499997 564.7,504.1 C560.899981,504.700003 557.200018,505 553.6,505 C544.399954,505 538.066684,503.066686 534.6,499.2 Z M582.8,503.4 L582.8,474.2 L617.8,474.2 L617.8,503.4 L582.8,503.4 Z M630.8,503.4 L630.8,474.2 L665.6,474.2 L665.6,503.4 L630.8,503.4 Z M678.6,503.4 L678.6,474.2 L713.6,474.2 L713.6,503.4 L678.6,503.4 Z" id="Grrreat……" fill="#FFFFFF"></path>
            <path d="M32.4022617,259.015509 L32.4022617,52.1609047 L2,52.1609047 L2,2.98077544 L114.071082,2.98077544 L114.071082,52.1609047 L83.6688207,52.1609047 L83.6688207,259.015509 L32.4022617,259.015509 Z M128.378029,259.015509 L128.378029,2.98077544 L179.346527,2.98077544 L179.346527,94.485622 L203.489499,94.485622 L203.489499,2.98077544 L254.457997,2.98077544 L254.457997,259.015509 L203.489499,259.015509 L203.489499,142.771567 L179.346527,142.771567 L179.346527,259.015509 L128.378029,259.015509 Z M274.726171,259.015509 L274.726171,2.98077544 L324.204362,2.98077544 L324.204362,259.015509 L274.726171,259.015509 Z M355.202746,244.112439 C344.8699,232.587341 339.703554,214.008367 339.703554,188.37496 L339.703554,163.337803 L390.075929,163.337803 L390.075929,195.230372 C390.075929,207.947721 394.149394,214.3063 402.296446,214.3063 C406.866743,214.3063 410.046033,212.965038 411.83441,210.282472 C413.622788,207.599906 414.516963,203.079353 414.516963,196.720679 C414.516963,188.374918 413.523435,181.469898 411.536349,176.005412 C409.549263,170.540926 407.015767,165.970697 403.935784,162.294588 C400.8558,158.618479 395.34172,152.905693 387.393376,145.156058 L365.336834,123.099515 C348.247895,106.407994 339.703554,87.9283727 339.703554,67.6600969 C339.703554,45.8021524 344.720871,29.1605579 354.755654,17.7348142 C364.790438,6.3090705 379.444976,0.59628433 398.719709,0.59628433 C421.769905,0.59628433 438.361823,6.70648171 448.495961,18.9270598 C458.630099,31.1476378 463.697092,50.2730524 463.697092,76.3038772 L411.536349,76.3038772 L411.238288,58.7182553 C411.238288,55.3402093 410.294436,52.6576836 408.406704,50.6705977 C406.518973,48.6835119 403.886124,47.6899838 400.508078,47.6899838 C396.533906,47.6899838 393.553322,48.7828647 391.566236,50.9686591 C389.57915,53.1544536 388.585622,56.1350377 388.585622,59.9105008 C388.585622,68.2562614 393.354557,76.8999553 402.892569,85.8418417 L432.698708,114.455735 C439.653508,121.211827 445.415971,127.620083 449.986268,133.680695 C454.556566,139.741307 458.232619,146.894708 461.01454,155.141115 C463.79646,163.387521 465.187399,173.173772 465.187399,184.500162 C465.187399,209.736152 460.567494,228.861567 451.327544,241.876979 C442.087595,254.892391 426.83694,261.4 405.575121,261.4 C382.326217,261.4 365.535593,255.637537 355.202746,244.112439 Z M549.538772,259.015509 L549.538772,2.98077544 L599.016963,2.98077544 L599.016963,259.015509 L549.538772,259.015509 Z M630.015347,244.112439 C619.682501,232.587341 614.516155,214.008367 614.516155,188.37496 L614.516155,163.337803 L664.88853,163.337803 L664.88853,195.230372 C664.88853,207.947721 668.961995,214.3063 677.109047,214.3063 C681.679344,214.3063 684.858634,212.965038 686.647011,210.282472 C688.435389,207.599906 689.329564,203.079353 689.329564,196.720679 C689.329564,188.374918 688.336036,181.469898 686.34895,176.005412 C684.361864,170.540926 681.828368,165.970697 678.748384,162.294588 C675.668401,158.618479 670.154321,152.905693 662.205977,145.156058 L640.149435,123.099515 C623.060496,106.407994 614.516155,87.9283727 614.516155,67.6600969 C614.516155,45.8021524 619.533472,29.1605579 629.568255,17.7348142 C639.603039,6.3090705 654.257577,0.59628433 673.53231,0.59628433 C696.582506,0.59628433 713.174424,6.70648171 723.308562,18.9270598 C733.4427,31.1476378 738.509693,50.2730524 738.509693,76.3038772 L686.34895,76.3038772 L686.050889,58.7182553 C686.050889,55.3402093 685.107037,52.6576836 683.219305,50.6705977 C681.331574,48.6835119 678.698724,47.6899838 675.320679,47.6899838 C671.346507,47.6899838 668.365923,48.7828647 666.378837,50.9686591 C664.391751,53.1544536 663.398223,56.1350377 663.398223,59.9105008 C663.398223,68.2562614 668.167157,76.8999553 677.70517,85.8418417 L707.511309,114.455735 C714.466109,121.211827 720.228572,127.620083 724.798869,133.680695 C729.369167,139.741307 733.04522,146.894708 735.827141,155.141115 C738.609061,163.387521 740,173.173772 740,184.500162 C740,209.736152 735.380095,228.861567 726.140145,241.876979 C716.900196,254.892391 701.649541,261.4 680.387722,261.4 C657.138818,261.4 640.348194,255.637537 630.015347,244.112439 Z" id="THIS-IS" fill="#DCBC3F"></path>
        </g>
    </g>
</svg>