<?xml version="1.0" encoding="UTF-8"?>
<svg width="1024px" height="247px" viewBox="0 0 1024 247" version="1.1" xmlns="http://www.w3.org/2000/svg" xmlns:xlink="http://www.w3.org/1999/xlink">
    <!-- Generator: Sketch 51.3 (57544) - http://www.bohemiancoding.com/sketch -->
    <title>Group 6</title>
    <desc>Created with Sketch.</desc>
    <defs></defs>
    <g id="Page-1" stroke="none" stroke-width="1" fill="none" fill-rule="evenodd">
        <g id="Desktop-Copy" transform="translate(0.000000, -106.000000)">
            <g id="Group-6" transform="translate(0.000000, 106.000000)">
                <rect id="Rectangle-2" fill="#FFFFFF" fill-rule="nonzero" x="0" y="0" width="1024" height="247"></rect>
                <path d="M155,220.930286 L155,106.069714 L177.196571,106.069714 L177.196571,220.930286 L155,220.930286 Z M186.422857,220.930286 L186.422857,106.069714 L209.421714,106.069714 L209.421714,201.408 L233.089143,201.408 L233.089143,220.930286 L186.422857,220.930286 Z M239.507429,220.930286 L239.507429,106.069714 L262.506286,106.069714 L262.506286,201.408 L286.173714,201.408 L286.173714,220.930286 L239.507429,220.930286 Z M298.141143,213.977143 C293.550263,208.628545 291.254857,200.69491 291.254857,190.176 L291.254857,106.069714 L313.585143,106.069714 L313.585143,189.24 C313.585143,192.894875 313.941711,195.747418 314.654857,197.797714 C315.368004,199.84801 316.883417,200.873143 319.201143,200.873143 C321.518869,200.873143 323.034282,199.870296 323.747429,197.864571 C324.460575,195.858847 324.817143,192.984019 324.817143,189.24 L324.817143,106.069714 L347.147429,106.069714 L347.147429,190.176 C347.147429,200.69491 344.852023,208.628545 340.261143,213.977143 C335.670263,219.325741 328.650333,222 319.201143,222 C309.751953,222 302.732023,219.325741 298.141143,213.977143 Z M360.652571,214.244571 C356.01712,209.07426 353.699429,200.739486 353.699429,189.24 L353.699429,178.008 L376.297143,178.008 L376.297143,192.315429 C376.297143,198.0206 378.124553,200.873143 381.779429,200.873143 C383.829725,200.873143 385.255996,200.271435 386.058286,199.068 C386.860575,197.864565 387.261714,195.836586 387.261714,192.984 C387.261714,189.239981 386.816004,186.142298 385.924571,183.690857 C385.033138,181.239416 383.896578,179.189151 382.514857,177.54 C381.133136,175.890849 378.659446,173.328017 375.093714,169.851429 L365.198857,159.956571 C357.532533,152.468534 353.699429,144.178331 353.699429,135.085714 C353.699429,125.279951 355.950263,117.814311 360.452,112.688571 C364.953737,107.562832 371.527957,105 380.174857,105 C390.51548,105 397.958834,107.741115 402.505143,113.223429 C407.051451,118.705742 409.324571,127.285656 409.324571,138.963429 L385.924571,138.963429 L385.790857,131.074286 C385.790857,129.55885 385.367433,128.355433 384.520571,127.464 C383.67371,126.572567 382.492579,126.126857 380.977143,126.126857 C379.194277,126.126857 377.857147,126.617138 376.965714,127.597714 C376.074281,128.578291 375.628571,129.91542 375.628571,131.609143 C375.628571,135.353162 377.767979,139.230837 382.046857,143.242286 L395.418286,156.078857 C398.538301,159.109729 401.123418,161.984558 403.173714,164.703429 C405.22401,167.422299 406.873137,170.63141 408.121143,174.330857 C409.369149,178.030304 409.993143,182.420546 409.993143,187.501714 C409.993143,198.822914 407.920592,207.402828 403.775429,213.241714 C399.630265,219.080601 392.788619,222 383.250286,222 C372.820519,222 365.288023,219.414883 360.652571,214.244571 Z M427.509714,220.930286 L427.509714,128.132571 L413.870857,128.132571 L413.870857,106.069714 L464.147429,106.069714 L464.147429,128.132571 L450.508571,128.132571 L450.508571,220.930286 L427.509714,220.930286 Z M470.565714,106.069714 L505.866286,106.069714 C511.482314,106.069714 515.827985,107.339987 518.903429,109.880571 C521.978873,112.421156 524.051423,115.986834 525.121143,120.577714 C526.190862,125.168594 526.725714,131.029679 526.725714,138.161143 C526.725714,144.668604 525.878866,149.749696 524.185143,153.404571 C522.49142,157.059447 519.549735,159.599993 515.36,161.026286 C518.836589,161.739432 521.354849,163.4777 522.914857,166.241143 C524.474865,169.004585 525.254857,172.748548 525.254857,177.473143 L524.987429,220.930286 L502.523429,220.930286 L502.523429,176.002286 C502.523429,172.793127 501.899435,170.742862 500.651429,169.851429 C499.403422,168.959996 497.130302,168.514286 493.832,168.514286 L493.832,220.930286 L470.565714,220.930286 L470.565714,106.069714 Z M499.448,148.590857 C502.657159,148.590857 504.261714,145.11432 504.261714,138.161143 C504.261714,135.130271 504.128001,132.85715 503.860571,131.341714 C503.593142,129.826278 503.102861,128.77886 502.389714,128.199429 C501.676568,127.619997 500.651435,127.330286 499.314286,127.330286 L493.965714,127.330286 L493.965714,148.590857 L499.448,148.590857 Z M531.272,220.930286 L542.370286,106.069714 L581.281143,106.069714 L592.245714,220.930286 L570.450286,220.930286 L568.845714,202.344 L554.939429,202.344 L553.602286,220.930286 L531.272,220.930286 Z M556.677714,184.025143 L567.107429,184.025143 L562.026286,125.592 L560.956571,125.592 L556.677714,184.025143 Z M609.093714,220.930286 L609.093714,128.132571 L595.454857,128.132571 L595.454857,106.069714 L645.731429,106.069714 L645.731429,128.132571 L632.092571,128.132571 L632.092571,220.930286 L609.093714,220.930286 Z M651.08,220.930286 L651.08,106.069714 L673.276571,106.069714 L673.276571,220.930286 L651.08,220.930286 Z M688.787429,213.509143 C683.97369,207.848543 681.566857,199.892623 681.566857,189.641143 L681.566857,134.952 C681.566857,125.057093 683.97369,117.591454 688.787429,112.554857 C693.601167,107.518261 700.643382,105 709.914286,105 C719.185189,105 726.227405,107.518261 731.041143,112.554857 C735.854881,117.591454 738.261714,125.057093 738.261714,134.952 L738.261714,189.641143 C738.261714,199.981766 735.854881,207.959972 731.041143,213.576 C726.227405,219.192028 719.185189,222 709.914286,222 C700.643382,222 693.601167,219.169743 688.787429,213.509143 Z M714.059429,198.198857 C714.772575,196.415991 715.129143,193.920016 715.129143,190.710857 L715.129143,134.550857 C715.129143,132.054845 714.79486,130.026865 714.126286,128.466857 C713.457711,126.906849 712.098296,126.126857 710.048,126.126857 C706.214838,126.126857 704.298286,129.023971 704.298286,134.818286 L704.298286,190.844571 C704.298286,194.142874 704.699425,196.638849 705.501714,198.332571 C706.304004,200.026294 707.774846,200.873143 709.914286,200.873143 C711.964582,200.873143 713.346282,199.981723 714.059429,198.198857 Z M747.488,220.930286 L747.488,106.069714 L771.155429,106.069714 L781.718857,161.026286 L781.718857,106.069714 L803.915429,106.069714 L803.915429,220.930286 L781.451429,220.930286 L769.952,163.433143 L769.952,220.930286 L747.488,220.930286 Z M818.757714,214.244571 C814.122263,209.07426 811.804571,200.739486 811.804571,189.24 L811.804571,178.008 L834.402286,178.008 L834.402286,192.315429 C834.402286,198.0206 836.229696,200.873143 839.884571,200.873143 C841.934867,200.873143 843.361139,200.271435 844.163429,199.068 C844.965718,197.864565 845.366857,195.836586 845.366857,192.984 C845.366857,189.239981 844.921147,186.142298 844.029714,183.690857 C843.138281,181.239416 842.001721,179.189151 840.62,177.54 C839.238279,175.890849 836.764589,173.328017 833.198857,169.851429 L823.304,159.956571 C815.637676,152.468534 811.804571,144.178331 811.804571,135.085714 C811.804571,125.279951 814.055406,117.814311 818.557143,112.688571 C823.05888,107.562832 829.6331,105 838.28,105 C848.620623,105 856.063977,107.741115 860.610286,113.223429 C865.156594,118.705742 867.429714,127.285656 867.429714,138.963429 L844.029714,138.963429 L843.896,131.074286 C843.896,129.55885 843.472576,128.355433 842.625714,127.464 C841.778853,126.572567 840.597722,126.126857 839.082286,126.126857 C837.29942,126.126857 835.96229,126.617138 835.070857,127.597714 C834.179424,128.578291 833.733714,129.91542 833.733714,131.609143 C833.733714,135.353162 835.873121,139.230837 840.152,143.242286 L853.523429,156.078857 C856.643444,159.109729 859.228561,161.984558 861.278857,164.703429 C863.329153,167.422299 864.978279,170.63141 866.226286,174.330857 C867.474292,178.030304 868.098286,182.420546 868.098286,187.501714 C868.098286,198.822914 866.025735,207.402828 861.880571,213.241714 C857.735408,219.080601 850.893762,222 841.355429,222 C830.925662,222 823.393166,219.414883 818.757714,214.244571 Z" id="ILLUSTRATIONS" fill="#244005"></path>
            </g>
        </g>
    </g>
</svg>