<?xml version="1.0" encoding="UTF-8"?>
<svg width="779px" height="312px" viewBox="0 0 779 312" version="1.1" xmlns="http://www.w3.org/2000/svg" xmlns:xlink="http://www.w3.org/1999/xlink">
    <!-- Generator: Sketch 51.3 (57544) - http://www.bohemiancoding.com/sketch -->
    <title>Group 6</title>
    <desc>Created with Sketch.</desc>
    <defs></defs>
    <g id="Page-1" stroke="none" stroke-width="1" fill="none" fill-rule="evenodd">
        <g id="Desktop-menu" transform="translate(-132.000000, -2203.000000)">
            <g id="Group-6" transform="translate(132.000000, 2203.000000)">
                <rect id="Rectangle-6" fill="#2B3E16" fill-rule="nonzero" x="0" y="0" width="779" height="312"></rect>
                <path d="M85,83.36 L123.59,83.36 C135.263392,83.36 143.593308,87.1282956 148.58,94.665 C153.566692,102.201704 156.06,113.223261 156.06,127.73 C156.06,142.236739 153.850022,153.173296 149.43,160.54 C145.009978,167.906703 137.076724,171.59 125.63,171.59 L113.73,171.59 L113.73,229.39 L85,229.39 L85,83.36 Z M115.43,145.24 C118.943351,145.24 121.521658,144.58834 123.165,143.285 C124.808342,141.98166 125.884997,140.111679 126.395,137.675 C126.905003,135.238321 127.16,131.753356 127.16,127.22 C127.16,121.099969 126.480007,116.680014 125.12,113.96 C123.759993,111.239986 121.04002,109.88 116.96,109.88 L113.73,109.88 L113.73,145.24 L115.43,145.24 Z M165.24,83.36 L210.12,83.36 C217.260036,83.36 222.78498,84.9749838 226.695,88.205 C230.60502,91.4350161 233.239993,95.9683041 234.6,101.805 C235.960007,107.641696 236.64,115.093288 236.64,124.16 C236.64,132.433375 235.563344,138.89331 233.41,143.54 C231.256656,148.18669 227.516693,151.416658 222.19,153.23 C226.610022,154.136671 229.811657,156.346649 231.795,159.86 C233.778343,163.373351 234.77,168.133303 234.77,174.14 L234.43,229.39 L205.87,229.39 L205.87,172.27 C205.87,168.18998 205.076675,165.583339 203.49,164.45 C201.903325,163.316661 199.013354,162.75 194.82,162.75 L194.82,229.39 L165.24,229.39 L165.24,83.36 Z M201.96,137.42 C206.04002,137.42 208.08,133.000044 208.08,124.16 C208.08,120.306647 207.910002,117.416676 207.57,115.49 C207.229998,113.563324 206.606671,112.23167 205.7,111.495 C204.793329,110.75833 203.490009,110.39 201.79,110.39 L194.99,110.39 L194.99,137.42 L201.96,137.42 Z M254.32,219.955 C248.199969,212.758297 245.14,202.643398 245.14,189.61 L245.14,120.08 C245.14,107.499937 248.199969,98.0083654 254.32,91.605 C260.440031,85.2016346 269.393274,82 281.18,82 C292.966726,82 301.919969,85.2016346 308.04,91.605 C314.160031,98.0083654 317.22,107.499937 317.22,120.08 L317.22,189.61 C317.22,202.756732 314.160031,212.899964 308.04,220.04 C301.919969,227.180036 292.966726,230.75 281.18,230.75 C269.393274,230.75 260.440031,227.151703 254.32,219.955 Z M286.45,200.49 C287.356671,198.223322 287.81,195.05002 287.81,190.97 L287.81,119.57 C287.81,116.396651 287.385004,113.818343 286.535,111.835 C285.684996,109.851657 283.95668,108.86 281.35,108.86 C276.476642,108.86 274.04,112.543296 274.04,119.91 L274.04,191.14 C274.04,195.333354 274.549995,198.506656 275.57,200.66 C276.590005,202.813344 278.459986,203.89 281.18,203.89 C283.78668,203.89 285.543329,202.756678 286.45,200.49 Z M343.23,226.84 C337.789973,224.23332 333.511682,220.408359 330.395,215.365 C327.278318,210.321641 325.72,204.230036 325.72,197.09 L325.72,160.54 L354.45,160.54 L354.45,195.39 C354.45,197.99668 354.988328,200.064992 356.065,201.595 C357.141672,203.125008 358.813322,203.89 361.08,203.89 C363.233344,203.89 364.848328,203.181674 365.925,201.765 C367.001672,200.348326 367.54,198.33668 367.54,195.73 L367.54,83.36 L396.95,83.36 L396.95,192.84 C396.95,200.433371 395.448348,207.091638 392.445,212.815 C389.441652,218.538362 385.24836,222.958318 379.865,226.075 C374.48164,229.191682 368.333368,230.75 361.42,230.75 C354.7333,230.75 348.670027,229.44668 343.23,226.84 Z M408.17,229.39 L408.17,83.36 L466.65,83.36 L466.65,111.58 L437.92,111.58 L437.92,139.97 L465.46,139.97 L465.46,167.51 L437.92,167.51 L437.92,201 L468.52,201 L468.52,229.39 L408.17,229.39 Z M486.625,220.72 C480.221635,214.0333 477.02,204.853392 477.02,193.18 L477.02,125.86 C477.02,111.353261 479.909971,100.416704 485.69,93.05 C491.470029,85.6832965 500.536605,82 512.89,82 C523.656721,82 532.326634,84.9466372 538.9,90.84 C545.473366,96.7333628 548.76,105.233278 548.76,116.34 L548.76,141.5 L519.69,141.5 L519.69,119.91 C519.69,115.716646 519.180005,112.826675 518.16,111.24 C517.139995,109.653325 515.383346,108.86 512.89,108.86 C510.28332,108.86 508.498338,109.766658 507.535,111.58 C506.571662,113.393342 506.09,116.056649 506.09,119.57 L506.09,192.84 C506.09,196.693353 506.656661,199.498325 507.79,201.255 C508.923339,203.011675 510.623322,203.89 512.89,203.89 C517.423356,203.89 519.69,200.206704 519.69,192.84 L519.69,166.49 L549.1,166.49 L549.1,194.03 C549.1,218.510122 536.803456,230.75 512.21,230.75 C501.556613,230.75 493.028365,227.4067 486.625,220.72 Z M571.37,229.39 L571.37,111.41 L554.03,111.41 L554.03,83.36 L617.95,83.36 L617.95,111.41 L600.61,111.41 L600.61,229.39 L571.37,229.39 Z M632.06,220.89 C626.166637,214.316634 623.22,203.720073 623.22,189.1 L623.22,174.82 L651.95,174.82 L651.95,193.01 C651.95,200.26337 654.27331,203.89 658.92,203.89 C661.52668,203.89 663.339995,203.125008 664.36,201.595 C665.380005,200.064992 665.89,197.486685 665.89,193.86 C665.89,189.099976 665.323339,185.161682 664.19,182.045 C663.056661,178.928318 661.611675,176.321677 659.855,174.225 C658.098325,172.128323 654.953356,168.870022 650.42,164.45 L637.84,151.87 C628.093285,142.349952 623.22,131.810058 623.22,120.25 C623.22,107.783271 626.081638,98.2916992 631.805,91.775 C637.528362,85.2583007 645.886612,82 656.88,82 C670.026732,82 679.489971,85.4849651 685.27,92.455 C691.050029,99.4250348 693.94,110.333259 693.94,125.18 L664.19,125.18 L664.02,115.15 C664.02,113.223324 663.481672,111.693339 662.405,110.56 C661.328328,109.426661 659.826676,108.86 657.9,108.86 C655.633322,108.86 653.933339,109.483327 652.8,110.73 C651.666661,111.976673 651.1,113.676656 651.1,115.83 C651.1,120.590024 653.819973,125.519974 659.26,130.62 L676.26,146.94 C680.226687,150.793353 683.51332,154.448316 686.12,157.905 C688.72668,161.361684 690.823325,165.441643 692.41,170.145 C693.996675,174.848357 694.79,180.429968 694.79,186.89 C694.79,201.283405 692.155026,212.19163 686.885,219.615 C681.614974,227.03837 672.916727,230.75 660.79,230.75 C647.529934,230.75 637.953363,227.463366 632.06,220.89 Z" id="PROJECTS" fill="#FFFFFF"></path>
            </g>
        </g>
    </g>
</svg>