<?xml version="1.0" encoding="UTF-8"?>
<svg width="213px" height="285px" viewBox="0 0 213 285" version="1.1" xmlns="http://www.w3.org/2000/svg" xmlns:xlink="http://www.w3.org/1999/xlink">
    <!-- Generator: Sketch 50.2 (55047) - http://www.bohemiancoding.com/sketch -->
    <title>Group 4</title>
    <desc>Created with Sketch.</desc>
    <defs></defs>
    <g id="Page-1" stroke="none" stroke-width="1" fill="none" fill-rule="evenodd">
        <g id="Group-4" transform="translate(6.000000, 6.000000)" fill-rule="nonzero">
            <rect id="Rectangle-2" stroke="#000000" stroke-width="11" fill="#FFFFFF" x="0" y="0" width="201" height="273"></rect>
            <rect id="Rectangle-13" fill="#D3D3D3" x="16" y="22" width="170" height="230"></rect>
            <g id="Group-3" transform="translate(32.000000, 67.000000)">
                <g id="Group-6">
                    <circle id="Oval-3" fill="#9B9B9B" cx="69.5" cy="69.5" r="69.5"></circle>
                    <path d="M3.27444052,48.4454958 C5.55115128,41.0354014 8.7379547,34.3510718 12.8348508,28.3925073 C18.9801949,19.4546603 19.498506,18.7888104 28.0717547,12.3800463 C33.7872538,8.10753694 39.1649846,5.56350109 44.204947,4.74793875 C41.3833158,6.87445762 39.1923884,8.42083236 37.6321649,9.38706296 C35.2918297,10.8364089 35.8834079,10.5387213 34.0470111,11.4821513 C32.2106142,12.4255813 32.757856,11.6867577 31.8062899,12.3800463 C30.8547238,13.0733348 31.361391,13.2078182 30.76062,13.876538 C30.1598491,14.5452578 28.8909732,15.243397 29.1174245,15.3730297 C29.3438758,15.5026623 31.6935382,13.8196932 31.5075271,14.3254855 C31.321516,14.8312778 29.1873218,16.6641877 28.0717547,18.2163639 C26.9561875,19.76854 28.7410271,18.5064193 29.1174245,18.2163639 C29.4938219,17.9263084 29.3723186,17.2285529 30.013713,16.7198722 C30.6551074,16.2111915 30.8593765,15.0737313 32.1050527,15.0737313 C33.3507289,15.0737313 32.8210057,16.9005308 32.4038156,17.3184689 C31.9866254,17.7364068 32.4689341,17.9965215 31.8062899,18.9646097 C31.1436458,19.9326979 30.7412445,19.8449722 30.013713,21.059698 C29.2861815,22.2744239 29.2899084,23.0531002 29.1174245,23.3044356 C28.9449406,23.5557709 28.2214466,23.198197 27.474229,24.6512781 C26.7270114,26.1043591 27.9808466,25.917216 27.474229,26.8960156 C26.9676114,27.8748151 25.9377549,28.6307331 25.3828893,28.3925073 C24.8280237,28.1542815 25.6515117,25.818718 25.3828893,25.9981206 C25.2038077,26.1177223 24.6560758,27.0156173 23.7396937,28.6918056 C22.9811288,29.3719714 22.3836032,29.5715036 21.9471169,29.2904022 C21.2923873,28.8687503 22.2901848,27.8020433 21.9471169,27.9435597 C21.6040489,28.0850762 20.3343069,28.9727478 19.4076328,30.3379464 C18.4809588,31.7031451 19.0839272,31.3605031 19.4076328,31.684789 C19.7313385,32.0090748 20.8575887,31.2090836 20.7520656,31.684789 C20.6465424,32.1604943 19.270093,33.559007 18.5113444,35.7253165 C17.7525959,37.8916259 18.4996916,38.1350583 17.7644373,40.2147916 C17.029183,42.2945247 16.5407972,41.4123406 15.9718604,42.9084766 C15.4029237,44.4046124 15.9210019,44.8114783 15.3743348,46.5000566 C14.8276676,48.1886348 14.6897129,48.4454958 14.1792835,48.4454958 C13.6688542,48.4454958 13.7063038,47.5062571 13.4323765,46.5000566 C13.1584491,45.4938559 12.3657268,44.6639099 12.8348508,43.5070732 C13.3039748,42.3502366 14.8919558,42.355608 15.3743348,41.7112832 C15.8567138,41.0669584 14.5924348,42.0764818 14.1792835,41.7112832 C13.7661322,41.3460845 13.2368971,39.6008013 12.8348508,39.4665456 C12.4328046,39.33229 13.1050209,40.4503727 12.8348508,41.2623357 C12.5646807,42.0742987 12.0085728,42.3091884 11.4904181,43.5070732 C10.9722635,44.704958 11.4737193,45.2594609 10.8928924,45.7518107 C10.3120656,46.2441605 9.74852031,45.6342199 9.54845979,45.1532141 C9.34839928,44.6722082 10.2684627,44.2832124 10.1459854,43.9560207 C10.023508,43.628829 9.54835401,43.7315999 9.10031549,43.9560207 C8.652277,44.1804415 8.39335032,45.1532141 7.75588284,45.1532141 C7.11841535,45.1532141 7.10350281,43.6315544 6.71021296,43.9560207 C6.31692311,44.280487 6.25239808,45.8945769 5.21639885,47.2483024 C4.52573271,48.150786 3.87841327,48.5498505 3.27444052,48.4454958 Z M14.4780463,30.4875956 C14.4780463,31.8162508 16.6629979,30.1927872 18.0632002,29.1407531 C19.4634024,28.0887191 19.8941188,26.1206395 21.648354,25.1002256 C23.4025893,24.0798116 22.3405547,26.7252916 22.6940239,26.4470681 C23.047493,26.1688445 22.9165137,24.6321641 23.7396937,23.4540847 C24.5628738,22.2760054 24.310029,23.5969407 24.7853636,23.4540847 C25.2606983,23.3112288 26.0158759,23.2161168 26.727322,22.5561897 C27.438768,21.8962626 28.8186617,20.2194511 28.8186617,19.7128555 C28.8186617,19.20626 27.6180166,20.9100489 26.727322,20.9100489 C25.8366274,20.9100489 26.2750924,19.4681854 25.8310335,19.7128555 C25.3869746,19.9575257 24.8548066,21.9178402 23.7396937,22.5561897 C22.6245809,23.1945392 22.5093715,22.0107434 22.6940239,21.5086456 C22.8786763,21.0065477 24.4266344,20.5856166 24.7853636,19.7128555 C25.1440928,18.8400945 24.1708656,18.6190539 23.7396937,18.9646097 C23.3085219,19.3101654 20.6371904,21.8977658 18.0632002,25.1002256 C15.4892099,28.3026853 14.4780463,29.1589405 14.4780463,30.4875956 Z" id="Combined-Shape" fill="#417505"></path>
                    <path d="M77.3278263,0.38212732 C79.1735393,0.742231153 86.1531267,0.831303233 96.7734033,5.47278768 C107.39368,10.1142721 116.667725,17.6005373 120.706422,22.2420218 C124.745118,26.8835062 128.247853,31.9741666 132.373768,39.7598824 C136.499683,47.5455982 137.609116,55.331314 138.357023,61.4700516 C139.104929,67.608789 136.935259,57.3802428 135.215814,55.331314 C133.496368,53.2823853 132.411119,52.4744957 131.326698,53.3848851 C130.242278,54.2952746 130.934911,56.3011876 130.578792,59.224172 C130.222673,62.1471563 129.588272,62.6024998 129.830885,65.6623601 C130.073498,68.7222203 131.197271,66.9986038 131.326698,68.6568661 C131.456126,70.3151285 131.494834,72.723238 130.578792,75.2447795 C129.662749,77.7663212 129.595333,75.6864945 128.933397,75.2447795 C128.271462,74.8030646 127.878626,74.3405872 127.437583,73.1486252 C126.99654,71.9566633 127.881698,71.8559349 127.437583,71.2021964 C126.993468,70.5484578 125.76901,70.5895221 124.8947,69.4054927 C124.020389,68.2214632 125.171848,68.4520519 124.8947,67.7585143 C124.617551,67.0649768 124.074537,65.9038961 123.398887,65.6623601 C122.723236,65.420824 123.299035,67.0098878 122.800561,67.0098878 C122.302086,67.0098878 121.420532,66.0614758 119.958515,65.6623601 C118.496497,65.2632443 118.8133,65.9623086 117.864376,65.6623601 C116.915452,65.3624115 117.534422,64.600304 117.116469,64.7640083 C116.698516,64.9277125 115.461225,65.6832748 114.424004,67.0098878 C113.386784,68.3365008 114.805434,67.98144 114.424004,68.2076902 C114.042574,68.4339405 110.630101,68.5887308 110.385308,69.4054927 C110.140515,70.2222546 112.620596,69.7772372 113.526516,71.2021964 C114.432436,72.6271554 113.620308,72.7817167 113.526516,74.3464278 C113.432724,75.9111388 114.022295,77.1477573 113.077772,78.6884616 C112.133249,80.2291659 110.99422,79.4803428 109.487819,80.9343412 C107.981419,82.3883394 108.845,82.5209765 108.291169,83.1802207 C107.737337,83.8394649 106.39164,85.0815765 103.953309,87.5222548 C101.514977,89.9629322 101.887372,89.1127724 101.260844,90.3670349 C100.634316,91.6212975 101.83749,91.0961922 102.307914,90.8162112 C102.62153,90.629557 104.217065,89.6313884 107.094518,87.8217054 C108.343189,86.7770257 109.140956,86.5274836 109.487819,87.0730786 C110.008114,87.8914712 109.130774,88.7066345 108.889494,90.3670349 C108.648214,92.0274354 109.313993,93.2603532 108.291169,95.30797 C107.268344,97.3555878 105.289516,99.414343 102.307914,103.542862 C99.3263114,107.671381 100.140402,105.535415 99.3162868,107.735171 C98.4921715,109.934926 99.8364003,108.567208 100.064193,109.531874 C100.291986,110.496541 102.285034,113.515855 101.260844,115.970062 C100.236655,118.42427 95.5767523,120.312096 95.1280087,121.360174 C94.6792643,122.40825 95.4955737,122.762397 95.1280087,123.755778 C94.7604429,124.74916 94.0658127,124.404475 93.6321948,125.402757 C93.1985768,126.401037 94.0594878,126.686216 93.6321948,127.19946 C93.2049026,127.712704 92.4786338,127.544523 91.3884742,128.097812 C90.2983147,128.651101 87.3266854,131.403055 83.011918,132.589571 C78.6971507,133.776087 80.2990674,132.65669 77.7765704,131.840945 C75.2540732,131.0252 75.2839962,131.032529 73.2891294,129.44534 C71.2942626,127.858151 72.8290268,127.997744 71.9428972,127.19946 C71.0567675,126.401176 69.787038,126.764786 68.8016886,125.402757 C67.8163391,124.040726 68.3889996,123.871365 68.8016886,122.857426 C69.2143775,121.843488 70.037075,122.367527 70.4470835,121.360174 C70.8570921,120.35282 71.1314948,119.642636 70.4470835,118.814843 C69.7626722,117.98705 65.6749648,116.346036 63.2671781,112.676106 C60.8593913,109.006175 64.0808472,110.593875 63.8655035,108.783248 C63.6501598,106.97262 63.4838917,106.580753 62.5192713,106.387643 C61.5546508,106.194533 60.4451009,107.91684 58.6301558,107.735171 C56.8152107,107.553501 57.7394142,106.046861 56.5360167,105.788741 C55.3326193,105.530623 54.448932,106.240049 52.3477386,106.387643 C50.2465451,106.535237 50.1788088,106.387643 48.009879,106.387643 C45.8409493,106.387643 43.7180499,107.347576 39.9324854,106.387643 C36.1469209,105.42771 37.9446572,105.338736 36.7912767,103.542862 C35.6378962,101.746989 36.8303404,101.317869 35.8937885,100.09918 C34.9572367,98.8804912 33.7031994,99.304387 32.3038359,97.7035756 C30.9044722,96.1027633 32.0134298,96.5023061 31.7055104,95.30797 C31.3975909,94.1136348 31.107185,94.185031 31.107185,93.0620911 C31.107185,91.9391512 31.5896785,91.9756443 31.7055104,90.8162112 C31.8213423,89.6567773 31.2350343,88.7905835 31.7055104,87.0730786 C32.1759865,85.3555735 32.4686061,83.6710425 34.2483936,81.5332423 C36.028181,79.3954423 37.4284545,80.3267782 39.1845785,78.0895603 C40.9407026,75.8523425 38.6580589,76.0150488 39.1845785,75.2447795 C39.7110982,74.4745102 40.2551796,75.6696813 41.1291363,75.2447795 C42.0030929,74.8198778 42.6538851,73.4507391 44.4199263,72.6994494 C46.1859675,71.9481596 45.7776753,72.8876184 47.1123908,72.6994494 C48.4471063,72.5112804 51.0868308,72.0244668 55.0402031,71.2021964 C58.9935754,70.3799259 57.0044364,69.8970235 58.6301558,70.3038445 C60.2558752,70.7106654 60.0716783,71.2704066 61.0234576,72.6994494 C61.9752369,74.1284921 61.0962963,74.6834783 61.9209458,75.2447795 C62.7455953,75.8060808 63.3933782,74.9020467 64.7629917,75.2447795 C66.1326052,75.5875124 66.2852692,76.3155881 67.9042004,76.7420326 C69.5231315,77.1684771 69.5114518,77.3935332 70.4470835,76.7420326 C71.3827153,76.090532 70.4165731,74.5093912 71.3445717,74.3464278 C72.2725703,74.1834643 75.981594,75.2447795 78.9732213,74.7956036 C81.9648485,74.3464278 84.0589876,74.3464278 85.2556385,72.6994494 C86.4522895,71.0524711 86.6648486,67.7715936 85.2556385,67.0098878 C83.8464284,66.2481821 81.1779749,68.8876918 77.7765704,68.6568661 C74.3751658,68.4260405 76.6329687,67.6279402 76.4303381,66.4109866 C76.2277074,65.194033 77.5422357,64.2875038 77.0286636,64.165107 C76.5150913,64.0427102 73.8894654,64.3746881 73.2891294,65.6623601 C72.6887936,66.9500321 74.9345244,67.6986976 74.9345244,68.6568661 C74.9345244,69.6150347 73.2891294,68.2965946 73.2891294,68.6568661 C73.2891294,69.0171377 74.9345244,69.8406268 74.9345244,70.3038445 C74.9345244,70.7670622 74.0828907,70.5024758 73.2891294,70.3038445 C72.4953682,70.1052133 72.0454832,70.2178554 71.3445717,69.4054927 C70.6436602,68.59313 71.1647391,67.6859783 70.4470835,67.0098878 C69.729428,66.3337973 69.4862991,67.3726775 68.8016886,67.0098878 C68.1170779,66.6470981 68.1458346,66.4282717 67.9042004,65.6623601 C67.6625661,64.8964484 68.3230389,64.5444209 67.9042004,64.165107 C67.4853617,63.7857931 66.2619986,63.6511622 64.7629917,62.8175793 C63.2639849,61.9839964 64.3947203,62.0865093 63.8655035,61.9192274 C63.3362868,61.7519456 61.9209458,61.4448772 61.9209458,61.9192274 C61.9209458,62.3935777 62.7505127,63.3196041 63.8655035,64.165107 C64.9804944,65.0106099 64.883205,64.3939629 66.2588053,65.3629094 C67.6344057,66.3318561 67.3058749,66.3125673 67.3058749,66.7104372 C67.3058749,66.9756838 66.9568517,67.0258955 66.2588053,66.8610722 C66.557968,68.6571694 66.3086658,69.5053095 65.5108985,69.4054927 C64.3142476,69.2557674 65.733369,67.7097424 65.0621544,67.0098878 C64.39094,66.3100332 63.4472393,66.4694798 61.9209458,65.6623601 C60.3946523,64.8552403 59.6214433,63.2065627 57.1343421,62.8175793 C54.6472411,62.4285958 54.3888762,62.8347151 52.3477386,64.165107 C50.3066009,65.4954989 51.5078172,65.5726618 50.7023436,67.0098878 C49.8968699,68.4471138 50.2324963,69.4376213 48.9073672,70.3038445 C47.5822381,71.1700677 43.3728567,71.8010975 43.3728567,71.8010975 C43.3728567,71.8010975 39.9324854,70.3038445 39.9324854,68.6568661 C39.9324854,67.0098878 40.2316014,64.2025657 41.5778804,63.4164805 C42.9241594,62.6303953 44.4709704,63.564786 47.1123908,62.8175793 C49.7538112,62.0703725 48.1143611,61.8646854 48.009879,60.8711503 C47.9053969,59.8776153 45.9244556,58.2427969 46.5140653,57.1280177 C47.1036752,56.0132386 48.8205129,56.9758779 50.7023436,55.78049 C52.5841742,54.5851021 52.3777718,53.7469161 54.2922963,52.1870826 C56.2068208,50.6272492 56.1474235,51.8440905 57.1343421,50.5401043 C58.1212609,49.2361181 57.3181368,47.6663713 58.0318304,47.2461476 C58.7455239,46.8259239 59.5042073,48.0903367 59.6772254,49.0428512 C59.8502433,49.9953659 58.1401315,50.3649272 58.6301558,50.5401043 C59.1201802,50.7152814 61.3205301,51.003272 63.8655035,50.5401043 C66.410477,50.0769366 66.0199721,50.3416959 66.8571308,49.0428512 C67.6942895,47.7440067 66.3065717,46.7888404 66.8571308,45.8986198 C67.4076899,45.0083993 68.3142511,46.4991203 68.8016886,45.8986198 C69.2891261,45.2981195 69.2654684,44.3243381 68.8016886,43.503015 C68.3379087,42.6816919 67.7806665,43.0852272 66.8571308,42.4549378 C65.9335951,41.8246485 65.5108985,41.9990581 65.5108985,41.2571354 C65.5108985,40.5152128 66.379873,40.1354426 66.8571308,38.8615306 C67.3343886,37.5876186 67.1041037,37.3670755 66.8571308,37.6637281 C66.6101579,37.9603807 64.6061439,38.7683073 63.8655035,41.2571354 C63.1248632,43.7459636 64.5403706,43.5123623 64.7629917,44.7008174 C64.9856128,45.8892726 65.3964323,46.5106495 64.7629917,47.2461476 C64.1295512,47.9816458 62.7247971,49.3834466 61.0234576,49.0428512 C59.322118,48.702256 59.7292337,46.7906141 58.0318304,45.8986198 C56.3344271,45.0066256 55.8154777,46.7910436 55.0402031,45.8986198 C54.2649284,45.0061961 54.5843378,43.8694804 55.0402031,42.4549378 C55.4960685,41.0403954 55.781053,41.8421859 56.5360167,41.2571354 C57.2909805,40.6720849 58.6468637,40.4331163 59.6772254,38.8615306 C60.707587,37.2899448 59.8786698,38.0705228 60.2755508,37.3642776 C60.6724319,36.6580322 60.4931995,36.8861173 61.0234576,36.4659257 C61.5537158,36.045734 61.925772,34.6427621 63.2671781,33.6211449 C64.6085842,32.5995277 65.5909134,31.7768527 67.9042004,31.22554 C70.2174873,30.6742274 68.6678288,32.0220517 69.5495954,32.1238919 C70.4313619,32.225732 72.7948169,31.5458133 75.6824312,32.1238919 C78.5700456,32.7019705 77.4059059,33.1491382 77.0286636,33.6211449 C76.6514211,34.0931517 73.6924484,34.2661274 73.2891294,35.118398 C72.8858104,35.9706685 74.6296286,36.9096376 75.6824312,36.4659257 C76.7352339,36.0222138 77.9261517,34.8189473 78.5244772,33.4714196 C79.1228026,32.1238919 77.527994,31.5365595 77.7765704,31.22554 C78.0251467,30.9145205 79.1740127,31.8900852 80.1698722,31.22554 C81.1657316,30.5609949 82.2452608,29.2758736 84.0589876,27.0332315 C85.8727144,24.7905894 84.4215348,25.5472011 85.2556385,24.9370772 C86.0897422,24.3269533 87.9481027,25.1168257 87.9481027,24.1884508 C87.9481027,23.2600757 85.0936743,21.6926992 85.2556385,21.0442194 C85.4176027,20.3957394 87.9051255,21.7928458 88.5464287,21.7928458 C89.1877318,21.7928458 87.0424785,20.9586447 87.2001963,20.2955928 C87.357914,19.632541 89.0519323,19.1824151 89.2943352,18.6486144 C89.536739,18.1148139 88.3855375,18.9405181 87.9481027,18.6486144 C87.5106689,18.3567108 88.0614393,18.1731048 87.9481027,17.7502627 C87.834767,17.3274206 86.5880213,15.0230495 86.3027081,12.509877 C86.0173948,9.99670437 87.2001963,11.8628248 87.2001963,11.1623493 C87.2001963,10.4618736 86.3027081,10.3498816 86.3027081,9.51537089 C86.3027081,8.68086016 86.5408159,7.71866724 87.2001963,7.71866724 C87.8595763,7.71866724 89.7862728,9.51537089 90.1918232,9.51537089 C90.5973737,9.51537089 89.0963634,8.76955266 88.5464287,7.71866724 C87.996494,6.66778182 88.5464287,7.04490337 88.5464287,6.3711395 C88.5464287,5.69737563 89.1001907,4.92357626 88.5464287,4.42471054 C87.9926658,3.92584482 86.3612666,3.12872795 84.0589876,2.32855628 C81.7567087,1.52838461 75.4821131,0.022023487 77.3278263,0.38212732 Z M77.3278263,57.4274683 C76.8790822,57.8766442 77.7765704,61.4333836 77.7765704,62.667854 C77.7765704,63.9023243 80.782565,61.2836583 83.1614994,60.721425 C85.5404337,60.1591917 86.4972679,60.157425 87.4993592,59.8230732 C88.5014504,59.4887214 89.1447537,58.774996 88.8455916,58.3258202 C88.5464287,57.8766442 85.7874015,57.778358 84.8068944,56.8285671 C83.8263874,55.8787762 85.4982078,53.9605169 84.8068944,54.1335116 C84.115581,54.3065063 82.5018318,57.0388422 82.4135926,57.4274683 C82.3253534,57.8160944 84.0589876,56.8423372 84.0589876,57.4274683 C84.0589876,58.0125994 83.5260407,58.7803796 83.011918,59.0744467 C82.4977955,59.3685137 81.2652768,59.4328713 80.917779,59.224172 C80.5702812,59.0154727 81.5317514,59.1452378 80.917779,58.3258202 C80.3038066,57.5064025 79.8673724,57.0148887 79.1228026,56.8285671 C78.3782327,56.6422455 77.7765704,56.9782924 77.3278263,57.4274683 Z M94.3801013,50.390379 C93.7049661,51.6379823 92.4390336,50.9980136 93.3330318,53.2351598 C94.22703,55.472306 96.6544079,56.4918049 97.0725663,57.1280177 C97.4907246,57.7642305 96.2344146,57.9870621 97.0725663,58.9247213 C97.9107179,59.8623806 98.7628745,59.9727985 99.6154498,59.9727985 C100.468024,59.9727985 101.027464,59.8202061 101.260844,58.9247213 C101.494224,58.0292366 101.900897,58.1168817 100.512938,56.5291165 C99.1249791,54.9413514 98.0528074,54.9464932 97.0725663,54.1335116 C96.0923252,53.3205301 95.6863691,53.2100144 95.2775902,52.1870826 C94.8688104,51.164151 95.4359899,49.9588575 95.2775902,49.6417525 C95.1191897,49.3246474 95.0552374,49.1427757 94.3801013,50.390379 Z M101.410426,69.2557674 C102.726641,70.802377 104.633278,71.986564 105.897867,72.2502735 C107.162456,72.513983 108.105875,71.2379432 108.590331,70.7530204 C109.074788,70.2680976 108.805728,69.7708224 108.590331,69.555218 C108.374934,69.3396136 108.315668,69.1450514 107.39368,69.555218 C106.471693,69.9653846 107.590913,71.2152047 105.897867,70.7530204 C104.20482,70.290836 103.070546,68.4122371 102.457495,68.2076902 C101.844445,68.0031434 100.09421,67.7091577 101.410426,69.2557674 Z M86.7514522,77.3409338 C87.0506149,77.9544711 89.8886721,80.9687783 90.6405677,81.5332423 C91.3924624,82.0977064 91.9356333,80.7976025 92.7347067,81.8326929 C93.5337801,82.8677834 92.6190072,83.7969286 93.1834512,84.827199 C93.7478943,85.8574695 94.6512247,86.13457 95.2775902,86.4741774 C95.9039548,86.8137848 96.0361386,86.3636424 96.7734033,86.773628 C97.5106681,87.1836136 97.2357916,87.6774426 97.9700543,87.9714303 C98.7043179,88.2654179 99.5287688,88.3655792 99.7650304,87.9714303 C100.001293,87.5772822 99.1657865,87.2578221 98.8675423,86.4741774 C98.5692982,85.6905327 98.8675423,85.4261003 98.5683802,84.827199 C98.2692173,84.2282979 94.6627067,82.2682609 93.2582411,81.2337917 C91.8537763,80.1993226 91.2678546,79.8056306 90.6405677,78.9879122 C90.0132799,78.1701937 90.3414047,77.3409338 90.0422418,77.0414832 C89.7430797,76.7420326 87.3610382,76.7273965 87.2001963,76.7420326 C87.0393542,76.7566687 86.4522895,76.7273965 86.7514522,77.3409338 Z" id="Combined-Shape" fill="#417505"></path>
                    <path d="M56.9872472,67.3626682 C56.8524688,67.9877498 57.8883962,69.3021554 58.4026222,69.0616612 C58.9168482,68.821167 59.3260594,66.8648264 58.9687722,66.4359448 C58.611485,66.0070631 57.1220256,66.7375867 56.9872472,67.3626682 Z" id="Path-52" fill="#417505"></path>
                    <path d="M57.7965282,64.6504933 C57.5925389,64.8600726 57.5575399,65.4888104 57.7965282,65.4888104 C58.0355165,65.4888104 58.6124853,64.8241145 58.6124853,64.6504933 C58.6124853,64.4768722 58.0005174,64.440914 57.7965282,64.6504933 Z" id="Path-53" fill="#417505"></path>
                    <path d="M61.6327488,69.1294752 C61.3716694,69.3540889 60.8793541,69.7927328 61.6327488,70.479026 C62.3861435,71.1653192 63.5831093,71.4188976 64.1019179,71.3787265 C64.6207264,71.3385555 64.4310662,70.8043009 64.5376536,70.2541009 C64.644241,69.7039008 65.1473819,69.286845 64.5376536,69.1294752 C63.9279252,68.9721055 63.0109695,69.7292756 62.5042202,69.7292756 C61.997471,69.7292756 61.8938282,68.9048615 61.6327488,69.1294752 Z" id="Path-54" fill="#417505"></path>
                    <path d="M75.3369409,71.0638749 C75.4658091,71.2591329 76.2846508,71.2821799 76.4287299,71.0638749 C76.5728089,70.8455699 76.1557826,70.2367491 75.8828354,70.2367491 C75.6098881,70.2367491 75.2080727,70.868617 75.3369409,71.0638749 Z" id="Path-55" fill="#417505"></path>
                    <path d="M46.5892107,56.1566549 C47.0329671,56.1566549 50.6104096,54.8161527 51.0267742,53.7884803 C51.4431387,52.7608079 49.3544821,52.6852944 48.8079925,50.6802511 C48.2615029,48.6752079 49.3400045,46.3576714 48.8079925,45.6478802 C48.2759805,44.938089 46.3413815,47.2760002 46.5892107,47.7200329 C46.83704,48.1640656 47.8205693,47.1742457 47.3288047,50.6802511 C46.83704,54.1862567 45.9138588,53.8890914 45.8496168,54.6765458 C45.7853749,55.4640001 46.1454544,56.1566549 46.5892107,56.1566549 Z" id="Path-56" fill="#417505"></path>
                    <path d="M41.9186586,53.0799662 C42.5228254,51.2699033 44.1593322,49.6730272 44.5993855,49.361742 C45.0394389,49.0504567 46.1061748,48.7144069 45.4929612,50.5515737 C44.8797475,52.3887405 43.4396985,53.9312916 42.9611635,54.269798 C42.4826286,54.6083043 41.3144917,54.8900292 41.9186586,53.0799662 Z" id="Path-57" fill="#417505"></path>
                    <path d="M38.1835723,38.6193211 C38.8069712,39.5371708 38.8622222,40.2756184 40.3312018,40.2756184 C41.8001815,40.2756184 43.1802704,39.258958 43.552646,38.6193211 C43.9250216,37.9796841 43.7251143,37.5491503 42.172027,37.1135962 C40.6189399,36.6780422 38.9625674,36.8195094 38.1835723,37.1135962 C37.4045772,37.4076831 37.5601734,37.7014713 38.1835723,38.6193211 Z" id="Path-58" fill="#417505"></path>
                    <path d="M58.7762073,25.0691522 C58.7762073,26.0025732 60.2968645,27.0141343 61.3827634,27.0141343 C62.4686624,27.0141343 63.0746304,25.5215889 63.3760122,25.0691522 C63.677394,24.6167156 63.0956431,24.2612366 63.3760122,24.0218542 C63.6563813,23.7824718 64.2495105,24.3664198 64.6026268,24.0218542 C64.9557432,23.6772887 64.8628179,23.0788327 64.6026268,22.8249422 C64.3424359,22.5710518 63.9730506,22.4664307 63.3760122,22.8249422 C62.7789738,23.1834536 63.0550225,23.8880532 62.609378,24.0218542 C62.1637336,24.1556552 62.7255448,23.0565238 61.3827634,23.4233982 C60.039982,23.7902727 58.7762073,24.1357313 58.7762073,25.0691522 Z" id="Path-59" fill="#417505"></path>
                    <path d="M78.9193364,22.5398296 C78.9193364,24.3856589 78.7901918,25.3051108 79.8045068,26.4153481 C80.8188218,27.5255853 82.2710115,26.829109 82.4600179,26.4153481 C82.6490244,26.0015871 80.9632098,25.0763893 80.6896771,24.4775888 C80.4161444,23.8787882 80.3993079,23.37806 80.6896771,22.5398296 C80.9800464,21.7015991 81.5290165,21.9708779 81.7223759,21.4964206 C81.9157354,21.0219635 81.5066939,20.8339283 81.7223759,20.0058367 C81.938058,19.1777449 83.1736997,18.6643109 82.4600179,18.6643109 C81.7463361,18.6643109 80.4212976,19.3307168 79.8045068,20.0058367 C79.1877159,20.6809564 78.9193364,20.6940001 78.9193364,22.5398296 Z" id="Path-60" fill="#417505"></path>
                    <path d="M81.4049321,11.8708227 C81.8919912,12.3046289 82.2519111,12.6730929 83.034313,12.5964386 C83.8167149,12.5197842 84.8207865,11.9843534 84.3674428,11.5805762 C83.9140992,11.1767992 81.8846037,11.0982118 81.4049321,11.1452067 C80.9252605,11.1922017 80.9178731,11.4370164 81.4049321,11.8708227 Z" id="Path-61" fill="#417505"></path>
                    <path d="M83.8555009,10.5243041 C83.6641369,10.8193927 84.4403605,11.6242639 84.8541496,11.6242639 C85.2679386,11.6242639 85.8071458,10.7882945 85.5674701,10.5243041 C85.3277944,10.2603138 84.0468649,10.2292155 83.8555009,10.5243041 Z" id="Path-62" fill="#417505"></path>
                    <path d="M83.5493499,8.89334562 C83.1234266,9.14250444 82.9714648,9.52719725 83.5493499,9.78073797 C84.1272349,10.0342786 85.0662981,10.0765354 85.5719475,9.78073797 C86.0775969,9.48494046 86.08526,8.82275836 85.5719475,8.59754813 C85.058635,8.37233794 83.9752732,8.64418675 83.5493499,8.89334562 Z" id="Path-63" fill="#417505"></path>
                    <path d="M26.0108858,31.9140508 C24.8540617,34.4917105 25.0447933,37.3948753 26.0108858,37.792952 C26.9769783,38.1910287 29.0003276,34.0359982 30.0350544,33.5722024 C31.0697813,33.1084066 31.3662426,34.8535014 32.5687902,34.8535014 C33.7713379,34.8535014 32.4872024,33.9879314 34.9534828,33.5722024 C37.4197632,33.1564733 38.6768146,34.1385244 40.1699977,33.5722024 C41.6631807,33.0058803 41.1110879,31.9014393 42.1075604,30.8588633 C43.1040329,29.8162873 43.0865181,30.7468954 44.4922529,29.0499706 C45.8979877,27.3530458 45.0558069,26.8572813 46.7279021,25.2814441 C48.3999974,23.7056069 50.7221874,23.5606412 51.0501574,22.8695872 C51.3781273,22.1785332 49.0164545,22.1078929 48.5164215,21.5129177 C48.0163885,20.9179424 49.2317766,20.3229155 48.5164215,19.854766 C47.8010665,19.3866165 48.0496296,20.5353903 45.9826857,19.854766 C43.9157419,19.1741418 43.7367173,18.2057513 42.1075604,17.7443912 C40.4784035,17.283031 39.5760062,17.9793676 38.5305216,17.7443912 C37.4850369,17.5094147 37.909759,15.8495116 36.7420022,16.5384627 C35.5742453,17.2274137 35.2329728,19.0774133 34.9534828,19.854766 C34.6739928,20.6321187 35.7630692,19.9776515 34.9534828,21.5129177 C34.1438963,23.0481839 32.95155,23.651148 32.5687902,24.3769978 C32.1860305,25.1028475 32.996216,25.6388793 32.5687902,26.0351494 C32.1413644,26.4314196 31.161967,25.7938718 30.7802709,26.0351494 C30.3985747,26.276427 32.7991765,24.6771377 30.7802709,27.1657073 C28.7613652,29.654277 27.1677098,29.336391 26.0108858,31.9140508 Z" id="Path-64" fill="#417505"></path>
                    <path d="M37.6805436,12.0578906 C37.8108197,11.3428941 39.3830624,10.6917149 40.0879736,10.556443 C40.7928848,10.4211712 41.0043776,9.37009919 41.5926173,11.3071668 C42.1808571,13.2442345 42.2924837,14.7591186 41.5926173,15.5112199 C40.8927509,16.2633211 38.524661,15.6598654 37.6805436,15.5112199 C37.1177986,15.4121229 36.6162507,15.4121229 36.1758999,15.5112199 C35.3213771,14.9106409 34.7195196,14.6103514 34.3703274,14.6103514 C33.8465391,14.6103514 34.1249579,15.8683085 33.6180055,15.5112199 C33.1110531,15.1541313 33.1051418,14.7296438 33.6180055,13.8596276 C34.1308692,12.9896115 34.7722398,12.4911936 35.423578,12.0578906 C36.0749161,11.6245876 36.7904286,11.0092493 36.9282217,11.3071668 C37.0660149,11.6050843 35.1293585,12.5584798 35.8749711,13.0338315 C36.6205837,13.5091831 39.2721642,13.2308043 39.6365805,13.0338315 C40.0009968,12.8368586 37.5502675,12.772887 37.6805436,12.0578906 Z" id="Path-66" fill="#417505"></path>
                    <path d="M32.3377194,12.6420176 C32.6752968,11.8153186 33.4132375,11.2102113 33.9906569,10.9072001 C34.5680762,10.6041888 35.9666006,10.1161847 35.6435944,10.9072001 C35.3205882,11.6982155 33.4166404,12.9432431 33.0890546,13.1151496 C32.7614689,13.2870562 32.0001421,13.4687166 32.3377194,12.6420176 Z" id="Path-67" fill="#417505"></path>
                    <path d="M36.0602515,10.2663216 C35.8310118,9.97440326 36.6075687,9.16843344 37.0661014,9.16843344 C37.5246342,9.16843344 38.1783332,9.99336426 37.9282585,10.2663216 C37.6781837,10.539279 36.2894912,10.55824 36.0602515,10.2663216 Z" id="Path-68" fill="#417505"></path>
                    <path d="M38.6383982,9.34379313 C38.6383982,9.07900819 39.8936959,8.72739093 40.2889488,8.87657034 C40.6842018,9.02574977 40.7306876,9.84171343 40.2889488,9.96675678 C39.8472102,10.0918001 38.6383982,9.60857808 38.6383982,9.34379313 Z" id="Path-69" fill="#417505"></path>
                </g>
                <g id="Group-5" transform="translate(11.000000, 44.000000)">
                    <path d="M8.18687871,0.183255702 C8.30987473,0.274883992 8.37137174,0.408507264 8.37137174,0.584128154 C8.37137174,0.759749923 7.21830182,3.29094673 4.91212728,8.17779679 L8.97097417,16.493036 L8.27912522,16.493036 C7.52577491,16.493036 7.00689339,16.4204983 6.72246523,16.2754193 C6.43803698,16.1303411 6.17283089,15.782922 5.92683894,15.2331514 L2.58290257,8.17779679 L6.45725644,0 L6.80318091,0 C7.2490413,0 7.56037021,0.00763569086 7.73717697,0.0229070726 C7.91398365,0.0381784543 8.06388278,0.0916274116 8.18687871,0.183255702 Z M2.26003977,1.39732703 L2.26003977,15.095709 C2.26003977,15.7981943 2.18701202,16.2066981 2.04095424,16.3212334 C1.89489654,16.4357688 1.41445071,16.493036 0.599602343,16.493036 L0.115308186,16.493036 L0.115308186,0 L0.599602343,0 C1.41445071,0 1.89489654,0.0572672421 2.04095424,0.171802605 C2.18701202,0.286337968 2.26003977,0.694841717 2.26003977,1.39732703 Z M10.4699802,10.3997758 L10.4699802,8.9795417 C10.4699802,8.03271427 10.4930415,7.39896072 10.539165,7.07826082 C10.5852885,6.75756181 10.6390985,6.44068459 10.7005964,6.12762127 C10.7620944,5.81455706 10.8351222,5.58548985 10.9196819,5.44041085 C11.0042416,5.29533272 11.1118615,5.12353187 11.2425447,4.92500391 C11.3732279,4.72647595 11.5231271,4.58903527 11.6922465,4.51267748 C11.861366,4.43632057 12.0612314,4.35232973 12.2918489,4.26070056 C12.6762114,4.10798674 13.2373721,4.03163071 13.9753479,4.03163071 C14.7133237,4.03163071 15.3090766,4.11943984 15.7626242,4.29506161 C16.2161719,4.4706825 16.5697801,4.66920783 16.8234592,4.89064286 C17.0771384,5.11207877 17.2577861,5.53967131 17.3654076,6.17343541 C17.4730291,6.80719863 17.5383697,7.36841444 17.5614314,7.85709866 C17.5844931,8.34578375 17.5960239,9.01008007 17.5960239,9.85000782 L17.5960239,11.5680321 C17.5960239,12.5454023 17.5729625,13.1944272 17.5268389,13.5151263 C17.4807155,13.8358261 17.4269055,14.1565208 17.3654076,14.4772207 C17.3039095,14.7979197 17.2308818,15.0308052 17.146322,15.1758842 C17.0617623,15.3209623 16.9541425,15.4965806 16.8234592,15.7027442 C16.692776,15.9089087 16.5390333,16.0539851 16.3622267,16.1379777 C16.1854199,16.2219703 15.9817109,16.3097794 15.7510934,16.4014077 C15.3821055,16.5693938 14.890129,16.6533846 14.2751491,16.6533846 C13.6601692,16.6533846 13.1874105,16.6304785 12.8568589,16.5846643 C12.5263072,16.5388493 12.2341961,16.4395871 11.9805169,16.2868732 C11.7268377,16.1341586 11.5154415,15.9890831 11.346322,15.8516397 C11.1772026,15.7141973 11.0349906,15.4813118 10.9196819,15.1529771 C10.8043732,14.8246415 10.7159712,14.5459428 10.6544732,14.3168712 C10.5929751,14.0878004 10.5545395,13.7136568 10.539165,13.194429 C10.4930415,12.3239585 10.4699802,11.3924165 10.4699802,10.3997758 Z M14.0214711,5.97872573 C13.3296188,5.97872573 12.9068265,6.2574245 12.7530815,6.81483081 C12.5993365,7.37223712 12.5224652,8.33432099 12.5224652,9.70111229 C12.5224652,11.0679027 12.5301524,11.9536314 12.5455268,12.358323 C12.5609014,12.7630155 12.6147113,13.1906089 12.7069583,13.6411147 C12.7992052,14.0916214 12.9491043,14.3817741 13.1566601,14.5115808 C13.3642157,14.6413876 13.6524832,14.7062905 14.0214711,14.7062905 C14.7133236,14.7062905 15.1361158,14.4161378 15.2898608,13.8358244 C15.4436058,13.255511 15.5204771,12.2781558 15.5204771,10.9037296 C15.5204771,9.52930265 15.51279,8.64357481 15.4974155,8.24651801 C15.482041,7.84946121 15.428231,7.43714005 15.3359841,7.00954048 C15.2437371,6.58194092 15.093838,6.30324216 14.8862823,6.17343541 C14.6787266,6.04362779 14.3904591,5.97872573 14.0214711,5.97872573 Z M24.9757455,10.3768687 L24.9988071,8.36105337 C24.9988071,7.75019635 24.9834329,7.29206105 24.9526839,6.98663341 C24.8911859,6.3452345 24.5298906,6.0092685 23.8687873,5.97872573 L21.7471173,6.59721406 L21.954672,7.23861033 L21.954672,16.493036 C20.9245806,16.493036 20.3249843,16.4357688 20.1558649,16.3212334 C19.9867453,16.2066981 19.9021869,15.8058291 19.9021869,15.1186161 L19.9021869,4.19198022 C20.7939077,4.19198022 21.3550684,4.21488642 21.5856859,4.26070056 C21.8163033,4.30651559 21.9392974,4.44395539 21.954672,4.67302699 L23.6612326,4.03163071 C24.599077,4.03163071 25.2140476,4.09271536 25.506163,4.2148873 C25.7982785,4.33705835 26.0212053,4.44395626 26.1749503,4.53558455 C26.3286953,4.62721372 26.4670637,4.81428507 26.5900596,5.09680651 C26.7130556,5.37932708 26.7976141,5.63893705 26.8437376,5.87564435 C26.8898611,6.11235076 26.9359838,6.49031263 26.9821073,7.00954048 C27.0282309,7.75783907 27.0512923,8.88790638 27.0512923,10.3997758 L27.0512923,16.493036 C26.0212009,16.493036 25.417761,16.4357688 25.2409542,16.3212334 C25.0641476,16.2066981 24.9757455,15.8058291 24.9757455,15.1186161 L24.9757455,10.3768687 Z M29.0345924,14.4772207 C30.4182972,14.6299345 31.333066,14.7062905 31.7789264,14.7062905 C32.2247868,14.7062905 32.5168979,14.6681121 32.6552684,14.5917551 C32.7936389,14.5153982 32.8974152,14.4352248 32.9666004,14.3512322 C33.0357857,14.2672396 33.085752,14.1107093 33.116501,13.8816385 C33.1626245,13.5609386 33.1856859,13.1562532 33.1856859,12.6675681 C33.1856859,12.301054 32.4938439,11.5985801 31.1101392,10.5601244 C30.5874063,10.178339 30.1069604,9.70111492 29.6687873,9.12843723 C29.2306141,8.55575954 29.0115308,8.0174508 29.0115308,7.51349432 C29.0115308,7.00953785 29.019218,6.63539427 29.0345924,6.39105128 C29.049967,6.14670917 29.1153076,5.84510334 29.2306163,5.48622499 C29.345925,5.12734752 29.5111984,4.86391926 29.7264414,4.69593406 C30.3260468,4.25306311 31.1946928,4.03163071 32.3324055,4.03163071 L35.0306163,4.5813987 C34.9076204,5.4671406 34.7884698,5.95963607 34.6731611,6.05890005 C34.5578523,6.15816403 34.3810482,6.20779558 34.1427436,6.20779558 C33.9044388,6.20779558 33.6238585,6.18488851 33.300994,6.13907436 L32.4015905,5.97872573 C31.7712361,5.97872573 31.3868794,6.11616641 31.2485089,6.39105128 C31.1408875,6.60485151 31.0870775,6.88736767 31.0870775,7.23861033 C31.0870775,7.58985299 31.3100044,7.96399657 31.7558649,8.36105337 C32.2017252,8.7581093 32.6975454,9.13988857 33.2433399,9.50640261 C33.7891346,9.87291665 34.2849547,10.3272337 34.7308151,10.8693686 C35.1766755,11.4115035 35.3996023,11.9498131 35.3996023,12.4843115 C35.3996023,13.0188107 35.3919153,13.4234971 35.3765408,13.6983828 C35.3611662,13.9732677 35.2958256,14.3321408 35.1805169,14.7750117 C35.0652082,15.2178818 34.8999348,15.5538478 34.6846918,15.7829194 C34.4694489,16.0119901 34.1427457,16.2143329 33.7045726,16.3899546 C33.2663994,16.5655755 32.8128585,16.6533846 32.3439364,16.6533846 C31.8750142,16.6533846 31.4752833,16.6342959 31.1447316,16.5961174 C30.8141799,16.557939 30.4298232,16.5006717 29.9916501,16.4243148 C29.5534769,16.3479579 29.2344609,16.2945089 29.0345924,16.2639662 L29.0345924,14.4772207 Z M42.6870775,13.9045456 L42.4564612,13.2173361 L42.4564612,4.19198022 C43.4865525,4.19198022 44.0899925,4.24924659 44.2667992,4.36378283 C44.4436059,4.47831819 44.532008,4.87918625 44.532008,5.56639931 L44.532008,16.493036 C43.6249126,16.493036 43.0560648,16.4663115 42.8254474,16.4128617 C42.5948298,16.3594119 42.4718357,16.1799753 42.4564612,15.8745468 L40.9805169,16.6533846 C39.7659317,16.6533846 38.8204143,16.3555971 38.1439364,15.7600123 C37.7134505,15.3934983 37.4674622,14.3856003 37.4059642,12.7362893 C37.3752153,12.2323328 37.359841,11.4153244 37.359841,10.2852404 L37.359841,4.19198022 C38.3899322,4.19198022 38.9895287,4.24924659 39.1586481,4.36378283 C39.3277676,4.47831819 39.4123261,4.87918625 39.4123261,5.56639931 L39.4123261,10.2394263 C39.4123261,12.0261806 39.4546053,13.0646214 39.539165,13.3547776 C39.6237247,13.6449348 39.7121268,13.896909 39.8043738,14.1107084 C39.9581187,14.4772224 40.2732911,14.6757477 40.7499006,14.7062905 L42.6870775,13.9045456 Z M53.8489066,16.493036 C52.8188153,16.493036 52.2192188,16.4357688 52.0500994,16.3212334 C51.8809799,16.2066981 51.7964214,15.8058291 51.7964214,15.1186161 L51.7733598,9.50640261 L51.7733598,8.61303029 C51.7733598,8.26178763 51.7772034,7.99454197 51.7848907,7.81128539 C51.7925779,7.62802793 51.7887343,7.41804951 51.7733598,7.18134309 C51.7579853,6.94463579 51.7310804,6.76901754 51.6926442,6.65448218 C51.6542079,6.53994594 51.6042415,6.42159492 51.5427436,6.29942387 C51.4351221,6.08562365 51.2045081,5.97872573 50.8508946,5.97872573 L48.7984095,6.57430698 L49.0059642,7.23861033 L49.0059642,16.493036 C47.9758729,16.493036 47.3762765,16.4357688 47.207157,16.3212334 C47.0380376,16.2066981 46.9534791,15.8058291 46.9534791,15.1186161 L46.9534791,4.19198022 C47.7990764,4.19198022 48.3371758,4.21488642 48.5677933,4.26070056 C48.7984107,4.30651559 48.9367791,4.44395539 48.9829026,4.67302699 L50.7125248,4.03163071 C51.3890027,4.03163071 51.9040407,4.08889796 52.2576541,4.20343332 C52.6112675,4.31796868 52.92644,4.53558368 53.2031809,4.85628269 L55.3248509,4.03163071 C56.2319462,4.03163071 56.8430733,4.09653365 57.1582505,4.22634039 C57.4734277,4.35614714 57.7040417,4.46686334 57.8500994,4.55849163 C57.9961571,4.65011992 58.1268384,4.84101043 58.2421471,5.13116668 C58.3574558,5.42132382 58.4420143,5.68093379 58.4958251,5.91000452 C58.5496358,6.13907524 58.591915,6.52085539 58.622664,7.05535463 C58.6687875,7.84946736 58.6918489,8.96426328 58.6918489,10.3997758 L58.6918489,16.493036 C57.6463831,16.493036 57.0390996,16.4357688 56.8699802,16.3212334 C56.7008606,16.2066981 56.6163022,15.8058291 56.6163022,15.1186161 L56.6163022,10.3768687 C56.6163022,8.26941454 56.5932408,7.09353396 56.5471173,6.84919098 C56.4702449,6.40632091 56.2550051,6.13907524 55.9013917,6.04744607 C55.7783956,6.01690331 55.624653,5.99399711 55.440159,5.97872573 L53.6413519,6.50558665 L53.8489066,7.14698204 L53.8489066,16.493036 Z M65.541153,4.19198022 C65.541153,5.06244986 65.460438,5.60075947 65.2990061,5.80692313 C65.1375733,6.01308678 64.6648149,6.11616729 63.8807159,6.11616729 L63.2119288,6.11616729 L63.4194834,6.68884235 L63.4194834,11.2244269 C63.4194834,12.522497 63.4694497,13.4120431 63.5693833,13.8930925 C63.6693177,14.374141 63.8807142,14.645205 64.2035788,14.7062905 L65.9562621,14.7062905 L65.9562621,16.493036 L64.0882705,16.6075705 C63.3195454,16.6075705 62.8121946,16.5312154 62.5662031,16.3785007 C62.3202107,16.2257868 62.1357192,16.1036175 62.0127235,16.0119893 C61.8897277,15.920361 61.7821076,15.7332887 61.6898606,15.4507673 C61.5976135,15.1682467 61.5284296,14.9391786 61.482306,14.7635578 C61.4361825,14.5879369 61.401591,14.2672422 61.3785288,13.8014642 C61.3554675,13.3356862 61.3439364,12.9500886 61.3439364,12.644661 L61.3439364,6.68884235 L61.5284296,6.11616729 L60.3061629,6.11616729 L60.3061629,4.19198022 L61.5284296,4.19198022 L61.3439364,3.34442117 L61.3439364,2.17616487 C62.3740277,2.17616487 62.9774675,2.22579554 63.1542742,2.32505952 C63.3310809,2.42432438 63.4194834,2.78701486 63.4194834,3.41314239 L63.2349902,4.19198022 L65.541153,4.19198022 Z M68.1009939,2.59994351 C67.8242528,2.31742295 67.6858849,1.98909264 67.6858849,1.61494291 C67.6858849,1.24079405 67.8242528,0.923916837 68.1009939,0.664302469 C68.377735,0.404688979 68.7005944,0.274883992 69.0695826,0.274883992 C69.4385707,0.274883992 69.7614301,0.404688979 70.0381712,0.664302469 C70.3149115,0.923916837 70.4532803,1.24079405 70.4532803,1.61494291 C70.4532803,1.98909264 70.3149115,2.31742295 70.0381712,2.59994351 C69.7614301,2.88246495 69.4385707,3.02372304 69.0695826,3.02372304 C68.7005944,3.02372304 68.377735,2.88246495 68.1009939,2.59994351 Z M68.0548704,15.2102443 L68.0548704,4.19198022 C69.0849617,4.19198022 69.6845588,4.24924659 69.853678,4.36378283 C70.0227973,4.47831819 70.1073561,4.87918625 70.1073561,5.56639931 L70.1073561,16.5846643 C69.0772648,16.5846643 68.4776686,16.5273971 68.3085485,16.4128617 C68.1394292,16.2983263 68.0548704,15.8974574 68.0548704,15.2102443 Z M72.7594432,10.3997758 L72.7594432,8.9795417 C72.7594432,8.03271427 72.7825045,7.39896072 72.828628,7.07826082 C72.8747515,6.75756181 72.9285616,6.44068459 72.9900599,6.12762127 C73.0515573,5.81455706 73.124585,5.58548985 73.2091455,5.44041085 C73.2937051,5.29533272 73.4013244,5.12353187 73.5320075,4.92500391 C73.6626915,4.72647595 73.8125906,4.58903527 73.9817099,4.51267748 C74.1508291,4.43632057 74.3506945,4.35232973 74.5813121,4.26070056 C74.9656742,4.10798674 75.5268351,4.03163071 76.2648114,4.03163071 C77.0027868,4.03163071 77.5985402,4.11943984 78.0520871,4.29506161 C78.5056349,4.4706825 78.859243,4.66920783 79.1129228,4.89064286 C79.3666017,5.11207877 79.5472494,5.53967131 79.6548704,6.17343541 C79.7624922,6.80719863 79.8278325,7.36841444 79.8508947,7.85709866 C79.873956,8.34578375 79.8854871,9.01008007 79.8854871,9.85000782 L79.8854871,11.5680321 C79.8854871,12.5454023 79.8624258,13.1944272 79.8163023,13.5151263 C79.7701788,13.8358261 79.7163687,14.1565208 79.6548704,14.4772207 C79.593373,14.7979197 79.5203453,15.0308052 79.4357857,15.1758842 C79.3512251,15.3209623 79.2436059,15.4965806 79.1129228,15.7027442 C78.9822396,15.9089087 78.8284969,16.0539851 78.6516902,16.1379777 C78.4748835,16.2219703 78.2711744,16.3097794 78.0405568,16.4014077 C77.6715687,16.5693938 77.1795926,16.6533846 76.5646121,16.6533846 C75.9496324,16.6533846 75.476874,16.6304785 75.146322,16.5846643 C74.8157708,16.5388493 74.5236592,16.4395871 74.2699803,16.2868732 C74.0163005,16.1341586 73.8049049,15.9890831 73.6357857,15.8516397 C73.4666655,15.7141973 73.3244539,15.4813118 73.2091455,15.1529771 C73.0938363,14.8246415 73.0054347,14.5459428 72.9439364,14.3168712 C72.882438,14.0878004 72.8440028,13.7136568 72.828628,13.194429 C72.7825045,12.3239585 72.7594432,11.3924165 72.7594432,10.3997758 Z M76.310934,5.97872573 C75.6190821,5.97872573 75.19629,6.2574245 75.0425447,6.81483081 C74.8887993,7.37223712 74.8119288,8.33432099 74.8119288,9.70111229 C74.8119288,11.0679027 74.8196154,11.9536314 74.8349902,12.358323 C74.850365,12.7630155 74.9041741,13.1906089 74.9964212,13.6411147 C75.0886682,14.0916214 75.2385672,14.3817741 75.4461235,14.5115808 C75.6536789,14.6413876 75.9419468,14.7062905 76.310934,14.7062905 C77.0027868,14.7062905 77.4255789,14.4161378 77.5793243,13.8358244 C77.7330688,13.255511 77.8099401,12.2781558 77.8099401,10.9037296 C77.8099401,9.52930265 77.8022536,8.64357481 77.7868788,8.24651801 C77.771504,7.84946121 77.717694,7.43714005 77.6254469,7.00954048 C77.5332008,6.58194092 77.3833008,6.30324216 77.1757454,6.17343541 C76.96819,6.04362779 76.6799222,5.97872573 76.310934,5.97872573 Z M87.2652091,10.3768687 L87.2882705,8.36105337 C87.2882705,7.75019635 87.2728965,7.29206105 87.2421469,6.98663341 C87.1806495,6.3452345 86.819354,6.0092685 86.1582508,5.97872573 L84.0365803,6.59721406 L84.2441348,7.23861033 L84.2441348,16.493036 C83.2140435,16.493036 82.6144473,16.4357688 82.445328,16.3212334 C82.2762088,16.2066981 82.19165,15.8058291 82.19165,15.1186161 L82.19165,4.19198022 C83.0833708,4.19198022 83.6445317,4.21488642 83.8751493,4.26070056 C84.1057669,4.30651559 84.2287609,4.44395539 84.2441348,4.67302699 L85.9506954,4.03163071 C86.8885406,4.03163071 87.5035106,4.09271536 87.7956266,4.2148873 C88.0877416,4.33705835 88.3106683,4.44395626 88.4644137,4.53558455 C88.6181581,4.62721372 88.7565269,4.81428507 88.8795227,5.09680651 C89.0025185,5.37932708 89.0870772,5.63893705 89.1332008,5.87564435 C89.1793243,6.11235076 89.2254469,6.49031263 89.2715704,7.00954048 C89.317694,7.75783907 89.3407553,8.88790638 89.3407553,10.3997758 L89.3407553,16.493036 C88.3106639,16.493036 87.7072241,16.4357688 87.5304174,16.3212334 C87.3536107,16.2066981 87.2652091,15.8058291 87.2652091,15.1186161 L87.2652091,10.3768687 Z M95.1292251,14.7062905 C96.1746903,14.7062905 97.2355147,14.6299345 98.3117295,14.4772207 L98.3117295,16.2639662 C96.8819013,16.5235797 95.8671996,16.6533846 95.2675947,16.6533846 C94.667989,16.6533846 94.1875432,16.6113888 93.8262424,16.5273962 C93.4649417,16.4434036 93.1536134,16.3441414 92.8922462,16.2296051 C92.6308798,16.1150698 92.4156405,15.9203627 92.2465213,15.645477 C92.0774011,15.3705921 91.9467206,15.1147995 91.8544735,14.8780931 C91.7622265,14.6413858 91.6930417,14.2786953 91.6469181,13.7900102 C91.5854207,13.13334 91.554672,12.4346835 91.554672,11.6940206 L91.554672,8.63593649 C91.554672,7.55166663 91.5854207,6.87591721 91.6469181,6.60866803 C91.7084165,6.34141797 91.7776004,6.05126611 91.8544735,5.73820191 C91.9313458,5.42513859 92.0312785,5.20370619 92.1542742,5.07389944 C92.27727,4.9440927 92.427169,4.79138064 92.6039766,4.61575975 C92.7807832,4.44013798 92.9844915,4.32178697 93.2151091,4.26070056 C93.9377106,4.10798674 94.5834302,4.03163071 95.1522864,4.03163071 C95.7211425,4.03163071 96.2092758,4.11943984 96.6167,4.29506161 C97.0241243,4.4706825 97.3392963,4.68829661 97.5622265,4.94791098 C97.7851567,5.20752447 97.9581171,5.57403324 98.0811137,6.04744607 C98.2809817,6.79574553 98.3809144,7.77310078 98.3809144,8.9795417 L98.4500992,10.5372174 L93.4226645,10.6517527 L93.6071568,11.1786136 C93.6071568,12.6904822 93.6801845,13.6563843 93.8262424,14.0763482 C93.9723004,14.4963121 94.4066235,14.7062905 95.1292251,14.7062905 Z M96.0862826,6.44831852 C95.9402247,6.1352552 95.5904602,5.97872573 95.036978,5.97872573 C94.4834967,5.97872573 94.1260448,6.11616641 93.9646121,6.39105128 C93.8031802,6.66593703 93.7224651,7.26151301 93.7224651,8.17779679 L93.5379719,8.68175063 L96.5590454,8.68175063 L96.3284296,8.17779679 C96.3130548,7.33786992 96.2323397,6.76138273 96.0862826,6.44831852 Z M105.576143,10.3768687 L105.599205,8.36105337 C105.599205,7.75019635 105.583831,7.29206105 105.553082,6.98663341 C105.491584,6.3452345 105.130288,6.0092685 104.469185,5.97872573 L102.347515,6.59721406 L102.55507,7.23861033 L102.55507,16.493036 C101.524978,16.493036 100.925382,16.4357688 100.756262,16.3212334 C100.587143,16.2066981 100.502585,15.8058291 100.502585,15.1186161 L100.502585,4.19198022 C101.394306,4.19198022 101.955466,4.21488642 102.186083,4.26070056 C102.416701,4.30651559 102.539695,4.44395539 102.55507,4.67302699 L104.26163,4.03163071 C105.199475,4.03163071 105.814446,4.09271536 106.106561,4.2148873 C106.398677,4.33705835 106.621603,4.44395626 106.775348,4.53558455 C106.929093,4.62721372 107.067461,4.81428507 107.190458,5.09680651 C107.313453,5.37932708 107.398011,5.63893705 107.444135,5.87564435 C107.490258,6.11235076 107.536382,6.49031263 107.582505,7.00954048 C107.628629,7.75783907 107.65169,8.88790638 107.65169,10.3997758 L107.65169,16.493036 C106.621599,16.493036 106.018159,16.4357688 105.841351,16.3212334 C105.664545,16.2066981 105.576143,15.8058291 105.576143,15.1186161 L105.576143,10.3768687 Z M109.63499,14.4772207 C111.018695,14.6299345 111.933464,14.7062905 112.379324,14.7062905 C112.825185,14.7062905 113.117295,14.6681121 113.255666,14.5917551 C113.394036,14.5153982 113.497813,14.4352248 113.566998,14.3512322 C113.636183,14.2672396 113.68615,14.1107093 113.716898,13.8816385 C113.763022,13.5609386 113.786083,13.1562532 113.786083,12.6675681 C113.786083,12.301054 113.094242,11.5985801 111.710537,10.5601244 C111.187804,10.178339 110.707358,9.70111492 110.269185,9.12843723 C109.831012,8.55575954 109.611929,8.0174508 109.611929,7.51349432 C109.611929,7.00953785 109.619615,6.63539427 109.63499,6.39105128 C109.650365,6.14670917 109.715705,5.84510334 109.831014,5.48622499 C109.946323,5.12734752 110.111596,4.86391926 110.326839,4.69593406 C110.926444,4.25306311 111.795091,4.03163071 112.932803,4.03163071 L115.631014,4.5813987 C115.508018,5.4671406 115.388868,5.95963607 115.273558,6.05890005 C115.15825,6.15816403 114.981446,6.20779558 114.743141,6.20779558 C114.504837,6.20779558 114.224256,6.18488851 113.901392,6.13907436 L113.001988,5.97872573 C112.371633,5.97872573 111.987277,6.11616641 111.848907,6.39105128 C111.741285,6.60485151 111.687475,6.88736767 111.687475,7.23861033 C111.687475,7.58985299 111.910402,7.96399657 112.356262,8.36105337 C112.802122,8.7581093 113.297943,9.13988857 113.843738,9.50640261 C114.389532,9.87291665 114.885353,10.3272337 115.331213,10.8693686 C115.777073,11.4115035 116,11.9498131 116,12.4843115 C116,13.0188107 115.992313,13.4234971 115.976939,13.6983828 C115.961564,13.9732677 115.896224,14.3321408 115.780914,14.7750117 C115.665606,15.2178818 115.500332,15.5538478 115.285089,15.7829194 C115.069847,16.0119901 114.743143,16.2143329 114.30497,16.3899546 C113.866797,16.5655755 113.413256,16.6533846 112.944334,16.6533846 C112.475412,16.6533846 112.075681,16.6342959 111.74513,16.5961174 C111.414578,16.557939 111.030221,16.5006717 110.592048,16.4243148 C110.153875,16.3479579 109.834858,16.2945089 109.63499,16.2639662 L109.63499,14.4772207 Z M0,42.8997103 L0,26.2692319 C1.0147168,26.2692319 1.60662608,26.3264991 1.77574553,26.4410345 C1.94486498,26.5555698 2.02942349,26.9640745 2.02942349,27.6665589 L2.02942349,30.8964447 L3.36699803,30.438305 C4.35096585,30.438305 5.00821575,30.5375681 5.33876743,30.7360961 C5.66931911,30.934624 5.92299445,31.1026075 6.09980122,31.2400499 C6.27660789,31.3774924 6.4226634,31.6065604 6.5379722,31.9272595 C6.65328091,32.2479594 6.74168294,32.5304764 6.80318091,32.7748185 C6.86467888,33.0191606 6.9108017,33.3933051 6.94155068,33.8972616 C6.9876742,34.6455601 7.01073561,35.5961909 7.01073561,36.749182 C7.01073561,37.9021731 6.99920486,38.7268171 6.9761431,39.223137 C6.95308143,39.7194578 6.88774072,40.2844919 6.78011932,40.9182551 C6.67249784,41.5520184 6.49569378,41.9834292 6.24970182,42.2124999 C5.58859846,42.7775419 4.6507682,43.060059 3.43618288,43.060059 L2.02942349,42.1208725 C2.01404895,42.4873857 1.90258551,42.7088181 1.69502985,42.785175 C1.48747411,42.8615319 0.922469853,42.8997103 0,42.8997103 Z M4.739165,40.2424987 C4.86984824,39.6774567 4.93518886,38.5588434 4.93518886,36.8866235 C4.93518886,35.2144046 4.86600463,34.0576137 4.72763416,33.4162139 C4.58926369,32.774815 4.22796844,32.4312142 3.64373758,32.3853992 L1.82186879,32.8206327 L2.02942349,33.4620281 L2.02942349,39.6011024 L1.82186879,40.3112199 L3.6206759,41.1129648 C4.23565583,41.0976934 4.60848175,40.8075407 4.739165,40.2424987 Z M13.4449305,33.439121 L13.467992,32.8206327 C13.467992,32.6068324 13.4449306,32.4922988 13.3988071,32.4770274 C13.3526837,32.4617561 13.2988737,32.4273959 13.2373758,32.3739461 C13.1758778,32.3204962 13.0951629,32.3090431 12.9952286,32.3395859 C12.8952944,32.3701287 12.7761438,32.3777643 12.6377733,32.362493 L11.3924453,32.5228416 C11.0695809,32.5686557 10.7928441,32.5915628 10.5622267,32.5915628 C10.3316092,32.5915628 10.1548051,32.538113 10.0318092,32.4312133 C9.90881315,32.3243136 9.78581905,31.8356364 9.66282303,30.9651659 L12.3379722,30.438305 C13.4295614,30.438305 14.1137163,30.5184785 14.3904573,30.6788288 C14.6671982,30.8391783 14.8670637,30.9728007 14.9900596,31.0797013 C15.1130556,31.186601 15.1976141,31.4003968 15.2437376,31.7210967 C15.3206101,32.1181535 15.3590458,32.7442714 15.3590458,33.5994705 L15.3590458,42.8997103 C14.4673249,42.8997103 13.9061642,42.8538962 13.6755467,42.7622679 C13.4449292,42.6706396 13.3219351,42.4492072 13.3065606,42.0979654 L11.3924453,43.060059 C10.9619594,43.060059 10.6429434,43.0562415 10.4353876,43.0486059 C10.227832,43.0409702 10.0202794,42.9760672 9.81272363,42.8538962 C9.60516797,42.7317251 9.46679951,42.609555 9.39761432,42.4873839 C9.32842904,42.3652128 9.26308842,42.1056029 9.20159045,41.7085461 C9.12471795,41.2351324 9.08628227,40.2654128 9.08628227,38.7993584 L9.08628227,37.2187757 C9.08628227,35.4931069 10.6006475,34.5997425 13.6294235,34.538657 L13.4449305,33.988889 L13.4449305,33.439121 Z M11.2540755,41.1129648 C11.2694501,41.1129648 12.0458505,40.8228121 13.5833002,40.2424987 L13.3526839,39.5781962 L13.3526839,36.8522634 L13.537177,36.3254025 C12.9068226,36.3406738 12.353349,36.4017585 11.8767395,36.5086582 C11.4001302,36.6155587 11.161829,36.7606342 11.161829,36.9438917 L11.1387674,39.9676147 C11.1387674,40.7311847 11.177203,41.1129648 11.2540755,41.1129648 Z M19.833002,42.8997103 L19.5101392,42.8997103 C18.6491674,42.8997103 18.1456601,42.8424431 17.9996023,42.7279077 C17.8535446,42.6133724 17.7805169,42.2125034 17.7805169,41.5252904 L17.7805169,26.4066743 C18.8106082,26.4066743 19.4102046,26.4639407 19.5793241,26.5784769 C19.7484435,26.6930123 19.833002,27.101516 19.833002,27.8040005 L19.833002,42.8997103 Z M22.392843,36.233775 L26.0827038,42.8997103 L23.7073558,42.8997103 L20.1789264,36.233775 L23.4306163,30.5986536 L25.6906561,30.5986536 L22.392843,36.233775 Z M27.3741551,40.8838941 C28.7578598,41.0366088 29.6726286,41.1129648 30.1184891,41.1129648 C30.5643495,41.1129648 30.8564605,41.0747864 30.994831,40.9984295 C31.1332014,40.9220725 31.2369778,40.8418991 31.306163,40.7579056 C31.3753482,40.673913 31.4253147,40.5173836 31.4560636,40.2883128 C31.5021871,39.9676129 31.5252485,39.5629266 31.5252485,39.0742415 C31.5252485,38.7077283 30.8334065,38.0052545 29.4497018,36.9667987 C28.9269689,36.5850133 28.4465231,36.1077892 28.0083499,35.5351115 C27.5701768,34.9624338 27.3510934,34.4241242 27.3510934,33.9201686 C27.3510934,33.4162122 27.3587805,33.0420677 27.3741551,32.7977256 C27.3895295,32.5533826 27.4548702,32.2517776 27.5701789,31.8928993 C27.6854877,31.5340209 27.850761,31.2705936 28.0660039,31.1026075 C28.6656093,30.6597374 29.5342554,30.438305 30.6719682,30.438305 L33.3701789,30.988073 C33.2471829,31.8738149 33.1280323,32.3663095 33.0127236,32.4655744 C32.8974149,32.5648383 32.7206109,32.6144699 32.4823061,32.6144699 C32.2440015,32.6144699 31.9634211,32.5915628 31.6405567,32.5457487 L30.7411531,32.3853992 C30.1107987,32.3853992 29.7264421,32.5228398 29.5880716,32.7977256 C29.4804501,33.0115249 29.4266402,33.294042 29.4266402,33.6452846 C29.4266402,33.9965264 29.649567,34.3706709 30.0954274,34.7677268 C30.5412878,35.1647836 31.0371079,35.5465629 31.5829026,35.9130769 C32.1286972,36.2795901 32.6245173,36.733908 33.0703777,37.2760429 C33.5162381,37.8181778 33.739165,38.3564866 33.739165,38.8909858 C33.739165,39.425485 33.7314779,39.8301714 33.7161034,40.1050563 C33.7007289,40.379942 33.6353883,40.7388151 33.5200795,41.1816852 C33.4047708,41.6245561 33.2394974,41.9605221 33.0242545,42.1895928 C32.8090115,42.4186644 32.4823083,42.6210072 32.0441351,42.7966289 C31.6059621,42.9722498 31.1524212,43.060059 30.683499,43.060059 C30.2145769,43.060059 29.8148459,43.0409702 29.4842942,43.0027917 C29.1537426,42.9646133 28.7693859,42.907346 28.3312127,42.8309891 C27.8930396,42.7546322 27.5740235,42.7011832 27.3741551,42.6706405 L27.3741551,40.8838941 Z M36.2298211,29.0066178 C35.9530801,28.7240973 35.8147117,28.3957669 35.8147117,28.0216172 C35.8147117,27.6474675 35.9530801,27.3305911 36.2298211,27.0709768 C36.506562,26.8113633 36.8294217,26.6815583 37.1984095,26.6815583 C37.5673974,26.6815583 37.8902571,26.8113633 38.166998,27.0709768 C38.443739,27.3305911 38.5821073,27.6474675 38.5821073,28.0216172 C38.5821073,28.3957669 38.443739,28.7240973 38.166998,29.0066178 C37.8902571,29.2891393 37.5673974,29.4303973 37.1984095,29.4303973 C36.8294217,29.4303973 36.506562,29.2891393 36.2298211,29.0066178 Z M36.1836978,41.6169187 L36.1836978,30.5986536 C37.2137891,30.5986536 37.8133855,30.6559209 37.982505,30.7704563 C38.1516245,30.8849916 38.2361829,31.2858606 38.2361829,31.9730736 L38.2361829,42.9913377 C37.2060916,42.9913377 36.6064952,42.9340714 36.4373758,42.8195351 C36.2682563,42.7049998 36.1836978,42.3041317 36.1836978,41.6169187 Z M40.8882704,36.7835422 C40.8882704,35.6534582 40.899801,34.8364507 40.9228628,34.3324942 C40.9459246,33.8285377 41.0151088,33.2596862 41.1304175,32.625923 C41.2457262,31.9921598 41.434061,31.5531132 41.6954274,31.3087711 C42.3104074,30.7284578 43.2559247,30.438305 44.532008,30.438305 L45.8234592,30.8964447 L45.8234592,26.4066743 C46.8535506,26.4066743 47.4531469,26.4639407 47.6222664,26.5784769 C47.7913859,26.6930123 47.8759443,27.101516 47.8759443,27.8040005 L47.8759443,42.8997103 C46.9534746,42.8997103 46.3846267,42.8615319 46.1693837,42.785175 C45.9541407,42.7088181 45.8388338,42.4873857 45.8234592,42.1208725 L44.4166998,43.060059 C43.2021145,43.060059 42.2796585,42.7775419 41.6493042,42.2124999 C41.2341928,41.8307154 40.9882045,40.8380887 40.9113321,39.234591 C40.8959575,38.7306345 40.8882704,37.9136262 40.8882704,36.7835422 Z M46.0540755,40.3570341 L45.8234592,39.6240095 L45.8234592,33.4849351 L46.0310139,32.8435397 L44.2322067,32.3853992 C43.6479759,32.4312142 43.2866806,32.7519088 43.1483102,33.3474936 C43.0099397,33.9430783 42.9407555,35.1265946 42.9407555,36.8980775 C42.9407555,38.6695604 43.0099397,39.7843564 43.1483102,40.2424987 C43.3174296,40.8075407 43.686412,41.0976934 44.2552684,41.1129648 L46.0540755,40.3570341 Z M54.5407555,33.439121 L54.5638171,32.8206327 C54.5638171,32.6068324 54.5407557,32.4922988 54.4946322,32.4770274 C54.4485087,32.4617561 54.3946988,32.4273959 54.3332008,32.3739461 C54.2717028,32.3204962 54.1909879,32.3090431 54.0910537,32.3395859 C53.9911195,32.3701287 53.8719689,32.3777643 53.7335984,32.362493 L52.4882704,32.5228416 C52.1654059,32.5686557 51.8886692,32.5915628 51.6580517,32.5915628 C51.4274342,32.5915628 51.2506302,32.538113 51.1276342,32.4312133 C51.0046382,32.3243136 50.8816441,31.8356364 50.7586481,30.9651659 L53.4337972,30.438305 C54.5253865,30.438305 55.2095413,30.5184785 55.4862823,30.6788288 C55.7630233,30.8391783 55.9628887,30.9728007 56.0858847,31.0797013 C56.2088806,31.186601 56.2934391,31.4003968 56.3395627,31.7210967 C56.4164351,32.1181535 56.4548708,32.7442714 56.4548708,33.5994705 L56.4548708,42.8997103 C55.56315,42.8997103 55.0019892,42.8538962 54.7713717,42.7622679 C54.5407543,42.6706396 54.4177602,42.4492072 54.4023857,42.0979654 L52.4882704,43.060059 C52.0577844,43.060059 51.7387685,43.0562415 51.5312127,43.0486059 C51.323657,43.0409702 51.1161045,42.9760672 50.9085487,42.8538962 C50.700993,42.7317251 50.5626246,42.609555 50.4934394,42.4873839 C50.4242541,42.3652128 50.3589135,42.1056029 50.2974155,41.7085461 C50.220543,41.2351324 50.1821073,40.2654128 50.1821073,38.7993584 L50.1821073,37.2187757 C50.1821073,35.4931069 51.6964726,34.5997425 54.7252485,34.538657 L54.5407555,33.988889 L54.5407555,33.439121 Z M52.3499006,41.1129648 C52.3652751,41.1129648 53.1416755,40.8228121 54.6791252,40.2424987 L54.4485089,39.5781962 L54.4485089,36.8522634 L54.633002,36.3254025 C54.0026476,36.3406738 53.449174,36.4017585 52.9725646,36.5086582 C52.4959552,36.6155587 52.2576541,36.7606342 52.2576541,36.9438917 L52.2345924,39.9676147 C52.2345924,40.7311847 52.2730281,41.1129648 52.3499006,41.1129648 Z" id="Konsumtionens-baksid" fill="#000000"></path>
                    <g id="Group-45" transform="translate(73.263158, 28.120855)">
                        <g id="Group-10">
                            <rect id="Rectangle" fill="#D7DECC" x="0" y="0" width="16.5714286" height="6.15143699"></rect>
                            <path d="M15.5022719,0.565649379 C15.488564,0.610456546 15.481203,0.65792287 15.481203,0.707061723 C15.481203,0.980411309 15.7089879,1.20200493 15.9899749,1.20200493 L15.9899749,5.23225675 C15.7089879,5.23225675 15.481203,5.45385037 15.481203,5.72719996 L1.23043665,5.72719996 C1.23383212,5.70410711 1.23558898,5.68050004 1.23558898,5.65649379 C1.23558898,5.40715046 1.04605647,5.2008716 0.799498747,5.16656286 L0.799498747,1.19699265 C0.823236808,1.20029582 0.847503462,1.20200493 0.872180451,1.20200493 C1.15316743,1.20200493 1.38095238,0.980411309 1.38095238,0.707061723 C1.38095238,0.65792287 1.37359136,0.610456546 1.35988351,0.565649379 L15.5022719,0.565649379 Z" id="Combined-Shape" fill="#9EA989"></path>
                        </g>
                        <ellipse id="Oval-5" fill="#D8DECB" cx="8.72180451" cy="3.0757185" rx="1.7443609" ry="2.19694178"></ellipse>
                        <ellipse id="Oval-6" fill="#758060" opacity="0.565904018" cx="13.0827068" cy="2.63633014" rx="1" ry="1"></ellipse>
                        <ellipse id="Oval-6" fill="#758060" opacity="0.565904018" cx="4.36090226" cy="2.63633014" rx="1" ry="1"></ellipse>
                        <g id="Group-10" transform="translate(0.000000, 3.515107)">
                            <rect id="Rectangle" fill="#D7DECC" x="0" y="0" width="16.5714286" height="6.15143699"></rect>
                            <path d="M15.5022719,0.565649379 C15.488564,0.610456546 15.481203,0.65792287 15.481203,0.707061723 C15.481203,0.980411309 15.7089879,1.20200493 15.9899749,1.20200493 L15.9899749,5.23225675 C15.7089879,5.23225675 15.481203,5.45385037 15.481203,5.72719996 L1.23043665,5.72719996 C1.23383212,5.70410711 1.23558898,5.68050004 1.23558898,5.65649379 C1.23558898,5.40715046 1.04605647,5.2008716 0.799498747,5.16656286 L0.799498747,1.19699265 C0.823236808,1.20029582 0.847503462,1.20200493 0.872180451,1.20200493 C1.15316743,1.20200493 1.38095238,0.980411309 1.38095238,0.707061723 C1.38095238,0.65792287 1.37359136,0.610456546 1.35988351,0.565649379 L15.5022719,0.565649379 Z" id="Combined-Shape" fill="#9EA989"></path>
                        </g>
                        <ellipse id="Oval-6" fill="#758060" opacity="0.565904018" cx="13.0827068" cy="6.15143699" rx="1" ry="1"></ellipse>
                        <ellipse id="Oval-6" fill="#758060" opacity="0.565904018" cx="4.36090226" cy="6.15143699" rx="1" ry="1"></ellipse>
                        <ellipse id="Oval-5" fill="#D8DECB" cx="8.72180451" cy="6.59082535" rx="1.7443609" ry="2.19694178"></ellipse>
                        <g id="Group-10" transform="translate(0.000000, 6.151437)">
                            <rect id="Rectangle" fill="#D7DECC" x="0" y="0" width="16.5714286" height="6.15143699"></rect>
                            <path d="M15.5022719,0.565649379 C15.488564,0.610456546 15.481203,0.65792287 15.481203,0.707061723 C15.481203,0.980411309 15.7089879,1.20200493 15.9899749,1.20200493 L15.9899749,5.23225675 C15.7089879,5.23225675 15.481203,5.45385037 15.481203,5.72719996 L1.23043665,5.72719996 C1.23383212,5.70410711 1.23558898,5.68050004 1.23558898,5.65649379 C1.23558898,5.40715046 1.04605647,5.2008716 0.799498747,5.16656286 L0.799498747,1.19699265 C0.823236808,1.20029582 0.847503462,1.20200493 0.872180451,1.20200493 C1.15316743,1.20200493 1.38095238,0.980411309 1.38095238,0.707061723 C1.38095238,0.65792287 1.37359136,0.610456546 1.35988351,0.565649379 L15.5022719,0.565649379 Z" id="Combined-Shape" fill="#9EA989"></path>
                        </g>
                        <ellipse id="Oval-5" fill="#D8DECB" cx="8.72180451" cy="9.22715549" rx="1.7443609" ry="2.19694178"></ellipse>
                        <ellipse id="Oval-6" fill="#758060" opacity="0.565904018" cx="13.0827068" cy="8.78776713" rx="1" ry="1"></ellipse>
                        <ellipse id="Oval-6" fill="#758060" opacity="0.565904018" cx="4.36090226" cy="8.78776713" rx="1" ry="1"></ellipse>
                        <g id="Group-10" transform="translate(0.000000, 9.666544)">
                            <rect id="Rectangle" fill="#D7DECC" x="0" y="0" width="16.5714286" height="6.15143699"></rect>
                            <path d="M15.5022719,0.565649379 C15.488564,0.610456546 15.481203,0.65792287 15.481203,0.707061723 C15.481203,0.980411309 15.7089879,1.20200493 15.9899749,1.20200493 L15.9899749,5.23225675 C15.7089879,5.23225675 15.481203,5.45385037 15.481203,5.72719996 L1.23043665,5.72719996 C1.23383212,5.70410711 1.23558898,5.68050004 1.23558898,5.65649379 C1.23558898,5.40715046 1.04605647,5.2008716 0.799498747,5.16656286 L0.799498747,1.19699265 C0.823236808,1.20029582 0.847503462,1.20200493 0.872180451,1.20200493 C1.15316743,1.20200493 1.38095238,0.980411309 1.38095238,0.707061723 C1.38095238,0.65792287 1.37359136,0.610456546 1.35988351,0.565649379 L15.5022719,0.565649379 Z" id="Combined-Shape" fill="#9EA989"></path>
                        </g>
                        <ellipse id="Oval-5" fill="#D8DECB" cx="8.72180451" cy="12.7422623" rx="1.7443609" ry="2.19694178"></ellipse>
                        <ellipse id="Oval-6" fill="#758060" opacity="0.565904018" cx="13.0827068" cy="12.302874" rx="1" ry="1"></ellipse>
                        <ellipse id="Oval-6" fill="#758060" opacity="0.565904018" cx="4.36090226" cy="12.302874" rx="1" ry="1"></ellipse>
                        <g id="Group-10" transform="translate(0.000000, 12.302874)">
                            <rect id="Rectangle" fill="#D7DECC" x="0" y="0" width="16.5714286" height="6.15143699"></rect>
                            <path d="M15.5022719,0.565649379 C15.488564,0.610456546 15.481203,0.65792287 15.481203,0.707061723 C15.481203,0.980411309 15.7089879,1.20200493 15.9899749,1.20200493 L15.9899749,5.23225675 C15.7089879,5.23225675 15.481203,5.45385037 15.481203,5.72719996 L1.23043665,5.72719996 C1.23383212,5.70410711 1.23558898,5.68050004 1.23558898,5.65649379 C1.23558898,5.40715046 1.04605647,5.2008716 0.799498747,5.16656286 L0.799498747,1.19699265 C0.823236808,1.20029582 0.847503462,1.20200493 0.872180451,1.20200493 C1.15316743,1.20200493 1.38095238,0.980411309 1.38095238,0.707061723 C1.38095238,0.65792287 1.37359136,0.610456546 1.35988351,0.565649379 L15.5022719,0.565649379 Z" id="Combined-Shape" fill="#9EA989"></path>
                        </g>
                        <ellipse id="Oval-5" fill="#D8DECB" cx="8.72180451" cy="15.3785925" rx="1.7443609" ry="2.19694178"></ellipse>
                        <ellipse id="Oval-6" fill="#758060" opacity="0.565904018" cx="13.0827068" cy="14.9392041" rx="1" ry="1"></ellipse>
                        <ellipse id="Oval-6" fill="#758060" opacity="0.565904018" cx="4.36090226" cy="14.9392041" rx="1" ry="1"></ellipse>
                    </g>
                    <g id="Group-12" transform="translate(69.038216, 34.981321) rotate(-16.000000) translate(-69.038216, -34.981321) translate(62.038216, 21.981321)">
                        <path d="M5.00651623,9.51137868 C4.64448329,10.5393805 0.692525275,14.6102525 0.300087924,17.7353933 C-0.0923494263,20.8605341 -0.733701927,22.7563103 3.12394491,24.5030721 C6.98159174,26.2498339 10.3961701,24.421609 12.0299554,23.0467361 C13.6637406,21.6718632 14.1174214,19.3360231 13.4056806,15.8507233 C12.6939398,12.3654235 10.0973329,11.455102 9.42331817,10.28238 C8.97397499,9.50056533 8.66021311,8.50111915 8.48203252,7.28404134 C9.81422239,6.00518263 10.5382883,5.09140322 10.6542302,4.54270312 C10.8281431,3.71965296 9.70009156,3.73469865 9.42331817,2.82936672 C9.14654479,1.92403481 10.0170208,1.21879335 9.42331817,0.516362598 C8.82961552,-0.186068156 8.23428473,-0.158030869 7.46834027,0.516362598 C6.70239581,1.19075607 7.36660246,2.47319919 6.30983484,3.25770082 C5.25306722,4.04220245 4.21255487,3.0814604 3.77560421,3.25770082 C3.33865356,3.43394124 2.52406587,2.76835735 3.12394491,4.54270312 C3.52386427,5.72560029 4.2720657,6.86782455 5.36854918,7.9693759 C5.36854918,8.31204318 5.24787153,8.8260441 5.00651623,9.51137868 Z" id="Path-26" fill="#AFA195"></path>
                        <path d="M7.70684886,19.6441515 L7.70684886,21.0158985 L6.94747636,21.0158985 L6.94747636,19.6724071 C6.69066869,19.6588232 6.46028749,19.6248538 6.25632874,19.5704981 C5.98441665,19.4980326 5.72981188,19.4060585 5.49250678,19.2945732 L5.49250678,18.1005709 L5.61709134,18.1005709 C5.85241888,18.3123931 6.11592247,18.4751593 6.40760997,18.5888744 C6.59211607,18.6608045 6.77207082,18.7099847 6.94747636,18.7364154 L6.94747636,17.6321457 C6.81411465,17.5990619 6.6870589,17.5601055 6.56630696,17.5152758 C6.19452899,17.3792636 5.92707038,17.1947581 5.76392313,16.9617537 C5.60077588,16.7287493 5.51920347,16.4394492 5.51920347,16.0938445 C5.51920347,15.6300654 5.70360654,15.2515783 6.0724182,14.9583718 C6.31757643,14.7634702 6.60926109,14.6333476 6.94747636,14.5680025 L6.94747636,13.3100691 L7.70684886,13.3100691 L7.70684886,14.5242348 C7.92536711,14.5359536 8.14190568,14.5658365 8.35646831,14.6138838 C8.64024565,14.6774304 8.88595158,14.7571413 9.09359358,14.8530187 L9.09359358,16.0001973 L8.97197534,16.0001973 C8.79399646,15.8396584 8.57597571,15.7053205 8.31790642,15.5971798 C8.11749897,15.5132015 7.91381436,15.4618309 7.70684889,15.4430674 L7.70684886,16.5074209 C7.73676122,16.5145356 7.7664242,16.5216071 7.79583783,16.5286353 C7.94514228,16.5643106 8.1058152,16.6133634 8.27786139,16.6757952 C8.61602115,16.8006588 8.8656821,16.9706714 9.0268518,17.1858382 C9.18802159,17.4010049 9.26860522,17.6802715 9.26860522,18.0236464 C9.26860522,18.514182 9.08420212,18.9127362 8.71539047,19.2193209 C8.4483898,19.4412725 8.11221116,19.5828821 7.70684886,19.6441515 Z M7.70684886,18.7043 C7.74002382,18.6949922 7.77018114,18.6843882 7.79732098,18.672488 C7.88433285,18.6323533 7.95601768,18.5821856 8.01237764,18.5219835 C8.0687376,18.4617814 8.09691716,18.3725945 8.09691716,18.2544199 C8.09691716,18.1451644 8.05588377,18.0509606 7.97381576,17.971806 C7.90875269,17.9090527 7.81976432,17.8578617 7.70684886,17.818232 L7.70684886,18.7043 Z M6.94747636,15.550393 C6.88103172,15.5835383 6.82318936,15.6303494 6.77394788,15.6908269 C6.71857669,15.758833 6.69089151,15.8363142 6.69089151,15.9232728 C6.69089151,16.0548255 6.73538555,16.1557183 6.82437496,16.225954 C6.85564309,16.2506327 6.89667681,16.2745542 6.94747636,16.2977188 L6.94747636,15.5503897 L6.94747636,15.550393 Z" id="Combined-Shape" fill="#4A4A4A"></path>
                    </g>
                    <g id="Group-20" transform="translate(82.564041, 30.114897)">
                        <g id="Group-19" transform="translate(7.603046, 0.000000)">
                            <g id="Group-17" transform="translate(0.819266, 8.616801)">
                                <path d="M0.034136071,3.16347849 L0.034136071,2.52199059 L0.2631741,2.52199059 C0.756309823,1.61516045 1.88958203,0.980774121 3.20879067,0.980774121 C4.52799932,0.980774121 5.66127153,1.61516045 6.15440726,2.52199059 L6.41758136,2.52199059 L6.41758136,3.85304118 L6.39343618,3.85304118 C6.19849939,5.11650903 4.84701343,6.09481059 3.20879067,6.09481059 C1.43662452,6.09481059 0,4.94999454 0,3.53779236 C0,3.4106399 0.0116465963,3.28565513 0.034136071,3.16347849 Z" id="Combined-Shape" fill="#C2B61D"></path>
                                <ellipse id="Oval-8" fill="#EFE13D" cx="3.20879067" cy="2.55701824" rx="3.20879067" ry="2.55701824"></ellipse>
                            </g>
                            <g id="Group-16" transform="translate(0.819266, 6.935475)">
                                <path d="M0.034136071,3.16347849 L0.034136071,2.52199059 L0.2631741,2.52199059 C0.756309823,1.61516045 1.88958203,0.980774121 3.20879067,0.980774121 C4.52799932,0.980774121 5.66127153,1.61516045 6.15440726,2.52199059 L6.41758136,2.52199059 L6.41758136,3.85304118 L6.39343618,3.85304118 C6.19849939,5.11650903 4.84701343,6.09481059 3.20879067,6.09481059 C1.43662452,6.09481059 0,4.94999454 0,3.53779236 C0,3.4106399 0.0116465963,3.28565513 0.034136071,3.16347849 Z" id="Combined-Shape" fill="#C2B61D"></path>
                                <ellipse id="Oval-8" fill="#EFE13D" cx="3.20879067" cy="2.55701824" rx="3.20879067" ry="2.55701824"></ellipse>
                            </g>
                            <g id="Group-15" transform="translate(1.979892, 5.324202)">
                                <path d="M0.034136071,3.16347849 L0.034136071,2.52199059 L0.2631741,2.52199059 C0.756309823,1.61516045 1.88958203,0.980774121 3.20879067,0.980774121 C4.52799932,0.980774121 5.66127153,1.61516045 6.15440726,2.52199059 L6.41758136,2.52199059 L6.41758136,3.85304118 L6.39343618,3.85304118 C6.19849939,5.11650903 4.84701343,6.09481059 3.20879067,6.09481059 C1.43662452,6.09481059 0,4.94999454 0,3.53779236 C0,3.4106399 0.0116465963,3.28565513 0.034136071,3.16347849 Z" id="Combined-Shape" fill="#C2B61D"></path>
                                <ellipse id="Oval-8" fill="#EFE13D" cx="3.20879067" cy="2.55701824" rx="3.20879067" ry="2.55701824"></ellipse>
                            </g>
                            <g id="Group-14" transform="translate(0.477905, 4.063207)">
                                <path d="M0.034136071,3.16347849 L0.034136071,2.52199059 L0.2631741,2.52199059 C0.756309823,1.61516045 1.88958203,0.980774121 3.20879067,0.980774121 C4.52799932,0.980774121 5.66127153,1.61516045 6.15440726,2.52199059 L6.41758136,2.52199059 L6.41758136,3.85304118 L6.39343618,3.85304118 C6.19849939,5.11650903 4.84701343,6.09481059 3.20879067,6.09481059 C1.43662452,6.09481059 0,4.94999454 0,3.53779236 C0,3.4106399 0.0116465963,3.28565513 0.034136071,3.16347849 Z" id="Combined-Shape" fill="#C2B61D"></path>
                                <ellipse id="Oval-8" fill="#EFE13D" cx="3.20879067" cy="2.55701824" rx="3.20879067" ry="2.55701824"></ellipse>
                            </g>
                            <g id="Group-13" transform="translate(1.092355, 2.521991)">
                                <path d="M0.034136071,3.16347849 L0.034136071,2.52199059 L0.2631741,2.52199059 C0.756309823,1.61516045 1.88958203,0.980774121 3.20879067,0.980774121 C4.52799932,0.980774121 5.66127153,1.61516045 6.15440726,2.52199059 L6.41758136,2.52199059 L6.41758136,3.85304118 L6.39343618,3.85304118 C6.19849939,5.11650903 4.84701343,6.09481059 3.20879067,6.09481059 C1.43662452,6.09481059 0,4.94999454 0,3.53779236 C0,3.4106399 0.0116465963,3.28565513 0.034136071,3.16347849 Z" id="Combined-Shape" fill="#C2B61D"></path>
                                <ellipse id="Oval-8" fill="#EFE13D" cx="3.20879067" cy="2.55701824" rx="3.20879067" ry="2.55701824"></ellipse>
                            </g>
                            <g id="Group-12" transform="translate(0.000000, 1.260995)">
                                <path d="M0.034136071,3.16347849 L0.034136071,2.52199059 L0.2631741,2.52199059 C0.756309823,1.61516045 1.88958203,0.980774121 3.20879067,0.980774121 C4.52799932,0.980774121 5.66127153,1.61516045 6.15440726,2.52199059 L6.41758136,2.52199059 L6.41758136,3.85304118 L6.39343618,3.85304118 C6.19849939,5.11650903 4.84701343,6.09481059 3.20879067,6.09481059 C1.43662452,6.09481059 0,4.94999454 0,3.53779236 C0,3.4106399 0.0116465963,3.28565513 0.034136071,3.16347849 Z" id="Combined-Shape" fill="#C2B61D"></path>
                                <ellipse id="Oval-8" fill="#EFE13D" cx="3.20879067" cy="2.55701824" rx="3.20879067" ry="2.55701824"></ellipse>
                            </g>
                            <g id="Group-12" transform="translate(1.160626, 0.000000)">
                                <path d="M0.034136071,3.16347849 L0.034136071,2.52199059 L0.2631741,2.52199059 C0.756309823,1.61516045 1.88958203,0.980774121 3.20879067,0.980774121 C4.52799932,0.980774121 5.66127153,1.61516045 6.15440726,2.52199059 L6.41758136,2.52199059 L6.41758136,3.85304118 L6.39343618,3.85304118 C6.19849939,5.11650903 4.84701343,6.09481059 3.20879067,6.09481059 C1.43662452,6.09481059 0,4.94999454 0,3.53779236 C0,3.4106399 0.0116465963,3.28565513 0.034136071,3.16347849 Z" id="Combined-Shape" fill="#C2B61D"></path>
                                <ellipse id="Oval-8" fill="#EFE13D" cx="3.20879067" cy="2.55701824" rx="3.20879067" ry="2.55701824"></ellipse>
                            </g>
                        </g>
                        <g id="Group-18" transform="translate(5.162803, 10.101659) scale(-1, 1) translate(-5.162803, -10.101659) translate(0.662803, 2.101659)">
                            <g id="Group-17" transform="translate(0.819266, 8.616801)">
                                <path d="M0.034136071,3.16347849 L0.034136071,2.52199059 L0.2631741,2.52199059 C0.756309823,1.61516045 1.88958203,0.980774121 3.20879067,0.980774121 C4.52799932,0.980774121 5.66127153,1.61516045 6.15440726,2.52199059 L6.41758136,2.52199059 L6.41758136,3.85304118 L6.39343618,3.85304118 C6.19849939,5.11650903 4.84701343,6.09481059 3.20879067,6.09481059 C1.43662452,6.09481059 0,4.94999454 0,3.53779236 C0,3.4106399 0.0116465963,3.28565513 0.034136071,3.16347849 Z" id="Combined-Shape" fill="#C2B61D"></path>
                                <ellipse id="Oval-8" fill="#EFE13D" cx="3.20879067" cy="2.55701824" rx="3.20879067" ry="2.55701824"></ellipse>
                            </g>
                            <g id="Group-16" transform="translate(0.819266, 6.935475)">
                                <path d="M0.034136071,3.16347849 L0.034136071,2.52199059 L0.2631741,2.52199059 C0.756309823,1.61516045 1.88958203,0.980774121 3.20879067,0.980774121 C4.52799932,0.980774121 5.66127153,1.61516045 6.15440726,2.52199059 L6.41758136,2.52199059 L6.41758136,3.85304118 L6.39343618,3.85304118 C6.19849939,5.11650903 4.84701343,6.09481059 3.20879067,6.09481059 C1.43662452,6.09481059 0,4.94999454 0,3.53779236 C0,3.4106399 0.0116465963,3.28565513 0.034136071,3.16347849 Z" id="Combined-Shape" fill="#C2B61D"></path>
                                <ellipse id="Oval-8" fill="#EFE13D" cx="3.20879067" cy="2.55701824" rx="3.20879067" ry="2.55701824"></ellipse>
                            </g>
                            <g id="Group-15" transform="translate(1.979892, 5.324202)">
                                <path d="M0.034136071,3.16347849 L0.034136071,2.52199059 L0.2631741,2.52199059 C0.756309823,1.61516045 1.88958203,0.980774121 3.20879067,0.980774121 C4.52799932,0.980774121 5.66127153,1.61516045 6.15440726,2.52199059 L6.41758136,2.52199059 L6.41758136,3.85304118 L6.39343618,3.85304118 C6.19849939,5.11650903 4.84701343,6.09481059 3.20879067,6.09481059 C1.43662452,6.09481059 0,4.94999454 0,3.53779236 C0,3.4106399 0.0116465963,3.28565513 0.034136071,3.16347849 Z" id="Combined-Shape" fill="#C2B61D"></path>
                                <ellipse id="Oval-8" fill="#EFE13D" cx="3.20879067" cy="2.55701824" rx="3.20879067" ry="2.55701824"></ellipse>
                            </g>
                            <g id="Group-14" transform="translate(0.477905, 4.063207)">
                                <path d="M0.034136071,3.16347849 L0.034136071,2.52199059 L0.2631741,2.52199059 C0.756309823,1.61516045 1.88958203,0.980774121 3.20879067,0.980774121 C4.52799932,0.980774121 5.66127153,1.61516045 6.15440726,2.52199059 L6.41758136,2.52199059 L6.41758136,3.85304118 L6.39343618,3.85304118 C6.19849939,5.11650903 4.84701343,6.09481059 3.20879067,6.09481059 C1.43662452,6.09481059 0,4.94999454 0,3.53779236 C0,3.4106399 0.0116465963,3.28565513 0.034136071,3.16347849 Z" id="Combined-Shape" fill="#C2B61D"></path>
                                <ellipse id="Oval-8" fill="#EFE13D" cx="3.20879067" cy="2.55701824" rx="3.20879067" ry="2.55701824"></ellipse>
                            </g>
                            <g id="Group-13" transform="translate(1.092355, 2.521991)">
                                <path d="M0.034136071,3.16347849 L0.034136071,2.52199059 L0.2631741,2.52199059 C0.756309823,1.61516045 1.88958203,0.980774121 3.20879067,0.980774121 C4.52799932,0.980774121 5.66127153,1.61516045 6.15440726,2.52199059 L6.41758136,2.52199059 L6.41758136,3.85304118 L6.39343618,3.85304118 C6.19849939,5.11650903 4.84701343,6.09481059 3.20879067,6.09481059 C1.43662452,6.09481059 0,4.94999454 0,3.53779236 C0,3.4106399 0.0116465963,3.28565513 0.034136071,3.16347849 Z" id="Combined-Shape" fill="#C2B61D"></path>
                                <ellipse id="Oval-8" fill="#EFE13D" cx="3.20879067" cy="2.55701824" rx="3.20879067" ry="2.55701824"></ellipse>
                            </g>
                            <g id="Group-12" transform="translate(0.000000, 1.260995)">
                                <path d="M0.034136071,3.16347849 L0.034136071,2.52199059 L0.2631741,2.52199059 C0.756309823,1.61516045 1.88958203,0.980774121 3.20879067,0.980774121 C4.52799932,0.980774121 5.66127153,1.61516045 6.15440726,2.52199059 L6.41758136,2.52199059 L6.41758136,3.85304118 L6.39343618,3.85304118 C6.19849939,5.11650903 4.84701343,6.09481059 3.20879067,6.09481059 C1.43662452,6.09481059 0,4.94999454 0,3.53779236 C0,3.4106399 0.0116465963,3.28565513 0.034136071,3.16347849 Z" id="Combined-Shape" fill="#C2B61D"></path>
                                <ellipse id="Oval-8" fill="#EFE13D" cx="3.20879067" cy="2.55701824" rx="3.20879067" ry="2.55701824"></ellipse>
                            </g>
                            <g id="Group-12" transform="translate(1.160626, 0.000000)">
                                <path d="M0.034136071,3.16347849 L0.034136071,2.52199059 L0.2631741,2.52199059 C0.756309823,1.61516045 1.88958203,0.980774121 3.20879067,0.980774121 C4.52799932,0.980774121 5.66127153,1.61516045 6.15440726,2.52199059 L6.41758136,2.52199059 L6.41758136,3.85304118 L6.39343618,3.85304118 C6.19849939,5.11650903 4.84701343,6.09481059 3.20879067,6.09481059 C1.43662452,6.09481059 0,4.94999454 0,3.53779236 C0,3.4106399 0.0116465963,3.28565513 0.034136071,3.16347849 Z" id="Combined-Shape" fill="#C2B61D"></path>
                                <ellipse id="Oval-8" fill="#EFE13D" cx="3.20879067" cy="2.55701824" rx="3.20879067" ry="2.55701824"></ellipse>
                            </g>
                        </g>
                        <g id="Group-18" transform="translate(5.860173, 5.496646)">
                            <g id="Group-17" transform="translate(0.819266, 8.616801)">
                                <path d="M0.034136071,3.16347849 L0.034136071,2.52199059 L0.2631741,2.52199059 C0.756309823,1.61516045 1.88958203,0.980774121 3.20879067,0.980774121 C4.52799932,0.980774121 5.66127153,1.61516045 6.15440726,2.52199059 L6.41758136,2.52199059 L6.41758136,3.85304118 L6.39343618,3.85304118 C6.19849939,5.11650903 4.84701343,6.09481059 3.20879067,6.09481059 C1.43662452,6.09481059 0,4.94999454 0,3.53779236 C0,3.4106399 0.0116465963,3.28565513 0.034136071,3.16347849 Z" id="Combined-Shape" fill="#C2B61D"></path>
                                <ellipse id="Oval-8" fill="#EFE13D" cx="3.20879067" cy="2.55701824" rx="3.20879067" ry="2.55701824"></ellipse>
                            </g>
                            <g id="Group-16" transform="translate(0.819266, 6.935475)">
                                <path d="M0.034136071,3.16347849 L0.034136071,2.52199059 L0.2631741,2.52199059 C0.756309823,1.61516045 1.88958203,0.980774121 3.20879067,0.980774121 C4.52799932,0.980774121 5.66127153,1.61516045 6.15440726,2.52199059 L6.41758136,2.52199059 L6.41758136,3.85304118 L6.39343618,3.85304118 C6.19849939,5.11650903 4.84701343,6.09481059 3.20879067,6.09481059 C1.43662452,6.09481059 0,4.94999454 0,3.53779236 C0,3.4106399 0.0116465963,3.28565513 0.034136071,3.16347849 Z" id="Combined-Shape" fill="#C2B61D"></path>
                                <ellipse id="Oval-8" fill="#EFE13D" cx="3.20879067" cy="2.55701824" rx="3.20879067" ry="2.55701824"></ellipse>
                            </g>
                            <g id="Group-15" transform="translate(1.979892, 5.324202)">
                                <path d="M0.034136071,3.16347849 L0.034136071,2.52199059 L0.2631741,2.52199059 C0.756309823,1.61516045 1.88958203,0.980774121 3.20879067,0.980774121 C4.52799932,0.980774121 5.66127153,1.61516045 6.15440726,2.52199059 L6.41758136,2.52199059 L6.41758136,3.85304118 L6.39343618,3.85304118 C6.19849939,5.11650903 4.84701343,6.09481059 3.20879067,6.09481059 C1.43662452,6.09481059 0,4.94999454 0,3.53779236 C0,3.4106399 0.0116465963,3.28565513 0.034136071,3.16347849 Z" id="Combined-Shape" fill="#C2B61D"></path>
                                <ellipse id="Oval-8" fill="#EFE13D" cx="3.20879067" cy="2.55701824" rx="3.20879067" ry="2.55701824"></ellipse>
                            </g>
                            <g id="Group-14" transform="translate(0.477905, 4.063207)">
                                <path d="M0.034136071,3.16347849 L0.034136071,2.52199059 L0.2631741,2.52199059 C0.756309823,1.61516045 1.88958203,0.980774121 3.20879067,0.980774121 C4.52799932,0.980774121 5.66127153,1.61516045 6.15440726,2.52199059 L6.41758136,2.52199059 L6.41758136,3.85304118 L6.39343618,3.85304118 C6.19849939,5.11650903 4.84701343,6.09481059 3.20879067,6.09481059 C1.43662452,6.09481059 0,4.94999454 0,3.53779236 C0,3.4106399 0.0116465963,3.28565513 0.034136071,3.16347849 Z" id="Combined-Shape" fill="#C2B61D"></path>
                                <ellipse id="Oval-8" fill="#EFE13D" cx="3.20879067" cy="2.55701824" rx="3.20879067" ry="2.55701824"></ellipse>
                            </g>
                            <g id="Group-13" transform="translate(1.092355, 2.521991)">
                                <path d="M0.034136071,3.16347849 L0.034136071,2.52199059 L0.2631741,2.52199059 C0.756309823,1.61516045 1.88958203,0.980774121 3.20879067,0.980774121 C4.52799932,0.980774121 5.66127153,1.61516045 6.15440726,2.52199059 L6.41758136,2.52199059 L6.41758136,3.85304118 L6.39343618,3.85304118 C6.19849939,5.11650903 4.84701343,6.09481059 3.20879067,6.09481059 C1.43662452,6.09481059 0,4.94999454 0,3.53779236 C0,3.4106399 0.0116465963,3.28565513 0.034136071,3.16347849 Z" id="Combined-Shape" fill="#C2B61D"></path>
                                <ellipse id="Oval-8" fill="#EFE13D" cx="3.20879067" cy="2.55701824" rx="3.20879067" ry="2.55701824"></ellipse>
                            </g>
                            <g id="Group-12" transform="translate(0.000000, 1.260995)">
                                <path d="M0.034136071,3.16347849 L0.034136071,2.52199059 L0.2631741,2.52199059 C0.756309823,1.61516045 1.88958203,0.980774121 3.20879067,0.980774121 C4.52799932,0.980774121 5.66127153,1.61516045 6.15440726,2.52199059 L6.41758136,2.52199059 L6.41758136,3.85304118 L6.39343618,3.85304118 C6.19849939,5.11650903 4.84701343,6.09481059 3.20879067,6.09481059 C1.43662452,6.09481059 0,4.94999454 0,3.53779236 C0,3.4106399 0.0116465963,3.28565513 0.034136071,3.16347849 Z" id="Combined-Shape" fill="#C2B61D"></path>
                                <ellipse id="Oval-8" fill="#EFE13D" cx="3.20879067" cy="2.55701824" rx="3.20879067" ry="2.55701824"></ellipse>
                            </g>
                            <g id="Group-12" transform="translate(1.160626, 0.000000)">
                                <path d="M0.034136071,3.16347849 L0.034136071,2.52199059 L0.2631741,2.52199059 C0.756309823,1.61516045 1.88958203,0.980774121 3.20879067,0.980774121 C4.52799932,0.980774121 5.66127153,1.61516045 6.15440726,2.52199059 L6.41758136,2.52199059 L6.41758136,3.85304118 L6.39343618,3.85304118 C6.19849939,5.11650903 4.84701343,6.09481059 3.20879067,6.09481059 C1.43662452,6.09481059 0,4.94999454 0,3.53779236 C0,3.4106399 0.0116465963,3.28565513 0.034136071,3.16347849 Z" id="Combined-Shape" fill="#C2B61D"></path>
                                <ellipse id="Oval-8" fill="#EFE13D" cx="3.20879067" cy="2.55701824" rx="3.20879067" ry="2.55701824"></ellipse>
                            </g>
                        </g>
                        <g id="Group-18" transform="translate(17.362906, 11.394988) scale(-1, 1) translate(-17.362906, -11.394988) translate(12.862906, 3.394988)">
                            <g id="Group-17" transform="translate(0.819266, 8.616801)">
                                <path d="M0.034136071,3.16347849 L0.034136071,2.52199059 L0.2631741,2.52199059 C0.756309823,1.61516045 1.88958203,0.980774121 3.20879067,0.980774121 C4.52799932,0.980774121 5.66127153,1.61516045 6.15440726,2.52199059 L6.41758136,2.52199059 L6.41758136,3.85304118 L6.39343618,3.85304118 C6.19849939,5.11650903 4.84701343,6.09481059 3.20879067,6.09481059 C1.43662452,6.09481059 0,4.94999454 0,3.53779236 C0,3.4106399 0.0116465963,3.28565513 0.034136071,3.16347849 Z" id="Combined-Shape" fill="#C2B61D"></path>
                                <ellipse id="Oval-8" fill="#EFE13D" cx="3.20879067" cy="2.55701824" rx="3.20879067" ry="2.55701824"></ellipse>
                            </g>
                            <g id="Group-16" transform="translate(0.819266, 6.935475)">
                                <path d="M0.034136071,3.16347849 L0.034136071,2.52199059 L0.2631741,2.52199059 C0.756309823,1.61516045 1.88958203,0.980774121 3.20879067,0.980774121 C4.52799932,0.980774121 5.66127153,1.61516045 6.15440726,2.52199059 L6.41758136,2.52199059 L6.41758136,3.85304118 L6.39343618,3.85304118 C6.19849939,5.11650903 4.84701343,6.09481059 3.20879067,6.09481059 C1.43662452,6.09481059 0,4.94999454 0,3.53779236 C0,3.4106399 0.0116465963,3.28565513 0.034136071,3.16347849 Z" id="Combined-Shape" fill="#C2B61D"></path>
                                <ellipse id="Oval-8" fill="#EFE13D" cx="3.20879067" cy="2.55701824" rx="3.20879067" ry="2.55701824"></ellipse>
                            </g>
                            <g id="Group-15" transform="translate(1.979892, 5.324202)">
                                <path d="M0.034136071,3.16347849 L0.034136071,2.52199059 L0.2631741,2.52199059 C0.756309823,1.61516045 1.88958203,0.980774121 3.20879067,0.980774121 C4.52799932,0.980774121 5.66127153,1.61516045 6.15440726,2.52199059 L6.41758136,2.52199059 L6.41758136,3.85304118 L6.39343618,3.85304118 C6.19849939,5.11650903 4.84701343,6.09481059 3.20879067,6.09481059 C1.43662452,6.09481059 0,4.94999454 0,3.53779236 C0,3.4106399 0.0116465963,3.28565513 0.034136071,3.16347849 Z" id="Combined-Shape" fill="#C2B61D"></path>
                                <ellipse id="Oval-8" fill="#EFE13D" cx="3.20879067" cy="2.55701824" rx="3.20879067" ry="2.55701824"></ellipse>
                            </g>
                            <g id="Group-14" transform="translate(0.477905, 4.063207)">
                                <path d="M0.034136071,3.16347849 L0.034136071,2.52199059 L0.2631741,2.52199059 C0.756309823,1.61516045 1.88958203,0.980774121 3.20879067,0.980774121 C4.52799932,0.980774121 5.66127153,1.61516045 6.15440726,2.52199059 L6.41758136,2.52199059 L6.41758136,3.85304118 L6.39343618,3.85304118 C6.19849939,5.11650903 4.84701343,6.09481059 3.20879067,6.09481059 C1.43662452,6.09481059 0,4.94999454 0,3.53779236 C0,3.4106399 0.0116465963,3.28565513 0.034136071,3.16347849 Z" id="Combined-Shape" fill="#C2B61D"></path>
                                <ellipse id="Oval-8" fill="#EFE13D" cx="3.20879067" cy="2.55701824" rx="3.20879067" ry="2.55701824"></ellipse>
                            </g>
                            <g id="Group-13" transform="translate(1.092355, 2.521991)">
                                <path d="M0.034136071,3.16347849 L0.034136071,2.52199059 L0.2631741,2.52199059 C0.756309823,1.61516045 1.88958203,0.980774121 3.20879067,0.980774121 C4.52799932,0.980774121 5.66127153,1.61516045 6.15440726,2.52199059 L6.41758136,2.52199059 L6.41758136,3.85304118 L6.39343618,3.85304118 C6.19849939,5.11650903 4.84701343,6.09481059 3.20879067,6.09481059 C1.43662452,6.09481059 0,4.94999454 0,3.53779236 C0,3.4106399 0.0116465963,3.28565513 0.034136071,3.16347849 Z" id="Combined-Shape" fill="#C2B61D"></path>
                                <ellipse id="Oval-8" fill="#EFE13D" cx="3.20879067" cy="2.55701824" rx="3.20879067" ry="2.55701824"></ellipse>
                            </g>
                            <g id="Group-12" transform="translate(0.000000, 1.260995)">
                                <path d="M0.034136071,3.16347849 L0.034136071,2.52199059 L0.2631741,2.52199059 C0.756309823,1.61516045 1.88958203,0.980774121 3.20879067,0.980774121 C4.52799932,0.980774121 5.66127153,1.61516045 6.15440726,2.52199059 L6.41758136,2.52199059 L6.41758136,3.85304118 L6.39343618,3.85304118 C6.19849939,5.11650903 4.84701343,6.09481059 3.20879067,6.09481059 C1.43662452,6.09481059 0,4.94999454 0,3.53779236 C0,3.4106399 0.0116465963,3.28565513 0.034136071,3.16347849 Z" id="Combined-Shape" fill="#C2B61D"></path>
                                <ellipse id="Oval-8" fill="#EFE13D" cx="3.20879067" cy="2.55701824" rx="3.20879067" ry="2.55701824"></ellipse>
                            </g>
                            <g id="Group-12" transform="translate(1.160626, 0.000000)">
                                <path d="M0.034136071,3.16347849 L0.034136071,2.52199059 L0.2631741,2.52199059 C0.756309823,1.61516045 1.88958203,0.980774121 3.20879067,0.980774121 C4.52799932,0.980774121 5.66127153,1.61516045 6.15440726,2.52199059 L6.41758136,2.52199059 L6.41758136,3.85304118 L6.39343618,3.85304118 C6.19849939,5.11650903 4.84701343,6.09481059 3.20879067,6.09481059 C1.43662452,6.09481059 0,4.94999454 0,3.53779236 C0,3.4106399 0.0116465963,3.28565513 0.034136071,3.16347849 Z" id="Combined-Shape" fill="#C2B61D"></path>
                                <ellipse id="Oval-8" fill="#EFE13D" cx="3.20879067" cy="2.55701824" rx="3.20879067" ry="2.55701824"></ellipse>
                            </g>
                        </g>
                    </g>
                </g>
            </g>
        </g>
    </g>
</svg>