<?xml version="1.0" encoding="UTF-8"?>
<svg width="213px" height="285px" viewBox="0 0 213 285" version="1.1" xmlns="http://www.w3.org/2000/svg" xmlns:xlink="http://www.w3.org/1999/xlink">
    <!-- Generator: Sketch 50.2 (55047) - http://www.bohemiancoding.com/sketch -->
    <title>Group 114</title>
    <desc>Created with Sketch.</desc>
    <defs></defs>
    <g id="Page-1" stroke="none" stroke-width="1" fill="none" fill-rule="evenodd">
        <g id="Group-114" transform="translate(6.000000, 6.000000)" fill-rule="nonzero">
            <rect id="Rectangle-2" stroke="#000000" stroke-width="11" fill="#FFFFFF" x="0" y="0" width="201" height="273"></rect>
            <rect id="Rectangle-13" fill="#EFEFEF" x="16" y="22" width="170" height="230"></rect>
            <circle id="Oval-3" fill="#3B8293" cx="101" cy="137" r="71"></circle>
            <path d="M107.021647,138.842002 C107.134092,139.040772 107.84858,139.064234 107.974298,138.842002 C108.100015,138.619771 107.736135,138 107.497972,138 C107.25981,138 106.909202,138.643232 107.021647,138.842002 Z" id="Path-55" fill="#417505"></path>
            <path d="M77.7129495,124 C78.1364536,124 81.550627,122.614394 81.9479893,121.552143 C82.3453516,120.489893 80.3520181,120.411838 79.8304695,118.339332 C79.3089208,116.266825 80.3382012,113.87131 79.8304695,113.137637 C79.3227377,112.403964 77.4764309,114.820538 77.7129495,115.279512 C77.9494683,115.738485 78.8881108,114.715361 78.4187896,118.339332 C77.9494683,121.963304 77.0684197,121.656139 77.0071096,122.47009 C76.9457996,123.284039 77.2894456,124 77.7129495,124 Z" id="Path-56" fill="#417505"></path>
            <path d="M73.1725913,118.667856 C73.7876244,116.992749 75.4535648,115.514933 75.9015327,115.226857 C76.3495007,114.938781 77.4354225,114.627787 76.8111799,116.327977 C76.1869372,118.028168 74.720988,119.455709 74.2338463,119.768976 C73.7467047,120.082244 72.5575581,120.342964 73.1725913,118.667856 Z" id="Path-57" fill="#417505"></path>
            <path d="M63.0982854,79.3322974 C63.491027,78.4412257 64.3495562,77.7890005 65.0213329,77.4623947 C65.6931095,77.1357888 67.3201697,76.6097852 66.9443804,77.4623947 C66.5685911,78.3150042 64.3535152,79.6569785 63.9723979,79.8422708 C63.5912807,80.0275633 62.7055439,80.2233691 63.0982854,79.3322974 Z" id="Path-67" fill="#417505"></path>
            <path d="M67.0421505,75.8382258 C66.8087878,75.6153493 67.5993116,75 68.0660913,75 C68.5328711,75 69.1983272,75.6298258 68.9437548,75.8382258 C68.6891822,76.0466258 67.2755133,76.0611023 67.0421505,75.8382258 Z" id="Path-68" fill="#417505"></path>
            <path d="M34,114.98367 C36.3362001,107.525057 39.6062731,100.796962 43.810219,94.799383 C50.1161378,85.8030148 50.6479921,85.1328052 59.4452555,78.6820793 C65.3100977,74.3815954 70.8283459,71.8209023 76,71 C73.104641,73.1404424 70.8564658,74.6969421 69.2554744,75.6694992 C66.8539874,77.1283348 67.4610233,76.8286981 65.5766424,77.7783053 C63.6922613,78.7279125 64.2538023,77.9842514 63.2773722,78.6820793 C62.3009422,79.3799072 62.8208484,79.5152711 62.2043795,80.1883694 C61.5879108,80.8614677 60.2858798,81.564178 60.5182481,81.6946595 C60.7506165,81.8251409 63.1616744,80.1311524 62.9708029,80.6402564 C62.7799314,81.1493604 60.5899718,82.9942714 59.4452555,84.5566106 C58.3005391,86.1189497 60.1320157,84.8485652 60.5182481,84.5566106 C60.9044806,84.2646559 60.7798025,83.5623318 61.4379562,83.0503205 C62.0961099,82.5383092 62.3057165,81.3934014 63.5839416,81.3934014 C64.8621666,81.3934014 64.318602,83.232162 63.890511,83.6528366 C63.4624198,84.073511 63.957331,84.3353288 63.2773722,85.3097556 C62.5974136,86.2841824 62.1844977,86.1958823 61.4379562,87.4185616 C60.6914147,88.641241 60.695239,89.4250158 60.5182481,89.6779968 C60.3412573,89.9309777 59.5988588,89.5710626 58.8321168,91.0336579 C58.0653747,92.496253 59.351972,92.3078846 58.8321168,93.2930929 C58.3122615,94.2783012 57.2554954,95.0391686 56.6861314,94.799383 C56.1167675,94.5595974 56.9617728,92.2087417 56.6861314,92.3893189 C56.5023705,92.5097037 55.9403266,93.4134777 54.9999999,95.100641 C54.2216141,95.7852602 53.6084755,95.9860989 53.160584,95.7031569 C52.4887467,95.2787443 53.5126161,94.2050529 53.160584,94.3474959 C52.8085518,94.489939 51.5056321,95.3834227 50.5547445,96.75756 C49.6038569,98.1316975 50.2225806,97.786812 50.5547445,98.1132212 C50.8869084,98.4396302 52.042587,97.634401 51.9343066,98.1132212 C51.8260262,98.5920412 50.4136108,99.9997107 49.6350365,102.180204 C48.8564623,104.360698 49.6230792,104.605724 48.8686131,106.699075 C48.114147,108.792425 47.6129999,107.904465 47.0291971,109.410397 C46.4453943,110.916328 46.9770097,111.325858 46.4160584,113.025493 C45.8551071,114.725127 45.7135477,114.98367 45.189781,114.98367 C44.6660145,114.98367 44.7044426,114.038281 44.4233577,113.025493 C44.1422727,112.012704 43.328837,111.177324 43.810219,110.012913 C44.291601,108.848502 45.9210751,108.853908 46.4160584,108.205365 C46.9110417,107.556821 45.6137278,108.572954 45.189781,108.205365 C44.7658343,107.837775 44.2227706,106.081064 43.810219,105.945929 C43.3976675,105.810795 44.0874485,106.936198 43.810219,107.753478 C43.5329895,108.570757 42.9623508,108.807185 42.430657,110.012913 C41.8989632,111.218641 42.4135218,111.776774 41.8175182,112.272348 C41.2215146,112.767921 40.6432442,112.153987 40.4379562,111.669832 C40.2326682,111.185676 41.1767725,110.794134 41.0510949,110.4648 C40.9254172,110.135466 40.4378477,110.238909 39.9781021,110.4648 C39.5183566,110.69069 39.2526643,111.669832 38.5985402,111.669832 C37.944416,111.669832 37.9291138,110.138209 37.5255474,110.4648 C37.1219811,110.79139 37.0557701,112.416049 35.9927007,113.778638 C35.2839878,114.68703 34.6197543,115.088708 34,114.98367 Z M45.4963504,96.9081891 C45.4963504,98.2455437 47.7383936,96.6114504 49.1751825,95.552528 C50.6119713,94.4936057 51.0539421,92.51264 52.8540146,91.4855449 C54.6540872,90.4584496 53.5643021,93.1212511 53.9270073,92.8412059 C54.2897124,92.5611606 54.1553107,91.0144187 54.9999999,89.8286257 C55.8446893,88.6428329 55.5852378,89.9724171 56.0729927,89.8286257 C56.5607476,89.6848345 57.3356576,89.5890997 58.0656935,88.9248517 C58.7957292,88.2606037 60.2116788,86.5728132 60.2116788,86.0629006 C60.2116788,85.5529881 58.9796615,87.2679327 58.0656935,87.2679327 C57.1517255,87.2679327 57.6016473,85.8166285 57.1459854,86.0629006 C56.6903235,86.3091728 56.1442502,88.2823226 54.9999999,88.9248517 C53.8557498,89.5673809 53.73753,88.3758341 53.9270073,87.8704488 C54.1164846,87.3650633 55.7048901,86.9413762 56.0729927,86.0629006 C56.4410953,85.1844251 55.4424381,84.9619372 54.9999999,85.3097556 C54.5575618,85.6575738 51.8164298,88.2621167 49.1751825,91.4855449 C46.5339352,94.7089729 45.4963504,95.5708345 45.4963504,96.9081891 Z" id="Combined-Shape" fill="#417505"></path>
            <path d="M109.33885,67.0555981 C111.229216,67.4217267 118.377659,67.5122889 129.254871,72.2314272 C140.132082,76.9505655 149.630492,84.5620788 153.766897,89.2812172 C157.903301,94.0003554 161.490777,99.1761846 165.716509,107.092158 C169.942242,115.008132 171.078515,122.924106 171.844516,129.165547 C172.610516,135.406988 170.388356,125.007314 168.627312,122.924106 C166.866268,120.840898 165.754764,120.019492 164.644108,120.945113 C163.533452,121.870733 164.242842,123.910206 163.878108,126.882093 C163.513373,129.85398 162.863624,130.316942 163.112107,133.427995 C163.360589,136.539048 164.511549,134.786594 164.644108,136.4726 C164.776667,138.158606 164.816311,140.607004 163.878108,143.170732 C162.939903,145.73446 162.870856,143.619837 162.192906,143.170732 C161.514957,142.721627 161.112617,142.251412 160.660904,141.039508 C160.209191,139.827604 161.115763,139.72519 160.660904,139.060515 C160.206045,138.395839 158.951963,138.43759 158.056501,137.233751 C157.161038,136.029913 158.340354,136.264359 158.056501,135.559218 C157.772647,134.854078 157.216496,133.673572 156.5245,133.427995 C155.832503,133.182418 156.422233,134.798067 155.911699,134.798067 C155.401165,134.798067 154.498283,133.833788 153.000896,133.427995 C151.503508,133.022202 151.827975,133.732961 150.856094,133.427995 C149.884213,133.123028 150.518157,132.34817 150.090093,132.514613 C149.662028,132.681056 148.394804,133.449259 147.332489,134.798067 C146.270176,136.146875 147.723147,135.785874 147.332489,136.015909 C146.941832,136.245945 143.446801,136.403325 143.196086,137.233751 C142.945371,138.064178 145.485452,137.611715 146.413289,139.060515 C147.341125,140.509314 146.50935,140.666461 146.413289,142.25735 C146.317228,143.848239 146.921062,145.105547 145.953688,146.672028 C144.986315,148.238509 143.819729,147.477158 142.276884,148.955482 C140.73404,150.433806 141.618514,150.568662 141.051284,151.238936 C140.484053,151.90921 139.1058,153.172102 136.608479,155.653614 C134.111157,158.135125 134.492561,157.270742 133.850876,158.545988 C133.20919,159.821235 134.441472,159.287345 134.923277,159.00268 C135.24448,158.812903 136.878616,157.798034 139.825682,155.958074 C141.104562,154.895917 141.92163,154.6422 142.276884,155.196923 C142.809767,156.029007 141.911201,156.857809 141.664084,158.545988 C141.416967,160.234168 142.098853,161.487713 141.051284,163.569587 C140.003714,165.651462 137.977012,167.744661 134.923277,171.942252 C131.869541,176.139843 132.703327,173.968141 131.859274,176.2047 C131.015221,178.441258 132.39197,177.050657 132.625274,178.031463 C132.858578,179.012269 134.899843,182.082097 133.850876,184.577364 C132.801908,187.072632 128.029269,188.992042 127.569669,190.057655 C127.110068,191.123265 127.946127,191.483337 127.569669,192.493338 C127.193211,193.50334 126.481776,193.152888 126.037667,194.167872 C125.593559,195.182853 126.475298,195.472803 126.037667,195.994634 C125.600038,196.516465 124.856198,196.34547 123.739665,196.908016 C122.623131,197.470562 119.57961,200.268557 115.160456,201.474924 C110.741302,202.681291 112.381974,201.543166 109.79845,200.713773 C107.214927,199.88438 107.245574,199.891832 105.202445,198.278089 C103.159317,196.664345 104.731212,196.806274 103.823644,195.994634 C102.916076,195.182995 101.615629,195.552688 100.606441,194.167872 C99.5972528,192.783053 100.183768,192.610859 100.606441,191.579956 C101.029114,190.549055 101.871715,191.081861 102.291642,190.057655 C102.71157,189.033447 102.992612,188.311382 102.291642,187.469739 C101.590673,186.628097 97.4040726,184.959628 94.9380347,181.228299 C92.4719967,177.496968 95.7713887,179.111231 95.5508353,177.270312 C95.3302818,175.429391 95.1599912,175.030968 94.1720339,174.834627 C93.1840765,174.638287 92.0476834,176.389408 90.1888296,176.2047 C88.3299759,176.019991 89.2765385,174.488144 88.0440274,174.225706 C86.8115164,173.963269 85.9064502,174.684564 83.7544229,174.834627 C81.6023956,174.984691 81.5330205,174.834627 79.3116182,174.834627 C77.0902159,174.834627 74.9159575,175.81062 71.0388095,174.834627 C67.1616614,173.858634 69.0028901,173.768172 67.821606,171.942252 C66.640322,170.116333 67.8616148,169.680034 66.902405,168.440956 C65.9431954,167.201878 64.6588194,167.632866 63.2256013,166.005272 C61.792383,164.377678 62.9281694,164.783905 62.6128006,163.569587 C62.2974316,162.35527 62,162.427861 62,161.286134 C62,160.144407 62.4941664,160.18151 62.6128006,159.00268 C62.7314348,157.823848 62.1309423,156.943162 62.6128006,155.196923 C63.0946588,153.450683 63.3943577,151.737969 65.2172034,149.564403 C67.0400489,147.390837 68.474199,148.337754 70.2728086,146.063107 C72.0714183,143.788459 69.733551,143.953888 70.2728086,143.170732 C70.8120663,142.387575 71.3693106,143.602742 72.2644108,143.170732 C73.1595109,142.738721 73.8260476,141.346676 75.6348143,140.582817 C77.4435811,139.818958 77.0254111,140.774134 78.3924172,140.582817 C79.7594232,140.3915 82.4630102,139.896542 86.5120258,139.060515 C90.5610414,138.224487 88.5237795,137.733506 90.1888296,138.147133 C91.8538798,138.56076 91.6652267,139.129866 92.6400322,140.582817 C93.6148377,142.035768 92.7146331,142.60004 93.5592332,143.170732 C94.4038333,143.741424 95.0672879,142.822265 96.4700363,143.170732 C97.8727846,143.519199 98.029142,144.259455 99.6872397,144.693034 C101.345337,145.126613 101.333375,145.355435 102.291642,144.693034 C103.24991,144.030634 102.260394,142.42304 103.210843,142.25735 C104.161293,142.09166 107.960048,143.170732 111.024052,142.714041 C114.088055,142.25735 116.232857,142.25735 117.458458,140.582817 C118.68406,138.908284 118.901761,135.572516 117.458458,134.798067 C116.015155,134.023618 113.282145,136.707287 109.79845,136.4726 C106.314756,136.237913 108.627182,135.42646 108.419649,134.189146 C108.212116,132.951832 109.558446,132.030136 109.03245,131.905692 C108.506453,131.781247 105.817305,132.118779 105.202445,133.427995 C104.587586,134.73721 106.887647,135.498401 106.887647,136.4726 C106.887647,137.446799 105.202445,136.106301 105.202445,136.4726 C105.202445,136.838899 106.887647,137.676165 106.887647,138.147133 C106.887647,138.6181 106.01541,138.349087 105.202445,138.147133 C104.389481,137.945179 103.928712,138.059705 103.210843,137.233751 C102.492975,136.407797 103.02666,135.485469 102.291642,134.798067 C101.556625,134.110665 101.307614,135.166926 100.606441,134.798067 C99.9052673,134.429208 99.9347197,134.20672 99.6872397,133.427995 C99.4397596,132.649269 100.116211,132.291352 99.6872397,131.905692 C99.2582681,131.520032 98.0053084,131.383149 96.4700363,130.53562 C94.9347642,129.688091 96.0928553,129.792318 95.5508353,129.622238 C95.0088153,129.452157 93.5592332,129.139952 93.5592332,129.622238 C93.5592332,130.104524 94.4088697,131.046043 95.5508353,131.905692 C96.692801,132.76534 96.5931579,132.138377 98.0020378,133.123534 C99.4109179,134.108692 99.074439,134.08908 99.074439,134.493607 C99.074439,134.763291 98.716972,134.814343 98.0020378,134.646762 C98.3084381,136.472908 98.0531046,137.335238 97.236037,137.233751 C96.0104358,137.081521 97.4638897,135.50963 96.7764365,134.798067 C96.0889836,134.086504 95.1224521,134.248618 93.5592332,133.427995 C91.9960143,132.607371 91.2040992,130.931111 88.656828,130.53562 C86.1095569,130.140128 85.8449414,130.553042 83.7544229,131.905692 C81.6639043,133.258342 82.8941814,133.336796 82.0692211,134.798067 C81.2442607,136.259338 81.5880069,137.266417 80.2308192,138.147133 C78.8736314,139.027848 74.5624131,139.669436 74.5624131,139.669436 C74.5624131,139.669436 71.0388095,138.147133 71.0388095,136.4726 C71.0388095,134.798067 71.3451619,131.943777 72.7240113,131.144541 C74.1028606,130.345304 75.6870933,131.295327 78.3924172,130.53562 C81.097741,129.775912 79.418628,129.566783 79.3116182,128.556626 C79.2046084,127.546469 77.1757425,125.884299 77.7796165,124.750869 C78.3834907,123.61744 80.1418636,124.596184 82.0692211,123.380797 C83.9965786,122.16541 83.7851827,121.313201 85.746025,119.727271 C87.7068673,118.141341 87.646033,119.37854 88.656828,118.052738 C89.6676231,116.726935 88.8450692,115.130926 89.576029,114.703672 C90.3069888,114.276418 91.0840269,115.561984 91.2612308,116.530435 C91.4384345,117.498886 89.6869503,117.87463 90.1888296,118.052738 C90.6907091,118.230846 92.9442917,118.523654 95.5508353,118.052738 C98.1573789,117.581821 97.7574266,117.85101 98.6148385,116.530435 C99.4722505,115.20986 98.0509598,114.238714 98.6148385,113.333599 C99.1787172,112.428485 100.107211,113.944146 100.606441,113.333599 C101.105671,112.723052 101.081441,111.732979 100.606441,110.897915 C100.131441,110.062851 99.5607172,110.473138 98.6148385,109.832303 C97.6689599,109.191469 97.236037,109.368796 97.236037,108.614461 C97.236037,107.860126 98.1260345,107.474002 98.6148385,106.178777 C99.1036425,104.883552 98.8677864,104.659319 98.6148385,104.960935 C98.3618906,105.26255 96.3093939,106.083994 95.5508353,108.614461 C94.7922768,111.144928 96.2420293,110.907419 96.4700363,112.115757 C96.6980432,113.324096 97.1188016,113.955868 96.4700363,114.703672 C95.821271,115.451475 94.3825319,116.876729 92.6400322,116.530435 C90.8975324,116.184141 91.3144974,114.240517 89.576029,113.333599 C87.8375607,112.426682 87.3060565,114.240954 86.5120258,113.333599 C85.717995,112.426245 86.0451318,111.270512 86.5120258,109.832303 C86.9789199,108.394095 87.2707989,109.2093 88.0440274,108.614461 C88.8172559,108.019622 90.2059417,107.776656 91.2612308,106.178777 C92.3165198,104.580898 91.4675487,105.374535 91.8740314,104.656474 C92.2805142,103.938413 92.0969457,104.170314 92.6400322,103.743093 C93.1831189,103.315871 93.5641762,101.889427 94.9380347,100.850717 C96.3118932,99.8120082 97.3179877,98.9755695 99.6872397,98.4150331 C102.056492,97.8544969 100.469342,99.2248708 101.372441,99.3284148 C102.27554,99.4319587 104.696174,98.7406647 107.653648,99.3284148 C110.611122,99.9161649 109.418818,100.370814 109.03245,100.850717 C108.646081,101.330621 105.615522,101.506491 105.202445,102.37302 C104.789369,103.239549 106.575375,104.194228 107.653648,103.743093 C108.731921,103.291957 109.95165,102.06856 110.564451,100.698487 C111.177252,99.3284148 109.54386,98.7312561 109.79845,98.4150331 C110.05304,98.0988102 111.229701,99.0906964 112.249653,98.4150331 C113.269605,97.7393699 114.375251,96.4327481 116.232857,94.1525857 C118.090463,91.8724233 116.604175,92.6416934 117.458458,92.0213619 C118.312741,91.4010304 120.216061,92.2041177 120.216061,91.2602107 C120.216061,90.3163035 117.292576,88.7227042 117.458458,88.0633751 C117.624341,87.4040458 120.172044,88.8245263 120.828862,88.8245263 C121.48568,88.8245263 119.288527,87.9763687 119.450061,87.3022237 C119.611594,86.6280787 121.346595,86.1704221 121.594863,85.6276907 C121.843131,85.0849595 120.664079,85.924478 120.216061,85.6276907 C119.768044,85.3309034 120.332139,85.1442256 120.216061,84.7143092 C120.099983,84.2843928 118.823075,81.9414687 118.53086,79.3862498 C118.238644,76.8310308 119.450061,78.7283722 119.450061,78.0161774 C119.450061,77.3039825 118.53086,77.1901168 118.53086,76.3416444 C118.53086,75.493172 118.774728,74.5148812 119.450061,74.5148812 C120.125393,74.5148812 122.098702,76.3416444 122.514063,76.3416444 C122.929425,76.3416444 121.392101,75.5833484 120.828862,74.5148812 C120.265623,73.4464141 120.828862,73.829845 120.828862,73.1448088 C120.828862,72.4597726 121.396021,71.6730273 120.828862,71.1658154 C120.261702,70.6586034 118.590835,69.8481505 116.232857,69.0345916 C113.87488,68.2210328 107.448484,66.6894696 109.33885,67.0555981 Z M109.33885,125.05533 C108.879249,125.512021 109.79845,129.128266 109.79845,130.383389 C109.79845,131.638513 112.877169,128.976035 115.313656,128.404396 C117.750144,127.832756 118.730126,127.83096 119.756461,127.491014 C120.782796,127.151069 121.441662,126.425402 121.135263,125.968712 C120.828862,125.512021 118.003086,125.41209 116.998858,124.446409 C115.99463,123.480728 117.706896,121.530375 116.998858,121.706264 C116.29082,121.882153 114.638029,124.660202 114.547655,125.05533 C114.457281,125.450458 116.232857,124.460409 116.232857,125.05533 C116.232857,125.65025 115.687017,126.430876 115.160456,126.729863 C114.633895,127.02885 113.371558,127.094284 113.015654,126.882093 C112.659749,126.669902 113.64448,126.801838 113.015654,125.968712 C112.386828,125.135585 111.939835,124.635848 111.177252,124.446409 C110.414669,124.25697 109.79845,124.598639 109.33885,125.05533 Z M126.803668,117.900507 C126.112199,119.168984 124.81564,118.518308 125.731267,120.792882 C126.646893,123.067457 129.132996,124.104013 129.561271,124.750869 C129.989546,125.397726 128.702842,125.624286 129.561271,126.577633 C130.4197,127.530979 131.292473,127.643244 132.165674,127.643244 C133.038875,127.643244 133.611849,127.488099 133.850876,126.577633 C134.089902,125.667166 134.506412,125.756277 133.084875,124.141948 C131.663338,122.527619 130.565227,122.532847 129.561271,121.706264 C128.557315,120.879681 128.141538,120.767316 127.72287,119.727271 C127.3042,118.687225 127.885101,117.461766 127.72287,117.139356 C127.560637,116.816946 127.495137,116.632031 126.803668,117.900507 Z M134.004076,137.081521 C135.352134,138.654006 137.304898,139.858005 138.600081,140.126126 C139.895264,140.394248 140.861507,139.096859 141.357683,138.603824 C141.853861,138.110788 141.578291,137.605193 141.357683,137.385982 C141.137075,137.16677 141.076375,136.968953 140.132082,137.385982 C139.187789,137.80301 140.334087,139.073741 138.600081,138.603824 C136.866074,138.133907 135.704359,136.223878 135.076477,136.015909 C134.448595,135.80794 132.656017,135.509036 134.004076,137.081521 Z M118.99046,145.301955 C119.29686,145.925757 122.203578,148.990495 122.973664,149.564403 C123.743749,150.138311 124.300061,148.816456 125.118466,149.868863 C125.936872,150.921271 124.999968,151.865962 125.578067,152.913469 C126.156166,153.960976 127.08135,154.242713 127.72287,154.588002 C128.364388,154.933291 128.499769,154.475617 129.254871,154.892462 C130.009972,155.309307 129.728445,155.811398 130.480472,156.110304 C131.2325,156.40921 132.076896,156.511047 132.318874,156.110304 C132.560852,155.709562 131.705132,155.384757 131.399673,154.588002 C131.094213,153.791246 131.399673,153.52239 131.093273,152.913469 C130.786873,152.304548 127.09311,150.311719 125.654667,149.259942 C124.216224,148.208166 123.616127,147.807888 122.973664,146.976488 C122.331201,146.145089 122.667264,145.301955 122.360863,144.997495 C122.054464,144.693034 119.614794,144.678153 119.450061,144.693034 C119.285327,144.707915 118.68406,144.678153 118.99046,145.301955 Z" id="Combined-Shape" fill="#417505"></path>
            <path d="M89.0112594,134.137417 C88.8846109,134.811172 89.8580502,136.227926 90.3412576,135.968706 C90.824465,135.709485 91.2089921,133.600809 90.8732569,133.138532 C90.5375216,132.676255 89.1379078,133.463662 89.0112594,134.137417 Z" id="Path-52" fill="#417505"></path>
            <path d="M89.1693674,131.146605 C88.9617092,131.359954 88.9260807,132 89.1693674,132 C89.4126541,132 90,131.323349 90,131.146605 C90,130.969862 89.3770255,130.933257 89.1693674,131.146605 Z" id="Path-53" fill="#417505"></path>
            <path d="M92.4450016,138.033838 C92.1550651,138.229827 91.6083344,138.61257 92.4450016,139.211401 C93.2816688,139.810232 94.610935,140.031494 95.1870874,139.996443 C95.7632396,139.961391 95.5526163,139.495222 95.6709848,139.01514 C95.7893533,138.535058 96.3481062,138.171153 95.6709848,138.033838 C94.9938633,137.896524 93.9755567,138.557199 93.4127965,138.557199 C92.8500364,138.557199 92.734938,137.837849 92.4450016,138.033838 Z" id="Path-54" fill="#417505"></path>
            <path d="M68.5224805,106.073044 C69.13994,107.140881 69.1946646,108 70.6496485,108 C72.1046324,108 73.4715725,106.817205 73.8404003,106.073044 C74.2092281,105.328882 74.0112254,104.827994 72.4729352,104.321265 C70.9346451,103.814536 69.2940538,103.979121 68.5224805,104.321265 C67.7509073,104.663409 67.9050211,105.005206 68.5224805,106.073044 Z" id="Path-58" fill="#417505"></path>
            <path d="M91,91.2400322 C91,92.0846625 92.5061691,93 93.5817221,93 C94.6572752,93 95.2574698,91.6494314 95.5559802,91.2400322 C95.8544905,90.8306331 95.2782823,90.5089687 95.5559802,90.2923573 C95.833678,90.0757459 96.4211562,90.6041465 96.7709082,90.2923573 C97.1206602,89.9805682 97.0286203,89.4390397 96.7709082,89.2093002 C96.5131962,88.9795609 96.1473303,88.8848917 95.5559802,89.2093002 C94.9646301,89.5337086 95.2380487,90.171284 94.7966501,90.2923573 C94.3552516,90.4134306 94.9117101,89.4188529 93.5817221,89.7508288 C92.2517341,90.0828047 91,90.3954019 91,91.2400322 Z" id="Path-59" fill="#417505"></path>
            <path d="M110.005651,89.7131504 C110.005651,91.481647 109.868468,92.3625776 110.94592,93.4263005 C112.023372,94.4900234 113.565954,93.8227266 113.766725,93.4263005 C113.967497,93.0298744 112.176747,92.1434386 111.886188,91.5697254 C111.595629,90.9960121 111.577745,90.5162624 111.886188,89.7131504 C112.194632,88.9100383 112.777773,89.1680354 112.983168,88.7134559 C113.188563,88.2588766 112.754061,88.0787193 112.983168,87.2853214 C113.212276,86.4919232 114.524831,86 113.766725,86 C113.00862,86 111.601103,86.6384862 110.94592,87.2853214 C110.290736,87.9321563 110.005651,87.9446536 110.005651,89.7131504 Z" id="Path-60" fill="#417505"></path>
            <path d="M113.421771,77.5006622 C113.988421,77.7950679 114.407157,78.0451286 115.317412,77.9931066 C116.227668,77.9410845 117.395817,77.5777107 116.868392,77.3036844 C116.340966,77.0296583 113.979827,76.9763244 113.421771,77.0082178 C112.863715,77.0401113 112.855121,77.2062565 113.421771,77.5006622 Z" id="Path-61" fill="#417505"></path>
            <path d="M115.03312,77.1601926 C114.820605,77.3854896 115.682624,78 116.142149,78 C116.601674,78 117.20048,77.3617464 116.934313,77.1601926 C116.668146,76.9586389 115.245635,76.9348957 115.03312,77.1601926 Z" id="Path-62" fill="#417505"></path>
            <path d="M115.408038,74.2577541 C114.948949,74.4268475 114.785155,74.687922 115.408038,74.8599892 C116.030921,75.0320564 117.043107,75.0607343 117.58813,74.8599892 C118.133152,74.6592442 118.141412,74.2098496 117.58813,74.0570091 C117.034847,73.9041686 115.867127,74.0886607 115.408038,74.2577541 Z" id="Path-63" fill="#417505"></path>
            <path d="M56.8017618,98.9421518 C55.6390382,101.586203 55.8307425,104.564143 56.8017618,104.972473 C57.7727811,105.380803 59.8064489,101.118753 60.8464525,100.643012 C61.8864563,100.16727 62.1844294,101.957312 63.3931097,101.957312 C64.60179,101.957312 63.3111058,101.069448 65.7899635,100.643012 C68.2688213,100.216575 69.5322833,101.22392 71.0330812,100.643012 C72.533879,100.062103 71.9789707,98.9292154 72.9805249,97.8597863 C73.9820791,96.7903572 73.964475,97.7449345 75.3773787,96.0043029 C76.7902823,94.2636713 75.9438066,93.7551376 77.6244291,92.1387124 C79.3050516,90.5222871 81.6390841,90.3735876 81.9687266,89.6647345 C82.2983691,88.9558814 79.9246524,88.8834216 79.4220694,88.2731219 C78.9194864,87.6628222 80.1410726,87.0524695 79.4220694,86.5722621 C78.7030663,86.0920547 78.952897,87.2704169 76.8754123,86.5722621 C74.7979276,85.8741074 74.6179901,84.8807745 72.9805249,84.4075314 C71.3430598,83.9342882 70.4360605,84.64856 69.3852442,84.4075314 C68.3344279,84.1665027 68.7613159,82.4638464 67.5876039,83.1705424 C66.4138918,83.8772384 66.0708789,85.7748875 65.7899635,86.5722621 C65.5090482,87.3696366 66.6036786,86.6983127 65.7899635,88.2731219 C64.9762484,89.8479312 63.7778214,90.4664256 63.3931097,91.2109707 C63.008398,91.9555157 63.8227152,92.5053538 63.3931097,92.9118305 C62.9635041,93.3183072 61.9791121,92.6643384 61.5954694,92.9118305 C61.2118267,93.1593225 63.6246709,91.5188412 61.5954694,94.0715076 C59.5662679,96.6241741 57.9644853,96.2981005 56.8017618,98.9421518 Z" id="Path-64" fill="#417505"></path>
            <path d="M69.5249179,78.9968951 C69.6575371,78.2482431 71.2580575,77.5664123 71.975647,77.424773 C72.6932365,77.2831338 72.9085331,76.1825869 73.5073526,78.2108341 C74.1061723,80.2390813 74.2198066,81.8252724 73.5073526,82.6127758 C72.7948987,83.4002791 70.3842173,82.7684182 69.5249179,82.6127758 C68.9520516,82.5090142 68.441483,82.5090142 67.9932123,82.6127758 C67.1233203,81.983927 66.5106381,81.6695026 66.1551654,81.6695026 C65.6219565,81.6695026 65.9053828,82.9866729 65.3893126,82.6127758 C64.8732423,82.2388787 64.8672247,81.7944102 65.3893126,80.8834415 C65.9114004,79.972473 66.5643065,79.4505941 67.2273594,78.9968951 C67.8904122,78.5431961 68.6187936,77.8988933 68.759065,78.2108341 C68.8993365,78.5227748 66.9278482,79.5210475 67.6868711,80.0187744 C68.445894,80.5165013 71.1451648,80.2250189 71.5161353,80.0187744 C71.8871059,79.8125298 69.3922987,79.745547 69.5249179,78.9968951 Z" id="Path-66" fill="#417505"></path>
            <path d="M70,75.438726 C70,75.2076855 71.2778751,74.9008786 71.6802369,75.0310465 C72.0825988,75.1612144 72.1299206,75.8731909 71.6802369,75.9822986 C71.2305533,76.0914063 70,75.6697665 70,75.438726 Z" id="Path-69" fill="#417505"></path>
        </g>
    </g>
</svg>