<?xml version="1.0" encoding="UTF-8"?>
<svg width="213px" height="285px" viewBox="0 0 213 285" version="1.1" xmlns="http://www.w3.org/2000/svg" xmlns:xlink="http://www.w3.org/1999/xlink">
    <!-- Generator: Sketch 50.2 (55047) - http://www.bohemiancoding.com/sketch -->
    <title>Group 46</title>
    <desc>Created with Sketch.</desc>
    <defs></defs>
    <g id="Page-1" stroke="none" stroke-width="1" fill="none" fill-rule="evenodd">
        <g id="Desktop-Copy-9" transform="translate(-364.000000, -3793.000000)">
            <g id="Group-46" transform="translate(370.000000, 3799.000000)">
                <rect id="Rectangle-2" stroke="#000000" stroke-width="11" fill="#FFFFFF" fill-rule="nonzero" x="0" y="0" width="201" height="273"></rect>
                <rect id="Rectangle-13" fill="#EFEFEF" x="16" y="22" width="170" height="230"></rect>
                <g id="Group-34" transform="translate(21.000000, 57.000000)">
                    <circle id="Oval-3" fill="#4A90E2" cx="79.5" cy="79.5" r="79.5"></circle>
                    <path d="M3.74558304,55.4160707 C6.34987808,46.9397757 9.99521437,39.2936721 14.6815919,32.4777601 C21.7111582,22.253892 22.3040464,21.4922363 32.1108561,14.1613479 C38.6487292,9.27408902 44.8002342,6.36400484 50.565371,5.43109541 C47.3377497,7.86358821 44.831581,9.63246291 43.0468649,10.7377195 C40.3697908,12.3956044 41.0464882,12.0550841 38.9458616,13.1342594 C36.845235,14.2134347 37.4712166,13.3683056 36.3827345,14.1613479 C35.2942524,14.9543902 35.8738214,15.1082237 35.1866085,15.8731622 C34.4993957,16.6381006 33.0479478,17.4366915 33.306982,17.5849764 C33.5660162,17.7332612 36.2537595,15.8081383 36.0409842,16.3867064 C35.8282089,16.9652746 33.3869365,19.0619126 32.1108561,20.8374234 C30.8347756,22.6129342 32.8764267,21.1692134 33.306982,20.8374234 C33.7375373,20.5056334 33.5985515,19.7074814 34.3322329,19.1256092 C35.0659142,18.543737 35.2995746,17.2426135 36.7244848,17.2426135 C38.1493949,17.2426135 37.5434526,19.3322619 37.0662351,19.8103349 C36.5890175,20.2884078 37.1407232,20.585949 36.3827345,21.6933305 C35.6247459,22.800712 35.1644451,22.7003639 34.3322329,24.0898704 C33.5000206,25.479377 33.5042837,26.370093 33.306982,26.6575918 C33.1096803,26.9450905 32.2820864,26.5360671 31.4273555,28.1982246 C30.5726246,29.860382 32.0068677,29.6463118 31.4273555,30.7659459 C30.8478432,31.8855799 29.669806,32.750263 29.0351036,32.4777601 C28.4004012,32.2052572 29.3423767,29.5336414 29.0351036,29.7388574 C28.8302548,29.875668 28.2037126,30.9027565 27.155477,32.820123 C26.287766,33.5981543 25.6042655,33.8263962 25.1049754,33.5048486 C24.3560402,33.0225273 25.4974056,31.8023373 25.1049754,31.9642158 C24.7125451,32.1260944 23.2601065,33.1414885 22.200098,34.7031186 C21.1400896,36.2647487 21.829816,35.8728057 22.200098,36.2437514 C22.57038,36.6146971 23.8586806,35.6995992 23.7379743,36.2437514 C23.6172679,36.7879036 22.0427682,38.3876411 21.1748472,40.8656498 C20.3069262,43.3436584 21.1615177,43.6221171 20.3204715,46.0010925 C19.4794252,48.3800678 18.920768,47.3709508 18.2699698,49.0823581 C17.6191717,50.7937653 18.2117935,51.259173 17.5864693,53.1907122 C16.961145,55.1222513 16.8033406,55.4160707 16.2194682,55.4160707 C15.6355958,55.4160707 15.6784338,54.3416898 15.3650925,53.1907122 C15.0517511,52.0397345 14.1449681,51.0903717 14.6815919,49.7670837 C15.2182158,48.4437958 17.0346833,48.4499401 17.5864693,47.7129067 C18.1382553,46.9758733 16.6920657,48.1306519 16.2194682,47.7129067 C15.7468706,47.2951614 15.1414866,45.2987583 14.6815919,45.1451853 C14.2216973,44.9916123 14.9906354,46.2705702 14.6815919,47.1993624 C14.3725484,48.1281546 13.736425,48.3968414 13.1437157,49.7670837 C12.5510064,51.1373261 13.1246142,51.7716135 12.4602151,52.3348051 C11.795816,52.8979966 11.1511851,52.2002947 10.9223389,51.6500794 C10.6934927,51.0998641 11.7459394,50.6548976 11.6058394,50.280628 C11.4657394,49.9063584 10.9222179,50.0239164 10.4097134,50.280628 C9.89720894,50.5373396 9.60102663,51.6500794 8.8718372,51.6500794 C8.14264777,51.6500794 8.12558954,49.9094759 7.67571123,50.280628 C7.22583291,50.6517801 7.1520237,52.4981132 5.96695984,54.0466193 C5.17691727,55.0789567 4.43645834,55.5354405 3.74558304,55.4160707 Z M16.5612184,34.8743 C16.5612184,36.3941286 19.0605515,34.5370731 20.6622218,33.3336672 C22.263892,32.1302614 22.7565819,29.8790049 24.7632251,28.7117688 C26.7698683,27.5445327 25.555023,30.5706573 25.9593511,30.2524016 C26.3636791,29.9341459 26.2138538,28.1763604 27.155477,26.8287732 C28.0971003,25.481186 27.8078749,26.992184 28.351603,26.8287732 C28.8953311,26.6653624 29.7591674,26.5565653 30.5729798,25.8016846 C31.3867922,25.046804 32.9652317,23.1287246 32.9652317,22.5492376 C32.9652317,21.9697507 31.5918319,23.918689 30.5729798,23.918689 C29.5541277,23.918689 30.0556812,22.2693631 29.547729,22.5492376 C29.0397767,22.8291121 28.4310378,25.0714863 27.155477,25.8016846 C25.8799163,26.531883 25.74813,25.1777568 25.9593511,24.6034147 C26.1705722,24.0290726 27.9412581,23.5475758 28.351603,22.5492376 C28.7619479,21.5508995 27.648688,21.2980545 27.155477,21.6933305 C26.6622661,22.0886065 23.6065703,25.0485235 20.6622218,28.7117688 C17.7178732,32.3750141 16.5612184,33.3544715 16.5612184,34.8743 Z" id="Combined-Shape" fill="#537A24"></path>
                    <path d="M88.4541322,0.437109668 C90.5654155,0.849027002 98.54926,0.950915209 110.697634,6.26023914 C122.846008,11.5695631 133.454448,20.1329887 138.074252,25.4423127 C142.694056,30.7516366 146.700782,36.5747661 151.420353,45.4807288 C156.139925,54.3866915 157.408989,63.2926542 158.264508,70.3146633 C159.120027,77.3366723 156.638174,65.6363928 154.671327,63.2926542 C152.704479,60.9489156 151.463079,60.0247828 150.222626,61.0661635 C148.982174,62.1075443 149.774466,64.4020779 149.367107,67.7456356 C148.959748,71.0891932 148.234067,71.6100537 148.511588,75.1101817 C148.789109,78.6103096 150.074576,76.6386907 150.222626,78.5355519 C150.370676,80.4324132 150.414954,83.1870132 149.367107,86.0713665 C148.31926,88.9557199 148.242143,86.5766376 147.484965,86.0713665 C146.727787,85.5660955 146.278428,85.0370746 145.773926,83.6736073 C145.269423,82.31014 146.281942,82.1949183 145.773926,81.4471167 C145.26591,80.699315 143.865271,80.7462879 142.86516,79.3918945 C141.865049,78.0375011 143.182186,78.301268 142.86516,77.5079408 C142.548134,76.7146137 141.926988,75.3864711 141.154122,75.1101817 C140.381255,74.8338922 141.039903,76.6515983 140.469706,76.6515983 C139.899509,76.6515983 138.891112,75.5667241 137.218733,75.1101817 C135.546353,74.6536392 135.908739,75.4532883 134.823279,75.1101817 C133.737819,74.767075 134.44585,73.8953118 133.967759,74.0825706 C133.489669,74.2698294 132.074351,75.1341057 130.88789,76.6515983 C129.701429,78.1690909 131.324202,77.7629422 130.88789,78.0217464 C130.451578,78.2805506 126.548101,78.4576129 126.268086,79.3918945 C125.988071,80.3261761 128.824998,79.8171275 129.861267,81.4471167 C130.897535,83.0771058 129.968554,83.2539061 129.861267,85.0437555 C129.753979,86.8336048 130.428381,88.248154 129.347955,90.0105424 C128.267529,91.7729308 126.964611,90.9163634 125.241462,92.5795701 C123.518314,94.2427767 124.506151,94.3944983 123.872632,95.1485978 C123.239112,95.9026973 121.69979,97.3235299 118.91062,100.115385 C116.121449,102.907239 116.547426,101.934754 115.83075,103.369486 C115.114074,104.804218 116.490366,104.203558 117.028477,103.883292 C117.387218,103.669781 119.212326,102.527991 122.503801,100.457922 C123.932137,99.2629287 124.844691,98.9774812 125.241462,99.6015791 C125.83662,100.537726 124.833044,101.470179 124.557047,103.369486 C124.28105,105.268793 125.042625,106.679109 123.872632,109.021347 C122.702638,111.363586 120.439087,113.718565 117.028477,118.441116 C113.617867,123.163666 114.549093,120.720367 113.6064,123.236634 C112.663707,125.752901 114.20135,124.188389 114.461919,125.291856 C114.722488,126.395324 117.002305,129.849072 115.83075,132.656402 C114.659195,135.463733 109.328803,137.623189 108.815492,138.822069 C108.30218,140.020948 109.235944,140.426051 108.815492,141.562365 C108.395039,142.698679 107.600462,142.3044 107.104453,143.446319 C106.608444,144.588237 107.593227,144.914448 107.104453,145.501541 C106.61568,146.088633 105.784912,145.896253 104.537895,146.529152 C103.290878,147.162051 99.8916761,150.309969 94.9560789,151.667207 C90.0204817,153.024445 91.8528901,151.743983 88.9674438,150.810865 C86.0819974,149.877747 86.1162259,149.88613 83.8343279,148.070569 C81.5524299,146.255007 83.3080235,146.414686 82.2943932,145.501541 C81.2807628,144.588396 79.8283384,145.004324 78.7012121,143.446319 C77.5740857,141.888313 78.2291434,141.694583 78.7012121,140.534754 C79.1732807,139.374925 80.114352,139.974365 80.5833545,138.822069 C81.0523571,137.669773 81.3662423,136.857404 80.5833545,135.910504 C79.8004668,134.963604 75.1246,133.086473 72.3703692,128.888495 C69.6161383,124.690517 73.301113,126.506663 73.0547846,124.435514 C72.8084562,122.364364 72.6182646,121.916113 71.5148499,121.695217 C70.4114351,121.474322 69.1422377,123.444443 67.0661494,123.236634 C64.9900612,123.028825 66.0472436,121.305402 64.6706954,121.010143 C63.2941472,120.714885 62.2833107,121.526387 59.8797873,121.695217 C57.4762638,121.864048 57.3987813,121.695217 54.9177753,121.695217 C52.4367693,121.695217 50.0084168,122.79327 45.6781667,121.695217 C41.3479167,120.597165 43.4043201,120.495389 42.0849856,118.441116 C40.7656511,116.386843 42.12967,115.89598 41.0583624,114.50194 C39.9870549,113.1079 38.5525806,113.592788 36.9518698,111.761644 C35.3511589,109.930499 36.6196787,110.38753 36.2674543,109.021347 C35.9152299,107.655165 35.5830389,107.736834 35.5830389,106.45232 C35.5830389,105.167806 36.134956,105.20955 36.2674543,103.883292 C36.3999527,102.557033 35.7292838,101.566207 36.2674543,99.6015791 C36.8056248,97.636951 37.140348,95.7100414 39.17622,93.2646441 C41.2120919,90.8192469 42.8138436,91.884588 44.8226474,89.3254683 C46.8314512,86.7663486 44.2203695,86.9524659 44.8226474,86.0713665 C45.4249253,85.1902671 46.0472918,86.5574052 47.0469976,86.0713665 C48.0467034,85.5853279 48.7911347,84.0191908 50.8112826,83.1598018 C52.8314304,82.3004128 52.3643912,83.3750455 53.8911521,83.1598018 C55.417913,82.9445581 58.4374539,82.3876994 62.9596568,81.4471167 C67.4818596,80.5065339 65.2065136,79.9541492 67.0661494,80.4195056 C68.9257853,80.8848619 68.7150853,81.5251414 69.8038112,83.1598018 C70.8925372,84.7944622 69.8871303,85.4293025 70.8304344,86.0713665 C71.7737385,86.7134306 72.5147276,85.6793196 74.0814078,86.0713665 C75.648088,86.4634135 75.822718,87.2962483 77.6745889,87.7840517 C79.5264598,88.2718551 79.5130995,88.5292934 80.5833545,87.7840517 C81.6536096,87.03881 80.5484541,85.2301669 81.6099777,85.0437555 C82.6715013,84.857344 86.9141974,86.0713665 90.3362747,85.557561 C93.7583519,85.0437555 96.153806,85.0437555 97.5226369,83.1598018 C98.8914678,81.2758482 99.134611,77.522902 97.5226369,76.6515983 C95.9106627,75.7802946 92.8582591,78.7995899 88.9674438,78.5355519 C85.0766285,78.271514 87.6592951,77.3585791 87.427509,75.9665242 C87.1957229,74.5744694 88.6993919,73.5375043 88.1119245,73.3974965 C87.524457,73.2574887 84.5210431,73.6372331 83.8343279,75.1101817 C83.1476128,76.5831302 85.7164704,77.4395174 85.7164704,78.5355519 C85.7164704,79.6315865 83.8343279,78.1234428 83.8343279,78.5355519 C83.8343279,78.9476611 85.7164704,79.8896379 85.7164704,80.4195056 C85.7164704,80.9493733 84.7422994,80.6467169 83.8343279,80.4195056 C82.9263564,80.1922943 82.4117398,80.3211439 81.6099777,79.3918945 C80.8082156,78.4626451 81.4042699,77.424968 80.5833545,76.6515983 C79.7624392,75.8782286 79.4843278,77.0665879 78.7012121,76.6515983 C77.9180963,76.2366086 77.9509907,75.9862964 77.6745889,75.1101817 C77.3981871,74.2340669 78.153692,73.8313879 77.6745889,73.3974965 C77.1954857,72.9636051 75.7960991,72.8096028 74.0814078,71.8560799 C72.3667165,70.902557 73.6601477,71.01982 73.0547846,70.8284688 C72.4494216,70.6371176 70.8304344,70.2858667 70.8304344,70.8284688 C70.8304344,71.3710709 71.7793634,72.4303385 73.0547846,73.3974965 C74.3302058,74.3646545 74.2189179,73.6592813 75.7924464,74.7676446 C77.3659749,75.876008 76.9901734,75.8539439 76.9901734,76.3090613 C76.9901734,76.6124728 76.5909311,76.6699092 75.7924464,76.4813704 C76.1346541,78.5358988 75.849481,79.5060735 74.9369271,79.3918945 C73.5680962,79.220626 75.1914077,77.4521514 74.4236155,76.6515983 C73.6558234,75.8510452 72.5763385,76.0334337 70.8304344,75.1101817 C69.0845303,74.1869296 68.2000682,72.3010322 65.3551108,71.8560799 C62.5101535,71.4111276 62.2146138,71.8756813 59.8797873,73.3974965 C57.5449607,74.9193117 58.9190139,75.0075772 57.9976448,76.6515983 C57.0762756,78.2956194 57.4601936,79.428646 55.9443984,80.4195056 C54.4286033,81.4103652 49.6135555,82.1321907 49.6135555,82.1321907 C49.6135555,82.1321907 45.6781667,80.4195056 45.6781667,78.5355519 C45.6781667,76.6515983 46.020321,73.4403449 47.5603092,72.541154 C49.1002974,71.641963 50.8696712,72.7107984 53.8911521,71.8560799 C56.912633,71.0013614 55.0372907,70.766079 54.9177753,69.6295892 C54.7982598,68.4930995 52.5322909,66.6230554 53.2067366,65.3478764 C53.8811824,64.0726974 55.8450471,65.1738459 57.9976448,63.8064598 C60.1502424,62.4390736 59.9141418,61.4802853 62.1041375,59.6960154 C64.2941331,57.9117455 64.2261895,59.3036719 65.3551108,57.8120618 C66.4840322,56.3204516 65.5653507,54.524842 66.381734,54.0441545 C67.1981173,53.5634669 68.0659638,55.0098096 68.2638765,56.0993766 C68.4617891,57.1889437 66.505618,57.6116793 67.0661494,57.8120618 C67.6266809,58.0124442 70.1436279,58.3418723 73.0547846,57.8120618 C75.9659413,57.2822512 75.5192487,57.5851054 76.4768619,56.0993766 C77.434475,54.6136479 75.8470856,53.5210477 76.4768619,52.5027378 C77.1066381,51.484428 78.1436397,53.1896412 78.7012121,52.5027378 C79.2587845,51.8158345 79.2317228,50.7019407 78.7012121,49.7624416 C78.1707013,48.8229425 77.5332804,49.2845405 76.4768619,48.563562 C75.4204433,47.8425835 74.9369271,48.042088 74.9369271,47.1934139 C74.9369271,46.3447398 75.9309339,45.9103264 76.4768619,44.4531177 C77.0227898,42.995909 76.7593704,42.7436331 76.4768619,43.0829696 C76.1943533,43.422306 73.9019919,44.346481 73.0547846,47.1934139 C72.2075773,50.0403469 73.8267549,49.7731338 74.0814078,51.1325897 C74.3360607,52.4920456 74.8059909,53.2028293 74.0814078,54.0441545 C73.3568247,54.8854797 71.7499478,56.4889785 69.8038112,56.0993766 C67.8576746,55.7097748 68.323368,53.5230766 66.381734,52.5027378 C64.4401001,51.4823991 63.8464817,53.5235679 62.9596568,52.5027378 C62.0728318,51.4819078 62.4381993,50.1816358 62.9596568,48.563562 C63.4811143,46.9454883 63.8071038,47.8626443 64.6706954,47.1934139 C65.534287,46.5241835 67.0852614,46.2508309 68.2638765,44.4531177 C69.4424916,42.6554045 68.4943057,43.5482959 68.9482919,42.7404326 C69.4022782,41.9325692 69.197257,42.1934723 69.8038112,41.7128215 C70.4103655,41.2321706 70.835955,39.6273322 72.3703692,38.4587197 C73.9047834,37.2901072 75.0284549,36.3490617 77.6745889,35.7184235 C80.3207229,35.0877853 78.5480919,36.6295411 79.5567314,36.7460346 C80.5653708,36.862528 83.2688913,36.0847792 86.5719897,36.7460346 C89.8750881,37.40729 88.5434463,37.9187984 88.1119245,38.4587197 C87.6804026,38.9986411 84.2956784,39.1965055 83.8343279,40.1714049 C83.3729774,41.1463042 85.3677047,42.2203768 86.5719897,41.7128215 C87.7762748,41.2052661 89.1385476,39.8288678 89.8229631,38.2874512 C90.5073785,36.7460346 88.683101,36.074194 88.9674438,35.7184235 C89.2517865,35.362653 90.565957,36.4785867 91.7051056,35.7184235 C92.8442541,34.9582603 94.0791113,33.4882295 96.153806,30.9229051 C98.2285007,28.3575807 96.5685182,29.2230574 97.5226369,28.5251459 C98.4767555,27.8272344 100.602506,28.7307575 100.602506,27.6688034 C100.602506,26.6068492 97.3373685,24.8139509 97.5226369,24.0721646 C97.7079052,23.3303782 100.553345,24.9285071 101.286922,24.9285071 C102.020499,24.9285071 99.5665761,23.974277 99.7469871,23.215822 C99.927398,22.457367 101.86516,21.9424748 102.142441,21.3318683 C102.419723,20.7212619 101.102881,21.6657725 100.602506,21.3318683 C100.102132,20.9979642 100.73215,20.78794 100.602506,20.3042573 C100.472863,19.8205746 99.0467294,17.1846394 98.7203639,14.3098593 C98.3939984,11.4350791 99.7469871,13.5697061 99.7469871,12.7684427 C99.7469871,11.9671792 98.7203639,11.8390732 98.7203639,10.884489 C98.7203639,9.92990479 98.9927319,8.82926684 99.7469871,8.82926684 C100.501242,8.82926684 102.705161,10.884489 103.169064,10.884489 C103.632967,10.884489 101.915984,10.0313588 101.286922,8.82926684 C100.65786,7.62717489 101.286922,8.05855853 101.286922,7.28785022 C101.286922,6.51714191 101.920362,5.6320045 101.286922,5.06135954 C100.653481,4.49071458 98.7873481,3.57890463 96.153806,2.66360035 C93.5202639,1.74829607 86.3428488,0.025192334 88.4541322,0.437109668 Z M88.4541322,65.6904134 C87.9408206,66.2042189 88.9674438,70.2727194 88.9674438,71.6848114 C88.9674438,73.0969033 92.4059557,70.1014509 95.1271828,69.4583207 C97.8484098,68.8151905 98.942918,68.8131696 100.089195,68.4307096 C101.235472,68.0482497 101.971337,67.23183 101.62913,66.7180245 C101.286922,66.2042189 98.1309125,66.0917908 97.0093253,65.0053393 C95.8877381,63.9188879 97.8001082,61.7246201 97.0093253,61.9225061 C96.2185423,62.1203921 94.372599,65.2458699 94.2716635,65.6904134 C94.170728,66.1349569 96.153806,65.0210908 96.153806,65.6904134 C96.153806,66.359736 95.544176,67.2379882 94.9560789,67.5743671 C94.3679819,67.9107459 92.9581224,67.9843636 92.5606249,67.7456356 C92.1631274,67.5069076 93.2629386,67.655344 92.5606249,66.7180245 C91.8583111,65.780705 91.3590807,65.2184698 90.5073785,65.0053393 C89.6556763,64.7922089 88.9674438,65.1766079 88.4541322,65.6904134 Z M107.959972,57.6407933 C107.187695,59.0679078 105.739614,58.3358573 106.762245,60.894895 C107.784876,63.4539328 110.561517,64.6201221 111.039842,65.3478764 C111.518167,66.0756306 110.081093,66.3305243 111.039842,67.4030985 C111.998591,68.4756728 112.97336,68.6019781 113.948608,68.6019781 C114.923855,68.6019781 115.56379,68.42743 115.83075,67.4030985 C116.09771,66.378767 116.562896,66.4790229 114.975231,64.6628023 C113.387566,62.8465818 112.161125,62.8524634 111.039842,61.9225061 C109.918559,60.9925488 109.454192,60.8661316 108.986596,59.6960154 C108.518999,58.5258993 109.167787,57.1471823 108.986596,56.7844507 C108.805404,56.421719 108.73225,56.2136787 107.959972,57.6407933 Z M116.001854,79.220626 C117.507453,80.9897694 119.688426,82.344343 121.13497,82.6459963 C122.581514,82.9476496 123.660677,81.488007 124.214839,80.9333111 C124.769002,80.3786152 124.461229,79.8097897 124.214839,79.563163 C123.96845,79.3165364 123.900656,79.0939797 122.846008,79.563163 C121.791361,80.0323464 123.07162,81.4619968 121.13497,80.9333111 C119.198319,80.4046254 117.90084,78.2557244 117.199581,78.0217464 C116.498322,77.7877684 114.496255,77.4514826 116.001854,79.220626 Z M99.2336755,88.4691257 C99.5758832,89.1709418 102.822294,92.6189622 103.682376,93.2646441 C104.542457,93.910326 105.163782,92.4231568 106.07783,93.6071811 C106.991878,94.7912055 105.945483,95.8540406 106.591142,97.0325514 C107.2368,98.2110622 108.270106,98.5280333 108.986596,98.9165051 C109.703085,99.3049769 109.854288,98.7900658 110.697634,99.2590421 C111.54098,99.7280184 111.226553,100.292902 112.066465,100.62919 C112.906378,100.965478 113.849455,101.080051 114.119711,100.62919 C114.389968,100.17833 113.434245,99.8129044 113.093088,98.9165051 C112.751931,98.0201057 113.093088,97.7176255 112.750881,97.0325514 C112.408673,96.3474774 108.28324,94.1054207 106.676693,92.9221071 C105.070147,91.7387935 104.39992,91.2884552 103.682376,90.3530794 C102.964831,89.4177036 103.340168,88.4691257 102.99796,88.1265887 C102.655753,87.7840517 99.9309718,87.7673097 99.7469871,87.7840517 C99.5630023,87.8007937 98.8914678,87.7673097 99.2336755,88.4691257 Z" id="Combined-Shape" fill="#537A24"></path>
                    <path d="M65.1868511,77.0551385 C65.0326801,77.7701598 66.2176618,79.2736886 66.8058772,78.9985909 C67.3940926,78.7234932 67.862183,76.4856647 67.4534876,75.9950735 C67.0447922,75.5044823 65.3410221,76.3401172 65.1868511,77.0551385 Z" id="Path-52" fill="#537A24"></path>
                    <path d="M66.1125754,73.9527226 C65.8792351,74.1924571 65.8392003,74.9116608 66.1125754,74.9116608 C66.3859505,74.9116608 67.0459364,74.1513252 67.0459364,73.9527226 C67.0459364,73.75412 66.3459156,73.712988 66.1125754,73.9527226 Z" id="Path-53" fill="#537A24"></path>
                    <path d="M70.5007702,79.0761623 C70.2021254,79.3330945 69.6389734,79.8348526 70.5007702,80.6198931 C71.362567,81.4049335 72.7317581,81.694998 73.3252154,81.6490469 C73.9186727,81.6030959 73.7017232,80.9919701 73.8236469,80.3626046 C73.9455706,79.7332391 74.5211059,79.2561752 73.8236469,79.0761623 C73.1261878,78.8961494 72.077296,79.7622649 71.4976332,79.7622649 C70.9179704,79.7622649 70.799415,78.8192301 70.5007702,79.0761623 Z" id="Path-54" fill="#537A24"></path>
                    <path d="M86.1767885,81.2888929 C86.3241989,81.5122455 87.2608596,81.5386087 87.4256694,81.2888929 C87.5904792,81.0391771 87.1134492,80.3427562 86.801229,80.3427562 C86.4890087,80.3427562 86.0293781,81.0655403 86.1767885,81.2888929 Z" id="Path-55" fill="#537A24"></path>
                    <path d="M53.2926943,64.2367491 C53.8003005,64.2367491 57.8924829,62.7033689 58.3687561,61.52783 C58.8450292,60.3522911 56.4558464,60.2659123 55.8307252,57.9723736 C55.205604,55.6788349 56.4392857,53.0278399 55.8307252,52.2159205 C55.2221647,51.4040011 53.0092062,54.0783024 53.2926943,54.5862247 C53.5761824,55.094147 54.7012268,53.9619069 54.1387046,57.9723736 C53.5761824,61.9828404 52.5201694,61.6429175 52.446684,62.5436747 C52.3731986,63.4444318 52.7850881,64.2367491 53.2926943,64.2367491 Z" id="Path-56" fill="#537A24"></path>
                    <path d="M47.9501203,60.7173714 C48.6412176,58.6468678 50.5131929,56.8202254 51.0165633,56.4641509 C51.5199337,56.1080764 52.7401568,55.7236741 52.038711,57.8251814 C51.3372651,59.9266888 49.6900148,61.6911897 49.1426259,62.078402 C48.595237,62.4656143 47.2590229,62.7878751 47.9501203,60.7173714 Z" id="Path-57" fill="#537A24"></path>
                    <path d="M43.6776115,44.1760579 C44.3907081,45.2259724 44.4539088,46.0706714 46.1342524,46.0706714 C47.8145961,46.0706714 49.393259,44.9077289 49.8192138,44.1760579 C50.2451686,43.4443869 50.0164976,42.9519057 48.2399446,42.453682 C46.4633917,41.9554583 44.5686922,42.1172805 43.6776115,42.453682 C42.7865308,42.7900835 42.9645149,43.1261434 43.6776115,44.1760579 Z" id="Path-58" fill="#537A24"></path>
                    <path d="M67.2332155,28.6762245 C67.2332155,29.7439506 68.9726723,30.9010601 70.2148157,30.9010601 C71.4569591,30.9010601 72.1501168,29.19376 72.4948629,28.6762245 C72.839609,28.1586891 72.1741529,27.752062 72.4948629,27.4782361 C72.8155728,27.2044102 73.4940444,27.8723795 73.8979688,27.4782361 C74.3018933,27.0840928 74.1955974,26.399528 73.8979688,26.1091065 C73.6003403,25.8186851 73.1778061,25.6990107 72.4948629,26.1091065 C71.8119197,26.5192023 72.1276876,27.3251832 71.6179216,27.4782361 C71.1081557,27.631289 71.7508031,26.3740092 70.2148157,26.7936713 C68.6788283,27.2133335 67.2332155,27.6084984 67.2332155,28.6762245 Z" id="Path-59" fill="#537A24"></path>
                    <path d="M90.2746366,25.7829705 C90.2746366,27.8943868 90.12691,28.9461339 91.2871696,30.2161176 C92.4474292,31.4861012 94.1085671,30.6894125 94.3247687,30.2161176 C94.5409703,29.7428226 92.6125925,28.6845029 92.2997026,27.999544 C91.9868127,27.3145851 91.9675536,26.7418096 92.2997026,25.7829705 C92.6318516,24.8241313 93.2598102,25.1321553 93.4809911,24.5894308 C93.7021721,24.0467064 93.2342757,23.8316158 93.4809911,22.8843743 C93.7277066,21.9371327 95.1411385,21.3498233 94.3247687,21.3498233 C93.5083988,21.3498233 91.9927073,22.1121149 91.2871696,22.8843743 C90.5816319,23.6566336 90.2746366,23.6715541 90.2746366,25.7829705 Z" id="Path-60" fill="#537A24"></path>
                    <path d="M93.117872,13.5788547 C93.6750115,14.0750791 94.0867185,14.4965595 94.9816962,14.4088758 C95.8766739,14.321192 97.0252162,13.7087208 96.5066432,13.2468462 C95.9880703,12.7849717 93.6665611,12.6950768 93.117872,12.7488336 C92.5691829,12.8025904 92.5607325,13.0826303 93.117872,13.5788547 Z" id="Path-61" fill="#537A24"></path>
                    <path d="M95.9210406,12.0385925 C95.7021422,12.3761399 96.5900527,13.2968198 97.0633798,13.2968198 C97.5367068,13.2968198 98.1534977,12.3405671 97.8793363,12.0385925 C97.6051749,11.736618 96.139939,11.7010451 95.9210406,12.0385925 Z" id="Path-62" fill="#537A24"></path>
                    <path d="M95.5708391,10.1729637 C95.0836319,10.4579727 94.9098051,10.898017 95.5708391,11.1880384 C96.231873,11.4780597 97.3060532,11.5263966 97.8844579,11.1880384 C98.4628626,10.8496801 98.4716283,10.09222 97.8844579,9.83460542 C97.2972875,9.57699088 96.0580463,9.88795463 95.5708391,10.1729637 Z" id="Path-63" fill="#537A24"></path>
                    <path d="M29.7534593,36.5060005 C28.4301857,39.4545465 28.6483607,42.7754329 29.7534593,43.2307868 C30.8585579,43.6861408 33.1730366,38.9332641 34.356645,38.4027351 C35.5402534,37.8722061 35.879371,39.8683937 37.2549471,39.8683937 C38.6305232,39.8683937 37.16162,38.8782812 39.9827609,38.4027351 C42.8039018,37.9271889 44.2418239,39.0505423 45.9498535,38.4027351 C47.657883,37.7549278 47.0263523,36.4915744 48.1662022,35.2989875 C49.306052,34.1064006 49.2860171,35.1709091 50.8940159,33.2298225 C52.5020147,31.2887359 51.5386568,30.7216383 53.4513413,28.919062 C55.3640258,27.1164856 58.0203439,26.9506615 58.3955038,26.1601753 C58.7706636,25.3696891 56.0691818,25.2888847 55.4972016,24.6083015 C54.9252214,23.9277183 56.3154855,23.247076 55.4972016,22.7115669 C54.6789178,22.1760577 54.9632454,23.4901227 52.5988995,22.7115669 C50.2345537,21.9330111 50.0297701,20.8252839 48.1662022,20.297541 C46.3026342,19.7697981 45.2703956,20.566327 44.0744815,20.297541 C42.8785674,20.028755 43.3644006,18.1300169 42.0286212,18.9180976 C40.6928418,19.7061783 40.3024653,21.8223648 39.9827609,22.7115669 C39.6630565,23.6007689 40.9088346,22.8521337 39.9827609,24.6083015 C39.0566871,26.3644693 37.6927802,27.0541909 37.2549471,27.8844795 C36.817114,28.714768 37.743873,29.3279267 37.2549471,29.7812141 C36.7660212,30.2345015 35.6457033,29.5052203 35.2090868,29.7812141 C34.7724703,30.0572079 37.5184825,28.227805 35.2090868,31.0744422 C32.8996911,33.9210795 31.0767328,33.5574544 29.7534593,36.5060005 Z" id="Path-64" fill="#537A24"></path>
                    <path d="M43.1022046,13.7928389 C43.2512254,12.9749652 45.0496901,12.2300912 45.8560273,12.0753557 C46.6623646,11.9206203 46.904288,10.7183149 47.5771666,12.9340973 C48.2500452,15.1498797 48.3777332,16.8827328 47.5771666,17.7430501 C46.7766,18.6033673 44.0677777,17.9130834 43.1022046,17.7430501 C42.4584891,17.6296945 41.884776,17.6296945 41.3810653,17.7430501 C40.4035896,17.0560568 39.7151339,16.7125602 39.3156982,16.7125602 C38.7165447,16.7125602 39.0350238,18.1515184 38.4551286,17.7430501 C37.8752334,17.3345818 37.8684716,16.849017 38.4551286,15.8538186 C39.0417856,14.8586203 39.7754398,14.2884876 40.5204957,13.7928389 C41.2655515,13.2971901 42.0840155,12.593314 42.2416349,12.9340973 C42.3992544,13.2748806 40.1839425,14.3654553 41.0368375,14.9092029 C41.8897324,15.4529505 44.9228353,15.1345172 45.3396856,14.9092029 C45.7565359,14.6838886 42.9531837,14.6107125 43.1022046,13.7928389 Z" id="Path-66" fill="#537A24"></path>
                    <path d="M36.9906287,14.4610129 C37.3767783,13.5153644 38.2208976,12.8231913 38.8813989,12.4765814 C39.5419001,12.1299714 41.141651,11.5717508 40.7721691,12.4765814 C40.4026872,13.381412 38.2247901,14.8055802 37.8500697,15.0022215 C37.4753493,15.1988628 36.6044791,15.4066614 36.9906287,14.4610129 Z" id="Path-67" fill="#537A24"></path>
                    <path d="M41.2487769,11.7434902 C40.9865531,11.4095692 41.8748448,10.4876325 42.3993534,10.4876325 C42.9238621,10.4876325 43.6716186,11.4312584 43.3855619,11.7434902 C43.0995051,12.055722 41.5110007,12.0774112 41.2487769,11.7434902 Z" id="Path-68" fill="#537A24"></path>
                    <path d="M44.1978799,10.6882238 C44.1978799,10.3853403 45.633796,9.98313063 46.0859199,10.1537747 C46.5380438,10.3244188 46.5912182,11.2577873 46.0859199,11.4008225 C45.5806217,11.5438577 44.1978799,10.9911073 44.1978799,10.6882238 Z" id="Path-69" fill="#537A24"></path>
                </g>
                <path d="M40.3866799,111.208535 C40.5277012,111.312803 40.5982107,111.464859 40.5982107,111.664706 C40.5982107,111.864554 39.2761564,114.744918 36.632008,120.305887 L41.2856859,129.768176 L40.4924453,129.768176 C39.6286902,129.768176 39.0337657,129.685632 38.7076541,129.52054 C38.3815424,129.355449 38.0774699,128.960105 37.7954274,128.334496 L33.9614314,120.305887 L38.4035785,111 L38.8001988,111 C39.3114008,111 39.6683555,111.008689 39.8710736,111.026067 C40.0737916,111.043445 40.2456587,111.104267 40.3866799,111.208535 Z M33.5912525,112.590082 L33.5912525,128.178094 C33.5912525,128.977484 33.5075224,129.442339 33.3400596,129.572674 C33.1725969,129.703009 32.6217409,129.768176 31.6874751,129.768176 L31.1322068,129.768176 L31.1322068,111 L31.6874751,111 C32.6217409,111 33.1725969,111.065167 33.3400596,111.195502 C33.5075224,111.325837 33.5912525,111.790692 33.5912525,112.590082 Z M43.0043738,122.834378 L43.0043738,121.218229 C43.0043738,120.140791 43.0308148,119.419614 43.0836978,119.054675 C43.1365808,118.689737 43.1982767,118.329148 43.2687873,117.972899 C43.3392979,117.616649 43.423028,117.355983 43.5199801,117.190891 C43.6169322,117.0258 43.740324,116.8303 43.890159,116.604386 C44.0399941,116.378472 44.2118612,116.222072 44.4057654,116.135181 C44.5996696,116.048291 44.8288257,115.952714 45.0932406,115.848445 C45.533932,115.674665 46.1773318,115.587776 47.0234592,115.587776 C47.8695867,115.587776 48.5526482,115.687698 49.072664,115.887546 C49.5926799,116.087393 49.9981099,116.313304 50.2889662,116.565285 C50.5798225,116.817267 50.7869444,117.303844 50.910338,118.025033 C51.0337316,118.746221 51.108648,119.384854 51.1350895,119.94095 C51.1615309,120.497047 51.1747515,121.25298 51.1747515,122.208772 L51.1747515,124.16379 C51.1747515,125.275984 51.1483104,126.014539 51.0954274,126.379477 C51.0425445,126.744416 50.9808486,127.109349 50.910338,127.474288 C50.8398273,127.839226 50.7560972,128.104237 50.6591451,128.269329 C50.562193,128.43442 50.4388013,128.634264 50.2889662,128.868867 C50.1391311,129.103471 49.9628572,129.26856 49.7601392,129.364139 C49.5574211,129.459718 49.3238582,129.55964 49.0594433,129.663908 C48.6363796,129.855067 48.0723031,129.950644 47.3671968,129.950644 C46.6620906,129.950644 46.1200483,129.924578 45.7410537,129.872444 C45.3620591,129.820309 45.0271386,129.707354 44.7362823,129.533574 C44.445426,129.359793 44.2030493,129.194705 44.0091451,129.038302 C43.8152409,128.8819 43.6521875,128.616889 43.5199801,128.243262 C43.3877727,127.869634 43.2864152,127.55249 43.2159046,127.291819 C43.1453939,127.031149 43.1013255,126.605394 43.0836978,126.014541 C43.0308148,125.023993 43.0043738,123.963949 43.0043738,122.834378 Z M47.0763419,117.803464 C46.2830974,117.803464 45.7983442,118.120608 45.6220676,118.754906 C45.445791,119.389204 45.3576541,120.484003 45.3576541,122.039337 C45.3576541,123.59467 45.3664678,124.602581 45.3840954,125.063098 C45.4017231,125.523616 45.463419,126.010194 45.5691849,126.522845 C45.6749508,127.035497 45.8468179,127.365675 46.0847913,127.513388 C46.3227646,127.661101 46.6532782,127.734957 47.0763419,127.734957 C47.8695865,127.734957 48.3543397,127.404779 48.5306163,126.744414 C48.7068929,126.084049 48.7950298,124.971872 48.7950298,123.40785 C48.7950298,121.843827 48.7862161,120.835917 48.7685885,120.384088 C48.7509608,119.932259 48.6892649,119.46306 48.583499,118.976475 C48.4777331,118.48989 48.305866,118.172746 48.0678926,118.025033 C47.8299193,117.877319 47.4994057,117.803464 47.0763419,117.803464 Z M59.6359841,122.808311 L59.6624254,120.514423 C59.6624254,119.819301 59.6447981,119.297968 59.6095427,118.950408 C59.5390321,118.220531 59.1247884,117.83822 58.3667992,117.803464 L55.9341948,118.50727 L56.172167,119.237144 L56.172167,129.768176 C54.991114,129.768176 54.3036458,129.703009 54.1097416,129.572674 C53.9158373,129.442339 53.8188867,128.986172 53.8188867,128.204161 L53.8188867,115.770245 C54.8412907,115.770245 55.4846905,115.796311 55.7491054,115.848445 C56.0135202,115.90058 56.1545393,116.056979 56.172167,116.31765 L58.128827,115.587776 C59.2041141,115.587776 59.9092097,115.657287 60.2441352,115.796312 C60.5790607,115.935336 60.8346578,116.05698 61.0109344,116.161248 C61.187211,116.265517 61.3458575,116.478394 61.4868787,116.799888 C61.6279,117.121381 61.7248506,117.416803 61.7777336,117.686163 C61.8306166,117.955522 61.8834987,118.385622 61.9363817,118.976475 C61.9892647,119.827998 62.0157058,121.113953 62.0157058,122.834378 L62.0157058,129.768176 C60.8346528,129.768176 60.1427777,129.703009 59.9400596,129.572674 C59.7373416,129.442339 59.6359841,128.986172 59.6359841,128.204161 L59.6359841,122.808311 Z M64.289662,127.474288 C65.8761511,127.648068 66.9249809,127.734957 67.4361829,127.734957 C67.9473849,127.734957 68.2823054,127.691512 68.4409543,127.604622 C68.5996032,127.517732 68.7185881,127.426499 68.7979125,127.33092 C68.877237,127.235341 68.934526,127.057218 68.9697813,126.796548 C69.0226643,126.431609 69.0491054,125.971099 69.0491054,125.415002 C69.0491054,124.997929 68.2558727,124.198552 66.6693837,123.016846 C66.0700434,122.582395 65.5191874,122.03934 65.0167992,121.387664 C64.514411,120.735988 64.2632207,120.123422 64.2632207,119.549947 C64.2632207,118.976472 64.2720344,118.550717 64.289662,118.272668 C64.3072897,117.99462 64.3822061,117.651409 64.5144135,117.243025 C64.6466209,116.834642 64.8361154,116.534875 65.0829026,116.343717 C65.7703812,115.839754 66.7663288,115.587776 68.0707753,115.587776 L71.1644135,116.213382 C71.0233923,117.221308 70.88678,117.781741 70.7545726,117.894698 C70.6223651,118.007655 70.4196501,118.064133 70.1464215,118.064133 C69.8731928,118.064133 69.5514929,118.038066 69.1813121,117.985932 L68.1500994,117.803464 C67.4273655,117.803464 66.9866807,117.959864 66.8280318,118.272668 C66.7046382,118.515961 66.6429423,118.837449 66.6429423,119.237144 C66.6429423,119.636839 66.8985395,120.062594 67.4097416,120.514423 C67.9209436,120.966251 68.489427,121.400695 69.1152087,121.817768 C69.7409905,122.234841 70.3094739,122.751829 70.8206759,123.368749 C71.331878,123.985669 71.5874751,124.598236 71.5874751,125.206466 C71.5874751,125.814697 71.5786615,126.275208 71.5610338,126.588013 C71.5434061,126.900817 71.4684897,127.309195 71.3362823,127.813158 C71.2040749,128.31712 71.0145804,128.699431 70.7677932,128.960102 C70.5210061,129.220772 70.146424,129.451027 69.6440358,129.650875 C69.1416476,129.850722 68.6216395,129.950644 68.083996,129.950644 C67.5463525,129.950644 67.0880403,129.928922 66.7090457,129.885477 C66.3300511,129.842032 65.8893663,129.776865 65.3869781,129.689975 C64.8845899,129.603085 64.5188216,129.542263 64.289662,129.507507 L64.289662,127.474288 Z M79.9429423,126.822615 L79.6785288,126.040608 L79.6785288,115.770245 C80.8595818,115.770245 81.5514569,115.835411 81.754175,115.965747 C81.956893,116.096082 82.0582505,116.552248 82.0582505,117.334259 L82.0582505,129.768176 C81.0182188,129.768176 80.3660053,129.737765 80.1015905,129.676942 C79.8371756,129.616119 79.6961565,129.41193 79.6785288,129.064369 L77.9862823,129.950644 C76.5936975,129.950644 75.5096129,129.611778 74.733996,128.934035 C74.2404217,128.516962 73.9583834,127.370029 73.8878728,125.493203 C73.8526175,124.919728 73.8349901,123.990017 73.8349901,122.704043 L73.8349901,115.770245 C75.016043,115.770245 75.7035113,115.835411 75.8974155,115.965747 C76.0913197,116.096082 76.1882704,116.552248 76.1882704,117.334259 L76.1882704,122.651909 C76.1882704,124.685138 76.2367457,125.866827 76.3336978,126.197009 C76.4306499,126.527192 76.5320074,126.813925 76.6377734,127.057217 C76.8140499,127.47429 77.1754114,127.700201 77.7218688,127.734957 L79.9429423,126.822615 Z M92.7405567,129.768176 C91.5595037,129.768176 90.8720354,129.703009 90.6781312,129.572674 C90.484227,129.442339 90.3872763,128.986172 90.3872763,128.204161 L90.360835,121.817768 L90.360835,120.801159 C90.360835,120.401464 90.3652418,120.097353 90.3740557,119.888817 C90.3828695,119.68028 90.3784626,119.441336 90.360835,119.171977 C90.3432073,118.902617 90.3123594,118.702773 90.2682903,118.572438 C90.2242211,118.442102 90.1669321,118.307425 90.0964215,118.168401 C89.9730279,117.925108 89.708617,117.803464 89.3031809,117.803464 L86.9499006,118.481203 L87.1878728,119.237144 L87.1878728,129.768176 C86.0068198,129.768176 85.3193515,129.703009 85.1254473,129.572674 C84.9315431,129.442339 84.8345924,128.986172 84.8345924,128.204161 L84.8345924,115.770245 C85.8041135,115.770245 86.4210722,115.796311 86.6854871,115.848445 C86.9499019,115.90058 87.1085484,116.056979 87.1614314,116.31765 L89.1445328,115.587776 C89.9201497,115.587776 90.5106673,115.652943 90.9161034,115.783278 C91.3215395,115.913613 91.682901,116.161247 92.0001988,116.526185 L94.4328032,115.587776 C95.4728349,115.587776 96.1735237,115.661632 96.5348907,115.809345 C96.8962576,115.957058 97.1606685,116.083047 97.3281312,116.187315 C97.4955939,116.291583 97.6454268,116.508806 97.7776342,116.838988 C97.9098416,117.169171 98.0067923,117.464593 98.0684891,117.725263 C98.1301859,117.985933 98.1786612,118.420378 98.2139165,119.028609 C98.2667995,119.932266 98.2932406,121.200843 98.2932406,122.834378 L98.2932406,129.768176 C97.0945599,129.768176 96.398278,129.703009 96.2043738,129.572674 C96.0104695,129.442339 95.9135189,128.986172 95.9135189,128.204161 L95.9135189,122.808311 C95.9135189,120.410143 95.8870778,119.072055 95.8341948,118.794006 C95.7460566,118.290044 95.4992731,117.985933 95.093837,117.881664 C94.9528157,117.846908 94.7765418,117.820842 94.5650099,117.803464 L92.5025845,118.403003 L92.7405567,119.132876 L92.7405567,129.768176 Z M106.146322,115.770245 C106.146322,116.760792 106.053778,117.373359 105.868688,117.607962 C105.683597,117.842565 105.141555,117.959865 104.242545,117.959865 L103.475746,117.959865 L103.713718,118.611538 L103.713718,123.772786 C103.713718,125.249919 103.771007,126.262174 103.885586,126.809582 C104.000166,127.356989 104.242543,127.665445 104.612724,127.734957 L106.622266,127.734957 L106.622266,129.768176 L104.480517,129.89851 C103.599134,129.89851 103.01743,129.811622 102.735388,129.637841 C102.453345,129.464061 102.241816,129.325039 102.100795,129.220771 C101.959774,129.116503 101.836382,128.903625 101.730616,128.582131 C101.62485,128.260638 101.545527,127.999971 101.492644,127.800124 C101.439761,127.600277 101.4001,127.235344 101.373658,126.705314 C101.347217,126.175284 101.333996,125.736495 101.333996,125.388935 L101.333996,118.611538 L101.545527,117.959865 L100.144135,117.959865 L100.144135,115.770245 L101.545527,115.770245 L101.333996,114.805769 L101.333996,113.476357 C102.515049,113.476357 103.206924,113.532834 103.409642,113.645791 C103.61236,113.758749 103.713718,114.171471 103.713718,114.88397 L103.502187,115.770245 L106.146322,115.770245 Z M109.081312,113.958594 C108.764014,113.637101 108.605368,113.263479 108.605368,112.837717 C108.605368,112.411956 108.764014,112.051367 109.081312,111.75594 C109.39861,111.460514 109.768785,111.312803 110.191849,111.312803 C110.614913,111.312803 110.985088,111.460514 111.302386,111.75594 C111.619683,112.051367 111.77833,112.411956 111.77833,112.837717 C111.77833,113.263479 111.619683,113.637101 111.302386,113.958594 C110.985088,114.280088 110.614913,114.440832 110.191849,114.440832 C109.768785,114.440832 109.39861,114.280088 109.081312,113.958594 Z M109.028429,128.308429 L109.028429,115.770245 C110.209482,115.770245 110.896951,115.835411 111.090855,115.965747 C111.284759,116.096082 111.38171,116.552248 111.38171,117.334259 L111.38171,129.872444 C110.200657,129.872444 109.513189,129.807277 109.319284,129.676942 C109.12538,129.546607 109.028429,129.09044 109.028429,128.308429 Z M114.422465,122.834378 L114.422465,121.218229 C114.422465,120.140791 114.448906,119.419614 114.501789,119.054675 C114.554672,118.689737 114.616368,118.329148 114.686879,117.972899 C114.757389,117.616649 114.841119,117.355983 114.938072,117.190891 C115.035024,117.0258 115.158415,116.8303 115.30825,116.604386 C115.458086,116.378472 115.629953,116.222072 115.823857,116.135181 C116.017761,116.048291 116.246917,115.952714 116.511332,115.848445 C116.952023,115.674665 117.595423,115.587776 118.441551,115.587776 C119.287678,115.587776 119.97074,115.687698 120.490755,115.887546 C121.010771,116.087393 121.416201,116.313304 121.707058,116.565285 C121.997914,116.817267 122.205036,117.303844 122.328429,118.025033 C122.451823,118.746221 122.526739,119.384854 122.553181,119.94095 C122.579622,120.497047 122.592843,121.25298 122.592843,122.208772 L122.592843,124.16379 C122.592843,125.275984 122.566402,126.014539 122.513519,126.379477 C122.460636,126.744416 122.39894,127.109349 122.328429,127.474288 C122.257919,127.839226 122.174189,128.104237 122.077237,128.269329 C121.980284,128.43442 121.856893,128.634264 121.707058,128.868867 C121.557223,129.103471 121.380949,129.26856 121.178231,129.364139 C120.975513,129.459718 120.74195,129.55964 120.477535,129.663908 C120.054471,129.855067 119.490395,129.950644 118.785288,129.950644 C118.080182,129.950644 117.53814,129.924578 117.159145,129.872444 C116.780151,129.820309 116.44523,129.707354 116.154374,129.533574 C115.863517,129.359793 115.621141,129.194705 115.427237,129.038302 C115.233332,128.8819 115.070279,128.616889 114.938072,128.243262 C114.805864,127.869634 114.704507,127.55249 114.633996,127.291819 C114.563485,127.031149 114.519417,126.605394 114.501789,126.014541 C114.448906,125.023993 114.422465,123.963949 114.422465,122.834378 Z M118.494433,117.803464 C117.701189,117.803464 117.216436,118.120608 117.040159,118.754906 C116.863882,119.389204 116.775746,120.484003 116.775746,122.039337 C116.775746,123.59467 116.784559,124.602581 116.802187,125.063098 C116.819815,125.523616 116.88151,126.010194 116.987276,126.522845 C117.093042,127.035497 117.264909,127.365675 117.502883,127.513388 C117.740856,127.661101 118.07137,127.734957 118.494433,127.734957 C119.287678,127.734957 119.772431,127.404779 119.948708,126.744414 C120.124984,126.084049 120.213121,124.971872 120.213121,123.40785 C120.213121,121.843827 120.204308,120.835917 120.18668,120.384088 C120.169052,119.932259 120.107356,119.46306 120.00159,118.976475 C119.895825,118.48989 119.723957,118.172746 119.485984,118.025033 C119.248011,117.877319 118.917497,117.803464 118.494433,117.803464 Z M131.054076,122.808311 L131.080517,120.514423 C131.080517,119.819301 131.06289,119.297968 131.027634,118.950408 C130.957124,118.220531 130.54288,117.83822 129.784891,117.803464 L127.352286,118.50727 L127.590258,119.237144 L127.590258,129.768176 C126.409205,129.768176 125.721737,129.703009 125.527833,129.572674 C125.333929,129.442339 125.236978,128.986172 125.236978,128.204161 L125.236978,115.770245 C126.259382,115.770245 126.902782,115.796311 127.167197,115.848445 C127.431612,115.90058 127.572631,116.056979 127.590258,116.31765 L129.546918,115.587776 C130.622206,115.587776 131.327301,115.657287 131.662227,115.796312 C131.997152,115.935336 132.252749,116.05698 132.429026,116.161248 C132.605302,116.265517 132.763949,116.478394 132.90497,116.799888 C133.045991,117.121381 133.142942,117.416803 133.195825,117.686163 C133.248708,117.955522 133.30159,118.385622 133.354473,118.976475 C133.407356,119.827998 133.433797,121.113953 133.433797,122.834378 L133.433797,129.768176 C132.252744,129.768176 131.560869,129.703009 131.358151,129.572674 C131.155433,129.442339 131.054076,128.986172 131.054076,128.204161 L131.054076,122.808311 Z M140.070577,127.734957 C141.269257,127.734957 142.485547,127.648068 143.719483,127.474288 L143.719483,129.507507 C142.080111,129.802933 140.916703,129.950644 140.229225,129.950644 C139.541746,129.950644 138.99089,129.902855 138.57664,129.807276 C138.16239,129.711697 137.805436,129.598742 137.505765,129.468406 C137.206095,129.338071 136.959312,129.116505 136.765408,128.8037 C136.571503,128.490896 136.421671,128.199818 136.315905,127.930459 C136.210139,127.661099 136.130815,127.248377 136.077932,126.69228 C136.007422,125.945025 135.972167,125.149992 135.972167,124.307158 L135.972167,120.827225 C135.972167,119.593385 136.007422,118.824419 136.077932,118.520304 C136.148443,118.216188 136.227766,117.886011 136.315905,117.529761 C136.404043,117.173512 136.518621,116.921534 136.659642,116.773821 C136.800663,116.626108 136.97253,116.45233 137.175249,116.252483 C137.377967,116.052635 137.611529,115.917958 137.875944,115.848445 C138.704444,115.674665 139.444795,115.587776 140.097018,115.587776 C140.749241,115.587776 141.308911,115.687698 141.776044,115.887546 C142.243177,116.087393 142.604538,116.335026 142.860139,116.630453 C143.11574,116.925879 143.314048,117.342946 143.45507,117.881664 C143.684229,118.733188 143.798807,119.845365 143.798807,121.218229 L143.878131,122.990779 L138.113917,123.121114 L138.325447,123.720653 C138.325447,125.441077 138.409177,126.540221 138.57664,127.018117 C138.744103,127.496013 139.242077,127.734957 140.070577,127.734957 Z M141.167893,118.337835 C141.00043,117.981586 140.599407,117.803464 139.964811,117.803464 C139.330216,117.803464 138.920379,117.959864 138.735288,118.272668 C138.550198,118.585473 138.457654,119.263206 138.457654,120.305887 L138.246123,120.879359 L141.70994,120.879359 L141.445527,120.305887 C141.427899,119.350096 141.335355,118.694085 141.167893,118.337835 Z M152.048509,122.808311 L152.07495,120.514423 C152.07495,119.819301 152.057323,119.297968 152.022068,118.950408 C151.951557,118.220531 151.537313,117.83822 150.779324,117.803464 L148.34672,118.50727 L148.584692,119.237144 L148.584692,129.768176 C147.403639,129.768176 146.716171,129.703009 146.522266,129.572674 C146.328362,129.442339 146.231412,128.986172 146.231412,128.204161 L146.231412,115.770245 C147.253816,115.770245 147.897215,115.796311 148.16163,115.848445 C148.426045,115.90058 148.567064,116.056979 148.584692,116.31765 L150.541352,115.587776 C151.616639,115.587776 152.321735,115.657287 152.65666,115.796312 C152.991586,115.935336 153.247183,116.05698 153.423459,116.161248 C153.599736,116.265517 153.758382,116.478394 153.899404,116.799888 C154.040425,117.121381 154.137375,117.416803 154.190258,117.686163 C154.243141,117.955522 154.296024,118.385622 154.348907,118.976475 C154.40179,119.827998 154.428231,121.113953 154.428231,122.834378 L154.428231,129.768176 C153.247178,129.768176 152.555303,129.703009 152.352584,129.572674 C152.149866,129.442339 152.048509,128.986172 152.048509,128.204161 L152.048509,122.808311 Z M156.702187,127.474288 C158.288676,127.648068 159.337506,127.734957 159.848708,127.734957 C160.35991,127.734957 160.69483,127.691512 160.853479,127.604622 C161.012128,127.517732 161.131113,127.426499 161.210437,127.33092 C161.289762,127.235341 161.347051,127.057218 161.382306,126.796548 C161.435189,126.431609 161.46163,125.971099 161.46163,125.415002 C161.46163,124.997929 160.668398,124.198552 159.081909,123.016846 C158.482568,122.582395 157.931712,122.03934 157.429324,121.387664 C156.926936,120.735988 156.675746,120.123422 156.675746,119.549947 C156.675746,118.976472 156.684559,118.550717 156.702187,118.272668 C156.719815,117.99462 156.794731,117.651409 156.926938,117.243025 C157.059146,116.834642 157.24864,116.534875 157.495427,116.343717 C158.182906,115.839754 159.178854,115.587776 160.4833,115.587776 L163.576938,116.213382 C163.435917,117.221308 163.299305,117.781741 163.167097,117.894698 C163.03489,118.007655 162.832175,118.064133 162.558946,118.064133 C162.285718,118.064133 161.964018,118.038066 161.593837,117.985932 L160.562624,117.803464 C159.83989,117.803464 159.399206,117.959864 159.240557,118.272668 C159.117163,118.515961 159.055467,118.837449 159.055467,119.237144 C159.055467,119.636839 159.311064,120.062594 159.822266,120.514423 C160.333468,120.966251 160.901952,121.400695 161.527734,121.817768 C162.153515,122.234841 162.721999,122.751829 163.233201,123.368749 C163.744403,123.985669 164,124.598236 164,125.206466 C164,125.814697 163.991186,126.275208 163.973559,126.588013 C163.955931,126.900817 163.881015,127.309195 163.748807,127.813158 C163.6166,128.31712 163.427105,128.699431 163.180318,128.960102 C162.933531,129.220772 162.558949,129.451027 162.056561,129.650875 C161.554172,129.850722 161.034164,129.950644 160.496521,129.950644 C159.958877,129.950644 159.500565,129.928922 159.121571,129.885477 C158.742576,129.842032 158.301891,129.776865 157.799503,129.689975 C157.297115,129.603085 156.931346,129.542263 156.702187,129.507507 L156.702187,127.474288 Z M31,159.817532 L31,140.892954 C32.1634253,140.892954 32.8420799,140.958121 33.0359841,141.088456 C33.2298883,141.218791 33.326839,141.683647 33.326839,142.483036 L33.326839,146.15847 L34.8604374,145.637132 C35.9886074,145.637132 36.7421784,145.750088 37.121173,145.976002 C37.5001676,146.201916 37.7910195,146.393072 37.9937376,146.549474 C38.1964556,146.705876 38.3639158,146.966543 38.4961233,147.331481 C38.6283307,147.69642 38.7296882,148.017909 38.8001988,148.295957 C38.8707094,148.574005 38.9235916,148.999761 38.9588469,149.573236 C39.0117299,150.424759 39.038171,151.506525 39.038171,152.818566 C39.038171,154.130607 39.0249504,155.069007 38.9985089,155.633792 C38.9720675,156.198578 38.897151,156.841556 38.7737575,157.562744 C38.6503639,158.283932 38.4476489,158.774854 38.1656064,159.035524 C37.4076172,159.678511 36.3323463,160 34.9397614,160 L33.326839,158.931257 C33.3092113,159.348329 33.1814127,159.600307 32.9434394,159.687197 C32.705466,159.774087 32.0576594,159.817532 31,159.817532 Z M36.4336978,156.79377 C36.5835329,156.150783 36.6584493,154.877862 36.6584493,152.974967 C36.6584493,151.072073 36.579126,149.755708 36.4204771,149.02583 C36.2618282,148.295953 35.8475845,147.904954 35.1777336,147.852819 L33.0888668,148.348091 L33.326839,149.077964 L33.326839,156.063896 L33.0888668,156.871971 L35.1512922,157.784313 C35.8563985,157.766935 36.2838627,157.436757 36.4336978,156.79377 Z M46.4153082,149.051897 L46.4417495,148.348091 C46.4417495,148.104798 46.4153084,147.974465 46.3624254,147.957087 C46.3095425,147.939709 46.2478466,147.900609 46.177336,147.839786 C46.1068254,147.778963 46.0142816,147.76593 45.8997018,147.800686 C45.785122,147.835442 45.6485097,147.844131 45.4898608,147.826753 L44.0620278,148.009221 C43.6918471,148.061355 43.374554,148.087422 43.1101392,148.087422 C42.8457243,148.087422 42.6430093,148.026599 42.5019881,147.904953 C42.3609668,147.783307 42.2199477,147.227219 42.0789264,146.236671 L45.1461233,145.637132 C46.3976868,145.637132 47.1821058,145.728365 47.4994036,145.910835 C47.8167014,146.093304 48.0458575,146.245359 48.1868787,146.367006 C48.3279,146.488652 48.4248506,146.73194 48.4777336,147.096879 C48.5658719,147.548708 48.6099404,148.261196 48.6099404,149.234366 L48.6099404,159.817532 C47.5875363,159.817532 46.9441365,159.765398 46.6797217,159.66113 C46.4153068,159.556862 46.2742877,159.304884 46.25666,158.90519 L44.0620278,160 C43.5684535,160 43.2026851,159.995656 42.9647117,159.986967 C42.7267384,159.978278 42.4887686,159.904422 42.2507952,159.765398 C42.0128219,159.626374 41.8541753,159.487351 41.7748509,159.348327 C41.6955264,159.209303 41.62061,158.913881 41.5500994,158.462052 C41.4619611,157.923333 41.4178926,156.819845 41.4178926,155.151555 L41.4178926,153.352938 C41.4178926,151.389221 43.1541907,150.372621 46.626839,150.303109 L46.4153082,149.677503 L46.4153082,149.051897 Z M43.9033797,157.784313 C43.9210074,157.784313 44.8111907,157.454135 46.5739563,156.79377 L46.3095427,156.03783 L46.3095427,152.935867 L46.5210736,152.336328 C45.7983397,152.353706 45.1637536,152.423217 44.6172962,152.544863 C44.0708389,152.66651 43.7976143,152.831598 43.7976143,153.040135 L43.771173,156.480967 C43.771173,157.349868 43.8152414,157.784313 43.9033797,157.784313 Z M53.7395626,159.817532 L53.3693837,159.817532 C52.382235,159.817532 51.8049379,159.752365 51.6374751,159.62203 C51.4700124,159.491695 51.3862823,159.035528 51.3862823,158.253517 L51.3862823,141.049356 C52.5673353,141.049356 53.2548035,141.114522 53.4487078,141.244858 C53.642612,141.375193 53.7395626,141.840048 53.7395626,142.639437 L53.7395626,159.817532 Z M56.6745527,152.232061 L60.905169,159.817532 L58.1817097,159.817532 L54.1361829,152.232061 L57.8644135,145.8196 L60.455666,145.8196 L56.6745527,152.232061 Z M62.3858847,157.523643 C63.9723737,157.697424 65.0212035,157.784313 65.5324056,157.784313 C66.0436076,157.784313 66.378528,157.740868 66.5371769,157.653978 C66.6958258,157.567088 66.8148107,157.475855 66.8941352,157.380275 C66.9734596,157.284696 67.0307487,157.106574 67.066004,156.845904 C67.1188869,156.480965 67.145328,156.020454 67.145328,155.464357 C67.145328,155.047285 66.3520954,154.247908 64.7656064,153.066202 C64.1662661,152.631751 63.6154101,152.088696 63.1130219,151.43702 C62.6106337,150.785344 62.3594433,150.172777 62.3594433,149.599303 C62.3594433,149.025828 62.368257,148.600072 62.3858847,148.322024 C62.4035123,148.043975 62.4784288,147.700765 62.6106362,147.292381 C62.7428436,146.883997 62.9323381,146.584231 63.1791252,146.393072 C63.8666038,145.88911 64.8625515,145.637132 66.166998,145.637132 L69.2606362,146.262738 C69.1196149,147.270664 68.9830026,147.831096 68.8507952,147.944054 C68.7185878,148.057011 68.5158728,148.113489 68.2426441,148.113489 C67.9694155,148.113489 67.6477156,148.087422 67.2775348,148.035288 L66.2463221,147.852819 C65.5235882,147.852819 65.0829034,148.009219 64.9242545,148.322024 C64.8008609,148.565316 64.739165,148.886805 64.739165,149.2865 C64.739165,149.686194 64.9947622,150.11195 65.5059642,150.563778 C66.0171662,151.015607 66.5856496,151.450051 67.2114314,151.867124 C67.8372132,152.284196 68.4056966,152.801185 68.9168986,153.418105 C69.4281006,154.035025 69.6836978,154.647591 69.6836978,155.255822 C69.6836978,155.864053 69.6748841,156.324564 69.6572565,156.637368 C69.6396288,156.950173 69.5647124,157.358551 69.432505,157.862513 C69.3002975,158.366476 69.1108031,158.748787 68.8640159,159.009457 C68.6172287,159.270128 68.2426466,159.500383 67.7402584,159.700231 C67.2378703,159.900078 66.7178622,160 66.1802187,160 C65.6425752,160 65.184263,159.978278 64.8052684,159.934833 C64.4262738,159.891388 63.985589,159.826221 63.4832008,159.739331 C62.9808126,159.652441 62.6150442,159.591619 62.3858847,159.556863 L62.3858847,157.523643 Z M72.5393638,144.00795 C72.222066,143.686457 72.0634195,143.312835 72.0634195,142.887073 C72.0634195,142.461311 72.222066,142.100723 72.5393638,141.805296 C72.8566616,141.50987 73.2268369,141.362159 73.6499006,141.362159 C74.0729643,141.362159 74.4431396,141.50987 74.7604374,141.805296 C75.0777352,142.100723 75.2363817,142.461311 75.2363817,142.887073 C75.2363817,143.312835 75.0777352,143.686457 74.7604374,144.00795 C74.4431396,144.329444 74.0729643,144.490188 73.6499006,144.490188 C73.2268369,144.490188 72.8566616,144.329444 72.5393638,144.00795 Z M72.4864811,158.357785 L72.4864811,145.8196 C73.6675341,145.8196 74.3550023,145.884767 74.5489066,146.015102 C74.7428108,146.145437 74.8397614,146.601604 74.8397614,147.383615 L74.8397614,159.921799 C73.6587085,159.921799 72.9712402,159.856633 72.777336,159.726297 C72.5834318,159.595962 72.4864811,159.139796 72.4864811,158.357785 Z M77.8805169,152.857666 C77.8805169,151.571692 77.8937374,150.641982 77.9201789,150.068507 C77.9466204,149.495032 78.0259437,148.84771 78.1581511,148.126522 C78.2903585,147.405334 78.5062941,146.905723 78.8059642,146.627675 C79.5110705,145.96731 80.595155,145.637132 82.0582505,145.637132 L83.5389662,146.15847 L83.5389662,141.049356 C84.7200192,141.049356 85.4074874,141.114522 85.6013917,141.244858 C85.7952959,141.375193 85.8922465,141.840048 85.8922465,142.639437 L85.8922465,159.817532 C84.8345872,159.817532 84.1823737,159.774087 83.9355865,159.687197 C83.6887993,159.600307 83.5565939,159.348329 83.5389662,158.931257 L81.9260437,160 C80.5334589,160 79.4758154,159.678511 78.7530815,159.035524 C78.2771348,158.601074 77.9950965,157.471519 77.9069583,155.646826 C77.8893306,155.073351 77.8805169,154.14364 77.8805169,152.857666 Z M83.8033797,156.924105 L83.5389662,156.089963 L83.5389662,149.104031 L83.7769384,148.374158 L81.7145129,147.852819 C81.044662,147.904954 80.6304183,148.269887 80.4717694,148.94763 C80.3131205,149.625373 80.2337972,150.97215 80.2337972,152.988001 C80.2337972,155.003852 80.3131205,156.272429 80.4717694,156.79377 C80.6656736,157.436757 81.088731,157.766935 81.7409543,157.784313 L83.8033797,156.924105 Z M93.5337972,149.051897 L93.5602386,148.348091 C93.5602386,148.104798 93.5337975,147.974465 93.4809145,147.957087 C93.4280315,147.939709 93.3663357,147.900609 93.295825,147.839786 C93.2253144,147.778963 93.1327706,147.76593 93.0181909,147.800686 C92.9036111,147.835442 92.7669988,147.844131 92.6083499,147.826753 L91.1805169,148.009221 C90.8103361,148.061355 90.4930431,148.087422 90.2286282,148.087422 C89.9642134,148.087422 89.7614984,148.026599 89.6204771,147.904953 C89.4794559,147.783307 89.3384368,147.227219 89.1974155,146.236671 L92.2646123,145.637132 C93.5161759,145.637132 94.3005948,145.728365 94.6178926,145.910835 C94.9351905,146.093304 95.1643465,146.245359 95.3053678,146.367006 C95.446389,146.488652 95.5433397,146.73194 95.5962227,147.096879 C95.6843609,147.548708 95.7284294,148.261196 95.7284294,149.234366 L95.7284294,159.817532 C94.7060254,159.817532 94.0626256,159.765398 93.7982107,159.66113 C93.5337959,159.556862 93.3927768,159.304884 93.3751491,158.90519 L91.1805169,160 C90.6869425,160 90.3211742,159.995656 90.0832008,159.986967 C89.8452274,159.978278 89.6072577,159.904422 89.3692843,159.765398 C89.1313109,159.626374 88.9726644,159.487351 88.89334,159.348327 C88.8140155,159.209303 88.7390991,158.913881 88.6685885,158.462052 C88.5804502,157.923333 88.5363817,156.819845 88.5363817,155.151555 L88.5363817,153.352938 C88.5363817,151.389221 90.2726798,150.372621 93.745328,150.303109 L93.5337972,149.677503 L93.5337972,149.051897 Z M91.0218688,157.784313 C91.0394964,157.784313 91.9296797,157.454135 93.6924453,156.79377 L93.4280318,156.03783 L93.4280318,152.935867 L93.6395626,152.336328 C92.9168287,152.353706 92.2822426,152.423217 91.7357853,152.544863 C91.189328,152.66651 90.9161034,152.831598 90.9161034,153.040135 L90.889662,156.480967 C90.889662,157.349868 90.9337305,157.784313 91.0218688,157.784313 Z" id="Konsumtionens-baksid" fill="#000000"></path>
                <g id="Group-45" transform="translate(115.000000, 143.000000)">
                    <g id="Group-10">
                        <rect id="Rectangle" fill="#D7DECC" x="0" y="0" width="19" height="7"></rect>
                        <path d="M17.7741566,0.643678161 C17.7584398,0.694666275 17.75,0.748680365 17.75,0.804597701 C17.75,1.11565463 18.0111672,1.36781609 18.3333333,1.36781609 L18.3333333,5.95402299 C18.0111672,5.95402299 17.75,6.20618445 17.75,6.51724138 L1.41075926,6.51724138 C1.41465234,6.49096298 1.41666667,6.46409942 1.41666667,6.43678161 C1.41666667,6.15304249 1.19935785,5.91830839 0.916666667,5.87926692 L0.916666667,1.36211239 C0.943883582,1.36587122 0.971706555,1.36781609 1,1.36781609 C1.3221661,1.36781609 1.58333333,1.11565463 1.58333333,0.804597701 C1.58333333,0.748680365 1.57489354,0.694666275 1.55917678,0.643678161 L17.7741566,0.643678161 Z" id="Combined-Shape" fill="#9EA989"></path>
                    </g>
                    <ellipse id="Oval-5" fill="#D8DECB" cx="10" cy="3.5" rx="2" ry="2.5"></ellipse>
                    <circle id="Oval-6" fill="#758060" opacity="0.565904018" cx="15" cy="3" r="1"></circle>
                    <circle id="Oval-6" fill="#758060" opacity="0.565904018" cx="5" cy="3" r="1"></circle>
                    <g id="Group-10" transform="translate(0.000000, 4.000000)">
                        <rect id="Rectangle" fill="#D7DECC" x="0" y="0" width="19" height="7"></rect>
                        <path d="M17.7741566,0.643678161 C17.7584398,0.694666275 17.75,0.748680365 17.75,0.804597701 C17.75,1.11565463 18.0111672,1.36781609 18.3333333,1.36781609 L18.3333333,5.95402299 C18.0111672,5.95402299 17.75,6.20618445 17.75,6.51724138 L1.41075926,6.51724138 C1.41465234,6.49096298 1.41666667,6.46409942 1.41666667,6.43678161 C1.41666667,6.15304249 1.19935785,5.91830839 0.916666667,5.87926692 L0.916666667,1.36211239 C0.943883582,1.36587122 0.971706555,1.36781609 1,1.36781609 C1.3221661,1.36781609 1.58333333,1.11565463 1.58333333,0.804597701 C1.58333333,0.748680365 1.57489354,0.694666275 1.55917678,0.643678161 L17.7741566,0.643678161 Z" id="Combined-Shape" fill="#9EA989"></path>
                    </g>
                    <circle id="Oval-6" fill="#758060" opacity="0.565904018" cx="15" cy="7" r="1"></circle>
                    <circle id="Oval-6" fill="#758060" opacity="0.565904018" cx="5" cy="7" r="1"></circle>
                    <ellipse id="Oval-5" fill="#D8DECB" cx="10" cy="7.5" rx="2" ry="2.5"></ellipse>
                    <g id="Group-10" transform="translate(0.000000, 7.000000)">
                        <rect id="Rectangle" fill="#D7DECC" x="0" y="0" width="19" height="7"></rect>
                        <path d="M17.7741566,0.643678161 C17.7584398,0.694666275 17.75,0.748680365 17.75,0.804597701 C17.75,1.11565463 18.0111672,1.36781609 18.3333333,1.36781609 L18.3333333,5.95402299 C18.0111672,5.95402299 17.75,6.20618445 17.75,6.51724138 L1.41075926,6.51724138 C1.41465234,6.49096298 1.41666667,6.46409942 1.41666667,6.43678161 C1.41666667,6.15304249 1.19935785,5.91830839 0.916666667,5.87926692 L0.916666667,1.36211239 C0.943883582,1.36587122 0.971706555,1.36781609 1,1.36781609 C1.3221661,1.36781609 1.58333333,1.11565463 1.58333333,0.804597701 C1.58333333,0.748680365 1.57489354,0.694666275 1.55917678,0.643678161 L17.7741566,0.643678161 Z" id="Combined-Shape" fill="#9EA989"></path>
                    </g>
                    <ellipse id="Oval-5" fill="#D8DECB" cx="10" cy="10.5" rx="2" ry="2.5"></ellipse>
                    <circle id="Oval-6" fill="#758060" opacity="0.565904018" cx="15" cy="10" r="1"></circle>
                    <circle id="Oval-6" fill="#758060" opacity="0.565904018" cx="5" cy="10" r="1"></circle>
                    <g id="Group-10" transform="translate(0.000000, 11.000000)">
                        <rect id="Rectangle" fill="#D7DECC" x="0" y="0" width="19" height="7"></rect>
                        <path d="M17.7741566,0.643678161 C17.7584398,0.694666275 17.75,0.748680365 17.75,0.804597701 C17.75,1.11565463 18.0111672,1.36781609 18.3333333,1.36781609 L18.3333333,5.95402299 C18.0111672,5.95402299 17.75,6.20618445 17.75,6.51724138 L1.41075926,6.51724138 C1.41465234,6.49096298 1.41666667,6.46409942 1.41666667,6.43678161 C1.41666667,6.15304249 1.19935785,5.91830839 0.916666667,5.87926692 L0.916666667,1.36211239 C0.943883582,1.36587122 0.971706555,1.36781609 1,1.36781609 C1.3221661,1.36781609 1.58333333,1.11565463 1.58333333,0.804597701 C1.58333333,0.748680365 1.57489354,0.694666275 1.55917678,0.643678161 L17.7741566,0.643678161 Z" id="Combined-Shape" fill="#9EA989"></path>
                    </g>
                    <ellipse id="Oval-5" fill="#D8DECB" cx="10" cy="14.5" rx="2" ry="2.5"></ellipse>
                    <circle id="Oval-6" fill="#758060" opacity="0.565904018" cx="15" cy="14" r="1"></circle>
                    <circle id="Oval-6" fill="#758060" opacity="0.565904018" cx="5" cy="14" r="1"></circle>
                    <g id="Group-10" transform="translate(0.000000, 14.000000)">
                        <rect id="Rectangle" fill="#D7DECC" x="0" y="0" width="19" height="7"></rect>
                        <path d="M17.7741566,0.643678161 C17.7584398,0.694666275 17.75,0.748680365 17.75,0.804597701 C17.75,1.11565463 18.0111672,1.36781609 18.3333333,1.36781609 L18.3333333,5.95402299 C18.0111672,5.95402299 17.75,6.20618445 17.75,6.51724138 L1.41075926,6.51724138 C1.41465234,6.49096298 1.41666667,6.46409942 1.41666667,6.43678161 C1.41666667,6.15304249 1.19935785,5.91830839 0.916666667,5.87926692 L0.916666667,1.36211239 C0.943883582,1.36587122 0.971706555,1.36781609 1,1.36781609 C1.3221661,1.36781609 1.58333333,1.11565463 1.58333333,0.804597701 C1.58333333,0.748680365 1.57489354,0.694666275 1.55917678,0.643678161 L17.7741566,0.643678161 Z" id="Combined-Shape" fill="#9EA989"></path>
                    </g>
                    <ellipse id="Oval-5" fill="#D8DECB" cx="10" cy="17.5" rx="2" ry="2.5"></ellipse>
                    <circle id="Oval-6" fill="#758060" opacity="0.565904018" cx="15" cy="17" r="1"></circle>
                    <circle id="Oval-6" fill="#758060" opacity="0.565904018" cx="5" cy="17" r="1"></circle>
                </g>
                <g id="Group-12" transform="translate(110.048823, 150.531746) rotate(-16.000000) translate(-110.048823, -150.531746) translate(102.048823, 136.031746)">
                    <path d="M5.74022982,10.8234305 C5.32514032,11.9932405 0.794016048,16.625671 0.344066327,20.1819109 C-0.105883394,23.7381508 -0.84122721,25.8954407 3.58176442,27.8831604 C8.00475605,29.8708802 11.9197468,27.7904599 13.7929661,26.2259295 C15.6661854,24.6613991 16.1863538,22.0033403 15.3703062,18.0372591 C14.5542586,14.0711779 11.5771145,13.0352817 10.8043217,11.700788 C10.2891265,10.8111255 9.92938227,9.67381022 9.72508901,8.28884201 C11.2525136,6.83357051 12.0826926,5.79373935 12.215626,5.16934854 C12.4150261,4.23276232 11.1216567,4.24988349 10.8043217,3.21966511 C10.4869867,2.18944674 11.4850325,1.3869204 10.8043217,0.587592491 C10.1236109,-0.21173542 9.44103335,-0.179830515 8.56283841,0.587592491 C7.68464347,1.3550155 8.44619075,2.81436587 7.23455201,3.70708597 C6.02291328,4.59980606 4.82991205,3.50653397 4.32892552,3.70708597 C3.82793899,3.90763796 2.89397207,3.15023977 3.58176442,5.16934854 C4.04029266,6.51542104 4.89814429,7.81520999 6.15531932,9.06871538 C6.15531932,9.45865207 6.01695615,10.0435571 5.74022982,10.8234305 Z" id="Path-26" fill="#AFA195"></path>
                    <path d="M8.83630085,22.3539737 L8.83630085,23.914947 L7.965641,23.914947 L7.965641,22.386127 C7.67119772,22.3706693 7.40705376,22.3320139 7.1732045,22.2701601 C6.86144323,22.1876983 6.56952569,22.0830368 6.29744312,21.9561726 L6.29744312,20.5974631 L6.44028576,20.5974631 C6.71010096,20.8385052 7.01222145,21.0237243 7.34665626,21.1531258 C7.55820205,21.2349784 7.76452948,21.2909428 7.965641,21.3210195 L7.965641,20.0644207 C7.8127349,20.0267732 7.66705891,19.9824429 7.52861057,19.9314291 C7.10234789,19.7766547 6.79569276,19.5666975 6.608636,19.3015512 C6.42157924,19.0364049 6.32805226,18.7071971 6.32805226,18.3139178 C6.32805226,17.7861625 6.53947991,17.3554648 6.96234156,17.0218118 C7.24342815,16.8000244 7.5778597,16.6519519 7.965641,16.5775928 L7.965641,15.1461331 L8.83630085,15.1461331 L8.83630085,16.5277875 C9.08684333,16.5411229 9.335116,16.575128 9.58112315,16.6298032 C9.90648855,16.7021158 10.1882031,16.7928224 10.4262754,16.9019257 L10.4262754,18.2073524 L10.2868338,18.2073524 C10.0827718,18.0246679 9.83279974,17.8717987 9.53690995,17.7487404 C9.30713244,17.6531777 9.0735975,17.5947208 8.83630088,17.5733689 L8.83630085,18.7845452 C8.87059692,18.7926414 8.90460706,18.8006883 8.9383313,18.808686 C9.10951658,18.8492826 9.29373639,18.905102 9.49099625,18.976146 C9.8787139,19.118234 10.1649631,19.311699 10.3497525,19.5565471 C10.534542,19.8013951 10.6269353,20.1191853 10.6269353,20.5099272 C10.6269353,21.06813 10.4155076,21.5216629 9.99264597,21.8705396 C9.68651589,22.1231084 9.30106969,22.2842524 8.83630085,22.3539737 Z M8.83630085,21.2844739 C8.87433765,21.2738821 8.90891458,21.2618153 8.94003181,21.2482735 C9.03979542,21.2026024 9.12198579,21.1455143 9.1866054,21.0770076 C9.25122501,21.0085009 9.28353433,20.9070111 9.28353433,20.7725349 C9.28353433,20.648208 9.23648743,20.5410093 9.14239221,20.4509356 C9.06779403,20.3795258 8.96576426,20.3212732 8.83630085,20.2761768 L8.83630085,21.2844739 Z M7.965641,17.6954996 C7.88945878,17.7332172 7.82313952,17.7864856 7.76668162,17.8553058 C7.70319569,17.932693 7.6714532,18.0208624 7.6714532,18.1198165 C7.6714532,18.2695163 7.72246792,18.3843268 7.82449888,18.4642512 C7.8603494,18.4923342 7.90739669,18.5195556 7.965641,18.5459156 L7.965641,17.6954959 Z" id="Combined-Shape" fill="#4A4A4A"></path>
                </g>
                <g id="Group-20" transform="translate(125.663944, 145.269111)">
                    <g id="Group-19" transform="translate(8.717285, 0.000000)">
                        <g id="Group-17" transform="translate(0.939331, 9.805450)">
                            <path d="M0.0391387711,3.59986609 L0.0391387711,2.86988782 L0.301742718,2.86988782 C0.867148331,1.83796455 2.16650353,1.11606749 3.67904448,1.11606749 C5.19158543,1.11606749 6.49094063,1.83796455 7.05634625,2.86988782 L7.35808897,2.86988782 L7.35808897,4.38455084 L7.33040528,4.38455084 C7.10690016,5.82230839 5.55735161,6.93556224 3.67904448,6.93556224 C1.64716432,6.93556224 0,5.63282397 0,4.02581487 C0,3.8811223 0.0133534251,3.73889644 0.0391387711,3.59986609 Z" id="Combined-Shape" fill="#C2B61D"></path>
                            <ellipse id="Oval-8" fill="#EFE13D" cx="3.67904448" cy="2.90974738" rx="3.67904448" ry="2.90974738"></ellipse>
                        </g>
                        <g id="Group-16" transform="translate(0.939331, 7.892192)">
                            <path d="M0.0391387711,3.59986609 L0.0391387711,2.86988782 L0.301742718,2.86988782 C0.867148331,1.83796455 2.16650353,1.11606749 3.67904448,1.11606749 C5.19158543,1.11606749 6.49094063,1.83796455 7.05634625,2.86988782 L7.35808897,2.86988782 L7.35808897,4.38455084 L7.33040528,4.38455084 C7.10690016,5.82230839 5.55735161,6.93556224 3.67904448,6.93556224 C1.64716432,6.93556224 0,5.63282397 0,4.02581487 C0,3.8811223 0.0133534251,3.73889644 0.0391387711,3.59986609 Z" id="Combined-Shape" fill="#C2B61D"></path>
                            <ellipse id="Oval-8" fill="#EFE13D" cx="3.67904448" cy="2.90974738" rx="3.67904448" ry="2.90974738"></ellipse>
                        </g>
                        <g id="Group-15" transform="translate(2.270049, 6.058652)">
                            <path d="M0.0391387711,3.59986609 L0.0391387711,2.86988782 L0.301742718,2.86988782 C0.867148331,1.83796455 2.16650353,1.11606749 3.67904448,1.11606749 C5.19158543,1.11606749 6.49094063,1.83796455 7.05634625,2.86988782 L7.35808897,2.86988782 L7.35808897,4.38455084 L7.33040528,4.38455084 C7.10690016,5.82230839 5.55735161,6.93556224 3.67904448,6.93556224 C1.64716432,6.93556224 0,5.63282397 0,4.02581487 C0,3.8811223 0.0133534251,3.73889644 0.0391387711,3.59986609 Z" id="Combined-Shape" fill="#C2B61D"></path>
                            <ellipse id="Oval-8" fill="#EFE13D" cx="3.67904448" cy="2.90974738" rx="3.67904448" ry="2.90974738"></ellipse>
                        </g>
                        <g id="Group-14" transform="translate(0.547943, 4.623708)">
                            <path d="M0.0391387711,3.59986609 L0.0391387711,2.86988782 L0.301742718,2.86988782 C0.867148331,1.83796455 2.16650353,1.11606749 3.67904448,1.11606749 C5.19158543,1.11606749 6.49094063,1.83796455 7.05634625,2.86988782 L7.35808897,2.86988782 L7.35808897,4.38455084 L7.33040528,4.38455084 C7.10690016,5.82230839 5.55735161,6.93556224 3.67904448,6.93556224 C1.64716432,6.93556224 0,5.63282397 0,4.02581487 C0,3.8811223 0.0133534251,3.73889644 0.0391387711,3.59986609 Z" id="Combined-Shape" fill="#C2B61D"></path>
                            <ellipse id="Oval-8" fill="#EFE13D" cx="3.67904448" cy="2.90974738" rx="3.67904448" ry="2.90974738"></ellipse>
                        </g>
                        <g id="Group-13" transform="translate(1.252441, 2.869888)">
                            <path d="M0.0391387711,3.59986609 L0.0391387711,2.86988782 L0.301742718,2.86988782 C0.867148331,1.83796455 2.16650353,1.11606749 3.67904448,1.11606749 C5.19158543,1.11606749 6.49094063,1.83796455 7.05634625,2.86988782 L7.35808897,2.86988782 L7.35808897,4.38455084 L7.33040528,4.38455084 C7.10690016,5.82230839 5.55735161,6.93556224 3.67904448,6.93556224 C1.64716432,6.93556224 0,5.63282397 0,4.02581487 C0,3.8811223 0.0133534251,3.73889644 0.0391387711,3.59986609 Z" id="Combined-Shape" fill="#C2B61D"></path>
                            <ellipse id="Oval-8" fill="#EFE13D" cx="3.67904448" cy="2.90974738" rx="3.67904448" ry="2.90974738"></ellipse>
                        </g>
                        <g id="Group-12" transform="translate(0.000000, 1.434944)">
                            <path d="M0.0391387711,3.59986609 L0.0391387711,2.86988782 L0.301742718,2.86988782 C0.867148331,1.83796455 2.16650353,1.11606749 3.67904448,1.11606749 C5.19158543,1.11606749 6.49094063,1.83796455 7.05634625,2.86988782 L7.35808897,2.86988782 L7.35808897,4.38455084 L7.33040528,4.38455084 C7.10690016,5.82230839 5.55735161,6.93556224 3.67904448,6.93556224 C1.64716432,6.93556224 0,5.63282397 0,4.02581487 C0,3.8811223 0.0133534251,3.73889644 0.0391387711,3.59986609 Z" id="Combined-Shape" fill="#C2B61D"></path>
                            <ellipse id="Oval-8" fill="#EFE13D" cx="3.67904448" cy="2.90974738" rx="3.67904448" ry="2.90974738"></ellipse>
                        </g>
                        <g id="Group-12" transform="translate(1.330718, 0.000000)">
                            <path d="M0.0391387711,3.59986609 L0.0391387711,2.86988782 L0.301742718,2.86988782 C0.867148331,1.83796455 2.16650353,1.11606749 3.67904448,1.11606749 C5.19158543,1.11606749 6.49094063,1.83796455 7.05634625,2.86988782 L7.35808897,2.86988782 L7.35808897,4.38455084 L7.33040528,4.38455084 C7.10690016,5.82230839 5.55735161,6.93556224 3.67904448,6.93556224 C1.64716432,6.93556224 0,5.63282397 0,4.02581487 C0,3.8811223 0.0133534251,3.73889644 0.0391387711,3.59986609 Z" id="Combined-Shape" fill="#C2B61D"></path>
                            <ellipse id="Oval-8" fill="#EFE13D" cx="3.67904448" cy="2.90974738" rx="3.67904448" ry="2.90974738"></ellipse>
                        </g>
                    </g>
                    <g id="Group-18" transform="translate(5.578904, 10.891573) scale(-1, 1) translate(-5.578904, -10.891573) translate(0.078904, 2.391573)">
                        <g id="Group-17" transform="translate(0.939331, 9.805450)">
                            <path d="M0.0391387711,3.59986609 L0.0391387711,2.86988782 L0.301742718,2.86988782 C0.867148331,1.83796455 2.16650353,1.11606749 3.67904448,1.11606749 C5.19158543,1.11606749 6.49094063,1.83796455 7.05634625,2.86988782 L7.35808897,2.86988782 L7.35808897,4.38455084 L7.33040528,4.38455084 C7.10690016,5.82230839 5.55735161,6.93556224 3.67904448,6.93556224 C1.64716432,6.93556224 0,5.63282397 0,4.02581487 C0,3.8811223 0.0133534251,3.73889644 0.0391387711,3.59986609 Z" id="Combined-Shape" fill="#C2B61D"></path>
                            <ellipse id="Oval-8" fill="#EFE13D" cx="3.67904448" cy="2.90974738" rx="3.67904448" ry="2.90974738"></ellipse>
                        </g>
                        <g id="Group-16" transform="translate(0.939331, 7.892192)">
                            <path d="M0.0391387711,3.59986609 L0.0391387711,2.86988782 L0.301742718,2.86988782 C0.867148331,1.83796455 2.16650353,1.11606749 3.67904448,1.11606749 C5.19158543,1.11606749 6.49094063,1.83796455 7.05634625,2.86988782 L7.35808897,2.86988782 L7.35808897,4.38455084 L7.33040528,4.38455084 C7.10690016,5.82230839 5.55735161,6.93556224 3.67904448,6.93556224 C1.64716432,6.93556224 0,5.63282397 0,4.02581487 C0,3.8811223 0.0133534251,3.73889644 0.0391387711,3.59986609 Z" id="Combined-Shape" fill="#C2B61D"></path>
                            <ellipse id="Oval-8" fill="#EFE13D" cx="3.67904448" cy="2.90974738" rx="3.67904448" ry="2.90974738"></ellipse>
                        </g>
                        <g id="Group-15" transform="translate(2.270049, 6.058652)">
                            <path d="M0.0391387711,3.59986609 L0.0391387711,2.86988782 L0.301742718,2.86988782 C0.867148331,1.83796455 2.16650353,1.11606749 3.67904448,1.11606749 C5.19158543,1.11606749 6.49094063,1.83796455 7.05634625,2.86988782 L7.35808897,2.86988782 L7.35808897,4.38455084 L7.33040528,4.38455084 C7.10690016,5.82230839 5.55735161,6.93556224 3.67904448,6.93556224 C1.64716432,6.93556224 0,5.63282397 0,4.02581487 C0,3.8811223 0.0133534251,3.73889644 0.0391387711,3.59986609 Z" id="Combined-Shape" fill="#C2B61D"></path>
                            <ellipse id="Oval-8" fill="#EFE13D" cx="3.67904448" cy="2.90974738" rx="3.67904448" ry="2.90974738"></ellipse>
                        </g>
                        <g id="Group-14" transform="translate(0.547943, 4.623708)">
                            <path d="M0.0391387711,3.59986609 L0.0391387711,2.86988782 L0.301742718,2.86988782 C0.867148331,1.83796455 2.16650353,1.11606749 3.67904448,1.11606749 C5.19158543,1.11606749 6.49094063,1.83796455 7.05634625,2.86988782 L7.35808897,2.86988782 L7.35808897,4.38455084 L7.33040528,4.38455084 C7.10690016,5.82230839 5.55735161,6.93556224 3.67904448,6.93556224 C1.64716432,6.93556224 0,5.63282397 0,4.02581487 C0,3.8811223 0.0133534251,3.73889644 0.0391387711,3.59986609 Z" id="Combined-Shape" fill="#C2B61D"></path>
                            <ellipse id="Oval-8" fill="#EFE13D" cx="3.67904448" cy="2.90974738" rx="3.67904448" ry="2.90974738"></ellipse>
                        </g>
                        <g id="Group-13" transform="translate(1.252441, 2.869888)">
                            <path d="M0.0391387711,3.59986609 L0.0391387711,2.86988782 L0.301742718,2.86988782 C0.867148331,1.83796455 2.16650353,1.11606749 3.67904448,1.11606749 C5.19158543,1.11606749 6.49094063,1.83796455 7.05634625,2.86988782 L7.35808897,2.86988782 L7.35808897,4.38455084 L7.33040528,4.38455084 C7.10690016,5.82230839 5.55735161,6.93556224 3.67904448,6.93556224 C1.64716432,6.93556224 0,5.63282397 0,4.02581487 C0,3.8811223 0.0133534251,3.73889644 0.0391387711,3.59986609 Z" id="Combined-Shape" fill="#C2B61D"></path>
                            <ellipse id="Oval-8" fill="#EFE13D" cx="3.67904448" cy="2.90974738" rx="3.67904448" ry="2.90974738"></ellipse>
                        </g>
                        <g id="Group-12" transform="translate(0.000000, 1.434944)">
                            <path d="M0.0391387711,3.59986609 L0.0391387711,2.86988782 L0.301742718,2.86988782 C0.867148331,1.83796455 2.16650353,1.11606749 3.67904448,1.11606749 C5.19158543,1.11606749 6.49094063,1.83796455 7.05634625,2.86988782 L7.35808897,2.86988782 L7.35808897,4.38455084 L7.33040528,4.38455084 C7.10690016,5.82230839 5.55735161,6.93556224 3.67904448,6.93556224 C1.64716432,6.93556224 0,5.63282397 0,4.02581487 C0,3.8811223 0.0133534251,3.73889644 0.0391387711,3.59986609 Z" id="Combined-Shape" fill="#C2B61D"></path>
                            <ellipse id="Oval-8" fill="#EFE13D" cx="3.67904448" cy="2.90974738" rx="3.67904448" ry="2.90974738"></ellipse>
                        </g>
                        <g id="Group-12" transform="translate(1.330718, 0.000000)">
                            <path d="M0.0391387711,3.59986609 L0.0391387711,2.86988782 L0.301742718,2.86988782 C0.867148331,1.83796455 2.16650353,1.11606749 3.67904448,1.11606749 C5.19158543,1.11606749 6.49094063,1.83796455 7.05634625,2.86988782 L7.35808897,2.86988782 L7.35808897,4.38455084 L7.33040528,4.38455084 C7.10690016,5.82230839 5.55735161,6.93556224 3.67904448,6.93556224 C1.64716432,6.93556224 0,5.63282397 0,4.02581487 C0,3.8811223 0.0133534251,3.73889644 0.0391387711,3.59986609 Z" id="Combined-Shape" fill="#C2B61D"></path>
                            <ellipse id="Oval-8" fill="#EFE13D" cx="3.67904448" cy="2.90974738" rx="3.67904448" ry="2.90974738"></ellipse>
                        </g>
                    </g>
                    <g id="Group-18" transform="translate(6.718992, 6.254884)">
                        <g id="Group-17" transform="translate(0.939331, 9.805450)">
                            <path d="M0.0391387711,3.59986609 L0.0391387711,2.86988782 L0.301742718,2.86988782 C0.867148331,1.83796455 2.16650353,1.11606749 3.67904448,1.11606749 C5.19158543,1.11606749 6.49094063,1.83796455 7.05634625,2.86988782 L7.35808897,2.86988782 L7.35808897,4.38455084 L7.33040528,4.38455084 C7.10690016,5.82230839 5.55735161,6.93556224 3.67904448,6.93556224 C1.64716432,6.93556224 0,5.63282397 0,4.02581487 C0,3.8811223 0.0133534251,3.73889644 0.0391387711,3.59986609 Z" id="Combined-Shape" fill="#C2B61D"></path>
                            <ellipse id="Oval-8" fill="#EFE13D" cx="3.67904448" cy="2.90974738" rx="3.67904448" ry="2.90974738"></ellipse>
                        </g>
                        <g id="Group-16" transform="translate(0.939331, 7.892192)">
                            <path d="M0.0391387711,3.59986609 L0.0391387711,2.86988782 L0.301742718,2.86988782 C0.867148331,1.83796455 2.16650353,1.11606749 3.67904448,1.11606749 C5.19158543,1.11606749 6.49094063,1.83796455 7.05634625,2.86988782 L7.35808897,2.86988782 L7.35808897,4.38455084 L7.33040528,4.38455084 C7.10690016,5.82230839 5.55735161,6.93556224 3.67904448,6.93556224 C1.64716432,6.93556224 0,5.63282397 0,4.02581487 C0,3.8811223 0.0133534251,3.73889644 0.0391387711,3.59986609 Z" id="Combined-Shape" fill="#C2B61D"></path>
                            <ellipse id="Oval-8" fill="#EFE13D" cx="3.67904448" cy="2.90974738" rx="3.67904448" ry="2.90974738"></ellipse>
                        </g>
                        <g id="Group-15" transform="translate(2.270049, 6.058652)">
                            <path d="M0.0391387711,3.59986609 L0.0391387711,2.86988782 L0.301742718,2.86988782 C0.867148331,1.83796455 2.16650353,1.11606749 3.67904448,1.11606749 C5.19158543,1.11606749 6.49094063,1.83796455 7.05634625,2.86988782 L7.35808897,2.86988782 L7.35808897,4.38455084 L7.33040528,4.38455084 C7.10690016,5.82230839 5.55735161,6.93556224 3.67904448,6.93556224 C1.64716432,6.93556224 0,5.63282397 0,4.02581487 C0,3.8811223 0.0133534251,3.73889644 0.0391387711,3.59986609 Z" id="Combined-Shape" fill="#C2B61D"></path>
                            <ellipse id="Oval-8" fill="#EFE13D" cx="3.67904448" cy="2.90974738" rx="3.67904448" ry="2.90974738"></ellipse>
                        </g>
                        <g id="Group-14" transform="translate(0.547943, 4.623708)">
                            <path d="M0.0391387711,3.59986609 L0.0391387711,2.86988782 L0.301742718,2.86988782 C0.867148331,1.83796455 2.16650353,1.11606749 3.67904448,1.11606749 C5.19158543,1.11606749 6.49094063,1.83796455 7.05634625,2.86988782 L7.35808897,2.86988782 L7.35808897,4.38455084 L7.33040528,4.38455084 C7.10690016,5.82230839 5.55735161,6.93556224 3.67904448,6.93556224 C1.64716432,6.93556224 0,5.63282397 0,4.02581487 C0,3.8811223 0.0133534251,3.73889644 0.0391387711,3.59986609 Z" id="Combined-Shape" fill="#C2B61D"></path>
                            <ellipse id="Oval-8" fill="#EFE13D" cx="3.67904448" cy="2.90974738" rx="3.67904448" ry="2.90974738"></ellipse>
                        </g>
                        <g id="Group-13" transform="translate(1.252441, 2.869888)">
                            <path d="M0.0391387711,3.59986609 L0.0391387711,2.86988782 L0.301742718,2.86988782 C0.867148331,1.83796455 2.16650353,1.11606749 3.67904448,1.11606749 C5.19158543,1.11606749 6.49094063,1.83796455 7.05634625,2.86988782 L7.35808897,2.86988782 L7.35808897,4.38455084 L7.33040528,4.38455084 C7.10690016,5.82230839 5.55735161,6.93556224 3.67904448,6.93556224 C1.64716432,6.93556224 0,5.63282397 0,4.02581487 C0,3.8811223 0.0133534251,3.73889644 0.0391387711,3.59986609 Z" id="Combined-Shape" fill="#C2B61D"></path>
                            <ellipse id="Oval-8" fill="#EFE13D" cx="3.67904448" cy="2.90974738" rx="3.67904448" ry="2.90974738"></ellipse>
                        </g>
                        <g id="Group-12" transform="translate(0.000000, 1.434944)">
                            <path d="M0.0391387711,3.59986609 L0.0391387711,2.86988782 L0.301742718,2.86988782 C0.867148331,1.83796455 2.16650353,1.11606749 3.67904448,1.11606749 C5.19158543,1.11606749 6.49094063,1.83796455 7.05634625,2.86988782 L7.35808897,2.86988782 L7.35808897,4.38455084 L7.33040528,4.38455084 C7.10690016,5.82230839 5.55735161,6.93556224 3.67904448,6.93556224 C1.64716432,6.93556224 0,5.63282397 0,4.02581487 C0,3.8811223 0.0133534251,3.73889644 0.0391387711,3.59986609 Z" id="Combined-Shape" fill="#C2B61D"></path>
                            <ellipse id="Oval-8" fill="#EFE13D" cx="3.67904448" cy="2.90974738" rx="3.67904448" ry="2.90974738"></ellipse>
                        </g>
                        <g id="Group-12" transform="translate(1.330718, 0.000000)">
                            <path d="M0.0391387711,3.59986609 L0.0391387711,2.86988782 L0.301742718,2.86988782 C0.867148331,1.83796455 2.16650353,1.11606749 3.67904448,1.11606749 C5.19158543,1.11606749 6.49094063,1.83796455 7.05634625,2.86988782 L7.35808897,2.86988782 L7.35808897,4.38455084 L7.33040528,4.38455084 C7.10690016,5.82230839 5.55735161,6.93556224 3.67904448,6.93556224 C1.64716432,6.93556224 0,5.63282397 0,4.02581487 C0,3.8811223 0.0133534251,3.73889644 0.0391387711,3.59986609 Z" id="Combined-Shape" fill="#C2B61D"></path>
                            <ellipse id="Oval-8" fill="#EFE13D" cx="3.67904448" cy="2.90974738" rx="3.67904448" ry="2.90974738"></ellipse>
                        </g>
                    </g>
                    <g id="Group-18" transform="translate(19.566953, 12.363311) scale(-1, 1) translate(-19.566953, -12.363311) translate(14.066953, 3.863311)">
                        <g id="Group-17" transform="translate(0.939331, 9.805450)">
                            <path d="M0.0391387711,3.59986609 L0.0391387711,2.86988782 L0.301742718,2.86988782 C0.867148331,1.83796455 2.16650353,1.11606749 3.67904448,1.11606749 C5.19158543,1.11606749 6.49094063,1.83796455 7.05634625,2.86988782 L7.35808897,2.86988782 L7.35808897,4.38455084 L7.33040528,4.38455084 C7.10690016,5.82230839 5.55735161,6.93556224 3.67904448,6.93556224 C1.64716432,6.93556224 0,5.63282397 0,4.02581487 C0,3.8811223 0.0133534251,3.73889644 0.0391387711,3.59986609 Z" id="Combined-Shape" fill="#C2B61D"></path>
                            <ellipse id="Oval-8" fill="#EFE13D" cx="3.67904448" cy="2.90974738" rx="3.67904448" ry="2.90974738"></ellipse>
                        </g>
                        <g id="Group-16" transform="translate(0.939331, 7.892192)">
                            <path d="M0.0391387711,3.59986609 L0.0391387711,2.86988782 L0.301742718,2.86988782 C0.867148331,1.83796455 2.16650353,1.11606749 3.67904448,1.11606749 C5.19158543,1.11606749 6.49094063,1.83796455 7.05634625,2.86988782 L7.35808897,2.86988782 L7.35808897,4.38455084 L7.33040528,4.38455084 C7.10690016,5.82230839 5.55735161,6.93556224 3.67904448,6.93556224 C1.64716432,6.93556224 0,5.63282397 0,4.02581487 C0,3.8811223 0.0133534251,3.73889644 0.0391387711,3.59986609 Z" id="Combined-Shape" fill="#C2B61D"></path>
                            <ellipse id="Oval-8" fill="#EFE13D" cx="3.67904448" cy="2.90974738" rx="3.67904448" ry="2.90974738"></ellipse>
                        </g>
                        <g id="Group-15" transform="translate(2.270049, 6.058652)">
                            <path d="M0.0391387711,3.59986609 L0.0391387711,2.86988782 L0.301742718,2.86988782 C0.867148331,1.83796455 2.16650353,1.11606749 3.67904448,1.11606749 C5.19158543,1.11606749 6.49094063,1.83796455 7.05634625,2.86988782 L7.35808897,2.86988782 L7.35808897,4.38455084 L7.33040528,4.38455084 C7.10690016,5.82230839 5.55735161,6.93556224 3.67904448,6.93556224 C1.64716432,6.93556224 0,5.63282397 0,4.02581487 C0,3.8811223 0.0133534251,3.73889644 0.0391387711,3.59986609 Z" id="Combined-Shape" fill="#C2B61D"></path>
                            <ellipse id="Oval-8" fill="#EFE13D" cx="3.67904448" cy="2.90974738" rx="3.67904448" ry="2.90974738"></ellipse>
                        </g>
                        <g id="Group-14" transform="translate(0.547943, 4.623708)">
                            <path d="M0.0391387711,3.59986609 L0.0391387711,2.86988782 L0.301742718,2.86988782 C0.867148331,1.83796455 2.16650353,1.11606749 3.67904448,1.11606749 C5.19158543,1.11606749 6.49094063,1.83796455 7.05634625,2.86988782 L7.35808897,2.86988782 L7.35808897,4.38455084 L7.33040528,4.38455084 C7.10690016,5.82230839 5.55735161,6.93556224 3.67904448,6.93556224 C1.64716432,6.93556224 0,5.63282397 0,4.02581487 C0,3.8811223 0.0133534251,3.73889644 0.0391387711,3.59986609 Z" id="Combined-Shape" fill="#C2B61D"></path>
                            <ellipse id="Oval-8" fill="#EFE13D" cx="3.67904448" cy="2.90974738" rx="3.67904448" ry="2.90974738"></ellipse>
                        </g>
                        <g id="Group-13" transform="translate(1.252441, 2.869888)">
                            <path d="M0.0391387711,3.59986609 L0.0391387711,2.86988782 L0.301742718,2.86988782 C0.867148331,1.83796455 2.16650353,1.11606749 3.67904448,1.11606749 C5.19158543,1.11606749 6.49094063,1.83796455 7.05634625,2.86988782 L7.35808897,2.86988782 L7.35808897,4.38455084 L7.33040528,4.38455084 C7.10690016,5.82230839 5.55735161,6.93556224 3.67904448,6.93556224 C1.64716432,6.93556224 0,5.63282397 0,4.02581487 C0,3.8811223 0.0133534251,3.73889644 0.0391387711,3.59986609 Z" id="Combined-Shape" fill="#C2B61D"></path>
                            <ellipse id="Oval-8" fill="#EFE13D" cx="3.67904448" cy="2.90974738" rx="3.67904448" ry="2.90974738"></ellipse>
                        </g>
                        <g id="Group-12" transform="translate(0.000000, 1.434944)">
                            <path d="M0.0391387711,3.59986609 L0.0391387711,2.86988782 L0.301742718,2.86988782 C0.867148331,1.83796455 2.16650353,1.11606749 3.67904448,1.11606749 C5.19158543,1.11606749 6.49094063,1.83796455 7.05634625,2.86988782 L7.35808897,2.86988782 L7.35808897,4.38455084 L7.33040528,4.38455084 C7.10690016,5.82230839 5.55735161,6.93556224 3.67904448,6.93556224 C1.64716432,6.93556224 0,5.63282397 0,4.02581487 C0,3.8811223 0.0133534251,3.73889644 0.0391387711,3.59986609 Z" id="Combined-Shape" fill="#C2B61D"></path>
                            <ellipse id="Oval-8" fill="#EFE13D" cx="3.67904448" cy="2.90974738" rx="3.67904448" ry="2.90974738"></ellipse>
                        </g>
                        <g id="Group-12" transform="translate(1.330718, 0.000000)">
                            <path d="M0.0391387711,3.59986609 L0.0391387711,2.86988782 L0.301742718,2.86988782 C0.867148331,1.83796455 2.16650353,1.11606749 3.67904448,1.11606749 C5.19158543,1.11606749 6.49094063,1.83796455 7.05634625,2.86988782 L7.35808897,2.86988782 L7.35808897,4.38455084 L7.33040528,4.38455084 C7.10690016,5.82230839 5.55735161,6.93556224 3.67904448,6.93556224 C1.64716432,6.93556224 0,5.63282397 0,4.02581487 C0,3.8811223 0.0133534251,3.73889644 0.0391387711,3.59986609 Z" id="Combined-Shape" fill="#C2B61D"></path>
                            <ellipse id="Oval-8" fill="#EFE13D" cx="3.67904448" cy="2.90974738" rx="3.67904448" ry="2.90974738"></ellipse>
                        </g>
                    </g>
                </g>
            </g>
        </g>
    </g>
</svg>