<?xml version="1.0" encoding="UTF-8"?>
<svg width="213px" height="285px" viewBox="0 0 213 285" version="1.1" xmlns="http://www.w3.org/2000/svg" xmlns:xlink="http://www.w3.org/1999/xlink">
    <!-- Generator: Sketch 50.2 (55047) - http://www.bohemiancoding.com/sketch -->
    <title>Group 19</title>
    <desc>Created with Sketch.</desc>
    <defs></defs>
    <g id="Page-1" stroke="none" stroke-width="1" fill="none" fill-rule="evenodd">
        <g id="Group-19" transform="translate(6.000000, 6.000000)" fill-rule="nonzero">
            <rect id="Rectangle-2" stroke="#000000" stroke-width="11" fill="#FFFFFF" x="0" y="0" width="201" height="273"></rect>
            <rect id="Rectangle-13" fill="#EFEFEF" x="16" y="22" width="170" height="230"></rect>
            <circle id="Oval-3" fill="#4A90E2" cx="101.5" cy="136.5" r="69.5"></circle>
            <path d="M107.336941,138.063875 C107.465809,138.259133 108.284651,138.28218 108.42873,138.063875 C108.572809,137.84557 108.155783,137.236749 107.882835,137.236749 C107.609888,137.236749 107.208073,137.868617 107.336941,138.063875 Z" id="Path-55" fill="#417505"></path>
            <path d="M78.5892107,123.156655 C79.0329671,123.156655 82.6104096,121.816153 83.0267742,120.78848 C83.4431387,119.760808 81.3544821,119.685294 80.8079925,117.680251 C80.2615029,115.675208 81.3400045,113.357671 80.8079925,112.64788 C80.2759805,111.938089 78.3413815,114.276 78.5892107,114.720033 C78.83704,115.164066 79.8205693,114.174246 79.3288047,117.680251 C78.83704,121.186257 77.9138588,120.889091 77.8496168,121.676546 C77.7853749,122.464 78.1454544,123.156655 78.5892107,123.156655 Z" id="Path-56" fill="#417505"></path>
            <path d="M73.9186586,120.079966 C74.5228254,118.269903 76.1593322,116.673027 76.5993855,116.361742 C77.0394389,116.050457 78.1061748,115.714407 77.4929612,117.551574 C76.8797475,119.388741 75.4396985,120.931292 74.9611635,121.269798 C74.4826286,121.608304 73.3144917,121.890029 73.9186586,120.079966 Z" id="Path-57" fill="#417505"></path>
            <path d="M64.3377194,79.6420176 C64.6752968,78.8153186 65.4132375,78.2102113 65.9906569,77.9072001 C66.5680762,77.6041888 67.9666006,77.1161847 67.6435944,77.9072001 C67.3205882,78.6982155 65.4166404,79.9432431 65.0890546,80.1151496 C64.7614689,80.2870562 64.0001421,80.4687166 64.3377194,79.6420176 Z" id="Path-67" fill="#417505"></path>
            <path d="M68.0602515,77.2663216 C67.8310118,76.9744033 68.6075687,76.1684334 69.0661014,76.1684334 C69.5246342,76.1684334 70.1783332,76.9933643 69.9282585,77.2663216 C69.6781837,77.539279 68.2894912,77.55824 68.0602515,77.2663216 Z" id="Path-68" fill="#417505"></path>
            <path d="M35.2744405,115.445496 C37.5511513,108.035401 40.7379547,101.351072 44.8348508,95.3925073 C50.9801949,86.4546603 51.498506,85.7888104 60.0717547,79.3800463 C65.7872538,75.1075369 71.1649846,72.5635011 76.204947,71.7479388 C73.3833158,73.8744576 71.1923884,75.4208324 69.6321649,76.387063 C67.2918297,77.8364089 67.8834079,77.5387213 66.0470111,78.4821513 C64.2106142,79.4255813 64.757856,78.6867577 63.8062899,79.3800463 C62.8547238,80.0733348 63.361391,80.2078182 62.76062,80.876538 C62.1598491,81.5452578 60.8909732,82.243397 61.1174245,82.3730297 C61.3438758,82.5026623 63.6935382,80.8196932 63.5075271,81.3254855 C63.321516,81.8312778 61.1873218,83.6641877 60.0717547,85.2163639 C58.9561875,86.76854 60.7410271,85.5064193 61.1174245,85.2163639 C61.4938219,84.9263084 61.3723186,84.2285529 62.013713,83.7198722 C62.6551074,83.2111915 62.8593765,82.0737313 64.1050527,82.0737313 C65.3507289,82.0737313 64.8210057,83.9005308 64.4038156,84.3184689 C63.9866254,84.7364068 64.4689341,84.9965215 63.8062899,85.9646097 C63.1436458,86.9326979 62.7412445,86.8449722 62.013713,88.059698 C61.2861815,89.2744239 61.2899084,90.0531002 61.1174245,90.3044356 C60.9449406,90.5557709 60.2214466,90.198197 59.474229,91.6512781 C58.7270114,93.1043591 59.9808466,92.917216 59.474229,93.8960156 C58.9676114,94.8748151 57.9377549,95.6307331 57.3828893,95.3925073 C56.8280237,95.1542815 57.6515117,92.818718 57.3828893,92.9981206 C57.2038077,93.1177223 56.6560758,94.0156173 55.7396937,95.6918056 C54.9811288,96.3719714 54.3836032,96.5715036 53.9471169,96.2904022 C53.2923873,95.8687503 54.2901848,94.8020433 53.9471169,94.9435597 C53.6040489,95.0850762 52.3343069,95.9727478 51.4076328,97.3379464 C50.4809588,98.7031451 51.0839272,98.3605031 51.4076328,98.684789 C51.7313385,99.0090748 52.8575887,98.2090836 52.7520656,98.684789 C52.6465424,99.1604943 51.270093,100.559007 50.5113444,102.725316 C49.7525959,104.891626 50.4996916,105.135058 49.7644373,107.214792 C49.029183,109.294525 48.5407972,108.412341 47.9718604,109.908477 C47.4029237,111.404612 47.9210019,111.811478 47.3743348,113.500057 C46.8276676,115.188635 46.6897129,115.445496 46.1792835,115.445496 C45.6688542,115.445496 45.7063038,114.506257 45.4323765,113.500057 C45.1584491,112.493856 44.3657268,111.66391 44.8348508,110.507073 C45.3039748,109.350237 46.8919558,109.355608 47.3743348,108.711283 C47.8567138,108.066958 46.5924348,109.076482 46.1792835,108.711283 C45.7661322,108.346084 45.2368971,106.600801 44.8348508,106.466546 C44.4328046,106.33229 45.1050209,107.450373 44.8348508,108.262336 C44.5646807,109.074299 44.0085728,109.309188 43.4904181,110.507073 C42.9722635,111.704958 43.4737193,112.259461 42.8928924,112.751811 C42.3120656,113.244161 41.7485203,112.63422 41.5484598,112.153214 C41.3483993,111.672208 42.2684627,111.283212 42.1459854,110.956021 C42.023508,110.628829 41.548354,110.7316 41.1003155,110.956021 C40.652277,111.180442 40.3933503,112.153214 39.7558828,112.153214 C39.1184153,112.153214 39.1035028,110.631554 38.710213,110.956021 C38.3169231,111.280487 38.2523981,112.894577 37.2163989,114.248302 C36.5257327,115.150786 35.8784133,115.54985 35.2744405,115.445496 Z M46.4780463,97.4875956 C46.4780463,98.8162508 48.6629979,97.1927872 50.0632002,96.1407531 C51.4634024,95.0887191 51.8941188,93.1206395 53.648354,92.1002256 C55.4025893,91.0798116 54.3405547,93.7252916 54.6940239,93.4470681 C55.047493,93.1688445 54.9165137,91.6321641 55.7396937,90.4540847 C56.5628738,89.2760054 56.310029,90.5969407 56.7853636,90.4540847 C57.2606983,90.3112288 58.0158759,90.2161168 58.727322,89.5561897 C59.438768,88.8962626 60.8186617,87.2194511 60.8186617,86.7128555 C60.8186617,86.20626 59.6180166,87.9100489 58.727322,87.9100489 C57.8366274,87.9100489 58.2750924,86.4681854 57.8310335,86.7128555 C57.3869746,86.9575257 56.8548066,88.9178402 55.7396937,89.5561897 C54.6245809,90.1945392 54.5093715,89.0107434 54.6940239,88.5086456 C54.8786763,88.0065477 56.4266344,87.5856166 56.7853636,86.7128555 C57.1440928,85.8400945 56.1708656,85.6190539 55.7396937,85.9646097 C55.3085219,86.3101654 52.6371904,88.8977658 50.0632002,92.1002256 C47.4892099,95.3026853 46.4780463,96.1589405 46.4780463,97.4875956 Z" id="Combined-Shape" fill="#417505"></path>
            <path d="M109.327826,67.3821273 C111.173539,67.7422312 118.153127,67.8313032 128.773403,72.4727877 C139.39368,77.1142721 148.667725,84.6005373 152.706422,89.2420218 C156.745118,93.8835062 160.247853,98.9741666 164.373768,106.759882 C168.499683,114.545598 169.609116,122.331314 170.357023,128.470052 C171.104929,134.608789 168.935259,124.380243 167.215814,122.331314 C165.496368,120.282385 164.411119,119.474496 163.326698,120.384885 C162.242278,121.295275 162.934911,123.301188 162.578792,126.224172 C162.222673,129.147156 161.588272,129.6025 161.830885,132.66236 C162.073498,135.72222 163.197271,133.998604 163.326698,135.656866 C163.456126,137.315129 163.494834,139.723238 162.578792,142.24478 C161.662749,144.766321 161.595333,142.686495 160.933397,142.24478 C160.271462,141.803065 159.878626,141.340587 159.437583,140.148625 C158.99654,138.956663 159.881698,138.855935 159.437583,138.202196 C158.993468,137.548458 157.76901,137.589522 156.8947,136.405493 C156.020389,135.221463 157.171848,135.452052 156.8947,134.758514 C156.617551,134.064977 156.074537,132.903896 155.398887,132.66236 C154.723236,132.420824 155.299035,134.009888 154.800561,134.009888 C154.302086,134.009888 153.420532,133.061476 151.958515,132.66236 C150.496497,132.263244 150.8133,132.962309 149.864376,132.66236 C148.915452,132.362411 149.534422,131.600304 149.116469,131.764008 C148.698516,131.927712 147.461225,132.683275 146.424004,134.009888 C145.386784,135.336501 146.805434,134.98144 146.424004,135.20769 C146.042574,135.43394 142.630101,135.588731 142.385308,136.405493 C142.140515,137.222255 144.620596,136.777237 145.526516,138.202196 C146.432436,139.627155 145.620308,139.781717 145.526516,141.346428 C145.432724,142.911139 146.022295,144.147757 145.077772,145.688462 C144.133249,147.229166 142.99422,146.480343 141.487819,147.934341 C139.981419,149.388339 140.845,149.520977 140.291169,150.180221 C139.737337,150.839465 138.39164,152.081576 135.953309,154.522255 C133.514977,156.962932 133.887372,156.112772 133.260844,157.367035 C132.634316,158.621297 133.83749,158.096192 134.307914,157.816211 C134.62153,157.629557 136.217065,156.631388 139.094518,154.821705 C140.343189,153.777026 141.140956,153.527484 141.487819,154.073079 C142.008114,154.891471 141.130774,155.706634 140.889494,157.367035 C140.648214,159.027435 141.313993,160.260353 140.291169,162.30797 C139.268344,164.355588 137.289516,166.414343 134.307914,170.542862 C131.326311,174.671381 132.140402,172.535415 131.316287,174.735171 C130.492172,176.934926 131.8364,175.567208 132.064193,176.531874 C132.291986,177.496541 134.285034,180.515855 133.260844,182.970062 C132.236655,185.42427 127.576752,187.312096 127.128009,188.360174 C126.679264,189.40825 127.495574,189.762397 127.128009,190.755778 C126.760443,191.74916 126.065813,191.404475 125.632195,192.402757 C125.198577,193.401037 126.059488,193.686216 125.632195,194.19946 C125.204903,194.712704 124.478634,194.544523 123.388474,195.097812 C122.298315,195.651101 119.326685,198.403055 115.011918,199.589571 C110.697151,200.776087 112.299067,199.65669 109.77657,198.840945 C107.254073,198.0252 107.283996,198.032529 105.289129,196.44534 C103.294263,194.858151 104.829027,194.997744 103.942897,194.19946 C103.056767,193.401176 101.787038,193.764786 100.801689,192.402757 C99.8163391,191.040726 100.389,190.871365 100.801689,189.857426 C101.214377,188.843488 102.037075,189.367527 102.447083,188.360174 C102.857092,187.35282 103.131495,186.642636 102.447083,185.814843 C101.762672,184.98705 97.6749648,183.346036 95.2671781,179.676106 C92.8593913,176.006175 96.0808472,177.593875 95.8655035,175.783248 C95.6501598,173.97262 95.4838917,173.580753 94.5192713,173.387643 C93.5546508,173.194533 92.4451009,174.91684 90.6301558,174.735171 C88.8152107,174.553501 89.7394142,173.046861 88.5360167,172.788741 C87.3326193,172.530623 86.448932,173.240049 84.3477386,173.387643 C82.2465451,173.535237 82.1788088,173.387643 80.009879,173.387643 C77.8409493,173.387643 75.7180499,174.347576 71.9324854,173.387643 C68.1469209,172.42771 69.9446572,172.338736 68.7912767,170.542862 C67.6378962,168.746989 68.8303404,168.317869 67.8937885,167.09918 C66.9572367,165.880491 65.7031994,166.304387 64.3038359,164.703576 C62.9044722,163.102763 64.0134298,163.502306 63.7055104,162.30797 C63.3975909,161.113635 63.107185,161.185031 63.107185,160.062091 C63.107185,158.939151 63.5896785,158.975644 63.7055104,157.816211 C63.8213423,156.656777 63.2350343,155.790583 63.7055104,154.073079 C64.1759865,152.355574 64.4686061,150.671042 66.2483936,148.533242 C68.028181,146.395442 69.4284545,147.326778 71.1845785,145.08956 C72.9407026,142.852342 70.6580589,143.015049 71.1845785,142.24478 C71.7110982,141.47451 72.2551796,142.669681 73.1291363,142.24478 C74.0030929,141.819878 74.6538851,140.450739 76.4199263,139.699449 C78.1859675,138.94816 77.7776753,139.887618 79.1123908,139.699449 C80.4471063,139.51128 83.0868308,139.024467 87.0402031,138.202196 C90.9935754,137.379926 89.0044364,136.897024 90.6301558,137.303845 C92.2558752,137.710665 92.0716783,138.270407 93.0234576,139.699449 C93.9752369,141.128492 93.0962963,141.683478 93.9209458,142.24478 C94.7455953,142.806081 95.3933782,141.902047 96.7629917,142.24478 C98.1326052,142.587512 98.2852692,143.315588 99.9042004,143.742033 C101.523132,144.168477 101.511452,144.393533 102.447083,143.742033 C103.382715,143.090532 102.416573,141.509391 103.344572,141.346428 C104.27257,141.183464 107.981594,142.24478 110.973221,141.795604 C113.964849,141.346428 116.058988,141.346428 117.255639,139.699449 C118.452289,138.052471 118.664849,134.771594 117.255639,134.009888 C115.846428,133.248182 113.177975,135.887692 109.77657,135.656866 C106.375166,135.426041 108.632969,134.62794 108.430338,133.410987 C108.227707,132.194033 109.542236,131.287504 109.028664,131.165107 C108.515091,131.04271 105.889465,131.374688 105.289129,132.66236 C104.688794,133.950032 106.934524,134.698698 106.934524,135.656866 C106.934524,136.615035 105.289129,135.296595 105.289129,135.656866 C105.289129,136.017138 106.934524,136.840627 106.934524,137.303845 C106.934524,137.767062 106.082891,137.502476 105.289129,137.303845 C104.495368,137.105213 104.045483,137.217855 103.344572,136.405493 C102.64366,135.59313 103.164739,134.685978 102.447083,134.009888 C101.729428,133.333797 101.486299,134.372677 100.801689,134.009888 C100.117078,133.647098 100.145835,133.428272 99.9042004,132.66236 C99.6625661,131.896448 100.323039,131.544421 99.9042004,131.165107 C99.4853617,130.785793 98.2619986,130.651162 96.7629917,129.817579 C95.2639849,128.983996 96.3947203,129.086509 95.8655035,128.919227 C95.3362868,128.751946 93.9209458,128.444877 93.9209458,128.919227 C93.9209458,129.393578 94.7505127,130.319604 95.8655035,131.165107 C96.9804944,132.01061 96.883205,131.393963 98.2588053,132.362909 C99.6344057,133.331856 99.3058749,133.312567 99.3058749,133.710437 C99.3058749,133.975684 98.9568517,134.025895 98.2588053,133.861072 C98.557968,135.657169 98.3086658,136.50531 97.5108985,136.405493 C96.3142476,136.255767 97.733369,134.709742 97.0621544,134.009888 C96.39094,133.310033 95.4472393,133.46948 93.9209458,132.66236 C92.3946523,131.85524 91.6214433,130.206563 89.1343421,129.817579 C86.6472411,129.428596 86.3888762,129.834715 84.3477386,131.165107 C82.3066009,132.495499 83.5078172,132.572662 82.7023436,134.009888 C81.8968699,135.447114 82.2324963,136.437621 80.9073672,137.303845 C79.5822381,138.170068 75.3728567,138.801098 75.3728567,138.801098 C75.3728567,138.801098 71.9324854,137.303845 71.9324854,135.656866 C71.9324854,134.009888 72.2316014,131.202566 73.5778804,130.416481 C74.9241594,129.630395 76.4709704,130.564786 79.1123908,129.817579 C81.7538112,129.070373 80.1143611,128.864685 80.009879,127.87115 C79.9053969,126.877615 77.9244556,125.242797 78.5140653,124.128018 C79.1036752,123.013239 80.8205129,123.975878 82.7023436,122.78049 C84.5841742,121.585102 84.3777718,120.746916 86.2922963,119.187083 C88.2068208,117.627249 88.1474235,118.844091 89.1343421,117.540104 C90.1212609,116.236118 89.3181368,114.666371 90.0318304,114.246148 C90.7455239,113.825924 91.5042073,115.090337 91.6772254,116.042851 C91.8502433,116.995366 90.1401315,117.364927 90.6301558,117.540104 C91.1201802,117.715281 93.3205301,118.003272 95.8655035,117.540104 C98.410477,117.076937 98.0199721,117.341696 98.8571308,116.042851 C99.6942895,114.744007 98.3065717,113.78884 98.8571308,112.89862 C99.4076899,112.008399 100.314251,113.49912 100.801689,112.89862 C101.289126,112.298119 101.265468,111.324338 100.801689,110.503015 C100.337909,109.681692 99.7806665,110.085227 98.8571308,109.454938 C97.9335951,108.824648 97.5108985,108.999058 97.5108985,108.257135 C97.5108985,107.515213 98.379873,107.135443 98.8571308,105.861531 C99.3343886,104.587619 99.1041037,104.367075 98.8571308,104.663728 C98.6101579,104.960381 96.6061439,105.768307 95.8655035,108.257135 C95.1248632,110.745964 96.5403706,110.512362 96.7629917,111.700817 C96.9856128,112.889273 97.3964323,113.51065 96.7629917,114.246148 C96.1295512,114.981646 94.7247971,116.383447 93.0234576,116.042851 C91.322118,115.702256 91.7292337,113.790614 90.0318304,112.89862 C88.3344271,112.006626 87.8154777,113.791044 87.0402031,112.89862 C86.2649284,112.006196 86.5843378,110.86948 87.0402031,109.454938 C87.4960685,108.040395 87.781053,108.842186 88.5360167,108.257135 C89.2909805,107.672085 90.6468637,107.433116 91.6772254,105.861531 C92.707587,104.289945 91.8786698,105.070523 92.2755508,104.364278 C92.6724319,103.658032 92.4931995,103.886117 93.0234576,103.465926 C93.5537158,103.045734 93.925772,101.642762 95.2671781,100.621145 C96.6085842,99.5995277 97.5909134,98.7768527 99.9042004,98.22554 C102.217487,97.6742274 100.667829,99.0220517 101.549595,99.1238919 C102.431362,99.225732 104.794817,98.5458133 107.682431,99.1238919 C110.570046,99.7019705 109.405906,100.149138 109.028664,100.621145 C108.651421,101.093152 105.692448,101.266127 105.289129,102.118398 C104.88581,102.970668 106.629629,103.909638 107.682431,103.465926 C108.735234,103.022214 109.926152,101.818947 110.524477,100.47142 C111.122803,99.1238919 109.527994,98.5365595 109.77657,98.22554 C110.025147,97.9145205 111.174013,98.8900852 112.169872,98.22554 C113.165732,97.5609949 114.245261,96.2758736 116.058988,94.0332315 C117.872714,91.7905894 116.421535,92.5472011 117.255639,91.9370772 C118.089742,91.3269533 119.948103,92.1168257 119.948103,91.1884508 C119.948103,90.2600757 117.093674,88.6926992 117.255639,88.0442194 C117.417603,87.3957394 119.905126,88.7928458 120.546429,88.7928458 C121.187732,88.7928458 119.042478,87.9586447 119.200196,87.2955928 C119.357914,86.632541 121.051932,86.1824151 121.294335,85.6486144 C121.536739,85.1148139 120.385537,85.9405181 119.948103,85.6486144 C119.510669,85.3567108 120.061439,85.1731048 119.948103,84.7502627 C119.834767,84.3274206 118.588021,82.0230495 118.302708,79.509877 C118.017395,76.9967044 119.200196,78.8628248 119.200196,78.1623493 C119.200196,77.4618736 118.302708,77.3498816 118.302708,76.5153709 C118.302708,75.6808602 118.540816,74.7186672 119.200196,74.7186672 C119.859576,74.7186672 121.786273,76.5153709 122.191823,76.5153709 C122.597374,76.5153709 121.096363,75.7695527 120.546429,74.7186672 C119.996494,73.6677818 120.546429,74.0449034 120.546429,73.3711395 C120.546429,72.6973756 121.100191,71.9235763 120.546429,71.4247105 C119.992666,70.9258448 118.361267,70.1287279 116.058988,69.3285563 C113.756709,68.5283846 107.482113,67.0220235 109.327826,67.3821273 Z M109.327826,124.427468 C108.879082,124.876644 109.77657,128.433384 109.77657,129.667854 C109.77657,130.902324 112.782565,128.283658 115.161499,127.721425 C117.540434,127.159192 118.497268,127.157425 119.499359,126.823073 C120.50145,126.488721 121.144754,125.774996 120.845592,125.32582 C120.546429,124.876644 117.787401,124.778358 116.806894,123.828567 C115.826387,122.878776 117.498208,120.960517 116.806894,121.133512 C116.115581,121.306506 114.501832,124.038842 114.413593,124.427468 C114.325353,124.816094 116.058988,123.842337 116.058988,124.427468 C116.058988,125.012599 115.526041,125.78038 115.011918,126.074447 C114.497795,126.368514 113.265277,126.432871 112.917779,126.224172 C112.570281,126.015473 113.531751,126.145238 112.917779,125.32582 C112.303807,124.506402 111.867372,124.014889 111.122803,123.828567 C110.378233,123.642246 109.77657,123.978292 109.327826,124.427468 Z M126.380101,117.390379 C125.704966,118.637982 124.439034,117.998014 125.333032,120.23516 C126.22703,122.472306 128.654408,123.491805 129.072566,124.128018 C129.490725,124.764231 128.234415,124.987062 129.072566,125.924721 C129.910718,126.862381 130.762874,126.972798 131.61545,126.972798 C132.468024,126.972798 133.027464,126.820206 133.260844,125.924721 C133.494224,125.029237 133.900897,125.116882 132.512938,123.529116 C131.124979,121.941351 130.052807,121.946493 129.072566,121.133512 C128.092325,120.32053 127.686369,120.210014 127.27759,119.187083 C126.86881,118.164151 127.43599,116.958857 127.27759,116.641752 C127.11919,116.324647 127.055237,116.142776 126.380101,117.390379 Z M133.410426,136.255767 C134.726641,137.802377 136.633278,138.986564 137.897867,139.250273 C139.162456,139.513983 140.105875,138.237943 140.590331,137.75302 C141.074788,137.268098 140.805728,136.770822 140.590331,136.555218 C140.374934,136.339614 140.315668,136.145051 139.39368,136.555218 C138.471693,136.965385 139.590913,138.215205 137.897867,137.75302 C136.20482,137.290836 135.070546,135.412237 134.457495,135.20769 C133.844445,135.003143 132.09421,134.709158 133.410426,136.255767 Z M118.751452,144.340934 C119.050615,144.954471 121.888672,147.968778 122.640568,148.533242 C123.392462,149.097706 123.935633,147.797602 124.734707,148.832693 C125.53378,149.867783 124.619007,150.796929 125.183451,151.827199 C125.747894,152.857469 126.651225,153.13457 127.27759,153.474177 C127.903955,153.813785 128.036139,153.363642 128.773403,153.773628 C129.510668,154.183614 129.235792,154.677443 129.970054,154.97143 C130.704318,155.265418 131.528769,155.365579 131.76503,154.97143 C132.001293,154.577282 131.165787,154.257822 130.867542,153.474177 C130.569298,152.690533 130.867542,152.4261 130.56838,151.827199 C130.269217,151.228298 126.662707,149.268261 125.258241,148.233792 C123.853776,147.199323 123.267855,146.805631 122.640568,145.987912 C122.01328,145.170194 122.341405,144.340934 122.042242,144.041483 C121.74308,143.742033 119.361038,143.727397 119.200196,143.742033 C119.039354,143.756669 118.452289,143.727397 118.751452,144.340934 Z" id="Combined-Shape" fill="#417505"></path>
            <path d="M88.9872472,134.362668 C88.8524688,134.98775 89.8883962,136.302155 90.4026222,136.061661 C90.9168482,135.821167 91.3260594,133.864826 90.9687722,133.435945 C90.611485,133.007063 89.1220256,133.737587 88.9872472,134.362668 Z" id="Path-52" fill="#417505"></path>
            <path d="M89.7965282,131.650493 C89.5925389,131.860073 89.5575399,132.48881 89.7965282,132.48881 C90.0355165,132.48881 90.6124853,131.824114 90.6124853,131.650493 C90.6124853,131.476872 90.0005174,131.440914 89.7965282,131.650493 Z" id="Path-53" fill="#417505"></path>
            <path d="M93.6327488,136.129475 C93.3716694,136.354089 92.8793541,136.792733 93.6327488,137.479026 C94.3861435,138.165319 95.5831093,138.418898 96.1019179,138.378727 C96.6207264,138.338556 96.4310662,137.804301 96.5376536,137.254101 C96.644241,136.703901 97.1473819,136.286845 96.5376536,136.129475 C95.9279252,135.972105 95.0109695,136.729276 94.5042202,136.729276 C93.997471,136.729276 93.8938282,135.904862 93.6327488,136.129475 Z" id="Path-54" fill="#417505"></path>
            <path d="M70.1835723,105.619321 C70.8069712,106.537171 70.8622222,107.275618 72.3312018,107.275618 C73.8001815,107.275618 75.1802704,106.258958 75.552646,105.619321 C75.9250216,104.979684 75.7251143,104.54915 74.172027,104.113596 C72.6189399,103.678042 70.9625674,103.819509 70.1835723,104.113596 C69.4045772,104.407683 69.5601734,104.701471 70.1835723,105.619321 Z" id="Path-58" fill="#417505"></path>
            <path d="M90.7762073,92.0691522 C90.7762073,93.0025732 92.2968645,94.0141343 93.3827634,94.0141343 C94.4686624,94.0141343 95.0746304,92.5215889 95.3760122,92.0691522 C95.677394,91.6167156 95.0956431,91.2612366 95.3760122,91.0218542 C95.6563813,90.7824718 96.2495105,91.3664198 96.6026268,91.0218542 C96.9557432,90.6772887 96.8628179,90.0788327 96.6026268,89.8249422 C96.3424359,89.5710518 95.9730506,89.4664307 95.3760122,89.8249422 C94.7789738,90.1834536 95.0550225,90.8880532 94.609378,91.0218542 C94.1637336,91.1556552 94.7255448,90.0565238 93.3827634,90.4233982 C92.039982,90.7902727 90.7762073,91.1357313 90.7762073,92.0691522 Z" id="Path-59" fill="#417505"></path>
            <path d="M110.919336,89.5398296 C110.919336,91.3856589 110.790192,92.3051108 111.804507,93.4153481 C112.818822,94.5255853 114.271011,93.829109 114.460018,93.4153481 C114.649024,93.0015871 112.96321,92.0763893 112.689677,91.4775888 C112.416144,90.8787882 112.399308,90.37806 112.689677,89.5398296 C112.980046,88.7015991 113.529016,88.9708779 113.722376,88.4964206 C113.915735,88.0219635 113.506694,87.8339283 113.722376,87.0058367 C113.938058,86.1777449 115.1737,85.6643109 114.460018,85.6643109 C113.746336,85.6643109 112.421298,86.3307168 111.804507,87.0058367 C111.187716,87.6809564 110.919336,87.6940001 110.919336,89.5398296 Z" id="Path-60" fill="#417505"></path>
            <path d="M113.404932,78.8708227 C113.891991,79.3046289 114.251911,79.6730929 115.034313,79.5964386 C115.816715,79.5197842 116.820786,78.9843534 116.367443,78.5805762 C115.914099,78.1767992 113.884604,78.0982118 113.404932,78.1452067 C112.925261,78.1922017 112.917873,78.4370164 113.404932,78.8708227 Z" id="Path-61" fill="#417505"></path>
            <path d="M115.855501,77.5243041 C115.664137,77.8193927 116.440361,78.6242639 116.85415,78.6242639 C117.267939,78.6242639 117.807146,77.7882945 117.56747,77.5243041 C117.327794,77.2603138 116.046865,77.2292155 115.855501,77.5243041 Z" id="Path-62" fill="#417505"></path>
            <path d="M115.54935,75.8933456 C115.123427,76.1425044 114.971465,76.5271973 115.54935,76.780738 C116.127235,77.0342786 117.066298,77.0765354 117.571947,76.780738 C118.077597,76.4849405 118.08526,75.8227584 117.571947,75.5975481 C117.058635,75.3723379 115.975273,75.6441868 115.54935,75.8933456 Z" id="Path-63" fill="#417505"></path>
            <path d="M58.0108858,98.9140508 C56.8540617,101.49171 57.0447933,104.394875 58.0108858,104.792952 C58.9769783,105.191029 61.0003276,101.035998 62.0350544,100.572202 C63.0697813,100.108407 63.3662426,101.853501 64.5687902,101.853501 C65.7713379,101.853501 64.4872024,100.987931 66.9534828,100.572202 C69.4197632,100.156473 70.6768146,101.138524 72.1699977,100.572202 C73.6631807,100.00588 73.1110879,98.9014393 74.1075604,97.8588633 C75.1040329,96.8162873 75.0865181,97.7468954 76.4922529,96.0499706 C77.8979877,94.3530458 77.0558069,93.8572813 78.7279021,92.2814441 C80.3999974,90.7056069 82.7221874,90.5606412 83.0501574,89.8695872 C83.3781273,89.1785332 81.0164545,89.1078929 80.5164215,88.5129177 C80.0163885,87.9179424 81.2317766,87.3229155 80.5164215,86.854766 C79.8010665,86.3866165 80.0496296,87.5353903 77.9826857,86.854766 C75.9157419,86.1741418 75.7367173,85.2057513 74.1075604,84.7443912 C72.4784035,84.283031 71.5760062,84.9793676 70.5305216,84.7443912 C69.4850369,84.5094147 69.909759,82.8495116 68.7420022,83.5384627 C67.5742453,84.2274137 67.2329728,86.0774133 66.9534828,86.854766 C66.6739928,87.6321187 67.7630692,86.9776515 66.9534828,88.5129177 C66.1438963,90.0481839 64.95155,90.651148 64.5687902,91.3769978 C64.1860305,92.1028475 64.996216,92.6388793 64.5687902,93.0351494 C64.1413644,93.4314196 63.161967,92.7938718 62.7802709,93.0351494 C62.3985747,93.276427 64.7991765,91.6771377 62.7802709,94.1657073 C60.7613652,96.654277 59.1677098,96.336391 58.0108858,98.9140508 Z" id="Path-64" fill="#417505"></path>
            <path d="M69.6805436,79.0578906 C69.8108197,78.3428941 71.3830624,77.6917149 72.0879736,77.556443 C72.7928848,77.4211712 73.0043776,76.3700992 73.5926173,78.3071668 C74.1808571,80.2442345 74.2924837,81.7591186 73.5926173,82.5112199 C72.8927509,83.2633211 70.524661,82.6598654 69.6805436,82.5112199 C69.1177986,82.4121229 68.6162507,82.4121229 68.1758999,82.5112199 C67.3213771,81.9106409 66.7195196,81.6103514 66.3703274,81.6103514 C65.8465391,81.6103514 66.1249579,82.8683085 65.6180055,82.5112199 C65.1110531,82.1541313 65.1051418,81.7296438 65.6180055,80.8596276 C66.1308692,79.9896115 66.7722398,79.4911936 67.423578,79.0578906 C68.0749161,78.6245876 68.7904286,78.0092493 68.9282217,78.3071668 C69.0660149,78.6050843 67.1293585,79.5584798 67.8749711,80.0338315 C68.6205837,80.5091831 71.2721642,80.2308043 71.6365805,80.0338315 C72.0009968,79.8368586 69.5502675,79.772887 69.6805436,79.0578906 Z" id="Path-66" fill="#417505"></path>
            <path d="M70.6383982,76.3437931 C70.6383982,76.0790082 71.8936959,75.7273909 72.2889488,75.8765703 C72.6842018,76.0257498 72.7306876,76.8417134 72.2889488,76.9667568 C71.8472102,77.0918001 70.6383982,76.6085781 70.6383982,76.3437931 Z" id="Path-69" fill="#417505"></path>
        </g>
    </g>
</svg>