<?xml version="1.0" encoding="UTF-8"?>
<svg width="213px" height="285px" viewBox="0 0 213 285" version="1.1" xmlns="http://www.w3.org/2000/svg" xmlns:xlink="http://www.w3.org/1999/xlink">
    <!-- Generator: Sketch 50.2 (55047) - http://www.bohemiancoding.com/sketch -->
    <title>Group 19</title>
    <desc>Created with Sketch.</desc>
    <defs></defs>
    <g id="Page-1" stroke="none" stroke-width="1" fill="none" fill-rule="evenodd">
        <g id="Group-19" transform="translate(6.000000, 6.000000)" fill-rule="nonzero">
            <rect id="Rectangle-2" stroke="#000000" stroke-width="11" fill="#FFFFFF" x="0" y="0" width="201" height="273"></rect>
            <rect id="Rectangle-13" fill="#D3D3D3" x="16" y="22" width="170" height="230"></rect>
            <circle id="Oval-3" fill="#9B9B9B" cx="101.5" cy="136.5" r="69.5"></circle>
            <path d="M107.336941,138.063875 C107.465809,138.259133 108.284651,138.28218 108.42873,138.063875 C108.572809,137.84557 108.155783,137.236749 107.882835,137.236749 C107.609888,137.236749 107.208073,137.868617 107.336941,138.063875 Z" id="Path-55" fill="#417505"></path>
            <path d="M78.5892107,123.156655 C79.0329671,123.156655 82.6104096,121.816153 83.0267742,120.78848 C83.4431387,119.760808 81.3544821,119.685294 80.8079925,117.680251 C80.2615029,115.675208 81.3400045,113.357671 80.8079925,112.64788 C80.2759805,111.938089 78.3413815,114.276 78.5892107,114.720033 C78.83704,115.164066 79.8205693,114.174246 79.3288047,117.680251 C78.83704,121.186257 77.9138588,120.889091 77.8496168,121.676546 C77.7853749,122.464 78.1454544,123.156655 78.5892107,123.156655 Z" id="Path-56" fill="#417505"></path>
            <path d="M73.9186586,120.079966 C74.5228254,118.269903 76.1593322,116.673027 76.5993855,116.361742 C77.0394389,116.050457 78.1061748,115.714407 77.4929612,117.551574 C76.8797475,119.388741 75.4396985,120.931292 74.9611635,121.269798 C74.4826286,121.608304 73.3144917,121.890029 73.9186586,120.079966 Z" id="Path-57" fill="#417505"></path>
            <path d="M64.3377194,79.6420176 C64.6752968,78.8153186 65.4132375,78.2102113 65.9906569,77.9072001 C66.5680762,77.6041888 67.9666006,77.1161847 67.6435944,77.9072001 C67.3205882,78.6982155 65.4166404,79.9432431 65.0890546,80.1151496 C64.7614689,80.2870562 64.0001421,80.4687166 64.3377194,79.6420176 Z" id="Path-67" fill="#417505"></path>
            <path d="M68.0602515,77.2663216 C67.8310118,76.9744033 68.6075687,76.1684334 69.0661014,76.1684334 C69.5246342,76.1684334 70.1783332,76.9933643 69.9282585,77.2663216 C69.6781837,77.539279 68.2894912,77.55824 68.0602515,77.2663216 Z" id="Path-68" fill="#417505"></path>
            <g id="Group-14" transform="translate(35.000000, 67.000000)" fill="#417505">
                <path d="M0.274440519,48.4454958 C2.55115128,41.0354014 5.7379547,34.3510718 9.83485078,28.3925073 C15.9801949,19.4546603 16.498506,18.7888104 25.0717547,12.3800463 C30.7872538,8.10753694 36.1649846,5.56350109 41.204947,4.74793875 C38.3833158,6.87445762 36.1923884,8.42083236 34.6321649,9.38706296 C32.2918297,10.8364089 32.8834079,10.5387213 31.0470111,11.4821513 C29.2106142,12.4255813 29.757856,11.6867577 28.8062899,12.3800463 C27.8547238,13.0733348 28.361391,13.2078182 27.76062,13.876538 C27.1598491,14.5452578 25.8909732,15.243397 26.1174245,15.3730297 C26.3438758,15.5026623 28.6935382,13.8196932 28.5075271,14.3254855 C28.321516,14.8312778 26.1873218,16.6641877 25.0717547,18.2163639 C23.9561875,19.76854 25.7410271,18.5064193 26.1174245,18.2163639 C26.4938219,17.9263084 26.3723186,17.2285529 27.013713,16.7198722 C27.6551074,16.2111915 27.8593765,15.0737313 29.1050527,15.0737313 C30.3507289,15.0737313 29.8210057,16.9005308 29.4038156,17.3184689 C28.9866254,17.7364068 29.4689341,17.9965215 28.8062899,18.9646097 C28.1436458,19.9326979 27.7412445,19.8449722 27.013713,21.059698 C26.2861815,22.2744239 26.2899084,23.0531002 26.1174245,23.3044356 C25.9449406,23.5557709 25.2214466,23.198197 24.474229,24.6512781 C23.7270114,26.1043591 24.9808466,25.917216 24.474229,26.8960156 C23.9676114,27.8748151 22.9377549,28.6307331 22.3828893,28.3925073 C21.8280237,28.1542815 22.6515117,25.818718 22.3828893,25.9981206 C22.2038077,26.1177223 21.6560758,27.0156173 20.7396937,28.6918056 C19.9811288,29.3719714 19.3836032,29.5715036 18.9471169,29.2904022 C18.2923873,28.8687503 19.2901848,27.8020433 18.9471169,27.9435597 C18.6040489,28.0850762 17.3343069,28.9727478 16.4076328,30.3379464 C15.4809588,31.7031451 16.0839272,31.3605031 16.4076328,31.684789 C16.7313385,32.0090748 17.8575887,31.2090836 17.7520656,31.684789 C17.6465424,32.1604943 16.270093,33.559007 15.5113444,35.7253165 C14.7525959,37.8916259 15.4996916,38.1350583 14.7644373,40.2147916 C14.029183,42.2945247 13.5407972,41.4123406 12.9718604,42.9084766 C12.4029237,44.4046124 12.9210019,44.8114783 12.3743348,46.5000566 C11.8276676,48.1886348 11.6897129,48.4454958 11.1792835,48.4454958 C10.6688542,48.4454958 10.7063038,47.5062571 10.4323765,46.5000566 C10.1584491,45.4938559 9.36572683,44.6639099 9.83485078,43.5070732 C10.3039748,42.3502366 11.8919558,42.355608 12.3743348,41.7112832 C12.8567138,41.0669584 11.5924348,42.0764818 11.1792835,41.7112832 C10.7661322,41.3460845 10.2368971,39.6008013 9.83485078,39.4665456 C9.43280456,39.33229 10.1050209,40.4503727 9.83485078,41.2623357 C9.56468068,42.0742987 9.0085728,42.3091884 8.49041813,43.5070732 C7.97226346,44.704958 8.47371933,45.2594609 7.89289245,45.7518107 C7.31206556,46.2441605 6.74852031,45.6342199 6.54845979,45.1532141 C6.34839928,44.6722082 7.26846275,44.2832124 7.14598539,43.9560207 C7.02350803,43.628829 6.54835401,43.7315999 6.10031549,43.9560207 C5.652277,44.1804415 5.39335032,45.1532141 4.75588284,45.1532141 C4.11841535,45.1532141 4.10350281,43.6315544 3.71021296,43.9560207 C3.31692311,44.280487 3.25239808,45.8945769 2.21639885,47.2483024 C1.52573271,48.150786 0.878413266,48.5498505 0.274440519,48.4454958 Z M11.4780463,30.4875956 C11.4780463,31.8162508 13.6629979,30.1927872 15.0632002,29.1407531 C16.4634024,28.0887191 16.8941188,26.1206395 18.648354,25.1002256 C20.4025893,24.0798116 19.3405547,26.7252916 19.6940239,26.4470681 C20.047493,26.1688445 19.9165137,24.6321641 20.7396937,23.4540847 C21.5628738,22.2760054 21.310029,23.5969407 21.7853636,23.4540847 C22.2606983,23.3112288 23.0158759,23.2161168 23.727322,22.5561897 C24.438768,21.8962626 25.8186617,20.2194511 25.8186617,19.7128555 C25.8186617,19.20626 24.6180166,20.9100489 23.727322,20.9100489 C22.8366274,20.9100489 23.2750924,19.4681854 22.8310335,19.7128555 C22.3869746,19.9575257 21.8548066,21.9178402 20.7396937,22.5561897 C19.6245809,23.1945392 19.5093715,22.0107434 19.6940239,21.5086456 C19.8786763,21.0065477 21.4266344,20.5856166 21.7853636,19.7128555 C22.1440928,18.8400945 21.1708656,18.6190539 20.7396937,18.9646097 C20.3085219,19.3101654 17.6371904,21.8977658 15.0632002,25.1002256 C12.4892099,28.3026853 11.4780463,29.1589405 11.4780463,30.4875956 Z" id="Combined-Shape"></path>
                <path d="M74.3278263,0.38212732 C76.1735393,0.742231153 83.1531267,0.831303233 93.7734033,5.47278768 C104.39368,10.1142721 113.667725,17.6005373 117.706422,22.2420218 C121.745118,26.8835062 125.247853,31.9741666 129.373768,39.7598824 C133.499683,47.5455982 134.609116,55.331314 135.357023,61.4700516 C136.104929,67.608789 133.935259,57.3802428 132.215814,55.331314 C130.496368,53.2823853 129.411119,52.4744957 128.326698,53.3848851 C127.242278,54.2952746 127.934911,56.3011876 127.578792,59.224172 C127.222673,62.1471563 126.588272,62.6024998 126.830885,65.6623601 C127.073498,68.7222203 128.197271,66.9986038 128.326698,68.6568661 C128.456126,70.3151285 128.494834,72.723238 127.578792,75.2447795 C126.662749,77.7663212 126.595333,75.6864945 125.933397,75.2447795 C125.271462,74.8030646 124.878626,74.3405872 124.437583,73.1486252 C123.99654,71.9566633 124.881698,71.8559349 124.437583,71.2021964 C123.993468,70.5484578 122.76901,70.5895221 121.8947,69.4054927 C121.020389,68.2214632 122.171848,68.4520519 121.8947,67.7585143 C121.617551,67.0649768 121.074537,65.9038961 120.398887,65.6623601 C119.723236,65.420824 120.299035,67.0098878 119.800561,67.0098878 C119.302086,67.0098878 118.420532,66.0614758 116.958515,65.6623601 C115.496497,65.2632443 115.8133,65.9623086 114.864376,65.6623601 C113.915452,65.3624115 114.534422,64.600304 114.116469,64.7640083 C113.698516,64.9277125 112.461225,65.6832748 111.424004,67.0098878 C110.386784,68.3365008 111.805434,67.98144 111.424004,68.2076902 C111.042574,68.4339405 107.630101,68.5887308 107.385308,69.4054927 C107.140515,70.2222546 109.620596,69.7772372 110.526516,71.2021964 C111.432436,72.6271554 110.620308,72.7817167 110.526516,74.3464278 C110.432724,75.9111388 111.022295,77.1477573 110.077772,78.6884616 C109.133249,80.2291659 107.99422,79.4803428 106.487819,80.9343412 C104.981419,82.3883394 105.845,82.5209765 105.291169,83.1802207 C104.737337,83.8394649 103.39164,85.0815765 100.953309,87.5222548 C98.5149774,89.9629322 98.8873724,89.1127724 98.2608443,90.3670349 C97.6343163,91.6212975 98.8374898,91.0961922 99.3079139,90.8162112 C99.6215302,90.629557 101.217065,89.6313884 104.094518,87.8217054 C105.343189,86.7770257 106.140956,86.5274836 106.487819,87.0730786 C107.008114,87.8914712 106.130774,88.7066345 105.889494,90.3670349 C105.648214,92.0274354 106.313993,93.2603532 105.291169,95.30797 C104.268344,97.3555878 102.289516,99.414343 99.3079139,103.542862 C96.3263114,107.671381 97.1404021,105.535415 96.3162868,107.735171 C95.4921715,109.934926 96.8364003,108.567208 97.0641933,109.531874 C97.2919864,110.496541 99.2850339,113.515855 98.2608443,115.970062 C97.2366547,118.42427 92.5767523,120.312096 92.1280087,121.360174 C91.6792643,122.40825 92.4955737,122.762397 92.1280087,123.755778 C91.7604429,124.74916 91.0658127,124.404475 90.6321948,125.402757 C90.1985768,126.401037 91.0594878,126.686216 90.6321948,127.19946 C90.2049026,127.712704 89.4786338,127.544523 88.3884742,128.097812 C87.2983147,128.651101 84.3266854,131.403055 80.011918,132.589571 C75.6971507,133.776087 77.2990674,132.65669 74.7765704,131.840945 C72.2540732,131.0252 72.2839962,131.032529 70.2891294,129.44534 C68.2942626,127.858151 69.8290268,127.997744 68.9428972,127.19946 C68.0567675,126.401176 66.787038,126.764786 65.8016886,125.402757 C64.8163391,124.040726 65.3889996,123.871365 65.8016886,122.857426 C66.2143775,121.843488 67.037075,122.367527 67.4470835,121.360174 C67.8570921,120.35282 68.1314948,119.642636 67.4470835,118.814843 C66.7626722,117.98705 62.6749648,116.346036 60.2671781,112.676106 C57.8593913,109.006175 61.0808472,110.593875 60.8655035,108.783248 C60.6501598,106.97262 60.4838917,106.580753 59.5192713,106.387643 C58.5546508,106.194533 57.4451009,107.91684 55.6301558,107.735171 C53.8152107,107.553501 54.7394142,106.046861 53.5360167,105.788741 C52.3326193,105.530623 51.448932,106.240049 49.3477386,106.387643 C47.2465451,106.535237 47.1788088,106.387643 45.009879,106.387643 C42.8409493,106.387643 40.7180499,107.347576 36.9324854,106.387643 C33.1469209,105.42771 34.9446572,105.338736 33.7912767,103.542862 C32.6378962,101.746989 33.8303404,101.317869 32.8937885,100.09918 C31.9572367,98.8804912 30.7031994,99.304387 29.3038359,97.7035756 C27.9044722,96.1027633 29.0134298,96.5023061 28.7055104,95.30797 C28.3975909,94.1136348 28.107185,94.185031 28.107185,93.0620911 C28.107185,91.9391512 28.5896785,91.9756443 28.7055104,90.8162112 C28.8213423,89.6567773 28.2350343,88.7905835 28.7055104,87.0730786 C29.1759865,85.3555735 29.4686061,83.6710425 31.2483936,81.5332423 C33.028181,79.3954423 34.4284545,80.3267782 36.1845785,78.0895603 C37.9407026,75.8523425 35.6580589,76.0150488 36.1845785,75.2447795 C36.7110982,74.4745102 37.2551796,75.6696813 38.1291363,75.2447795 C39.0030929,74.8198778 39.6538851,73.4507391 41.4199263,72.6994494 C43.1859675,71.9481596 42.7776753,72.8876184 44.1123908,72.6994494 C45.4471063,72.5112804 48.0868308,72.0244668 52.0402031,71.2021964 C55.9935754,70.3799259 54.0044364,69.8970235 55.6301558,70.3038445 C57.2558752,70.7106654 57.0716783,71.2704066 58.0234576,72.6994494 C58.9752369,74.1284921 58.0962963,74.6834783 58.9209458,75.2447795 C59.7455953,75.8060808 60.3933782,74.9020467 61.7629917,75.2447795 C63.1326052,75.5875124 63.2852692,76.3155881 64.9042004,76.7420326 C66.5231315,77.1684771 66.5114518,77.3935332 67.4470835,76.7420326 C68.3827153,76.090532 67.4165731,74.5093912 68.3445717,74.3464278 C69.2725703,74.1834643 72.981594,75.2447795 75.9732213,74.7956036 C78.9648485,74.3464278 81.0589876,74.3464278 82.2556385,72.6994494 C83.4522895,71.0524711 83.6648486,67.7715936 82.2556385,67.0098878 C80.8464284,66.2481821 78.1779749,68.8876918 74.7765704,68.6568661 C71.3751658,68.4260405 73.6329687,67.6279402 73.4303381,66.4109866 C73.2277074,65.194033 74.5422357,64.2875038 74.0286636,64.165107 C73.5150913,64.0427102 70.8894654,64.3746881 70.2891294,65.6623601 C69.6887936,66.9500321 71.9345244,67.6986976 71.9345244,68.6568661 C71.9345244,69.6150347 70.2891294,68.2965946 70.2891294,68.6568661 C70.2891294,69.0171377 71.9345244,69.8406268 71.9345244,70.3038445 C71.9345244,70.7670622 71.0828907,70.5024758 70.2891294,70.3038445 C69.4953682,70.1052133 69.0454832,70.2178554 68.3445717,69.4054927 C67.6436602,68.59313 68.1647391,67.6859783 67.4470835,67.0098878 C66.729428,66.3337973 66.4862991,67.3726775 65.8016886,67.0098878 C65.1170779,66.6470981 65.1458346,66.4282717 64.9042004,65.6623601 C64.6625661,64.8964484 65.3230389,64.5444209 64.9042004,64.165107 C64.4853617,63.7857931 63.2619986,63.6511622 61.7629917,62.8175793 C60.2639849,61.9839964 61.3947203,62.0865093 60.8655035,61.9192274 C60.3362868,61.7519456 58.9209458,61.4448772 58.9209458,61.9192274 C58.9209458,62.3935777 59.7505127,63.3196041 60.8655035,64.165107 C61.9804944,65.0106099 61.883205,64.3939629 63.2588053,65.3629094 C64.6344057,66.3318561 64.3058749,66.3125673 64.3058749,66.7104372 C64.3058749,66.9756838 63.9568517,67.0258955 63.2588053,66.8610722 C63.557968,68.6571694 63.3086658,69.5053095 62.5108985,69.4054927 C61.3142476,69.2557674 62.733369,67.7097424 62.0621544,67.0098878 C61.39094,66.3100332 60.4472393,66.4694798 58.9209458,65.6623601 C57.3946523,64.8552403 56.6214433,63.2065627 54.1343421,62.8175793 C51.6472411,62.4285958 51.3888762,62.8347151 49.3477386,64.165107 C47.3066009,65.4954989 48.5078172,65.5726618 47.7023436,67.0098878 C46.8968699,68.4471138 47.2324963,69.4376213 45.9073672,70.3038445 C44.5822381,71.1700677 40.3728567,71.8010975 40.3728567,71.8010975 C40.3728567,71.8010975 36.9324854,70.3038445 36.9324854,68.6568661 C36.9324854,67.0098878 37.2316014,64.2025657 38.5778804,63.4164805 C39.9241594,62.6303953 41.4709704,63.564786 44.1123908,62.8175793 C46.7538112,62.0703725 45.1143611,61.8646854 45.009879,60.8711503 C44.9053969,59.8776153 42.9244556,58.2427969 43.5140653,57.1280177 C44.1036752,56.0132386 45.8205129,56.9758779 47.7023436,55.78049 C49.5841742,54.5851021 49.3777718,53.7469161 51.2922963,52.1870826 C53.2068208,50.6272492 53.1474235,51.8440905 54.1343421,50.5401043 C55.1212609,49.2361181 54.3181368,47.6663713 55.0318304,47.2461476 C55.7455239,46.8259239 56.5042073,48.0903367 56.6772254,49.0428512 C56.8502433,49.9953659 55.1401315,50.3649272 55.6301558,50.5401043 C56.1201802,50.7152814 58.3205301,51.003272 60.8655035,50.5401043 C63.410477,50.0769366 63.0199721,50.3416959 63.8571308,49.0428512 C64.6942895,47.7440067 63.3065717,46.7888404 63.8571308,45.8986198 C64.4076899,45.0083993 65.3142511,46.4991203 65.8016886,45.8986198 C66.2891261,45.2981195 66.2654684,44.3243381 65.8016886,43.503015 C65.3379087,42.6816919 64.7806665,43.0852272 63.8571308,42.4549378 C62.9335951,41.8246485 62.5108985,41.9990581 62.5108985,41.2571354 C62.5108985,40.5152128 63.379873,40.1354426 63.8571308,38.8615306 C64.3343886,37.5876186 64.1041037,37.3670755 63.8571308,37.6637281 C63.6101579,37.9603807 61.6061439,38.7683073 60.8655035,41.2571354 C60.1248632,43.7459636 61.5403706,43.5123623 61.7629917,44.7008174 C61.9856128,45.8892726 62.3964323,46.5106495 61.7629917,47.2461476 C61.1295512,47.9816458 59.7247971,49.3834466 58.0234576,49.0428512 C56.322118,48.702256 56.7292337,46.7906141 55.0318304,45.8986198 C53.3344271,45.0066256 52.8154777,46.7910436 52.0402031,45.8986198 C51.2649284,45.0061961 51.5843378,43.8694804 52.0402031,42.4549378 C52.4960685,41.0403954 52.781053,41.8421859 53.5360167,41.2571354 C54.2909805,40.6720849 55.6468637,40.4331163 56.6772254,38.8615306 C57.707587,37.2899448 56.8786698,38.0705228 57.2755508,37.3642776 C57.6724319,36.6580322 57.4931995,36.8861173 58.0234576,36.4659257 C58.5537158,36.045734 58.925772,34.6427621 60.2671781,33.6211449 C61.6085842,32.5995277 62.5909134,31.7768527 64.9042004,31.22554 C67.2174873,30.6742274 65.6678288,32.0220517 66.5495954,32.1238919 C67.4313619,32.225732 69.7948169,31.5458133 72.6824312,32.1238919 C75.5700456,32.7019705 74.4059059,33.1491382 74.0286636,33.6211449 C73.6514211,34.0931517 70.6924484,34.2661274 70.2891294,35.118398 C69.8858104,35.9706685 71.6296286,36.9096376 72.6824312,36.4659257 C73.7352339,36.0222138 74.9261517,34.8189473 75.5244772,33.4714196 C76.1228026,32.1238919 74.527994,31.5365595 74.7765704,31.22554 C75.0251467,30.9145205 76.1740127,31.8900852 77.1698722,31.22554 C78.1657316,30.5609949 79.2452608,29.2758736 81.0589876,27.0332315 C82.8727144,24.7905894 81.4215348,25.5472011 82.2556385,24.9370772 C83.0897422,24.3269533 84.9481027,25.1168257 84.9481027,24.1884508 C84.9481027,23.2600757 82.0936743,21.6926992 82.2556385,21.0442194 C82.4176027,20.3957394 84.9051255,21.7928458 85.5464287,21.7928458 C86.1877318,21.7928458 84.0424785,20.9586447 84.2001963,20.2955928 C84.357914,19.632541 86.0519323,19.1824151 86.2943352,18.6486144 C86.536739,18.1148139 85.3855375,18.9405181 84.9481027,18.6486144 C84.5106689,18.3567108 85.0614393,18.1731048 84.9481027,17.7502627 C84.834767,17.3274206 83.5880213,15.0230495 83.3027081,12.509877 C83.0173948,9.99670437 84.2001963,11.8628248 84.2001963,11.1623493 C84.2001963,10.4618736 83.3027081,10.3498816 83.3027081,9.51537089 C83.3027081,8.68086016 83.5408159,7.71866724 84.2001963,7.71866724 C84.8595763,7.71866724 86.7862728,9.51537089 87.1918232,9.51537089 C87.5973737,9.51537089 86.0963634,8.76955266 85.5464287,7.71866724 C84.996494,6.66778182 85.5464287,7.04490337 85.5464287,6.3711395 C85.5464287,5.69737563 86.1001907,4.92357626 85.5464287,4.42471054 C84.9926658,3.92584482 83.3612666,3.12872795 81.0589876,2.32855628 C78.7567087,1.52838461 72.4821131,0.022023487 74.3278263,0.38212732 Z M74.3278263,57.4274683 C73.8790822,57.8766442 74.7765704,61.4333836 74.7765704,62.667854 C74.7765704,63.9023243 77.782565,61.2836583 80.1614994,60.721425 C82.5404337,60.1591917 83.4972679,60.157425 84.4993592,59.8230732 C85.5014504,59.4887214 86.1447537,58.774996 85.8455916,58.3258202 C85.5464287,57.8766442 82.7874015,57.778358 81.8068944,56.8285671 C80.8263874,55.8787762 82.4982078,53.9605169 81.8068944,54.1335116 C81.115581,54.3065063 79.5018318,57.0388422 79.4135926,57.4274683 C79.3253534,57.8160944 81.0589876,56.8423372 81.0589876,57.4274683 C81.0589876,58.0125994 80.5260407,58.7803796 80.011918,59.0744467 C79.4977955,59.3685137 78.2652768,59.4328713 77.917779,59.224172 C77.5702812,59.0154727 78.5317514,59.1452378 77.917779,58.3258202 C77.3038066,57.5064025 76.8673724,57.0148887 76.1228026,56.8285671 C75.3782327,56.6422455 74.7765704,56.9782924 74.3278263,57.4274683 Z M91.3801013,50.390379 C90.7049661,51.6379823 89.4390336,50.9980136 90.3330318,53.2351598 C91.22703,55.472306 93.6544079,56.4918049 94.0725663,57.1280177 C94.4907246,57.7642305 93.2344146,57.9870621 94.0725663,58.9247213 C94.9107179,59.8623806 95.7628745,59.9727985 96.6154498,59.9727985 C97.4680242,59.9727985 98.0274642,59.8202061 98.2608443,58.9247213 C98.4942245,58.0292366 98.9008965,58.1168817 97.5129378,56.5291165 C96.1249791,54.9413514 95.0528074,54.9464932 94.0725663,54.1335116 C93.0923252,53.3205301 92.6863691,53.2100144 92.2775902,52.1870826 C91.8688104,51.164151 92.4359899,49.9588575 92.2775902,49.6417525 C92.1191897,49.3246474 92.0552374,49.1427757 91.3801013,50.390379 Z M98.4104258,69.2557674 C99.7266413,70.802377 101.633278,71.986564 102.897867,72.2502735 C104.162456,72.513983 105.105875,71.2379432 105.590331,70.7530204 C106.074788,70.2680976 105.805728,69.7708224 105.590331,69.555218 C105.374934,69.3396136 105.315668,69.1450514 104.39368,69.555218 C103.471693,69.9653846 104.590913,71.2152047 102.897867,70.7530204 C101.20482,70.290836 100.070546,68.4122371 99.4574953,68.2076902 C98.844445,68.0031434 97.0942103,67.7091577 98.4104258,69.2557674 Z M83.7514522,77.3409338 C84.0506149,77.9544711 86.8886721,80.9687783 87.6405677,81.5332423 C88.3924624,82.0977064 88.9356333,80.7976025 89.7347067,81.8326929 C90.5337801,82.8677834 89.6190072,83.7969286 90.1834512,84.827199 C90.7478943,85.8574695 91.6512247,86.13457 92.2775902,86.4741774 C92.9039548,86.8137848 93.0361386,86.3636424 93.7734033,86.773628 C94.5106681,87.1836136 94.2357916,87.6774426 94.9700543,87.9714303 C95.7043179,88.2654179 96.5287688,88.3655792 96.7650304,87.9714303 C97.0012928,87.5772822 96.1657865,87.2578221 95.8675423,86.4741774 C95.5692982,85.6905327 95.8675423,85.4261003 95.5683802,84.827199 C95.2692173,84.2282979 91.6627067,82.2682609 90.2582411,81.2337917 C88.8537763,80.1993226 88.2678546,79.8056306 87.6405677,78.9879122 C87.0132799,78.1701937 87.3414047,77.3409338 87.0422418,77.0414832 C86.7430797,76.7420326 84.3610382,76.7273965 84.2001963,76.7420326 C84.0393542,76.7566687 83.4522895,76.7273965 83.7514522,77.3409338 Z" id="Combined-Shape"></path>
                <path d="M53.9872472,67.3626682 C53.8524688,67.9877498 54.8883962,69.3021554 55.4026222,69.0616612 C55.9168482,68.821167 56.3260594,66.8648264 55.9687722,66.4359448 C55.611485,66.0070631 54.1220256,66.7375867 53.9872472,67.3626682 Z" id="Path-52"></path>
                <path d="M54.7965282,64.6504933 C54.5925389,64.8600726 54.5575399,65.4888104 54.7965282,65.4888104 C55.0355165,65.4888104 55.6124853,64.8241145 55.6124853,64.6504933 C55.6124853,64.4768722 55.0005174,64.440914 54.7965282,64.6504933 Z" id="Path-53"></path>
                <path d="M58.6327488,69.1294752 C58.3716694,69.3540889 57.8793541,69.7927328 58.6327488,70.479026 C59.3861435,71.1653192 60.5831093,71.4188976 61.1019179,71.3787265 C61.6207264,71.3385555 61.4310662,70.8043009 61.5376536,70.2541009 C61.644241,69.7039008 62.1473819,69.286845 61.5376536,69.1294752 C60.9279252,68.9721055 60.0109695,69.7292756 59.5042202,69.7292756 C58.997471,69.7292756 58.8938282,68.9048615 58.6327488,69.1294752 Z" id="Path-54"></path>
                <path d="M35.1835723,38.6193211 C35.8069712,39.5371708 35.8622222,40.2756184 37.3312018,40.2756184 C38.8001815,40.2756184 40.1802704,39.258958 40.552646,38.6193211 C40.9250216,37.9796841 40.7251143,37.5491503 39.172027,37.1135962 C37.6189399,36.6780422 35.9625674,36.8195094 35.1835723,37.1135962 C34.4045772,37.4076831 34.5601734,37.7014713 35.1835723,38.6193211 Z" id="Path-58"></path>
                <path d="M55.7762073,25.0691522 C55.7762073,26.0025732 57.2968645,27.0141343 58.3827634,27.0141343 C59.4686624,27.0141343 60.0746304,25.5215889 60.3760122,25.0691522 C60.677394,24.6167156 60.0956431,24.2612366 60.3760122,24.0218542 C60.6563813,23.7824718 61.2495105,24.3664198 61.6026268,24.0218542 C61.9557432,23.6772887 61.8628179,23.0788327 61.6026268,22.8249422 C61.3424359,22.5710518 60.9730506,22.4664307 60.3760122,22.8249422 C59.7789738,23.1834536 60.0550225,23.8880532 59.609378,24.0218542 C59.1637336,24.1556552 59.7255448,23.0565238 58.3827634,23.4233982 C57.039982,23.7902727 55.7762073,24.1357313 55.7762073,25.0691522 Z" id="Path-59"></path>
                <path d="M75.9193364,22.5398296 C75.9193364,24.3856589 75.7901918,25.3051108 76.8045068,26.4153481 C77.8188218,27.5255853 79.2710115,26.829109 79.4600179,26.4153481 C79.6490244,26.0015871 77.9632098,25.0763893 77.6896771,24.4775888 C77.4161444,23.8787882 77.3993079,23.37806 77.6896771,22.5398296 C77.9800464,21.7015991 78.5290165,21.9708779 78.7223759,21.4964206 C78.9157354,21.0219635 78.5066939,20.8339283 78.7223759,20.0058367 C78.938058,19.1777449 80.1736997,18.6643109 79.4600179,18.6643109 C78.7463361,18.6643109 77.4212976,19.3307168 76.8045068,20.0058367 C76.1877159,20.6809564 75.9193364,20.6940001 75.9193364,22.5398296 Z" id="Path-60"></path>
                <path d="M78.4049321,11.8708227 C78.8919912,12.3046289 79.2519111,12.6730929 80.034313,12.5964386 C80.8167149,12.5197842 81.8207865,11.9843534 81.3674428,11.5805762 C80.9140992,11.1767992 78.8846037,11.0982118 78.4049321,11.1452067 C77.9252605,11.1922017 77.9178731,11.4370164 78.4049321,11.8708227 Z" id="Path-61"></path>
                <path d="M80.8555009,10.5243041 C80.6641369,10.8193927 81.4403605,11.6242639 81.8541496,11.6242639 C82.2679386,11.6242639 82.8071458,10.7882945 82.5674701,10.5243041 C82.3277944,10.2603138 81.0468649,10.2292155 80.8555009,10.5243041 Z" id="Path-62"></path>
                <path d="M80.5493499,8.89334562 C80.1234266,9.14250444 79.9714648,9.52719725 80.5493499,9.78073797 C81.1272349,10.0342786 82.0662981,10.0765354 82.5719475,9.78073797 C83.0775969,9.48494046 83.08526,8.82275836 82.5719475,8.59754813 C82.058635,8.37233794 80.9752732,8.64418675 80.5493499,8.89334562 Z" id="Path-63"></path>
                <path d="M23.0108858,31.9140508 C21.8540617,34.4917105 22.0447933,37.3948753 23.0108858,37.792952 C23.9769783,38.1910287 26.0003276,34.0359982 27.0350544,33.5722024 C28.0697813,33.1084066 28.3662426,34.8535014 29.5687902,34.8535014 C30.7713379,34.8535014 29.4872024,33.9879314 31.9534828,33.5722024 C34.4197632,33.1564733 35.6768146,34.1385244 37.1699977,33.5722024 C38.6631807,33.0058803 38.1110879,31.9014393 39.1075604,30.8588633 C40.1040329,29.8162873 40.0865181,30.7468954 41.4922529,29.0499706 C42.8979877,27.3530458 42.0558069,26.8572813 43.7279021,25.2814441 C45.3999974,23.7056069 47.7221874,23.5606412 48.0501574,22.8695872 C48.3781273,22.1785332 46.0164545,22.1078929 45.5164215,21.5129177 C45.0163885,20.9179424 46.2317766,20.3229155 45.5164215,19.854766 C44.8010665,19.3866165 45.0496296,20.5353903 42.9826857,19.854766 C40.9157419,19.1741418 40.7367173,18.2057513 39.1075604,17.7443912 C37.4784035,17.283031 36.5760062,17.9793676 35.5305216,17.7443912 C34.4850369,17.5094147 34.909759,15.8495116 33.7420022,16.5384627 C32.5742453,17.2274137 32.2329728,19.0774133 31.9534828,19.854766 C31.6739928,20.6321187 32.7630692,19.9776515 31.9534828,21.5129177 C31.1438963,23.0481839 29.95155,23.651148 29.5687902,24.3769978 C29.1860305,25.1028475 29.996216,25.6388793 29.5687902,26.0351494 C29.1413644,26.4314196 28.161967,25.7938718 27.7802709,26.0351494 C27.3985747,26.276427 29.7991765,24.6771377 27.7802709,27.1657073 C25.7613652,29.654277 24.1677098,29.336391 23.0108858,31.9140508 Z" id="Path-64"></path>
                <path d="M34.6805436,12.0578906 C34.8108197,11.3428941 36.3830624,10.6917149 37.0879736,10.556443 C37.7928848,10.4211712 38.0043776,9.37009919 38.5926173,11.3071668 C39.1808571,13.2442345 39.2924837,14.7591186 38.5926173,15.5112199 C37.8927509,16.2633211 35.524661,15.6598654 34.6805436,15.5112199 C34.1177986,15.4121229 33.6162507,15.4121229 33.1758999,15.5112199 C32.3213771,14.9106409 31.7195196,14.6103514 31.3703274,14.6103514 C30.8465391,14.6103514 31.1249579,15.8683085 30.6180055,15.5112199 C30.1110531,15.1541313 30.1051418,14.7296438 30.6180055,13.8596276 C31.1308692,12.9896115 31.7722398,12.4911936 32.423578,12.0578906 C33.0749161,11.6245876 33.7904286,11.0092493 33.9282217,11.3071668 C34.0660149,11.6050843 32.1293585,12.5584798 32.8749711,13.0338315 C33.6205837,13.5091831 36.2721642,13.2308043 36.6365805,13.0338315 C37.0009968,12.8368586 34.5502675,12.772887 34.6805436,12.0578906 Z" id="Path-66"></path>
                <path d="M35.6383982,9.34379313 C35.6383982,9.07900819 36.8936959,8.72739093 37.2889488,8.87657034 C37.6842018,9.02574977 37.7306876,9.84171343 37.2889488,9.96675678 C36.8472102,10.0918001 35.6383982,9.60857808 35.6383982,9.34379313 Z" id="Path-69"></path>
            </g>
            <path d="M51.1868787,111.183256 C51.3098747,111.274884 51.3713717,111.408507 51.3713717,111.584128 C51.3713717,111.75975 50.2183018,114.290947 47.9121273,119.177797 L51.9709742,127.493036 L51.2791252,127.493036 C50.5257749,127.493036 50.0068934,127.420498 49.7224652,127.275419 C49.438037,127.130341 49.1728309,126.782922 48.9268389,126.233151 L45.5829026,119.177797 L49.4572564,111 L49.8031809,111 C50.2490413,111 50.5603702,111.007636 50.737177,111.022907 C50.9139837,111.038178 51.0638828,111.091627 51.1868787,111.183256 Z M45.2600398,112.397327 L45.2600398,126.095709 C45.2600398,126.798194 45.187012,127.206698 45.0409542,127.321233 C44.8948965,127.435769 44.4144507,127.493036 43.5996023,127.493036 L43.1153082,127.493036 L43.1153082,111 L43.5996023,111 C44.4144507,111 44.8948965,111.057267 45.0409542,111.171803 C45.187012,111.286338 45.2600398,111.694842 45.2600398,112.397327 Z M53.4699802,121.399776 L53.4699802,119.979542 C53.4699802,119.032714 53.4930415,118.398961 53.539165,118.078261 C53.5852885,117.757562 53.6390985,117.440685 53.7005964,117.127621 C53.7620944,116.814557 53.8351222,116.58549 53.9196819,116.440411 C54.0042416,116.295333 54.1118615,116.123532 54.2425447,115.925004 C54.3732279,115.726476 54.5231271,115.589035 54.6922465,115.512677 C54.861366,115.436321 55.0612314,115.35233 55.2918489,115.260701 C55.6762114,115.107987 56.2373721,115.031631 56.9753479,115.031631 C57.7133237,115.031631 58.3090766,115.11944 58.7626242,115.295062 C59.2161719,115.470683 59.5697801,115.669208 59.8234592,115.890643 C60.0771384,116.112079 60.2577861,116.539671 60.3654076,117.173435 C60.4730291,117.807199 60.5383697,118.368414 60.5614314,118.857099 C60.5844931,119.345784 60.5960239,120.01008 60.5960239,120.850008 L60.5960239,122.568032 C60.5960239,123.545402 60.5729625,124.194427 60.5268389,124.515126 C60.4807155,124.835826 60.4269055,125.156521 60.3654076,125.477221 C60.3039095,125.79792 60.2308818,126.030805 60.146322,126.175884 C60.0617623,126.320962 59.9541425,126.496581 59.8234592,126.702744 C59.692776,126.908909 59.5390333,127.053985 59.3622267,127.137978 C59.1854199,127.22197 58.9817109,127.309779 58.7510934,127.401408 C58.3821055,127.569394 57.890129,127.653385 57.2751491,127.653385 C56.6601692,127.653385 56.1874105,127.630478 55.8568589,127.584664 C55.5263072,127.538849 55.2341961,127.439587 54.9805169,127.286873 C54.7268377,127.134159 54.5154415,126.989083 54.346322,126.85164 C54.1772026,126.714197 54.0349906,126.481312 53.9196819,126.152977 C53.8043732,125.824642 53.7159712,125.545943 53.6544732,125.316871 C53.5929751,125.0878 53.5545395,124.713657 53.539165,124.194429 C53.4930415,123.323958 53.4699802,122.392416 53.4699802,121.399776 Z M57.0214711,116.978726 C56.3296188,116.978726 55.9068265,117.257424 55.7530815,117.814831 C55.5993365,118.372237 55.5224652,119.334321 55.5224652,120.701112 C55.5224652,122.067903 55.5301524,122.953631 55.5455268,123.358323 C55.5609014,123.763016 55.6147113,124.190609 55.7069583,124.641115 C55.7992052,125.091621 55.9491043,125.381774 56.1566601,125.511581 C56.3642157,125.641388 56.6524832,125.706291 57.0214711,125.706291 C57.7133236,125.706291 58.1361158,125.416138 58.2898608,124.835824 C58.4436058,124.255511 58.5204771,123.278156 58.5204771,121.90373 C58.5204771,120.529303 58.51279,119.643575 58.4974155,119.246518 C58.482041,118.849461 58.428231,118.43714 58.3359841,118.00954 C58.2437371,117.581941 58.093838,117.303242 57.8862823,117.173435 C57.6787266,117.043628 57.3904591,116.978726 57.0214711,116.978726 Z M67.9757455,121.376869 L67.9988071,119.361053 C67.9988071,118.750196 67.9834329,118.292061 67.9526839,117.986633 C67.8911859,117.345235 67.5298906,117.009268 66.8687873,116.978726 L64.7471173,117.597214 L64.954672,118.23861 L64.954672,127.493036 C63.9245806,127.493036 63.3249843,127.435769 63.1558649,127.321233 C62.9867453,127.206698 62.9021869,126.805829 62.9021869,126.118616 L62.9021869,115.19198 C63.7939077,115.19198 64.3550684,115.214886 64.5856859,115.260701 C64.8163033,115.306516 64.9392974,115.443955 64.954672,115.673027 L66.6612326,115.031631 C67.599077,115.031631 68.2140476,115.092715 68.506163,115.214887 C68.7982785,115.337058 69.0212053,115.443956 69.1749503,115.535585 C69.3286953,115.627214 69.4670637,115.814285 69.5900596,116.096807 C69.7130556,116.379327 69.7976141,116.638937 69.8437376,116.875644 C69.8898611,117.112351 69.9359838,117.490313 69.9821073,118.00954 C70.0282309,118.757839 70.0512923,119.887906 70.0512923,121.399776 L70.0512923,127.493036 C69.0212009,127.493036 68.417761,127.435769 68.2409542,127.321233 C68.0641476,127.206698 67.9757455,126.805829 67.9757455,126.118616 L67.9757455,121.376869 Z M72.0345924,125.477221 C73.4182972,125.629934 74.333066,125.706291 74.7789264,125.706291 C75.2247868,125.706291 75.5168979,125.668112 75.6552684,125.591755 C75.7936389,125.515398 75.8974152,125.435225 75.9666004,125.351232 C76.0357857,125.26724 76.085752,125.110709 76.116501,124.881639 C76.1626245,124.560939 76.1856859,124.156253 76.1856859,123.667568 C76.1856859,123.301054 75.4938439,122.59858 74.1101392,121.560124 C73.5874063,121.178339 73.1069604,120.701115 72.6687873,120.128437 C72.2306141,119.55576 72.0115308,119.017451 72.0115308,118.513494 C72.0115308,118.009538 72.019218,117.635394 72.0345924,117.391051 C72.049967,117.146709 72.1153076,116.845103 72.2306163,116.486225 C72.345925,116.127348 72.5111984,115.863919 72.7264414,115.695934 C73.3260468,115.253063 74.1946928,115.031631 75.3324055,115.031631 L78.0306163,115.581399 C77.9076204,116.467141 77.7884698,116.959636 77.6731611,117.0589 C77.5578523,117.158164 77.3810482,117.207796 77.1427436,117.207796 C76.9044388,117.207796 76.6238585,117.184889 76.300994,117.139074 L75.4015905,116.978726 C74.7712361,116.978726 74.3868794,117.116166 74.2485089,117.391051 C74.1408875,117.604852 74.0870775,117.887368 74.0870775,118.23861 C74.0870775,118.589853 74.3100044,118.963997 74.7558649,119.361053 C75.2017252,119.758109 75.6975454,120.139889 76.2433399,120.506403 C76.7891346,120.872917 77.2849547,121.327234 77.7308151,121.869369 C78.1766755,122.411504 78.3996023,122.949813 78.3996023,123.484311 C78.3996023,124.018811 78.3919153,124.423497 78.3765408,124.698383 C78.3611662,124.973268 78.2958256,125.332141 78.1805169,125.775012 C78.0652082,126.217882 77.8999348,126.553848 77.6846918,126.782919 C77.4694489,127.01199 77.1427457,127.214333 76.7045726,127.389955 C76.2663994,127.565576 75.8128585,127.653385 75.3439364,127.653385 C74.8750142,127.653385 74.4752833,127.634296 74.1447316,127.596117 C73.8141799,127.557939 73.4298232,127.500672 72.9916501,127.424315 C72.5534769,127.347958 72.2344609,127.294509 72.0345924,127.263966 L72.0345924,125.477221 Z M85.6870775,124.904546 L85.4564612,124.217336 L85.4564612,115.19198 C86.4865525,115.19198 87.0899925,115.249247 87.2667992,115.363783 C87.4436059,115.478318 87.532008,115.879186 87.532008,116.566399 L87.532008,127.493036 C86.6249126,127.493036 86.0560648,127.466312 85.8254474,127.412862 C85.5948298,127.359412 85.4718357,127.179975 85.4564612,126.874547 L83.9805169,127.653385 C82.7659317,127.653385 81.8204143,127.355597 81.1439364,126.760012 C80.7134505,126.393498 80.4674622,125.3856 80.4059642,123.736289 C80.3752153,123.232333 80.359841,122.415324 80.359841,121.28524 L80.359841,115.19198 C81.3899322,115.19198 81.9895287,115.249247 82.1586481,115.363783 C82.3277676,115.478318 82.4123261,115.879186 82.4123261,116.566399 L82.4123261,121.239426 C82.4123261,123.026181 82.4546053,124.064621 82.539165,124.354778 C82.6237247,124.644935 82.7121268,124.896909 82.8043738,125.110708 C82.9581187,125.477222 83.2732911,125.675748 83.7499006,125.706291 L85.6870775,124.904546 Z M96.8489066,127.493036 C95.8188153,127.493036 95.2192188,127.435769 95.0500994,127.321233 C94.8809799,127.206698 94.7964214,126.805829 94.7964214,126.118616 L94.7733598,120.506403 L94.7733598,119.61303 C94.7733598,119.261788 94.7772034,118.994542 94.7848907,118.811285 C94.7925779,118.628028 94.7887343,118.41805 94.7733598,118.181343 C94.7579853,117.944636 94.7310804,117.769018 94.6926442,117.654482 C94.6542079,117.539946 94.6042415,117.421595 94.5427436,117.299424 C94.4351221,117.085624 94.2045081,116.978726 93.8508946,116.978726 L91.7984095,117.574307 L92.0059642,118.23861 L92.0059642,127.493036 C90.9758729,127.493036 90.3762765,127.435769 90.207157,127.321233 C90.0380376,127.206698 89.9534791,126.805829 89.9534791,126.118616 L89.9534791,115.19198 C90.7990764,115.19198 91.3371758,115.214886 91.5677933,115.260701 C91.7984107,115.306516 91.9367791,115.443955 91.9829026,115.673027 L93.7125248,115.031631 C94.3890027,115.031631 94.9040407,115.088898 95.2576541,115.203433 C95.6112675,115.317969 95.92644,115.535584 96.2031809,115.856283 L98.3248509,115.031631 C99.2319462,115.031631 99.8430733,115.096534 100.158251,115.22634 C100.473428,115.356147 100.704042,115.466863 100.850099,115.558492 C100.996157,115.65012 101.126838,115.84101 101.242147,116.131167 C101.357456,116.421324 101.442014,116.680934 101.495825,116.910005 C101.549636,117.139075 101.591915,117.520855 101.622664,118.055355 C101.668788,118.849467 101.691849,119.964263 101.691849,121.399776 L101.691849,127.493036 C100.646383,127.493036 100.0391,127.435769 99.8699802,127.321233 C99.7008606,127.206698 99.6163022,126.805829 99.6163022,126.118616 L99.6163022,121.376869 C99.6163022,119.269415 99.5932408,118.093534 99.5471173,117.849191 C99.4702449,117.406321 99.2550051,117.139075 98.9013917,117.047446 C98.7783956,117.016903 98.624653,116.993997 98.440159,116.978726 L96.6413519,117.505587 L96.8489066,118.146982 L96.8489066,127.493036 Z M108.541153,115.19198 C108.541153,116.06245 108.460438,116.600759 108.299006,116.806923 C108.137573,117.013087 107.664815,117.116167 106.880716,117.116167 L106.211929,117.116167 L106.419483,117.688842 L106.419483,122.224427 C106.419483,123.522497 106.46945,124.412043 106.569383,124.893093 C106.669318,125.374141 106.880714,125.645205 107.203579,125.706291 L108.956262,125.706291 L108.956262,127.493036 L107.08827,127.607571 C106.319545,127.607571 105.812195,127.531215 105.566203,127.378501 C105.320211,127.225787 105.135719,127.103618 105.012723,127.011989 C104.889728,126.920361 104.782108,126.733289 104.689861,126.450767 C104.597614,126.168247 104.52843,125.939179 104.482306,125.763558 C104.436183,125.587937 104.401591,125.267242 104.378529,124.801464 C104.355467,124.335686 104.343936,123.950089 104.343936,123.644661 L104.343936,117.688842 L104.52843,117.116167 L103.306163,117.116167 L103.306163,115.19198 L104.52843,115.19198 L104.343936,114.344421 L104.343936,113.176165 C105.374028,113.176165 105.977468,113.225796 106.154274,113.32506 C106.331081,113.424324 106.419483,113.787015 106.419483,114.413142 L106.23499,115.19198 L108.541153,115.19198 Z M111.100994,113.599944 C110.824253,113.317423 110.685885,112.989093 110.685885,112.614943 C110.685885,112.240794 110.824253,111.923917 111.100994,111.664302 C111.377735,111.404689 111.700594,111.274884 112.069583,111.274884 C112.438571,111.274884 112.76143,111.404689 113.038171,111.664302 C113.314911,111.923917 113.45328,112.240794 113.45328,112.614943 C113.45328,112.989093 113.314911,113.317423 113.038171,113.599944 C112.76143,113.882465 112.438571,114.023723 112.069583,114.023723 C111.700594,114.023723 111.377735,113.882465 111.100994,113.599944 Z M111.05487,126.210244 L111.05487,115.19198 C112.084962,115.19198 112.684559,115.249247 112.853678,115.363783 C113.022797,115.478318 113.107356,115.879186 113.107356,116.566399 L113.107356,127.584664 C112.077265,127.584664 111.477669,127.527397 111.308548,127.412862 C111.139429,127.298326 111.05487,126.897457 111.05487,126.210244 Z M115.759443,121.399776 L115.759443,119.979542 C115.759443,119.032714 115.782504,118.398961 115.828628,118.078261 C115.874752,117.757562 115.928562,117.440685 115.99006,117.127621 C116.051557,116.814557 116.124585,116.58549 116.209146,116.440411 C116.293705,116.295333 116.401324,116.123532 116.532008,115.925004 C116.662692,115.726476 116.812591,115.589035 116.98171,115.512677 C117.150829,115.436321 117.350695,115.35233 117.581312,115.260701 C117.965674,115.107987 118.526835,115.031631 119.264811,115.031631 C120.002787,115.031631 120.59854,115.11944 121.052087,115.295062 C121.505635,115.470683 121.859243,115.669208 122.112923,115.890643 C122.366602,116.112079 122.547249,116.539671 122.65487,117.173435 C122.762492,117.807199 122.827833,118.368414 122.850895,118.857099 C122.873956,119.345784 122.885487,120.01008 122.885487,120.850008 L122.885487,122.568032 C122.885487,123.545402 122.862426,124.194427 122.816302,124.515126 C122.770179,124.835826 122.716369,125.156521 122.65487,125.477221 C122.593373,125.79792 122.520345,126.030805 122.435786,126.175884 C122.351225,126.320962 122.243606,126.496581 122.112923,126.702744 C121.98224,126.908909 121.828497,127.053985 121.65169,127.137978 C121.474884,127.22197 121.271174,127.309779 121.040557,127.401408 C120.671569,127.569394 120.179593,127.653385 119.564612,127.653385 C118.949632,127.653385 118.476874,127.630478 118.146322,127.584664 C117.815771,127.538849 117.523659,127.439587 117.26998,127.286873 C117.016301,127.134159 116.804905,126.989083 116.635786,126.85164 C116.466666,126.714197 116.324454,126.481312 116.209146,126.152977 C116.093836,125.824642 116.005435,125.545943 115.943936,125.316871 C115.882438,125.0878 115.844003,124.713657 115.828628,124.194429 C115.782504,123.323958 115.759443,122.392416 115.759443,121.399776 Z M119.310934,116.978726 C118.619082,116.978726 118.19629,117.257424 118.042545,117.814831 C117.888799,118.372237 117.811929,119.334321 117.811929,120.701112 C117.811929,122.067903 117.819615,122.953631 117.83499,123.358323 C117.850365,123.763016 117.904174,124.190609 117.996421,124.641115 C118.088668,125.091621 118.238567,125.381774 118.446124,125.511581 C118.653679,125.641388 118.941947,125.706291 119.310934,125.706291 C120.002787,125.706291 120.425579,125.416138 120.579324,124.835824 C120.733069,124.255511 120.80994,123.278156 120.80994,121.90373 C120.80994,120.529303 120.802254,119.643575 120.786879,119.246518 C120.771504,118.849461 120.717694,118.43714 120.625447,118.00954 C120.533201,117.581941 120.383301,117.303242 120.175745,117.173435 C119.96819,117.043628 119.679922,116.978726 119.310934,116.978726 Z M130.265209,121.376869 L130.28827,119.361053 C130.28827,118.750196 130.272897,118.292061 130.242147,117.986633 C130.18065,117.345235 129.819354,117.009268 129.158251,116.978726 L127.03658,117.597214 L127.244135,118.23861 L127.244135,127.493036 C126.214043,127.493036 125.614447,127.435769 125.445328,127.321233 C125.276209,127.206698 125.19165,126.805829 125.19165,126.118616 L125.19165,115.19198 C126.083371,115.19198 126.644532,115.214886 126.875149,115.260701 C127.105767,115.306516 127.228761,115.443955 127.244135,115.673027 L128.950695,115.031631 C129.888541,115.031631 130.503511,115.092715 130.795627,115.214887 C131.087742,115.337058 131.310668,115.443956 131.464414,115.535585 C131.618158,115.627214 131.756527,115.814285 131.879523,116.096807 C132.002518,116.379327 132.087077,116.638937 132.133201,116.875644 C132.179324,117.112351 132.225447,117.490313 132.27157,118.00954 C132.317694,118.757839 132.340755,119.887906 132.340755,121.399776 L132.340755,127.493036 C131.310664,127.493036 130.707224,127.435769 130.530417,127.321233 C130.353611,127.206698 130.265209,126.805829 130.265209,126.118616 L130.265209,121.376869 Z M138.129225,125.706291 C139.17469,125.706291 140.235515,125.629934 141.31173,125.477221 L141.31173,127.263966 C139.881901,127.52358 138.8672,127.653385 138.267595,127.653385 C137.667989,127.653385 137.187543,127.611389 136.826242,127.527396 C136.464942,127.443404 136.153613,127.344141 135.892246,127.229605 C135.63088,127.11507 135.415641,126.920363 135.246521,126.645477 C135.077401,126.370592 134.946721,126.1148 134.854474,125.878093 C134.762226,125.641386 134.693042,125.278695 134.646918,124.79001 C134.585421,124.13334 134.554672,123.434683 134.554672,122.694021 L134.554672,119.635936 C134.554672,118.551667 134.585421,117.875917 134.646918,117.608668 C134.708416,117.341418 134.7776,117.051266 134.854474,116.738202 C134.931346,116.425139 135.031278,116.203706 135.154274,116.073899 C135.27727,115.944093 135.427169,115.791381 135.603977,115.61576 C135.780783,115.440138 135.984491,115.321787 136.215109,115.260701 C136.937711,115.107987 137.58343,115.031631 138.152286,115.031631 C138.721143,115.031631 139.209276,115.11944 139.6167,115.295062 C140.024124,115.470683 140.339296,115.688297 140.562226,115.947911 C140.785157,116.207524 140.958117,116.574033 141.081114,117.047446 C141.280982,117.795746 141.380914,118.773101 141.380914,119.979542 L141.450099,121.537217 L136.422664,121.651753 L136.607157,122.178614 C136.607157,123.690482 136.680184,124.656384 136.826242,125.076348 C136.9723,125.496312 137.406624,125.706291 138.129225,125.706291 Z M139.086283,117.448319 C138.940225,117.135255 138.59046,116.978726 138.036978,116.978726 C137.483497,116.978726 137.126045,117.116166 136.964612,117.391051 C136.80318,117.665937 136.722465,118.261513 136.722465,119.177797 L136.537972,119.681751 L139.559045,119.681751 L139.32843,119.177797 C139.313055,118.33787 139.23234,117.761383 139.086283,117.448319 Z M148.576143,121.376869 L148.599205,119.361053 C148.599205,118.750196 148.583831,118.292061 148.553082,117.986633 C148.491584,117.345235 148.130288,117.009268 147.469185,116.978726 L145.347515,117.597214 L145.55507,118.23861 L145.55507,127.493036 C144.524978,127.493036 143.925382,127.435769 143.756262,127.321233 C143.587143,127.206698 143.502585,126.805829 143.502585,126.118616 L143.502585,115.19198 C144.394306,115.19198 144.955466,115.214886 145.186083,115.260701 C145.416701,115.306516 145.539695,115.443955 145.55507,115.673027 L147.26163,115.031631 C148.199475,115.031631 148.814446,115.092715 149.106561,115.214887 C149.398677,115.337058 149.621603,115.443956 149.775348,115.535585 C149.929093,115.627214 150.067461,115.814285 150.190458,116.096807 C150.313453,116.379327 150.398011,116.638937 150.444135,116.875644 C150.490258,117.112351 150.536382,117.490313 150.582505,118.00954 C150.628629,118.757839 150.65169,119.887906 150.65169,121.399776 L150.65169,127.493036 C149.621599,127.493036 149.018159,127.435769 148.841351,127.321233 C148.664545,127.206698 148.576143,126.805829 148.576143,126.118616 L148.576143,121.376869 Z M152.63499,125.477221 C154.018695,125.629934 154.933464,125.706291 155.379324,125.706291 C155.825185,125.706291 156.117295,125.668112 156.255666,125.591755 C156.394036,125.515398 156.497813,125.435225 156.566998,125.351232 C156.636183,125.26724 156.68615,125.110709 156.716898,124.881639 C156.763022,124.560939 156.786083,124.156253 156.786083,123.667568 C156.786083,123.301054 156.094242,122.59858 154.710537,121.560124 C154.187804,121.178339 153.707358,120.701115 153.269185,120.128437 C152.831012,119.55576 152.611929,119.017451 152.611929,118.513494 C152.611929,118.009538 152.619615,117.635394 152.63499,117.391051 C152.650365,117.146709 152.715705,116.845103 152.831014,116.486225 C152.946323,116.127348 153.111596,115.863919 153.326839,115.695934 C153.926444,115.253063 154.795091,115.031631 155.932803,115.031631 L158.631014,115.581399 C158.508018,116.467141 158.388868,116.959636 158.273558,117.0589 C158.15825,117.158164 157.981446,117.207796 157.743141,117.207796 C157.504837,117.207796 157.224256,117.184889 156.901392,117.139074 L156.001988,116.978726 C155.371633,116.978726 154.987277,117.116166 154.848907,117.391051 C154.741285,117.604852 154.687475,117.887368 154.687475,118.23861 C154.687475,118.589853 154.910402,118.963997 155.356262,119.361053 C155.802122,119.758109 156.297943,120.139889 156.843738,120.506403 C157.389532,120.872917 157.885353,121.327234 158.331213,121.869369 C158.777073,122.411504 159,122.949813 159,123.484311 C159,124.018811 158.992313,124.423497 158.976939,124.698383 C158.961564,124.973268 158.896224,125.332141 158.780914,125.775012 C158.665606,126.217882 158.500332,126.553848 158.285089,126.782919 C158.069847,127.01199 157.743143,127.214333 157.30497,127.389955 C156.866797,127.565576 156.413256,127.653385 155.944334,127.653385 C155.475412,127.653385 155.075681,127.634296 154.74513,127.596117 C154.414578,127.557939 154.030221,127.500672 153.592048,127.424315 C153.153875,127.347958 152.834858,127.294509 152.63499,127.263966 L152.63499,125.477221 Z M43,153.89971 L43,137.269232 C44.0147168,137.269232 44.6066261,137.326499 44.7757455,137.441034 C44.944865,137.55557 45.0294235,137.964074 45.0294235,138.666559 L45.0294235,141.896445 L46.366998,141.438305 C47.3509659,141.438305 48.0082157,141.537568 48.3387674,141.736096 C48.6693191,141.934624 48.9229945,142.102607 49.0998012,142.24005 C49.2766079,142.377492 49.4226634,142.60656 49.5379722,142.927259 C49.6532809,143.247959 49.7416829,143.530476 49.8031809,143.774819 C49.8646789,144.019161 49.9108017,144.393305 49.9415507,144.897262 C49.9876742,145.64556 50.0107356,146.596191 50.0107356,147.749182 C50.0107356,148.902173 49.9992049,149.726817 49.9761431,150.223137 C49.9530814,150.719458 49.8877407,151.284492 49.7801193,151.918255 C49.6724978,152.552018 49.4956938,152.983429 49.2497018,153.2125 C48.5885985,153.777542 47.6507682,154.060059 46.4361829,154.060059 L45.0294235,153.120872 C45.014049,153.487386 44.9025855,153.708818 44.6950299,153.785175 C44.4874741,153.861532 43.9224699,153.89971 43,153.89971 Z M47.739165,151.242499 C47.8698482,150.677457 47.9351889,149.558843 47.9351889,147.886624 C47.9351889,146.214405 47.8660046,145.057614 47.7276342,144.416214 C47.5892637,143.774815 47.2279684,143.431214 46.6437376,143.385399 L44.8218688,143.820633 L45.0294235,144.462028 L45.0294235,150.601102 L44.8218688,151.31122 L46.6206759,152.112965 C47.2356558,152.097693 47.6084818,151.807541 47.739165,151.242499 Z M56.4449305,144.439121 L56.467992,143.820633 C56.467992,143.606832 56.4449306,143.492299 56.3988071,143.477027 C56.3526837,143.461756 56.2988737,143.427396 56.2373758,143.373946 C56.1758778,143.320496 56.0951629,143.309043 55.9952286,143.339586 C55.8952944,143.370129 55.7761438,143.377764 55.6377733,143.362493 L54.3924453,143.522842 C54.0695809,143.568656 53.7928441,143.591563 53.5622267,143.591563 C53.3316092,143.591563 53.1548051,143.538113 53.0318092,143.431213 C52.9088131,143.324314 52.785819,142.835636 52.662823,141.965166 L55.3379722,141.438305 C56.4295614,141.438305 57.1137163,141.518478 57.3904573,141.678829 C57.6671982,141.839178 57.8670637,141.972801 57.9900596,142.079701 C58.1130556,142.186601 58.1976141,142.400397 58.2437376,142.721097 C58.3206101,143.118153 58.3590458,143.744271 58.3590458,144.59947 L58.3590458,153.89971 C57.4673249,153.89971 56.9061642,153.853896 56.6755467,153.762268 C56.4449292,153.67064 56.3219351,153.449207 56.3065606,153.097965 L54.3924453,154.060059 C53.9619594,154.060059 53.6429434,154.056242 53.4353876,154.048606 C53.227832,154.04097 53.0202794,153.976067 52.8127236,153.853896 C52.605168,153.731725 52.4667995,153.609555 52.3976143,153.487384 C52.328429,153.365213 52.2630884,153.105603 52.2015905,152.708546 C52.124718,152.235132 52.0862823,151.265413 52.0862823,149.799358 L52.0862823,148.218776 C52.0862823,146.493107 53.6006475,145.599742 56.6294235,145.538657 L56.4449305,144.988889 L56.4449305,144.439121 Z M54.2540755,152.112965 C54.2694501,152.112965 55.0458505,151.822812 56.5833002,151.242499 L56.3526839,150.578196 L56.3526839,147.852263 L56.537177,147.325402 C55.9068226,147.340674 55.353349,147.401758 54.8767395,147.508658 C54.4001302,147.615559 54.161829,147.760634 54.161829,147.943892 L54.1387674,150.967615 C54.1387674,151.731185 54.177203,152.112965 54.2540755,152.112965 Z M62.833002,153.89971 L62.5101392,153.89971 C61.6491674,153.89971 61.1456601,153.842443 60.9996023,153.727908 C60.8535446,153.613372 60.7805169,153.212503 60.7805169,152.52529 L60.7805169,137.406674 C61.8106082,137.406674 62.4102046,137.463941 62.5793241,137.578477 C62.7484435,137.693012 62.833002,138.101516 62.833002,138.804 L62.833002,153.89971 Z M65.392843,147.233775 L69.0827038,153.89971 L66.7073558,153.89971 L63.1789264,147.233775 L66.4306163,141.598654 L68.6906561,141.598654 L65.392843,147.233775 Z M70.3741551,151.883894 C71.7578598,152.036609 72.6726286,152.112965 73.1184891,152.112965 C73.5643495,152.112965 73.8564605,152.074786 73.994831,151.998429 C74.1332014,151.922073 74.2369778,151.841899 74.306163,151.757906 C74.3753482,151.673913 74.4253147,151.517384 74.4560636,151.288313 C74.5021871,150.967613 74.5252485,150.562927 74.5252485,150.074242 C74.5252485,149.707728 73.8334065,149.005254 72.4497018,147.966799 C71.9269689,147.585013 71.4465231,147.107789 71.0083499,146.535112 C70.5701768,145.962434 70.3510934,145.424124 70.3510934,144.920169 C70.3510934,144.416212 70.3587805,144.042068 70.3741551,143.797726 C70.3895295,143.553383 70.4548702,143.251778 70.5701789,142.892899 C70.6854877,142.534021 70.850761,142.270594 71.0660039,142.102607 C71.6656093,141.659737 72.5342554,141.438305 73.6719682,141.438305 L76.3701789,141.988073 C76.2471829,142.873815 76.1280323,143.366309 76.0127236,143.465574 C75.8974149,143.564838 75.7206109,143.61447 75.4823061,143.61447 C75.2440015,143.61447 74.9634211,143.591563 74.6405567,143.545749 L73.7411531,143.385399 C73.1107987,143.385399 72.7264421,143.52284 72.5880716,143.797726 C72.4804501,144.011525 72.4266402,144.294042 72.4266402,144.645285 C72.4266402,144.996526 72.649567,145.370671 73.0954274,145.767727 C73.5412878,146.164784 74.0371079,146.546563 74.5829026,146.913077 C75.1286972,147.27959 75.6245173,147.733908 76.0703777,148.276043 C76.5162381,148.818178 76.739165,149.356487 76.739165,149.890986 C76.739165,150.425485 76.7314779,150.830171 76.7161034,151.105056 C76.7007289,151.379942 76.6353883,151.738815 76.5200795,152.181685 C76.4047708,152.624556 76.2394974,152.960522 76.0242545,153.189593 C75.8090115,153.418664 75.4823083,153.621007 75.0441351,153.796629 C74.6059621,153.97225 74.1524212,154.060059 73.683499,154.060059 C73.2145769,154.060059 72.8148459,154.04097 72.4842942,154.002792 C72.1537426,153.964613 71.7693859,153.907346 71.3312127,153.830989 C70.8930396,153.754632 70.5740235,153.701183 70.3741551,153.67064 L70.3741551,151.883894 Z M79.2298211,140.006618 C78.9530801,139.724097 78.8147117,139.395767 78.8147117,139.021617 C78.8147117,138.647467 78.9530801,138.330591 79.2298211,138.070977 C79.506562,137.811363 79.8294217,137.681558 80.1984095,137.681558 C80.5673974,137.681558 80.8902571,137.811363 81.166998,138.070977 C81.443739,138.330591 81.5821073,138.647467 81.5821073,139.021617 C81.5821073,139.395767 81.443739,139.724097 81.166998,140.006618 C80.8902571,140.289139 80.5673974,140.430397 80.1984095,140.430397 C79.8294217,140.430397 79.506562,140.289139 79.2298211,140.006618 Z M79.1836978,152.616919 L79.1836978,141.598654 C80.2137891,141.598654 80.8133855,141.655921 80.982505,141.770456 C81.1516245,141.884992 81.2361829,142.285861 81.2361829,142.973074 L81.2361829,153.991338 C80.2060916,153.991338 79.6064952,153.934071 79.4373758,153.819535 C79.2682563,153.705 79.1836978,153.304132 79.1836978,152.616919 Z M83.8882704,147.783542 C83.8882704,146.653458 83.899801,145.836451 83.9228628,145.332494 C83.9459246,144.828538 84.0151088,144.259686 84.1304175,143.625923 C84.2457262,142.99216 84.434061,142.553113 84.6954274,142.308771 C85.3104074,141.728458 86.2559247,141.438305 87.532008,141.438305 L88.8234592,141.896445 L88.8234592,137.406674 C89.8535506,137.406674 90.4531469,137.463941 90.6222664,137.578477 C90.7913859,137.693012 90.8759443,138.101516 90.8759443,138.804 L90.8759443,153.89971 C89.9534746,153.89971 89.3846267,153.861532 89.1693837,153.785175 C88.9541407,153.708818 88.8388338,153.487386 88.8234592,153.120872 L87.4166998,154.060059 C86.2021145,154.060059 85.2796585,153.777542 84.6493042,153.2125 C84.2341928,152.830715 83.9882045,151.838089 83.9113321,150.234591 C83.8959575,149.730635 83.8882704,148.913626 83.8882704,147.783542 Z M89.0540755,151.357034 L88.8234592,150.624009 L88.8234592,144.484935 L89.0310139,143.84354 L87.2322067,143.385399 C86.6479759,143.431214 86.2866806,143.751909 86.1483102,144.347494 C86.0099397,144.943078 85.9407555,146.126595 85.9407555,147.898078 C85.9407555,149.66956 86.0099397,150.784356 86.1483102,151.242499 C86.3174296,151.807541 86.686412,152.097693 87.2552684,152.112965 L89.0540755,151.357034 Z M97.5407555,144.439121 L97.5638171,143.820633 C97.5638171,143.606832 97.5407557,143.492299 97.4946322,143.477027 C97.4485087,143.461756 97.3946988,143.427396 97.3332008,143.373946 C97.2717028,143.320496 97.1909879,143.309043 97.0910537,143.339586 C96.9911195,143.370129 96.8719689,143.377764 96.7335984,143.362493 L95.4882704,143.522842 C95.1654059,143.568656 94.8886692,143.591563 94.6580517,143.591563 C94.4274342,143.591563 94.2506302,143.538113 94.1276342,143.431213 C94.0046382,143.324314 93.8816441,142.835636 93.7586481,141.965166 L96.4337972,141.438305 C97.5253865,141.438305 98.2095413,141.518478 98.4862823,141.678829 C98.7630233,141.839178 98.9628887,141.972801 99.0858847,142.079701 C99.2088806,142.186601 99.2934391,142.400397 99.3395627,142.721097 C99.4164351,143.118153 99.4548708,143.744271 99.4548708,144.59947 L99.4548708,153.89971 C98.56315,153.89971 98.0019892,153.853896 97.7713717,153.762268 C97.5407543,153.67064 97.4177602,153.449207 97.4023857,153.097965 L95.4882704,154.060059 C95.0577844,154.060059 94.7387685,154.056242 94.5312127,154.048606 C94.323657,154.04097 94.1161045,153.976067 93.9085487,153.853896 C93.700993,153.731725 93.5626246,153.609555 93.4934394,153.487384 C93.4242541,153.365213 93.3589135,153.105603 93.2974155,152.708546 C93.220543,152.235132 93.1821073,151.265413 93.1821073,149.799358 L93.1821073,148.218776 C93.1821073,146.493107 94.6964726,145.599742 97.7252485,145.538657 L97.5407555,144.988889 L97.5407555,144.439121 Z M95.3499006,152.112965 C95.3652751,152.112965 96.1416755,151.822812 97.6791252,151.242499 L97.4485089,150.578196 L97.4485089,147.852263 L97.633002,147.325402 C97.0026476,147.340674 96.449174,147.401758 95.9725646,147.508658 C95.4959552,147.615559 95.2576541,147.760634 95.2576541,147.943892 L95.2345924,150.967615 C95.2345924,151.731185 95.2730281,152.112965 95.3499006,152.112965 Z" id="Konsumtionens-baksid" fill="#D3D3D3"></path>
            <g id="Group-45" transform="translate(115.263158, 134.120855)">
                <g id="Group-10">
                    <rect id="Rectangle" fill="#D7DECC" x="0" y="0" width="16.5714286" height="6.15143699"></rect>
                    <path d="M15.5022719,0.565649379 C15.488564,0.610456546 15.481203,0.65792287 15.481203,0.707061723 C15.481203,0.980411309 15.7089879,1.20200493 15.9899749,1.20200493 L15.9899749,5.23225675 C15.7089879,5.23225675 15.481203,5.45385037 15.481203,5.72719996 L1.23043665,5.72719996 C1.23383212,5.70410711 1.23558898,5.68050004 1.23558898,5.65649379 C1.23558898,5.40715046 1.04605647,5.2008716 0.799498747,5.16656286 L0.799498747,1.19699265 C0.823236808,1.20029582 0.847503462,1.20200493 0.872180451,1.20200493 C1.15316743,1.20200493 1.38095238,0.980411309 1.38095238,0.707061723 C1.38095238,0.65792287 1.37359136,0.610456546 1.35988351,0.565649379 L15.5022719,0.565649379 Z" id="Combined-Shape" fill="#9EA989"></path>
                </g>
                <ellipse id="Oval-5" fill="#D8DECB" cx="8.72180451" cy="3.0757185" rx="1.7443609" ry="2.19694178"></ellipse>
                <ellipse id="Oval-6" fill="#758060" opacity="0.565904018" cx="13.0827068" cy="2.63633014" rx="1" ry="1"></ellipse>
                <ellipse id="Oval-6" fill="#758060" opacity="0.565904018" cx="4.36090226" cy="2.63633014" rx="1" ry="1"></ellipse>
                <g id="Group-10" transform="translate(0.000000, 3.515107)">
                    <rect id="Rectangle" fill="#D7DECC" x="0" y="0" width="16.5714286" height="6.15143699"></rect>
                    <path d="M15.5022719,0.565649379 C15.488564,0.610456546 15.481203,0.65792287 15.481203,0.707061723 C15.481203,0.980411309 15.7089879,1.20200493 15.9899749,1.20200493 L15.9899749,5.23225675 C15.7089879,5.23225675 15.481203,5.45385037 15.481203,5.72719996 L1.23043665,5.72719996 C1.23383212,5.70410711 1.23558898,5.68050004 1.23558898,5.65649379 C1.23558898,5.40715046 1.04605647,5.2008716 0.799498747,5.16656286 L0.799498747,1.19699265 C0.823236808,1.20029582 0.847503462,1.20200493 0.872180451,1.20200493 C1.15316743,1.20200493 1.38095238,0.980411309 1.38095238,0.707061723 C1.38095238,0.65792287 1.37359136,0.610456546 1.35988351,0.565649379 L15.5022719,0.565649379 Z" id="Combined-Shape" fill="#9EA989"></path>
                </g>
                <ellipse id="Oval-6" fill="#758060" opacity="0.565904018" cx="13.0827068" cy="6.15143699" rx="1" ry="1"></ellipse>
                <ellipse id="Oval-6" fill="#758060" opacity="0.565904018" cx="4.36090226" cy="6.15143699" rx="1" ry="1"></ellipse>
                <ellipse id="Oval-5" fill="#D8DECB" cx="8.72180451" cy="6.59082535" rx="1.7443609" ry="2.19694178"></ellipse>
                <g id="Group-10" transform="translate(0.000000, 6.151437)">
                    <rect id="Rectangle" fill="#D7DECC" x="0" y="0" width="16.5714286" height="6.15143699"></rect>
                    <path d="M15.5022719,0.565649379 C15.488564,0.610456546 15.481203,0.65792287 15.481203,0.707061723 C15.481203,0.980411309 15.7089879,1.20200493 15.9899749,1.20200493 L15.9899749,5.23225675 C15.7089879,5.23225675 15.481203,5.45385037 15.481203,5.72719996 L1.23043665,5.72719996 C1.23383212,5.70410711 1.23558898,5.68050004 1.23558898,5.65649379 C1.23558898,5.40715046 1.04605647,5.2008716 0.799498747,5.16656286 L0.799498747,1.19699265 C0.823236808,1.20029582 0.847503462,1.20200493 0.872180451,1.20200493 C1.15316743,1.20200493 1.38095238,0.980411309 1.38095238,0.707061723 C1.38095238,0.65792287 1.37359136,0.610456546 1.35988351,0.565649379 L15.5022719,0.565649379 Z" id="Combined-Shape" fill="#9EA989"></path>
                </g>
                <ellipse id="Oval-5" fill="#D8DECB" cx="8.72180451" cy="9.22715549" rx="1.7443609" ry="2.19694178"></ellipse>
                <ellipse id="Oval-6" fill="#758060" opacity="0.565904018" cx="13.0827068" cy="8.78776713" rx="1" ry="1"></ellipse>
                <ellipse id="Oval-6" fill="#758060" opacity="0.565904018" cx="4.36090226" cy="8.78776713" rx="1" ry="1"></ellipse>
                <g id="Group-10" transform="translate(0.000000, 9.666544)">
                    <rect id="Rectangle" fill="#D7DECC" x="0" y="0" width="16.5714286" height="6.15143699"></rect>
                    <path d="M15.5022719,0.565649379 C15.488564,0.610456546 15.481203,0.65792287 15.481203,0.707061723 C15.481203,0.980411309 15.7089879,1.20200493 15.9899749,1.20200493 L15.9899749,5.23225675 C15.7089879,5.23225675 15.481203,5.45385037 15.481203,5.72719996 L1.23043665,5.72719996 C1.23383212,5.70410711 1.23558898,5.68050004 1.23558898,5.65649379 C1.23558898,5.40715046 1.04605647,5.2008716 0.799498747,5.16656286 L0.799498747,1.19699265 C0.823236808,1.20029582 0.847503462,1.20200493 0.872180451,1.20200493 C1.15316743,1.20200493 1.38095238,0.980411309 1.38095238,0.707061723 C1.38095238,0.65792287 1.37359136,0.610456546 1.35988351,0.565649379 L15.5022719,0.565649379 Z" id="Combined-Shape" fill="#9EA989"></path>
                </g>
                <ellipse id="Oval-5" fill="#D8DECB" cx="8.72180451" cy="12.7422623" rx="1.7443609" ry="2.19694178"></ellipse>
                <ellipse id="Oval-6" fill="#758060" opacity="0.565904018" cx="13.0827068" cy="12.302874" rx="1" ry="1"></ellipse>
                <ellipse id="Oval-6" fill="#758060" opacity="0.565904018" cx="4.36090226" cy="12.302874" rx="1" ry="1"></ellipse>
                <g id="Group-10" transform="translate(0.000000, 12.302874)">
                    <rect id="Rectangle" fill="#D7DECC" x="0" y="0" width="16.5714286" height="6.15143699"></rect>
                    <path d="M15.5022719,0.565649379 C15.488564,0.610456546 15.481203,0.65792287 15.481203,0.707061723 C15.481203,0.980411309 15.7089879,1.20200493 15.9899749,1.20200493 L15.9899749,5.23225675 C15.7089879,5.23225675 15.481203,5.45385037 15.481203,5.72719996 L1.23043665,5.72719996 C1.23383212,5.70410711 1.23558898,5.68050004 1.23558898,5.65649379 C1.23558898,5.40715046 1.04605647,5.2008716 0.799498747,5.16656286 L0.799498747,1.19699265 C0.823236808,1.20029582 0.847503462,1.20200493 0.872180451,1.20200493 C1.15316743,1.20200493 1.38095238,0.980411309 1.38095238,0.707061723 C1.38095238,0.65792287 1.37359136,0.610456546 1.35988351,0.565649379 L15.5022719,0.565649379 Z" id="Combined-Shape" fill="#9EA989"></path>
                </g>
                <ellipse id="Oval-5" fill="#D8DECB" cx="8.72180451" cy="15.3785925" rx="1.7443609" ry="2.19694178"></ellipse>
                <ellipse id="Oval-6" fill="#758060" opacity="0.565904018" cx="13.0827068" cy="14.9392041" rx="1" ry="1"></ellipse>
                <ellipse id="Oval-6" fill="#758060" opacity="0.565904018" cx="4.36090226" cy="14.9392041" rx="1" ry="1"></ellipse>
            </g>
            <g id="Group-11" transform="translate(102.000000, 130.000000)">
                <path d="M8.94231219,11.5448619 C8.58027925,12.5728637 4.62832124,16.6437358 4.23588388,19.7688766 C3.84344653,22.8940174 3.20209403,24.7897935 7.05974087,26.5365553 C10.9173877,28.2833172 14.3319661,26.4550923 15.9657514,25.0802194 C17.5995366,23.7053465 18.0532173,21.3695063 17.3414766,17.8842065 C16.6297358,14.3989067 14.0331289,13.4885853 13.3591141,12.3158633 C12.909771,11.5340486 12.5960091,10.5346024 12.4178285,9.31752458 C13.7500183,8.03866588 14.4740842,7.12488647 14.5900262,6.57618636 C14.763939,5.7531362 13.6358875,5.76818189 13.3591141,4.86284997 C13.0823408,3.95751805 13.9528168,3.25227659 13.3591141,2.54984584 C12.7654115,1.84741509 12.1700807,1.87545237 11.4041362,2.54984584 C10.6381918,3.22423931 11.3023984,4.50668243 10.2456308,5.29118407 C9.18886318,6.0756857 8.14835083,5.11494364 7.71140017,5.29118407 C7.27444952,5.46742449 6.45986183,4.8018406 7.05974087,6.57618636 C7.45966024,7.75908353 8.20786166,8.90130779 9.30434514,10.0028591 C9.30434514,10.3455264 9.18366749,10.8595273 8.94231219,11.5448619 Z" id="Path-26" fill="#8F7A68" transform="translate(10.801429, 14.643022) rotate(-16.000000) translate(-10.801429, -14.643022) "></path>
                <path d="M12.8777971,21.3593102 L12.8777971,22.7310572 L12.1184246,22.7310572 L12.1184246,21.3875657 C11.8616169,21.3739819 11.6312357,21.3400124 11.4272769,21.2856567 C11.1553648,21.2131912 10.9007601,21.1212171 10.663455,21.0097318 L10.663455,19.8157296 L10.7880395,19.8157296 C11.0233671,20.0275517 11.2868707,20.190318 11.5785582,20.304033 C11.7630643,20.3759632 11.943019,20.4251434 12.1184246,20.4515741 L12.1184246,19.3473043 C11.9850628,19.3142206 11.8580071,19.2752641 11.7372552,19.2304344 C11.3654772,19.0944223 11.0980186,18.9099168 10.9348713,18.6769124 C10.7717241,18.443908 10.6901517,18.1546078 10.6901517,17.8090031 C10.6901517,17.3452241 10.8745547,16.966737 11.2433664,16.6735305 C11.4885246,16.4786289 11.7802093,16.3485062 12.1184246,16.2831612 L12.1184246,15.0252277 L12.8777971,15.0252277 L12.8777971,16.2393934 C13.0963153,16.2511123 13.3128539,16.2809951 13.5274165,16.3290424 C13.8111938,16.3925891 14.0568998,16.4722999 14.2645418,16.5681774 L14.2645418,17.7153559 L14.1429235,17.7153559 C13.9649446,17.5548171 13.7469239,17.4204792 13.4888546,17.3123384 C13.2884472,17.2283601 13.0847626,17.1769896 12.8777971,17.158226 L12.8777971,18.2225795 C12.9077094,18.2296943 12.9373724,18.2367657 12.966786,18.2437939 C13.1160905,18.2794693 13.2767634,18.328522 13.4488096,18.3909539 C13.7869693,18.5158175 14.0366303,18.68583 14.1978,18.9009968 C14.3589698,19.1161635 14.4395534,19.3954302 14.4395534,19.7388051 C14.4395534,20.2293407 14.2551503,20.6278948 13.8863387,20.9344795 C13.619338,21.1564311 13.2831593,21.2980407 12.8777971,21.3593102 Z M12.8777971,20.4194587 C12.910972,20.4101508 12.9411293,20.3995468 12.9682692,20.3876466 C13.055281,20.3475119 13.1269659,20.2973442 13.1833258,20.2371421 C13.2396858,20.17694 13.2678654,20.0877531 13.2678654,19.9695786 C13.2678654,19.860323 13.226832,19.7661193 13.144764,19.6869646 C13.0797009,19.6242113 12.9907125,19.5730203 12.8777971,19.5333906 L12.8777971,20.4194587 Z M12.1184246,17.2655516 C12.0519799,17.298697 11.9941375,17.345508 11.9448961,17.4059856 C11.8895249,17.4739917 11.8618397,17.5514729 11.8618397,17.6384314 C11.8618397,17.7699841 11.9063337,17.8708769 11.9953232,17.9411126 C12.0265913,17.9657913 12.067625,17.9897128 12.1184246,18.0128774 L12.1184246,17.2655484 L12.1184246,17.2655516 Z" id="Combined-Shape" fill="#4A4A4A" transform="translate(12.551504, 18.878142) rotate(-16.000000) translate(-12.551504, -18.878142) "></path>
            </g>
            <g id="Group-13" transform="translate(123.000000, 141.000000)">
                <g id="Group-6" transform="translate(7.000000, 7.500000) scale(-1, 1) translate(-7.000000, -7.500000) translate(3.000000, 0.000000)">
                    <path d="M1.03191489,12.1340329 L1.03191489,11.5068493 L1.2460498,11.5068493 C1.707098,10.6202403 2.76663006,10 4,10 C5.23336993,10 6.29290199,10.6202403 6.7539502,11.5068493 L7,11.5068493 L7,12.8082192 L6.97742591,12.8082192 C6.79517333,14.0435133 5.53162632,15 4,15 C2.34314575,15 1,13.8807119 1,12.5 C1,12.3756829 1.01088877,12.2534851 1.03191489,12.1340329 Z" id="Combined-Shape" fill="#A19609" transform="translate(4.000000, 12.500000) scale(-1, 1) translate(-4.000000, -12.500000) "></path>
                    <ellipse id="Oval-8" fill="#DCBC3F" transform="translate(4.000000, 11.500000) scale(-1, 1) translate(-4.000000, -11.500000) " cx="4" cy="11.5" rx="3" ry="2.5"></ellipse>
                    <path d="M1.03191489,10.1340329 L1.03191489,9.50684931 L1.2460498,9.50684931 C1.707098,8.62024032 2.76663006,8 4,8 C5.23336993,8 6.29290199,8.62024032 6.7539502,9.50684931 L7,9.50684931 L7,10.8082192 L6.97742591,10.8082192 C6.79517333,12.0435133 5.53162632,13 4,13 C2.34314575,13 1,11.8807119 1,10.5 C1,10.3756829 1.01088877,10.2534851 1.03191489,10.1340329 Z" id="Combined-Shape" fill="#A19609" transform="translate(4.000000, 10.500000) scale(-1, 1) translate(-4.000000, -10.500000) "></path>
                    <ellipse id="Oval-8" fill="#DCBC3F" transform="translate(4.000000, 9.500000) scale(-1, 1) translate(-4.000000, -9.500000) " cx="4" cy="9.5" rx="3" ry="2.5"></ellipse>
                    <path d="M0.0319148936,8.13403286 L0.0319148936,7.50684931 L0.246049798,7.50684931 C0.707097999,6.62024032 1.76663006,6 3,6 C4.23336993,6 5.29290199,6.62024032 5.7539502,7.50684931 L6,7.50684931 L6,8.80821918 L5.97742591,8.80821918 C5.79517333,10.0435133 4.53162632,11 3,11 C1.34314575,11 0,9.88071188 0,8.5 C0,8.37568288 0.0108887717,8.25348511 0.0319148936,8.13403286 Z" id="Combined-Shape" fill="#A19609" transform="translate(3.000000, 8.500000) scale(-1, 1) translate(-3.000000, -8.500000) "></path>
                    <ellipse id="Oval-8" fill="#DCBC3F" transform="translate(3.000000, 7.500000) scale(-1, 1) translate(-3.000000, -7.500000) " cx="3" cy="7.5" rx="3" ry="2.5"></ellipse>
                    <path d="M1.03191489,7.13403286 L1.03191489,6.50684931 L1.2460498,6.50684931 C1.707098,5.62024032 2.76663006,5 4,5 C5.23336993,5 6.29290199,5.62024032 6.7539502,6.50684931 L7,6.50684931 L7,7.80821918 L6.97742591,7.80821918 C6.79517333,9.04351331 5.53162632,10 4,10 C2.34314575,10 1,8.88071188 1,7.5 C1,7.37568288 1.01088877,7.25348511 1.03191489,7.13403286 Z" id="Combined-Shape" fill="#A19609" transform="translate(4.000000, 7.500000) scale(-1, 1) translate(-4.000000, -7.500000) "></path>
                    <ellipse id="Oval-8" fill="#DCBC3F" transform="translate(4.000000, 6.500000) scale(-1, 1) translate(-4.000000, -6.500000) " cx="4" cy="6.5" rx="3" ry="2.5"></ellipse>
                    <path d="M0.0319148936,6.13403286 L0.0319148936,5.50684931 L0.246049798,5.50684931 C0.707097999,4.62024032 1.76663006,4 3,4 C4.23336993,4 5.29290199,4.62024032 5.7539502,5.50684931 L6,5.50684931 L6,6.80821918 L5.97742591,6.80821918 C5.79517333,8.04351331 4.53162632,9 3,9 C1.34314575,9 0,7.88071188 0,6.5 C0,6.37568288 0.0108887717,6.25348511 0.0319148936,6.13403286 Z" id="Combined-Shape" fill="#A19609" transform="translate(3.000000, 6.500000) scale(-1, 1) translate(-3.000000, -6.500000) "></path>
                    <ellipse id="Oval-8" fill="#DCBC3F" transform="translate(3.000000, 5.500000) scale(-1, 1) translate(-3.000000, -5.500000) " cx="3" cy="5.5" rx="3" ry="2.5"></ellipse>
                    <path d="M2.03191489,4.13403286 L2.03191489,3.50684931 L2.2460498,3.50684931 C2.707098,2.62024032 3.76663006,2 5,2 C6.23336993,2 7.29290199,2.62024032 7.7539502,3.50684931 L8,3.50684931 L8,4.80821918 L7.97742591,4.80821918 C7.79517333,6.04351331 6.53162632,7 5,7 C3.34314575,7 2,5.88071188 2,4.5 C2,4.37568288 2.01088877,4.25348511 2.03191489,4.13403286 Z" id="Combined-Shape" fill="#A19609" transform="translate(5.000000, 4.500000) scale(-1, 1) translate(-5.000000, -4.500000) "></path>
                    <ellipse id="Oval-8" fill="#DCBC3F" transform="translate(5.000000, 3.500000) scale(-1, 1) translate(-5.000000, -3.500000) " cx="5" cy="3.5" rx="3" ry="2.5"></ellipse>
                    <path d="M0.0319148936,3.13403286 L0.0319148936,2.50684931 L0.246049798,2.50684931 C0.707097999,1.62024032 1.76663006,1 3,1 C4.23336993,1 5.29290199,1.62024032 5.7539502,2.50684931 L6,2.50684931 L6,3.80821918 L5.97742591,3.80821918 C5.79517333,5.04351331 4.53162632,6 3,6 C1.34314575,6 0,4.88071188 0,3.5 C0,3.37568288 0.0108887717,3.25348511 0.0319148936,3.13403286 Z" id="Combined-Shape" fill="#A19609" transform="translate(3.000000, 3.500000) scale(-1, 1) translate(-3.000000, -3.500000) "></path>
                    <ellipse id="Oval-8" fill="#DCBC3F" transform="translate(3.000000, 2.500000) scale(-1, 1) translate(-3.000000, -2.500000) " cx="3" cy="2.5" rx="3" ry="2.5"></ellipse>
                </g>
                <g id="Group-6" transform="translate(4.000000, 11.500000) scale(-1, 1) translate(-4.000000, -11.500000) translate(0.000000, 4.000000)">
                    <path d="M1.03191489,12.1340329 L1.03191489,11.5068493 L1.2460498,11.5068493 C1.707098,10.6202403 2.76663006,10 4,10 C5.23336993,10 6.29290199,10.6202403 6.7539502,11.5068493 L7,11.5068493 L7,12.8082192 L6.97742591,12.8082192 C6.79517333,14.0435133 5.53162632,15 4,15 C2.34314575,15 1,13.8807119 1,12.5 C1,12.3756829 1.01088877,12.2534851 1.03191489,12.1340329 Z" id="Combined-Shape" fill="#A19609" transform="translate(4.000000, 12.500000) scale(-1, 1) translate(-4.000000, -12.500000) "></path>
                    <ellipse id="Oval-8" fill="#DCBC3F" transform="translate(4.000000, 11.500000) scale(-1, 1) translate(-4.000000, -11.500000) " cx="4" cy="11.5" rx="3" ry="2.5"></ellipse>
                    <path d="M1.03191489,10.1340329 L1.03191489,9.50684931 L1.2460498,9.50684931 C1.707098,8.62024032 2.76663006,8 4,8 C5.23336993,8 6.29290199,8.62024032 6.7539502,9.50684931 L7,9.50684931 L7,10.8082192 L6.97742591,10.8082192 C6.79517333,12.0435133 5.53162632,13 4,13 C2.34314575,13 1,11.8807119 1,10.5 C1,10.3756829 1.01088877,10.2534851 1.03191489,10.1340329 Z" id="Combined-Shape" fill="#A19609" transform="translate(4.000000, 10.500000) scale(-1, 1) translate(-4.000000, -10.500000) "></path>
                    <ellipse id="Oval-8" fill="#DCBC3F" transform="translate(4.000000, 9.500000) scale(-1, 1) translate(-4.000000, -9.500000) " cx="4" cy="9.5" rx="3" ry="2.5"></ellipse>
                    <path d="M0.0319148936,8.13403286 L0.0319148936,7.50684931 L0.246049798,7.50684931 C0.707097999,6.62024032 1.76663006,6 3,6 C4.23336993,6 5.29290199,6.62024032 5.7539502,7.50684931 L6,7.50684931 L6,8.80821918 L5.97742591,8.80821918 C5.79517333,10.0435133 4.53162632,11 3,11 C1.34314575,11 0,9.88071188 0,8.5 C0,8.37568288 0.0108887717,8.25348511 0.0319148936,8.13403286 Z" id="Combined-Shape" fill="#A19609" transform="translate(3.000000, 8.500000) scale(-1, 1) translate(-3.000000, -8.500000) "></path>
                    <ellipse id="Oval-8" fill="#DCBC3F" transform="translate(3.000000, 7.500000) scale(-1, 1) translate(-3.000000, -7.500000) " cx="3" cy="7.5" rx="3" ry="2.5"></ellipse>
                    <path d="M1.03191489,7.13403286 L1.03191489,6.50684931 L1.2460498,6.50684931 C1.707098,5.62024032 2.76663006,5 4,5 C5.23336993,5 6.29290199,5.62024032 6.7539502,6.50684931 L7,6.50684931 L7,7.80821918 L6.97742591,7.80821918 C6.79517333,9.04351331 5.53162632,10 4,10 C2.34314575,10 1,8.88071188 1,7.5 C1,7.37568288 1.01088877,7.25348511 1.03191489,7.13403286 Z" id="Combined-Shape" fill="#A19609" transform="translate(4.000000, 7.500000) scale(-1, 1) translate(-4.000000, -7.500000) "></path>
                    <ellipse id="Oval-8" fill="#DCBC3F" transform="translate(4.000000, 6.500000) scale(-1, 1) translate(-4.000000, -6.500000) " cx="4" cy="6.5" rx="3" ry="2.5"></ellipse>
                    <path d="M0.0319148936,6.13403286 L0.0319148936,5.50684931 L0.246049798,5.50684931 C0.707097999,4.62024032 1.76663006,4 3,4 C4.23336993,4 5.29290199,4.62024032 5.7539502,5.50684931 L6,5.50684931 L6,6.80821918 L5.97742591,6.80821918 C5.79517333,8.04351331 4.53162632,9 3,9 C1.34314575,9 0,7.88071188 0,6.5 C0,6.37568288 0.0108887717,6.25348511 0.0319148936,6.13403286 Z" id="Combined-Shape" fill="#A19609" transform="translate(3.000000, 6.500000) scale(-1, 1) translate(-3.000000, -6.500000) "></path>
                    <ellipse id="Oval-8" fill="#DCBC3F" transform="translate(3.000000, 5.500000) scale(-1, 1) translate(-3.000000, -5.500000) " cx="3" cy="5.5" rx="3" ry="2.5"></ellipse>
                    <path d="M2.03191489,4.13403286 L2.03191489,3.50684931 L2.2460498,3.50684931 C2.707098,2.62024032 3.76663006,2 5,2 C6.23336993,2 7.29290199,2.62024032 7.7539502,3.50684931 L8,3.50684931 L8,4.80821918 L7.97742591,4.80821918 C7.79517333,6.04351331 6.53162632,7 5,7 C3.34314575,7 2,5.88071188 2,4.5 C2,4.37568288 2.01088877,4.25348511 2.03191489,4.13403286 Z" id="Combined-Shape" fill="#A19609" transform="translate(5.000000, 4.500000) scale(-1, 1) translate(-5.000000, -4.500000) "></path>
                    <ellipse id="Oval-8" fill="#DCBC3F" transform="translate(5.000000, 3.500000) scale(-1, 1) translate(-5.000000, -3.500000) " cx="5" cy="3.5" rx="3" ry="2.5"></ellipse>
                    <path d="M0.0319148936,3.13403286 L0.0319148936,2.50684931 L0.246049798,2.50684931 C0.707097999,1.62024032 1.76663006,1 3,1 C4.23336993,1 5.29290199,1.62024032 5.7539502,2.50684931 L6,2.50684931 L6,3.80821918 L5.97742591,3.80821918 C5.79517333,5.04351331 4.53162632,6 3,6 C1.34314575,6 0,4.88071188 0,3.5 C0,3.37568288 0.0108887717,3.25348511 0.0319148936,3.13403286 Z" id="Combined-Shape" fill="#A19609" transform="translate(3.000000, 3.500000) scale(-1, 1) translate(-3.000000, -3.500000) "></path>
                    <ellipse id="Oval-8" fill="#DCBC3F" transform="translate(3.000000, 2.500000) scale(-1, 1) translate(-3.000000, -2.500000) " cx="3" cy="2.5" rx="3" ry="2.5"></ellipse>
                </g>
                <g id="Group-6" transform="translate(15.000000, 9.500000) scale(-1, 1) translate(-15.000000, -9.500000) translate(11.000000, 2.000000)">
                    <path d="M1.03191489,12.1340329 L1.03191489,11.5068493 L1.2460498,11.5068493 C1.707098,10.6202403 2.76663006,10 4,10 C5.23336993,10 6.29290199,10.6202403 6.7539502,11.5068493 L7,11.5068493 L7,12.8082192 L6.97742591,12.8082192 C6.79517333,14.0435133 5.53162632,15 4,15 C2.34314575,15 1,13.8807119 1,12.5 C1,12.3756829 1.01088877,12.2534851 1.03191489,12.1340329 Z" id="Combined-Shape" fill="#A19609" transform="translate(4.000000, 12.500000) scale(-1, 1) translate(-4.000000, -12.500000) "></path>
                    <ellipse id="Oval-8" fill="#DCBC3F" transform="translate(4.000000, 11.500000) scale(-1, 1) translate(-4.000000, -11.500000) " cx="4" cy="11.5" rx="3" ry="2.5"></ellipse>
                    <path d="M1.03191489,10.1340329 L1.03191489,9.50684931 L1.2460498,9.50684931 C1.707098,8.62024032 2.76663006,8 4,8 C5.23336993,8 6.29290199,8.62024032 6.7539502,9.50684931 L7,9.50684931 L7,10.8082192 L6.97742591,10.8082192 C6.79517333,12.0435133 5.53162632,13 4,13 C2.34314575,13 1,11.8807119 1,10.5 C1,10.3756829 1.01088877,10.2534851 1.03191489,10.1340329 Z" id="Combined-Shape" fill="#A19609" transform="translate(4.000000, 10.500000) scale(-1, 1) translate(-4.000000, -10.500000) "></path>
                    <ellipse id="Oval-8" fill="#DCBC3F" transform="translate(4.000000, 9.500000) scale(-1, 1) translate(-4.000000, -9.500000) " cx="4" cy="9.5" rx="3" ry="2.5"></ellipse>
                    <path d="M0.0319148936,8.13403286 L0.0319148936,7.50684931 L0.246049798,7.50684931 C0.707097999,6.62024032 1.76663006,6 3,6 C4.23336993,6 5.29290199,6.62024032 5.7539502,7.50684931 L6,7.50684931 L6,8.80821918 L5.97742591,8.80821918 C5.79517333,10.0435133 4.53162632,11 3,11 C1.34314575,11 0,9.88071188 0,8.5 C0,8.37568288 0.0108887717,8.25348511 0.0319148936,8.13403286 Z" id="Combined-Shape" fill="#A19609" transform="translate(3.000000, 8.500000) scale(-1, 1) translate(-3.000000, -8.500000) "></path>
                    <ellipse id="Oval-8" fill="#DCBC3F" transform="translate(3.000000, 7.500000) scale(-1, 1) translate(-3.000000, -7.500000) " cx="3" cy="7.5" rx="3" ry="2.5"></ellipse>
                    <path d="M1.03191489,7.13403286 L1.03191489,6.50684931 L1.2460498,6.50684931 C1.707098,5.62024032 2.76663006,5 4,5 C5.23336993,5 6.29290199,5.62024032 6.7539502,6.50684931 L7,6.50684931 L7,7.80821918 L6.97742591,7.80821918 C6.79517333,9.04351331 5.53162632,10 4,10 C2.34314575,10 1,8.88071188 1,7.5 C1,7.37568288 1.01088877,7.25348511 1.03191489,7.13403286 Z" id="Combined-Shape" fill="#A19609" transform="translate(4.000000, 7.500000) scale(-1, 1) translate(-4.000000, -7.500000) "></path>
                    <ellipse id="Oval-8" fill="#DCBC3F" transform="translate(4.000000, 6.500000) scale(-1, 1) translate(-4.000000, -6.500000) " cx="4" cy="6.5" rx="3" ry="2.5"></ellipse>
                    <path d="M0.0319148936,6.13403286 L0.0319148936,5.50684931 L0.246049798,5.50684931 C0.707097999,4.62024032 1.76663006,4 3,4 C4.23336993,4 5.29290199,4.62024032 5.7539502,5.50684931 L6,5.50684931 L6,6.80821918 L5.97742591,6.80821918 C5.79517333,8.04351331 4.53162632,9 3,9 C1.34314575,9 0,7.88071188 0,6.5 C0,6.37568288 0.0108887717,6.25348511 0.0319148936,6.13403286 Z" id="Combined-Shape" fill="#A19609" transform="translate(3.000000, 6.500000) scale(-1, 1) translate(-3.000000, -6.500000) "></path>
                    <ellipse id="Oval-8" fill="#DCBC3F" transform="translate(3.000000, 5.500000) scale(-1, 1) translate(-3.000000, -5.500000) " cx="3" cy="5.5" rx="3" ry="2.5"></ellipse>
                    <path d="M2.03191489,4.13403286 L2.03191489,3.50684931 L2.2460498,3.50684931 C2.707098,2.62024032 3.76663006,2 5,2 C6.23336993,2 7.29290199,2.62024032 7.7539502,3.50684931 L8,3.50684931 L8,4.80821918 L7.97742591,4.80821918 C7.79517333,6.04351331 6.53162632,7 5,7 C3.34314575,7 2,5.88071188 2,4.5 C2,4.37568288 2.01088877,4.25348511 2.03191489,4.13403286 Z" id="Combined-Shape" fill="#A19609" transform="translate(5.000000, 4.500000) scale(-1, 1) translate(-5.000000, -4.500000) "></path>
                    <ellipse id="Oval-8" fill="#DCBC3F" transform="translate(5.000000, 3.500000) scale(-1, 1) translate(-5.000000, -3.500000) " cx="5" cy="3.5" rx="3" ry="2.5"></ellipse>
                    <path d="M0.0319148936,3.13403286 L0.0319148936,2.50684931 L0.246049798,2.50684931 C0.707097999,1.62024032 1.76663006,1 3,1 C4.23336993,1 5.29290199,1.62024032 5.7539502,2.50684931 L6,2.50684931 L6,3.80821918 L5.97742591,3.80821918 C5.79517333,5.04351331 4.53162632,6 3,6 C1.34314575,6 0,4.88071188 0,3.5 C0,3.37568288 0.0108887717,3.25348511 0.0319148936,3.13403286 Z" id="Combined-Shape" fill="#A19609" transform="translate(3.000000, 3.500000) scale(-1, 1) translate(-3.000000, -3.500000) "></path>
                    <ellipse id="Oval-8" fill="#DCBC3F" transform="translate(3.000000, 2.500000) scale(-1, 1) translate(-3.000000, -2.500000) " cx="3" cy="2.5" rx="3" ry="2.5"></ellipse>
                </g>
                <g id="Group-6" transform="translate(7.000000, 6.000000)">
                    <path d="M1.03191489,12.1340329 L1.03191489,11.5068493 L1.2460498,11.5068493 C1.707098,10.6202403 2.76663006,10 4,10 C5.23336993,10 6.29290199,10.6202403 6.7539502,11.5068493 L7,11.5068493 L7,12.8082192 L6.97742591,12.8082192 C6.79517333,14.0435133 5.53162632,15 4,15 C2.34314575,15 1,13.8807119 1,12.5 C1,12.3756829 1.01088877,12.2534851 1.03191489,12.1340329 Z" id="Combined-Shape" fill="#A19609" transform="translate(4.000000, 12.500000) scale(-1, 1) translate(-4.000000, -12.500000) "></path>
                    <ellipse id="Oval-8" fill="#DCBC3F" transform="translate(4.000000, 11.500000) scale(-1, 1) translate(-4.000000, -11.500000) " cx="4" cy="11.5" rx="3" ry="2.5"></ellipse>
                    <path d="M1.03191489,10.1340329 L1.03191489,9.50684931 L1.2460498,9.50684931 C1.707098,8.62024032 2.76663006,8 4,8 C5.23336993,8 6.29290199,8.62024032 6.7539502,9.50684931 L7,9.50684931 L7,10.8082192 L6.97742591,10.8082192 C6.79517333,12.0435133 5.53162632,13 4,13 C2.34314575,13 1,11.8807119 1,10.5 C1,10.3756829 1.01088877,10.2534851 1.03191489,10.1340329 Z" id="Combined-Shape" fill="#A19609" transform="translate(4.000000, 10.500000) scale(-1, 1) translate(-4.000000, -10.500000) "></path>
                    <ellipse id="Oval-8" fill="#DCBC3F" transform="translate(4.000000, 9.500000) scale(-1, 1) translate(-4.000000, -9.500000) " cx="4" cy="9.5" rx="3" ry="2.5"></ellipse>
                    <path d="M0.0319148936,8.13403286 L0.0319148936,7.50684931 L0.246049798,7.50684931 C0.707097999,6.62024032 1.76663006,6 3,6 C4.23336993,6 5.29290199,6.62024032 5.7539502,7.50684931 L6,7.50684931 L6,8.80821918 L5.97742591,8.80821918 C5.79517333,10.0435133 4.53162632,11 3,11 C1.34314575,11 0,9.88071188 0,8.5 C0,8.37568288 0.0108887717,8.25348511 0.0319148936,8.13403286 Z" id="Combined-Shape" fill="#A19609" transform="translate(3.000000, 8.500000) scale(-1, 1) translate(-3.000000, -8.500000) "></path>
                    <ellipse id="Oval-8" fill="#DCBC3F" transform="translate(3.000000, 7.500000) scale(-1, 1) translate(-3.000000, -7.500000) " cx="3" cy="7.5" rx="3" ry="2.5"></ellipse>
                    <path d="M1.03191489,7.13403286 L1.03191489,6.50684931 L1.2460498,6.50684931 C1.707098,5.62024032 2.76663006,5 4,5 C5.23336993,5 6.29290199,5.62024032 6.7539502,6.50684931 L7,6.50684931 L7,7.80821918 L6.97742591,7.80821918 C6.79517333,9.04351331 5.53162632,10 4,10 C2.34314575,10 1,8.88071188 1,7.5 C1,7.37568288 1.01088877,7.25348511 1.03191489,7.13403286 Z" id="Combined-Shape" fill="#A19609" transform="translate(4.000000, 7.500000) scale(-1, 1) translate(-4.000000, -7.500000) "></path>
                    <ellipse id="Oval-8" fill="#DCBC3F" transform="translate(4.000000, 6.500000) scale(-1, 1) translate(-4.000000, -6.500000) " cx="4" cy="6.5" rx="3" ry="2.5"></ellipse>
                    <path d="M0.0319148936,6.13403286 L0.0319148936,5.50684931 L0.246049798,5.50684931 C0.707097999,4.62024032 1.76663006,4 3,4 C4.23336993,4 5.29290199,4.62024032 5.7539502,5.50684931 L6,5.50684931 L6,6.80821918 L5.97742591,6.80821918 C5.79517333,8.04351331 4.53162632,9 3,9 C1.34314575,9 0,7.88071188 0,6.5 C0,6.37568288 0.0108887717,6.25348511 0.0319148936,6.13403286 Z" id="Combined-Shape" fill="#A19609" transform="translate(3.000000, 6.500000) scale(-1, 1) translate(-3.000000, -6.500000) "></path>
                    <ellipse id="Oval-8" fill="#DCBC3F" transform="translate(3.000000, 5.500000) scale(-1, 1) translate(-3.000000, -5.500000) " cx="3" cy="5.5" rx="3" ry="2.5"></ellipse>
                    <path d="M2.03191489,4.13403286 L2.03191489,3.50684931 L2.2460498,3.50684931 C2.707098,2.62024032 3.76663006,2 5,2 C6.23336993,2 7.29290199,2.62024032 7.7539502,3.50684931 L8,3.50684931 L8,4.80821918 L7.97742591,4.80821918 C7.79517333,6.04351331 6.53162632,7 5,7 C3.34314575,7 2,5.88071188 2,4.5 C2,4.37568288 2.01088877,4.25348511 2.03191489,4.13403286 Z" id="Combined-Shape" fill="#A19609" transform="translate(5.000000, 4.500000) scale(-1, 1) translate(-5.000000, -4.500000) "></path>
                    <ellipse id="Oval-8" fill="#DCBC3F" transform="translate(5.000000, 3.500000) scale(-1, 1) translate(-5.000000, -3.500000) " cx="5" cy="3.5" rx="3" ry="2.5"></ellipse>
                    <path d="M0.0319148936,3.13403286 L0.0319148936,2.50684931 L0.246049798,2.50684931 C0.707097999,1.62024032 1.76663006,1 3,1 C4.23336993,1 5.29290199,1.62024032 5.7539502,2.50684931 L6,2.50684931 L6,3.80821918 L5.97742591,3.80821918 C5.79517333,5.04351331 4.53162632,6 3,6 C1.34314575,6 0,4.88071188 0,3.5 C0,3.37568288 0.0108887717,3.25348511 0.0319148936,3.13403286 Z" id="Combined-Shape" fill="#A19609" transform="translate(3.000000, 3.500000) scale(-1, 1) translate(-3.000000, -3.500000) "></path>
                    <ellipse id="Oval-8" fill="#DCBC3F" transform="translate(3.000000, 2.500000) scale(-1, 1) translate(-3.000000, -2.500000) " cx="3" cy="2.5" rx="3" ry="2.5"></ellipse>
                </g>
            </g>
        </g>
    </g>
</svg>