<?xml version="1.0" encoding="UTF-8"?>
<svg width="1465px" height="144px" viewBox="0 0 1465 144" version="1.1" xmlns="http://www.w3.org/2000/svg" xmlns:xlink="http://www.w3.org/1999/xlink">
    <!-- Generator: Sketch 50.2 (55047) - http://www.bohemiancoding.com/sketch -->
    <title>Group 16</title>
    <desc>Created with Sketch.</desc>
    <defs></defs>
    <g id="Page-1" stroke="none" stroke-width="1" fill="none" fill-rule="evenodd">
        <g id="Group-16" fill="#000000">
            <g id="Group-14">
                <path d="M85.2126123,140.981956 L85.2126123,141.006371 L0.349782085,141.006371 L0.349782085,140.991932 L0,140.991932 L0,46.0878824 L7.9671411,37.0187184 L7.9671411,133.111245 L82.9663976,133.111245 L93.5171777,118.828312 C92.7673253,119.116184 92.0039079,119.3962 91.2269252,119.668359 C83.7511851,122.286935 74.6402635,122.761426 63.893887,122.761426 L47.4617153,122.761426 L23.2100719,123.295082 L23.1628922,123.397124 L18.5728313,123.397124 L17.9193197,123.411504 L17.9193197,123.397124 L17.6017286,123.397124 L17.6017286,25.7296433 L25.5688697,16.6604793 L25.5688697,115.548399 L68.4996585,115.548399 C89.2715277,112.891475 103.067302,106.527144 109.88698,96.4554065 C126.940915,71.2690646 123.514164,42.9664993 107.370545,24.5522853 C91.2269252,6.13807132 67.7666551,7.01493865 59.8458773,7.01493865 C54.5653587,7.01493865 50.7516508,7.01493865 48.4047537,7.01493865 L31.6831115,7.01493865 L37.8437165,0 L63.893887,0 C74.6402635,0 83.7511851,1.30926873 91.2269252,3.92784547 C98.7026653,6.54642221 104.922621,9.89233119 109.88698,13.9656728 C114.851339,18.0390144 118.764363,22.5487178 121.62617,27.4949183 C124.487976,32.4411188 126.590497,37.1835811 127.933794,41.7224474 C129.277091,46.2613138 130.123939,50.3636891 130.474365,54.0296966 C130.82479,57.695704 131,60.2851466 131,61.7981021 C131,63.3110575 130.82479,65.9005001 130.474365,69.5665076 C130.123939,73.232515 129.277091,77.3348903 127.933794,81.8737567 C126.590497,86.412623 124.487976,91.1550853 121.62617,96.1012858 C118.764363,101.047486 114.851339,105.55719 109.88698,109.630531 C109.079288,110.293257 108.238358,110.936727 107.364192,111.560942 L85.3683838,140.991932 L85.2126123,140.981956 Z" id="Combined-Shape"></path>
                <path d="M36,18 L63.6478405,18 C71.3909579,18 77.9556763,18.9427872 83.3421927,20.8283898 C88.7287091,22.7139925 93.2103919,25.1233375 96.7873754,28.0564972 C100.364359,30.9896569 103.183821,34.2370349 105.245847,37.7987288 C107.307873,41.3604227 108.822808,44.7754074 109.790698,48.0437853 C110.758587,51.3121632 111.36877,54.2662297 111.621262,56.9060734 C111.873755,59.5459172 112,61.4105407 112,62.5 C112,63.5894593 111.873755,65.4540828 111.621262,68.0939266 C111.36877,70.7337703 110.758587,73.6878368 109.790698,76.9562147 C108.822808,80.2245926 107.307873,83.6395773 105.245847,87.2012712 C103.183821,90.7629651 100.364359,94.0103431 96.7873754,96.9435028 C93.2103919,99.8766625 88.7287091,102.286008 83.3421927,104.17161 C77.9556763,106.057213 71.3909579,107 63.6478405,107 L36,107 L36,18 Z M44.3322259,99.4576271 L61.5016611,99.4576271 C67.3931635,99.4576271 72.9058437,98.7243482 78.0398671,97.2577684 C83.1738906,95.7911885 87.6345326,93.5494501 91.4219269,90.5324859 C95.2093213,87.5155216 98.1971098,83.6815204 100.385382,79.0303672 C102.573654,74.379214 103.667774,68.8691467 103.667774,62.5 C103.667774,56.1308533 102.573654,50.620786 100.385382,45.9696328 C98.1971098,41.3184796 95.2093213,37.4844784 91.4219269,34.4675141 C87.6345326,31.4505499 83.1738906,29.2088115 78.0398671,27.7422316 C72.9058437,26.2756518 67.3931635,25.5423729 61.5016611,25.5423729 L44.3322259,25.5423729 L44.3322259,99.4576271 Z" id="D"></path>
            </g>
            <path d="M248.6,132.4 L248.6,141.6 L173,141.6 L173,2.2 L183,2.2 L183,132.4 L248.6,132.4 Z M269.4,2.2 L279.4,2.2 L279.4,141.6 L269.4,141.6 L269.4,2.2 Z M413,2.2 L413,141.6 L392.2,141.6 L329,11.2 L325.2,11.2 L325.2,141.6 L315.2,141.6 L315.2,2.2 L336.2,2.2 L398.8,132.6 L403.2,132.6 L403.2,2.2 L413,2.2 Z M546.8,2.2 L546.8,141.6 L526,141.6 L462.8,11.2 L459,11.2 L459,141.6 L449,141.6 L449,2.2 L470,2.2 L532.6,132.6 L537,132.6 L537,2.2 L546.8,2.2 Z M672.4,21.6 C678.800032,34.533398 682,49.99991 682,68 C682,93.200126 677.766709,111.766607 669.3,123.7 C660.833291,135.633393 649.000076,141.6 633.8,141.6 L582.8,141.6 L582.8,2.2 L633.8,2.2 C653.13343,2.2 665.999968,8.666602 672.4,21.6 Z M653.6,125.6 C659.333362,120.93331 663.799984,113.966713 667,104.7 C670.200016,95.433287 671.8,84.066734 671.8,70.6 C671.8,50.466566 668.433367,35.533382 661.7,25.8 C654.966633,16.066618 645.666726,11.2 633.8,11.2 L592.8,11.2 L592.8,132.6 L633.8,132.6 C641.266704,132.6 647.866638,130.26669 653.6,125.6 Z M722.4,11.2 L722.4,66 L783,66 L783,75 L722.4,75 L722.4,132.6 L795,132.6 L795,141.6 L712.4,141.6 L712.4,2.2 L795,2.2 L795,11.2 L722.4,11.2 Z M823,140.4 L815.8,139.6 L816.8,130.4 C835.200092,132.800012 849.06662,134 858.4,134 C880.533444,134 891.6,123.266774 891.6,101.8 C891.6,95.933304 890.733342,91.366683 889,88.1 C887.266658,84.833317 884.033357,82.166677 879.3,80.1 C874.566643,78.033323 867.53338,76.200008 858.2,74.6 C846.999944,72.59999 838.366697,70.26668 832.3,67.6 C826.233303,64.93332 821.800014,61.133358 819,56.2 C816.199986,51.266642 814.8,44.46671 814.8,35.8 C814.8,23.79994 818.366631,14.833363 825.5,8.9 C832.633369,2.966637 843.666592,0 858.6,0 C869.533388,0 882.99992,1.133322 899,3.4 L898,12.6 C879.066572,10.333322 866.000036,9.2 858.8,9.2 C836.399888,9.2 825.2,17.86658 825.2,35.2 C825.2,42.133368 826.033325,47.26665 827.7,50.6 C829.366675,53.93335 832.666642,56.59999 837.6,58.6 C842.533358,60.60001 850.66661,62.733322 862,65 C872.133384,66.866676 879.999972,69.099987 885.6,71.7 C891.200028,74.300013 895.299987,77.866644 897.9,82.4 C900.500013,86.933356 901.8,93.066628 901.8,100.8 C901.8,115.200072 898.333368,125.866632 891.4,132.8 C884.466632,139.733368 873.600074,143.2 858.8,143.2 C849.866622,143.2 837.933408,142.266676 823,140.4 Z M930.4,2.2 L940.4,2.2 L940.4,141.6 L930.4,141.6 L930.4,2.2 Z M992.4,135.7 C984.666628,130.566641 979.100017,122.800052 975.7,112.4 C972.299983,101.999948 970.6,88.600082 970.6,72.2 C970.6,55.666584 972.26665,42.166719 975.6,31.7 C978.93335,21.233281 984.433295,13.400026 992.1,8.2 C999.766705,2.999974 1010.13327,0.4 1023.2,0.4 C1034.80006,0.4 1047.4666,1.666654 1061.2,4.2 L1067.8,5.4 L1067.2,14.4 C1050.39992,11.199984 1035.5334,9.6 1022.6,9.6 C1012.73328,9.6 1004.80003,11.499981 998.8,15.3 C992.79997,19.100019 988.366681,25.399956 985.5,34.2 C982.633319,43.000044 981.2,54.999924 981.2,70.2 C981.2,85.800078 982.499987,98.233287 985.1,107.5 C987.700013,116.766713 992.066636,123.566645 998.2,127.9 C1004.33336,132.233355 1012.93328,134.4 1024,134.4 C1029.46669,134.4 1034.73331,134.100003 1039.8,133.5 C1044.86669,132.899997 1050.86663,131.93334 1057.8,130.6 L1057.8,81 L1030.2,81 L1030.2,71.6 L1067.8,71.6 L1067.8,138.6 C1052.06659,141.800016 1037.26674,143.4 1023.4,143.4 C1010.4666,143.4 1000.13337,140.833359 992.4,135.7 Z M1197.6,2.2 L1197.6,141.6 L1176.8,141.6 L1113.6,11.2 L1109.8,11.2 L1109.8,141.6 L1099.8,141.6 L1099.8,2.2 L1120.8,2.2 L1183.4,132.6 L1187.8,132.6 L1187.8,2.2 L1197.6,2.2 Z M1230,123.4 L1241,123.4 L1241,141.6 L1230,141.6 L1230,123.4 Z M1274.2,140.4 L1267,139.6 L1268,130.4 C1286.40009,132.800012 1300.26662,134 1309.6,134 C1331.73344,134 1342.8,123.266774 1342.8,101.8 C1342.8,95.933304 1341.93334,91.366683 1340.2,88.1 C1338.46666,84.833317 1335.23336,82.166677 1330.5,80.1 C1325.76664,78.033323 1318.73338,76.200008 1309.4,74.6 C1298.19994,72.59999 1289.5667,70.26668 1283.5,67.6 C1277.4333,64.93332 1273.00001,61.133358 1270.2,56.2 C1267.39999,51.266642 1266,44.46671 1266,35.8 C1266,23.79994 1269.56663,14.833363 1276.7,8.9 C1283.83337,2.966637 1294.86659,0 1309.8,0 C1320.73339,0 1334.19992,1.133322 1350.2,3.4 L1349.2,12.6 C1330.26657,10.333322 1317.20004,9.2 1310,9.2 C1287.59989,9.2 1276.4,17.86658 1276.4,35.2 C1276.4,42.133368 1277.23332,47.26665 1278.9,50.6 C1280.56668,53.93335 1283.86664,56.59999 1288.8,58.6 C1293.73336,60.60001 1301.86661,62.733322 1313.2,65 C1323.33338,66.866676 1331.19997,69.099987 1336.8,71.7 C1342.40003,74.300013 1346.49999,77.866644 1349.1,82.4 C1351.70001,86.933356 1353,93.066628 1353,100.8 C1353,115.200072 1349.53337,125.866632 1342.6,132.8 C1335.66663,139.733368 1324.80007,143.2 1310,143.2 C1301.06662,143.2 1289.13341,142.266676 1274.2,140.4 Z M1391.6,11.2 L1391.6,66 L1452.2,66 L1452.2,75 L1391.6,75 L1391.6,132.6 L1464.2,132.6 L1464.2,141.6 L1381.6,141.6 L1381.6,2.2 L1464.2,2.2 L1464.2,11.2 L1391.6,11.2 Z" id="LINNDESIGN.SE"></path>
        </g>
    </g>
</svg>