<?xml version="1.0" encoding="UTF-8"?>
<svg width="1480px" height="262px" viewBox="0 0 1480 262" version="1.1" xmlns="http://www.w3.org/2000/svg" xmlns:xlink="http://www.w3.org/1999/xlink">
    <!-- Generator: Sketch 50.2 (55047) - http://www.bohemiancoding.com/sketch -->
    <title>Group 27</title>
    <desc>Created with Sketch.</desc>
    <defs></defs>
    <g id="Page-1" stroke="none" stroke-width="1" fill="none" fill-rule="evenodd">
        <g id="Group-27">
            <path d="M396,2.39491853 L466.949461,2.39491853 C485.310595,2.39491853 499.081239,7.48406952 508.261806,17.6625242 C517.442373,27.8409788 522.132375,42.9088572 522.331952,62.8666114 L522.930682,183.211268 C523.13026,208.557615 518.73962,227.616985 509.75863,240.389948 C500.777641,253.16291 485.909337,259.549296 465.153273,259.549296 L396,259.549296 L396,2.39491853 Z M456.771058,214.045844 C466.151202,214.045844 470.841204,209.455629 470.841204,200.275062 L470.841204,67.6564485 C470.841204,61.8686998 470.392161,57.5279533 469.494062,54.634079 C468.595963,51.7402046 466.949473,49.7943528 464.554543,48.7964651 C462.159612,47.7985774 458.467483,47.299641 453.478045,47.299641 L447.790113,47.299641 L447.790113,214.045844 L456.771058,214.045844 Z M543.586854,259.549296 L543.586854,2.39491853 L646.568351,2.39491853 L646.568351,52.089478 L595.975697,52.089478 L595.975697,102.083402 L644.472798,102.083402 L644.472798,150.580503 L595.975697,150.580503 L595.975697,209.555371 L649.861364,209.555371 L649.861364,259.549296 L543.586854,259.549296 Z M677.402927,244.581055 C667.024895,233.005558 661.835957,214.345337 661.835957,188.599834 L661.835957,163.45319 L712.428611,163.45319 L712.428611,195.485225 C712.428611,208.258188 716.519889,214.644573 724.702568,214.644573 C729.292852,214.644573 732.486045,213.297445 734.282242,210.603148 C736.07844,207.908851 736.976526,203.368531 736.976526,196.982049 C736.976526,188.599792 735.978653,181.664577 733.982878,176.176194 C731.987102,170.687812 729.442527,166.097597 726.349075,162.405413 C723.255623,158.713228 717.717429,152.97546 709.734328,145.191936 L687.581331,123.03894 C670.417663,106.274426 661.835957,87.713993 661.835957,67.3570837 C661.835957,45.403554 666.875214,28.6891856 676.95388,17.2134769 C687.032546,5.73776827 701.751169,0 721.110191,0 C744.261185,0 760.92566,6.13691737 771.104115,18.4109362 C781.28257,30.684955 786.371721,49.8940053 786.371721,76.0386634 L733.982878,76.0386634 L733.683513,58.3761392 C733.683513,54.983321 732.735534,52.2890646 730.839547,50.2932891 C728.94356,48.2975137 726.299198,47.299641 722.906379,47.299641 C718.914829,47.299641 715.92121,48.397301 713.925435,50.592654 C711.92966,52.7880069 710.931787,55.7816252 710.931787,59.5735985 C710.931787,67.9558552 715.721576,76.6373481 725.301298,85.6183375 L755.23778,114.35736 C762.222994,121.142996 768.010655,127.579275 772.600939,133.66639 C777.191222,139.753506 780.883352,146.938189 783.677437,155.220657 C786.471523,163.503125 787.868545,173.332172 787.868545,184.708092 C787.868545,210.05444 783.228436,229.26349 773.948081,242.335819 C764.667725,255.408148 749.350378,261.944214 727.995581,261.944214 C704.645009,261.944214 687.78096,256.156552 677.402927,244.581055 Z M802.537421,259.549296 L802.537421,2.39491853 L852.23198,2.39491853 L852.23198,259.549296 L802.537421,259.549296 Z M884.413698,242.335819 C875.33292,229.26349 870.792599,209.455716 870.792599,182.911903 L870.792599,72.1469207 C870.792599,48.3971932 876.081324,30.4354839 886.658934,18.2612538 C897.236544,6.08702373 913.002933,0 933.958575,0 C950.922666,0 964.094586,3.39276732 973.474731,10.1784038 C982.854875,16.9640402 989.341048,26.8429803 992.933444,39.8155206 C996.52584,52.7880608 998.32201,69.4525356 998.32201,89.8094449 L948.028721,89.8094449 L948.028721,66.758354 C948.028721,60.5714502 947.18053,55.7816611 945.48412,52.3888429 C943.787711,48.9960246 940.744199,47.299641 936.353494,47.299641 C926.574194,47.299641 921.684618,53.6860265 921.684618,66.4589892 L921.684618,190.994753 C921.684618,198.778277 922.68249,204.665726 924.678266,208.657277 C926.674041,212.648828 930.166596,214.644573 935.156034,214.644573 C940.145473,214.644573 943.638027,212.648828 945.633803,208.657277 C947.629578,204.665726 948.627451,198.778277 948.627451,190.994753 L948.627451,154.17288 L934.856669,154.17288 L934.856669,109.866888 L997.723281,109.866888 L997.723281,259.549296 L977.067109,259.549296 L968.385529,237.995029 C959.204962,253.961232 945.035169,261.944214 925.875725,261.944214 C907.315014,261.944214 893.494476,255.408148 884.413698,242.335819 Z M1018.08009,259.549296 L1018.08009,2.39491853 L1071.06766,2.39491853 L1094.71748,125.433858 L1094.71748,2.39491853 L1144.41204,2.39491853 L1144.41204,259.549296 L1094.11875,259.549296 L1068.37338,130.822425 L1068.37338,259.549296 L1018.08009,259.549296 Z M1163.87075,259.549296 L1163.87075,215.842033 L1216.2596,215.842033 L1216.2596,259.549296 L1163.87075,259.549296 Z M1246.19608,244.581055 C1235.81805,233.005558 1230.62911,214.345337 1230.62911,188.599834 L1230.62911,163.45319 L1281.22176,163.45319 L1281.22176,195.485225 C1281.22176,208.258188 1285.31304,214.644573 1293.49572,214.644573 C1298.086,214.644573 1301.2792,213.297445 1303.07539,210.603148 C1304.87159,207.908851 1305.76968,203.368531 1305.76968,196.982049 C1305.76968,188.599792 1304.7718,181.664577 1302.77603,176.176194 C1300.78025,170.687812 1298.23568,166.097597 1295.14223,162.405413 C1292.04877,158.713228 1286.51058,152.97546 1278.52748,145.191936 L1256.37448,123.03894 C1239.21081,106.274426 1230.62911,87.713993 1230.62911,67.3570837 C1230.62911,45.403554 1235.66837,28.6891856 1245.74703,17.2134769 C1255.8257,5.73776827 1270.54432,0 1289.90334,0 C1313.05434,0 1329.71881,6.13691737 1339.89727,18.4109362 C1350.07572,30.684955 1355.16487,49.8940053 1355.16487,76.0386634 L1302.77603,76.0386634 L1302.47666,58.3761392 C1302.47666,54.983321 1301.52868,52.2890646 1299.6327,50.2932891 C1297.73671,48.2975137 1295.09235,47.299641 1291.69953,47.299641 C1287.70798,47.299641 1284.71436,48.397301 1282.71859,50.592654 C1280.72281,52.7880069 1279.72494,55.7816252 1279.72494,59.5735985 C1279.72494,67.9558552 1284.51473,76.6373481 1294.09445,85.6183375 L1324.03093,114.35736 C1331.01614,121.142996 1336.80381,127.579275 1341.39409,133.66639 C1345.98437,139.753506 1349.6765,146.938189 1352.47059,155.220657 C1355.26467,163.503125 1356.6617,173.332172 1356.6617,184.708092 C1356.6617,210.05444 1352.02159,229.26349 1342.74123,242.335819 C1333.46088,255.408148 1318.14353,261.944214 1296.78873,261.944214 C1273.43816,261.944214 1256.57411,256.156552 1246.19608,244.581055 Z M1373.72549,259.549296 L1373.72549,2.39491853 L1476.70699,2.39491853 L1476.70699,52.089478 L1426.11433,52.089478 L1426.11433,102.083402 L1474.61143,102.083402 L1474.61143,150.580503 L1426.11433,150.580503 L1426.11433,209.555371 L1480,209.555371 L1480,259.549296 L1373.72549,259.549296 Z M0,2.39491853 L396,2.39491853 L396,259.549296 L0,259.549296 L0,2.39491853 Z" id="Combined-Shape" fill="#DCBC3F"></path>
            <path d="M20,238.600957 L20,24 L62.9701567,24 L62.9701567,202.126289 L107.189446,202.126289 L107.189446,238.600957 L20,238.600957 Z M117.182506,238.600957 L117.182506,24 L158.653703,24 L158.653703,238.600957 L117.182506,238.600957 Z M175.891731,238.600957 L175.891731,24 L220.111021,24 L239.847313,126.678688 L239.847313,24 L281.318511,24 L281.318511,238.600957 L239.34766,238.600957 L217.862582,131.175565 L217.862582,238.600957 L175.891731,238.600957 Z M300.305325,238.600957 L300.305325,24 L344.524614,24 L364.260907,126.678688 L364.260907,24 L405.732104,24 L405.732104,238.600957 L363.761254,238.600957 L342.276175,131.175565 L342.276175,238.600957 L300.305325,238.600957 Z" id="LINN" fill="#FFFFFF"></path>
        </g>
    </g>
</svg>