<?xml version="1.0" encoding="UTF-8"?>
<svg width="1450px" height="200px" viewBox="0 0 1450 200" version="1.1" xmlns="http://www.w3.org/2000/svg" xmlns:xlink="http://www.w3.org/1999/xlink">
    <!-- Generator: Sketch 51.3 (57544) - http://www.bohemiancoding.com/sketch -->
    <title>Group</title>
    <desc>Created with Sketch.</desc>
    <defs></defs>
    <g id="Page-1" stroke="none" stroke-width="1" fill="none" fill-rule="evenodd">
        <g id="Group">
            <rect id="Rectangle-2" fill="#417505" fill-rule="nonzero" x="0" y="0" width="1450" height="200" rx="16"></rect>
            <path d="M559.4,128.2 L557,128.2 L557,56.1 L571.3,55 C577.30003,55 581.433322,55.866658 583.7,57.6 C584.566671,58.26667 585.299997,58.866664 585.9,59.4 C586.500003,59.933336 586.999998,60.733328 587.4,61.8 L588.2,64.6 C588.666669,65.866673 588.9,67.533323 588.9,69.6 L588.9,75.4 C588.9,85.000048 587.533347,90.999988 584.8,93.4 C583.599994,94.466672 582.033343,95.099999 580.1,95.3 L596,128.2 L592.7,128.2 C589.36665,128.2 587.100006,127.883336 585.9,127.25 C584.699994,126.616663 583.600005,125.166678 582.6,122.9 L570.3,95.6 L565.6,95.6 L566.5,98.1 L566.6,122.1 C566.6,125.166682 566.300003,126.949997 565.7,127.45 C565.099997,127.950002 563.000018,128.2 559.4,128.2 Z M571.5,86.7 C575.100018,86.7 577.28333,85.966674 578.05,84.5 C578.81667,83.033326 579.2,80.63335 579.2,77.3 C579.2,73.96665 579.183334,71.8500045 579.15,70.95 C579.116667,70.0499955 578.966668,69.0166725 578.7,67.85 C578.433332,66.6833275 578.033336,65.900002 577.5,65.5 C576.099993,64.433328 574.100013,63.9 571.5,63.9 L565.6,63.9 L566.5,66.4 L566.5,84.4 L565.7,86.7 L571.5,86.7 Z M618.1,120.4 C622.633356,120.4 627.23331,120.06667 631.9,119.4 L631.9,127.2 C625.699969,128.333339 621.300013,128.9 618.7,128.9 C616.099987,128.9 614.016675,128.716668 612.45,128.35 C610.883325,127.983331 609.533339,127.550003 608.4,127.05 C607.266661,126.549997 606.333337,125.700006 605.6,124.5 C604.866663,123.299994 604.300002,122.183338 603.9,121.15 C603.499998,120.116661 603.200001,118.533344 603,116.4 C602.733332,113.533319 602.6,110.483349 602.6,107.25 L602.6,93.9 C602.6,89.166643 602.733332,86.2166725 603,85.05 C603.266668,83.8833275 603.566665,82.6166735 603.9,81.25 C604.233335,79.8833265 604.666664,78.9166695 605.2,78.35 C605.733336,77.7833305 606.383329,77.1166705 607.15,76.35 C607.916671,75.5833295 608.799995,75.066668 609.8,74.8 C612.933349,74.13333 615.733321,73.8 618.2,73.8 C620.666679,73.8 622.783324,74.1833295 624.55,74.95 C626.316675,75.7166705 627.683329,76.666661 628.65,77.8 C629.616671,78.933339 630.366664,80.533323 630.9,82.6 C631.766671,85.866683 632.2,90.133307 632.2,95.4 L632.5,102.2 L610.7,102.7 L611.5,105 C611.5,111.600033 611.816664,115.816657 612.45,117.65 C613.083336,119.483342 614.966651,120.4 618.1,120.4 Z M622.25,84.35 C621.616663,82.9833265 620.100012,82.3 617.7,82.3 C615.299988,82.3 613.750004,82.899994 613.05,84.1 C612.349996,85.300006 612,87.89998 612,91.9 L611.2,94.1 L624.3,94.1 L623.3,91.9 C623.233333,88.233315 622.883337,85.7166735 622.25,84.35 Z M663.5,137.35 C664.233337,136.449995 664.6,135.116675 664.6,133.35 C664.6,131.583325 664.250004,130.400003 663.55,129.8 C662.849996,129.199997 661.300012,128.9 658.9,128.9 C649.699954,128.9 644.316674,128.450004 642.75,127.55 C641.183326,126.649995 640.4,123.500027 640.4,118.1 C640.4,114.433315 641.833319,111.400012 644.7,109 C643.166659,107.599993 642.06667,105.916676 641.4,103.95 C640.73333,101.983323 640.4,99.233351 640.4,95.7 C640.4,92.166649 640.416667,89.866672 640.45,88.8 C640.483334,87.733328 640.55,86.366675 640.65,84.7 C640.75,83.033325 640.933332,81.8500035 641.2,81.15 C641.466668,80.4499965 641.849997,79.566672 642.35,78.5 C642.850003,77.433328 643.466663,76.700002 644.2,76.3 C644.933337,75.899998 645.833328,75.466669 646.9,75 C648.633342,74.199996 651.633312,73.8 655.9,73.8 L674,73.8 C674,77.000016 673.700003,79.133328 673.1,80.2 C672.499997,81.266672 671.300009,81.866666 669.5,82 C670.700006,84.600013 671.3,88.533307 671.3,93.8 L671.3,98.3 C671.3,101.566683 671.166668,103.766661 670.9,104.9 C670.633332,106.033339 670.316668,107.166661 669.95,108.3 C669.583331,109.433339 669.150003,110.233331 668.65,110.7 C668.149998,111.166669 667.516671,111.73333 666.75,112.4 C665.983329,113.06667 665.100005,113.533332 664.1,113.8 C661.233319,114.400003 658.350015,114.7 655.45,114.7 C652.549986,114.7 650.733337,114.899998 650,115.3 C649.266663,115.700002 648.9,116.433328 648.9,117.5 C648.9,118.566672 649.066665,119.233332 649.4,119.5 C650.133337,120.100003 653.399971,120.4 659.2,120.4 C665.000029,120.4 668.766658,121.099993 670.5,122.5 C672.233342,123.900007 673.1,127.283306 673.1,132.65 C673.1,138.016693 672.116677,141.733323 670.15,143.8 C668.183324,145.866677 664.333362,146.9 658.6,146.9 L652.6,146.9 C649.399984,146.9 647.533336,146.583336 647,145.95 C646.466664,145.316664 646.2,143.133352 646.2,139.4 L658.5,138.7 C661.100013,138.7 662.766663,138.250004 663.5,137.35 Z M662.1,100.05 C662.166667,98.0166565 662.2,95.9500105 662.2,93.85 C662.2,91.7499895 662.183334,90.2500045 662.15,89.35 C662.116667,88.4499955 662.000001,87.4166725 661.8,86.25 C661.599999,85.0833275 661.300002,84.300002 660.9,83.9 C659.699994,82.833328 657.816679,82.3 655.25,82.3 C652.683321,82.3 651.06667,83.0499925 650.4,84.55 C649.73333,86.0500075 649.4,89.1499765 649.4,93.85 C649.4,98.5500235 649.78333,101.816657 650.55,103.65 C651.31667,105.483342 652.949988,106.4 655.45,106.4 C657.950012,106.4 659.666662,105.850005 660.6,104.75 C661.533338,103.649994 662.033333,102.083343 662.1,100.05 Z M685.8,67.55 C684.599994,66.3166605 684,64.8833415 684,63.25 C684,61.6166585 684.599994,60.233339 685.8,59.1 C687.000006,57.966661 688.399992,57.4 690,57.4 C691.600008,57.4 692.999994,57.966661 694.2,59.1 C695.400006,60.233339 696,61.6166585 696,63.25 C696,64.8833415 695.400006,66.3166605 694.2,67.55 C692.999994,68.7833395 691.600008,69.4 690,69.4 C688.399992,69.4 687.000006,68.7833395 685.8,67.55 Z M685.6,122.6 L685.6,74.5 C690.066689,74.5 692.666663,74.7499975 693.4,75.25 C694.133337,75.7500025 694.5,77.499985 694.5,80.5 L694.5,128.6 C690.033311,128.6 687.433337,128.350002 686.7,127.85 C685.966663,127.349997 685.6,125.600015 685.6,122.6 Z M705.1,119.4 C711.10003,120.06667 715.066657,120.4 717,120.4 C718.933343,120.4 720.199997,120.233335 720.8,119.9 C721.400003,119.566665 721.849998,119.216668 722.15,118.85 C722.450001,118.483331 722.666666,117.800005 722.8,116.8 C723.000001,115.399993 723.1,113.633344 723.1,111.5 C723.1,109.899992 720.10003,106.833356 714.1,102.3 C711.833322,100.633325 709.75001,98.5500125 707.85,96.05 C705.949991,93.5499875 705,91.200011 705,89 C705,86.799989 705.033333,85.166672 705.1,84.1 C705.166667,83.033328 705.449997,81.7166745 705.95,80.15 C706.450002,78.5833255 707.166662,77.433337 708.1,76.7 C710.700013,74.766657 714.466642,73.8 719.4,73.8 L731.1,76.2 C730.566664,80.066686 730.050003,82.2166645 729.55,82.65 C729.049998,83.0833355 728.283339,83.3 727.25,83.3 C726.216661,83.3 725.000007,83.200001 723.6,83 L719.7,82.3 C716.966653,82.3 715.300003,82.899994 714.7,84.1 C714.233331,85.033338 714,86.266659 714,87.8 C714,89.333341 714.966657,90.966658 716.9,92.7 C718.833343,94.433342 720.983321,96.099992 723.35,97.7 C725.716678,99.300008 727.866657,101.283321 729.8,103.65 C731.733343,106.016678 732.7,108.366655 732.7,110.7 C732.7,113.033345 732.666667,114.799994 732.6,116 C732.533333,117.200006 732.250002,118.766657 731.75,120.7 C731.249998,122.633343 730.533338,124.099995 729.6,125.1 C728.666662,126.100005 727.25001,126.983329 725.35,127.75 C723.449991,128.51667 721.483344,128.9 719.45,128.9 C717.416657,128.9 715.68334,128.816667 714.25,128.65 C712.81666,128.483332 711.15001,128.233335 709.25,127.9 C707.34999,127.566665 705.966671,127.333334 705.1,127.2 L705.1,119.4 Z M760.9,74.5 C760.9,78.300019 760.550004,80.6499955 759.85,81.55 C759.149997,82.4500045 757.100017,82.9 753.7,82.9 L750.8,82.9 L751.7,85.4 L751.7,105.2 C751.7,110.866695 751.916665,114.749989 752.35,116.85 C752.783336,118.95001 753.699993,120.133332 755.1,120.4 L762.7,120.4 L762.7,128.2 L754.6,128.7 C751.26665,128.7 749.066672,128.36667 748,127.7 C746.933328,127.03333 746.133336,126.500002 745.6,126.1 C745.066664,125.699998 744.600002,124.883339 744.2,123.65 C743.799998,122.41666 743.500001,121.41667 743.3,120.65 C743.099999,119.88333 742.95,118.483343 742.85,116.45 C742.75,114.416656 742.7,112.73334 742.7,111.4 L742.7,85.4 L743.5,82.9 L738.2,82.9 L738.2,74.5 L743.5,74.5 L742.7,70.8 L742.7,65.7 C747.166689,65.7 749.78333,65.9166645 750.55,66.35 C751.31667,66.7833355 751.7,68.366653 751.7,71.1 L750.9,74.5 L760.9,74.5 Z M779.2,128.2 C774.733311,128.2 772.116671,127.950002 771.35,127.45 C770.583329,126.949997 770.2,125.200015 770.2,122.2 L770.2,74.5 C774.600022,74.5 777.166663,74.633332 777.9,74.9 C778.633337,75.166668 779,76.066659 779,77.6 L785.4,73.8 C787.333343,73.8 789.099992,73.999998 790.7,74.4 L792.3,74.5 C792.3,78.300019 792.033336,80.5499965 791.5,81.25 C790.966664,81.9500035 789.266681,82.3 786.4,82.3 L778.2,85.1 L779.2,87.9 L779.2,128.2 Z M814.4,120.4 C818.933356,120.4 823.53331,120.06667 828.2,119.4 L828.2,127.2 C821.999969,128.333339 817.600013,128.9 815,128.9 C812.399987,128.9 810.316674,128.716668 808.75,128.35 C807.183325,127.983331 805.833339,127.550003 804.7,127.05 C803.566661,126.549997 802.633337,125.700006 801.9,124.5 C801.166663,123.299994 800.600002,122.183338 800.2,121.15 C799.799998,120.116661 799.500001,118.533344 799.3,116.4 C799.033332,113.533319 798.9,110.483349 798.9,107.25 L798.9,93.9 C798.9,89.166643 799.033332,86.2166725 799.3,85.05 C799.566668,83.8833275 799.866665,82.6166735 800.2,81.25 C800.533335,79.8833265 800.966664,78.9166695 801.5,78.35 C802.033336,77.7833305 802.68333,77.1166705 803.45,76.35 C804.21667,75.5833295 805.099995,75.066668 806.1,74.8 C809.233349,74.13333 812.033321,73.8 814.5,73.8 C816.966679,73.8 819.083325,74.1833295 820.85,74.95 C822.616675,75.7166705 823.983328,76.666661 824.95,77.8 C825.916672,78.933339 826.666664,80.533323 827.2,82.6 C828.066671,85.866683 828.5,90.133307 828.5,95.4 L828.8,102.2 L807,102.7 L807.8,105 C807.8,111.600033 808.116663,115.816657 808.75,117.65 C809.383337,119.483342 811.266651,120.4 814.4,120.4 Z M818.55,84.35 C817.916663,82.9833265 816.400012,82.3 814,82.3 C811.599988,82.3 810.050004,82.899994 809.35,84.1 C808.649996,85.300006 808.3,87.89998 808.3,91.9 L807.5,94.1 L820.6,94.1 L819.6,91.9 C819.533333,88.233315 819.183336,85.7166735 818.55,84.35 Z M846.7,128.2 C842.233311,128.2 839.616671,127.950002 838.85,127.45 C838.083329,126.949997 837.7,125.200015 837.7,122.2 L837.7,74.5 C842.100022,74.5 844.666663,74.633332 845.4,74.9 C846.133337,75.166668 846.5,76.066659 846.5,77.6 L852.9,73.8 C854.833343,73.8 856.599992,73.999998 858.2,74.4 L859.8,74.5 C859.8,78.300019 859.533336,80.5499965 859,81.25 C858.466664,81.9500035 856.766681,82.3 853.9,82.3 L845.7,85.1 L846.7,87.9 L846.7,128.2 Z M885.2,86.9 L885.3,84.2 C885.3,83.266662 885.200001,82.766667 885,82.7 C884.799999,82.633333 884.566668,82.4833345 884.3,82.25 C884.033332,82.0166655 883.683335,81.966666 883.25,82.1 C882.816665,82.233334 882.300003,82.266667 881.7,82.2 L876.3,82.9 C874.899993,83.100001 873.700005,83.2 872.7,83.2 C871.699995,83.2 870.933336,82.966669 870.4,82.5 C869.866664,82.033331 869.333336,79.900019 868.8,76.1 L880.4,73.8 C885.133357,73.8 888.099994,74.1499965 889.3,74.85 C890.500006,75.5500035 891.366664,76.133331 891.9,76.6 C892.433336,77.066669 892.799999,77.999993 893,79.4 C893.333335,81.133342 893.5,83.866648 893.5,87.6 L893.5,128.2 C889.633314,128.2 887.200005,128.000002 886.2,127.6 C885.199995,127.199998 884.666667,126.233341 884.6,124.7 L876.3,128.9 C874.433324,128.9 873.050005,128.883333 872.15,128.85 C871.249996,128.816666 870.350005,128.533336 869.45,128 C868.549996,127.466664 867.950002,126.933336 867.65,126.4 C867.349999,125.866664 867.066668,124.733342 866.8,123 C866.466665,120.933323 866.3,116.700032 866.3,110.3 L866.3,103.4 C866.3,95.866629 872.866601,91.966668 886,91.7 L885.2,89.3 L885.2,86.9 Z M875.7,120.4 C875.766667,120.4 879.1333,119.133346 885.8,116.6 L884.8,113.7 L884.8,101.8 L885.6,99.5 C882.866653,99.566667 880.466677,99.833331 878.4,100.3 C876.333323,100.766669 875.3,101.399996 875.3,102.2 L875.2,115.4 C875.2,118.73335 875.366665,120.4 875.7,120.4 Z" id="Registrera" fill="#FFFFFF"></path>
        </g>
    </g>
</svg>