<?xml version="1.0" encoding="UTF-8"?>
<svg width="775px" height="200px" viewBox="0 0 775 200" version="1.1" xmlns="http://www.w3.org/2000/svg" xmlns:xlink="http://www.w3.org/1999/xlink">
    <!-- Generator: Sketch 50.2 (55047) - http://www.bohemiancoding.com/sketch -->
    <title>Group 14</title>
    <desc>Created with Sketch.</desc>
    <defs></defs>
    <g id="Page-1" stroke="none" stroke-width="1" fill="none" fill-rule="evenodd">
        <g id="Group-14">
            <rect id="Rectangle-2" fill="#417505" x="0" y="0" width="775" height="200" rx="16"></rect>
            <path d="M274.85,129.1 C278.450018,129.1 280.566664,129.366664 281.2,129.9 C281.833336,130.433336 282.15,132.233318 282.15,135.3 L282.15,138 L253.05,138 L253.05,66 L255.55,66 C259.150018,66 261.266664,66.2499975 261.9,66.75 C262.533337,67.2500025 262.85,69.033318 262.85,72.1 L262.85,126.6 L261.95,129.1 L274.85,129.1 Z M287.65,111.4 L287.65,105.2 C287.65,101.066646 287.749999,98.300007 287.95,96.9 C288.150001,95.499993 288.383332,94.1166735 288.65,92.75 C288.916668,91.3833265 289.233332,90.3833365 289.6,89.75 C289.966669,89.1166635 290.433331,88.366671 291,87.5 C291.566669,86.633329 292.216663,86.033335 292.95,85.7 C293.683337,85.366665 294.549995,85.000002 295.55,84.6 C297.216675,83.93333 299.649984,83.6 302.85,83.6 C306.050016,83.6 308.633324,83.9833295 310.6,84.75 C312.566677,85.5166705 314.099994,86.3833285 315.2,87.35 C316.300006,88.3166715 317.083331,90.1833195 317.55,92.95 C318.016669,95.7166805 318.3,98.166656 318.4,100.3 C318.500001,102.433344 318.55,105.333315 318.55,109 L318.55,116.5 C318.55,120.766688 318.450001,123.599993 318.25,125 C318.049999,126.400007 317.816668,127.799993 317.55,129.2 C317.283332,130.600007 316.966669,131.616663 316.6,132.25 C316.233332,132.883337 315.766669,133.649996 315.2,134.55 C314.63333,135.450004 313.96667,136.083331 313.2,136.45 C312.43333,136.816668 311.550005,137.199998 310.55,137.6 C308.949992,138.333337 306.81668,138.7 304.15,138.7 C301.48332,138.7 299.433341,138.600001 298,138.4 C296.56666,138.199999 295.300006,137.76667 294.2,137.1 C293.099994,136.43333 292.183337,135.800003 291.45,135.2 C290.716663,134.599997 290.100002,133.58334 289.6,132.15 C289.099997,130.716659 288.716668,129.500005 288.45,128.5 C288.183332,127.499995 288.016667,125.866678 287.95,123.6 C287.749999,119.799981 287.65,115.733355 287.65,111.4 Z M303.05,92.1 C300.049985,92.1 298.21667,93.3166545 297.55,95.75 C296.88333,98.1833455 296.55,102.383304 296.55,108.35 C296.55,114.316697 296.583333,118.183325 296.65,119.95 C296.716667,121.716676 296.949998,123.583324 297.35,125.55 C297.750002,127.516677 298.399995,128.783331 299.3,129.35 C300.200004,129.91667 301.449992,130.2 303.05,130.2 C306.050015,130.2 307.88333,128.933346 308.55,126.4 C309.21667,123.866654 309.55,119.60003 309.55,113.6 C309.55,107.59997 309.516667,103.733342 309.45,102 C309.383333,100.266658 309.150002,98.466676 308.75,96.6 C308.349998,94.733324 307.700004,93.5166695 306.8,92.95 C305.899995,92.3833305 304.650008,92.1 303.05,92.1 Z M350.65,147.15 C351.383337,146.249995 351.75,144.916675 351.75,143.15 C351.75,141.383324 351.400003,140.200003 350.7,139.6 C349.999997,138.999997 348.450012,138.7 346.05,138.7 C336.849954,138.7 331.466674,138.250005 329.9,137.35 C328.333326,136.449995 327.55,133.300027 327.55,127.9 C327.55,124.233315 328.983319,121.200012 331.85,118.8 C330.316659,117.399993 329.21667,115.716676 328.55,113.75 C327.88333,111.783324 327.55,109.033351 327.55,105.5 C327.55,101.966649 327.566666,99.666672 327.6,98.6 C327.633333,97.533328 327.7,96.166675 327.8,94.5 C327.9,92.833325 328.083332,91.6500035 328.35,90.95 C328.616668,90.2499965 328.999998,89.366672 329.5,88.3 C330.000002,87.233328 330.616663,86.500002 331.35,86.1 C332.083337,85.699998 332.983328,85.266669 334.05,84.8 C335.783342,83.999996 338.783312,83.6 343.05,83.6 L361.15,83.6 C361.15,86.800016 360.850003,88.933328 360.25,90 C359.649997,91.066672 358.450009,91.666666 356.65,91.8 C357.850006,94.400013 358.45,98.333307 358.45,103.6 L358.45,108.1 C358.45,111.366683 358.316668,113.566661 358.05,114.7 C357.783332,115.833339 357.466669,116.966661 357.1,118.1 C356.733332,119.233339 356.300003,120.033331 355.8,120.5 C355.299998,120.966669 354.66667,121.53333 353.9,122.2 C353.133329,122.86667 352.250005,123.333332 351.25,123.6 C348.383319,124.200003 345.500014,124.5 342.6,124.5 C339.699985,124.5 337.883337,124.699998 337.15,125.1 C336.416663,125.500002 336.05,126.233328 336.05,127.3 C336.05,128.366672 336.216665,129.033332 336.55,129.3 C337.283337,129.900003 340.549971,130.2 346.35,130.2 C352.150029,130.2 355.916658,130.899993 357.65,132.3 C359.383342,133.700007 360.25,137.083306 360.25,142.45 C360.25,147.816694 359.266676,151.533323 357.3,153.6 C355.333324,155.666677 351.483362,156.7 345.75,156.7 L339.75,156.7 C336.549984,156.7 334.683336,156.383337 334.15,155.75 C333.616664,155.116663 333.35,152.933352 333.35,149.2 L345.65,148.5 C348.250013,148.5 349.916663,148.050005 350.65,147.15 Z M349.25,109.85 C349.316667,107.816657 349.35,105.750011 349.35,103.65 C349.35,101.54999 349.333334,100.050005 349.3,99.15 C349.266667,98.2499955 349.150001,97.2166725 348.95,96.05 C348.749999,94.8833275 348.450002,94.100002 348.05,93.7 C346.849994,92.633328 344.966679,92.1 342.4,92.1 C339.83332,92.1 338.21667,92.8499925 337.55,94.35 C336.88333,95.8500075 336.55,98.9499765 336.55,103.65 C336.55,108.350024 336.93333,111.616657 337.7,113.45 C338.46667,115.283343 340.099988,116.2 342.6,116.2 C345.100013,116.2 346.816662,115.650006 347.75,114.55 C348.683338,113.449995 349.183333,111.883344 349.25,109.85 Z M393.25,147.15 C393.983337,146.249995 394.35,144.916675 394.35,143.15 C394.35,141.383324 394.000003,140.200003 393.3,139.6 C392.599997,138.999997 391.050012,138.7 388.65,138.7 C379.449954,138.7 374.066674,138.250005 372.5,137.35 C370.933326,136.449995 370.15,133.300027 370.15,127.9 C370.15,124.233315 371.583319,121.200012 374.45,118.8 C372.916659,117.399993 371.81667,115.716676 371.15,113.75 C370.48333,111.783324 370.15,109.033351 370.15,105.5 C370.15,101.966649 370.166666,99.666672 370.2,98.6 C370.233333,97.533328 370.3,96.166675 370.4,94.5 C370.500001,92.833325 370.683332,91.6500035 370.95,90.95 C371.216668,90.2499965 371.599997,89.366672 372.1,88.3 C372.600002,87.233328 373.216663,86.500002 373.95,86.1 C374.683337,85.699998 375.583328,85.266669 376.65,84.8 C378.383342,83.999996 381.383312,83.6 385.65,83.6 L403.75,83.6 C403.75,86.800016 403.450003,88.933328 402.85,90 C402.249997,91.066672 401.050009,91.666666 399.25,91.8 C400.450006,94.400013 401.05,98.333307 401.05,103.6 L401.05,108.1 C401.05,111.366683 400.916668,113.566661 400.65,114.7 C400.383332,115.833339 400.066669,116.966661 399.7,118.1 C399.333331,119.233339 398.900003,120.033331 398.4,120.5 C397.899998,120.966669 397.266671,121.53333 396.5,122.2 C395.733329,122.86667 394.850005,123.333332 393.85,123.6 C390.983319,124.200003 388.100014,124.5 385.2,124.5 C382.299985,124.5 380.483337,124.699998 379.75,125.1 C379.016663,125.500002 378.65,126.233328 378.65,127.3 C378.65,128.366672 378.816665,129.033332 379.15,129.3 C379.883337,129.900003 383.149971,130.2 388.95,130.2 C394.750029,130.2 398.516658,130.899993 400.25,132.3 C401.983342,133.700007 402.85,137.083306 402.85,142.45 C402.85,147.816694 401.866676,151.533323 399.9,153.6 C397.933323,155.666677 394.083362,156.7 388.35,156.7 L382.35,156.7 C379.149984,156.7 377.283336,156.383337 376.75,155.75 C376.216664,155.116663 375.95,152.933352 375.95,149.2 L388.25,148.5 C390.850013,148.5 392.516663,148.050005 393.25,147.15 Z M391.85,109.85 C391.916667,107.816657 391.95,105.750011 391.95,103.65 C391.95,101.54999 391.933334,100.050005 391.9,99.15 C391.866667,98.2499955 391.750001,97.2166725 391.55,96.05 C391.349999,94.8833275 391.050002,94.100002 390.65,93.7 C389.449994,92.633328 387.56668,92.1 385,92.1 C382.43332,92.1 380.81667,92.8499925 380.15,94.35 C379.48333,95.8500075 379.15,98.9499765 379.15,103.65 C379.15,108.350024 379.53333,111.616657 380.3,113.45 C381.06667,115.283343 382.699988,116.2 385.2,116.2 C387.700012,116.2 389.416662,115.650006 390.35,114.55 C391.283338,113.449995 391.783333,111.883344 391.85,109.85 Z M431.65,96.7 L431.75,94 C431.75,93.066662 431.650001,92.566667 431.45,92.5 C431.249999,92.433333 431.016668,92.2833345 430.75,92.05 C430.483332,91.8166655 430.133336,91.766666 429.7,91.9 C429.266664,92.033334 428.750003,92.066667 428.15,92 L422.75,92.7 C421.349993,92.900001 420.150005,93 419.15,93 C418.149995,93 417.383336,92.766669 416.85,92.3 C416.316664,91.833331 415.783336,89.700019 415.25,85.9 L426.85,83.6 C431.583357,83.6 434.549994,83.9499965 435.75,84.65 C436.950006,85.3500035 437.816664,85.933331 438.35,86.4 C438.883336,86.866669 439.249999,87.799993 439.45,89.2 C439.783335,90.933342 439.95,93.666648 439.95,97.4 L439.95,138 C436.083314,138 433.650005,137.800002 432.65,137.4 C431.649995,136.999998 431.116667,136.033341 431.05,134.5 L422.75,138.7 C420.883324,138.7 419.500005,138.683334 418.6,138.65 C417.699996,138.616667 416.800004,138.333336 415.9,137.8 C414.999995,137.266664 414.400002,136.733336 414.1,136.2 C413.799999,135.666664 413.516668,134.533342 413.25,132.8 C412.916665,130.733323 412.75,126.500032 412.75,120.1 L412.75,113.2 C412.75,105.666629 419.316601,101.766668 432.45,101.5 L431.65,99.1 L431.65,96.7 Z M422.15,130.2 C422.216667,130.2 425.5833,128.933346 432.25,126.4 L431.25,123.5 L431.25,111.6 L432.05,109.3 C429.316653,109.366667 426.916677,109.633331 424.85,110.1 C422.783323,110.566669 421.75,111.199996 421.75,112 L421.65,125.2 C421.65,128.53335 421.816665,130.2 422.15,130.2 Z M470.75,77.35 C469.549994,76.1166605 468.95,74.6833415 468.95,73.05 C468.95,71.4166585 469.549994,70.033339 470.75,68.9 C471.950006,67.766661 473.349992,67.2 474.95,67.2 C476.550008,67.2 477.949994,67.766661 479.15,68.9 C480.350006,70.033339 480.95,71.4166585 480.95,73.05 C480.95,74.6833415 480.350006,76.1166605 479.15,77.35 C477.949994,78.5833395 476.550008,79.2 474.95,79.2 C473.349992,79.2 471.950006,78.5833395 470.75,77.35 Z M470.55,132.4 L470.55,84.3 C475.016689,84.3 477.616663,84.5499975 478.35,85.05 C479.083337,85.5500025 479.45,87.299985 479.45,90.3 L479.45,138.4 C474.983311,138.4 472.383337,138.150003 471.65,137.65 C470.916663,137.149998 470.55,135.400015 470.55,132.4 Z M513.95,111.3 L514.05,102.5 C514.05,99.83332 513.983334,97.83334 513.85,96.5 C513.583332,93.699986 512.016681,92.233334 509.15,92.1 L499.95,94.8 L500.85,97.6 L500.85,138 C496.383311,138 493.783337,137.750002 493.05,137.25 C492.316663,136.749998 491.95,135.000015 491.95,132 L491.95,84.3 C495.816686,84.3 498.249995,84.399999 499.25,84.6 C500.250005,84.800001 500.783333,85.399995 500.85,86.4 L508.25,83.6 C512.316687,83.6 514.983327,83.866664 516.25,84.4 C517.516673,84.933336 518.48333,85.399998 519.15,85.8 C519.81667,86.200002 520.416664,87.0166605 520.95,88.25 C521.483336,89.4833395 521.849999,90.6166615 522.05,91.65 C522.250001,92.6833385 522.449999,94.333322 522.65,96.6 C522.850001,99.866683 522.95,104.799967 522.95,111.4 L522.95,138 C518.483311,138 515.866671,137.750002 515.1,137.25 C514.33333,136.749998 513.95,135.000015 513.95,132 L513.95,111.3 Z" id="Logga-in" fill="#FFFFFF"></path>
        </g>
    </g>
</svg>