<?xml version="1.0" encoding="UTF-8"?>
<svg width="51px" height="14px" viewBox="0 0 51 14" version="1.1" xmlns="http://www.w3.org/2000/svg" xmlns:xlink="http://www.w3.org/1999/xlink">
    <!-- Generator: Sketch 50.2 (55047) - http://www.bohemiancoding.com/sketch -->
    <title>Group 18</title>
    <desc>Created with Sketch.</desc>
    <defs></defs>
    <g id="Page-1" stroke="none" stroke-width="1" fill="none" fill-rule="evenodd">
        <g id="Group-18">
            <rect id="Rectangle-2" fill="#417505" x="0" y="0.722986248" width="50.8666667" height="13.1119843" rx="2"></rect>
            <path d="M17.9119284,9.26243169 C18.1467858,9.26243169 18.2848712,9.2796562 18.3261887,9.31410574 C18.3675062,9.34855529 18.3881647,9.46482075 18.3881647,9.66290563 L18.3881647,9.83730557 L16.4897436,9.83730557 L16.4897436,5.18664047 L16.6528382,5.18664047 C16.8876956,5.18664047 17.0257809,5.20278845 17.0670985,5.2350849 C17.108416,5.26738135 17.1290744,5.38257028 17.1290744,5.58065515 L17.1290744,9.10095026 L17.0703603,9.26243169 L17.9119284,9.26243169 Z M18.7469728,8.11914318 L18.7469728,7.71866925 C18.7469728,7.45168528 18.7534965,7.27298096 18.7665441,7.18255091 C18.7795917,7.09212086 18.7948138,7.00276869 18.8122106,6.91449174 C18.8296074,6.82621478 18.8502659,6.76162286 18.8741865,6.72071403 C18.8981072,6.67980519 18.9285512,6.63136125 18.9655195,6.57538074 C19.0024878,6.51940024 19.044892,6.48064508 19.0927333,6.45911412 C19.1405746,6.43758315 19.1971135,6.41389945 19.2623517,6.38806229 C19.371082,6.34500036 19.5298258,6.32346972 19.7385879,6.32346972 C19.94735,6.32346972 20.1158794,6.34822995 20.2441811,6.39775117 C20.3724829,6.44727239 20.4725132,6.50325206 20.5442752,6.56569186 C20.6160372,6.62813165 20.6671396,6.74870325 20.6975841,6.92741025 C20.7280286,7.10611726 20.7465124,7.26436748 20.7530363,7.40216565 C20.7595601,7.53996382 20.7628219,7.7272804 20.7628219,7.96412101 L20.7628219,8.4485653 C20.7628219,8.72416164 20.7562982,8.9071721 20.7432506,8.99760215 C20.730203,9.0880322 20.7149809,9.17846089 20.6975841,9.26889094 C20.6801873,9.359321 20.6595288,9.42498945 20.6356082,9.46589829 C20.6116875,9.50680712 20.5812435,9.55632759 20.5442752,9.6144612 C20.5073069,9.6725948 20.4638154,9.71350302 20.4137995,9.73718708 C20.3637836,9.76087114 20.3061574,9.78563138 20.2409192,9.81146854 C20.1365382,9.85883666 19.9973655,9.88252037 19.8233971,9.88252037 C19.6494286,9.88252037 19.5156924,9.87606117 19.4221844,9.8631426 C19.3286763,9.85022402 19.2460426,9.82223418 19.1742806,9.77917225 C19.1025186,9.73611032 19.0427179,9.69520211 18.9948765,9.65644637 C18.9470352,9.61769063 18.9068056,9.55202218 18.8741865,9.45943903 C18.8415675,9.36685588 18.8165599,9.28826904 18.799163,9.22367614 C18.7817662,9.15908325 18.7708933,9.05358311 18.7665441,8.90717255 C18.7534965,8.66171955 18.7469728,8.39904572 18.7469728,8.11914318 Z M19.7516355,6.87250657 C19.555921,6.87250657 19.4363195,6.95109341 19.3928274,7.10826945 C19.3493352,7.26544549 19.3275895,7.53673158 19.3275895,7.92213584 C19.3275895,8.30754011 19.3297641,8.55729555 19.3341133,8.67140966 C19.3384625,8.78552378 19.3536845,8.90609537 19.3797798,9.03312806 C19.4058751,9.16016075 19.4482792,9.24197719 19.5069936,9.27857983 C19.5657079,9.31518247 19.6472544,9.33348352 19.7516355,9.33348352 C19.9473499,9.33348352 20.0669515,9.25166708 20.1104436,9.08803175 C20.1539357,8.92439642 20.1756814,8.6488042 20.1756814,8.26124684 C20.1756814,7.87368948 20.1735068,7.62393404 20.1691576,7.51197302 C20.1648084,7.400012 20.1495864,7.28374654 20.1234911,7.16317314 C20.0973959,7.04259974 20.0549917,6.96401289 19.9962773,6.92741025 C19.937563,6.89080761 19.8560165,6.87250657 19.7516355,6.87250657 Z M22.8569565,10.4283276 C22.9047978,10.370194 22.9287181,10.2840714 22.9287181,10.1699573 C22.9287181,10.0558432 22.9058851,9.97940942 22.8602184,9.94065368 C22.8145517,9.90189794 22.7134341,9.88252037 22.5568625,9.88252037 C21.9566714,9.88252037 21.6054778,9.853454 21.5032714,9.7953204 C21.4010649,9.73718679 21.3499625,9.53372223 21.3499625,9.1849206 C21.3499625,8.94807999 21.4434691,8.75215115 21.6304852,8.59712821 C21.5304533,8.50669816 21.4586924,8.39796842 21.4152003,8.27093573 C21.3717082,8.14390303 21.3499625,7.96627524 21.3499625,7.73804702 C21.3499625,7.50981879 21.3510498,7.36125737 21.3532244,7.29235828 C21.355399,7.22345919 21.3597481,7.13518356 21.3662719,7.02752874 C21.3727957,6.91987392 21.3847559,6.84344014 21.4021527,6.79822511 C21.4195496,6.75301009 21.4445572,6.69595389 21.4771763,6.6270548 C21.5097953,6.55815571 21.5500249,6.5107883 21.5978663,6.48495114 C21.6457076,6.45911399 21.704421,6.43112415 21.7740084,6.4009808 C21.8870879,6.34930649 22.0827995,6.32346972 22.361149,6.32346972 L23.5419538,6.32346972 C23.5419538,6.53016698 23.5223827,6.66796308 23.4832398,6.73686217 C23.4440969,6.80576126 23.3658122,6.84451641 23.2483835,6.8531288 C23.3266693,7.02107032 23.3658116,7.27513189 23.3658116,7.61532113 L23.3658116,7.9059877 C23.3658116,8.11699115 23.3571134,8.25909339 23.3397165,8.33229867 C23.3223197,8.40550395 23.3016612,8.47870813 23.2777406,8.55191341 C23.2538199,8.62511869 23.2255505,8.67679223 23.1929314,8.70693558 C23.1603123,8.73707893 23.1189954,8.77368102 23.0689795,8.81674295 C23.0189636,8.85980488 22.9613374,8.88994778 22.8960992,8.90717255 C22.7090832,8.94592828 22.5209826,8.96530586 22.3317919,8.96530586 C22.1426013,8.96530586 22.024087,8.97822425 21.9762457,9.0040614 C21.9284044,9.02989856 21.9044841,9.07726597 21.9044841,9.14616506 C21.9044841,9.21506415 21.915357,9.25812543 21.937103,9.2753502 C21.9849443,9.31410594 22.1980525,9.33348352 22.5764338,9.33348352 C22.9548152,9.33348352 23.2005419,9.37869786 23.3136214,9.46912791 C23.4267009,9.55955796 23.4832398,9.77809398 23.4832398,10.1247425 C23.4832398,10.471391 23.4190899,10.7114577 23.2907881,10.8449497 C23.1624864,10.9784417 22.9113233,11.0451866 22.5372911,11.0451866 L22.1458641,11.0451866 C21.937102,11.0451866 21.8153259,11.0247325 21.7805322,10.9838237 C21.7457385,10.9429149 21.7283419,10.8018892 21.7283419,10.5607424 L22.5307673,10.5155276 C22.7003866,10.5155276 22.8091152,10.4864612 22.8569565,10.4283276 Z M22.7656235,8.0190247 C22.7699728,7.88768582 22.7721473,7.75419584 22.7721473,7.61855076 C22.7721473,7.48290568 22.77106,7.3860178 22.7688854,7.32788419 C22.7667108,7.26975059 22.7590998,7.2030056 22.7460522,7.12764722 C22.7330046,7.05228885 22.7134334,7.00169184 22.6873381,6.97585468 C22.6090523,6.9069556 22.486189,6.87250657 22.3187444,6.87250657 C22.1512997,6.87250657 22.045833,6.92095051 22.0023408,7.01783985 C21.9588487,7.11472919 21.937103,7.31496416 21.937103,7.61855076 C21.937103,7.92213736 21.9621106,8.13313765 22.0121265,8.25155795 C22.0621424,8.36997826 22.1686965,8.42918752 22.3317919,8.42918752 C22.4948873,8.42918752 22.6068778,8.39366197 22.6677668,8.32260978 C22.7286557,8.2515576 22.7612743,8.15036358 22.7656235,8.0190247 Z M25.6360884,10.4283276 C25.6839297,10.370194 25.70785,10.2840714 25.70785,10.1699573 C25.70785,10.0558432 25.685017,9.97940942 25.6393503,9.94065368 C25.5936836,9.90189794 25.4925659,9.88252037 25.3359943,9.88252037 C24.7358032,9.88252037 24.3846097,9.853454 24.2824033,9.7953204 C24.1801968,9.73718679 24.1290943,9.53372223 24.1290943,9.1849206 C24.1290943,8.94807999 24.222601,8.75215115 24.409617,8.59712821 C24.3095852,8.50669816 24.2378243,8.39796842 24.1943322,8.27093573 C24.1508401,8.14390303 24.1290943,7.96627524 24.1290943,7.73804702 C24.1290943,7.50981879 24.1301816,7.36125737 24.1323562,7.29235828 C24.1345308,7.22345919 24.13888,7.13518356 24.1454038,7.02752874 C24.1519276,6.91987392 24.1638878,6.84344014 24.1812846,6.79822511 C24.1986815,6.75301009 24.223689,6.69595389 24.2563081,6.6270548 C24.2889272,6.55815571 24.3291568,6.5107883 24.3769981,6.48495114 C24.4248394,6.45911399 24.4835529,6.43112415 24.5531403,6.4009808 C24.6662198,6.34930649 24.8619313,6.32346972 25.1402808,6.32346972 L26.3210857,6.32346972 C26.3210857,6.53016698 26.3015145,6.66796308 26.2623716,6.73686217 C26.2232287,6.80576126 26.1449441,6.84451641 26.0275154,6.8531288 C26.1058012,7.02107032 26.1449435,7.27513189 26.1449435,7.61532113 L26.1449435,7.9059877 C26.1449435,8.11699115 26.1362452,8.25909339 26.1188484,8.33229867 C26.1014515,8.40550395 26.0807931,8.47870813 26.0568724,8.55191341 C26.0329518,8.62511869 26.0046823,8.67679223 25.9720633,8.70693558 C25.9394442,8.73707893 25.8981273,8.77368102 25.8481114,8.81674295 C25.7980954,8.85980488 25.7404693,8.88994778 25.6752311,8.90717255 C25.488215,8.94592828 25.3001145,8.96530586 25.1109238,8.96530586 C24.9217331,8.96530586 24.8032189,8.97822425 24.7553776,9.0040614 C24.7075363,9.02989856 24.683616,9.07726597 24.683616,9.14616506 C24.683616,9.21506415 24.6944888,9.25812543 24.7162349,9.2753502 C24.7640762,9.31410594 24.9771843,9.33348352 25.3555657,9.33348352 C25.733947,9.33348352 25.9796738,9.37869786 26.0927533,9.46912791 C26.2058327,9.55955796 26.2623716,9.77809398 26.2623716,10.1247425 C26.2623716,10.471391 26.1982217,10.7114577 26.06992,10.8449497 C25.9416183,10.9784417 25.6904551,11.0451866 25.316423,11.0451866 L24.924996,11.0451866 C24.7162338,11.0451866 24.5944578,11.0247325 24.5596641,10.9838237 C24.5248704,10.9429149 24.5074738,10.8018892 24.5074738,10.5607424 L25.3098992,10.5155276 C25.4795184,10.5155276 25.5882471,10.4864612 25.6360884,10.4283276 Z M25.5447554,8.0190247 C25.5491046,7.88768582 25.5512792,7.75419584 25.5512792,7.61855076 C25.5512792,7.48290568 25.5501919,7.3860178 25.5480173,7.32788419 C25.5458427,7.26975059 25.5382317,7.2030056 25.5251841,7.12764722 C25.5121364,7.05228885 25.4925653,7.00169184 25.46647,6.97585468 C25.3881842,6.9069556 25.2653209,6.87250657 25.0978762,6.87250657 C24.9304316,6.87250657 24.8249648,6.92095051 24.7814727,7.01783985 C24.7379806,7.11472919 24.7162349,7.31496416 24.7162349,7.61855076 C24.7162349,7.92213736 24.7412425,8.13313765 24.7912584,8.25155795 C24.8412743,8.36997826 24.9478284,8.42918752 25.1109238,8.42918752 C25.2740192,8.42918752 25.3860097,8.39366197 25.4468987,8.32260978 C25.5077876,8.2515576 25.5404062,8.15036358 25.5447554,8.0190247 Z M28.1412213,7.16963239 L28.1477451,6.99523245 C28.1477451,6.93494575 28.1412214,6.90264979 28.1281738,6.8983436 C28.1151261,6.8940374 28.0999041,6.88434862 28.0825073,6.86927694 C28.0651104,6.85420526 28.0422774,6.85097567 28.0140076,6.85958805 C27.9857377,6.86820044 27.9520318,6.8703535 27.9128889,6.86604731 L27.5606046,6.91126211 C27.4692712,6.92418069 27.3909865,6.93063988 27.3257484,6.93063988 C27.2605102,6.93063988 27.210495,6.91556843 27.1757014,6.88542508 C27.1409077,6.85528173 27.1061145,6.71748563 27.0713208,6.47203263 L27.8280797,6.32346972 C28.1368737,6.32346972 28.3304107,6.34607689 28.4086965,6.39129192 C28.4869823,6.43650694 28.5435212,6.47418556 28.5783149,6.50432892 C28.6131085,6.53447227 28.6370288,6.59475806 28.6500765,6.68518811 C28.6718225,6.79714913 28.6826954,6.97370039 28.6826954,7.21484719 L28.6826954,9.83730557 C28.4304412,9.83730557 28.2716973,9.82438718 28.2064592,9.79855002 C28.141221,9.77271287 28.1064279,9.71027401 28.1020786,9.61123157 L27.5606046,9.88252037 C27.4388267,9.88252037 27.3485819,9.88144383 27.2898676,9.87929074 C27.2311532,9.87713764 27.1724398,9.8588366 27.1137254,9.82438705 C27.0550111,9.78993751 27.0158687,9.75548848 26.9962973,9.72103894 C26.9767259,9.6865894 26.958242,9.61338521 26.9408451,9.5014242 C26.9190991,9.36793222 26.9082262,9.09449307 26.9082262,8.68109855 L26.9082262,8.23540981 C26.9082262,7.74881001 27.3366171,7.49690151 28.1934116,7.47967673 L28.1412213,7.32465456 L28.1412213,7.16963239 Z M27.5214619,9.33348352 C27.5258111,9.33348352 27.745443,9.25166708 28.180364,9.08803175 L28.1151262,8.90071329 L28.1151262,8.1320617 L28.1673165,7.98349879 C27.9889988,7.98780498 27.8324296,8.00502949 27.6976041,8.03517284 C27.5627785,8.06531619 27.4953668,8.10622441 27.4953668,8.15789873 L27.488843,9.01052066 C27.488843,9.22583031 27.4997158,9.33348352 27.5214619,9.33348352 Z M30.6920208,5.91976615 C30.613735,5.84010158 30.5745927,5.74751982 30.5745927,5.6420181 C30.5745927,5.53651637 30.613735,5.44716421 30.6920208,5.37395893 C30.7703066,5.30075365 30.8616386,5.26415156 30.9660197,5.26415156 C31.0704008,5.26415156 31.1617328,5.30075365 31.2400186,5.37395893 C31.3183044,5.44716421 31.3574467,5.53651637 31.3574467,5.6420181 C31.3574467,5.74751982 31.3183044,5.84010158 31.2400186,5.91976615 C31.1617328,5.99943072 31.0704008,6.03926241 30.9660197,6.03926241 C30.8616386,6.03926241 30.7703066,5.99943072 30.6920208,5.91976615 Z M30.6789732,9.47558717 L30.6789732,6.36868452 C30.9703703,6.36868452 31.139987,6.3848325 31.1878284,6.41712894 C31.2356697,6.44942539 31.25959,6.56246126 31.25959,6.75623994 L31.25959,9.8631426 C30.9681928,9.8631426 30.7985762,9.84699461 30.7507348,9.81469817 C30.7028935,9.78240172 30.6789732,9.66936585 30.6789732,9.47558717 Z M33.5102954,8.11268393 L33.5168191,7.5442693 C33.5168191,7.37202159 33.51247,7.24283774 33.5037716,7.15671388 C33.4863747,6.97585378 33.3841698,6.88111895 33.1971537,6.87250657 L32.5969656,7.04690651 L32.6556797,7.22776571 L32.6556797,9.83730557 C32.3642826,9.83730557 32.1946659,9.82115759 32.1468246,9.78886114 C32.0989832,9.75656469 32.0750629,9.64352882 32.0750629,9.44975014 L32.0750629,6.36868452 C32.3273172,6.36868452 32.486061,6.37514371 32.5512992,6.38806229 C32.6165373,6.40098087 32.6513305,6.43973602 32.6556797,6.50432892 L33.1384397,6.32346972 C33.4037416,6.32346972 33.5777074,6.34069423 33.6603424,6.37514377 C33.7429774,6.40959332 33.80604,6.43973622 33.8495321,6.46557337 C33.8930242,6.49141053 33.9321665,6.5441606 33.9669602,6.62382517 C34.0017539,6.70348974 34.0256742,6.77669392 34.0387218,6.84343991 C34.0517695,6.9101859 34.0648169,7.01676258 34.0778645,7.16317314 C34.0909122,7.37417659 34.0974359,7.69283009 34.0974359,8.11914318 L34.0974359,9.83730557 C33.8060388,9.83730557 33.6353348,9.82115759 33.5853189,9.78886114 C33.5353029,9.75656469 33.5102954,9.64352882 33.5102954,9.44975014 L33.5102954,8.11268393 Z" id="Logga-in" fill="#FFFFFF"></path>
        </g>
    </g>
</svg>