<?xml version="1.0" encoding="UTF-8"?>
<svg width="1450px" height="200px" viewBox="0 0 1450 200" version="1.1" xmlns="http://www.w3.org/2000/svg" xmlns:xlink="http://www.w3.org/1999/xlink">
    <!-- Generator: Sketch 50.2 (55047) - http://www.bohemiancoding.com/sketch -->
    <title>Group 9</title>
    <desc>Created with Sketch.</desc>
    <defs></defs>
    <g id="Page-1" stroke="none" stroke-width="1" fill="none" fill-rule="evenodd">
        <g id="Group-9">
            <rect id="Rectangle-2" fill="#417505" x="0" y="0" width="1450" height="200" rx="16"></rect>
            <path d="M611.8,129.1 C615.400018,129.1 617.516663,129.366664 618.15,129.9 C618.783336,130.433336 619.1,132.233318 619.1,135.3 L619.1,138 L590,138 L590,66 L592.5,66 C596.100018,66 598.216663,66.2499975 598.85,66.75 C599.483336,67.2500025 599.8,69.033318 599.8,72.1 L599.8,126.6 L598.9,129.1 L611.8,129.1 Z M624.6,111.4 L624.6,105.2 C624.6,101.066646 624.699999,98.300007 624.9,96.9 C625.100001,95.499993 625.333332,94.1166735 625.6,92.75 C625.866668,91.3833265 626.183331,90.3833365 626.55,89.75 C626.916669,89.1166635 627.38333,88.366671 627.95,87.5 C628.516669,86.633329 629.166663,86.033335 629.9,85.7 C630.633337,85.366665 631.499995,85.000002 632.5,84.6 C634.166675,83.93333 636.599984,83.6 639.8,83.6 C643.000016,83.6 645.583324,83.9833295 647.55,84.75 C649.516676,85.5166705 651.049995,86.3833285 652.15,87.35 C653.250006,88.3166715 654.033331,90.1833195 654.5,92.95 C654.966669,95.7166805 655.249999,98.166656 655.35,100.3 C655.45,102.433344 655.5,105.333315 655.5,109 L655.5,116.5 C655.5,120.766688 655.400001,123.599993 655.2,125 C654.999999,126.400007 654.766668,127.799993 654.5,129.2 C654.233332,130.600007 653.916669,131.616663 653.55,132.25 C653.183331,132.883337 652.716669,133.649995 652.15,134.55 C651.58333,135.450004 650.91667,136.083331 650.15,136.45 C649.383329,136.816669 648.500005,137.199998 647.5,137.6 C645.899992,138.333337 643.76668,138.7 641.1,138.7 C638.43332,138.7 636.38334,138.600001 634.95,138.4 C633.51666,138.199999 632.250006,137.76667 631.15,137.1 C630.049995,136.43333 629.133337,135.800003 628.4,135.2 C627.666663,134.599997 627.050003,133.583341 626.55,132.15 C626.049998,130.716659 625.666668,129.500005 625.4,128.5 C625.133332,127.499995 624.966667,125.866678 624.9,123.6 C624.699999,119.799981 624.6,115.733355 624.6,111.4 Z M640,92.1 C636.999985,92.1 635.16667,93.3166545 634.5,95.75 C633.83333,98.1833455 633.5,102.383304 633.5,108.35 C633.5,114.316697 633.533333,118.183325 633.6,119.95 C633.666667,121.716676 633.899998,123.583324 634.3,125.55 C634.700002,127.516676 635.349995,128.78333 636.25,129.35 C637.150005,129.916669 638.399992,130.2 640,130.2 C643.000015,130.2 644.83333,128.933346 645.5,126.4 C646.16667,123.866654 646.5,119.60003 646.5,113.6 C646.5,107.59997 646.466667,103.733342 646.4,102 C646.333333,100.266658 646.100002,98.466676 645.7,96.6 C645.299998,94.733324 644.650005,93.5166695 643.75,92.95 C642.849995,92.3833305 641.600008,92.1 640,92.1 Z M687.6,147.15 C688.333337,146.249996 688.7,144.916676 688.7,143.15 C688.7,141.383325 688.350003,140.200003 687.65,139.6 C686.949996,138.999997 685.400012,138.7 683,138.7 C673.799954,138.7 668.416675,138.250004 666.85,137.35 C665.283325,136.449996 664.5,133.300027 664.5,127.9 C664.5,124.233315 665.933319,121.200012 668.8,118.8 C667.266659,117.399993 666.16667,115.716676 665.5,113.75 C664.83333,111.783324 664.5,109.033351 664.5,105.5 C664.5,101.966649 664.516666,99.666672 664.55,98.6 C664.583333,97.533328 664.649999,96.166675 664.75,94.5 C664.85,92.833325 665.033332,91.6500035 665.3,90.95 C665.566668,90.2499965 665.949997,89.366672 666.45,88.3 C666.950002,87.233328 667.566663,86.500002 668.3,86.1 C669.033337,85.699998 669.933328,85.266669 671,84.8 C672.733342,83.999996 675.733312,83.6 680,83.6 L698.1,83.6 C698.1,86.800016 697.800003,88.933328 697.2,90 C696.599997,91.066672 695.400009,91.666666 693.6,91.8 C694.800006,94.400013 695.4,98.333307 695.4,103.6 L695.4,108.1 C695.4,111.366683 695.266668,113.566661 695,114.7 C694.733332,115.833339 694.416669,116.966661 694.05,118.1 C693.683331,119.233339 693.250002,120.033331 692.75,120.5 C692.249998,120.966669 691.61667,121.53333 690.85,122.2 C690.08333,122.86667 689.200005,123.333332 688.2,123.6 C685.333319,124.200003 682.450015,124.5 679.55,124.5 C676.649986,124.5 674.833337,124.699998 674.1,125.1 C673.366663,125.500002 673,126.233328 673,127.3 C673,128.366672 673.166665,129.033332 673.5,129.3 C674.233337,129.900003 677.499971,130.2 683.3,130.2 C689.100029,130.2 692.866658,130.899993 694.6,132.3 C696.333342,133.700007 697.2,137.083306 697.2,142.45 C697.2,147.816693 696.216677,151.533323 694.25,153.6 C692.283323,155.666677 688.433362,156.7 682.7,156.7 L676.7,156.7 C673.499984,156.7 671.633336,156.383337 671.1,155.75 C670.566664,155.116663 670.3,152.933352 670.3,149.2 L682.6,148.5 C685.200013,148.5 686.866663,148.050004 687.6,147.15 Z M686.2,109.85 C686.266667,107.816656 686.3,105.75001 686.3,103.65 C686.3,101.54999 686.283333,100.050004 686.25,99.15 C686.216666,98.2499955 686.100001,97.2166725 685.9,96.05 C685.699999,94.8833275 685.400002,94.100002 685,93.7 C683.799994,92.633328 681.91668,92.1 679.35,92.1 C676.78332,92.1 675.16667,92.8499925 674.5,94.35 C673.83333,95.8500075 673.5,98.9499765 673.5,103.65 C673.5,108.350023 673.883329,111.616657 674.65,113.45 C675.41667,115.283342 677.049987,116.2 679.55,116.2 C682.050012,116.2 683.766662,115.650005 684.7,114.55 C685.633338,113.449995 686.133333,111.883343 686.2,109.85 Z M730.2,147.15 C730.933337,146.249996 731.3,144.916676 731.3,143.15 C731.3,141.383325 730.950004,140.200003 730.25,139.6 C729.549996,138.999997 728.000012,138.7 725.6,138.7 C716.399954,138.7 711.016674,138.250004 709.45,137.35 C707.883325,136.449996 707.1,133.300027 707.1,127.9 C707.1,124.233315 708.533319,121.200012 711.4,118.8 C709.866659,117.399993 708.76667,115.716676 708.1,113.75 C707.43333,111.783324 707.1,109.033351 707.1,105.5 C707.1,101.966649 707.116667,99.666672 707.15,98.6 C707.183334,97.533328 707.249999,96.166675 707.35,94.5 C707.45,92.833325 707.633332,91.6500035 707.9,90.95 C708.166668,90.2499965 708.549998,89.366672 709.05,88.3 C709.550003,87.233328 710.166663,86.500002 710.9,86.1 C711.633337,85.699998 712.533328,85.266669 713.6,84.8 C715.333342,83.999996 718.333312,83.6 722.6,83.6 L740.7,83.6 C740.7,86.800016 740.400003,88.933328 739.8,90 C739.199997,91.066672 738.000009,91.666666 736.2,91.8 C737.400006,94.400013 738,98.333307 738,103.6 L738,108.1 C738,111.366683 737.866668,113.566661 737.6,114.7 C737.333332,115.833339 737.016668,116.966661 736.65,118.1 C736.283331,119.233339 735.850002,120.033331 735.35,120.5 C734.849997,120.966669 734.21667,121.53333 733.45,122.2 C732.683329,122.86667 731.800005,123.333332 730.8,123.6 C727.933319,124.200003 725.050014,124.5 722.15,124.5 C719.249985,124.5 717.433337,124.699998 716.7,125.1 C715.966663,125.500002 715.6,126.233328 715.6,127.3 C715.6,128.366672 715.766665,129.033332 716.1,129.3 C716.833337,129.900003 720.099971,130.2 725.9,130.2 C731.700029,130.2 735.466658,130.899993 737.2,132.3 C738.933342,133.700007 739.8,137.083306 739.8,142.45 C739.8,147.816693 738.816676,151.533323 736.85,153.6 C734.883324,155.666677 731.033362,156.7 725.3,156.7 L719.3,156.7 C716.099984,156.7 714.233336,156.383337 713.7,155.75 C713.166664,155.116663 712.9,152.933352 712.9,149.2 L725.2,148.5 C727.800013,148.5 729.466663,148.050004 730.2,147.15 Z M728.8,109.85 C728.866667,107.816656 728.9,105.75001 728.9,103.65 C728.9,101.54999 728.883333,100.050004 728.85,99.15 C728.816666,98.2499955 728.700001,97.2166725 728.5,96.05 C728.299999,94.8833275 728.000002,94.100002 727.6,93.7 C726.399994,92.633328 724.516679,92.1 721.95,92.1 C719.383321,92.1 717.76667,92.8499925 717.1,94.35 C716.43333,95.8500075 716.1,98.9499765 716.1,103.65 C716.1,108.350023 716.483329,111.616657 717.25,113.45 C718.016671,115.283342 719.649987,116.2 722.15,116.2 C724.650013,116.2 726.366662,115.650005 727.3,114.55 C728.233338,113.449995 728.733333,111.883343 728.8,109.85 Z M768.6,96.7 L768.7,94 C768.7,93.066662 768.600001,92.566667 768.4,92.5 C768.199999,92.433333 767.966668,92.2833345 767.7,92.05 C767.433332,91.8166655 767.083335,91.766666 766.65,91.9 C766.216664,92.033334 765.700003,92.066667 765.1,92 L759.7,92.7 C758.299993,92.900001 757.100005,93 756.1,93 C755.099995,93 754.333336,92.766669 753.8,92.3 C753.266664,91.833331 752.733336,89.700019 752.2,85.9 L763.8,83.6 C768.533357,83.6 771.499994,83.9499965 772.7,84.65 C773.900006,85.3500035 774.766664,85.933331 775.3,86.4 C775.833336,86.866669 776.199999,87.799993 776.4,89.2 C776.733335,90.933342 776.9,93.666648 776.9,97.4 L776.9,138 C773.033314,138 770.600005,137.800002 769.6,137.4 C768.599995,136.999998 768.066667,136.033341 768,134.5 L759.7,138.7 C757.833324,138.7 756.450004,138.683334 755.55,138.65 C754.649995,138.616667 753.750004,138.333336 752.85,137.8 C751.949996,137.266664 751.350001,136.733336 751.05,136.2 C750.749998,135.666664 750.466668,134.533342 750.2,132.8 C749.866665,130.733323 749.7,126.500032 749.7,120.1 L749.7,113.2 C749.7,105.666629 756.266601,101.766668 769.4,101.5 L768.6,99.1 L768.6,96.7 Z M759.1,130.2 C759.166667,130.2 762.5333,128.933346 769.2,126.4 L768.2,123.5 L768.2,111.6 L769,109.3 C766.266653,109.366667 763.866677,109.633331 761.8,110.1 C759.733323,110.566669 758.7,111.199996 758.7,112 L758.6,125.2 C758.6,128.53335 758.766665,130.2 759.1,130.2 Z M807.7,77.35 C806.499994,76.1166605 805.9,74.6833415 805.9,73.05 C805.9,71.4166585 806.499994,70.033339 807.7,68.9 C808.900006,67.766661 810.299992,67.2 811.9,67.2 C813.500008,67.2 814.899994,67.766661 816.1,68.9 C817.300006,70.033339 817.9,71.4166585 817.9,73.05 C817.9,74.6833415 817.300006,76.1166605 816.1,77.35 C814.899994,78.5833395 813.500008,79.2 811.9,79.2 C810.299992,79.2 808.900006,78.5833395 807.7,77.35 Z M807.5,132.4 L807.5,84.3 C811.966689,84.3 814.566663,84.5499975 815.3,85.05 C816.033337,85.5500025 816.4,87.299985 816.4,90.3 L816.4,138.4 C811.933311,138.4 809.333337,138.150003 808.6,137.65 C807.866663,137.149997 807.5,135.400015 807.5,132.4 Z M850.9,111.3 L851,102.5 C851,99.83332 850.933334,97.83334 850.8,96.5 C850.533332,93.699986 848.966681,92.233334 846.1,92.1 L836.9,94.8 L837.8,97.6 L837.8,138 C833.333311,138 830.733337,137.750002 830,137.25 C829.266663,136.749998 828.9,135.000015 828.9,132 L828.9,84.3 C832.766686,84.3 835.199995,84.399999 836.2,84.6 C837.200005,84.800001 837.733333,85.399995 837.8,86.4 L845.2,83.6 C849.266687,83.6 851.933327,83.866664 853.2,84.4 C854.466673,84.933336 855.43333,85.399998 856.1,85.8 C856.76667,86.200002 857.366664,87.0166605 857.9,88.25 C858.433336,89.4833395 858.799999,90.6166615 859,91.65 C859.200001,92.6833385 859.399999,94.333322 859.6,96.6 C859.800001,99.866683 859.9,104.799967 859.9,111.4 L859.9,138 C855.433311,138 852.81667,137.750002 852.05,137.25 C851.28333,136.749998 850.9,135.000015 850.9,132 L850.9,111.3 Z" id="Logga-in" fill="#FFFFFF"></path>
        </g>
    </g>
</svg>