<?xml version="1.0" encoding="UTF-8"?>
<svg width="74px" height="74px" viewBox="0 0 74 74" version="1.1" xmlns="http://www.w3.org/2000/svg" xmlns:xlink="http://www.w3.org/1999/xlink">
    <!-- Generator: Sketch 51.3 (57544) - http://www.bohemiancoding.com/sketch -->
    <title>Group 7</title>
    <desc>Created with Sketch.</desc>
    <defs></defs>
    <g id="Page-1" stroke="none" stroke-width="1" fill="none" fill-rule="evenodd">
        <g id="Mobile-Copy" transform="translate(-29.000000, -854.000000)" fill="#2B3E16" fill-rule="nonzero">
            <g id="Group-7" transform="translate(29.000000, 854.000000)">
                <path d="M0,0 L0,74 L74,74 L74,0 L0,0 Z M26.7659574,55.106383 L16.5319149,55.106383 L16.5319149,28.3404255 L26.7659574,28.3404255 L26.7659574,55.106383 Z M26.7659574,25.1914894 L16.5319149,25.1914894 L16.5319149,18.106383 L26.7659574,18.106383 L26.7659574,25.1914894 Z M60.5757087,55.106383 L50.2682216,55.106383 L50.2682216,40.301993 C50.2682216,38.6201478 49.9583773,37.4158637 49.3386887,36.709904 C48.7190001,36.0039443 47.851436,35.6509644 46.7153402,35.6509644 C45.475963,35.6509644 44.463805,36.1285254 43.6995224,37.0628838 C42.9352397,38.0180057 42.5427703,39.6998509 42.5427703,42.1499463 L42.5427703,55.0856195 L32.2765957,55.0856195 L32.2765957,28.1760971 L41.8404565,28.1760971 L41.8404565,32.5571999 C43.2657403,30.7715371 44.7116804,29.4841989 46.1782768,28.7159486 C47.6448731,27.9476984 49.4213138,27.5531915 51.5282551,27.5531915 C54.3788227,27.5531915 56.5890453,28.4044958 58.2002357,30.1071045 C59.8114261,31.8097132 60.6170213,34.4259167 60.6170213,37.9764787 L60.6170213,55.106383 L60.5757087,55.106383 Z" id="Shape"></path>
            </g>
        </g>
    </g>
</svg>