<?xml version="1.0" encoding="UTF-8"?>
<svg width="74px" height="74px" viewBox="0 0 74 74" version="1.1" xmlns="http://www.w3.org/2000/svg" xmlns:xlink="http://www.w3.org/1999/xlink">
    <!-- Generator: Sketch 50.2 (55047) - http://www.bohemiancoding.com/sketch -->
    <title>Shape</title>
    <desc>Created with Sketch.</desc>
    <defs></defs>
    <g id="Page-1" stroke="none" stroke-width="1" fill="none" fill-rule="evenodd">
        <g id="Mobile-menu" transform="translate(-29.000000, -744.000000)" fill="#B49290" fill-rule="nonzero">
            <path d="M29,744 L29,818 L103,818 L103,744 L29,744 Z M55.7659574,799.106383 L45.5319149,799.106383 L45.5319149,772.340426 L55.7659574,772.340426 L55.7659574,799.106383 Z M55.7659574,769.191489 L45.5319149,769.191489 L45.5319149,762.106383 L55.7659574,762.106383 L55.7659574,769.191489 Z M89.5757087,799.106383 L79.2682216,799.106383 L79.2682216,784.301993 C79.2682216,782.620148 78.9583773,781.415864 78.3386887,780.709904 C77.7190001,780.003944 76.851436,779.650964 75.7153402,779.650964 C74.475963,779.650964 73.463805,780.128525 72.6995224,781.062884 C71.9352397,782.018006 71.5427703,783.699851 71.5427703,786.149946 L71.5427703,799.085619 L61.2765957,799.085619 L61.2765957,772.176097 L70.8404565,772.176097 L70.8404565,776.5572 C72.2657403,774.771537 73.7116804,773.484199 75.1782768,772.715949 C76.6448731,771.947698 78.4213138,771.553191 80.5282551,771.553191 C83.3788227,771.553191 85.5890453,772.404496 87.2002357,774.107104 C88.8114261,775.809713 89.6170213,778.425917 89.6170213,781.976479 L89.6170213,799.106383 L89.5757087,799.106383 Z" id="Shape"></path>
        </g>
    </g>
</svg>