<?xml version="1.0" encoding="UTF-8"?>
<svg width="68px" height="68px" viewBox="0 0 68 68" version="1.1" xmlns="http://www.w3.org/2000/svg" xmlns:xlink="http://www.w3.org/1999/xlink">
    <!-- Generator: Sketch 51.3 (57544) - http://www.bohemiancoding.com/sketch -->
    <title>Group 5</title>
    <desc>Created with Sketch.</desc>
    <defs></defs>
    <g id="Page-1" stroke="none" stroke-width="1" fill="none" fill-rule="evenodd">
        <g id="Desktop-Copy-5" transform="translate(-923.000000, -5117.000000)" fill="#F0F0F0" fill-rule="nonzero">
            <g id="Group-5" transform="translate(923.000000, 5117.000000)">
                <path d="M0,0 L0,68 L68,68 L68,0 L0,0 Z M50.4140798,56.172312 C50.4140798,59.1621976 47.9676478,61.6086296 44.9777622,61.6086296 L22.9301773,61.6086296 C19.9402917,61.6086296 17.4938597,59.1621976 17.4938597,56.172312 L17.4938597,11.9660756 C17.4938597,8.97619006 19.9402917,6.530352 22.9301773,6.530352 L44.9777622,6.530352 C47.9676478,6.530352 50.4140798,8.97619006 50.4140798,11.9660756 L50.4140798,56.172312 Z" id="Shape"></path>
                <circle id="Oval" cx="34.5" cy="56.5" r="3.5"></circle>
                <path d="M30,13.0004486 C30.0010373,12.4485299 30.3145785,12.001479 30.7016691,12 L38.3193418,12 C38.6985116,12.0161959 39,12.4591325 39,13 C39,13.5408675 38.6985116,13.9838041 38.3193418,14 L30.7016691,14 C30.3148232,13.9985235 30.0013827,13.5520169 30,13.0004486 Z" id="Shape"></path>
                <path d="M46,18.5558209 L46,47.4441791 C45.995909,48.3017233 45.3064834,48.9958809 44.4547851,49 L23.5446399,49 C22.6923838,48.9974547 22.0022107,48.3022857 22,47.4441791 L22,18.5558209 C22.0022107,17.6977143 22.6923838,17.0025453 23.5446399,17 L44.4519097,17 C45.3047307,17.0025343 45.9958975,17.6971525 46,18.5558209 Z" id="Shape"></path>
            </g>
        </g>
    </g>
</svg>