<?xml version="1.0" encoding="UTF-8"?>
<svg width="68px" height="68px" viewBox="0 0 68 68" version="1.1" xmlns="http://www.w3.org/2000/svg" xmlns:xlink="http://www.w3.org/1999/xlink">
    <!-- Generator: Sketch 51.3 (57544) - http://www.bohemiancoding.com/sketch -->
    <title>Shape</title>
    <desc>Created with Sketch.</desc>
    <defs></defs>
    <g id="Page-1" stroke="none" stroke-width="1" fill="none" fill-rule="evenodd">
        <g id="Desktop-Copy-5" transform="translate(-835.000000, -5117.000000)" fill="#F0F0F0" fill-rule="nonzero">
            <path d="M903,5117.24242 L903,5117 L835,5117 L835,5185 L903,5185 L903,5117.24242 Z M844.957143,5128.63636 C845.078571,5128.75758 845.078571,5128.75758 844.957143,5128.63636 L891.707143,5128.75758 C884.178571,5137.36364 876.528571,5146.09091 868.514286,5154.33333 C860.985714,5145.60606 853.092857,5137.12121 844.957143,5128.63636 Z M844.957143,5135.66667 C849.814286,5140.75758 854.671429,5145.9697 859.407143,5151.30303 C853.942857,5156.15152 849.207143,5161.9697 844.957143,5168.0303 L844.957143,5135.66667 Z M847.75,5172.51515 C852.121429,5166.21212 856.978571,5159.90909 862.685714,5154.93939 C864.021429,5156.51515 865.478571,5158.09091 866.814286,5159.66667 C867.785714,5160.63636 869.242857,5160.63636 870.214286,5159.66667 C872.035714,5157.84848 873.857143,5155.90909 875.678571,5153.9697 C881.75,5159.30303 887.092857,5165.9697 891.828571,5172.63636 L847.75,5172.63636 L847.75,5172.51515 Z M893.042857,5166.09091 C888.792857,5160.39394 884.178571,5154.93939 878.957143,5150.33333 C883.692857,5145.12121 888.428571,5139.90909 893.042857,5134.57576 L893.042857,5166.09091 Z" id="Shape"></path>
        </g>
    </g>
</svg>