<?xml version="1.0" encoding="UTF-8"?>
<svg width="52px" height="49px" viewBox="0 0 52 49" version="1.1" xmlns="http://www.w3.org/2000/svg" xmlns:xlink="http://www.w3.org/1999/xlink">
    <!-- Generator: Sketch 51.3 (57544) - http://www.bohemiancoding.com/sketch -->
    <title>Group</title>
    <desc>Created with Sketch.</desc>
    <defs></defs>
    <g id="Page-1" stroke="none" stroke-width="1" fill="none" fill-rule="evenodd">
        <g id="Group" fill-rule="nonzero">
            <path d="M52,29 L52,49 L0,49 L0,29 L0,0 L5.79396507,0 L5.79396507,24.0710128 L11.7563594,24.0710128 L11.7563594,29 L13.1037931,29 L13.1037931,0 L18.6956431,0 L18.6956431,29 L21.0199663,29 L21.0199663,0 L26.9823606,0 L29.6435422,13.8754366 L29.6435422,0 L35.2353922,0 L35.2353922,29 L37.7955163,29 L37.7955163,0 L43.7579106,0 L46.4190922,13.8754366 L46.4190922,0 L52,0 L52,29 Z M46.3517206,29 L43.454738,14.4831199 L43.454738,29 L46.3517206,29 Z M26.679188,29 L29.5761705,29 L26.679188,14.4831199 L26.679188,29 Z" id="Combined-Shape" fill="#FFFFFF"></path>
            <path d="M2,30.1554286 L6.4556,30.1554286 C7.60867243,30.1554286 8.47346378,30.485711 9.05,31.1462857 C9.62653622,31.8068604 9.9210666,32.7847554 9.9336,34.08 L9.9712,41.8902857 C9.9837334,43.5352463 9.70800282,44.7721863 9.144,45.6011429 C8.57999718,46.4300994 7.64627318,46.8445714 6.3428,46.8445714 L2,46.8445714 L2,30.1554286 Z M5.8164,43.8914286 C6.40546961,43.8914286 6.7,43.5935268 6.7,42.9977143 L6.7,34.3908571 C6.7,34.0152362 6.67180028,33.7335247 6.6154,33.5457143 C6.55899972,33.3579038 6.45560075,33.2316194 6.3052,33.1668571 C6.15479925,33.1020949 5.9229349,33.0697143 5.6096,33.0697143 L5.2524,33.0697143 L5.2524,43.8914286 L5.8164,43.8914286 Z M11.2684,46.8445714 L11.2684,30.1554286 L17.7356,30.1554286 L17.7356,33.3805714 L14.5584,33.3805714 L14.5584,36.6251429 L17.604,36.6251429 L17.604,39.7725714 L14.5584,39.7725714 L14.5584,43.6 L17.9424,43.6 L17.9424,46.8445714 L11.2684,46.8445714 Z M19.672,45.8731429 C19.0202634,45.121901 18.6944,43.9108655 18.6944,42.24 L18.6944,40.608 L21.8716,40.608 L21.8716,42.6868571 C21.8716,43.5158137 22.1285308,43.9302857 22.6424,43.9302857 C22.9306681,43.9302857 23.1311994,43.842858 23.244,43.668 C23.3568006,43.493142 23.4132,43.1984783 23.4132,42.784 C23.4132,42.2399973 23.350534,41.7899065 23.2252,41.4337143 C23.099866,41.077522 22.9400676,40.7796202 22.7458,40.54 C22.5515324,40.3003798 22.2037358,39.9280025 21.7024,39.4228571 L20.3112,37.9851429 C19.2333279,36.8971374 18.6944,35.692578 18.6944,34.3714286 C18.6944,32.9466595 19.0108635,31.8619085 19.6438,31.1171429 C20.2767365,30.3723772 21.2010606,30 22.4168,30 C23.8706739,30 24.9171968,30.3982817 25.5564,31.1948571 C26.1956032,31.9914326 26.5152,33.2380868 26.5152,34.9348571 L23.2252,34.9348571 L23.2064,33.7885714 C23.2064,33.5683799 23.1468673,33.3935245 23.0278,33.264 C22.9087327,33.1344755 22.7426677,33.0697143 22.5296,33.0697143 C22.2789321,33.0697143 22.090934,33.1409517 21.9656,33.2834286 C21.840266,33.4259055 21.7776,33.6201892 21.7776,33.8662857 C21.7776,34.4102884 22.078397,34.9737114 22.68,35.5565714 L24.56,37.4217143 C24.9986689,37.8620974 25.3621319,38.2798075 25.6504,38.6748571 C25.9386681,39.0699067 26.1705325,39.5361878 26.346,40.0737143 C26.5214675,40.6112408 26.6092,41.2491392 26.6092,41.9874286 C26.6092,43.6323892 26.3178029,44.8790434 25.735,45.7274286 C25.1521971,46.5758138 24.1902734,47 22.8492,47 C21.3827927,47 20.3237366,46.6243847 19.672,45.8731429 Z M27.5304,46.8445714 L27.5304,30.1554286 L30.6512,30.1554286 L30.6512,46.8445714 L27.5304,46.8445714 Z M32.6722,45.7274286 C32.1019305,44.8790434 31.8168,43.5935324 31.8168,41.8708571 L31.8168,34.6822857 C31.8168,33.1409447 32.14893,31.975242 32.8132,31.1851429 C33.47747,30.3950437 34.4675934,30 35.7836,30 C36.8489387,30 37.6761304,30.2201883 38.2652,30.6605714 C38.8542696,31.1009546 39.2615989,31.742091 39.4872,32.584 C39.7128011,33.425909 39.8256,34.507422 39.8256,35.8285714 L36.6672,35.8285714 L36.6672,34.3325714 C36.6672,33.9310456 36.6139339,33.6201916 36.5074,33.4 C36.4008661,33.1798084 36.2097347,33.0697143 35.934,33.0697143 C35.3198636,33.0697143 35.0128,33.4841863 35.0128,34.3131429 L35.0128,42.3954286 C35.0128,42.900574 35.075466,43.2826654 35.2008,43.5417143 C35.326134,43.8007632 35.5454651,43.9302857 35.8588,43.9302857 C36.1721349,43.9302857 36.391466,43.8007632 36.5168,43.5417143 C36.642134,43.2826654 36.7048,42.900574 36.7048,42.3954286 L36.7048,40.0057143 L35.84,40.0057143 L35.84,37.1302857 L39.788,37.1302857 L39.788,46.8445714 L38.4908,46.8445714 L37.9456,45.4457143 C37.3690638,46.4819099 36.479206,47 35.276,47 C34.1103942,47 33.2424695,46.5758138 32.6722,45.7274286 Z M41.0664,46.8445714 L41.0664,30.1554286 L44.394,30.1554286 L45.8792,38.1405714 L45.8792,30.1554286 L49,30.1554286 L49,46.8445714 L45.8416,46.8445714 L44.2248,38.4902857 L44.2248,46.8445714 L41.0664,46.8445714 Z" id="DESIGN" fill="#2B3E16"></path>
        </g>
    </g>
</svg>