<?xml version="1.0" encoding="UTF-8"?>
<svg width="74px" height="74px" viewBox="0 0 74 74" version="1.1" xmlns="http://www.w3.org/2000/svg" xmlns:xlink="http://www.w3.org/1999/xlink">
    <!-- Generator: Sketch 51.3 (57544) - http://www.bohemiancoding.com/sketch -->
    <title>Group 8</title>
    <desc>Created with Sketch.</desc>
    <defs></defs>
    <g id="Page-1" stroke="none" stroke-width="1" fill="none" fill-rule="evenodd">
        <g id="Mobile-Copy" transform="translate(-124.000000, -854.000000)" fill="#2B3E16" fill-rule="nonzero">
            <g id="Group-8" transform="translate(124.000000, 854.000000)">
                <path d="M74,0.263814617 L74,0 L0,0 L0,74 L74,74 L74,0.263814617 Z M10.8357143,12.6631016 C10.9678571,12.7950089 10.9678571,12.7950089 10.8357143,12.6631016 L61.7107143,12.7950089 C53.5178571,22.1604278 45.1928571,31.657754 36.4714286,40.627451 C28.2785714,31.1301248 19.6892857,21.8966132 10.8357143,12.6631016 Z M10.8357143,20.3137255 C16.1214286,25.8538324 21.4071429,31.5258467 26.5607143,37.3297683 C20.6142857,42.6060606 15.4607143,48.9376114 10.8357143,55.5329768 L10.8357143,20.3137255 Z M13.875,60.4135472 C18.6321429,53.5543672 23.9178571,46.6951872 30.1285714,41.2869875 C31.5821429,43.0017825 33.1678571,44.7165775 34.6214286,46.4313725 C35.6785714,47.486631 37.2642857,47.486631 38.3214286,46.4313725 C40.3035714,44.4527629 42.2857143,42.342246 44.2678571,40.2317291 C50.875,46.0356506 56.6892857,53.2905526 61.8428571,60.5454545 L13.875,60.5454545 L13.875,60.4135472 Z M63.1642857,53.4224599 C58.5392857,47.2228164 53.5178571,41.2869875 47.8357143,36.2745098 C52.9892857,30.6024955 58.1428571,24.9304813 63.1642857,19.1265597 L63.1642857,53.4224599 Z" id="Shape"></path>
            </g>
        </g>
    </g>
</svg>