<?xml version="1.0" encoding="UTF-8"?>
<svg width="225px" height="87px" viewBox="0 0 225 87" version="1.1" xmlns="http://www.w3.org/2000/svg" xmlns:xlink="http://www.w3.org/1999/xlink">
    <!-- Generator: Sketch 51.3 (57544) - http://www.bohemiancoding.com/sketch -->
    <title>Group 12</title>
    <desc>Created with Sketch.</desc>
    <defs></defs>
    <g id="Page-1" stroke="none" stroke-width="1" fill="none" fill-rule="evenodd">
        <g id="Mobile-menu" transform="translate(-46.000000, -50.000000)" fill="#A9C4BD">
            <g id="Group-12" transform="translate(46.000000, 50.000000)">
                <path d="M23.7209797,21.1312261 C19.2501018,13.6155695 36.6368494,2.09156271 46.5721338,0.0873876246 C56.5074182,-1.91678747 67.9329952,31.1521015 66.9394668,37.6656706 C65.9459383,44.1792396 57.0041824,48.1875898 53.0300686,46.6844585 C49.0559549,45.1813271 28.1918577,28.6468827 23.7209797,21.1312261 Z" id="Path-2"></path>
                <path d="M0.107889305,31.1468104 C1.10091429,35.1148415 21.9544389,64.3790709 28.4091013,65.8670826 C34.8637637,67.3550942 52.2417009,55.9846237 49.7591384,49.9949581 C47.276576,44.0052926 22.9474639,23.7067521 14.0102391,22.2187404 C5.07301422,20.7307287 -0.885135677,27.1787793 0.107889305,31.1468104 Z" id="Path-3"></path>
                <path d="M30,76.5939849 C30,67.9985992 55,56.3695479 58.5,55.3583261 C62,54.3471042 64,55.3583261 64,59.9088244 C64,62.834127 56.9745751,71.8189482 51.0265296,78.5352316 C47.7220037,82.2665637 44.7500137,85.297706 43.5,86.2005925 C40,88.7286471 30,85.1893706 30,76.5939849 Z" id="Path-4"></path>
                <path d="M61.0804333,48.1845744 C62.07251,42.8295971 73.4813918,43.3164132 75.4655451,45.7504938 C77.4496985,48.1845744 73.447749,55 71.0012001,55 C68.5546512,55 60.0883566,53.5395517 61.0804333,48.1845744 Z" id="Path-5"></path>
                <path d="M95.0680213,35.2219884 L88.2944973,35.2219884 L88.2944973,51.7985271 L85.773524,51.7985271 L85.773524,35.2219884 L79,35.2219884 L79,33 L95.0680213,33 L95.0680213,35.2219884 Z M105.41929,51.7985271 L103.038371,51.7985271 L103.038371,50.2961599 C102.826167,50.4392432 102.539695,50.639136 102.178948,50.8958443 C101.818201,51.1525526 101.468069,51.3566536 101.128543,51.5081536 C100.729599,51.7017369 100.271245,51.8637553 99.7534665,51.9942136 C99.2356882,52.1246719 98.6287933,52.1899001 97.9327636,52.1899001 C96.6510502,52.1899001 95.5645811,51.7690731 94.6733234,50.9274066 C93.7820658,50.0857401 93.3364437,49.0126315 93.3364437,47.7080484 C93.3364437,46.639132 93.5677428,45.7743326 94.030348,45.1136244 C94.4929531,44.4529162 95.1528982,43.933195 96.0102032,43.554445 C96.8759963,43.1756951 97.9157813,42.9189907 99.1295893,42.784324 C100.343397,42.6496574 101.646311,42.5486589 103.038371,42.4813256 L103.038371,42.1152025 C103.038371,41.576536 102.942881,41.1304594 102.751897,40.7769595 C102.560913,40.4234596 102.287174,40.1457138 101.930671,39.9437138 C101.591144,39.7501305 101.183718,39.6196742 100.708381,39.5523409 C100.233043,39.4850076 99.7364928,39.4513414 99.2187146,39.4513414 C98.5905902,39.4513414 97.8903268,39.5334027 97.1179035,39.6975276 C96.3454803,39.8616526 95.5476045,40.0994198 94.7242522,40.4108364 L94.5969303,40.4108364 L94.5969303,37.999474 C95.0637796,37.873224 95.7385788,37.7343511 96.6213482,37.5828511 C97.5041177,37.4313512 98.3741418,37.3556023 99.2314468,37.3556023 C100.233051,37.3556023 101.105197,37.4376636 101.847911,37.6017885 C102.590626,37.7659135 103.233595,38.0457634 103.776838,38.4413467 C104.311592,38.8285132 104.719018,39.3292973 104.999128,39.9437138 C105.279237,40.5581304 105.41929,41.3198271 105.41929,42.2288269 L105.41929,51.7985271 Z M103.038371,48.3266702 L103.038371,44.4003156 C102.308389,44.4423989 101.448974,44.505523 100.460103,44.5896896 C99.4712314,44.6738563 98.6882096,44.7958961 98.1110142,44.9558127 C97.4234726,45.149396 96.867506,45.4502873 96.4430976,45.8584955 C96.0186892,46.2667038 95.8064882,46.8285077 95.8064882,47.5439243 C95.8064882,48.3519241 96.0526414,48.960019 96.5449551,49.3682272 C97.0372688,49.7764355 97.7884604,49.9805366 98.7985524,49.9805366 C99.638881,49.9805366 100.407049,49.8185182 101.103078,49.4944766 C101.799108,49.170435 102.444199,48.7811701 103.038371,48.3266702 Z M118.902677,40.2845871 L118.775355,40.2845871 C118.418852,40.2004204 118.072965,40.1394005 117.737682,40.1015255 C117.402399,40.0636505 117.005584,40.0447133 116.547222,40.0447133 C115.808752,40.0447133 115.095756,40.2067317 114.408215,40.5307733 C113.720673,40.8548149 113.058606,41.2735377 112.421994,41.7869542 L112.421994,51.7985271 L110.028342,51.7985271 L110.028342,37.6964755 L112.421994,37.6964755 L112.421994,39.7795897 C113.372668,39.0220898 114.210862,38.4855355 114.936601,38.1699106 C115.662339,37.8542856 116.402921,37.6964755 117.158367,37.6964755 C117.574288,37.6964755 117.875613,37.7069962 118.062353,37.7280379 C118.249093,37.7490795 118.529198,37.7890581 118.902677,37.8479748 L118.902677,40.2845871 Z M133.277318,44.7538138 C133.277318,47.0515633 132.683155,48.8653274 131.494811,50.1951604 C130.306468,51.5249935 128.71496,52.1899001 126.720241,52.1899001 C124.708545,52.1899001 123.110671,51.5249935 121.926572,50.1951604 C120.742472,48.8653274 120.150432,47.0515633 120.150432,44.7538138 C120.150432,42.4560643 120.742472,40.640196 121.926572,39.3061547 C123.110671,37.9721133 124.708545,37.3051026 126.720241,37.3051026 C128.71496,37.3051026 130.306468,37.9721133 131.494811,39.3061547 C132.683155,40.640196 133.277318,42.4560643 133.277318,44.7538138 Z M130.807273,44.7538138 C130.807273,42.9273975 130.446531,41.5702306 129.725037,40.6822725 C129.003543,39.7943143 128.001954,39.3503419 126.720241,39.3503419 C125.421551,39.3503419 124.413596,39.7943143 123.696346,40.6822725 C122.979096,41.5702306 122.620476,42.9273975 122.620476,44.7538138 C122.620476,46.5213134 122.981218,47.8616472 123.702712,48.7748553 C124.424206,49.6880635 125.430039,50.1446607 126.720241,50.1446607 C127.993466,50.1446607 128.992933,49.6922718 129.718671,48.7874803 C130.444409,47.8826888 130.807273,46.5381467 130.807273,44.7538138 Z M144.367053,51.6722777 C143.91718,51.7901111 143.426996,51.8869013 142.896486,51.9626512 C142.365975,52.0384012 141.892767,52.0762756 141.476847,52.0762756 C140.02537,52.0762756 138.921925,51.6891149 138.166478,50.9147817 C137.411031,50.1404485 137.033313,48.8990091 137.033313,47.1904261 L137.033313,39.6912151 L135.416325,39.6912151 L135.416325,37.6964755 L137.033313,37.6964755 L137.033313,33.6438716 L139.426964,33.6438716 L139.426964,37.6964755 L144.367053,37.6964755 L144.367053,39.6912151 L139.426964,39.6912151 L139.426964,46.1173067 C139.426964,46.8579732 139.44394,47.4366102 139.477893,47.8532351 C139.511846,48.2698601 139.630678,48.659125 139.834394,49.0210416 C140.021134,49.3577082 140.277897,49.6038919 140.604692,49.7596002 C140.931486,49.9153085 141.430159,49.9931615 142.100724,49.9931615 C142.49118,49.9931615 142.898605,49.9363499 143.323014,49.8227249 C143.747422,49.7090999 144.052992,49.6144138 144.239731,49.5386639 L144.367053,49.5386639 L144.367053,51.6722777 Z M162.395832,51.7985271 L159.70934,51.7985271 L157.85044,46.5591794 L149.650911,46.5591794 L147.792012,51.7985271 L145.232842,51.7985271 L152.133688,33 L155.494986,33 L162.395832,51.7985271 Z M157.073777,44.4129406 L153.750676,35.1841136 L150.414843,44.4129406 L157.073777,44.4129406 Z M177.598064,44.5770647 C177.598064,45.7217311 177.432547,46.7674861 177.101509,47.7143609 C176.77047,48.6612357 176.303628,49.462911 175.700968,50.1194108 C175.140749,50.742244 174.480804,51.2240909 173.721113,51.5649658 C172.961422,51.9058407 172.15718,52.0762756 171.308363,52.0762756 C170.569893,52.0762756 169.901459,51.9963185 169.303044,51.8364019 C168.704628,51.6764853 168.095611,51.4281974 167.475975,51.0915308 L167.475975,57 L165.082323,57 L165.082323,37.6964755 L167.475975,37.6964755 L167.475975,39.1735928 C168.112587,38.643343 168.827705,38.1993705 169.621348,37.8416623 C170.414992,37.483954 171.261674,37.3051026 172.16142,37.3051026 C173.87603,37.3051026 175.210774,37.9468637 176.165693,39.230405 C177.120612,40.5139464 177.598064,42.2961485 177.598064,44.5770647 Z M175.12802,44.6401894 C175.12802,42.9400231 174.835182,41.6691257 174.249499,40.8274592 C173.663815,39.9857927 172.764083,39.5649658 171.550275,39.5649658 C170.862733,39.5649658 170.170958,39.7122552 169.474928,40.0068385 C168.778898,40.3014218 168.112587,40.6885826 167.475975,41.1683325 L167.475975,49.1599158 C168.155028,49.4629158 168.738581,49.669121 169.22665,49.7785376 C169.71472,49.8879543 170.268565,49.9426618 170.888201,49.9426618 C172.220843,49.9426618 173.260628,49.4965852 174.007587,48.6044187 C174.754546,47.7122522 175.12802,46.3908557 175.12802,44.6401894 Z M193.844336,44.5770647 C193.844336,45.7217311 193.678819,46.7674861 193.347781,47.7143609 C193.016742,48.6612357 192.5499,49.462911 191.94724,50.1194108 C191.387021,50.742244 190.727076,51.2240909 189.967385,51.5649658 C189.207694,51.9058407 188.403452,52.0762756 187.554635,52.0762756 C186.816164,52.0762756 186.147731,51.9963185 185.549315,51.8364019 C184.9509,51.6764853 184.341883,51.4281974 183.722246,51.0915308 L183.722246,57 L181.328595,57 L181.328595,37.6964755 L183.722246,37.6964755 L183.722246,39.1735928 C184.358859,38.643343 185.073976,38.1993705 185.86762,37.8416623 C186.661264,37.483954 187.507946,37.3051026 188.407692,37.3051026 C190.122302,37.3051026 191.457046,37.9468637 192.411965,39.230405 C193.366884,40.5139464 193.844336,42.2961485 193.844336,44.5770647 Z M191.374291,44.6401894 C191.374291,42.9400231 191.081454,41.6691257 190.49577,40.8274592 C189.910087,39.9857927 189.010355,39.5649658 187.796547,39.5649658 C187.109005,39.5649658 186.41723,39.7122552 185.7212,40.0068385 C185.02517,40.3014218 184.358859,40.6885826 183.722246,41.1683325 L183.722246,49.1599158 C184.4013,49.4629158 184.984853,49.669121 185.472922,49.7785376 C185.960992,49.8879543 186.514837,49.9426618 187.134473,49.9426618 C188.467115,49.9426618 189.5069,49.4965852 190.253859,48.6044187 C191.000818,47.7122522 191.374291,46.3908557 191.374291,44.6401894 Z M209.479463,44.9936875 L199.000872,44.9936875 C199.000872,45.860604 199.132437,46.6159884 199.39557,47.2598632 C199.658703,47.9037381 200.019445,48.4318759 200.477806,48.8442925 C200.919191,49.2482924 201.443327,49.5512878 202.050231,49.7532877 C202.657135,49.9552877 203.325568,50.0562862 204.055551,50.0562862 C205.023202,50.0562862 205.997204,49.8648099 206.977588,49.4818517 C207.957971,49.0988934 208.656113,48.7222533 209.072033,48.35192 L209.199355,48.35192 L209.199355,50.9400316 C208.392979,51.2766982 207.569639,51.5586522 206.72931,51.7859022 C205.888982,52.0131521 205.006225,52.1267754 204.081015,52.1267754 C201.721304,52.1267754 199.8794,51.4934308 198.555245,50.2267228 C197.231091,48.9600147 196.569024,47.1609796 196.569024,44.8295634 C196.569024,42.5233972 197.203505,40.6928 198.472486,39.337717 C199.741467,37.9826339 201.411489,37.3051026 203.482602,37.3051026 C205.400928,37.3051026 206.879969,37.8605941 207.91977,38.9715939 C208.95957,40.0825937 209.479463,41.6606947 209.479463,43.7059442 L209.479463,44.9936875 Z M207.149472,43.175697 C207.140984,41.9300306 206.824805,40.9663369 206.200924,40.2845871 C205.577044,39.6028372 204.628506,39.2619674 203.35528,39.2619674 C202.073567,39.2619674 201.05288,39.6365034 200.293189,40.3855865 C199.533498,41.1346697 199.10273,42.0646972 199.000872,43.175697 L207.149472,43.175697 Z M225,51.7985271 L222.606349,51.7985271 L222.606349,43.7690689 C222.606349,43.1209857 222.568152,42.5128908 222.491759,41.9447659 C222.415365,41.376641 222.275313,40.9326686 222.071597,40.6128353 C221.859393,40.2593354 221.553823,39.9963186 221.154879,39.823777 C220.755935,39.6512353 220.238165,39.5649658 219.601552,39.5649658 C218.947963,39.5649658 218.264676,39.72488 217.55167,40.0447133 C216.838664,40.3645466 216.155377,40.7727487 215.501788,41.2693319 L215.501788,51.7985271 L213.108136,51.7985271 L213.108136,37.6964755 L215.501788,37.6964755 L215.501788,39.2619674 C216.248747,38.6475508 217.021158,38.1678081 217.819046,37.8227249 C218.616934,37.4776416 219.43603,37.3051026 220.276358,37.3051026 C221.812717,37.3051026 222.984066,37.7638039 223.790442,38.6812204 C224.596818,39.5986369 225,40.9200335 225,42.6454498 L225,51.7985271 Z" id="TarotAppen"></path>
            </g>
        </g>
    </g>
</svg>