<?xml version="1.0" encoding="UTF-8"?>
<svg width="74px" height="74px" viewBox="0 0 74 74" version="1.1" xmlns="http://www.w3.org/2000/svg" xmlns:xlink="http://www.w3.org/1999/xlink">
    <!-- Generator: Sketch 50.2 (55047) - http://www.bohemiancoding.com/sketch -->
    <title>Shape</title>
    <desc>Created with Sketch.</desc>
    <defs></defs>
    <g id="Page-1" stroke="none" stroke-width="1" fill="none" fill-rule="evenodd">
        <g id="Mobile-menu" transform="translate(-124.000000, -744.000000)" fill="#B49290" fill-rule="nonzero">
            <path d="M198,744.263815 L198,744 L124,744 L124,818 L198,818 L198,744.263815 Z M134.835714,756.663102 C134.967857,756.795009 134.967857,756.795009 134.835714,756.663102 L185.710714,756.795009 C177.517857,766.160428 169.192857,775.657754 160.471429,784.627451 C152.278571,775.130125 143.689286,765.896613 134.835714,756.663102 Z M134.835714,764.313725 C140.121429,769.853832 145.407143,775.525847 150.560714,781.329768 C144.614286,786.606061 139.460714,792.937611 134.835714,799.532977 L134.835714,764.313725 Z M137.875,804.413547 C142.632143,797.554367 147.917857,790.695187 154.128571,785.286988 C155.582143,787.001783 157.167857,788.716578 158.621429,790.431373 C159.678571,791.486631 161.264286,791.486631 162.321429,790.431373 C164.303571,788.452763 166.285714,786.342246 168.267857,784.231729 C174.875,790.035651 180.689286,797.290553 185.842857,804.545455 L137.875,804.545455 L137.875,804.413547 Z M187.164286,797.42246 C182.539286,791.222816 177.517857,785.286988 171.835714,780.27451 C176.989286,774.602496 182.142857,768.930481 187.164286,763.12656 L187.164286,797.42246 Z" id="Shape"></path>
        </g>
    </g>
</svg>