<?xml version="1.0" encoding="UTF-8"?>
<svg width="74px" height="74px" viewBox="0 0 74 74" version="1.1" xmlns="http://www.w3.org/2000/svg" xmlns:xlink="http://www.w3.org/1999/xlink">
    <!-- Generator: Sketch 51.3 (57544) - http://www.bohemiancoding.com/sketch -->
    <title>Group 9</title>
    <desc>Created with Sketch.</desc>
    <defs></defs>
    <g id="Page-1" stroke="none" stroke-width="1" fill="none" fill-rule="evenodd">
        <g id="Mobile-Copy" transform="translate(-218.000000, -854.000000)" fill-rule="nonzero">
            <g id="Group-9" transform="translate(218.000000, 854.000000)">
                <circle id="Oval" fill="#F1C929" cx="37" cy="61.4042553" r="3.93617021"></circle>
                <path d="M32.2765957,14.1705659 C32.2776846,13.7360767 32.6067916,13.3841431 33.0130995,13.3829787 L41.0089545,13.3829787 C41.4069483,13.3957287 41.7234043,13.7444234 41.7234043,14.1702128 C41.7234043,14.5960021 41.4069483,14.9446969 41.0089545,14.9574468 L33.0130995,14.9574468 C32.6070484,14.9562844 32.2780471,14.6047793 32.2765957,14.1705659 Z" id="Shape" fill="#F1C929"></path>
                <path d="M50.3829787,20.6159853 L50.3829787,52.5967807 C50.3784163,53.5461232 49.6095356,54.3145889 48.6596805,54.3191489 L25.3396781,54.3191489 C24.3892011,54.3163311 23.6194868,53.5467458 23.6170213,52.5967807 L23.6170213,20.6159853 C23.6194868,19.6660202 24.3892011,18.8964348 25.3396781,18.893617 L48.6564738,18.893617 C49.6075809,18.8964226 50.3784034,19.6653983 50.3829787,20.6159853 Z" id="Shape" fill="#F1C929"></path>
                <path d="M0,0 L0,74 L74,74 L74,0 L0,0 Z M54.862381,61.1286925 C54.862381,64.3823915 52.2000873,67.0446851 48.9463883,67.0446851 L24.9534282,67.0446851 C21.6997292,67.0446851 19.0374356,64.3823915 19.0374356,61.1286925 L19.0374356,13.0219058 C19.0374356,9.76820683 21.6997292,7.10655952 24.9534282,7.10655952 L48.9463883,7.10655952 C52.2000873,7.10655952 54.862381,9.76820683 54.862381,13.0219058 L54.862381,61.1286925 Z" id="Shape" fill="#2B3E16"></path>
                <circle id="Oval" fill="#000000" cx="37" cy="61.4042553" r="3.93617021"></circle>
                <path d="M50.3829787,20.6159853 L50.3829787,52.5967807 C50.3784163,53.5461232 49.6095356,54.3145889 48.6596805,54.3191489 L25.3396781,54.3191489 C24.3892011,54.3163311 23.6194868,53.5467458 23.6170213,52.5967807 L23.6170213,20.6159853 C23.6194868,19.6660202 24.3892011,18.8964348 25.3396781,18.893617 L48.6564738,18.893617 C49.6075809,18.8964226 50.3784034,19.6653983 50.3829787,20.6159853 Z" id="Shape" fill="#000000"></path>
                <path d="M41.7234043,14.1705659 C41.7219529,14.6047793 41.3929516,14.9562844 40.9869005,14.9574468 L32.9910455,14.9574468 C32.5930517,14.9446969 32.2765957,14.5960021 32.2765957,14.1702128 C32.2765957,13.7444234 32.5930517,13.3957287 32.9910455,13.3829787 L40.9869005,13.3829787 C41.3932084,13.3841431 41.7223154,13.7360767 41.7234043,14.1705659 Z" id="Shape" fill="#000000"></path>
                <circle id="Oval" fill="#2B3E16" cx="37" cy="61.4042553" r="3.93617021"></circle>
                <path d="M32.2765957,14.1705659 C32.2776846,13.7360767 32.6067916,13.3841431 33.0130995,13.3829787 L41.0089545,13.3829787 C41.4069483,13.3957287 41.7234043,13.7444234 41.7234043,14.1702128 C41.7234043,14.5960021 41.4069483,14.9446969 41.0089545,14.9574468 L33.0130995,14.9574468 C32.6070484,14.9562844 32.2780471,14.6047793 32.2765957,14.1705659 Z" id="Shape" fill="#2B3E16"></path>
                <path d="M50.3829787,20.6159853 L50.3829787,52.5967807 C50.3784163,53.5461232 49.6095356,54.3145889 48.6596805,54.3191489 L25.3396781,54.3191489 C24.3892011,54.3163311 23.6194868,53.5467458 23.6170213,52.5967807 L23.6170213,20.6159853 C23.6194868,19.6660202 24.3892011,18.8964348 25.3396781,18.893617 L48.6564738,18.893617 C49.6075809,18.8964226 50.3784034,19.6653983 50.3829787,20.6159853 Z" id="Shape" fill="#2B3E16"></path>
            </g>
        </g>
    </g>
</svg>