<?xml version="1.0" encoding="UTF-8"?>
<svg width="68px" height="68px" viewBox="0 0 68 68" version="1.1" xmlns="http://www.w3.org/2000/svg" xmlns:xlink="http://www.w3.org/1999/xlink">
    <!-- Generator: Sketch 51.3 (57544) - http://www.bohemiancoding.com/sketch -->
    <title>Shape</title>
    <desc>Created with Sketch.</desc>
    <defs></defs>
    <g id="Page-1" stroke="none" stroke-width="1" fill="none" fill-rule="evenodd">
        <g id="Desktop-Copy-5" transform="translate(-748.000000, -5117.000000)" fill="#F0F0F0" fill-rule="nonzero">
            <path d="M748,5117 L748,5185 L816,5185 L816,5117 L748,5117 Z M772.595745,5167.6383 L763.191489,5167.6383 L763.191489,5143.04255 L772.595745,5143.04255 L772.595745,5167.6383 Z M772.595745,5140.14894 L763.191489,5140.14894 L763.191489,5133.6383 L772.595745,5133.6383 L772.595745,5140.14894 Z M803.664165,5167.6383 L794.19242,5167.6383 L794.19242,5154.03426 C794.19242,5152.48878 793.907698,5151.38214 793.338254,5150.73343 C792.768811,5150.08471 791.97159,5149.76035 790.92761,5149.76035 C789.788723,5149.76035 788.858632,5150.19919 788.156318,5151.05779 C787.454004,5151.93546 787.093356,5153.48094 787.093356,5155.73238 L787.093356,5167.61922 L777.659574,5167.61922 L777.659574,5142.89155 L786.447987,5142.89155 L786.447987,5146.91743 C787.757707,5145.27655 789.086409,5144.09359 790.434092,5143.38763 C791.781775,5142.68167 793.41418,5142.31915 795.350288,5142.31915 C797.969729,5142.31915 800.000744,5143.10143 801.481298,5144.66599 C802.961851,5146.23055 803.702128,5148.63463 803.702128,5151.8973 L803.702128,5167.6383 L803.664165,5167.6383 Z" id="Shape"></path>
        </g>
    </g>
</svg>