<?xml version="1.0" encoding="UTF-8"?>
<svg width="652px" height="265px" viewBox="0 0 652 265" version="1.1" xmlns="http://www.w3.org/2000/svg" xmlns:xlink="http://www.w3.org/1999/xlink">
    <!-- Generator: Sketch 50.2 (55047) - http://www.bohemiancoding.com/sketch -->
    <title>Group 2</title>
    <desc>Created with Sketch.</desc>
    <defs></defs>
    <g id="Page-1" stroke="none" stroke-width="1" fill="none" fill-rule="evenodd">
        <g id="Group-2" fill="#DCBC3F">
            <g id="Group">
                <path d="M0,0 L643,0 L643,169 L0,169 L0,0 Z M14,30.24 L14,122.28 L34.28,122.28 L34.28,56.76 L34.54,56.76 L74.71,122.28 L101.23,122.28 L101.23,30.24 L80.95,30.24 L80.95,94.2 L80.69,94.2 L41.56,30.24 L14,30.24 Z M115.14,90.69 C115.14,95.7166918 116.049991,100.266646 117.87,104.34 C119.690009,108.413354 122.181651,111.901652 125.345,114.805 C128.508349,117.708348 132.234979,119.939992 136.525,121.5 C140.815021,123.060008 145.386642,123.84 150.24,123.84 C155.093358,123.84 159.664979,123.060008 163.955,121.5 C168.245021,119.939992 171.971651,117.708348 175.135,114.805 C178.298349,111.901652 180.789991,108.413354 182.61,104.34 C184.430009,100.266646 185.34,95.7166918 185.34,90.69 C185.34,85.6633082 184.430009,81.1133537 182.61,77.04 C180.789991,72.9666463 178.298349,69.4783478 175.135,66.575 C171.971651,63.6716521 168.245021,61.4400078 163.955,59.88 C159.664979,58.3199922 155.093358,57.54 150.24,57.54 C145.386642,57.54 140.815021,58.3199922 136.525,59.88 C132.234979,61.4400078 128.508349,63.6716521 125.345,66.575 C122.181651,69.4783478 119.690009,72.9666463 117.87,77.04 C116.049991,81.1133537 115.14,85.6633082 115.14,90.69 Z M239.81,74.7 L239.81,59.1 L222.65,59.1 L222.65,40.38 L203.15,40.38 L203.15,59.1 L190.67,59.1 L190.67,74.7 L203.15,74.7 L203.15,104.73 C203.15,108.196684 203.734994,111.143321 204.905,113.57 C206.075006,115.996679 207.69999,117.968326 209.78,119.485 C211.86001,121.001674 214.286653,122.106663 217.06,122.8 C219.833347,123.493337 222.86665,123.84 226.16,123.84 C228.413345,123.84 230.709988,123.710001 233.05,123.45 C235.390012,123.189999 237.643323,122.670004 239.81,121.89 L239.81,105.64 C238.943329,106.420004 237.665008,106.918332 235.975,107.135 C234.284992,107.351668 232.920005,107.46 231.88,107.46 C229.79999,107.46 228.131673,107.178336 226.875,106.615 C225.618327,106.051664 224.68667,105.250005 224.08,104.21 C223.47333,103.169995 223.083334,101.935007 222.91,100.505 C222.736666,99.0749928 222.65,97.493342 222.65,95.76 L222.65,74.7 L239.81,74.7 Z M269.19,24 L249.69,24 L249.69,122.28 L269.19,122.28 L269.19,90.82 C269.19,88.7399896 269.319999,86.7466762 269.58,84.84 C269.840001,82.9333238 270.381663,81.2216742 271.205,79.705 C272.028337,78.1883257 273.219992,76.9750045 274.78,76.065 C276.340008,75.1549955 278.376654,74.7 280.89,74.7 C283.403346,74.7 285.33166,75.2199948 286.675,76.26 C288.01834,77.3000052 289.014997,78.6433251 289.665,80.29 C290.315003,81.9366749 290.704999,83.7349903 290.835,85.685 C290.965001,87.6350097 291.03,89.5199909 291.03,91.34 L291.03,122.28 L310.53,122.28 L310.53,87.44 C310.53,83.1933121 310.22667,79.2500182 309.62,75.61 C309.01333,71.9699818 307.865008,68.8066801 306.175,66.12 C304.484992,63.4333199 302.123349,61.3316742 299.09,59.815 C296.056652,58.2983258 292.070025,57.54 287.13,57.54 C284.789988,57.54 282.623343,57.8433303 280.63,58.45 C278.636657,59.0566697 276.903341,59.8366619 275.43,60.79 C273.956659,61.7433381 272.700005,62.8266606 271.66,64.04 C270.619995,65.2533394 269.883336,66.4666606 269.45,67.68 L269.19,67.68 L269.19,24 Z M324.57,59.1 L324.57,122.28 L344.07,122.28 L344.07,59.1 L324.57,59.1 Z M323.01,39.21 C323.01,42.3300156 324.114989,44.9949889 326.325,47.205 C328.535011,49.415011 331.199984,50.52 334.32,50.52 C337.440016,50.52 340.104989,49.415011 342.315,47.205 C344.525011,44.9949889 345.63,42.3300156 345.63,39.21 C345.63,36.0899844 344.525011,33.425011 342.315,31.215 C340.104989,29.0049889 337.440016,27.9 334.32,27.9 C331.199984,27.9 328.535011,29.0049889 326.325,31.215 C324.114989,33.425011 323.01,36.0899844 323.01,39.21 Z M358.11,59.1 L358.11,122.28 L377.61,122.28 L377.61,90.82 C377.61,88.7399896 377.739999,86.7466762 378,84.84 C378.260001,82.9333238 378.801663,81.2216742 379.625,79.705 C380.448337,78.1883257 381.639992,76.9750045 383.2,76.065 C384.760008,75.1549955 386.796654,74.7 389.31,74.7 C391.823346,74.7 393.75166,75.2199948 395.095,76.26 C396.43834,77.3000052 397.434997,78.6433251 398.085,80.29 C398.735003,81.9366749 399.124999,83.7349903 399.255,85.685 C399.385001,87.6350097 399.45,89.5199909 399.45,91.34 L399.45,122.28 L418.95,122.28 L418.95,87.44 C418.95,83.1933121 418.64667,79.2500182 418.04,75.61 C417.43333,71.9699818 416.285008,68.8066801 414.595,66.12 C412.904992,63.4333199 410.543349,61.3316742 407.51,59.815 C404.476652,58.2983258 400.490025,57.54 395.55,57.54 C393.209988,57.54 391.043343,57.8433303 389.05,58.45 C387.056657,59.0566697 385.280008,59.8366619 383.72,60.79 C382.159992,61.7433381 380.816672,62.8266606 379.69,64.04 C378.563328,65.2533394 377.69667,66.4666606 377.09,67.68 L376.83,67.68 L376.83,59.1 L358.11,59.1 Z M499.03,116.95 L499.03,59.1 L481.09,59.1 L481.09,67.42 L480.83,67.42 C480.049996,66.2933277 479.010007,65.1450058 477.71,63.975 C476.409994,62.8049941 474.850009,61.7433381 473.03,60.79 C471.209991,59.8366619 469.151678,59.0566697 466.855,58.45 C464.558322,57.8433303 462.023347,57.54 459.25,57.54 C454.743311,57.54 450.713351,58.4716573 447.16,60.335 C443.606649,62.1983426 440.595012,64.6466515 438.125,67.68 C435.654988,70.7133485 433.74834,74.2233134 432.405,78.21 C431.06166,82.1966866 430.39,86.2699792 430.39,90.43 C430.39,95.1966905 431.126659,99.5733134 432.6,103.56 C434.073341,107.546687 436.174986,110.991652 438.905,113.895 C441.635014,116.798348 444.906648,119.051659 448.72,120.655 C452.533352,122.258341 456.779977,123.06 461.46,123.06 C464.406681,123.06 467.548317,122.431673 470.885,121.175 C474.221683,119.918327 477.016655,117.773348 479.27,114.74 L479.53,114.74 L479.53,120.85 C479.53,125.356689 478.121681,129.061652 475.305,131.965 C472.488319,134.868348 468.09003,136.32 462.11,136.32 C458.123313,136.32 454.461683,135.583341 451.125,134.11 C447.788317,132.636659 444.603349,130.643346 441.57,128.13 L430.78,144.25 C435.373356,147.890018 440.399973,150.338327 445.86,151.595 C451.320027,152.851673 456.866639,153.48 462.5,153.48 C474.806728,153.48 483.971637,150.381698 489.995,144.185 C496.018363,137.988302 499.03,128.91006 499.03,116.95 Z M553.37,59.1 L553.37,122.28 L572.87,122.28 L572.87,59.1 L553.37,59.1 Z M551.81,39.21 C551.81,42.3300156 552.914989,44.9949889 555.125,47.205 C557.335011,49.415011 559.999984,50.52 563.12,50.52 C566.240016,50.52 568.904989,49.415011 571.115,47.205 C573.325011,44.9949889 574.43,42.3300156 574.43,39.21 C574.43,36.0899844 573.325011,33.425011 571.115,31.215 C568.904989,29.0049889 566.240016,27.9 563.12,27.9 C559.999984,27.9 557.335011,29.0049889 555.125,31.215 C552.914989,33.425011 551.81,36.0899844 551.81,39.21 Z M622.66,77.69 L634.62,65.86 C631.673319,62.7399844 628.076688,60.5733394 623.83,59.36 C619.583312,58.1466606 615.380021,57.54 611.22,57.54 C607.92665,57.54 604.676683,57.9516625 601.47,58.775 C598.263317,59.5983374 595.425012,60.876658 592.955,62.61 C590.484988,64.343342 588.491674,66.5533199 586.975,69.24 C585.458326,71.9266801 584.7,75.1333147 584.7,78.86 C584.7,82.8466866 585.501659,86.0316547 587.105,88.415 C588.708341,90.7983453 590.744988,92.6399935 593.215,93.94 C595.685012,95.2400065 598.328319,96.2149967 601.145,96.865 C603.961681,97.5150032 606.604988,98.1216639 609.075,98.685 C611.545012,99.2483362 613.581659,99.9416625 615.185,100.765 C616.788341,101.588337 617.59,102.823325 617.59,104.47 C617.59,106.203342 616.680009,107.394997 614.86,108.045 C613.039991,108.695003 611.003345,109.02 608.75,109.02 C605.803319,109.02 603.225011,108.435006 601.015,107.265 C598.804989,106.094994 596.790009,104.383345 594.97,102.13 L583.14,115.26 C586.260016,118.466683 590.073311,120.698327 594.58,121.955 C599.086689,123.211673 603.549978,123.84 607.97,123.84 C611.350017,123.84 614.773316,123.515003 618.24,122.865 C621.706684,122.214997 624.826653,121.088341 627.6,119.485 C630.373347,117.881659 632.648324,115.758347 634.425,113.115 C636.201676,110.471653 637.09,107.113354 637.09,103.04 C637.09,99.0533134 636.288341,95.8683452 634.685,93.485 C633.081659,91.1016547 631.045012,89.2166736 628.575,87.83 C626.104988,86.4433264 623.461681,85.4250032 620.645,84.775 C617.828319,84.1249968 615.185012,83.5183361 612.715,82.955 C610.244988,82.3916638 608.208341,81.7416703 606.605,81.005 C605.001659,80.2683296 604.2,79.1200078 604.2,77.56 C604.2,75.6533238 604.979992,74.3100039 606.54,73.53 C608.100008,72.7499961 609.703325,72.36 611.35,72.36 C616.030023,72.36 619.799986,74.1366489 622.66,77.69 Z" id="Combined-Shape"></path>
                <rect id="Rectangle-5" x="642" y="0" width="8" height="169"></rect>
                <path d="M465.470588,107 C475.08684,107 481,99.3005589 481,89.8028169 C481,80.3050749 475.08684,74 465.470588,74 C455.854336,74 449,81.002258 449,90.5 C449,99.997742 455.854336,107 465.470588,107 Z" id="Oval"></path>
                <path d="M150.470588,107 C160.08684,107 166,99.3005589 166,89.8028169 C166,80.3050749 160.08684,74 150.470588,74 C140.854336,74 134,81.002258 134,90.5 C134,99.997742 140.854336,107 150.470588,107 Z" id="Oval"></path>
            </g>
            <path d="M1,184.007194 L18.3956835,184.007194 L18.3956835,262.956835 L1,262.956835 L1,184.007194 Z M34.2302158,184.007194 L60.5467626,184.007194 L78.7230216,235.52518 L78.9460432,235.52518 L97.2338129,184.007194 L123.438849,184.007194 L123.438849,262.956835 L106.043165,262.956835 L106.043165,202.406475 L105.820144,202.406475 L85.0791367,262.956835 L71.8093525,262.956835 L51.8489209,202.406475 L51.6258993,202.406475 L51.6258993,262.956835 L34.2302158,262.956835 L34.2302158,184.007194 Z M139.496403,184.007194 L168.823741,184.007194 C172.91249,184.007194 176.778159,184.378893 180.420863,185.122302 C184.063567,185.865711 187.241593,187.148072 189.955036,188.969424 C192.668479,190.790776 194.824333,193.243989 196.422662,196.329137 C198.020991,199.414284 198.820144,203.298538 198.820144,207.982014 C198.820144,212.59115 198.076746,216.456819 196.589928,219.579137 C195.10311,222.701454 193.058766,225.191837 190.456835,227.05036 C187.854903,228.908882 184.769802,230.228413 181.201439,231.008993 C177.633076,231.789572 173.767407,232.179856 169.604317,232.179856 L156.892086,232.179856 L156.892086,262.956835 L139.496403,262.956835 L139.496403,184.007194 Z M156.892086,217.460432 L168.489209,217.460432 C170.050368,217.460432 171.555748,217.311752 173.005396,217.014388 C174.455043,216.717025 175.755989,216.215231 176.908273,215.508993 C178.060557,214.802754 178.989805,213.836337 179.696043,212.609712 C180.402282,211.383087 180.755396,209.840537 180.755396,207.982014 C180.755396,205.97481 180.290772,204.35792 179.361511,203.131295 C178.43225,201.90467 177.242813,200.956838 175.793165,200.28777 C174.343518,199.618702 172.726628,199.191248 170.942446,199.005396 C169.158264,198.819543 167.448449,198.726619 165.81295,198.726619 L156.892086,198.726619 L156.892086,217.460432 Z M205.510791,223.482014 C205.510791,217.163038 206.570133,211.438875 208.688849,206.309353 C210.807565,201.17983 213.762571,196.812368 217.553957,193.206835 C221.345343,189.601301 225.8429,186.832144 231.046763,184.899281 C236.250626,182.966417 241.937619,182 248.107914,182 C254.278208,182 259.965202,182.966417 265.169065,184.899281 C270.372928,186.832144 274.870485,189.601301 278.661871,193.206835 C282.453256,196.812368 285.408263,201.17983 287.526978,206.309353 C289.645694,211.438875 290.705036,217.163038 290.705036,223.482014 C290.705036,229.800991 289.645694,235.525154 287.526978,240.654676 C285.408263,245.784198 282.453256,250.151661 278.661871,253.757194 C274.870485,257.362728 270.372928,260.131885 265.169065,262.064748 C259.965202,263.997612 254.278208,264.964029 248.107914,264.964029 C241.937619,264.964029 236.250626,263.997612 231.046763,262.064748 C225.8429,260.131885 221.345343,257.362728 217.553957,253.757194 C213.762571,250.151661 210.807565,245.784198 208.688849,240.654676 C206.570133,235.525154 205.510791,229.800991 205.510791,223.482014 Z M223.57554,223.482014 C223.57554,227.199059 224.151673,230.600104 225.303957,233.685252 C226.456241,236.770399 228.110301,239.446631 230.266187,241.714029 C232.422073,243.981426 235.005381,245.746996 238.016187,247.010791 C241.026993,248.274587 244.390869,248.906475 248.107914,248.906475 C251.824959,248.906475 255.188834,248.274587 258.19964,247.010791 C261.210447,245.746996 263.793754,243.981426 265.94964,241.714029 C268.105526,239.446631 269.759587,236.770399 270.911871,233.685252 C272.064154,230.600104 272.640288,227.199059 272.640288,223.482014 C272.640288,219.83931 272.064154,216.45685 270.911871,213.334532 C269.759587,210.212215 268.105526,207.517397 265.94964,205.25 C263.793754,202.982603 261.210447,201.217033 258.19964,199.953237 C255.188834,198.689442 251.824959,198.057554 248.107914,198.057554 C244.390869,198.057554 241.026993,198.689442 238.016187,199.953237 C235.005381,201.217033 232.422073,202.982603 230.266187,205.25 C228.110301,207.517397 226.456241,210.212215 225.303957,213.334532 C224.151673,216.45685 223.57554,219.83931 223.57554,223.482014 Z M341.553957,203.298561 C340.14148,201.51438 338.22723,200.194848 335.811151,199.339928 C333.395072,198.485008 331.109123,198.057554 328.953237,198.057554 C327.689442,198.057554 326.388496,198.206234 325.05036,198.503597 C323.712224,198.800961 322.448447,199.265584 321.258993,199.897482 C320.069538,200.52938 319.103121,201.365702 318.359712,202.406475 C317.616303,203.447247 317.244604,204.711024 317.244604,206.197842 C317.244604,208.576751 318.136682,210.398075 319.920863,211.661871 C321.705045,212.925666 323.953823,214.003593 326.667266,214.895683 C329.380709,215.787774 332.298546,216.679852 335.420863,217.571942 C338.543181,218.464033 341.461018,219.72781 344.17446,221.363309 C346.887903,222.998809 349.136682,225.191833 350.920863,227.942446 C352.705045,230.693059 353.597122,234.372879 353.597122,238.982014 C353.597122,243.368127 352.779385,247.196626 351.143885,250.467626 C349.508385,253.738625 347.296777,256.452028 344.508993,258.607914 C341.721209,260.7638 338.487428,262.362105 334.807554,263.402878 C331.127679,264.44365 327.243426,264.964029 323.154676,264.964029 C318.025154,264.964029 313.267408,264.183461 308.881295,262.622302 C304.495182,261.061143 300.406494,258.533591 296.615108,255.039568 L308.992806,241.435252 C310.776987,243.814161 313.025766,245.65407 315.739209,246.955036 C318.452651,248.256002 321.258978,248.906475 324.158273,248.906475 C325.57075,248.906475 327.001791,248.73921 328.451439,248.404676 C329.901086,248.070142 331.202033,247.568349 332.354317,246.899281 C333.5066,246.230212 334.435848,245.375305 335.142086,244.334532 C335.848325,243.29376 336.201439,242.067153 336.201439,240.654676 C336.201439,238.275767 335.290776,236.398688 333.469424,235.023381 C331.648072,233.648075 329.362124,232.477223 326.611511,231.510791 C323.860898,230.54436 320.887306,229.577942 317.690647,228.611511 C314.493989,227.645079 311.520397,226.344133 308.769784,224.708633 C306.019171,223.073133 303.733223,220.91728 301.911871,218.241007 C300.090518,215.564735 299.179856,212.033595 299.179856,207.647482 C299.179856,203.410051 300.016179,199.693062 301.688849,196.496403 C303.361519,193.299744 305.591713,190.623512 308.379496,188.467626 C311.16728,186.31174 314.382476,184.69485 318.02518,183.616906 C321.667884,182.538963 325.422043,182 329.28777,182 C333.748224,182 338.059931,182.631888 342.223022,183.895683 C346.386112,185.159479 350.140271,187.278163 353.485612,190.251799 L341.553957,203.298561 Z M405.561151,203.298561 C404.148674,201.51438 402.234425,200.194848 399.818345,199.339928 C397.402266,198.485008 395.116318,198.057554 392.960432,198.057554 C391.696636,198.057554 390.39569,198.206234 389.057554,198.503597 C387.719418,198.800961 386.455641,199.265584 385.266187,199.897482 C384.076733,200.52938 383.110315,201.365702 382.366906,202.406475 C381.623497,203.447247 381.251799,204.711024 381.251799,206.197842 C381.251799,208.576751 382.143876,210.398075 383.928058,211.661871 C385.712239,212.925666 387.961018,214.003593 390.67446,214.895683 C393.387903,215.787774 396.30574,216.679852 399.428058,217.571942 C402.550375,218.464033 405.468212,219.72781 408.181655,221.363309 C410.895098,222.998809 413.143876,225.191833 414.928058,227.942446 C416.712239,230.693059 417.604317,234.372879 417.604317,238.982014 C417.604317,243.368127 416.786579,247.196626 415.151079,250.467626 C413.515579,253.738625 411.303971,256.452028 408.516187,258.607914 C405.728403,260.7638 402.494623,262.362105 398.814748,263.402878 C395.134874,264.44365 391.25062,264.964029 387.161871,264.964029 C382.032348,264.964029 377.274602,264.183461 372.888489,262.622302 C368.502376,261.061143 364.413688,258.533591 360.622302,255.039568 L373,241.435252 C374.784182,243.814161 377.03296,245.65407 379.746403,246.955036 C382.459846,248.256002 385.266173,248.906475 388.165468,248.906475 C389.577945,248.906475 391.008986,248.73921 392.458633,248.404676 C393.908281,248.070142 395.209227,247.568349 396.361511,246.899281 C397.513795,246.230212 398.443042,245.375305 399.149281,244.334532 C399.855519,243.29376 400.208633,242.067153 400.208633,240.654676 C400.208633,238.275767 399.297971,236.398688 397.476619,235.023381 C395.655267,233.648075 393.369318,232.477223 390.618705,231.510791 C387.868092,230.54436 384.8945,229.577942 381.697842,228.611511 C378.501183,227.645079 375.527592,226.344133 372.776978,224.708633 C370.026365,223.073133 367.740417,220.91728 365.919065,218.241007 C364.097713,215.564735 363.18705,212.033595 363.18705,207.647482 C363.18705,203.410051 364.023373,199.693062 365.696043,196.496403 C367.368713,193.299744 369.598907,190.623512 372.386691,188.467626 C375.174474,186.31174 378.38967,184.69485 382.032374,183.616906 C385.675078,182.538963 389.429237,182 393.294964,182 C397.755418,182 402.067125,182.631888 406.230216,183.895683 C410.393306,185.159479 414.147465,187.278163 417.492806,190.251799 L405.561151,203.298561 Z M430.316547,184.007194 L447.71223,184.007194 L447.71223,262.956835 L430.316547,262.956835 L430.316547,184.007194 Z M463.546763,184.007194 L492.985612,184.007194 C496.405293,184.007194 499.843508,184.248799 503.30036,184.732014 C506.757212,185.21523 509.860898,186.181647 512.611511,187.631295 C515.362124,189.080942 517.592318,191.106702 519.302158,193.708633 C521.011999,196.310565 521.866906,199.767365 521.866906,204.079137 C521.866906,208.539591 520.621715,212.237995 518.131295,215.17446 C515.640875,218.110926 512.351339,220.211025 508.26259,221.47482 L508.26259,221.697842 C510.864521,222.069546 513.22481,222.794359 515.343525,223.872302 C517.462241,224.950245 519.283566,226.325531 520.807554,227.998201 C522.331542,229.670872 523.502394,231.622291 524.320144,233.852518 C525.137894,236.082745 525.546763,238.461618 525.546763,240.989209 C525.546763,245.152299 524.654685,248.627684 522.870504,251.415468 C521.086322,254.203251 518.781789,256.45203 515.956835,258.161871 C513.13188,259.871711 509.953855,261.098318 506.422662,261.841727 C502.891469,262.585136 499.378914,262.956835 495.884892,262.956835 L463.546763,262.956835 L463.546763,184.007194 Z M480.942446,215.564748 L493.543165,215.564748 C494.881302,215.564748 496.200833,215.416069 497.501799,215.118705 C498.802764,214.821341 499.973616,214.338133 501.014388,213.669065 C502.055161,212.999997 502.891484,212.107919 503.523381,210.992806 C504.155279,209.877692 504.471223,208.539576 504.471223,206.978417 C504.471223,205.342917 504.118109,203.986216 503.411871,202.908273 C502.705632,201.83033 501.79497,200.994008 500.679856,200.399281 C499.564743,199.804553 498.300966,199.3771 496.888489,199.116906 C495.476012,198.856713 494.100726,198.726619 492.76259,198.726619 L480.942446,198.726619 L480.942446,215.564748 Z M480.942446,248.23741 L496.553957,248.23741 C497.892093,248.23741 499.248794,248.088731 500.624101,247.791367 C501.999407,247.494003 503.244599,246.973625 504.359712,246.230216 C505.474826,245.486807 506.385488,244.52039 507.091727,243.330935 C507.797965,242.141481 508.151079,240.691855 508.151079,238.982014 C508.151079,237.123492 507.686455,235.618111 506.757194,234.465827 C505.827933,233.313543 504.657081,232.440051 503.244604,231.845324 C501.832127,231.250597 500.308162,230.841728 498.672662,230.618705 C497.037162,230.395682 495.513197,230.284173 494.100719,230.284173 L480.942446,230.284173 L480.942446,248.23741 Z M536.47482,184.007194 L553.870504,184.007194 L553.870504,246.899281 L586.097122,246.899281 L586.097122,262.956835 L536.47482,262.956835 L536.47482,184.007194 Z M596.356115,184.007194 L649.992806,184.007194 L649.992806,200.064748 L613.751799,200.064748 L613.751799,214.784173 L647.985612,214.784173 L647.985612,230.841727 L613.751799,230.841727 L613.751799,246.899281 L652,246.899281 L652,262.956835 L596.356115,262.956835 L596.356115,184.007194 Z" id="IMPOSSIBLE"></path>
        </g>
    </g>
</svg>