<?xml version="1.0" encoding="UTF-8"?>
<svg width="886px" height="475px" viewBox="0 0 886 475" version="1.1" xmlns="http://www.w3.org/2000/svg" xmlns:xlink="http://www.w3.org/1999/xlink">
    <!-- Generator: Sketch 50.2 (55047) - http://www.bohemiancoding.com/sketch -->
    <title>Group 14</title>
    <desc>Created with Sketch.</desc>
    <defs></defs>
    <g id="Page-1" stroke="none" stroke-width="1" fill="none" fill-rule="evenodd">
        <g id="Group-14">
            <g id="Group-11">
                <rect id="Rectangle-8" fill="#DCBC3F" x="0" y="0" width="884" height="252"></rect>
                <path d="M38.9825,209 L38.9825,32.905 L75.2675,32.905 L91.4625,117.16 L91.4625,32.905 L125.4925,32.905 L125.4925,209 L91.0525,209 L73.4225,120.85 L73.4225,209 L38.9825,209 Z M139.2275,164.105 L139.2275,103.835 C139.2275,89.6215956 143.22496,78.312542 151.22,69.9075 C159.21504,61.502458 170.18243,57.3 184.1225,57.3 C198.06257,57.3 209.02996,61.502458 217.025,69.9075 C225.02004,78.312542 229.0175,89.6215956 229.0175,103.835 L229.0175,164.105 C229.0175,195.128488 214.05265,210.64 184.1225,210.64 C154.19235,210.64 139.2275,195.128488 139.2275,164.105 Z M190.4775,179.89 C191.844173,177.83999 192.5275,175.038351 192.5275,171.485 L192.5275,98.095 C192.5275,89.3482896 189.725861,84.975 184.1225,84.975 C178.519139,84.975 175.7175,89.3482896 175.7175,98.095 L175.7175,171.485 C175.7175,175.038351 176.400826,177.83999 177.7675,179.89 C179.134173,181.94001 181.252486,182.965 184.1225,182.965 C186.992514,182.965 189.110826,181.94001 190.4775,179.89 Z M253.8225,204.695 C250.269149,200.731647 248.4925,194.37671 248.4925,185.63 L248.4925,91.945 L238.4475,91.945 L238.4475,64.68 L248.4925,64.68 L248.4925,32.905 L283.3425,32.905 L283.3425,64.68 L293.5925,64.68 L293.5925,91.945 L283.3425,91.945 L283.3425,176.2 C283.3425,178.79668 283.547498,180.709994 283.9575,181.94 C284.367502,183.170006 285.460824,183.785 287.2375,183.785 C288.604173,183.785 289.902494,183.716667 291.1325,183.58 C292.362506,183.443333 293.182498,183.375 293.5925,183.375 L293.5925,207.975 C291.54249,208.521669 288.570019,209.102497 284.675,209.7175 C280.779981,210.332503 276.987518,210.64 273.2975,210.64 C263.867453,210.64 257.375851,208.658353 253.8225,204.695 Z M304.8675,31.88 L341.7675,31.88 L341.7675,73.7 C345.594186,62.766612 352.905779,57.3 363.7025,57.3 C373.815884,57.3 381.469141,60.5116346 386.6625,66.935 C391.855859,73.3583655 394.4525,82.1732773 394.4525,93.38 L394.4525,209 L358.5775,209 L358.5775,95.635 C358.5775,92.3549836 357.825841,89.6900102 356.3225,87.64 C354.819159,85.5899898 352.632514,84.565 349.7625,84.565 C347.302488,84.565 345.355007,85.6241561 343.92,87.7425 C342.484993,89.8608439 341.7675,92.4233183 341.7675,95.43 L341.7675,209 L304.8675,209 L304.8675,31.88 Z M408.1875,48.895 L408.1875,23.885 L444.0625,23.885 L444.0625,48.895 L408.1875,48.895 Z M408.1875,209 L408.1875,58.94 L444.0625,58.94 L444.0625,209 L408.1875,209 Z M458.2075,58.94 L494.0825,58.94 L494.0825,78.005 C495.585841,71.8549693 498.182482,66.8666858 501.8725,63.04 C505.562518,59.2133142 510.482469,57.3 516.6325,57.3 C526.745884,57.3 534.228309,60.4091356 539.08,66.6275 C543.931691,72.8458644 546.3575,81.6949426 546.3575,93.175 L546.3575,209 L511.0975,209 L511.0975,96.865 C511.0975,93.5849836 510.44834,90.7833449 509.15,88.46 C507.85166,86.136655 505.835847,84.975 503.1025,84.975 C499.412482,84.975 496.986672,86.6491499 495.825,89.9975 C494.663328,93.3458501 494.0825,97.8216387 494.0825,103.425 L494.0825,209 L458.2075,209 L458.2075,58.94 Z M575.775,228.3725 C569.693303,226.664158 563.714196,223.418357 557.8375,218.635 L570.1375,197.93 C578.88421,203.123359 587.562457,205.72 596.1725,205.72 C601.775861,205.72 606.012486,203.943351 608.8825,200.39 C611.752514,196.836649 613.1875,191.985031 613.1875,185.835 L613.1875,177.635 C610.317486,187.885051 602.732561,193.01 590.4325,193.01 C580.182449,193.01 572.631691,189.525035 567.78,182.555 C562.928309,175.584965 560.5025,166.291725 560.5025,154.675 L560.5025,98.3 C560.5025,85.043267 562.723311,74.8958685 567.165,67.8575 C571.606689,60.8191315 579.362445,57.3 590.4325,57.3 C596.855865,57.3 601.946648,58.9058173 605.705,62.1175 C609.463352,65.3291827 611.957494,69.873304 613.1875,75.75 L613.1875,58.94 L649.8825,58.94 L649.8825,183.58 C649.8825,200.390084 645.987539,212.484963 638.1975,219.865 C630.407461,227.245037 617.970919,230.935 600.8875,230.935 C590.227447,230.935 581.856697,230.080842 575.775,228.3725 Z M613.1875,150.78 L613.1875,97.275 C613.1875,94.2683183 612.367508,91.398347 610.7275,88.665 C609.087492,85.931653 607.037512,84.565 604.5775,84.565 C601.434151,84.565 599.315839,85.6924887 598.2225,87.9475 C597.129161,90.2025113 596.5825,93.3116468 596.5825,97.275 L596.5825,150.78 C596.5825,155.290023 597.129161,158.945819 598.2225,161.7475 C599.315839,164.549181 601.502484,165.95 604.7825,165.95 C610.385861,165.95 613.1875,160.893384 613.1875,150.78 Z M711.5875,48.895 L711.5875,23.885 L747.4625,23.885 L747.4625,48.895 L711.5875,48.895 Z M711.5875,209 L711.5875,58.94 L747.4625,58.94 L747.4625,209 L711.5875,209 Z M758.3275,165.54 L758.5325,153.65 L794.4075,153.65 L794.6125,171.28 C794.6125,174.833351 795.295827,177.532491 796.6625,179.3775 C798.029174,181.222509 800.284151,182.145 803.4275,182.145 C808.210857,182.145 810.6025,178.250039 810.6025,170.46 C810.6025,164.719971 809.475011,160.210016 807.22,156.93 C804.964989,153.649984 801.377525,150.165018 796.4575,146.475 L777.3925,131.715 C770.832467,126.658308 766.117514,121.43086 763.2475,116.0325 C760.377486,110.63414 758.9425,103.015049 758.9425,93.175 C758.9425,85.5216284 760.958313,78.9958603 764.99,73.5975 C769.021687,68.1991397 774.3858,64.133347 781.0825,61.4 C787.7792,58.666653 795.227459,57.3 803.4275,57.3 C832.537646,57.3 847.0925,71.7865218 847.0925,100.76 L847.0925,103.63 L809.9875,103.63 L809.9875,97.89 C809.9875,94.3366489 809.406672,91.295846 808.245,88.7675 C807.083328,86.239154 805.135847,84.975 802.4025,84.975 C799.942488,84.975 798.06334,85.6924928 796.765,87.1275 C795.46666,88.5625072 794.8175,90.5099877 794.8175,92.97 C794.8175,98.436694 796.935812,102.673318 801.1725,105.68 L823.3125,121.875 C831.239206,127.751696 837.320812,134.140799 841.5575,141.0425 C845.794188,147.944201 847.9125,156.656614 847.9125,167.18 C847.9125,181.12007 843.949206,191.848296 836.0225,199.365 C828.095794,206.881704 817.025904,210.64 802.8125,210.64 C773.155685,210.64 758.3275,195.606817 758.3275,165.54 Z" id="Nothing-is" fill="#FFFFFF"></path>
            </g>
            <path d="M0,473.358879 L0,297.143552 L34.0532531,297.143552 L34.0532531,473.358879 L0,473.358879 Z M48.2079185,473.358879 L48.2079185,297.143552 L101.954619,297.143552 L116.724705,404.636953 L131.49479,297.143552 L185.651771,297.143552 L185.651771,473.358879 L153.444779,473.358879 L153.444779,346.377171 L133.135911,473.358879 L101.544339,473.358879 L80.0046307,346.377171 L80.0046307,473.358879 L48.2079185,473.358879 Z M201.242417,297.143552 L247.809215,297.143552 C261.895571,297.143552 271.947334,301.690778 277.964807,310.785367 C283.982279,319.879956 286.99097,333.179738 286.99097,350.685112 C286.99097,368.190487 284.324176,381.3877 278.990507,390.277147 C273.656838,399.166595 264.08373,403.611253 250.270896,403.611253 L235.911091,403.611253 L235.911091,473.358879 L201.242417,473.358879 L201.242417,297.143552 Z M237.962491,371.81454 C242.202074,371.81454 245.313334,371.028178 247.296365,369.455429 C249.279396,367.882681 250.578603,365.626163 251.194026,362.685807 C251.80945,359.745451 252.117157,355.540122 252.117157,350.069692 C252.117157,342.684612 251.296605,337.351024 249.655476,334.068766 C248.014347,330.786508 244.732139,329.145404 239.808752,329.145404 L235.911091,329.145404 L235.911091,371.81454 L237.962491,371.81454 Z M307.710118,461.973605 C300.325038,453.289298 296.632554,441.083586 296.632554,425.356101 L296.632554,341.453809 C296.632554,326.273367 300.325038,314.819827 307.710118,307.092846 C315.095198,299.365864 325.899134,295.502431 340.122251,295.502431 C354.345367,295.502431 365.149303,299.365864 372.534383,307.092846 C379.919463,314.819827 383.611947,326.273367 383.611947,341.453809 L383.611947,425.356101 C383.611947,441.220346 379.919463,453.460249 372.534383,462.076175 C365.149303,470.692101 354.345367,475 340.122251,475 C325.899134,475 315.095198,470.657912 307.710118,461.973605 Z M346.481593,438.485066 C347.575679,435.749851 348.122714,431.920608 348.122714,426.997222 L348.122714,340.838389 C348.122714,337.009088 347.609869,333.897828 346.584163,331.504515 C345.558457,329.111202 343.472888,327.914564 340.327391,327.914564 C334.446679,327.914564 331.506367,332.359221 331.506367,341.248669 L331.506367,427.202362 C331.506367,432.262509 332.121781,436.091752 333.352628,438.690206 C334.583475,441.28866 336.839993,442.587868 340.122251,442.587868 C343.267747,442.587868 345.387507,441.220281 346.481593,438.485066 Z M404.946515,463.101875 C397.834957,455.169753 394.279231,442.382816 394.279231,424.740681 L394.279231,407.508914 L428.947905,407.508914 L428.947905,429.458903 C428.947905,438.21159 431.751458,442.587868 437.358648,442.587868 C440.504145,442.587868 442.692284,441.664746 443.92313,439.818476 C445.153977,437.972207 445.769391,434.860946 445.769391,430.484603 C445.769391,424.740652 445.085598,419.988288 443.71799,416.227367 C442.350383,412.466447 440.60671,409.320997 438.486918,406.790924 C436.367127,404.26085 432.572073,400.329038 427.101644,394.995369 L411.921278,379.815003 C400.159855,368.327102 394.279231,355.608544 394.279231,341.658949 C394.279231,326.615268 397.732388,315.161728 404.638805,307.297986 C411.545222,299.434243 421.631175,295.502431 434.896967,295.502431 C450.761212,295.502431 462.180562,299.707761 469.15536,308.118546 C476.130158,316.529331 479.617504,329.692355 479.617504,347.608011 L443.71799,347.608011 L443.51285,335.504746 C443.51285,333.179814 442.863246,331.333572 441.564019,329.965964 C440.264792,328.598357 438.45274,327.914564 436.127807,327.914564 C433.392593,327.914564 431.341212,328.666736 429.973605,330.171104 C428.605998,331.675473 427.922204,333.726853 427.922204,336.325307 C427.922204,342.069258 431.204413,348.018261 437.768928,354.172494 L458.282936,373.865941 C463.069562,378.515806 467.035563,382.926274 470.18106,387.097476 C473.326557,391.268679 475.856593,396.191991 477.771243,401.867562 C479.685894,407.543132 480.643204,414.278498 480.643204,422.07386 C480.643204,439.442473 477.463565,452.605497 471.104191,461.563325 C464.744817,470.521153 454.248587,475 439.615189,475 C423.614183,475 412.058074,471.033998 404.946515,463.101875 Z M499.516092,463.101875 C492.404533,455.169753 488.848808,442.382816 488.848808,424.740681 L488.848808,407.508914 L523.517481,407.508914 L523.517481,429.458903 C523.517481,438.21159 526.321034,442.587868 531.928224,442.587868 C535.073721,442.587868 537.26186,441.664746 538.492707,439.818476 C539.723553,437.972207 540.338967,434.860946 540.338967,430.484603 C540.338967,424.740652 539.655174,419.988288 538.287567,416.227367 C536.919959,412.466447 535.176286,409.320997 533.056495,406.790924 C530.936703,404.26085 527.14165,400.329038 521.67122,394.995369 L506.490854,379.815003 C494.729431,368.327102 488.848808,355.608544 488.848808,341.658949 C488.848808,326.615268 492.301964,315.161728 499.208382,307.297986 C506.114799,299.434243 516.200752,295.502431 529.466543,295.502431 C545.330789,295.502431 556.750139,299.707761 563.724936,308.118546 C570.699734,316.529331 574.18708,329.692355 574.18708,347.608011 L538.287567,347.608011 L538.082426,335.504746 C538.082426,333.179814 537.432823,331.333572 536.133596,329.965964 C534.834369,328.598357 533.022316,327.914564 530.697384,327.914564 C527.962169,327.914564 525.910789,328.666736 524.543181,330.171104 C523.175574,331.675473 522.491781,333.726853 522.491781,336.325307 C522.491781,342.069258 525.773989,348.018261 532.338504,354.172494 L552.852512,373.865941 C557.639138,378.515806 561.60514,382.926274 564.750637,387.097476 C567.896134,391.268679 570.426169,396.191991 572.34082,401.867562 C574.25547,407.543132 575.212781,414.278498 575.212781,422.07386 C575.212781,439.442473 572.033141,452.605497 565.673767,461.563325 C559.314393,470.521153 548.818164,475 534.184765,475 C518.183759,475 506.62765,471.033998 499.516092,463.101875 Z M585.264645,473.358879 L585.264645,297.143552 L619.317898,297.143552 L619.317898,473.358879 L585.264645,473.358879 Z M633.472563,297.143552 L681.270201,297.143552 C694.125711,297.143552 703.459491,300.289002 709.271822,306.579995 C715.084153,312.870989 717.990276,323.127891 717.990276,337.351007 L717.990276,345.14633 C717.990276,361.967901 711.972893,372.019664 699.937949,375.301922 C707.323028,377.216572 712.519858,381.661229 715.528595,388.636027 C718.537331,395.610824 720.041676,404.842036 720.041676,416.329937 C720.041676,435.066158 717.238123,449.254872 711.630933,458.896504 C706.023743,468.538136 695.9036,473.358879 681.270201,473.358879 L633.472563,473.358879 L633.472563,297.143552 Z M675.115999,363.403797 C678.124735,363.403797 680.176116,362.275538 681.270201,360.018986 C682.364287,357.762434 682.911322,354.582794 682.911322,350.479972 L682.911322,332.837925 C682.911322,327.093975 680.381286,324.222042 675.321139,324.222042 L667.936096,324.222042 L667.936096,363.403797 L675.115999,363.403797 Z M685.167863,429.253762 L685.167863,407.303774 C685.167863,401.970105 684.3815,397.935724 682.808752,395.200509 C681.236004,392.465295 678.46664,391.097708 674.500579,391.097708 L667.936096,391.097708 L667.936096,442.177587 L671.423478,442.382727 C680.586447,442.382727 685.167863,438.00645 685.167863,429.253762 Z M731.734661,473.358879 L731.734661,297.143552 L767.018754,297.143552 L767.018754,443.408428 L803.328548,443.408428 L803.328548,473.358879 L731.734661,473.358879 Z M813.175272,473.358879 L813.175272,297.143552 L883.743459,297.143552 L883.743459,331.196805 L849.074786,331.196805 L849.074786,365.455198 L882.307479,365.455198 L882.307479,398.687891 L849.074786,398.687891 L849.074786,439.100486 L886,439.100486 L886,473.358879 L813.175272,473.358879 Z" id="IMPOSSIBLE" fill="#DCBC3F"></path>
        </g>
    </g>
</svg>