<?xml version="1.0" encoding="UTF-8"?>
<svg width="886px" height="408px" viewBox="0 0 886 408" version="1.1" xmlns="http://www.w3.org/2000/svg" xmlns:xlink="http://www.w3.org/1999/xlink">
    <!-- Generator: Sketch 50.2 (55047) - http://www.bohemiancoding.com/sketch -->
    <title>Group 31</title>
    <desc>Created with Sketch.</desc>
    <defs></defs>
    <g id="Page-1" stroke="none" stroke-width="1" fill="none" fill-rule="evenodd">
        <g id="Group-31">
            <g id="Group-30">
                <rect id="Rectangle-8" fill="#DCBC3F" x="0" y="0" width="884" height="231"></rect>
                <path d="M21,208.512936 L21,25.7025415 L58.668731,25.7025415 L75.4813284,113.170612 L75.4813284,25.7025415 L110.809065,25.7025415 L110.809065,208.512936 L75.055693,208.512936 L56.7533718,117.00133 L56.7533718,208.512936 L21,208.512936 Z M136.985641,196.701555 C129.324165,187.692228 125.493485,175.029702 125.493485,158.713597 L125.493485,71.6711624 C125.493485,55.9225746 129.324165,44.0403725 136.985641,36.0241994 C144.647116,28.0080264 155.855402,24 170.610835,24 C185.366269,24 196.574555,28.0080264 204.23603,36.0241994 C211.897505,44.0403725 215.728186,55.9225746 215.728186,71.6711624 L215.728186,158.713597 C215.728186,175.171581 211.897505,187.869576 204.23603,196.807964 C196.574555,205.746351 185.366269,210.215478 170.610835,210.215478 C155.855402,210.215478 144.647116,205.710882 136.985641,196.701555 Z M177.208184,172.333929 C178.343217,169.496346 178.910725,165.523789 178.910725,160.416139 L178.910725,71.0327093 C178.910725,67.0600926 178.378686,63.8323899 177.314593,61.3495044 C176.250499,58.866619 174.086874,57.6251949 170.823653,57.6251949 C164.722849,57.6251949 161.672493,62.2361987 161.672493,71.4583447 L161.672493,160.628956 C161.672493,165.878486 162.310939,169.851043 163.587852,172.546747 C164.864764,175.242451 167.205735,176.590283 170.610835,176.590283 C173.874056,176.590283 176.07315,175.171513 177.208184,172.333929 Z M246.161115,208.512936 L246.161115,60.8174602 L224.453711,60.8174602 L224.453711,25.7025415 L304.473162,25.7025415 L304.473162,60.8174602 L282.765758,60.8174602 L282.765758,208.512936 L246.161115,208.512936 Z M314.688411,208.512936 L314.688411,25.7025415 L351.080236,25.7025415 L351.080236,91.0375721 L368.318469,91.0375721 L368.318469,25.7025415 L404.710294,25.7025415 L404.710294,208.512936 L368.318469,208.512936 L368.318469,125.514038 L351.080236,125.514038 L351.080236,208.512936 L314.688411,208.512936 Z M419.181896,208.512936 L419.181896,25.7025415 L454.509633,25.7025415 L454.509633,208.512936 L419.181896,208.512936 Z M469.194053,208.512936 L469.194053,25.7025415 L506.862784,25.7025415 L523.675382,113.170612 L523.675382,25.7025415 L559.003118,25.7025415 L559.003118,208.512936 L523.249746,208.512936 L504.947425,117.00133 L504.947425,208.512936 L469.194053,208.512936 Z M583.370744,196.275919 C576.915241,186.982834 573.687539,172.901538 573.687539,154.031608 L573.687539,75.2890631 C573.687539,58.405442 577.44728,45.6365083 584.966876,36.981879 C592.486472,28.3272497 603.694758,24 618.592071,24 C630.6518,24 640.015685,26.4119097 646.684006,31.2358014 C653.352327,36.0596932 657.963331,43.0826067 660.517156,52.3047527 C663.070981,61.5268986 664.347874,73.3736315 664.347874,87.8453067 L628.594502,87.8453067 L628.594502,71.4583447 C628.594502,67.0600904 627.991525,63.6550415 626.785552,61.2430956 C625.579579,58.8311497 623.415954,57.6251949 620.294613,57.6251949 C613.342533,57.6251949 609.866546,62.1652602 609.866546,71.245527 L609.866546,159.777686 C609.866546,165.310973 610.575931,169.496346 611.994723,172.333929 C613.413514,175.171513 615.896363,176.590283 619.443342,176.590283 C622.990321,176.590283 625.473169,175.171513 626.891961,172.333929 C628.310753,169.496346 629.020138,165.310973 629.020138,159.777686 L629.020138,133.60111 L619.230524,133.60111 L619.230524,102.104092 L663.922239,102.104092 L663.922239,208.512936 L649.237818,208.512936 L643.066105,193.190063 C636.539664,204.540396 626.466394,210.215478 612.845993,210.215478 C599.651231,210.215478 589.826246,205.569005 583.370744,196.275919 Z M726.490639,208.512936 L726.490639,25.7025415 L761.818376,25.7025415 L761.818376,208.512936 L726.490639,208.512936 Z M783.951416,197.872052 C776.573699,189.64306 772.884896,176.377557 772.884896,158.075144 L772.884896,140.198458 L808.851085,140.198458 L808.851085,162.969951 C808.851085,172.050218 811.759565,176.590283 817.57661,176.590283 C820.839831,176.590283 823.109864,175.632613 824.386777,173.717244 C825.663689,171.801876 826.302136,168.574173 826.302136,164.034039 C826.302136,158.075114 825.592751,153.144887 824.173959,149.24321 C822.755167,145.341533 820.946235,142.078361 818.747108,139.453596 C816.547981,136.828832 812.610893,132.749867 806.935726,127.216579 L791.187217,111.46807 C778.985608,99.5502201 772.884896,86.3556553 772.884896,71.8839801 C772.884896,56.2772715 776.467291,44.3950693 783.632189,36.2370171 C790.797087,28.0789649 801.260519,24 815.022798,24 C831.480782,24 843.327515,28.362719 850.563352,37.0882879 C857.79919,45.8138568 861.417054,59.4695219 861.417054,78.055693 L824.173959,78.055693 L823.961141,65.4994494 C823.961141,63.0875035 823.287225,61.1721635 821.939373,59.7533718 C820.591521,58.3345801 818.71165,57.6251949 816.299704,57.6251949 C813.462121,57.6251949 811.333965,58.4055186 809.915174,59.9661895 C808.496382,61.5268603 807.786997,63.6550159 807.786997,66.3507201 C807.786997,72.3096452 811.192046,78.4812965 818.002246,84.8658591 L839.284015,105.296357 C844.249786,110.120249 848.36422,114.695784 851.627441,119.023098 C854.890662,123.350413 857.515387,128.457986 859.501695,134.345972 C861.488004,140.233957 862.481143,147.221402 862.481143,155.308514 C862.481143,173.327169 859.182502,186.982834 852.58512,196.275919 C845.987739,205.569005 835.098676,210.215478 819.917605,210.215478 C803.317742,210.215478 791.329132,206.101044 783.951416,197.872052 Z" id="NOTHING-IS" fill="#FFFFFF"></path>
            </g>
            <path d="M0,405.856448 L0,229.641121 L34.0532531,229.641121 L34.0532531,405.856448 L0,405.856448 Z M48.2079185,405.856448 L48.2079185,229.641121 L101.954619,229.641121 L116.724705,337.134522 L131.49479,229.641121 L185.651771,229.641121 L185.651771,405.856448 L153.444779,405.856448 L153.444779,278.87474 L133.135911,405.856448 L101.544339,405.856448 L80.0046307,278.87474 L80.0046307,405.856448 L48.2079185,405.856448 Z M201.242417,229.641121 L247.809215,229.641121 C261.895571,229.641121 271.947334,234.188347 277.964807,243.282936 C283.982279,252.377525 286.99097,265.677307 286.99097,283.182681 C286.99097,300.688055 284.324176,313.885269 278.990507,322.774716 C273.656838,331.664164 264.08373,336.108821 250.270896,336.108821 L235.911091,336.108821 L235.911091,405.856448 L201.242417,405.856448 L201.242417,229.641121 Z M237.962491,304.312109 C242.202074,304.312109 245.313334,303.525747 247.296365,301.952998 C249.279396,300.38025 250.578603,298.123732 251.194026,295.183376 C251.80945,292.24302 252.117157,288.03769 252.117157,282.567261 C252.117157,275.182181 251.296605,269.848592 249.655476,266.566335 C248.014347,263.284077 244.732139,261.642973 239.808752,261.642973 L235.911091,261.642973 L235.911091,304.312109 L237.962491,304.312109 Z M307.710118,394.471174 C300.325038,385.786867 296.632554,373.581155 296.632554,357.85367 L296.632554,273.951378 C296.632554,258.770936 300.325038,247.317396 307.710118,239.590414 C315.095198,231.863433 325.899134,228 340.122251,228 C354.345367,228 365.149303,231.863433 372.534383,239.590414 C379.919463,247.317396 383.611947,258.770936 383.611947,273.951378 L383.611947,357.85367 C383.611947,373.717915 379.919463,385.957818 372.534383,394.573744 C365.149303,403.18967 354.345367,407.497569 340.122251,407.497569 C325.899134,407.497569 315.095198,403.155481 307.710118,394.471174 Z M346.481593,370.982635 C347.575679,368.24742 348.122714,364.418177 348.122714,359.49479 L348.122714,273.335957 C348.122714,269.506657 347.609869,266.395397 346.584163,264.002084 C345.558457,261.608771 343.472888,260.412132 340.327391,260.412132 C334.446679,260.412132 331.506367,264.85679 331.506367,273.746238 L331.506367,359.699931 C331.506367,364.760078 332.121781,368.589321 333.352628,371.187775 C334.583475,373.786229 336.839993,375.085436 340.122251,375.085436 C343.267747,375.085436 345.387507,373.71785 346.481593,370.982635 Z M404.946515,395.599444 C397.834957,387.667322 394.279231,374.880385 394.279231,357.23825 L394.279231,340.006483 L428.947905,340.006483 L428.947905,361.956471 C428.947905,370.709159 431.751458,375.085436 437.358648,375.085436 C440.504145,375.085436 442.692284,374.162315 443.92313,372.316045 C445.153977,370.469775 445.769391,367.358515 445.769391,362.982172 C445.769391,357.238221 445.085598,352.485857 443.71799,348.724936 C442.350383,344.964016 440.60671,341.818566 438.486918,339.288493 C436.367127,336.758419 432.572073,332.826607 427.101644,327.492938 L411.921278,312.312572 C400.159855,300.824671 394.279231,288.106113 394.279231,274.156518 C394.279231,259.112837 397.732388,247.659297 404.638805,239.795555 C411.545222,231.931812 421.631175,228 434.896967,228 C450.761212,228 462.180562,232.20533 469.15536,240.616115 C476.130158,249.0269 479.617504,262.189924 479.617504,280.10558 L443.71799,280.10558 L443.51285,268.002315 C443.51285,265.677383 442.863246,263.831141 441.564019,262.463533 C440.264792,261.095926 438.45274,260.412132 436.127807,260.412132 C433.392593,260.412132 431.341212,261.164305 429.973605,262.668673 C428.605998,264.173041 427.922204,266.224422 427.922204,268.822876 C427.922204,274.566827 431.204413,280.515829 437.768928,286.670063 L458.282936,306.36351 C463.069562,311.013375 467.035563,315.423843 470.18106,319.595045 C473.326557,323.766248 475.856593,328.68956 477.771243,334.365131 C479.685894,340.040701 480.643204,346.776067 480.643204,354.571429 C480.643204,371.940042 477.463565,385.103065 471.104191,394.060894 C464.744817,403.018722 454.248587,407.497569 439.615189,407.497569 C423.614183,407.497569 412.058074,403.531567 404.946515,395.599444 Z M499.516092,395.599444 C492.404533,387.667322 488.848808,374.880385 488.848808,357.23825 L488.848808,340.006483 L523.517481,340.006483 L523.517481,361.956471 C523.517481,370.709159 526.321034,375.085436 531.928224,375.085436 C535.073721,375.085436 537.26186,374.162315 538.492707,372.316045 C539.723553,370.469775 540.338967,367.358515 540.338967,362.982172 C540.338967,357.238221 539.655174,352.485857 538.287567,348.724936 C536.919959,344.964016 535.176286,341.818566 533.056495,339.288493 C530.936703,336.758419 527.14165,332.826607 521.67122,327.492938 L506.490854,312.312572 C494.729431,300.824671 488.848808,288.106113 488.848808,274.156518 C488.848808,259.112837 492.301964,247.659297 499.208382,239.795555 C506.114799,231.931812 516.200752,228 529.466543,228 C545.330789,228 556.750139,232.20533 563.724936,240.616115 C570.699734,249.0269 574.18708,262.189924 574.18708,280.10558 L538.287567,280.10558 L538.082426,268.002315 C538.082426,265.677383 537.432823,263.831141 536.133596,262.463533 C534.834369,261.095926 533.022316,260.412132 530.697384,260.412132 C527.962169,260.412132 525.910789,261.164305 524.543181,262.668673 C523.175574,264.173041 522.491781,266.224422 522.491781,268.822876 C522.491781,274.566827 525.773989,280.515829 532.338504,286.670063 L552.852512,306.36351 C557.639138,311.013375 561.60514,315.423843 564.750637,319.595045 C567.896134,323.766248 570.426169,328.68956 572.34082,334.365131 C574.25547,340.040701 575.212781,346.776067 575.212781,354.571429 C575.212781,371.940042 572.033141,385.103065 565.673767,394.060894 C559.314393,403.018722 548.818164,407.497569 534.184765,407.497569 C518.183759,407.497569 506.62765,403.531567 499.516092,395.599444 Z M585.264645,405.856448 L585.264645,229.641121 L619.317898,229.641121 L619.317898,405.856448 L585.264645,405.856448 Z M633.472563,229.641121 L681.270201,229.641121 C694.125711,229.641121 703.459491,232.78657 709.271822,239.077564 C715.084153,245.368558 717.990276,255.625459 717.990276,269.848576 L717.990276,277.643899 C717.990276,294.46547 711.972893,304.517233 699.937949,307.799491 C707.323028,309.714141 712.519858,314.158798 715.528595,321.133596 C718.537331,328.108393 720.041676,337.339605 720.041676,348.827506 C720.041676,367.563727 717.238123,381.752441 711.630933,391.394073 C706.023743,401.035705 695.9036,405.856448 681.270201,405.856448 L633.472563,405.856448 L633.472563,229.641121 Z M675.115999,295.901366 C678.124735,295.901366 680.176116,294.773107 681.270201,292.516555 C682.364287,290.260003 682.911322,287.080363 682.911322,282.977541 L682.911322,265.335494 C682.911322,259.591543 680.381286,256.719611 675.321139,256.719611 L667.936096,256.719611 L667.936096,295.901366 L675.115999,295.901366 Z M685.167863,361.751331 L685.167863,339.801343 C685.167863,334.467674 684.3815,330.433293 682.808752,327.698078 C681.236004,324.962864 678.46664,323.595277 674.500579,323.595277 L667.936096,323.595277 L667.936096,374.675156 L671.423478,374.880296 C680.586447,374.880296 685.167863,370.504018 685.167863,361.751331 Z M731.734661,405.856448 L731.734661,229.641121 L767.018754,229.641121 L767.018754,375.905997 L803.328548,375.905997 L803.328548,405.856448 L731.734661,405.856448 Z M813.175272,405.856448 L813.175272,229.641121 L883.743459,229.641121 L883.743459,263.694374 L849.074786,263.694374 L849.074786,297.952767 L882.307479,297.952767 L882.307479,331.18546 L849.074786,331.18546 L849.074786,371.598055 L886,371.598055 L886,405.856448 L813.175272,405.856448 Z" id="IMPOSSIBLE" fill="#DCBC3F"></path>
        </g>
    </g>
</svg>