<?xml version="1.0" encoding="UTF-8"?>
<svg width="597px" height="105px" viewBox="0 0 597 105" version="1.1" xmlns="http://www.w3.org/2000/svg" xmlns:xlink="http://www.w3.org/1999/xlink">
    <!-- Generator: Sketch 50.2 (55047) - http://www.bohemiancoding.com/sketch -->
    <title>Group 4</title>
    <desc>Created with Sketch.</desc>
    <defs></defs>
    <g id="Page-1" stroke="none" stroke-width="1" fill="none" fill-rule="evenodd">
        <g id="Group-4" fill-rule="nonzero">
            <rect id="Rectangle-12" fill="#DCBC3F" x="0.7" y="0.3" width="226" height="104"></rect>
            <path d="M12.4,17.5 L16.8,17.5 L37.4,67.8 L37.4,17.5 L42.7,17.5 L42.7,82.3 L38.4,82.3 L17.7,31.4 L17.7,82.3 L12.4,82.3 C12.4,82.3 12.4,17.5 12.4,17.5 Z" id="Shape" fill="#000000"></path>
            <path d="M54.6,78.7 C52.8,75.8 51.9,71.5 51.9,65.5 L51.9,52.8 C51.9,46.9 52.8,42.5 54.6,39.6 C56.4,36.7 59.6,35.3 64.2,35.3 C68.8,35.3 72,36.7 73.8,39.6 C75.6,42.5 76.5,46.8 76.5,52.8 L76.5,65.6 C76.5,71.5 75.6,75.9 73.8,78.8 C72,81.7 68.8,83.1 64.2,83.1 C59.6,83 56.4,81.6 54.6,78.7 Z M68.5,77.1 C69.4,76.1 70,74.7 70.3,72.9 C70.6,71.1 70.7,68.8 70.7,65.9 L70.7,52.4 C70.7,49.5 70.6,47.1 70.3,45.4 C70,43.6 69.4,42.3 68.5,41.2 C67.6,40.2 66.1,39.7 64.2,39.7 C62.3,39.7 60.9,40.2 59.9,41.2 C59,42.2 58.4,43.6 58.1,45.3 C57.8,47 57.7,49.4 57.7,52.4 L57.7,65.8 C57.7,68.8 57.8,71.1 58.1,72.9 C58.4,74.6 59,76 59.9,77 C60.8,78 62.3,78.5 64.2,78.5 C66.1,78.5 67.6,78.1 68.5,77.1 Z" id="Shape" fill="#000000"></path>
            <path d="M89,80.2 C87.8,78.5 87.2,75.9 87.2,72.6 L87.2,39.9 L81.5,39.9 L81.5,36 L87.2,36 L87.2,21.7 L93,21.7 L93,36 L100.7,36 L100.7,39.8 L93,39.8 L93,72 C93,74.3 93.3,76 93.8,76.8 C94.3,77.7 95.4,78.1 97.1,78.1 C98.1,78.1 99.2,78 100.5,77.7 L100.5,82.2 C98.8,82.5 97.2,82.7 95.5,82.7 C92.4,82.8 90.2,82 89,80.2 Z" id="Shape" fill="#000000"></path>
            <path d="M107.1,17.5 L112.9,17.5 L112.9,40.9 C116.4,37.2 120.1,35.3 124.2,35.3 C126.5,35.3 128.3,36.2 129.5,37.9 C130.7,39.6 131.3,42 131.3,45.2 L131.3,82.3 L125.4,82.3 L125.4,46.4 C125.4,44.1 125,42.4 124.3,41.4 C123.6,40.4 122.5,39.9 121,39.9 C119.7,39.9 118.4,40.3 117,41.1 C115.6,41.9 114.2,43 113,44.3 L113,82.3 L107.2,82.3 L107.1,17.5 Z" id="Shape" fill="#000000"></path>
            <path d="M140.6,21.7 L146.4,21.7 L146.4,29.6 L140.6,29.6 L140.6,21.7 Z M140.6,36 L146.4,36 L146.4,82.2 L140.6,82.2 L140.6,36 Z" id="Shape" fill="#000000"></path>
            <path d="M156.3,36 L162.1,36 L162.1,40.8 C163.6,39.1 165.4,37.7 167.3,36.8 C169.2,35.8 171.2,35.3 173.3,35.3 C175.6,35.3 177.4,36.2 178.6,37.9 C179.8,39.6 180.4,42 180.4,45.2 L180.4,82.3 L174.6,82.3 L174.6,46.4 C174.6,44.1 174.2,42.4 173.5,41.4 C172.8,40.4 171.7,39.9 170.2,39.9 C168.9,39.9 167.6,40.3 166.2,41.1 C164.8,41.9 163.5,42.9 162.2,44.3 L162.2,82.4 L156.4,82.4 L156.3,36 Z" id="Shape" fill="#000000"></path>
            <path d="M190,95.7 C187.3,94.5 185.9,92.5 185.9,89.7 C185.9,87.5 186.6,85.4 188.1,83.5 C189.6,81.6 191.4,80.1 193.5,79 C192.1,78.6 190.9,78.1 189.9,77.3 C188.9,76.6 188.4,75.8 188.4,75 C188.4,73.5 188.9,72 189.9,70.4 C190.9,68.9 192.2,67.2 193.9,65.5 C191.9,64 190.4,62.1 189.5,59.8 C188.6,57.5 188.1,54.7 188.1,51.4 C188.1,46.7 189.2,42.8 191.4,39.8 C193.6,36.8 196.8,35.2 201.1,35.2 C205.8,35.2 209.1,37.1 211,41 C211.5,40.2 212.3,39.3 213.5,38.2 C214.7,37.2 215.9,36.3 217.3,35.8 L218.5,35.4 L220.1,39.5 C218.8,39.7 217.4,40.2 215.8,41.1 C214.2,42 213.1,42.8 212.5,43.5 C212.9,44.5 213.2,45.8 213.5,47.5 C213.8,49.1 213.9,50.5 213.9,51.6 C213.9,56.6 212.9,60.5 210.9,63.4 C208.9,66.3 205.6,67.8 201.2,67.8 C200.4,67.8 199.6,67.7 198.7,67.6 C197.8,67.5 197.1,67.3 196.5,67.1 C196.3,67.4 195.9,68 195.3,68.8 C194.7,69.6 194.3,70.4 193.9,71.2 C193.5,71.9 193.3,72.6 193.3,73 C193.3,73.8 194.6,74.4 197.1,74.8 C197.5,75 198.4,75.1 199.7,75.3 C201,75.5 202,75.6 202.7,75.7 C203.6,75.8 204.2,75.9 204.4,75.9 C208.2,76.5 211.1,77.7 213.1,79.5 C215,81.2 216,83.6 216,86.7 C216,90.4 214.7,93.1 212.1,94.8 C209.5,96.5 206,97.4 201.6,97.4 C196.6,97.5 192.8,96.9 190,95.7 Z M208.8,91.3 C210.6,90.3 211.4,88.8 211.4,86.9 C211.4,85.2 210.8,83.9 209.6,83 C208.4,82 206.1,81.3 202.7,80.7 L196.8,79.9 C192.9,82.4 190.9,85 190.9,87.8 C190.9,89.6 191.7,90.8 193.4,91.6 C195.1,92.4 197.8,92.8 201.6,92.8 C204.6,92.8 207,92.3 208.8,91.3 Z M207.2,60.2 C208.2,58 208.7,55.1 208.7,51.5 C208.7,43.5 206.2,39.5 201.1,39.5 C198.2,39.5 196.1,40.7 195,43 C193.9,45.3 193.3,48.2 193.3,51.5 C193.3,59.6 195.9,63.6 201.1,63.6 C204.1,63.6 206.2,62.4 207.2,60.2 Z" id="Shape" fill="#000000"></path>
            <path d="M240.5,21.7 L246.3,21.7 L246.3,29.6 L240.5,29.6 L240.5,21.7 Z M240.5,36 L246.3,36 L246.3,82.2 L240.5,82.2 L240.5,36 Z" id="Shape" fill="#000000"></path>
            <path d="M257.9,79.5 C255.7,77.2 254.4,74 254.1,69.9 L259,68.4 C259.3,71.9 260.1,74.5 261.4,76.2 C262.7,77.9 264.5,78.7 266.9,78.7 C268.9,78.7 270.5,78.1 271.7,76.9 C272.8,75.7 273.4,74.1 273.4,72.1 C273.4,69.1 271.5,66 267.8,62.8 L261.5,57.4 C259.4,55.6 257.8,53.9 256.7,52.1 C255.6,50.3 255.1,48.3 255.1,46 C255.1,42.6 256.1,40 258.1,38.2 C260.1,36.3 262.8,35.4 266.2,35.4 C269.6,35.4 272.2,36.5 274.1,38.7 C275.9,40.9 277,43.8 277.2,47.6 L273,49 C272.7,42.9 270.5,39.9 266.4,39.9 C264.6,39.9 263.1,40.4 262,41.4 C260.9,42.4 260.4,43.8 260.4,45.5 C260.4,46.9 260.7,48.2 261.2,49.3 C261.7,50.4 262.7,51.6 264.2,52.8 L270.8,58.6 C273.3,60.8 275.1,62.9 276.5,64.8 C277.8,66.7 278.5,69.2 278.5,72 C278.5,75.5 277.4,78.3 275.3,80.2 C273.2,82.1 270.3,83.1 266.7,83.1 C263.1,83 260.1,81.8 257.9,79.5 Z" id="Shape" fill="#000000"></path>
            <path d="M302.1,21.7 L307.9,21.7 L307.9,29.6 L302.1,29.6 L302.1,21.7 Z M302.1,36 L307.9,36 L307.9,82.2 L302.1,82.2 L302.1,36 Z" id="Shape" fill="#000000"></path>
            <path d="M317.8,36 L323.2,36 L323.2,40.7 C324.7,38.9 326.4,37.5 328.2,36.6 C330.1,35.7 332,35.2 334,35.2 C337.8,35.2 340.3,37.2 341.4,41.2 C342.9,39.2 344.7,37.7 346.6,36.7 C348.5,35.7 350.6,35.2 352.7,35.2 C355,35.2 356.9,36 358.3,37.7 C359.8,39.4 360.5,42 360.5,45.8 L360.5,82.3 L355.1,82.3 L355.1,46 C355.1,43.5 354.7,41.7 353.9,40.8 C353.1,39.8 352,39.3 350.5,39.3 C349.1,39.3 347.6,39.7 346.1,40.6 C344.6,41.5 343.1,42.6 341.8,44.1 C341.9,44.8 342,45.4 342,45.9 L342,82.4 L336.5,82.4 L336.5,46 C336.5,43.4 336.1,41.7 335.3,40.7 C334.5,39.7 333.4,39.3 331.9,39.3 C330.5,39.3 329.1,39.7 327.6,40.6 C326.1,41.5 324.7,42.6 323.3,44 L323.3,82.3 L317.9,82.3 L317.9,36 L317.8,36 Z" id="Shape" fill="#000000"></path>
            <path d="M369.3,36 L375.1,36 L375.1,39.8 C377.5,36.8 380.5,35.2 384,35.2 C388.1,35.2 390.8,36.9 392.3,40.2 C393.8,43.5 394.5,48 394.5,53.6 L394.5,63.4 C394.5,69.7 393.7,74.6 392,77.9 C390.3,81.2 387.5,82.9 383.4,82.9 C380.5,82.9 377.8,81.4 375.2,78.5 L375.2,97.4 L369.4,97.4 L369.3,36 Z M387.5,74.9 C388.3,72.6 388.7,68.8 388.7,63.6 L388.7,53.7 C388.7,48.7 388.3,45.2 387.5,43.1 C386.7,41 385,39.9 382.4,39.9 C380,39.9 377.6,41.1 375.2,43.5 L375.2,75 C377.3,77.2 379.8,78.4 382.6,78.4 C385,78.4 386.6,77.2 387.5,74.9 Z" id="Shape" fill="#000000"></path>
            <path d="M404.5,78.7 C402.7,75.8 401.8,71.5 401.8,65.5 L401.8,52.8 C401.8,46.9 402.7,42.5 404.5,39.6 C406.3,36.7 409.5,35.3 414.1,35.3 C418.7,35.3 421.9,36.7 423.7,39.6 C425.5,42.5 426.4,46.8 426.4,52.8 L426.4,65.6 C426.4,71.5 425.5,75.9 423.7,78.8 C421.9,81.7 418.7,83.1 414.1,83.1 C409.5,83 406.3,81.6 404.5,78.7 Z M418.4,77.1 C419.3,76.1 419.9,74.7 420.2,72.9 C420.5,71.1 420.6,68.8 420.6,65.9 L420.6,52.4 C420.6,49.5 420.5,47.1 420.2,45.4 C419.9,43.6 419.3,42.3 418.4,41.2 C417.5,40.2 416,39.7 414.1,39.7 C412.2,39.7 410.8,40.2 409.8,41.2 C408.9,42.2 408.3,43.6 408,45.3 C407.7,47 407.6,49.4 407.6,52.4 L407.6,65.8 C407.6,68.8 407.7,71.1 408,72.9 C408.3,74.6 408.9,76 409.8,77 C410.7,78 412.2,78.5 414.1,78.5 C416,78.5 417.5,78.1 418.4,77.1 Z" id="Shape" fill="#000000"></path>
            <path d="M436.3,79.5 C434.1,77.2 432.8,74 432.5,69.9 L437.4,68.4 C437.7,71.9 438.5,74.5 439.8,76.2 C441.1,77.9 442.9,78.7 445.3,78.7 C447.3,78.7 448.9,78.1 450.1,76.9 C451.2,75.7 451.8,74.1 451.8,72.1 C451.8,69.1 449.9,66 446.2,62.8 L439.9,57.4 C437.8,55.6 436.2,53.9 435.1,52.1 C434,50.3 433.5,48.3 433.5,46 C433.5,42.6 434.5,40 436.5,38.2 C438.5,36.3 441.2,35.4 444.6,35.4 C448,35.4 450.6,36.5 452.5,38.7 C454.3,40.9 455.4,43.8 455.6,47.6 L451.4,49 C451.1,42.9 448.9,39.9 444.8,39.9 C443,39.9 441.5,40.4 440.4,41.4 C439.3,42.4 438.8,43.8 438.8,45.5 C438.8,46.9 439.1,48.2 439.6,49.3 C440.1,50.4 441.1,51.6 442.6,52.8 L449.2,58.6 C451.7,60.8 453.5,62.9 454.9,64.8 C456.2,66.7 456.9,69.2 456.9,72 C456.9,75.5 455.8,78.3 453.7,80.2 C451.6,82.1 448.7,83.1 445.1,83.1 C441.5,83 438.5,81.8 436.3,79.5 Z" id="Shape" fill="#000000"></path>
            <path d="M465.4,79.5 C463.2,77.2 461.9,74 461.6,69.9 L466.5,68.4 C466.8,71.9 467.6,74.5 468.9,76.2 C470.2,77.9 472,78.7 474.4,78.7 C476.4,78.7 478,78.1 479.2,76.9 C480.3,75.7 480.9,74.1 480.9,72.1 C480.9,69.1 479,66 475.3,62.8 L469,57.4 C466.9,55.6 465.3,53.9 464.2,52.1 C463.1,50.3 462.6,48.3 462.6,46 C462.6,42.6 463.6,40 465.6,38.2 C467.6,36.3 470.3,35.4 473.7,35.4 C477.1,35.4 479.7,36.5 481.6,38.7 C483.4,40.9 484.5,43.8 484.7,47.6 L480.5,49 C480.2,42.9 478,39.9 473.9,39.9 C472.1,39.9 470.6,40.4 469.5,41.4 C468.4,42.4 467.9,43.8 467.9,45.5 C467.9,46.9 468.2,48.2 468.7,49.3 C469.2,50.4 470.2,51.6 471.7,52.8 L478.3,58.6 C480.8,60.8 482.6,62.9 484,64.8 C485.3,66.7 486,69.2 486,72 C486,75.5 484.9,78.3 482.8,80.2 C480.7,82.1 477.8,83.1 474.2,83.1 C470.5,83 467.6,81.8 465.4,79.5 Z" id="Shape" fill="#000000"></path>
            <path d="M493.3,21.7 L499.1,21.7 L499.1,29.6 L493.3,29.6 L493.3,21.7 Z M493.3,36 L499.1,36 L499.1,82.2 L493.3,82.2 L493.3,36 Z" id="Shape" fill="#000000"></path>
            <path d="M514.9,78.6 L514.9,82.3 L509,82.3 L509,17.5 L514.8,17.5 L514.8,39.9 C515.8,38.6 517.1,37.5 518.6,36.6 C520.1,35.7 521.8,35.3 523.6,35.3 C527.7,35.3 530.4,37 531.9,40.3 C533.4,43.7 534.1,48.1 534.1,53.7 L534.1,63.5 C534.1,69.8 533.3,74.7 531.6,78 C529.9,81.3 527.1,83 523,83 C520.1,83 517.4,81.5 514.9,78.6 Z M527.1,74.9 C527.9,72.6 528.3,68.8 528.3,63.6 L528.3,53.7 C528.3,48.7 527.9,45.2 527.1,43.1 C526.3,41 524.6,39.9 522,39.9 C519.7,39.9 517.3,41.1 514.9,43.5 L514.9,75 C516.9,77.2 519.3,78.4 522.1,78.4 C524.6,78.4 526.2,77.2 527.1,74.9 Z" id="Shape" fill="#000000"></path>
            <polygon id="Shape" fill="#000000" points="543 17.5 548.8 17.5 548.8 82.3 543 82.3"></polygon>
            <path d="M562.8,81.2 C561,80 559.7,78.1 558.8,75.5 C557.9,72.9 557.5,69.3 557.5,64.9 L557.5,53.2 C557.5,48.7 557.9,45.1 558.8,42.5 C559.7,39.9 561,38.1 562.9,36.9 C564.8,35.7 567.1,35.2 570.1,35.2 C573.3,35.2 575.8,35.9 577.5,37.2 C579.2,38.6 580.4,40.6 581.1,43.3 C581.8,46 582.1,49.7 582.1,54.3 L582,58.5 L563.4,58.5 L563.4,65.4 C563.4,68.7 563.6,71.2 564,73.1 C564.4,75 565,76.3 566,77.2 C567,78.1 568.3,78.5 570.1,78.5 C572.1,78.5 573.7,77.9 574.8,76.6 C575.9,75.3 576.4,73 576.4,69.6 L576.4,66.4 L582.1,66.4 L582.1,69 C582.1,73.5 581.2,76.9 579.3,79.3 C577.4,81.7 574.4,82.9 570.1,82.9 C567,83 564.6,82.4 562.8,81.2 Z M576.3,55.2 L576.3,51.4 C576.3,48.6 576.2,46.4 575.9,44.8 C575.6,43.2 575,41.9 574.1,41 C573.2,40.1 571.8,39.6 570,39.6 C568.3,39.6 567,40 566.1,40.7 C565.1,41.4 564.4,42.7 564,44.5 C563.6,46.3 563.4,48.8 563.4,52.1 L563.4,55.2 C563.4,55.2 576.3,55.2 576.3,55.2 Z" id="Shape" fill="#000000"></path>
            <path d="M590.4,75.2 L596.6,75.2 L596.6,82.2 L590.4,82.2 L590.4,75.2 Z M590.4,17.5 L596.6,17.5 L594.4,68.4 L592.3,68.4 L590.4,17.5 Z" id="Shape" fill="#000000"></path>
        </g>
    </g>
</svg>