<?xml version="1.0" encoding="utf-8"?>
<!-- Generator: Adobe Illustrator 21.1.0, SVG Export Plug-In . SVG Version: 6.00 Build 0)  -->
<svg version="1.1" id="Layer_1" xmlns="http://www.w3.org/2000/svg" xmlns:xlink="http://www.w3.org/1999/xlink" x="0px" y="0px"
	 viewBox="0 0 635.6 125.1" style="enable-background:new 0 0 635.6 125.1;" xml:space="preserve">
<style type="text/css">
	.st0{fill:#F1C929;}
</style>
<title>Group 4</title>
<desc>Created with Sketch.</desc>
<rect id="Rectangle-12" x="15.7" y="9.3" class="st0" width="226" height="104"/>
<path d="M27.4,26.5h4.4l20.6,50.3V26.5h5.3v64.8h-4.3L32.7,40.4v50.9h-5.3C27.4,91.3,27.4,26.5,27.4,26.5z"/>
<path d="M69.6,87.7c-1.8-2.9-2.7-7.2-2.7-13.2V61.8c0-5.9,0.9-10.3,2.7-13.2c1.8-2.9,5-4.3,9.6-4.3s7.8,1.4,9.6,4.3
	c1.8,2.9,2.7,7.2,2.7,13.2v12.8c0,5.9-0.9,10.3-2.7,13.2c-1.8,2.9-5,4.3-9.6,4.3C74.6,92,71.4,90.6,69.6,87.7z M83.5,86.1
	c0.9-1,1.5-2.4,1.8-4.2c0.3-1.8,0.4-4.1,0.4-7V61.4c0-2.9-0.1-5.3-0.4-7c-0.3-1.8-0.9-3.1-1.8-4.2c-0.9-1-2.4-1.5-4.3-1.5
	s-3.3,0.5-4.3,1.5c-0.9,1-1.5,2.4-1.8,4.1s-0.4,4.1-0.4,7.1v13.4c0,3,0.1,5.3,0.4,7.1c0.3,1.7,0.9,3.1,1.8,4.1s2.4,1.5,4.3,1.5
	S82.6,87.1,83.5,86.1z"/>
<path d="M104,89.2c-1.2-1.7-1.8-4.3-1.8-7.6V48.9h-5.7V45h5.7V30.7h5.8V45h7.7v3.8H108V81c0,2.3,0.3,4,0.8,4.8
	c0.5,0.9,1.6,1.3,3.3,1.3c1,0,2.1-0.1,3.4-0.4v4.5c-1.7,0.3-3.3,0.5-5,0.5C107.4,91.8,105.2,91,104,89.2z"/>
<path d="M122.1,26.5h5.8v23.4c3.5-3.7,7.2-5.6,11.3-5.6c2.3,0,4.1,0.9,5.3,2.6c1.2,1.7,1.8,4.1,1.8,7.3v37.1h-5.9V55.4
	c0-2.3-0.4-4-1.1-5c-0.7-1-1.8-1.5-3.3-1.5c-1.3,0-2.6,0.4-4,1.2c-1.4,0.8-2.8,1.9-4,3.2v38h-5.8L122.1,26.5L122.1,26.5z"/>
<path d="M155.6,30.7h5.8v7.9h-5.8V30.7z M155.6,45h5.8v46.2h-5.8V45z"/>
<path d="M171.3,45h5.8v4.8c1.5-1.7,3.3-3.1,5.2-4c1.9-1,3.9-1.5,6-1.5c2.3,0,4.1,0.9,5.3,2.6c1.2,1.7,1.8,4.1,1.8,7.3v37.1h-5.8
	V55.4c0-2.3-0.4-4-1.1-5c-0.7-1-1.8-1.5-3.3-1.5c-1.3,0-2.6,0.4-4,1.2c-1.4,0.8-2.7,1.8-4,3.2v38.1h-5.8L171.3,45L171.3,45z"/>
<path d="M205,104.7c-2.7-1.2-4.1-3.2-4.1-6c0-2.2,0.7-4.3,2.2-6.2c1.5-1.9,3.3-3.4,5.4-4.5c-1.4-0.4-2.6-0.9-3.6-1.7
	c-1-0.7-1.5-1.5-1.5-2.3c0-1.5,0.5-3,1.5-4.6c1-1.5,2.3-3.2,4-4.9c-2-1.5-3.5-3.4-4.4-5.7c-0.9-2.3-1.4-5.1-1.4-8.4
	c0-4.7,1.1-8.6,3.3-11.6s5.4-4.6,9.7-4.6c4.7,0,8,1.9,9.9,5.8c0.5-0.8,1.3-1.7,2.5-2.8c1.2-1,2.4-1.9,3.8-2.4l1.2-0.4l1.6,4.1
	c-1.3,0.2-2.7,0.7-4.3,1.6s-2.7,1.7-3.3,2.4c0.4,1,0.7,2.3,1,4c0.3,1.6,0.4,3,0.4,4.1c0,5-1,8.9-3,11.8s-5.3,4.4-9.7,4.4
	c-0.8,0-1.6-0.1-2.5-0.2s-1.6-0.3-2.2-0.5c-0.2,0.3-0.6,0.9-1.2,1.7c-0.6,0.8-1,1.6-1.4,2.4c-0.4,0.7-0.6,1.4-0.6,1.8
	c0,0.8,1.3,1.4,3.8,1.8c0.4,0.2,1.3,0.3,2.6,0.5s2.3,0.3,3,0.4c0.9,0.1,1.5,0.2,1.7,0.2c3.8,0.6,6.7,1.8,8.7,3.6
	c1.9,1.7,2.9,4.1,2.9,7.2c0,3.7-1.3,6.4-3.9,8.1c-2.6,1.7-6.1,2.6-10.5,2.6C211.6,106.5,207.8,105.9,205,104.7z M223.8,100.3
	c1.8-1,2.6-2.5,2.6-4.4c0-1.7-0.6-3-1.8-3.9c-1.2-1-3.5-1.7-6.9-2.3l-5.9-0.8c-3.9,2.5-5.9,5.1-5.9,7.9c0,1.8,0.8,3,2.5,3.8
	s4.4,1.2,8.2,1.2C219.6,101.8,222,101.3,223.8,100.3z M222.2,69.2c1-2.2,1.5-5.1,1.5-8.7c0-8-2.5-12-7.6-12c-2.9,0-5,1.2-6.1,3.5
	c-1.1,2.3-1.7,5.2-1.7,8.5c0,8.1,2.6,12.1,7.8,12.1C219.1,72.6,221.2,71.4,222.2,69.2z"/>
<path d="M255.5,30.7h5.8v7.9h-5.8L255.5,30.7L255.5,30.7z M255.5,45h5.8v46.2h-5.8L255.5,45L255.5,45z"/>
<path d="M272.9,88.5c-2.2-2.3-3.5-5.5-3.8-9.6l4.9-1.5c0.3,3.5,1.1,6.1,2.4,7.8c1.3,1.7,3.1,2.5,5.5,2.5c2,0,3.6-0.6,4.8-1.8
	c1.1-1.2,1.7-2.8,1.7-4.8c0-3-1.9-6.1-5.6-9.3l-6.3-5.4c-2.1-1.8-3.7-3.5-4.8-5.3s-1.6-3.8-1.6-6.1c0-3.4,1-6,3-7.8
	c2-1.9,4.7-2.8,8.1-2.8s6,1.1,7.9,3.3c1.8,2.2,2.9,5.1,3.1,8.9L288,58c-0.3-6.1-2.5-9.1-6.6-9.1c-1.8,0-3.3,0.5-4.4,1.5
	s-1.6,2.4-1.6,4.1c0,1.4,0.3,2.7,0.8,3.8c0.5,1.1,1.5,2.3,3,3.5l6.6,5.8c2.5,2.2,4.3,4.3,5.7,6.2c1.3,1.9,2,4.4,2,7.2
	c0,3.5-1.1,6.3-3.2,8.2c-2.1,1.9-5,2.9-8.6,2.9C278.1,92,275.1,90.8,272.9,88.5z"/>
<path d="M317.1,30.7h5.8v7.9h-5.8V30.7z M317.1,45h5.8v46.2h-5.8V45z"/>
<path d="M332.8,45h5.4v4.7c1.5-1.8,3.2-3.2,5-4.1c1.9-0.9,3.8-1.4,5.8-1.4c3.8,0,6.3,2,7.4,6c1.5-2,3.3-3.5,5.2-4.5
	c1.9-1,4-1.5,6.1-1.5c2.3,0,4.2,0.8,5.6,2.5c1.5,1.7,2.2,4.3,2.2,8.1v36.5h-5.4V55c0-2.5-0.4-4.3-1.2-5.2c-0.8-1-1.9-1.5-3.4-1.5
	c-1.4,0-2.9,0.4-4.4,1.3c-1.5,0.9-3,2-4.3,3.5c0.1,0.7,0.2,1.3,0.2,1.8v36.5h-5.5V55c0-2.6-0.4-4.3-1.2-5.3c-0.8-1-1.9-1.4-3.4-1.4
	c-1.4,0-2.8,0.4-4.3,1.3c-1.5,0.9-2.9,2-4.3,3.4v38.3h-5.4V45H332.8z"/>
<path d="M384.3,45h5.8v3.8c2.4-3,5.4-4.6,8.9-4.6c4.1,0,6.8,1.7,8.3,5s2.2,7.8,2.2,13.4v9.8c0,6.3-0.8,11.2-2.5,14.5s-4.5,5-8.6,5
	c-2.9,0-5.6-1.5-8.2-4.4v18.9h-5.8L384.3,45L384.3,45z M402.5,83.9c0.8-2.3,1.2-6.1,1.2-11.3v-9.9c0-5-0.4-8.5-1.2-10.6
	c-0.8-2.1-2.5-3.2-5.1-3.2c-2.4,0-4.8,1.2-7.2,3.6V84c2.1,2.2,4.6,3.4,7.4,3.4C400,87.4,401.6,86.2,402.5,83.9z"/>
<path d="M419.5,87.7c-1.8-2.9-2.7-7.2-2.7-13.2V61.8c0-5.9,0.9-10.3,2.7-13.2c1.8-2.9,5-4.3,9.6-4.3s7.8,1.4,9.6,4.3
	c1.8,2.9,2.7,7.2,2.7,13.2v12.8c0,5.9-0.9,10.3-2.7,13.2c-1.8,2.9-5,4.3-9.6,4.3C424.5,92,421.3,90.6,419.5,87.7z M433.4,86.1
	c0.9-1,1.5-2.4,1.8-4.2c0.3-1.8,0.4-4.1,0.4-7V61.4c0-2.9-0.1-5.3-0.4-7c-0.3-1.8-0.9-3.1-1.8-4.2c-0.9-1-2.4-1.5-4.3-1.5
	s-3.3,0.5-4.3,1.5c-0.9,1-1.5,2.4-1.8,4.1s-0.4,4.1-0.4,7.1v13.4c0,3,0.1,5.3,0.4,7.1c0.3,1.7,0.9,3.1,1.8,4.1s2.4,1.5,4.3,1.5
	S432.5,87.1,433.4,86.1z"/>
<path d="M451.3,88.5c-2.2-2.3-3.5-5.5-3.8-9.6l4.9-1.5c0.3,3.5,1.1,6.1,2.4,7.8c1.3,1.7,3.1,2.5,5.5,2.5c2,0,3.6-0.6,4.8-1.8
	c1.1-1.2,1.7-2.8,1.7-4.8c0-3-1.9-6.1-5.6-9.3l-6.3-5.4c-2.1-1.8-3.7-3.5-4.8-5.3s-1.6-3.8-1.6-6.1c0-3.4,1-6,3-7.8
	c2-1.9,4.7-2.8,8.1-2.8s6,1.1,7.9,3.3c1.8,2.2,2.9,5.1,3.1,8.9l-4.2,1.4c-0.3-6.1-2.5-9.1-6.6-9.1c-1.8,0-3.3,0.5-4.4,1.5
	s-1.6,2.4-1.6,4.1c0,1.4,0.3,2.7,0.8,3.8c0.5,1.1,1.5,2.3,3,3.5l6.6,5.8c2.5,2.2,4.3,4.3,5.7,6.2c1.3,1.9,2,4.4,2,7.2
	c0,3.5-1.1,6.3-3.2,8.2c-2.1,1.9-5,2.9-8.6,2.9C456.5,92,453.5,90.8,451.3,88.5z"/>
<path d="M480.4,88.5c-2.2-2.3-3.5-5.5-3.8-9.6l4.9-1.5c0.3,3.5,1.1,6.1,2.4,7.8c1.3,1.7,3.1,2.5,5.5,2.5c2,0,3.6-0.6,4.8-1.8
	c1.1-1.2,1.7-2.8,1.7-4.8c0-3-1.9-6.1-5.6-9.3l-6.3-5.4c-2.1-1.8-3.7-3.5-4.8-5.3s-1.6-3.8-1.6-6.1c0-3.4,1-6,3-7.8
	c2-1.9,4.7-2.8,8.1-2.8s6,1.1,7.9,3.3c1.8,2.2,2.9,5.1,3.1,8.9l-4.2,1.4c-0.3-6.1-2.5-9.1-6.6-9.1c-1.8,0-3.3,0.5-4.4,1.5
	s-1.6,2.4-1.6,4.1c0,1.4,0.3,2.7,0.8,3.8c0.5,1.1,1.5,2.3,3,3.5l6.6,5.8c2.5,2.2,4.3,4.3,5.7,6.2c1.3,1.9,2,4.4,2,7.2
	c0,3.5-1.1,6.3-3.2,8.2c-2.1,1.9-5,2.9-8.6,2.9C485.5,92,482.6,90.8,480.4,88.5z"/>
<path d="M508.3,30.7h5.8v7.9h-5.8V30.7z M508.3,45h5.8v46.2h-5.8V45z"/>
<path d="M529.9,87.6v3.7H524V26.5h5.8v22.4c1-1.3,2.3-2.4,3.8-3.3c1.5-0.9,3.2-1.3,5-1.3c4.1,0,6.8,1.7,8.3,5
	c1.5,3.4,2.2,7.8,2.2,13.4v9.8c0,6.3-0.8,11.2-2.5,14.5s-4.5,5-8.6,5C535.1,92,532.4,90.5,529.9,87.6z M542.1,83.9
	c0.8-2.3,1.2-6.1,1.2-11.3v-9.9c0-5-0.4-8.5-1.2-10.6s-2.5-3.2-5.1-3.2c-2.3,0-4.7,1.2-7.1,3.6V84c2,2.2,4.4,3.4,7.2,3.4
	C539.6,87.4,541.2,86.2,542.1,83.9z"/>
<path d="M558,26.5h5.8v64.8H558V26.5z"/>
<path d="M577.8,90.2c-1.8-1.2-3.1-3.1-4-5.7s-1.3-6.2-1.3-10.6V62.2c0-4.5,0.4-8.1,1.3-10.7c0.9-2.6,2.2-4.4,4.1-5.6
	s4.2-1.7,7.2-1.7c3.2,0,5.7,0.7,7.4,2c1.7,1.4,2.9,3.4,3.6,6.1c0.7,2.7,1,6.4,1,11l-0.1,4.2h-18.6v6.9c0,3.3,0.2,5.8,0.6,7.7
	c0.4,1.9,1,3.2,2,4.1s2.3,1.3,4.1,1.3c2,0,3.6-0.6,4.7-1.9c1.1-1.3,1.6-3.6,1.6-7v-3.2h5.7V78c0,4.5-0.9,7.9-2.8,10.3
	c-1.9,2.4-4.9,3.6-9.2,3.6C582,92,579.6,91.4,577.8,90.2z M591.3,64.2v-3.8c0-2.8-0.1-5-0.4-6.6c-0.3-1.6-0.9-2.9-1.8-3.8
	c-0.9-0.9-2.3-1.4-4.1-1.4c-1.7,0-3,0.4-3.9,1.1c-1,0.7-1.7,2-2.1,3.8c-0.4,1.8-0.6,4.3-0.6,7.6v3.1
	C578.4,64.2,591.3,64.2,591.3,64.2z"/>
<path d="M605.4,84.2h6.2v7h-6.2V84.2z M605.4,26.5h6.2l-2.2,50.9h-2.1L605.4,26.5z"/>
</svg>
