<?xml version="1.0" encoding="UTF-8"?>
<svg width="334px" height="88px" viewBox="0 0 334 88" version="1.1" xmlns="http://www.w3.org/2000/svg" xmlns:xlink="http://www.w3.org/1999/xlink">
    <!-- Generator: Sketch 51.3 (57544) - http://www.bohemiancoding.com/sketch -->
    <title>PICTURES</title>
    <desc>Created with Sketch.</desc>
    <defs></defs>
    <g id="Page-1" stroke="none" stroke-width="1" fill="none" fill-rule="evenodd">
        <g id="Desktop-Copy-2" transform="translate(-344.000000, -224.000000)" fill="#244005">
            <path d="M344.15,225.1 L366.85,225.1 C373.716701,225.1 378.616652,227.316644 381.55,231.75 C384.483348,236.183356 385.95,242.666624 385.95,251.2 C385.95,259.733376 384.650013,266.166645 382.05,270.5 C379.449987,274.833355 374.783367,277 368.05,277 L361.05,277 L361.05,311 L344.15,311 L344.15,225.1 Z M362.05,261.5 C364.116677,261.5 365.633329,261.11667 366.6,260.35 C367.566671,259.583329 368.199998,258.48334 368.5,257.05 C368.800002,255.616659 368.95,253.56668 368.95,250.9 C368.95,247.299982 368.550004,244.700008 367.75,243.1 C366.949996,241.499992 365.350012,240.7 362.95,240.7 L361.05,240.7 L361.05,261.5 L362.05,261.5 Z M390.55,311 L390.55,225.1 L407.15,225.1 L407.15,311 L390.55,311 Z M419,305.9 C415.233315,301.966647 413.35,296.566701 413.35,289.7 L413.35,250.1 C413.35,241.566624 415.049983,235.133355 418.45,230.8 C421.850017,226.466645 427.183297,224.3 434.45,224.3 C440.783365,224.3 445.883314,226.033316 449.75,229.5 C453.616686,232.966684 455.55,237.966634 455.55,244.5 L455.55,259.3 L438.45,259.3 L438.45,246.6 C438.45,244.133321 438.150003,242.433338 437.55,241.5 C436.949997,240.566662 435.916674,240.1 434.45,240.1 C432.916659,240.1 431.86667,240.633328 431.3,241.7 C430.733331,242.766672 430.45,244.333323 430.45,246.4 L430.45,289.5 C430.45,291.766678 430.78333,293.416662 431.45,294.45 C432.11667,295.483339 433.11666,296 434.45,296 C437.11668,296 438.45,293.833355 438.45,289.5 L438.45,274 L455.75,274 L455.75,290.2 C455.75,304.600072 448.516739,311.8 434.05,311.8 C427.783302,311.8 422.766685,309.833353 419,305.9 Z M468.85,311 L468.85,241.6 L458.65,241.6 L458.65,225.1 L496.25,225.1 L496.25,241.6 L486.05,241.6 L486.05,311 L468.85,311 Z M505.2,305.8 C501.766649,301.79998 500.05,295.866706 500.05,288 L500.05,225.1 L516.75,225.1 L516.75,287.3 C516.75,290.033347 517.016664,292.166659 517.55,293.7 C518.083336,295.233341 519.216658,296 520.95,296 C522.683342,296 523.816664,295.250007 524.35,293.75 C524.883336,292.249993 525.15,290.100014 525.15,287.3 L525.15,225.1 L541.85,225.1 L541.85,288 C541.85,295.866706 540.133351,301.79998 536.7,305.8 C533.26665,309.80002 528.016702,311.8 520.95,311.8 C513.883298,311.8 508.633351,309.80002 505.2,305.8 Z M548.45,225.1 L574.85,225.1 C579.050021,225.1 582.299989,226.04999 584.6,227.95 C586.900012,229.850009 588.449996,232.516649 589.25,235.95 C590.050004,239.383351 590.45,243.76664 590.45,249.1 C590.45,253.966691 589.816673,257.766653 588.55,260.5 C587.283327,263.233347 585.083349,265.133328 581.95,266.2 C584.550013,266.733336 586.433328,268.033323 587.6,270.1 C588.766673,272.166677 589.35,274.966649 589.35,278.5 L589.15,311 L572.35,311 L572.35,277.4 C572.35,274.999988 571.883338,273.46667 570.95,272.8 C570.016662,272.13333 568.316679,271.8 565.85,271.8 L565.85,311 L548.45,311 L548.45,225.1 Z M570.05,256.9 C572.450012,256.9 573.65,254.300026 573.65,249.1 C573.65,246.833322 573.550001,245.133339 573.35,244 C573.149999,242.866661 572.783336,242.083336 572.25,241.65 C571.716664,241.216664 570.950005,241 569.95,241 L565.95,241 L565.95,256.9 L570.05,256.9 Z M596.15,311 L596.15,225.1 L630.55,225.1 L630.55,241.7 L613.65,241.7 L613.65,258.4 L629.85,258.4 L629.85,274.6 L613.65,274.6 L613.65,294.3 L631.65,294.3 L631.65,311 L596.15,311 Z M640.85,306 C637.383316,302.133314 635.65,295.900043 635.65,287.3 L635.65,278.9 L652.55,278.9 L652.55,289.6 C652.55,293.866688 653.916653,296 656.65,296 C658.183341,296 659.249997,295.550005 659.85,294.65 C660.450003,293.749996 660.75,292.233344 660.75,290.1 C660.75,287.299986 660.41667,284.983342 659.75,283.15 C659.08333,281.316658 658.233338,279.78334 657.2,278.55 C656.166662,277.316661 654.31668,275.400013 651.65,272.8 L644.25,265.4 C638.516638,259.799972 635.65,253.600034 635.65,246.8 C635.65,239.46663 637.333317,233.883353 640.7,230.05 C644.066683,226.216647 648.983301,224.3 655.45,224.3 C663.183372,224.3 668.749983,226.349979 672.15,230.45 C675.550017,234.55002 677.25,240.966623 677.25,249.7 L659.75,249.7 L659.65,243.8 C659.65,242.666661 659.333336,241.76667 658.7,241.1 C658.066664,240.43333 657.183339,240.1 656.05,240.1 C654.71666,240.1 653.71667,240.466663 653.05,241.2 C652.38333,241.933337 652.05,242.933327 652.05,244.2 C652.05,247.000014 653.649984,249.899985 656.85,252.9 L666.85,262.5 C669.183345,264.766678 671.116659,266.916656 672.65,268.95 C674.183341,270.983343 675.416662,273.383319 676.35,276.15 C677.283338,278.91668 677.75,282.199981 677.75,286 C677.75,294.466709 676.200016,300.883311 673.1,305.25 C669.999984,309.616689 664.883369,311.8 657.75,311.8 C649.949961,311.8 644.316684,309.866686 640.85,306 Z" id="PICTURES"></path>
        </g>
    </g>
</svg>