<?xml version="1.0" encoding="UTF-8"?>
<svg width="359px" height="88px" viewBox="0 0 359 88" version="1.1" xmlns="http://www.w3.org/2000/svg" xmlns:xlink="http://www.w3.org/1999/xlink">
    <!-- Generator: Sketch 51.3 (57544) - http://www.bohemiancoding.com/sketch -->
    <title>PROJECTS</title>
    <desc>Created with Sketch.</desc>
    <defs></defs>
    <g id="Page-1" stroke="none" stroke-width="1" fill="none" fill-rule="evenodd">
        <g id="Desktop-projects" transform="translate(-331.000000, -224.000000)" fill="#244005">
            <path d="M331.1,225.1 L353.8,225.1 C360.666701,225.1 365.566652,227.316644 368.5,231.75 C371.433348,236.183356 372.9,242.666624 372.9,251.2 C372.9,259.733376 371.600013,266.166645 369,270.5 C366.399987,274.833355 361.733367,277 355,277 L348,277 L348,311 L331.1,311 L331.1,225.1 Z M349,261.5 C351.066677,261.5 352.583328,261.11667 353.55,260.35 C354.516672,259.583329 355.149999,258.48334 355.45,257.05 C355.750001,255.616659 355.9,253.56668 355.9,250.9 C355.9,247.299982 355.500004,244.700008 354.7,243.1 C353.899996,241.499992 352.300012,240.7 349.9,240.7 L348,240.7 L348,261.5 L349,261.5 Z M378.3,225.1 L404.7,225.1 C408.900021,225.1 412.149989,226.04999 414.45,227.95 C416.750012,229.850009 418.299996,232.516649 419.1,235.95 C419.900004,239.383351 420.3,243.76664 420.3,249.1 C420.3,253.966691 419.666673,257.766653 418.4,260.5 C417.133327,263.233347 414.933349,265.133328 411.8,266.2 C414.400013,266.733336 416.283328,268.033323 417.45,270.1 C418.616673,272.166677 419.2,274.966649 419.2,278.5 L419,311 L402.2,311 L402.2,277.4 C402.2,274.999988 401.733338,273.46667 400.8,272.8 C399.866662,272.13333 398.166679,271.8 395.7,271.8 L395.7,311 L378.3,311 L378.3,225.1 Z M399.9,256.9 C402.300012,256.9 403.5,254.300026 403.5,249.1 C403.5,246.833322 403.400001,245.133339 403.2,244 C402.999999,242.866661 402.633336,242.083336 402.1,241.65 C401.566664,241.216664 400.800005,241 399.8,241 L395.8,241 L395.8,256.9 L399.9,256.9 Z M430.7,305.45 C427.099982,301.216646 425.3,295.266705 425.3,287.6 L425.3,246.7 C425.3,239.299963 427.099982,233.716685 430.7,229.95 C434.300018,226.183314 439.566632,224.3 446.5,224.3 C453.433368,224.3 458.699982,226.183314 462.3,229.95 C465.900018,233.716685 467.7,239.299963 467.7,246.7 L467.7,287.6 C467.7,295.333372 465.900018,301.299979 462.3,305.5 C458.699982,309.700021 453.433368,311.8 446.5,311.8 C439.566632,311.8 434.300018,309.683355 430.7,305.45 Z M449.6,294 C450.133336,292.66666 450.4,290.800012 450.4,288.4 L450.4,246.4 C450.4,244.533324 450.150003,243.016672 449.65,241.85 C449.149998,240.683327 448.133341,240.1 446.6,240.1 C443.733319,240.1 442.3,242.266645 442.3,246.6 L442.3,288.5 C442.3,290.966679 442.599997,292.833327 443.2,294.1 C443.800003,295.366673 444.899992,296 446.5,296 C448.033341,296 449.066664,295.33334 449.6,294 Z M483,309.5 C479.799984,307.966659 477.283343,305.716681 475.45,302.75 C473.616657,299.783319 472.7,296.200021 472.7,292 L472.7,270.5 L489.6,270.5 L489.6,291 C489.6,292.533341 489.916664,293.749996 490.55,294.65 C491.183336,295.550005 492.16666,296 493.5,296 C494.766673,296 495.716663,295.583337 496.35,294.75 C496.983337,293.916663 497.3,292.733341 497.3,291.2 L497.3,225.1 L514.6,225.1 L514.6,289.5 C514.6,293.966689 513.716676,297.883316 511.95,301.25 C510.183325,304.616684 507.716682,307.216657 504.55,309.05 C501.383317,310.883343 497.766687,311.8 493.7,311.8 C489.766647,311.8 486.200016,311.033341 483,309.5 Z M521.2,311 L521.2,225.1 L555.6,225.1 L555.6,241.7 L538.7,241.7 L538.7,258.4 L554.9,258.4 L554.9,274.6 L538.7,274.6 L538.7,294.3 L556.7,294.3 L556.7,311 L521.2,311 Z M567.35,305.9 C563.583315,301.966647 561.7,296.566701 561.7,289.7 L561.7,250.1 C561.7,241.566624 563.399983,235.133355 566.8,230.8 C570.200017,226.466645 575.533297,224.3 582.8,224.3 C589.133365,224.3 594.233314,226.033316 598.1,229.5 C601.966686,232.966684 603.9,237.966634 603.9,244.5 L603.9,259.3 L586.8,259.3 L586.8,246.6 C586.8,244.133321 586.500003,242.433338 585.9,241.5 C585.299997,240.566662 584.266674,240.1 582.8,240.1 C581.266659,240.1 580.21667,240.633328 579.65,241.7 C579.08333,242.766672 578.8,244.333323 578.8,246.4 L578.8,289.5 C578.8,291.766678 579.13333,293.416662 579.8,294.45 C580.46667,295.483339 581.46666,296 582.8,296 C585.46668,296 586.8,293.833355 586.8,289.5 L586.8,274 L604.1,274 L604.1,290.2 C604.1,304.600072 596.866739,311.8 582.4,311.8 C576.133302,311.8 571.116686,309.833353 567.35,305.9 Z M617.2,311 L617.2,241.6 L607,241.6 L607,225.1 L644.6,225.1 L644.6,241.6 L634.4,241.6 L634.4,311 L617.2,311 Z M652.9,306 C649.433316,302.133314 647.7,295.900043 647.7,287.3 L647.7,278.9 L664.6,278.9 L664.6,289.6 C664.6,293.866688 665.966653,296 668.7,296 C670.233341,296 671.299997,295.550005 671.9,294.65 C672.500003,293.749996 672.8,292.233344 672.8,290.1 C672.8,287.299986 672.46667,284.983342 671.8,283.15 C671.13333,281.316658 670.283339,279.78334 669.25,278.55 C668.216662,277.316661 666.36668,275.400013 663.7,272.8 L656.3,265.4 C650.566638,259.799972 647.7,253.600034 647.7,246.8 C647.7,239.46663 649.383317,233.883353 652.75,230.05 C656.116684,226.216647 661.033301,224.3 667.5,224.3 C675.233372,224.3 680.799983,226.349979 684.2,230.45 C687.600017,234.55002 689.3,240.966623 689.3,249.7 L671.8,249.7 L671.7,243.8 C671.7,242.666661 671.383337,241.76667 670.75,241.1 C670.116663,240.43333 669.233339,240.1 668.1,240.1 C666.76666,240.1 665.76667,240.466663 665.1,241.2 C664.43333,241.933337 664.1,242.933327 664.1,244.2 C664.1,247.000014 665.699984,249.899985 668.9,252.9 L678.9,262.5 C681.233345,264.766678 683.166659,266.916656 684.7,268.95 C686.233341,270.983343 687.466662,273.383319 688.4,276.15 C689.333338,278.91668 689.8,282.199981 689.8,286 C689.8,294.466709 688.250016,300.883311 685.15,305.25 C682.049985,309.616689 676.933369,311.8 669.8,311.8 C661.999961,311.8 656.366684,309.866686 652.9,306 Z" id="PROJECTS"></path>
        </g>
    </g>
</svg>