<?xml version="1.0" encoding="UTF-8"?>
<svg width="897px" height="379px" viewBox="0 0 897 379" version="1.1" xmlns="http://www.w3.org/2000/svg" xmlns:xlink="http://www.w3.org/1999/xlink">
    <!-- Generator: Sketch 50.2 (55047) - http://www.bohemiancoding.com/sketch -->
    <title>Group 23</title>
    <desc>Created with Sketch.</desc>
    <defs></defs>
    <g id="Page-1" stroke="none" stroke-width="1" fill="none" fill-rule="evenodd">
        <g id="Group-23">
            <path d="M24.170563,377 L24.170563,212.993015 L0,212.993015 L0,174 L89.0993304,174 L89.0993304,212.993015 L64.9287673,212.993015 L64.9287673,377 L24.170563,377 Z M100.111607,377 L100.111607,174 L140.582257,174 L140.582257,246.55064 L159.752565,246.55064 L159.752565,174 L200.223214,174 L200.223214,377 L159.752565,377 L159.752565,284.834692 L140.582257,284.834692 L140.582257,377 L100.111607,377 Z M218.243304,377 L218.243304,174 L299.731332,174 L299.731332,213.229336 L259.697969,213.229336 L259.697969,252.694994 L298.073145,252.694994 L298.073145,290.979045 L259.697969,290.979045 L259.697969,337.534342 L302.337054,337.534342 L302.337054,377 L218.243304,377 Z M379.774927,365.278857 C371.531333,356.131383 367.409598,341.385245 367.409598,321.04 L367.409598,301.168 L407.596918,301.168 L407.596918,326.481143 C407.596918,336.574908 410.846748,341.621714 417.346504,341.621714 C420.992709,341.621714 423.529162,340.557154 424.955938,338.428 C426.382714,336.298846 427.096091,332.710882 427.096091,327.664 C427.096091,321.039967 426.303449,315.55945 424.718143,311.222286 C423.132836,306.885121 421.111601,303.257729 418.654376,300.34 C416.197151,297.422271 411.797991,292.888031 405.456765,286.737143 L387.85995,269.230857 C374.226314,255.982791 367.409598,241.315509 367.409598,225.228571 C367.409598,207.879913 371.412437,194.671474 379.418235,185.602857 C387.424033,176.53424 399.115494,172 414.492967,172 C432.882523,172 446.119634,176.849666 454.204697,186.549143 C462.28976,196.24862 466.332231,211.428468 466.332231,232.089143 L424.718143,232.089143 L424.480348,218.131429 C424.480348,215.450272 423.727339,213.321151 422.221298,211.744 C420.715256,210.166849 418.614757,209.378286 415.919736,209.378286 C412.749123,209.378286 410.371198,210.245706 408.785892,211.980571 C407.200585,213.715437 406.407944,216.081128 406.407944,219.077714 C406.407944,225.701747 410.212623,232.56225 417.822094,239.659429 L441.601573,262.370286 C447.150146,267.732598 451.747466,272.818833 455.393671,277.629143 C459.039876,282.439453 461.972649,288.11711 464.192078,294.662286 C466.411507,301.207461 467.521205,308.974812 467.521205,317.964571 C467.521205,337.994386 463.835423,353.174234 456.463748,363.504571 C449.092072,373.834909 436.925027,379 419.962247,379 C401.414161,379 388.018521,374.426331 379.774927,365.278857 Z M497.698465,377 L497.698465,212.993015 L473.527902,212.993015 L473.527902,174 L562.627232,174 L562.627232,212.993015 L538.456669,212.993015 L538.456669,377 L497.698465,377 Z M584.38734,363.977714 C575.887255,353.962807 571.637277,339.886948 571.637277,321.749714 L571.637277,224.992 C571.637277,207.485627 575.887255,194.277187 584.38734,185.366286 C592.887425,176.455384 605.322547,172 621.69308,172 C638.063614,172 650.498736,176.455384 658.998821,185.366286 C667.498905,194.277187 671.748884,207.485627 671.748884,224.992 L671.748884,321.749714 C671.748884,340.044663 667.498905,354.15995 658.998821,364.096 C650.498736,374.03205 638.063614,379 621.69308,379 C605.322547,379 592.887425,373.992622 584.38734,363.977714 Z M628.824487,336.277281 C630.076919,333.128786 630.703125,328.720959 630.703125,323.053667 L630.703125,223.876565 C630.703125,219.468672 630.116057,215.887313 628.941902,213.132379 C627.767748,210.377446 625.380337,209 621.779597,209 C615.047778,209 611.68192,214.116228 611.68192,224.348837 L611.68192,323.289803 C611.68192,329.114519 612.386402,333.522346 613.795387,336.513417 C615.204372,339.504487 617.787473,341 621.544767,341 C625.145507,341 627.572056,339.425776 628.824487,336.277281 Z M688.767857,174 L751.06588,174 C760.976979,174 768.646166,176.24503 774.073673,180.735157 C779.501179,185.225284 783.158792,191.527123 785.04662,199.640861 C786.934448,207.7546 787.878348,218.113247 787.878348,230.717113 C787.878348,242.218141 786.38384,251.19826 783.394778,257.657742 C780.405717,264.117223 775.214267,268.607283 767.820273,271.128056 C773.955715,272.388442 778.399911,275.460589 781.152993,280.344587 C783.906076,285.228585 785.282597,291.845515 785.282597,300.195576 L784.810643,377 L745.166446,377 L745.166446,297.596042 C745.166446,291.924302 744.065229,288.300745 741.862763,286.725262 C739.660297,285.149779 735.648722,284.362049 729.827918,284.362049 L729.827918,377 L688.767857,377 L688.767857,174 Z M739.408729,250 C745.025408,250 747.833705,243.786226 747.833705,231.358491 C747.833705,225.941273 747.599681,221.87842 747.131624,219.169811 C746.663567,216.461202 745.805476,214.589104 744.557325,213.553459 C743.309175,212.517815 741.514984,212 739.174701,212 L729.813616,212 L729.813616,250 L739.408729,250 Z M826.285845,377 L826.285845,310.121071 L793.885045,174 L834.090417,174 L845.442522,242.769499 L856.794627,174 L897,179 L864.5992,310.121071 L864.5992,377 L826.285845,377 Z" id="THE-STORY" fill="#DCBC3F"></path>
            <rect id="Rectangle-8" fill="#DCBC3F" x="0" y="0.59979408" width="897" height="178"></rect>
            <path d="M18,16.327929 L55.7220381,16.327929 C67.1328732,16.327929 75.2754344,20.007362 80.1499659,27.3663385 C85.0244974,34.7253151 87.4617266,45.4869651 87.4617266,59.6516117 C87.4617266,73.8162582 85.3014552,84.4949135 80.9808478,91.6878981 C76.6602403,98.8808826 68.9054202,102.477321 57.7161547,102.477321 L46.0838081,102.477321 L46.0838081,158.914302 L18,158.914302 L18,16.327929 Z M47.7455719,76.7486972 C51.1799009,76.7486972 53.7002175,76.1124042 55.3065972,74.8397993 C56.9129769,73.5671943 57.9654167,71.7413102 58.4639484,69.3620923 C58.96248,66.9828743 59.2117421,63.5800903 59.2117421,59.1536383 C59.2117421,53.177928 58.5470432,48.862202 57.2176255,46.2063308 C55.8882078,43.5504596 53.2294124,42.2225439 49.2411593,42.2225439 L46.0838081,42.2225439 L46.0838081,76.7486972 L47.7455719,76.7486972 Z M95.10584,158.914302 L95.10584,16.327929 L122.691119,16.327929 L122.691119,158.914302 L95.10584,158.914302 Z M142.38302,150.448755 C136.123678,143.919738 132.994055,134.956307 132.994055,123.558193 L132.994055,57.8257093 C132.994055,43.6610628 135.819025,32.9824075 141.46905,25.7894229 C147.119075,18.5964383 155.981727,15 168.057271,15 C178.581827,15 187.056738,17.8771507 193.482257,23.6315383 C199.907775,29.385926 203.120487,37.685399 203.120487,48.5302065 L203.120487,73.0968925 L174.704326,73.0968925 L174.704326,52.0160201 C174.704326,47.9215519 174.205802,45.0997311 173.208738,43.5504729 C172.211675,42.0012147 170.494536,41.2265972 168.057271,41.2265972 C165.50922,41.2265972 163.764385,42.1118743 162.822715,43.8824551 C161.881044,45.6530359 161.410215,48.2535375 161.410215,51.6840378 L161.410215,123.226211 C161.410215,126.988695 161.964131,129.727522 163.071979,131.442772 C164.179827,133.158022 165.841574,134.015634 168.057271,134.015634 C172.488663,134.015634 174.704326,130.419196 174.704326,123.226211 L174.704326,97.4975873 L203.452839,97.4975873 L203.452839,124.388149 C203.452839,148.29099 191.432868,160.242231 167.392565,160.242231 C156.978793,160.242231 148.642362,156.977772 142.38302,150.448755 Z M225.221945,158.914302 L225.221945,43.716464 L208.271954,43.716464 L208.271954,16.327929 L270.754273,16.327929 L270.754273,43.716464 L253.804282,43.716464 L253.804282,158.914302 L225.221945,158.914302 Z M285.627059,150.282764 C279.921641,143.643086 277.068975,133.794378 277.068975,120.736344 L277.068975,16.327929 L304.820431,16.327929 L304.820431,119.574406 C304.820431,124.11152 305.263563,127.652628 306.149842,130.197838 C307.03612,132.743048 308.919434,134.015634 311.799839,134.015634 C314.680244,134.015634 316.563557,132.770713 317.449836,130.280834 C318.336114,127.790955 318.779247,124.222181 318.779247,119.574406 L318.779247,16.327929 L346.530702,16.327929 L346.530702,120.736344 C346.530702,133.794378 343.678036,143.643086 337.972618,150.282764 C332.267201,156.922442 323.543028,160.242231 311.799839,160.242231 C300.056649,160.242231 291.332476,156.922442 285.627059,150.282764 Z M357.498343,16.327929 L401.368907,16.327929 C408.34835,16.327929 413.749028,17.9048289 417.571104,21.0586759 C421.39318,24.212523 423.968888,28.6389086 425.298306,34.3379656 C426.627723,40.0370226 427.292422,47.312894 427.292422,56.1657981 C427.292422,64.2440731 426.239982,70.5516726 424.135071,75.0887859 C422.03016,79.6258993 418.374316,82.7796991 413.16743,84.5502799 C417.488038,85.4355703 420.617661,87.5934333 422.556396,91.0239336 C424.49513,94.4544339 425.464482,99.1021389 425.464482,104.967188 L425.132129,158.914302 L397.214498,158.914302 L397.214498,103.141285 C397.214498,99.1574786 396.439016,96.6123069 394.888028,95.5056939 C393.337041,94.3990809 390.512071,93.8457827 386.413033,93.8457827 L386.413033,158.914302 L357.498343,158.914302 L357.498343,16.327929 Z M393.392441,69.1131056 C397.380694,69.1131056 399.374791,64.7973796 399.374791,56.1657981 C399.374791,52.4033139 399.208616,49.581493 398.876261,47.7002509 C398.543907,45.8190088 397.9346,44.518758 397.048321,43.7994596 C396.162043,43.0801611 394.888037,42.7205173 393.226265,42.7205173 L386.579209,42.7205173 L386.579209,69.1131056 L393.392441,69.1131056 Z M436.764476,158.914302 L436.764476,16.327929 L493.92915,16.327929 L493.92915,43.8824551 L465.845342,43.8824551 L465.845342,71.6029724 L492.765916,71.6029724 L492.765916,98.4935341 L465.845342,98.4935341 L465.845342,131.193785 L495.757091,131.193785 L495.757091,158.914302 L436.764476,158.914302 Z M511.045318,150.614746 C505.284508,144.196391 502.404146,133.849714 502.404146,119.574406 L502.404146,105.631152 L530.487954,105.631152 L530.487954,123.392202 C530.487954,130.474526 532.759008,134.015634 537.301185,134.015634 C539.849236,134.015634 541.621766,133.268681 542.61883,131.774754 C543.615893,130.280826 544.114417,127.76332 544.114417,124.222158 C544.114417,119.574383 543.560501,115.728961 542.452653,112.685775 C541.344805,109.642589 539.93232,107.097417 538.215156,105.050183 C536.497991,103.002949 533.423759,99.8214846 528.992367,95.5056939 L516.695314,83.2223509 C507.167821,73.9268016 502.404146,63.635455 502.404146,52.3480023 C502.404146,40.1752592 505.20142,30.9075143 510.796053,24.5444895 C516.390686,18.1814647 524.560943,15 535.307069,15 C548.158107,15 557.408499,18.402784 563.058524,25.208454 C568.708549,32.014124 571.53352,42.6651144 571.53352,57.1617448 L542.452653,57.1617448 L542.286477,47.3682687 C542.286477,45.4870266 541.760257,43.9931214 540.707801,42.8865084 C539.655346,41.7798954 538.187469,41.2265972 536.304127,41.2265972 C534.088431,41.2265972 532.426684,41.8352252 531.318836,43.0524995 C530.210988,44.2697738 529.657072,45.9296684 529.657072,48.0322332 C529.657072,52.6800078 532.315868,57.4937022 537.633538,62.4734607 L554.251176,78.4086084 C558.128644,82.1710926 561.341356,85.739866 563.889406,89.1150357 C566.437457,92.4902054 568.486945,96.4739525 570.037932,101.066396 C571.58892,105.65884 572.364402,111.108828 572.364402,117.416522 C572.364402,131.470507 569.788693,142.121498 564.6372,149.369813 C559.485706,156.618128 550.9831,160.242231 539.129126,160.242231 C526.167303,160.242231 516.806127,157.033102 511.045318,150.614746 Z M633.01878,158.914302 L633.01878,43.716464 L616.068789,43.716464 L616.068789,16.327929 L678.551108,16.327929 L678.551108,43.716464 L661.601117,43.716464 L661.601117,158.914302 L633.01878,158.914302 Z M686.527574,158.914302 L686.527574,16.327929 L743.692249,16.327929 L743.692249,43.8824551 L715.608441,43.8824551 L715.608441,71.6029724 L742.529014,71.6029724 L742.529014,98.4935341 L715.608441,98.4935341 L715.608441,131.193785 L745.520189,131.193785 L745.520189,158.914302 L686.527574,158.914302 Z M754.992242,158.914302 L754.992242,16.327929 L783.57458,16.327929 L783.57458,134.679599 L812.987799,134.679599 L812.987799,158.914302 L754.992242,158.914302 Z M820.964265,158.914302 L820.964265,16.327929 L849.546602,16.327929 L849.546602,134.679599 L878.959821,134.679599 L878.959821,158.914302 L820.964265,158.914302 Z" id="PICTURES-TELL" fill="#FFFFFF"></path>
        </g>
    </g>
</svg>