<?xml version="1.0" encoding="UTF-8"?>
<svg width="748px" height="318px" viewBox="0 0 748 318" version="1.1" xmlns="http://www.w3.org/2000/svg" xmlns:xlink="http://www.w3.org/1999/xlink">
    <!-- Generator: Sketch 51.3 (57544) - http://www.bohemiancoding.com/sketch -->
    <title>Group 23</title>
    <desc>Created with Sketch.</desc>
    <defs></defs>
    <g id="Page-1" stroke="none" stroke-width="1" fill="none" fill-rule="evenodd">
        <g id="Desktop-Copy-2" transform="translate(-136.000000, -2361.000000)">
            <g id="Group-23" transform="translate(136.000000, 2361.000000)">
                <path d="M20.1556089,316.336923 L20.1556089,179.958824 L0,179.958824 L0,147.534636 L74.2991071,147.534636 L74.2991071,179.958824 L54.1434983,179.958824 L54.1434983,316.336923 L20.1556089,316.336923 Z M83.4821429,316.336923 L83.4821429,147.534636 L117.230243,147.534636 L117.230243,207.863277 L133.216185,207.863277 L133.216185,147.534636 L166.964286,147.534636 L166.964286,316.336923 L133.216185,316.336923 L133.216185,239.697934 L117.230243,239.697934 L117.230243,316.336923 L83.4821429,316.336923 Z M181.991071,316.336923 L181.991071,147.534636 L249.943184,147.534636 L249.943184,180.155334 L216.559733,180.155334 L216.559733,212.972543 L248.560438,212.972543 L248.560438,244.8072 L216.559733,244.8072 L216.559733,283.519715 L252.116071,283.519715 L252.116071,316.336923 L181.991071,316.336923 Z M316.690798,306.590343 C309.816541,298.983868 306.379464,286.721888 306.379464,269.804037 L306.379464,253.279706 L339.891298,253.279706 L339.891298,274.328556 C339.891298,282.721908 342.601301,286.918522 348.021388,286.918522 C351.061925,286.918522 353.177049,286.033298 354.366824,284.262826 C355.5566,282.492353 356.151478,279.508823 356.151478,275.312147 C356.151478,269.804009 355.490502,265.246749 354.168529,261.640231 C352.846557,258.033712 351.161067,255.017396 349.11201,252.591193 C347.062953,250.164989 343.394534,246.394594 338.106644,241.279895 L323.432824,226.722747 C312.063861,215.706472 306.379464,203.510064 306.379464,190.133159 C306.379464,175.707084 309.717395,164.72376 316.393356,157.182857 C323.069316,149.641954 332.818717,145.87156 345.64185,145.87156 C360.97673,145.87156 372.015035,149.904243 378.757094,157.96973 C385.499154,166.035217 388.870133,178.657843 388.870133,195.837987 L354.168529,195.837987 L353.970235,184.231612 C353.970235,182.002128 353.342307,180.231682 352.086433,178.92022 C350.830559,177.608759 349.078972,176.953038 346.831619,176.953038 C344.187674,176.953038 342.204745,177.674331 340.882773,179.116938 C339.5608,180.559546 338.899824,182.526708 338.899824,185.018485 C338.899824,190.526623 342.07251,196.231394 348.417978,202.13297 L368.247466,221.017919 C372.874369,225.476887 376.708032,229.706287 379.748568,233.706244 C382.789105,237.706201 385.234717,242.427391 387.085479,247.869955 C388.93624,253.31252 389.861607,259.77137 389.861607,267.2467 C389.861607,283.902259 386.788067,296.524885 380.640895,305.114957 C374.493724,313.705029 364.347737,318 350.202632,318 C334.735554,318 323.565055,314.196819 316.690798,306.590343 Z M415.026145,316.336923 L415.026145,179.958824 L394.870536,179.958824 L394.870536,147.534636 L469.169643,147.534636 L469.169643,179.958824 L449.014034,179.958824 L449.014034,316.336923 L415.026145,316.336923 Z M487.315195,305.508393 C480.227054,297.180614 476.683036,285.475997 476.683036,270.394191 L476.683036,189.93644 C476.683036,175.379219 480.227054,164.395896 487.315195,156.986139 C494.403337,149.576382 504.772871,145.87156 518.424107,145.87156 C532.075343,145.87156 542.444877,149.576382 549.533019,156.986139 C556.621161,164.395896 560.165179,175.379219 560.165179,189.93644 L560.165179,270.394191 C560.165179,285.607143 556.621161,297.344546 549.533019,305.606752 C542.444877,313.868959 532.075343,318 518.424107,318 C504.772871,318 494.403337,313.836173 487.315195,305.508393 Z M524.370922,282.47442 C525.415312,279.856326 525.9375,276.191048 525.9375,271.478478 L525.9375,189.008914 C525.9375,185.343581 525.447949,182.365543 524.468833,180.074711 C523.489716,177.783878 521.498876,176.638479 518.496252,176.638479 C512.882651,176.638479 510.075893,180.892819 510.075893,189.401626 L510.075893,271.674834 C510.075893,276.518309 510.663354,280.183587 511.838294,282.670776 C513.013233,285.157966 515.167257,286.401542 518.30043,286.401542 C521.303054,286.401542 523.326531,285.092515 524.370922,282.47442 Z M574.357143,147.534636 L626.306888,147.534636 C634.571661,147.534636 640.966926,149.401465 645.492873,153.135178 C650.01882,156.868891 653.06887,162.109111 654.643112,168.855996 C656.217355,175.602881 657.004464,184.216493 657.004464,194.697091 C657.004464,204.260637 655.758208,211.727951 653.265657,217.099258 C650.773106,222.470564 646.444004,226.204221 640.278221,228.300341 C645.394509,229.3484 649.100483,231.903008 651.396253,235.96424 C653.692024,240.025471 654.839892,245.527703 654.839892,252.471099 L654.446333,316.336923 L621.387404,316.336923 L621.387404,250.309486 C621.387404,245.593217 620.46911,242.58009 618.632494,241.270016 C616.795877,239.959941 613.450662,239.304913 608.596747,239.304913 L608.596747,316.336923 L574.357143,316.336923 L574.357143,147.534636 Z M616.586097,210.731552 C621.269794,210.731552 623.611607,205.56456 623.611607,195.230421 C623.611607,190.725797 623.416456,187.347379 623.026148,185.095067 C622.63584,182.842755 621.920286,181.286033 620.879464,180.424855 C619.838643,179.563677 618.342484,179.133094 616.390944,179.133094 L608.584821,179.133094 L608.584821,210.731552 L616.586097,210.731552 Z M689.03212,316.336923 L689.03212,260.724528 L662.013393,147.534636 L695.540281,147.534636 L705.006696,204.719113 L714.473112,147.534636 L748,151.692328 L720.981273,260.724528 L720.981273,316.336923 L689.03212,316.336923 Z" id="THE-STORY" fill="#DCBC3F"></path>
                <rect id="Rectangle-8" fill="#DCBC3F" x="0" y="0" width="748" height="148.788991"></rect>
                <path d="M14.5525292,12.7900183 L46.0501458,12.7900183 C55.5781069,12.7900183 62.3770839,15.8941341 66.4472808,22.1024587 C70.5174778,28.3107833 72.5525457,37.3897384 72.5525457,49.3395963 C72.5525457,61.2894542 70.7487355,70.2983917 67.1410609,76.3666789 C63.5333863,82.4349661 57.0581701,85.4690642 47.7152181,85.4690642 L38.0022966,85.4690642 L38.0022966,133.081541 L14.5525292,133.081541 L14.5525292,12.7900183 Z M39.3898568,63.7633761 C42.2574956,63.7633761 44.3619409,63.2265742 45.7032558,62.1529541 C47.0445707,61.0793341 47.92335,59.5389458 48.3396201,57.5317431 C48.7558903,55.5245404 48.9640222,52.6538168 48.9640222,48.9194862 C48.9640222,43.8781399 48.4090037,40.2372222 47.29895,37.9966239 C46.1888963,35.7560255 43.9688222,34.6357431 40.638661,34.6357431 L38.0022966,34.6357431 L38.0022966,63.7633761 L39.3898568,63.7633761 Z M78.9353226,133.081541 L78.9353226,12.7900183 L101.968822,12.7900183 L101.968822,133.081541 L78.9353226,133.081541 Z M118.41141,125.93967 C113.184908,120.431532 110.571695,112.869626 110.571695,103.253725 L110.571695,47.7991927 C110.571695,35.8493347 112.930524,26.8403973 117.648252,20.7721101 C122.365981,14.7038229 129.766228,11.6697248 139.849216,11.6697248 C148.637141,11.6697248 155.713627,14.0970032 161.078887,18.951633 C166.444146,23.8062628 169.126736,30.8080276 169.126736,39.9571376 L169.126736,60.6825688 L145.399456,60.6825688 L145.399456,42.8979083 C145.399456,39.4436525 144.983193,37.0630524 144.150652,35.7560367 C143.318112,34.449021 141.884314,33.7955229 139.849216,33.7955229 C137.721613,33.7955229 136.264689,34.5423779 135.478401,36.0361101 C134.692113,37.5298423 134.298975,39.7237286 134.298975,42.6178349 L134.298975,102.973651 C134.298975,106.147832 134.76149,108.458415 135.686535,109.905468 C136.61158,111.352521 137.999126,112.076037 139.849216,112.076037 C143.549395,112.076037 145.399456,109.041939 145.399456,102.973651 L145.399456,81.2679633 L169.404248,81.2679633 L169.404248,103.953908 C169.404248,124.119293 159.367663,134.201835 139.294192,134.201835 C130.598771,134.201835 123.637913,131.447807 118.41141,125.93967 Z M187.581287,133.081541 L187.581287,35.8960734 L173.428173,35.8960734 L173.428173,12.7900183 L225.600436,12.7900183 L225.600436,35.8960734 L211.447322,35.8960734 L211.447322,133.081541 L187.581287,133.081541 Z M238.0191,125.799633 C233.255119,120.198137 230.873165,111.889376 230.873165,100.873101 L230.873165,12.7900183 L254.04542,12.7900183 L254.04542,99.892844 C254.04542,103.720533 254.415433,106.707953 255.155469,108.855193 C255.895504,111.002433 257.468057,112.076037 259.873173,112.076037 C262.27829,112.076037 263.850842,111.025772 264.590878,108.925211 C265.330914,106.82465 265.700926,103.813891 265.700926,99.892844 L265.700926,12.7900183 L288.873181,12.7900183 L288.873181,100.873101 C288.873181,111.889376 286.491227,120.198137 281.727246,125.799633 C276.963266,131.401129 269.678648,134.201835 259.873173,134.201835 C250.067699,134.201835 242.783081,131.401129 238.0191,125.799633 Z M298.031079,12.7900183 L334.662668,12.7900183 C340.49045,12.7900183 344.999976,14.1203537 348.19138,16.7810642 C351.382785,19.4417748 353.533481,23.1760494 354.643535,27.984 C355.753589,32.7919506 356.308607,38.9301645 356.308607,46.3988257 C356.308607,53.213979 355.429828,58.5353203 353.672243,62.3630092 C351.914658,66.190698 348.862056,68.8513687 344.514346,70.3451009 C348.12202,71.091967 350.735232,72.9124259 352.354061,75.8065321 C353.972889,78.7006383 354.782291,82.6216266 354.782291,87.5696147 L354.504779,133.081541 L331.193768,133.081541 L331.193768,86.029211 C331.193768,82.6683135 330.546246,80.5211056 329.251183,79.5875229 C327.956121,78.6539403 325.597292,78.187156 322.174626,78.187156 L322.174626,133.081541 L298.031079,133.081541 L298.031079,12.7900183 Z M328.002379,57.3216881 C331.33254,57.3216881 332.997596,53.6807704 332.997596,46.3988257 C332.997596,43.2246447 332.858841,40.8440446 332.581328,39.2569541 C332.303814,37.6698636 331.795047,36.5729205 331.055012,35.9660917 C330.314976,35.359263 329.25119,35.0558532 327.863623,35.0558532 L322.313382,35.0558532 L322.313382,57.3216881 L328.002379,57.3216881 Z M364.217701,133.081541 L364.217701,12.7900183 L411.949772,12.7900183 L411.949772,36.0361101 L388.500004,36.0361101 L388.500004,59.4222385 L410.978479,59.4222385 L410.978479,82.1081835 L388.500004,82.1081835 L388.500004,109.695413 L413.476088,109.695413 L413.476088,133.081541 L364.217701,133.081541 Z M426.241642,126.079706 C421.431409,120.664927 419.026329,111.93606 419.026329,99.892844 L419.026329,88.1297615 L442.476096,88.1297615 L442.476096,103.113688 C442.476096,109.088617 444.372409,112.076037 448.165093,112.076037 C450.292696,112.076037 451.772745,111.445878 452.605286,110.185541 C453.437826,108.925205 453.85409,106.801336 453.85409,103.813872 C453.85409,99.8928244 453.391574,96.6486734 452.46653,94.0813211 C451.541485,91.5139688 450.36207,89.3667609 448.928251,87.639633 C447.494432,85.9125051 444.927471,83.2284953 441.227292,79.5875229 L430.959346,69.2248073 C423.003961,61.3827131 419.026329,52.7005247 419.026329,43.1779817 C419.026329,32.9085725 421.362032,25.0899351 426.033508,19.7218349 C430.704984,14.3537346 437.527086,11.6697248 446.500021,11.6697248 C457.23054,11.6697248 464.954548,14.5404484 469.672276,20.2819817 C474.390004,26.0235149 476.748833,35.0091132 476.748833,47.2390459 L452.46653,47.2390459 L452.327774,38.9768807 C452.327774,37.3897902 451.888384,36.1294726 451.009591,35.1958899 C450.130799,34.2623073 448.905133,33.7955229 447.332557,33.7955229 C445.482467,33.7955229 444.094921,34.3089857 443.169876,35.3359266 C442.244831,36.3628675 441.782316,37.7632205 441.782316,39.5370275 C441.782316,43.4580747 444.00239,47.5190983 448.442605,51.7202202 L462.318207,65.1637431 C465.555864,68.3379241 468.238453,71.348683 470.366056,74.1961101 C472.493659,77.0435372 474.204966,80.4043843 475.500029,84.2787523 C476.795092,88.1531203 477.442613,92.7509459 477.442613,98.072367 C477.442613,109.928867 475.291916,118.914465 470.990458,125.029431 C466.689,131.144398 459.589388,134.201835 449.691409,134.201835 C438.868385,134.201835 431.051874,131.494486 426.241642,126.079706 Z M528.088561,133.081541 L528.088561,35.8960734 L513.935447,35.8960734 L513.935447,12.7900183 L566.10771,12.7900183 L566.10771,35.8960734 L551.954596,35.8960734 L551.954596,133.081541 L528.088561,133.081541 Z M572.767999,133.081541 L572.767999,12.7900183 L620.50007,12.7900183 L620.50007,36.0361101 L597.050303,36.0361101 L597.050303,59.4222385 L619.528778,59.4222385 L619.528778,82.1081835 L597.050303,82.1081835 L597.050303,109.695413 L622.026386,109.695413 L622.026386,133.081541 L572.767999,133.081541 Z M629.93548,133.081541 L629.93548,12.7900183 L653.801515,12.7900183 L653.801515,112.636183 L678.361331,112.636183 L678.361331,133.081541 L629.93548,133.081541 Z M685.02162,133.081541 L685.02162,12.7900183 L708.887655,12.7900183 L708.887655,112.636183 L733.447471,112.636183 L733.447471,133.081541 L685.02162,133.081541 Z" id="PICTURES-TELL" fill="#FFFFFF"></path>
            </g>
        </g>
    </g>
</svg>