<?xml version="1.0" encoding="UTF-8"?>
<svg width="896px" height="462px" viewBox="0 0 896 462" version="1.1" xmlns="http://www.w3.org/2000/svg" xmlns:xlink="http://www.w3.org/1999/xlink">
    <!-- Generator: Sketch 50.2 (55047) - http://www.bohemiancoding.com/sketch -->
    <title>Group 13</title>
    <desc>Created with Sketch.</desc>
    <defs></defs>
    <g id="Page-1" stroke="none" stroke-width="1" fill="none" fill-rule="evenodd">
        <g id="Group-13">
            <g id="Group-12">
                <rect id="Rectangle-8" fill="#DCBC3F" x="0" y="0" width="896" height="213"></rect>
                <path d="M33.2521212,27.8125595 L72.7363636,27.8125595 C84.6802617,27.8125595 93.2032068,31.6534239 98.3054545,39.3352679 C103.407702,47.0171118 105.958788,58.2509181 105.958788,73.0370238 C105.958788,87.8231295 103.697598,98.9702998 99.1751515,106.478869 C94.6527047,113.987438 86.5356141,117.741667 74.8236364,117.741667 L62.6478788,117.741667 L62.6478788,176.654762 L33.2521212,176.654762 L33.2521212,27.8125595 Z M64.3872727,90.8842262 C67.9820382,90.8842262 70.6200926,90.2200166 72.3015152,88.8915774 C73.9829377,87.5631382 75.0845428,85.6571454 75.6063636,83.1735417 C76.1281844,80.689938 76.3890909,77.1378604 76.3890909,72.5172024 C76.3890909,66.279314 75.6933403,61.7742401 74.3018182,59.0018452 C72.9102961,56.2294504 70.1272936,54.8432738 65.9527273,54.8432738 L62.6478788,54.8432738 L62.6478788,90.8842262 L64.3872727,90.8842262 Z M114.655758,41.3279167 L114.655758,20.1885119 L145.095152,20.1885119 L145.095152,41.3279167 L114.655758,41.3279167 Z M114.655758,176.654762 L114.655758,49.8183333 L145.095152,49.8183333 L145.095152,176.654762 L114.655758,176.654762 Z M165.272121,167.47125 C159.126232,160.424747 156.053333,149.62412 156.053333,135.069048 L156.053333,95.9091667 C156.053333,84.9351039 157.241907,76.0115919 159.619091,69.1383631 C161.996275,62.2651343 165.996841,57.0958507 171.620909,53.6303571 C177.244978,50.1648636 185.043182,48.4321429 195.015758,48.4321429 C205.916014,48.4321429 214.786834,51.2622534 221.628485,56.9225595 C228.470135,62.5828656 231.890909,70.4956238 231.890909,80.6610714 L231.890909,100.067738 L200.929697,100.067738 L200.929697,82.2205357 C200.929697,78.8705586 200.465863,76.3003562 199.538182,74.5098512 C198.6105,72.7193462 196.813145,71.8241071 194.146061,71.8241071 C189.159773,71.8241071 186.666667,75.347306 186.666667,82.3938095 L186.666667,143.906012 C186.666667,146.793923 187.275448,149.248611 188.49303,151.270149 C189.710612,153.291687 191.536958,154.30244 193.972121,154.30244 C196.407285,154.30244 198.23363,153.320565 199.451212,151.356786 C200.668794,149.393006 201.219597,146.851682 201.103636,143.732738 L200.929697,122.42006 L231.890909,122.42006 L231.890909,144.599107 C231.890909,154.995588 228.499125,163.168254 221.715455,169.117351 C214.931784,175.066448 206.147933,178.040952 195.363636,178.040952 C181.448415,178.040952 171.418011,174.517753 165.272121,167.47125 Z M252.241818,173.016012 C249.226854,169.666035 247.719394,164.2946 247.719394,156.901548 L247.719394,77.7154167 L239.196364,77.7154167 L239.196364,54.67 L247.719394,54.67 L247.719394,27.8125595 L277.289091,27.8125595 L277.289091,54.67 L285.986061,54.67 L285.986061,77.7154167 L277.289091,77.7154167 L277.289091,148.930952 C277.289091,151.125765 277.463029,152.742971 277.810909,153.782619 C278.15879,154.822267 279.086457,155.342083 280.593939,155.342083 C281.753541,155.342083 282.855146,155.284326 283.898788,155.16881 C284.942429,155.053293 285.63818,154.995536 285.986061,154.995536 L285.986061,175.788393 C284.246658,176.250459 281.724562,176.741396 278.419697,177.26122 C275.114832,177.781044 271.896985,178.040952 268.766061,178.040952 C260.764808,178.040952 255.256783,176.365989 252.241818,173.016012 Z M300.51,169.550536 C296.973215,163.89023 295.204848,155.457655 295.204848,144.25256 L295.204848,49.8183333 L325.818182,49.8183333 L325.818182,144.685744 C325.818182,148.208996 326.368984,150.692562 327.470606,152.136518 C328.572228,153.580473 330.282615,154.30244 332.601818,154.30244 C335.732743,154.30244 337.704036,153.0029 338.515758,150.40378 C339.327479,147.80466 339.733333,144.07931 339.733333,139.227619 L339.733333,138.187976 L339.907273,49.8183333 L370.172727,49.8183333 L370.172727,176.654762 L339.733333,176.654762 L339.733333,163.139405 C337.64605,168.453161 335.210923,172.265147 332.427879,174.575476 C329.644835,176.885805 325.52831,178.040952 320.078182,178.040952 C310.569447,178.040952 304.046785,175.210842 300.51,169.550536 Z M382.348485,49.8183333 L412.787879,49.8183333 L412.787879,63.8535119 C414.295361,58.8863045 416.933416,55.0454402 420.702121,52.3308036 C424.470827,49.616167 429.138154,48.258869 434.704242,48.258869 L434.704242,73.5568452 C430.413716,73.5568452 425.68841,74.1632975 420.528182,75.3762202 C415.367954,76.589143 412.787879,78.0041983 412.787879,79.6214286 L412.787879,176.654762 L382.348485,176.654762 L382.348485,49.8183333 Z M449.66303,167.297976 C443.980982,160.135956 441.14,149.450845 441.14,135.242321 L441.14,84.2998214 C441.14,72.6326599 444.502795,63.7380266 451.228485,57.6156548 C457.954175,51.4932829 467.346808,48.4321429 479.406667,48.4321429 C503.874264,48.4321429 516.107879,60.3879162 516.107879,84.2998214 L516.107879,93.4833333 C516.107879,102.724649 515.99192,110.233106 515.76,116.008929 L471.579394,116.008929 L471.579394,140.61381 C471.579394,145.003435 472.043228,148.439998 472.970909,150.923601 C473.89859,153.407205 475.869884,154.648988 478.884848,154.648988 C481.204052,154.648988 482.85646,153.9559 483.842121,152.569702 C484.827783,151.183505 485.407575,149.595178 485.581515,147.804673 C485.755455,146.014168 485.842424,143.386208 485.842424,139.920714 L485.842424,127.618274 L516.107879,127.618274 L516.107879,134.895774 C516.107879,149.681879 513.237907,160.569142 507.497879,167.557887 C501.75785,174.546632 491.872393,178.040952 477.841212,178.040952 C464.737712,178.040952 455.345079,174.459996 449.66303,167.297976 Z M485.842424,100.934107 L485.842424,84.646369 C485.842424,75.5205695 483.581235,70.9577381 479.058788,70.9577381 C473.95654,70.9577381 471.405455,75.5205695 471.405455,84.646369 L471.405455,100.934107 L485.842424,100.934107 Z M524.28303,139.920714 L524.45697,129.870833 L554.896364,129.870833 L555.070303,144.772381 C555.070303,147.775809 555.650095,150.057224 556.809697,151.616696 C557.969299,153.176169 559.882613,153.955893 562.549697,153.955893 C566.608303,153.955893 568.637576,150.663723 568.637576,144.079286 C568.637576,139.227595 567.680919,135.415609 565.767576,132.643214 C563.854233,129.870819 560.810324,126.925194 556.635758,123.80625 L540.459394,111.330536 C534.893306,107.056427 530.892739,102.637989 528.457576,98.0750893 C526.022412,93.5121895 524.804848,87.072244 524.804848,78.7550595 C524.804848,72.2861383 526.515235,66.7703105 529.936061,62.2074107 C533.356886,57.6445109 537.908254,54.2079481 543.590303,51.897619 C549.272352,49.58729 555.592086,48.4321429 562.549697,48.4321429 C587.249214,48.4321429 599.598788,60.6767029 599.598788,85.1661905 L599.598788,87.5920238 L568.115758,87.5920238 L568.115758,82.7403571 C568.115758,79.7369294 567.622934,77.166727 566.637273,75.0296726 C565.651611,72.8926183 563.999204,71.8241071 561.68,71.8241071 C559.592717,71.8241071 557.998288,72.4305594 556.896667,73.6434821 C555.795045,74.8564049 555.244242,76.5024896 555.244242,78.5817857 C555.244242,83.2024437 557.041598,86.7834 560.636364,89.3247619 L579.421818,103.013393 C586.147508,107.9806 591.307659,113.380913 594.902424,119.214494 C598.49719,125.048075 600.294545,132.412138 600.294545,141.306905 C600.294545,153.089583 596.931751,162.157488 590.206061,168.510893 C583.48037,174.864298 574.087737,178.040952 562.027879,178.040952 C536.864521,178.040952 524.28303,165.334333 524.28303,139.920714 Z M660.129697,173.016012 C657.114732,169.666035 655.607273,164.2946 655.607273,156.901548 L655.607273,77.7154167 L647.084242,77.7154167 L647.084242,54.67 L655.607273,54.67 L655.607273,27.8125595 L685.17697,27.8125595 L685.17697,54.67 L693.873939,54.67 L693.873939,77.7154167 L685.17697,77.7154167 L685.17697,148.930952 C685.17697,151.125765 685.350907,152.742971 685.698788,153.782619 C686.046668,154.822267 686.974336,155.342083 688.481818,155.342083 C689.64142,155.342083 690.743025,155.284326 691.786667,155.16881 C692.830308,155.053293 693.526059,154.995536 693.873939,154.995536 L693.873939,175.788393 C692.134537,176.250459 689.612441,176.741396 686.307576,177.26122 C683.002711,177.781044 679.784864,178.040952 676.653939,178.040952 C668.652687,178.040952 663.144662,176.365989 660.129697,173.016012 Z M710.92,167.297976 C705.237951,160.135956 702.39697,149.450845 702.39697,135.242321 L702.39697,84.2998214 C702.39697,72.6326599 705.759764,63.7380266 712.485455,57.6156548 C719.211145,51.4932829 728.603778,48.4321429 740.663636,48.4321429 C765.131233,48.4321429 777.364848,60.3879162 777.364848,84.2998214 L777.364848,93.4833333 C777.364848,102.724649 777.24889,110.233106 777.01697,116.008929 L732.836364,116.008929 L732.836364,140.61381 C732.836364,145.003435 733.300197,148.439998 734.227879,150.923601 C735.15556,153.407205 737.126854,154.648988 740.141818,154.648988 C742.461022,154.648988 744.113429,153.9559 745.099091,152.569702 C746.084752,151.183505 746.664545,149.595178 746.838485,147.804673 C747.012425,146.014168 747.099394,143.386208 747.099394,139.920714 L747.099394,127.618274 L777.364848,127.618274 L777.364848,134.895774 C777.364848,149.681879 774.494877,160.569142 768.754848,167.557887 C763.01482,174.546632 753.129363,178.040952 739.098182,178.040952 C725.994682,178.040952 716.602049,174.459996 710.92,167.297976 Z M747.099394,100.934107 L747.099394,84.646369 C747.099394,75.5205695 744.838204,70.9577381 740.315758,70.9577381 C735.21351,70.9577381 732.662424,75.5205695 732.662424,84.646369 L732.662424,100.934107 L747.099394,100.934107 Z M788.32303,176.654762 L788.32303,26.9461905 L819.284242,26.9461905 L819.284242,176.654762 L788.32303,176.654762 Z M831.46,176.654762 L831.46,26.9461905 L862.421212,26.9461905 L862.421212,176.654762 L831.46,176.654762 Z" id="Pictures-tell" fill="#FFFFFF"></path>
            </g>
            <path d="M24.0743671,460.107429 L24.0743671,295.926857 L0,295.926857 L0,256.892571 L88.7447257,256.892571 L88.7447257,295.926857 L64.6703586,295.926857 L64.6703586,460.107429 L24.0743671,460.107429 Z M100.07384,460.107429 L100.07384,256.892571 L140.433808,256.892571 L140.433808,329.52 L159.551688,329.52 L159.551688,256.892571 L199.911656,256.892571 L199.911656,460.107429 L159.551688,460.107429 L159.551688,367.844571 L140.433808,367.844571 L140.433808,460.107429 L100.07384,460.107429 Z M217.84942,460.107429 L217.84942,256.892571 L299.041403,256.892571 L299.041403,296.163429 L259.153481,296.163429 L259.153481,335.670857 L297.389241,335.670857 L297.389241,373.995429 L259.153481,373.995429 L259.153481,420.6 L301.637658,420.6 L301.637658,460.107429 L217.84942,460.107429 Z M378.581224,448.278857 C370.399045,439.131383 366.308017,424.385245 366.308017,404.04 L366.308017,384.168 L406.195939,384.168 L406.195939,409.481143 C406.195939,419.574908 409.421557,424.621714 415.87289,424.621714 C419.491931,424.621714 422.009487,423.557154 423.425633,421.428 C424.841779,419.298846 425.549842,415.710882 425.549842,410.664 C425.549842,404.039967 424.763106,398.55945 423.18961,394.222286 C421.616114,389.885121 419.609937,386.257729 417.171018,383.34 C414.732099,380.422271 410.365714,375.888031 404.07173,369.737143 L386.606013,352.230857 C373.073948,338.982791 366.308017,324.315509 366.308017,308.228571 C366.308017,290.879913 370.281034,277.671474 378.227189,268.602857 C386.173343,259.53424 397.777701,255 413.040612,255 C431.293164,255 444.431658,259.849666 452.456487,269.549143 C460.481316,279.24862 464.493671,294.428468 464.493671,315.089143 L423.18961,315.089143 L422.953586,301.131429 C422.953586,298.450272 422.206187,296.321151 420.711366,294.744 C419.216545,293.166849 417.131694,292.378286 414.456751,292.378286 C411.309759,292.378286 408.949551,293.245706 407.376055,294.980571 C405.802559,296.715437 405.015823,299.081128 405.015823,302.077714 C405.015823,308.701747 408.792156,315.56225 416.344937,322.659429 L439.947257,345.370286 C445.454493,350.732598 450.017563,355.818833 453.636603,360.629143 C457.255644,365.439453 460.166568,371.11711 462.369462,377.662286 C464.572356,384.207461 465.673787,391.974812 465.673787,400.964571 C465.673787,420.994386 462.015464,436.174234 454.698708,446.504571 C447.381952,456.834909 435.305552,462 418.469146,462 C400.059243,462 386.763402,457.426331 378.581224,448.278857 Z M496.592827,460.107429 L496.592827,295.926857 L472.51846,295.926857 L472.51846,256.892571 L561.263186,256.892571 L561.263186,295.926857 L537.188819,295.926857 L537.188819,460.107429 L496.592827,460.107429 Z M583.68539,446.977714 C575.188512,436.962807 570.940137,422.886948 570.940137,404.749714 L570.940137,307.992 C570.940137,290.485627 575.188512,277.277187 583.68539,268.366286 C592.182268,259.455384 604.612699,255 620.977057,255 C637.341414,255 649.771846,259.455384 658.268724,268.366286 C666.765602,277.277187 671.013977,290.485627 671.013977,307.992 L671.013977,404.749714 C671.013977,423.044663 666.765602,437.15995 658.268724,447.096 C649.771846,457.03205 637.341414,462 620.977057,462 C604.612699,462 592.182268,456.992622 583.68539,446.977714 Z M628.293776,419.890286 C629.552573,416.735984 630.181962,412.320028 630.181962,406.642286 L630.181962,307.282286 C630.181962,302.866264 629.59191,299.2783 628.411788,296.518286 C627.231666,293.758272 624.832121,292.378286 621.21308,292.378286 C614.447048,292.378286 611.064082,297.503949 611.064082,307.755429 L611.064082,406.878857 C611.064082,412.714315 611.772145,417.130271 613.188291,420.126857 C614.604437,423.123444 617.200667,424.621714 620.977057,424.621714 C624.596098,424.621714 627.03498,423.044587 628.293776,419.890286 Z M687.299578,256.892571 L749.609705,256.892571 C759.522729,256.892571 767.193406,259.139978 772.621967,263.634857 C778.050528,268.129737 781.708851,274.438245 783.597046,282.560571 C785.485242,290.682898 786.429325,301.052508 786.429325,313.669714 C786.429325,325.182915 784.934526,334.172539 781.944884,340.638857 C778.955242,347.105175 773.762783,351.599987 766.367352,354.123429 C772.503986,355.385149 776.949046,358.460547 779.702664,363.349714 C782.456281,368.238882 783.83307,374.862815 783.83307,383.221714 L783.361023,460.107429 L743.709124,460.107429 L743.709124,380.619429 C743.709124,374.941686 742.607694,371.314294 740.4048,369.737143 C738.201905,368.159992 734.189551,367.371429 728.367616,367.371429 L728.367616,460.107429 L687.299578,460.107429 L687.299578,256.892571 Z M738.280591,332.122286 C743.945176,332.122286 746.777426,325.97149 746.777426,313.669714 C746.777426,308.307402 746.541405,304.285728 746.069357,301.604571 C745.597308,298.923415 744.731898,297.070291 743.473101,296.045143 C742.214305,295.019995 740.404811,294.507429 738.044568,294.507429 L728.603639,294.507429 L728.603639,332.122286 L738.280591,332.122286 Z M824.429061,460.107429 L824.429061,393.157714 L792.093882,256.892571 L832.217827,256.892571 L843.546941,325.734857 L854.876055,256.892571 L895,256.892571 L862.664821,393.157714 L862.664821,460.107429 L824.429061,460.107429 Z" id="THE-STORY" fill="#DCBC3F"></path>
        </g>
    </g>
</svg>