<?xml version="1.0" encoding="UTF-8"?>
<svg width="761px" height="255px" viewBox="0 0 761 255" version="1.1" xmlns="http://www.w3.org/2000/svg" xmlns:xlink="http://www.w3.org/1999/xlink">
    <!-- Generator: Sketch 50.2 (55047) - http://www.bohemiancoding.com/sketch -->
    <title>Group 4</title>
    <desc>Created with Sketch.</desc>
    <defs></defs>
    <g id="Page-1" stroke="none" stroke-width="1" fill="none" fill-rule="evenodd">
        <g id="Group-4" fill="#DCBC3F">
            <path d="M27.8936672,173.673108 L0,173.673108 L0,154.617039 L77.3289784,154.617039 L77.3289784,173.673108 L49.4353112,173.673108 L49.4353112,252.382961 L27.8936672,252.382961 L27.8936672,173.673108 Z M88.2378879,154.617039 L109.779532,154.617039 L109.779532,191.072128 L151.620033,191.072128 L151.620033,154.617039 L173.161677,154.617039 L173.161677,252.382961 L151.620033,252.382961 L151.620033,210.128198 L109.779532,210.128198 L109.779532,252.382961 L88.2378879,252.382961 L88.2378879,154.617039 Z M193.874796,154.617039 L260.294865,154.617039 L260.294865,174.501633 L215.41644,174.501633 L215.41644,192.729178 L257.809291,192.729178 L257.809291,212.613772 L215.41644,212.613772 L215.41644,232.498367 L262.780439,232.498367 L262.780439,252.382961 L193.874796,252.382961 L193.874796,154.617039 Z M369.245872,178.506169 C367.496755,176.296759 365.126278,174.66274 362.134368,173.604065 C359.142458,172.545389 356.311693,172.016059 353.641989,172.016059 C352.07699,172.016059 350.465985,172.200174 348.808928,172.568409 C347.15187,172.936644 345.586894,173.512002 344.113954,174.294502 C342.641014,175.077001 341.444268,176.112647 340.52368,177.40147 C339.603092,178.690293 339.142805,180.255268 339.142805,182.096443 C339.142805,185.042324 340.247494,187.29773 342.456904,188.862729 C344.666315,190.427728 347.451051,191.76256 350.811196,192.867265 C354.171341,193.971971 357.784593,195.076659 361.651062,196.181365 C365.51753,197.28607 369.130782,198.851045 372.490927,200.876338 C375.851072,202.901631 378.635808,205.617324 380.845219,209.023498 C383.054629,212.429673 384.159318,216.986514 384.159318,222.694157 C384.159318,228.125624 383.146686,232.86658 381.121394,236.917166 C379.096101,240.967751 376.357393,244.327846 372.90519,246.99755 C369.452986,249.667255 365.448489,251.646488 360.89158,252.935311 C356.334671,254.224134 351.524673,254.868536 346.461441,254.868536 C340.109386,254.868536 334.217713,253.901933 328.786246,251.968699 C323.354778,250.035465 318.291622,246.905514 313.596625,242.578752 L328.924333,225.732081 C331.133744,228.677962 333.91848,230.956382 337.278625,232.567411 C340.63877,234.178439 344.113936,234.983941 347.704228,234.983941 C349.453344,234.983941 351.225449,234.776812 353.020595,234.362548 C354.815741,233.948283 356.426745,233.326896 357.853656,232.498367 C359.280567,231.669838 360.431285,230.611178 361.305843,229.322355 C362.180401,228.033533 362.617674,226.514586 362.617674,224.765469 C362.617674,221.819588 361.489971,219.495139 359.234531,217.792052 C356.979091,216.088965 354.148326,214.639061 350.742152,213.442297 C347.335978,212.245533 343.653682,211.048787 339.695155,209.852023 C335.736628,208.655259 332.054333,207.044255 328.648158,205.018962 C325.241984,202.993669 322.411219,200.324005 320.155779,197.009889 C317.90034,193.695774 316.772637,189.323048 316.772637,183.89158 C316.772637,178.644231 317.808282,174.041361 319.879604,170.082834 C321.950927,166.124307 324.712648,162.810241 328.164852,160.140537 C331.617056,157.470833 335.598538,155.468585 340.109418,154.133733 C344.620297,152.79888 349.269195,152.131464 354.056251,152.131464 C359.579777,152.131464 364.919106,152.913952 370.074397,154.478951 C375.229688,156.04395 379.878586,158.667586 384.02123,162.349936 L369.245872,178.506169 Z M419.095445,173.673108 L391.201778,173.673108 L391.201778,154.617039 L468.530757,154.617039 L468.530757,173.673108 L440.637089,173.673108 L440.637089,252.382961 L419.095445,252.382961 L419.095445,173.673108 Z M474.192343,203.5 C474.192343,195.675005 475.50416,188.586586 478.127835,182.234531 C480.75151,175.882476 484.410791,170.474104 489.105788,166.009254 C493.800786,161.544404 499.370258,158.115266 505.814371,155.721738 C512.258485,153.32821 519.300875,152.131464 526.941753,152.131464 C534.582631,152.131464 541.625021,153.32821 548.069134,155.721738 C554.513248,158.115266 560.08272,161.544404 564.777717,166.009254 C569.472714,170.474104 573.131996,175.882476 575.75567,182.234531 C578.379345,188.586586 579.691163,195.675005 579.691163,203.5 C579.691163,211.324995 578.379345,218.413414 575.75567,224.765469 C573.131996,231.117524 569.472714,236.525896 564.777717,240.990746 C560.08272,245.455596 554.513248,248.884734 548.069134,251.278262 C541.625021,253.67179 534.582631,254.868536 526.941753,254.868536 C519.300875,254.868536 512.258485,253.67179 505.814371,251.278262 C499.370258,248.884734 493.800786,245.455596 489.105788,240.990746 C484.410791,236.525896 480.75151,231.117524 478.127835,224.765469 C475.50416,218.413414 474.192343,211.324995 474.192343,203.5 Z M496.562511,203.5 C496.562511,208.102938 497.275956,212.314564 498.702867,216.135003 C500.129778,219.955442 502.178055,223.269508 504.847759,226.0773 C507.517463,228.885092 510.716457,231.071455 514.444838,232.636454 C518.173218,234.201453 522.338814,234.983941 526.941753,234.983941 C531.544691,234.983941 535.710288,234.201453 539.438668,232.636454 C543.167048,231.071455 546.366042,228.885092 549.035747,226.0773 C551.705451,223.269508 553.753728,219.955442 555.180639,216.135003 C556.60755,212.314564 557.320994,208.102938 557.320994,203.5 C557.320994,198.98912 556.60755,194.800509 555.180639,190.934041 C553.753728,187.067573 551.705451,183.730492 549.035747,180.9227 C546.366042,178.114908 543.167048,175.928545 539.438668,174.363546 C535.710288,172.798547 531.544691,172.016059 526.941753,172.016059 C522.338814,172.016059 518.173218,172.798547 514.444838,174.363546 C510.716457,175.928545 507.517463,178.114908 504.847759,180.9227 C502.178055,183.730492 500.129778,187.067573 498.702867,190.934041 C497.275956,194.800509 496.562511,198.98912 496.562511,203.5 Z M594.328434,154.617039 L632.164398,154.617039 C637.135572,154.617039 641.853513,155.10034 646.318363,156.066957 C650.783214,157.033574 654.695652,158.644578 658.055797,160.900018 C661.415943,163.155458 664.085607,166.193352 666.06487,170.013791 C668.044134,173.834229 669.033751,178.598199 669.033751,184.305843 C669.033751,191.21025 667.238632,197.078909 663.64834,201.911994 C660.058048,206.74508 654.810777,209.805988 647.906369,211.09481 L672.762112,252.382961 L646.939757,252.382961 L626.502813,213.30421 L615.870078,213.30421 L615.870078,252.382961 L594.328434,252.382961 L594.328434,154.617039 Z M615.870078,195.076665 L628.574124,195.076665 C630.507359,195.076665 632.555635,195.007622 634.719017,194.869534 C636.882398,194.731446 638.838617,194.317187 640.587734,193.626747 C642.33685,192.936306 643.786754,191.854631 644.937489,190.381691 C646.088223,188.908751 646.663582,186.83746 646.663582,184.167755 C646.663582,181.682169 646.157266,179.702935 645.14462,178.229995 C644.131973,176.757054 642.84317,175.629351 641.278171,174.846852 C639.713172,174.064352 637.918053,173.535022 635.89276,173.258846 C633.867467,172.98267 631.888233,172.844584 629.954999,172.844584 L615.870078,172.844584 L615.870078,195.076665 Z M702.727091,210.680548 L665.995827,154.617039 L692.784794,154.617039 L713.497913,191.210216 L735.45382,154.617039 L761,154.617039 L724.268735,210.680548 L724.268735,252.382961 L702.727091,252.382961 L702.727091,210.680548 Z" id="THE-STORY"></path>
            <g id="Group-3">
                <path d="M0,0 L761,0 L761,138 L0,138 L0,0 Z M27.42,17.96 L27.42,110 L47.7,110 L47.7,74.12 L62.52,74.12 C67.3733576,74.12 71.8799792,73.6650045 76.04,72.755 C80.2000208,71.8449954 83.7966515,70.3066775 86.83,68.14 C89.8633485,65.9733225 92.246658,63.0700182 93.98,59.43 C95.713342,55.7899818 96.58,51.2833602 96.58,45.91 C96.58,40.4499727 95.6483426,35.9216846 93.785,32.325 C91.9216573,28.7283154 89.4083492,25.8683439 86.245,23.745 C83.0816509,21.6216561 79.3766879,20.126671 75.13,19.26 C70.8833121,18.393329 66.3766905,17.96 61.61,17.96 L27.42,17.96 Z M107.11,46.82 L107.11,110 L126.61,110 L126.61,46.82 L107.11,46.82 Z M105.55,26.93 C105.55,30.0500156 106.654989,32.714989 108.865,34.925 C111.075011,37.1350111 113.739984,38.24 116.86,38.24 C119.980016,38.24 122.644989,37.1350111 124.855,34.925 C127.065011,32.714989 128.17,30.0500156 128.17,26.93 C128.17,23.8099844 127.065011,21.145011 124.855,18.935 C122.644989,16.724989 119.980016,15.62 116.86,15.62 C113.739984,15.62 111.075011,16.724989 108.865,18.935 C106.654989,21.145011 105.55,23.8099844 105.55,26.93 Z M183.42,67.23 L196.29,53.71 C193.256651,50.5899844 189.681687,48.401673 185.565,47.145 C181.448313,45.888327 177.526685,45.26 173.8,45.26 C168.946642,45.26 164.375021,46.0399922 160.085,47.6 C155.794979,49.1600078 152.068349,51.3916522 148.905,54.295 C145.741651,57.1983479 143.250009,60.6866463 141.43,64.76 C139.609991,68.8333537 138.7,73.3833082 138.7,78.41 C138.7,83.4366918 139.609991,87.9866463 141.43,92.06 C143.250009,96.1333537 145.741651,99.6216521 148.905,102.525 C152.068349,105.428348 155.794979,107.659992 160.085,109.22 C164.375021,110.780008 168.946642,111.56 173.8,111.56 C177.526685,111.56 181.448313,110.931673 185.565,109.675 C189.681687,108.418327 193.256651,106.230016 196.29,103.11 L183.42,89.59 C182.293328,90.8900065 180.950008,92.0166619 179.39,92.97 C177.829992,93.9233381 175.966678,94.4 173.8,94.4 C168.859975,94.4 165.025014,92.9266814 162.295,89.98 C159.564986,87.0333186 158.2,83.1766905 158.2,78.41 C158.2,73.6433095 159.564986,69.7866814 162.295,66.84 C165.025014,63.8933186 168.859975,62.42 173.8,62.42 C175.793343,62.42 177.656658,62.8749955 179.39,63.785 C181.123342,64.6950046 182.466662,65.8433264 183.42,67.23 Z M246.34,62.42 L246.34,46.82 L229.18,46.82 L229.18,28.1 L209.68,28.1 L209.68,46.82 L197.2,46.82 L197.2,62.42 L209.68,62.42 L209.68,92.45 C209.68,95.916684 210.264994,98.8633212 211.435,101.29 C212.605006,103.716679 214.22999,105.688326 216.31,107.205 C218.39001,108.721674 220.816653,109.826663 223.59,110.52 C226.363347,111.213337 229.39665,111.56 232.69,111.56 C234.943345,111.56 237.239988,111.430001 239.58,111.17 C241.920012,110.909999 244.173322,110.390004 246.34,109.61 L246.34,93.36 C245.473329,94.1400039 244.195008,94.6383323 242.505,94.855 C240.814992,95.0716678 239.450005,95.18 238.41,95.18 C236.32999,95.18 234.661673,94.8983361 233.405,94.335 C232.148327,93.7716638 231.21667,92.9700052 230.61,91.93 C230.00333,90.8899948 229.613334,89.6550072 229.44,88.225 C229.266666,86.7949928 229.18,85.213342 229.18,83.48 L229.18,62.42 L246.34,62.42 Z M317.06,110 L317.06,46.82 L297.56,46.82 L297.56,78.28 C297.56,80.3600104 297.430001,82.3533238 297.17,84.26 C296.909999,86.1666762 296.368337,87.8783257 295.545,89.395 C294.721663,90.9116743 293.530008,92.1249955 291.97,93.035 C290.409992,93.9450046 288.373346,94.4 285.86,94.4 C283.346654,94.4 281.41834,93.8800052 280.075,92.84 C278.73166,91.7999948 277.735003,90.4566749 277.085,88.81 C276.434997,87.1633251 276.045001,85.3650098 275.915,83.415 C275.784999,81.4649903 275.72,79.5800091 275.72,77.76 L275.72,46.82 L256.22,46.82 L256.22,81.66 C256.22,85.9066879 256.501664,89.8499818 257.065,93.49 C257.628336,97.1300182 258.754992,100.29332 260.445,102.98 C262.135008,105.66668 264.518318,107.768326 267.595,109.285 C270.671682,110.801674 274.679975,111.56 279.62,111.56 C281.960012,111.56 284.126657,111.25667 286.12,110.65 C288.113343,110.04333 289.889992,109.263338 291.45,108.31 C293.010008,107.356662 294.331661,106.273339 295.415,105.06 C296.498339,103.846661 297.386663,102.633339 298.08,101.42 L298.34,101.42 L298.34,110 L317.06,110 Z M330.84,46.82 L330.84,110 L350.34,110 L350.34,83.61 C350.34,80.4899844 350.513332,77.630013 350.86,75.03 C351.206668,72.429987 351.964994,70.1983426 353.135,68.335 C354.305006,66.4716573 355.973322,65.0200052 358.14,63.98 C360.306678,62.9399948 363.253315,62.42 366.98,62.42 C368.453341,62.42 369.86166,62.5283323 371.205,62.745 C372.54834,62.9616678 373.913326,63.2866645 375.3,63.72 L375.3,45.91 C374.346662,45.6499987 373.306672,45.4766671 372.18,45.39 C371.053328,45.3033329 369.926672,45.26 368.8,45.26 C364.466645,45.26 360.870014,46.2349903 358.01,48.185 C355.149986,50.1350097 352.68001,53.0599805 350.6,56.96 L350.34,56.96 L350.34,46.82 L330.84,46.82 Z M441.21,99.08 L427.56,89.07 C425.913325,91.3233446 423.985011,93.1649928 421.775,94.595 C419.564989,96.0250072 416.856683,96.74 413.65,96.74 C409.836648,96.74 406.630013,95.6350111 404.03,93.425 C401.429987,91.214989 399.740004,88.2466853 398.96,84.52 L444.2,84.52 L444.2,78.41 C444.2,73.3833082 443.506674,68.8333537 442.12,64.76 C440.733326,60.6866463 438.761679,57.1983479 436.205,54.295 C433.648321,51.3916522 430.528352,49.1600078 426.845,47.6 C423.161648,46.0399922 419.066689,45.26 414.56,45.26 C409.706642,45.26 405.135021,46.0399922 400.845,47.6 C396.554979,49.1600078 392.828349,51.3916522 389.665,54.295 C386.501651,57.1983479 384.010009,60.6866463 382.19,64.76 C380.369991,68.8333537 379.46,73.3833082 379.46,78.41 C379.46,83.4366918 380.369991,87.9866463 382.19,92.06 C384.010009,96.1333537 386.501651,99.6216521 389.665,102.525 C392.828349,105.428348 396.554979,107.659992 400.845,109.22 C405.135021,110.780008 409.706642,111.56 414.56,111.56 C419.673359,111.56 424.61331,110.476677 429.38,108.31 C434.146691,106.143323 438.089984,103.066687 441.21,99.08 Z M491.78,65.41 L503.74,53.58 C500.793319,50.4599844 497.196688,48.2933394 492.95,47.08 C488.703312,45.8666606 484.500021,45.26 480.34,45.26 C477.04665,45.26 473.796683,45.6716625 470.59,46.495 C467.383317,47.3183375 464.545012,48.596658 462.075,50.33 C459.604988,52.063342 457.611674,54.2733199 456.095,56.96 C454.578326,59.6466801 453.82,62.8533147 453.82,66.58 C453.82,70.5666866 454.621659,73.7516548 456.225,76.135 C457.828341,78.5183452 459.864988,80.3599935 462.335,81.66 C464.805012,82.9600065 467.448319,83.9349967 470.265,84.585 C473.081681,85.2350032 475.724988,85.8416639 478.195,86.405 C480.665012,86.9683362 482.701659,87.6616626 484.305,88.485 C485.908341,89.3083375 486.71,90.5433251 486.71,92.19 C486.71,93.923342 485.800009,95.1149967 483.98,95.765 C482.159991,96.4150033 480.123345,96.74 477.87,96.74 C474.923319,96.74 472.345011,96.1550059 470.135,94.985 C467.924989,93.8149942 465.910009,92.1033446 464.09,89.85 L452.26,102.98 C455.380016,106.186683 459.193311,108.418327 463.7,109.675 C468.206689,110.931673 472.669978,111.56 477.09,111.56 C480.470017,111.56 483.893316,111.235003 487.36,110.585 C490.826684,109.934997 493.946653,108.808341 496.72,107.205 C499.493347,105.601659 501.768324,103.478347 503.545,100.835 C505.321676,98.1916534 506.21,94.8333537 506.21,90.76 C506.21,86.7733134 505.408341,83.5883452 503.805,81.205 C502.201659,78.8216547 500.165012,76.9366736 497.695,75.55 C495.224988,74.1633264 492.581681,73.1450033 489.765,72.495 C486.948319,71.8449968 484.305012,71.2383362 481.835,70.675 C479.364988,70.1116639 477.328341,69.4616703 475.725,68.725 C474.121659,67.9883296 473.32,66.8400078 473.32,65.28 C473.32,63.3733238 474.099992,62.0300039 475.66,61.25 C477.220008,60.4699961 478.823325,60.08 480.47,60.08 C485.150023,60.08 488.919986,61.8566489 491.78,65.41 Z M597.73,62.42 L597.73,46.82 L580.57,46.82 L580.57,28.1 L561.07,28.1 L561.07,46.82 L548.59,46.82 L548.59,62.42 L561.07,62.42 L561.07,92.45 C561.07,95.916684 561.654994,98.8633212 562.825,101.29 C563.995006,103.716679 565.61999,105.688326 567.7,107.205 C569.78001,108.721674 572.206653,109.826663 574.98,110.52 C577.753347,111.213337 580.78665,111.56 584.08,111.56 C586.333345,111.56 588.629988,111.430001 590.97,111.17 C593.310012,110.909999 595.563323,110.390004 597.73,109.61 L597.73,93.36 C596.863329,94.1400039 595.585008,94.6383323 593.895,94.855 C592.204992,95.0716678 590.840005,95.18 589.8,95.18 C587.71999,95.18 586.051673,94.8983361 584.795,94.335 C583.538327,93.7716638 582.60667,92.9700052 582,91.93 C581.39333,90.8899948 581.003334,89.6550072 580.83,88.225 C580.656666,86.7949928 580.57,85.213342 580.57,83.48 L580.57,62.42 L597.73,62.42 Z M667.41,99.08 L653.76,89.07 C652.113325,91.3233446 650.185011,93.1649928 647.975,94.595 C645.764989,96.0250072 643.056683,96.74 639.85,96.74 C636.036648,96.74 632.830013,95.6350111 630.23,93.425 C627.629987,91.214989 625.940004,88.2466853 625.16,84.52 L670.4,84.52 L670.4,78.41 C670.4,73.3833082 669.706674,68.8333537 668.32,64.76 C666.933326,60.6866463 664.961679,57.1983479 662.405,54.295 C659.848321,51.3916522 656.728352,49.1600078 653.045,47.6 C649.361648,46.0399922 645.266689,45.26 640.76,45.26 C635.906642,45.26 631.335021,46.0399922 627.045,47.6 C622.754979,49.1600078 619.028349,51.3916522 615.865,54.295 C612.701651,57.1983479 610.210009,60.6866463 608.39,64.76 C606.569991,68.8333537 605.66,73.3833082 605.66,78.41 C605.66,83.4366918 606.569991,87.9866463 608.39,92.06 C610.210009,96.1333537 612.701651,99.6216521 615.865,102.525 C619.028349,105.428348 622.754979,107.659992 627.045,109.22 C631.335021,110.780008 635.906642,111.56 640.76,111.56 C645.873359,111.56 650.81331,110.476677 655.58,108.31 C660.346691,106.143323 664.289984,103.066687 667.41,99.08 Z M682.49,11.72 L682.49,110 L701.99,110 L701.99,11.72 L682.49,11.72 Z M716.29,11.72 L716.29,110 L735.79,110 L735.79,11.72 L716.29,11.72 Z" id="Combined-Shape"></path>
                <path d="M625,71 L651,71 C650,63 645.666667,59 638,59 C630.333333,59 626,63 625,71 Z" id="Path-3"></path>
                <path d="M399,71 L425,71 C424,63 419.666667,59 412,59 C404.333333,59 400,63 399,71 Z" id="Path-3"></path>
                <path d="M48,35.5 L48,56.5 C66.3333333,58.8333333 75.5,55.3333333 75.5,46 C75.5,36.6666667 66.3333333,33.1666667 48,35.5 Z" id="Path-4"></path>
            </g>
        </g>
    </g>
</svg>