<svg xmlns="http://www.w3.org/2000/svg" viewBox="0 0 589.32 121"><defs><style>.cls-1{fill:#f1c929;}.cls-2{isolation:isolate;}</style></defs><title>picturesAsset 1</title><g id="Layer_2" data-name="Layer 2"><g id="Layer_1-2" data-name="Layer 1"><rect id="Rectangle-5" class="cls-1" x="435.32" width="154" height="121"/><g id="Pictures-tell-the-st" class="cls-2"><g class="cls-2"><path d="M0,21.2H15.52q8.24,0,11.8,4.48T30.88,38.4q0,7.52-3.72,12.24T15.6,55.36H6.08V86H0ZM13.84,50.8q6,0,8.52-2.76t2.52-9.64a24,24,0,0,0-1-7.72,6.41,6.41,0,0,0-3.28-3.8,15.94,15.94,0,0,0-6.72-1.12H6.08v25Z"/><path d="M38.08,25.44h5.84v7.92H38.08Zm0,14.32h5.84V86H38.08Z"/><path d="M57.44,84.44a11.11,11.11,0,0,1-3.64-6.16,43.46,43.46,0,0,1-.92-9.8V57.68A42.63,42.63,0,0,1,54,47a10.44,10.44,0,0,1,3.76-6q2.68-2,7.56-2,6.8,0,9.28,3.72T77,53.84v2.24H71.6V53.84a25.74,25.74,0,0,0-.6-6.32,5.28,5.28,0,0,0-2-3.16,6.64,6.64,0,0,0-3.76-.92,5.91,5.91,0,0,0-4.12,1.28,7.1,7.1,0,0,0-1.92,4,45.86,45.86,0,0,0-.52,8v13a39.23,39.23,0,0,0,.56,7.52,6.67,6.67,0,0,0,2,3.92,6.2,6.2,0,0,0,4.08,1.2,5.07,5.07,0,0,0,5.8-4.64,36.84,36.84,0,0,0,.44-6.48V68.64H77v2.24a33.65,33.65,0,0,1-.92,8.6,9.53,9.53,0,0,1-3.48,5.32q-2.56,1.92-7.36,1.92Q60.16,86.72,57.44,84.44Z"/><path d="M89.28,84q-1.76-2.6-1.76-7.56V43.6H81.84V39.76h5.68V25.44h5.84V39.76H101V43.6H93.36V75.84q0,3.52.8,4.84T97.44,82a15.88,15.88,0,0,0,3.36-.4v4.48a26,26,0,0,1-5,.48Q91,86.56,89.28,84Z"/><path d="M108.72,84.16q-1.84-2.56-1.84-7.28V39.76h5.92V75.6q0,3.52,1.08,5a3.83,3.83,0,0,0,3.32,1.48,8.14,8.14,0,0,0,4.12-1.24,17.68,17.68,0,0,0,4-3.32V39.76h5.84V86h-5.84V80.88a18.28,18.28,0,0,1-5.2,4.28,12.58,12.58,0,0,1-6.08,1.56A6.19,6.19,0,0,1,108.72,84.16Z"/><path d="M140.64,39.76h5.92v6.32A14.44,14.44,0,0,1,151.48,41a11.13,11.13,0,0,1,5.72-1.68,4.81,4.81,0,0,1,1,.08V45.6a9.08,9.08,0,0,0-2.88-.48q-5.52,0-8.8,5.36V86h-5.92Z"/><path d="M168.16,85a10.22,10.22,0,0,1-4-5.68,35.43,35.43,0,0,1-1.28-10.64V57a34.37,34.37,0,0,1,1.32-10.68,9.93,9.93,0,0,1,4.08-5.56A13.61,13.61,0,0,1,175.44,39q4.8,0,7.4,2a10.71,10.71,0,0,1,3.6,6.12,47.91,47.91,0,0,1,1,11l-.08,4.16H168.72V69.2a41.1,41.1,0,0,0,.56,7.68,7.39,7.39,0,0,0,2,4.12,6.8,6.8,0,0,0,8.76-.6q1.64-1.92,1.64-7v-3.2h5.68V72.8q0,6.72-2.8,10.32t-9.2,3.6A13.08,13.08,0,0,1,168.16,85Zm13.52-26V55.12a38.33,38.33,0,0,0-.44-6.56,6.94,6.94,0,0,0-1.8-3.76,5.55,5.55,0,0,0-4.08-1.36,6.39,6.39,0,0,0-3.92,1.08,6.37,6.37,0,0,0-2.08,3.76,34.31,34.31,0,0,0-.64,7.56V59Z"/><path d="M197.16,83.2q-3.32-3.52-3.8-9.6l4.88-1.52q.48,5.28,2.44,7.76a6.59,6.59,0,0,0,5.48,2.48,6.35,6.35,0,0,0,4.76-1.76,6.57,6.57,0,0,0,1.72-4.8q0-4.48-5.6-9.28L200.72,61A20.77,20.77,0,0,1,196,55.76a11.72,11.72,0,0,1-1.56-6.08q0-5,3-7.84a11.28,11.28,0,0,1,8.08-2.8q5.12,0,7.88,3.28a14.73,14.73,0,0,1,3.08,8.88l-4.16,1.36q-.48-9.12-6.56-9.12a6.26,6.26,0,0,0-4.36,1.48A5,5,0,0,0,199.76,49a8.56,8.56,0,0,0,.8,3.8,11.46,11.46,0,0,0,3,3.48l6.56,5.84a35.48,35.48,0,0,1,5.68,6.2,12.52,12.52,0,0,1,2,7.24q0,5.28-3.2,8.2t-8.64,2.92A11.48,11.48,0,0,1,197.16,83.2Z"/><path d="M245.11,84q-1.76-2.6-1.76-7.56V43.6h-5.68V39.76h5.68V25.44h5.84V39.76h7.68V43.6h-7.68V75.84q0,3.52.8,4.84T253.27,82a15.88,15.88,0,0,0,3.36-.4v4.48a26,26,0,0,1-5,.48Q246.88,86.56,245.11,84Z"/><path d="M267.52,85a10.22,10.22,0,0,1-4-5.68,35.43,35.43,0,0,1-1.28-10.64V57a34.37,34.37,0,0,1,1.32-10.68,9.93,9.93,0,0,1,4.08-5.56A13.61,13.61,0,0,1,274.8,39q4.8,0,7.4,2a10.71,10.71,0,0,1,3.6,6.12,47.91,47.91,0,0,1,1,11l-.08,4.16H268.08V69.2a41.1,41.1,0,0,0,.56,7.68,7.39,7.39,0,0,0,2,4.12,6.8,6.8,0,0,0,8.76-.6q1.64-1.92,1.64-7v-3.2h5.68V72.8q0,6.72-2.8,10.32t-9.2,3.6A13.08,13.08,0,0,1,267.52,85ZM281,59V55.12a38.33,38.33,0,0,0-.44-6.56,6.94,6.94,0,0,0-1.8-3.76,5.55,5.55,0,0,0-4.08-1.36,6.39,6.39,0,0,0-3.92,1.08,6.37,6.37,0,0,0-2.08,3.76,34.31,34.31,0,0,0-.64,7.56V59Z"/><path d="M295.51,21.2h5.84V86h-5.84Z"/><path d="M311.67,21.2h5.84V86h-5.84Z"/><path d="M347.75,84Q346,81.36,346,76.4V43.6h-5.68V39.76H346V25.44h5.84V39.76h7.68V43.6h-7.68V75.84q0,3.52.8,4.84T355.91,82a15.88,15.88,0,0,0,3.36-.4v4.48a26,26,0,0,1-5,.48Q349.51,86.56,347.75,84Z"/><path d="M365.83,21.2h5.84V44.64Q376.87,39,383,39a6.11,6.11,0,0,1,5.28,2.56q1.84,2.56,1.84,7.28V86h-5.92V50.16q0-3.52-1.08-5a3.8,3.8,0,0,0-3.32-1.52,8.23,8.23,0,0,0-4,1.2,17.77,17.77,0,0,0-4,3.2V86h-5.84Z"/><path d="M403.11,85a10.22,10.22,0,0,1-4-5.68,35.43,35.43,0,0,1-1.28-10.64V57a34.37,34.37,0,0,1,1.32-10.68,9.93,9.93,0,0,1,4.08-5.56A13.62,13.62,0,0,1,410.39,39q4.8,0,7.4,2a10.72,10.72,0,0,1,3.6,6.12,47.91,47.91,0,0,1,1,11l-.08,4.16H403.67V69.2a41.14,41.14,0,0,0,.56,7.68,7.4,7.4,0,0,0,2,4.12,6.8,6.8,0,0,0,8.76-.6q1.64-1.92,1.64-7v-3.2h5.68V72.8q0,6.72-2.8,10.32t-9.2,3.6A13.08,13.08,0,0,1,403.11,85Zm13.52-26V55.12a38.37,38.37,0,0,0-.44-6.56,6.94,6.94,0,0,0-1.8-3.76,5.55,5.55,0,0,0-4.08-1.36,6.39,6.39,0,0,0-3.92,1.08,6.37,6.37,0,0,0-2.08,3.76,34.31,34.31,0,0,0-.64,7.56V59Z"/><path d="M448.43,83.2q-3.32-3.52-3.8-9.6l4.88-1.52q.48,5.28,2.44,7.76a6.59,6.59,0,0,0,5.48,2.48,6.35,6.35,0,0,0,4.76-1.76,6.57,6.57,0,0,0,1.72-4.8q0-4.48-5.6-9.28L452,61a20.77,20.77,0,0,1-4.76-5.28,11.72,11.72,0,0,1-1.56-6.08q0-5,3-7.84a11.28,11.28,0,0,1,8.08-2.8q5.12,0,7.88,3.28a14.73,14.73,0,0,1,3.08,8.88l-4.16,1.36Q463,43.44,457,43.44a6.26,6.26,0,0,0-4.36,1.48A5,5,0,0,0,451,49a8.55,8.55,0,0,0,.8,3.8,11.45,11.45,0,0,0,3,3.48l6.56,5.84a35.5,35.5,0,0,1,5.68,6.2,12.52,12.52,0,0,1,2,7.24q0,5.28-3.2,8.2t-8.64,2.92A11.48,11.48,0,0,1,448.43,83.2Z"/><path d="M480.07,84q-1.76-2.6-1.76-7.56V43.6h-5.68V39.76h5.68V25.44h5.84V39.76h7.68V43.6h-7.68V75.84q0,3.52.8,4.84T488.23,82a15.87,15.87,0,0,0,3.36-.4v4.48a26,26,0,0,1-5,.48Q481.83,86.56,480.07,84Z"/><path d="M499.91,82.44q-2.72-4.28-2.72-13.16V56.48q0-8.88,2.72-13.16t9.6-4.28q6.88,0,9.6,4.28t2.72,13.16v12.8q0,8.88-2.72,13.16t-9.6,4.28Q502.63,86.72,499.91,82.44Zm13.88-1.64a7.69,7.69,0,0,0,1.8-4.16,49.1,49.1,0,0,0,.4-7V56.16a49.12,49.12,0,0,0-.4-7,7.7,7.7,0,0,0-1.8-4.16,6.79,6.79,0,0,0-8.56,0,7.64,7.64,0,0,0-1.8,4.12,48.85,48.85,0,0,0-.4,7.08V69.6a48.82,48.82,0,0,0,.4,7.08,7.63,7.63,0,0,0,1.8,4.12,6.78,6.78,0,0,0,8.56,0Z"/><path d="M530.31,39.76h5.92v6.32A14.44,14.44,0,0,1,541.15,41a11.13,11.13,0,0,1,5.72-1.68,4.82,4.82,0,0,1,1,.08V45.6a9.08,9.08,0,0,0-2.88-.48q-5.52,0-8.8,5.36V86h-5.92Z"/><path d="M552.39,93q5.44,0,7.4-1a3.66,3.66,0,0,0,2-3.52,11.4,11.4,0,0,0-.08-1.52q-.16-1.28-1-4.64l-.4-1.76q-1.44-6.08-3.44-14.56t-3.76-16q-2.32-10-2.32-10.16h5.84l8,39.36,7.76-39.36h5.92l-11.2,49.52a9.59,9.59,0,0,1-4.16,6.32q-3.12,1.92-9,1.92h-1.52Z"/></g></g></g></g></svg>