<?xml version="1.0" encoding="UTF-8"?>
<svg width="590px" height="121px" viewBox="0 0 590 121" version="1.1" xmlns="http://www.w3.org/2000/svg" xmlns:xlink="http://www.w3.org/1999/xlink">
    <!-- Generator: Sketch 50.2 (55047) - http://www.bohemiancoding.com/sketch -->
    <title>Group 6</title>
    <desc>Created with Sketch.</desc>
    <defs></defs>
    <g id="Page-1" stroke="none" stroke-width="1" fill="none" fill-rule="evenodd">
        <g id="Group-6" fill-rule="nonzero">
            <rect id="Rectangle-5" fill="#DCBC3F" x="435.32" y="0" width="154" height="121"></rect>
            <g id="Pictures-tell-the-st" transform="translate(0.000000, 21.000000)" fill="#000000">
                <g id="Group">
                    <path d="M0,0.2 L15.52,0.2 C21.0133333,0.2 24.9466667,1.69333333 27.32,4.68 C29.6933333,7.66666667 30.88,11.9066667 30.88,17.4 C30.88,22.4133333 29.64,26.4933333 27.16,29.64 C24.68,32.7866667 20.8266667,34.36 15.6,34.36 L6.08,34.36 L6.08,65 L0,65 L0,0.2 Z M13.84,29.8 C17.84,29.8 20.68,28.88 22.36,27.04 C24.04,25.2 24.88,21.9866667 24.88,17.4 C24.9690041,14.7893943 24.6312286,12.1817673 23.88,9.68 C23.3487325,8.02009825 22.164469,6.64808565 20.6,5.88 C18.4668874,5.02675199 16.1745383,4.6446938 13.88,4.76 L6.08,4.76 L6.08,29.76 L13.84,29.8 Z" id="Shape"></path>
                    <path d="M38.08,4.44 L43.92,4.44 L43.92,12.36 L38.08,12.36 L38.08,4.44 Z M38.08,18.76 L43.92,18.76 L43.92,65 L38.08,65 L38.08,18.76 Z" id="Shape"></path>
                    <path d="M57.44,63.44 C55.5805778,61.8442438 54.3008492,59.6785493 53.8,57.28 C53.1232018,54.0587139 52.8145561,50.770966 52.88,47.48 L52.88,36.68 C52.8016635,33.0870221 53.1779818,29.4985587 54,26 C54.5161205,23.6230599 55.8459893,21.5009289 57.76,20 C59.5466667,18.6666667 62.0666667,18 65.32,18 C69.8533333,18 72.9466667,19.24 74.6,21.72 C76.2533333,24.2 77.0533333,27.9066667 77,32.84 L77,35.08 L71.6,35.08 L71.6,32.84 C71.6615517,30.7166459 71.4600192,28.5938379 71,26.52 C70.7411808,25.2579411 70.0298618,24.1340572 69,23.36 C67.8658559,22.6867039 66.5568892,22.3664248 65.24,22.44 C63.7544374,22.3322522 62.2829712,22.7894067 61.12,23.72 C60.0691223,24.8139874 59.3962552,26.2157938 59.2,27.72 C58.7934693,30.3663745 58.6194713,33.0432667 58.68,35.72 L58.68,48.72 C58.6247579,51.2388334 58.8122907,53.7571311 59.24,56.24 C59.4440006,57.735299 60.1490623,59.1172199 61.24,60.16 C62.415988,61.0285151 63.8610561,61.4535352 65.32,61.36 C66.7138174,61.5667457 68.1308041,61.1841134 69.2311008,60.303876 C70.3313975,59.4236386 71.0157432,58.1252051 71.12,56.72 C71.4571568,54.5771664 71.6043955,52.4087415 71.56,50.24 L71.56,47.64 L77,47.64 L77,49.88 C77.0645541,52.7743067 76.7553338,55.6648441 76.08,58.48 C75.5630853,60.5993653 74.3347049,62.4772343 72.6,63.8 C70.8933333,65.08 68.44,65.72 65.24,65.72 C61.8533333,65.72 59.2533333,64.96 57.44,63.44 Z" id="Shape"></path>
                    <path d="M89.28,63 C88.1066667,61.2666667 87.52,58.7466667 87.52,55.44 L87.52,22.6 L81.84,22.6 L81.84,18.76 L87.52,18.76 L87.52,4.44 L93.36,4.44 L93.36,18.76 L101,18.76 L101,22.6 L93.36,22.6 L93.36,54.84 C93.36,57.1866667 93.6266667,58.8 94.16,59.68 C94.6933333,60.56 95.7866667,61 97.44,61 C98.5710495,60.9867131 99.6974424,60.8526187 100.8,60.6 L100.8,65.08 C99.152731,65.4009955 97.4782522,65.5617455 95.8,65.56 C92.6,65.56 90.4266667,64.7066667 89.28,63 Z" id="Shape"></path>
                    <path d="M108.72,63.16 C107.493333,61.4533333 106.88,59.0266667 106.88,55.88 L106.88,18.76 L112.8,18.76 L112.8,54.6 C112.8,56.9466667 113.16,58.6133333 113.88,59.6 C114.667161,60.6205127 115.914808,61.1766927 117.2,61.08 C118.659692,61.0436682 120.082738,60.6153726 121.32,59.84 C122.809631,58.9364635 124.15753,57.8177071 125.32,56.52 L125.32,18.76 L131.16,18.76 L131.16,65 L125.32,65 L125.32,59.88 C123.866707,61.6164136 122.103454,63.0677067 120.12,64.16 C118.257704,65.1853837 116.165924,65.7220904 114.04,65.72 C111.947739,65.8217969 109.94594,64.8585254 108.72,63.16 Z" id="Shape"></path>
                    <path d="M140.64,18.76 L146.56,18.76 L146.56,25.08 C147.753585,23.0050402 149.444287,21.2593561 151.48,20 C153.198425,18.9302803 155.176039,18.3494427 157.2,18.32 C157.535211,18.311738 157.870366,18.3385505 158.2,18.4 L158.2,24.6 C157.272178,24.2856903 156.299607,24.1235951 155.32,24.12 C151.64,24.12 148.706667,25.9066667 146.52,29.48 L146.52,65 L140.6,65 L140.64,18.76 Z" id="Shape"></path>
                    <path d="M168.16,64 C166.204326,62.631825 164.789184,60.6223226 164.16,58.32 C163.196308,54.8587507 162.764705,51.2710522 162.88,47.68 L162.88,36 C162.756495,32.3927742 163.201953,28.788607 164.2,25.32 C164.852091,23.0387574 166.299437,21.0663928 168.28,19.76 C170.459266,18.5257124 172.936857,17.9166956 175.44,18 C178.64,18 181.106667,18.6666667 182.84,20 C184.700983,21.5713054 185.970802,23.729998 186.44,26.12 C187.196296,29.7358522 187.531859,33.4270428 187.44,37.12 L187.36,41.28 L168.72,41.28 L168.72,48.2 C168.665909,50.771884 168.853399,53.3431665 169.28,55.88 C169.493564,57.4304712 170.193871,58.873104 171.28,60 C173.955121,61.9646715 177.657738,61.7110676 180.04,59.4 C181.133333,58.12 181.68,55.7866667 181.68,52.4 L181.68,49.2 L187.36,49.2 L187.36,51.8 C187.36,56.28 186.426667,59.72 184.56,62.12 C182.693333,64.52 179.626667,65.72 175.36,65.72 C172.844447,65.8519334 170.344307,65.2546777 168.16,64 Z M181.68,38 L181.68,34.12 C181.721489,31.9247672 181.574281,29.7300287 181.24,27.56 C181.039491,26.1518224 180.411137,24.8392603 179.44,23.8 C178.318056,22.8167431 176.84751,22.3265611 175.36,22.44 C173.970596,22.3635822 172.594221,22.7427876 171.44,23.52 C170.332107,24.4945974 169.596921,25.8235882 169.36,27.28 C168.867839,29.768591 168.653194,32.3040891 168.72,34.84 L168.72,38 L181.68,38 Z" id="Shape"></path>
                    <path d="M197.16,62.2 C194.946667,59.8533333 193.68,56.6533333 193.36,52.6 L198.24,51.08 C198.56,54.6 199.373333,57.1866667 200.68,58.84 C202.00086,60.5007224 204.040591,61.4238124 206.16,61.32 C207.922324,61.4204298 209.646924,60.7827624 210.92,59.56 C212.116138,58.2567914 212.736228,56.5263063 212.64,54.76 C212.64,51.7733333 210.773333,48.68 207.04,45.48 L200.72,40 C198.859465,38.5351667 197.263125,36.7629586 196,34.76 C194.936861,32.9128704 194.397516,30.810809 194.44,28.68 C194.44,25.3466667 195.44,22.7333333 197.44,20.84 C199.661451,18.8823608 202.563563,17.8766785 205.52,18.04 C208.933333,18.04 211.56,19.1333333 213.4,21.32 C215.368823,23.8642426 216.450582,26.9830809 216.48,30.2 L212.32,31.56 C212,25.48 209.813333,22.44 205.76,22.44 C204.171424,22.3615349 202.612544,22.8906959 201.4,23.92 C200.252548,24.9537266 199.647204,26.4597032 199.76,28 C199.732036,29.3112269 200.005745,30.6113455 200.56,31.8 C201.314826,33.1506242 202.335332,34.3344121 203.56,35.28 L210.12,41.12 C212.252397,42.9542152 214.159117,45.0354939 215.8,47.32 C217.191936,49.4717655 217.890026,51.9988528 217.8,54.56 C217.8,58.08 216.733333,60.8133333 214.6,62.76 C212.466667,64.7066667 209.586667,65.68 205.96,65.68 C202.662759,65.8391746 199.456565,64.5712703 197.16,62.2 Z" id="Shape"></path>
                    <path d="M245.11,63 C243.936667,61.2666667 243.35,58.7466667 243.35,55.44 L243.35,22.6 L237.67,22.6 L237.67,18.76 L243.35,18.76 L243.35,4.44 L249.19,4.44 L249.19,18.76 L256.87,18.76 L256.87,22.6 L249.19,22.6 L249.19,54.84 C249.19,57.1866667 249.456667,58.8 249.99,59.68 C250.523333,60.56 251.616667,61 253.27,61 C254.40105,60.9867131 255.527442,60.8526187 256.63,60.6 L256.63,65.08 C254.982731,65.4009955 253.308252,65.5617455 251.63,65.56 C248.463333,65.56 246.29,64.7066667 245.11,63 Z" id="Shape"></path>
                    <path d="M267.52,64 C265.564326,62.631825 264.149184,60.6223226 263.52,58.32 C262.556308,54.8587507 262.124705,51.2710522 262.24,47.68 L262.24,36 C262.116495,32.3927742 262.561953,28.788607 263.56,25.32 C264.212091,23.0387574 265.659437,21.0663928 267.64,19.76 C269.819266,18.5257124 272.296857,17.9166956 274.8,18 C278,18 280.466667,18.6666667 282.2,20 C284.060983,21.5713054 285.330802,23.729998 285.8,26.12 C286.556296,29.7358522 286.891859,33.4270428 286.8,37.12 L286.72,41.28 L268.08,41.28 L268.08,48.2 C268.025909,50.771884 268.213399,53.3431665 268.64,55.88 C268.853564,57.4304712 269.553871,58.873104 270.64,60 C273.315121,61.9646715 277.017738,61.7110676 279.4,59.4 C280.493333,58.12 281.04,55.7866667 281.04,52.4 L281.04,49.2 L286.72,49.2 L286.72,51.8 C286.72,56.28 285.786667,59.72 283.92,62.12 C282.053333,64.52 278.986667,65.72 274.72,65.72 C272.204447,65.8519334 269.704307,65.2546777 267.52,64 Z M281,38 L281,34.12 C281.041489,31.9247672 280.894281,29.7300287 280.56,27.56 C280.359491,26.1518224 279.731137,24.8392603 278.76,23.8 C277.638056,22.8167431 276.16751,22.3265611 274.68,22.44 C273.290596,22.3635822 271.914221,22.7427876 270.76,23.52 C269.652107,24.4945974 268.916921,25.8235882 268.68,27.28 C268.187839,29.768591 267.973194,32.3040891 268.04,34.84 L268.04,38 L281,38 Z" id="Shape"></path>
                    <polygon id="Shape" points="295.51 0.2 301.35 0.2 301.35 65 295.51 65"></polygon>
                    <polygon id="Shape" points="311.67 0.2 317.51 0.2 317.51 65 311.67 65"></polygon>
                    <path d="M347.75,63 C346.583333,61.24 346,58.7066667 346,55.4 L346,22.6 L340.32,22.6 L340.32,18.76 L346,18.76 L346,4.44 L351.84,4.44 L351.84,18.76 L359.52,18.76 L359.52,22.6 L351.84,22.6 L351.84,54.84 C351.84,57.1866667 352.106667,58.8 352.64,59.68 C353.173333,60.56 354.263333,61 355.91,61 C357.04105,60.9867131 358.167442,60.8526187 359.27,60.6 L359.27,65.08 C357.622731,65.4009955 355.948252,65.5617455 354.27,65.56 C351.096667,65.56 348.923333,64.7066667 347.75,63 Z" id="Shape"></path>
                    <path d="M365.83,0.2 L371.67,0.2 L371.67,23.64 C375.136667,19.88 378.913333,18 383,18 C385.081405,17.8970652 387.071739,18.8620754 388.28,20.56 C389.506667,22.2666667 390.12,24.6933333 390.12,27.84 L390.12,65 L384.2,65 L384.2,29.16 C384.2,26.8133333 383.84,25.1466667 383.12,24.16 C382.345215,23.1199968 381.093537,22.5469394 379.8,22.64 C378.38567,22.689436 377.007984,23.1027419 375.8,23.84 C374.319115,24.7078821 372.971787,25.7857451 371.8,27.04 L371.8,65 L365.96,65 L365.83,0.2 Z" id="Shape"></path>
                    <path d="M403.11,64 C401.154326,62.631825 399.739184,60.6223226 399.11,58.32 C398.146308,54.8587507 397.714705,51.2710522 397.83,47.68 L397.83,36 C397.706495,32.3927742 398.151953,28.788607 399.15,25.32 C399.802091,23.0387574 401.249437,21.0663928 403.23,19.76 C405.409459,18.5261978 407.886911,17.9172151 410.39,18 C413.59,18 416.056667,18.6666667 417.79,20 C419.650364,21.5718274 420.920045,23.7302854 421.39,26.12 C422.146296,29.7358522 422.481859,33.4270428 422.39,37.12 L422.31,41.28 L403.67,41.28 L403.67,48.2 C403.616145,50.7718779 403.803633,53.3431383 404.23,55.88 C404.444232,57.4302687 405.144443,58.8727046 406.23,60 C408.905121,61.9646715 412.607738,61.7110676 414.99,59.4 C416.083333,58.12 416.63,55.7866667 416.63,52.4 L416.63,49.2 L422.31,49.2 L422.31,51.8 C422.31,56.28 421.376667,59.72 419.51,62.12 C417.643333,64.52 414.576667,65.72 410.31,65.72 C407.794447,65.8519334 405.294307,65.2546777 403.11,64 Z M416.63,38 L416.63,34.12 C416.671292,31.9247719 416.524085,29.7300503 416.19,27.56 C415.989491,26.1518224 415.361137,24.8392603 414.39,23.8 C413.268056,22.8167431 411.79751,22.3265611 410.31,22.44 C408.920596,22.3635822 407.544221,22.7427876 406.39,23.52 C405.282107,24.4945974 404.546921,25.8235882 404.31,27.28 C403.817839,29.768591 403.603194,32.3040891 403.67,34.84 L403.67,38 L416.63,38 Z" id="Shape"></path>
                    <path d="M448.43,62.2 C446.216667,59.8533333 444.95,56.6533333 444.63,52.6 L449.51,51.08 C449.83,54.6 450.643333,57.1866667 451.95,58.84 C453.27086,60.5007224 455.310591,61.4238124 457.43,61.32 C459.192324,61.4204298 460.916924,60.7827624 462.19,59.56 C463.386138,58.2567914 464.006228,56.5263063 463.91,54.76 C463.91,51.7733333 462.043333,48.68 458.31,45.48 L452,40 C450.121691,38.5266271 448.511444,36.7404706 447.24,34.72 C446.176861,32.8728704 445.637516,30.770809 445.68,28.64 C445.68,25.3066667 446.68,22.6933333 448.68,20.8 C450.901451,18.8423608 453.803563,17.8366785 456.76,18 C460.173333,18 462.8,19.0933333 464.64,21.28 C466.608823,23.8242426 467.690582,26.9430809 467.72,30.16 L463.56,31.52 C463.186667,25.4666667 461,22.44 457,22.44 C455.411424,22.3615349 453.852544,22.8906959 452.64,23.92 C451.492548,24.9537266 450.887204,26.4597032 451,28 C450.971678,29.3112603 451.245404,30.6114593 451.8,31.8 C452.554598,33.1507835 453.575141,34.3346138 454.8,35.28 L461.36,41.12 C463.492266,42.9543512 465.39897,45.0356134 467.04,47.32 C468.431936,49.4717655 469.130026,51.9988528 469.04,54.56 C469.04,58.08 467.973333,60.8133333 465.84,62.76 C463.706667,64.7066667 460.826667,65.68 457.2,65.68 C453.913034,65.8304359 450.719525,64.5632282 448.43,62.2 Z" id="Shape"></path>
                    <path d="M480.07,63 C478.896667,61.2666667 478.31,58.7466667 478.31,55.44 L478.31,22.6 L472.63,22.6 L472.63,18.76 L478.31,18.76 L478.31,4.44 L484.15,4.44 L484.15,18.76 L491.83,18.76 L491.83,22.6 L484.15,22.6 L484.15,54.84 C484.15,57.1866667 484.416667,58.8 484.95,59.68 C485.483333,60.56 486.576667,61 488.23,61 C489.361055,60.9867894 490.487455,60.8526941 491.59,60.6 L491.59,65.08 C489.942731,65.4009955 488.268252,65.5617455 486.59,65.56 C483.416667,65.56 481.243333,64.7066667 480.07,63 Z" id="Shape"></path>
                    <path d="M499.91,61.44 C498.096667,58.5866667 497.19,54.2 497.19,48.28 L497.19,35.48 C497.19,29.56 498.096667,25.1733333 499.91,22.32 C501.723333,19.4666667 504.923333,18.04 509.51,18.04 C514.096667,18.04 517.296667,19.4666667 519.11,22.32 C520.923333,25.1733333 521.83,29.56 521.83,35.48 L521.83,48.28 C521.83,54.2 520.923333,58.5866667 519.11,61.44 C517.296667,64.2933333 514.096667,65.72 509.51,65.72 C504.923333,65.72 501.723333,64.2933333 499.91,61.44 Z M513.79,59.8 C514.794327,58.6256726 515.421581,57.1760183 515.59,55.64 C515.889974,53.3191801 516.023648,50.9798841 515.99,48.64 L515.99,35.16 C516.02358,32.8201174 515.889906,30.4808262 515.59,28.16 C515.420976,26.6241419 514.793796,25.1746587 513.79,24 C511.295967,21.9749524 507.724033,21.9749524 505.23,24 C504.23034,25.1617044 503.603177,26.5972107 503.43,28.12 C503.125322,30.4671931 502.991637,32.833426 503.03,35.2 L503.03,48.6 C502.991531,50.9665761 503.125217,53.3328167 503.43,55.68 C503.602573,57.2029515 504.22981,58.6386286 505.23,59.8 C507.722665,61.8288977 511.297335,61.8288977 513.79,59.8 Z" id="Shape"></path>
                    <path d="M530.31,18.76 L536.23,18.76 L536.23,25.08 C537.423585,23.0050402 539.114287,21.2593561 541.15,20 C542.868425,18.9302803 544.846039,18.3494427 546.87,18.32 C547.205209,18.311811 547.540357,18.3386229 547.87,18.4 L547.87,24.6 C546.942178,24.2856903 545.969607,24.1235951 544.99,24.12 C541.31,24.12 538.376667,25.9066667 536.19,29.48 L536.19,65 L530.27,65 L530.31,18.76 Z" id="Shape"></path>
                    <path d="M552.39,72 C556.016667,72 558.483333,71.6666667 559.79,71 C561.103994,70.3357544 561.892033,68.9488062 561.79,67.48 C561.797225,66.9721169 561.770499,66.4643187 561.71,65.96 C561.603333,65.1066667 561.27,63.56 560.71,61.32 L560.31,59.56 C559.35,55.5066667 558.203333,50.6533333 556.87,45 C555.536667,39.3466667 554.283333,34.0133333 553.11,29 C551.563333,22.3333333 550.79,18.9466667 550.79,18.84 L556.63,18.84 L564.63,58.2 L572.39,18.84 L578.31,18.84 L567.11,68.36 C566.648111,70.9477723 565.144235,73.2325059 562.95,74.68 C560.87,75.96 557.87,76.6 553.95,76.6 L552.43,76.6 L552.39,72 Z" id="Shape"></path>
                </g>
            </g>
        </g>
    </g>
</svg>