<?xml version="1.0" encoding="UTF-8"?>
<svg width="1024px" height="247px" viewBox="0 0 1024 247" version="1.1" xmlns="http://www.w3.org/2000/svg" xmlns:xlink="http://www.w3.org/1999/xlink">
    <!-- Generator: Sketch 51.3 (57544) - http://www.bohemiancoding.com/sketch -->
    <title>Group 6</title>
    <desc>Created with Sketch.</desc>
    <defs></defs>
    <g id="Page-1" stroke="none" stroke-width="1" fill="none" fill-rule="evenodd">
        <g id="Desktop-Copy" transform="translate(0.000000, -106.000000)">
            <g id="Group-6" transform="translate(0.000000, 106.000000)">
                <rect id="Rectangle-2" fill="#FFFFFF" fill-rule="nonzero" x="0" y="0" width="1024" height="247"></rect>
                <path d="M290,106.067146 L320.280276,106.067146 C329.439994,106.067146 335.976199,109.024001 339.889089,114.9378 C343.801978,120.851598 345.758393,129.499843 345.758393,140.882794 C345.758393,152.265744 344.024298,160.847293 340.556055,166.627698 C337.087812,172.408102 330.862855,175.298261 321.880995,175.298261 L312.543465,175.298261 L312.543465,220.651978 L290,220.651978 L290,106.067146 Z M313.877398,154.622302 C316.634206,154.622302 318.657318,154.110966 319.946793,153.088279 C321.236267,152.065592 322.081083,150.598281 322.481265,148.686301 C322.881447,146.774321 323.081535,144.039786 323.081535,140.482614 C323.081535,135.680432 322.547967,132.212241 321.480815,130.077938 C320.413664,127.943634 318.279393,126.876499 315.077938,126.876499 L312.543465,126.876499 L312.543465,154.622302 L313.877398,154.622302 Z M351.894484,220.651978 L351.894484,106.067146 L374.03777,106.067146 L374.03777,220.651978 L351.894484,220.651978 Z M389.844874,213.848921 C384.820369,208.602092 382.308153,201.398927 382.308153,192.239209 L382.308153,139.415468 C382.308153,128.032517 384.575817,119.450968 389.111211,113.670564 C393.646605,107.890159 400.760843,105 410.454137,105 C418.90242,105 425.70541,107.312127 430.863309,111.936451 C436.021209,116.560775 438.60012,123.230372 438.60012,131.945444 L438.60012,151.68765 L415.789868,151.68765 L415.789868,134.746703 C415.789868,131.456318 415.389692,129.188655 414.589329,127.943645 C413.788965,126.698635 412.410581,126.076139 410.454137,126.076139 C408.408763,126.076139 407.008147,126.787563 406.252248,128.210432 C405.496349,129.6333 405.118405,131.723108 405.118405,134.479916 L405.118405,191.972422 C405.118405,194.996018 405.563045,197.196986 406.452338,198.57539 C407.341631,199.953794 408.675551,200.642986 410.454137,200.642986 C414.011309,200.642986 415.789868,197.752827 415.789868,191.972422 L415.789868,171.296463 L438.866906,171.296463 L438.866906,192.906175 C438.866906,212.114904 429.218222,221.719125 409.920564,221.719125 C401.561209,221.719125 394.86938,219.09575 389.844874,213.848921 Z M456.341427,220.651978 L456.341427,128.077038 L442.735312,128.077038 L442.735312,106.067146 L492.891187,106.067146 L492.891187,128.077038 L479.285072,128.077038 L479.285072,220.651978 L456.341427,220.651978 Z M504.829886,213.715528 C500.250027,208.379769 497.960132,200.46518 497.960132,189.971523 L497.960132,106.067146 L520.236811,106.067146 L520.236811,189.03777 C520.236811,192.683871 520.592522,195.529566 521.303957,197.57494 C522.015391,199.620314 523.527167,200.642986 525.839329,200.642986 C528.15149,200.642986 529.663266,199.642546 530.3747,197.641637 C531.086135,195.640727 531.441847,192.7728 531.441847,189.03777 L531.441847,106.067146 L553.718525,106.067146 L553.718525,189.971523 C553.718525,200.46518 551.42863,208.379769 546.848771,213.715528 C542.268912,219.051286 535.265835,221.719125 525.839329,221.719125 C516.412823,221.719125 509.409745,219.051286 504.829886,213.715528 Z M562.522482,106.067146 L597.738309,106.067146 C603.340855,106.067146 607.676094,107.33437 610.744155,109.868855 C613.812216,112.40334 615.879791,115.960459 616.946942,120.540318 C618.014094,125.120177 618.547662,130.967191 618.547662,138.081535 C618.547662,144.573374 617.702846,149.642268 616.013189,153.288369 C614.323533,156.934471 611.38891,159.468918 607.209233,160.891787 C610.677475,161.603221 613.18969,163.337316 614.745953,166.094125 C616.302216,168.850933 617.080336,172.585908 617.080336,177.299161 L616.813549,220.651978 L594.403477,220.651978 L594.403477,175.831835 C594.403477,172.63038 593.780981,170.585036 592.535971,169.695743 C591.290961,168.80645 589.023298,168.361811 585.732914,168.361811 L585.732914,220.651978 L562.522482,220.651978 L562.522482,106.067146 Z M591.335432,148.486211 C594.536887,148.486211 596.13759,145.01802 596.13759,138.081535 C596.13759,135.057939 596.004198,132.790275 595.73741,131.278477 C595.470622,129.766679 594.981518,128.721775 594.270084,128.143735 C593.55865,127.565695 592.535978,127.276679 591.202038,127.276679 L585.866307,127.276679 L585.866307,148.486211 L591.335432,148.486211 Z M626.151079,220.651978 L626.151079,106.067146 L672.038369,106.067146 L672.038369,128.210432 L649.494904,128.210432 L649.494904,150.48711 L671.104616,150.48711 L671.104616,172.096823 L649.494904,172.096823 L649.494904,198.3753 L673.505695,198.3753 L673.505695,220.651978 L626.151079,220.651978 Z M685.777878,213.982314 C681.153554,208.824415 678.841427,200.50965 678.841427,189.03777 L678.841427,177.832734 L701.384892,177.832734 L701.384892,192.105815 C701.384892,197.797291 703.207915,200.642986 706.854017,200.642986 C708.899391,200.642986 710.322238,200.042722 711.122602,198.842176 C711.922966,197.641631 712.323141,195.618519 712.323141,192.772782 C712.323141,189.037751 711.878502,185.947504 710.989209,183.501948 C710.099916,181.056393 708.966084,179.011049 707.58768,177.365857 C706.209276,175.720665 703.741525,173.163986 700.184353,169.695743 L690.313249,159.82464 C682.665329,152.354579 678.841427,144.084278 678.841427,135.013489 C678.841427,125.231266 681.086858,117.783549 685.577788,112.670114 C690.068717,107.556679 696.627155,105 705.253297,105 C715.569096,105 722.994582,107.734535 727.529976,113.203687 C732.06537,118.672839 734.333034,127.232156 734.333034,138.881894 L710.989209,138.881894 L710.855815,131.011691 C710.855815,129.499893 710.433408,128.299365 709.588579,127.410072 C708.743751,126.520779 707.565455,126.076139 706.053657,126.076139 C704.275071,126.076139 702.941152,126.565243 702.051859,127.543465 C701.162565,128.521688 700.717926,129.855607 700.717926,131.545264 C700.717926,135.280294 702.852197,139.148661 707.120803,143.15048 L720.460132,155.956235 C723.572657,158.979831 726.151569,161.847758 728.196942,164.560102 C730.242316,167.272446 731.887484,170.473852 733.132494,174.164418 C734.377504,177.854984 735,182.234687 735,187.303657 C735,198.597678 732.932425,207.156995 728.797212,212.981865 C724.662,218.806734 717.836778,221.719125 708.321343,221.719125 C697.916615,221.719125 690.402201,219.140214 685.777878,213.982314 Z" id="PICTURES" fill="#244005"></path>
            </g>
        </g>
    </g>
</svg>