<?xml version="1.0" encoding="UTF-8"?>
<svg width="897px" height="413px" viewBox="0 0 897 413" version="1.1" xmlns="http://www.w3.org/2000/svg" xmlns:xlink="http://www.w3.org/1999/xlink">
    <!-- Generator: Sketch 50.2 (55047) - http://www.bohemiancoding.com/sketch -->
    <title>Group 32</title>
    <desc>Created with Sketch.</desc>
    <defs></defs>
    <g id="Page-1" stroke="none" stroke-width="1" fill="none" fill-rule="evenodd">
        <g id="Group-32">
            <path d="M24.170563,411 L24.170563,246.993015 L0,246.993015 L0,208 L89.0993304,208 L89.0993304,246.993015 L64.9287673,246.993015 L64.9287673,411 L24.170563,411 Z M100.111607,411 L100.111607,208 L140.582257,208 L140.582257,280.55064 L159.752565,280.55064 L159.752565,208 L200.223214,208 L200.223214,411 L159.752565,411 L159.752565,318.834692 L140.582257,318.834692 L140.582257,411 L100.111607,411 Z M218.243304,411 L218.243304,208 L299.731332,208 L299.731332,247.229336 L259.697969,247.229336 L259.697969,286.694994 L298.073145,286.694994 L298.073145,324.979045 L259.697969,324.979045 L259.697969,371.534342 L302.337054,371.534342 L302.337054,411 L218.243304,411 Z M379.774927,399.278857 C371.531333,390.131383 367.409598,375.385245 367.409598,355.04 L367.409598,335.168 L407.596918,335.168 L407.596918,360.481143 C407.596918,370.574908 410.846748,375.621714 417.346504,375.621714 C420.992709,375.621714 423.529162,374.557154 424.955938,372.428 C426.382714,370.298846 427.096091,366.710882 427.096091,361.664 C427.096091,355.039967 426.303449,349.55945 424.718143,345.222286 C423.132836,340.885121 421.111601,337.257729 418.654376,334.34 C416.197151,331.422271 411.797991,326.888031 405.456765,320.737143 L387.85995,303.230857 C374.226314,289.982791 367.409598,275.315509 367.409598,259.228571 C367.409598,241.879913 371.412437,228.671474 379.418235,219.602857 C387.424033,210.53424 399.115494,206 414.492967,206 C432.882523,206 446.119634,210.849666 454.204697,220.549143 C462.28976,230.24862 466.332231,245.428468 466.332231,266.089143 L424.718143,266.089143 L424.480348,252.131429 C424.480348,249.450272 423.727339,247.321151 422.221298,245.744 C420.715256,244.166849 418.614757,243.378286 415.919736,243.378286 C412.749123,243.378286 410.371198,244.245706 408.785892,245.980571 C407.200585,247.715437 406.407944,250.081128 406.407944,253.077714 C406.407944,259.701747 410.212623,266.56225 417.822094,273.659429 L441.601573,296.370286 C447.150146,301.732598 451.747466,306.818833 455.393671,311.629143 C459.039876,316.439453 461.972649,322.11711 464.192078,328.662286 C466.411507,335.207461 467.521205,342.974812 467.521205,351.964571 C467.521205,371.994386 463.835423,387.174234 456.463748,397.504571 C449.092072,407.834909 436.925027,413 419.962247,413 C401.414161,413 388.018521,408.426331 379.774927,399.278857 Z M497.698465,411 L497.698465,246.993015 L473.527902,246.993015 L473.527902,208 L562.627232,208 L562.627232,246.993015 L538.456669,246.993015 L538.456669,411 L497.698465,411 Z M584.38734,397.977714 C575.887255,387.962807 571.637277,373.886948 571.637277,355.749714 L571.637277,258.992 C571.637277,241.485627 575.887255,228.277187 584.38734,219.366286 C592.887425,210.455384 605.322547,206 621.69308,206 C638.063614,206 650.498736,210.455384 658.998821,219.366286 C667.498905,228.277187 671.748884,241.485627 671.748884,258.992 L671.748884,355.749714 C671.748884,374.044663 667.498905,388.15995 658.998821,398.096 C650.498736,408.03205 638.063614,413 621.69308,413 C605.322547,413 592.887425,407.992622 584.38734,397.977714 Z M628.824487,370.277281 C630.076919,367.128786 630.703125,362.720959 630.703125,357.053667 L630.703125,257.876565 C630.703125,253.468672 630.116057,249.887313 628.941902,247.132379 C627.767748,244.377446 625.380337,243 621.779597,243 C615.047778,243 611.68192,248.116228 611.68192,258.348837 L611.68192,357.289803 C611.68192,363.114519 612.386402,367.522346 613.795387,370.513417 C615.204372,373.504487 617.787473,375 621.544767,375 C625.145507,375 627.572056,373.425776 628.824487,370.277281 Z M688.767857,208 L751.06588,208 C760.976979,208 768.646166,210.24503 774.073673,214.735157 C779.501179,219.225284 783.158792,225.527123 785.04662,233.640861 C786.934448,241.7546 787.878348,252.113247 787.878348,264.717113 C787.878348,276.218141 786.38384,285.19826 783.394778,291.657742 C780.405717,298.117223 775.214267,302.607283 767.820273,305.128056 C773.955715,306.388442 778.399911,309.460589 781.152993,314.344587 C783.906076,319.228585 785.282597,325.845515 785.282597,334.195576 L784.810643,411 L745.166446,411 L745.166446,331.596042 C745.166446,325.924302 744.065229,322.300745 741.862763,320.725262 C739.660297,319.149779 735.648722,318.362049 729.827918,318.362049 L729.827918,411 L688.767857,411 L688.767857,208 Z M739.408729,284 C745.025408,284 747.833705,277.786226 747.833705,265.358491 C747.833705,259.941273 747.599681,255.87842 747.131624,253.169811 C746.663567,250.461202 745.805476,248.589104 744.557325,247.553459 C743.309175,246.517815 741.514984,246 739.174701,246 L729.813616,246 L729.813616,284 L739.408729,284 Z M826.285845,411 L826.285845,344.121071 L793.885045,208 L834.090417,208 L845.442522,276.769499 L856.794627,208 L897,213 L864.5992,344.121071 L864.5992,411 L826.285845,411 Z" id="THE-STORY" fill="#DCBC3F"></path>
            <g id="Group-29">
                <rect id="Rectangle-8" fill="#DCBC3F" x="0" y="0" width="897" height="213"></rect>
                <path d="M18.0200893,35.327929 L55.7421274,35.327929 C67.1529625,35.327929 75.2955237,39.007362 80.1700552,46.3663385 C85.0445867,53.7253151 87.4818159,64.4869651 87.4818159,78.6516117 C87.4818159,92.8162582 85.3215445,103.494914 81.0009371,110.687898 C76.6803296,117.880883 68.9255094,121.477321 57.736244,121.477321 L46.1038974,121.477321 L46.1038974,177.914302 L18.0200893,177.914302 L18.0200893,35.327929 Z M47.7656612,95.7486972 C51.1999902,95.7486972 53.7203068,95.1124042 55.3266865,93.8397993 C56.9330661,92.5671943 57.985506,90.7413102 58.4840377,88.3620923 C58.9825693,85.9828743 59.2318314,82.5800903 59.2318314,78.1536383 C59.2318314,72.177928 58.5671325,67.862202 57.2377148,65.2063308 C55.9082971,62.5504596 53.2495016,61.2225439 49.2612486,61.2225439 L46.1038974,61.2225439 L46.1038974,95.7486972 L47.7656612,95.7486972 Z M95.1259293,177.914302 L95.1259293,35.327929 L122.711208,35.327929 L122.711208,177.914302 L95.1259293,177.914302 Z M142.403109,169.448755 C136.143768,162.919738 133.014144,153.956307 133.014144,142.558193 L133.014144,76.8257093 C133.014144,62.6610628 135.839114,51.9824075 141.489139,44.7894229 C147.139164,37.5964383 156.001816,34 168.07736,34 C178.601916,34 187.076827,36.8771507 193.502346,42.6315383 C199.927865,48.385926 203.140576,56.685399 203.140576,67.5302065 L203.140576,92.0968925 L174.724415,92.0968925 L174.724415,71.0160201 C174.724415,66.9215519 174.225891,64.0997311 173.228828,62.5504729 C172.231764,61.0012147 170.514626,60.2265972 168.07736,60.2265972 C165.529309,60.2265972 163.784475,61.1118743 162.842804,62.8824551 C161.901133,64.6530359 161.430305,67.2535375 161.430305,70.6840378 L161.430305,142.226211 C161.430305,145.988695 161.98422,148.727522 163.092068,150.442772 C164.199917,152.158022 165.861664,153.015634 168.07736,153.015634 C172.508752,153.015634 174.724415,149.419196 174.724415,142.226211 L174.724415,116.497587 L203.472929,116.497587 L203.472929,143.388149 C203.472929,167.29099 191.452957,179.242231 167.412654,179.242231 C156.998882,179.242231 148.662451,175.977772 142.403109,169.448755 Z M225.242034,177.914302 L225.242034,62.716464 L208.292044,62.716464 L208.292044,35.327929 L270.774362,35.327929 L270.774362,62.716464 L253.824372,62.716464 L253.824372,177.914302 L225.242034,177.914302 Z M285.647148,169.282764 C279.941731,162.643086 277.089065,152.794378 277.089065,139.736344 L277.089065,35.327929 L304.84052,35.327929 L304.84052,138.574406 C304.84052,143.11152 305.283653,146.652628 306.169931,149.197838 C307.05621,151.743048 308.939523,153.015634 311.819928,153.015634 C314.700333,153.015634 316.583646,151.770713 317.469925,149.280834 C318.356203,146.790955 318.799336,143.222181 318.799336,138.574406 L318.799336,35.327929 L346.550791,35.327929 L346.550791,139.736344 C346.550791,152.794378 343.698125,162.643086 337.992708,169.282764 C332.28729,175.922442 323.563118,179.242231 311.819928,179.242231 C300.076738,179.242231 291.352566,175.922442 285.647148,169.282764 Z M357.518432,35.327929 L401.388996,35.327929 C408.368439,35.327929 413.769118,36.9048289 417.591193,40.0586759 C421.413269,43.212523 423.988977,47.6389086 425.318395,53.3379656 C426.647813,59.0370226 427.312512,66.312894 427.312512,75.1657981 C427.312512,83.2440731 426.260072,89.5516726 424.15516,94.0887859 C422.050249,98.6258993 418.394405,101.779699 413.187519,103.55028 C417.508127,104.43557 420.637751,106.593433 422.576485,110.023934 C424.515219,113.454434 425.484571,118.102139 425.484571,123.967188 L425.152219,177.914302 L397.234587,177.914302 L397.234587,122.141285 C397.234587,118.157479 396.459105,115.612307 394.908118,114.505694 C393.35713,113.399081 390.53216,112.845783 386.433122,112.845783 L386.433122,177.914302 L357.518432,177.914302 L357.518432,35.327929 Z M393.41253,88.1131056 C397.400783,88.1131056 399.39488,83.7973796 399.39488,75.1657981 C399.39488,71.4033139 399.228705,68.581493 398.896351,66.7002509 C398.563996,64.8190088 397.954689,63.518758 397.068411,62.7994596 C396.182132,62.0801611 394.908126,61.7205173 393.246354,61.7205173 L386.599299,61.7205173 L386.599299,88.1131056 L393.41253,88.1131056 Z M436.784565,177.914302 L436.784565,35.327929 L493.94924,35.327929 L493.94924,62.8824551 L465.865432,62.8824551 L465.865432,90.6029724 L492.786005,90.6029724 L492.786005,117.493534 L465.865432,117.493534 L465.865432,150.193785 L495.77718,150.193785 L495.77718,177.914302 L436.784565,177.914302 Z M511.065407,169.614746 C505.304597,163.196391 502.424235,152.849714 502.424235,138.574406 L502.424235,124.631152 L530.508043,124.631152 L530.508043,142.392202 C530.508043,149.474526 532.779098,153.015634 537.321275,153.015634 C539.869325,153.015634 541.641856,152.268681 542.638919,150.774754 C543.635982,149.280826 544.134506,146.76332 544.134506,143.222158 C544.134506,138.574383 543.580591,134.728961 542.472743,131.685775 C541.364894,128.642589 539.952409,126.097417 538.235245,124.050183 C536.51808,122.002949 533.443848,118.821485 529.012456,114.505694 L516.715404,102.222351 C507.18791,92.9268016 502.424235,82.635455 502.424235,71.3480023 C502.424235,59.1752592 505.22151,49.9075143 510.816142,43.5444895 C516.410775,37.1814647 524.581032,34 535.327158,34 C548.178196,34 557.428588,37.402784 563.078614,44.208454 C568.728639,51.014124 571.553609,61.6651144 571.553609,76.1617448 L542.472743,76.1617448 L542.306566,66.3682687 C542.306566,64.4870266 541.780346,62.9931214 540.727891,61.8865084 C539.675435,60.7798954 538.207558,60.2265972 536.324216,60.2265972 C534.10852,60.2265972 532.446773,60.8352252 531.338925,62.0524995 C530.231077,63.2697738 529.677161,64.9296684 529.677161,67.0322332 C529.677161,71.6800078 532.335957,76.4937022 537.653628,81.4734607 L554.271265,97.4086084 C558.148734,101.171093 561.361445,104.739866 563.909495,108.115036 C566.457546,111.490205 568.507034,115.473952 570.058021,120.066396 C571.609009,124.65884 572.384491,130.108828 572.384491,136.416522 C572.384491,150.470507 569.808783,161.121498 564.657289,168.369813 C559.505796,175.618128 551.003189,179.242231 539.149215,179.242231 C526.187393,179.242231 516.826217,176.033102 511.065407,169.614746 Z M633.038869,177.914302 L633.038869,62.716464 L616.088879,62.716464 L616.088879,35.327929 L678.571197,35.327929 L678.571197,62.716464 L661.621207,62.716464 L661.621207,177.914302 L633.038869,177.914302 Z M686.547663,177.914302 L686.547663,35.327929 L743.712338,35.327929 L743.712338,62.8824551 L715.62853,62.8824551 L715.62853,90.6029724 L742.549103,90.6029724 L742.549103,117.493534 L715.62853,117.493534 L715.62853,150.193785 L745.540278,150.193785 L745.540278,177.914302 L686.547663,177.914302 Z M755.012332,177.914302 L755.012332,35.327929 L783.594669,35.327929 L783.594669,153.679599 L813.007888,153.679599 L813.007888,177.914302 L755.012332,177.914302 Z M820.984354,177.914302 L820.984354,35.327929 L849.566692,35.327929 L849.566692,153.679599 L878.979911,153.679599 L878.979911,177.914302 L820.984354,177.914302 Z" id="PICTURES-TELL" fill="#FFFFFF"></path>
            </g>
        </g>
    </g>
</svg>