<?xml version="1.0" encoding="UTF-8"?>
<svg width="1024px" height="247px" viewBox="0 0 1024 247" version="1.1" xmlns="http://www.w3.org/2000/svg" xmlns:xlink="http://www.w3.org/1999/xlink">
    <!-- Generator: Sketch 51.3 (57544) - http://www.bohemiancoding.com/sketch -->
    <title>Group 6</title>
    <desc>Created with Sketch.</desc>
    <defs></defs>
    <g id="Page-1" stroke="none" stroke-width="1" fill="none" fill-rule="evenodd">
        <g id="Desktop-Copy" transform="translate(0.000000, -106.000000)">
            <g id="Group-6" transform="translate(0.000000, 106.000000)">
                <rect id="Rectangle-2" fill="#FFFFFF" fill-rule="nonzero" x="0" y="0" width="1024" height="247"></rect>
                <path d="M274,107.061611 L304.123223,107.061611 C313.235433,107.061611 319.737737,110.00313 323.630332,115.886256 C327.522926,121.769382 329.469194,130.372771 329.469194,141.696682 C329.469194,153.020594 327.744093,161.557633 324.293839,167.308057 C320.843585,173.058481 314.650914,175.933649 305.71564,175.933649 L296.42654,175.933649 L296.42654,221.052133 L274,221.052133 L274,107.061611 Z M297.753555,155.364929 C300.496064,155.364929 302.508682,154.856245 303.791469,153.838863 C305.074256,152.82148 305.91469,151.361779 306.312796,149.459716 C306.710902,147.557652 306.909953,144.8373 306.909953,141.298578 C306.909953,136.521303 306.379152,133.071101 305.317536,130.947867 C304.255919,128.824634 302.132717,127.763033 298.947867,127.763033 L296.42654,127.763033 L296.42654,155.364929 L297.753555,155.364929 Z M336.635071,107.061611 L371.668246,107.061611 C377.241734,107.061611 381.554487,108.322262 384.606635,110.843602 C387.658783,113.364942 389.715635,116.903611 390.777251,121.459716 C391.838868,126.015821 392.369668,131.832508 392.369668,138.909953 C392.369668,145.368121 391.529234,150.410724 389.848341,154.037915 C388.167448,157.665105 385.248046,160.186407 381.090047,161.601896 C384.540302,162.30964 387.039487,164.034741 388.587678,166.777251 C390.135869,169.519761 390.909953,173.235364 390.909953,177.924171 L390.64455,221.052133 L368.350711,221.052133 L368.350711,176.464455 C368.350711,173.279605 367.731444,171.24487 366.492891,170.36019 C365.254338,169.475509 362.998437,169.033175 359.725118,169.033175 L359.725118,221.052133 L336.635071,221.052133 L336.635071,107.061611 Z M365.298578,149.260664 C368.483428,149.260664 370.075829,145.810461 370.075829,138.909953 C370.075829,135.902039 369.943129,133.646137 369.677725,132.14218 C369.412321,130.638223 368.925754,129.598739 368.218009,129.023697 C367.510265,128.448654 366.492898,128.161137 365.165877,128.161137 L359.85782,128.161137 L359.85782,149.260664 L365.298578,149.260664 Z M406.170616,213.687204 C401.393341,208.069482 399.004739,200.173827 399.004739,190 L399.004739,135.725118 C399.004739,125.905164 401.393341,118.496076 406.170616,113.49763 C410.947891,108.499185 417.936763,106 427.137441,106 C436.338119,106 443.32699,108.499185 448.104265,113.49763 C452.88154,118.496076 455.270142,125.905164 455.270142,135.725118 L455.270142,190 C455.270142,200.262295 452.88154,208.180067 448.104265,213.753555 C443.32699,219.327042 436.338119,222.113744 427.137441,222.113744 C417.936763,222.113744 410.947891,219.304925 406.170616,213.687204 Z M431.251185,198.492891 C431.958929,196.72353 432.312796,194.246461 432.312796,191.061611 L432.312796,135.327014 C432.312796,132.849909 431.981046,130.837291 431.317536,129.2891 C430.654025,127.740909 429.304907,126.966825 427.270142,126.966825 C423.466016,126.966825 421.563981,129.841993 421.563981,135.592417 L421.563981,191.194313 C421.563981,194.467631 421.962081,196.944699 422.758294,198.625592 C423.554506,200.306485 425.014207,201.146919 427.137441,201.146919 C429.172206,201.146919 430.54344,200.262252 431.251185,198.492891 Z M475.57346,219.061611 C471.326993,217.026846 467.987374,214.041094 465.554502,210.104265 C463.121631,206.167437 461.905213,201.41235 461.905213,195.838863 L461.905213,167.308057 L484.331754,167.308057 L484.331754,194.511848 C484.331754,196.546614 484.751971,198.161131 485.592417,199.35545 C486.432864,200.549769 487.737748,201.146919 489.507109,201.146919 C491.188002,201.146919 492.448653,200.594002 493.2891,199.488152 C494.129546,198.382301 494.549763,196.812016 494.549763,194.777251 L494.549763,107.061611 L517.507109,107.061611 L517.507109,192.521327 C517.507109,198.448687 516.334925,203.646107 513.990521,208.113744 C511.646118,212.581381 508.372849,216.031583 504.170616,218.464455 C499.968383,220.897327 495.169063,222.113744 489.772512,222.113744 C484.552896,222.113744 479.819926,221.096377 475.57346,219.061611 Z M526.265403,221.052133 L526.265403,107.061611 L571.914692,107.061611 L571.914692,129.090047 L549.488152,129.090047 L549.488152,151.251185 L570.985782,151.251185 L570.985782,172.748815 L549.488152,172.748815 L549.488152,198.890995 L573.374408,198.890995 L573.374408,221.052133 L526.265403,221.052133 Z M587.507109,214.28436 C582.508664,209.064745 580.009479,201.89894 580.009479,192.78673 L580.009479,140.236967 C580.009479,128.913056 582.26538,120.376016 586.777251,114.625592 C591.289122,108.875169 598.36646,106 608.009479,106 C616.413944,106 623.181649,108.300135 628.312796,112.900474 C633.443944,117.500813 636.009479,124.135818 636.009479,132.805687 L636.009479,152.445498 L613.317536,152.445498 L613.317536,135.592417 C613.317536,132.319099 612.919435,130.063197 612.123223,128.824645 C611.32701,127.586092 609.955776,126.966825 608.009479,126.966825 C605.974713,126.966825 604.581362,127.674558 603.829384,129.090047 C603.077405,130.505536 602.701422,132.584504 602.701422,135.327014 L602.701422,192.521327 C602.701422,195.529241 603.143755,197.718793 604.028436,199.090047 C604.913117,200.461302 606.240118,201.146919 608.009479,201.146919 C611.548201,201.146919 613.317536,198.271751 613.317536,192.521327 L613.317536,171.952607 L636.274882,171.952607 L636.274882,193.450237 C636.274882,212.559337 626.676241,222.113744 607.478673,222.113744 C599.162676,222.113744 592.505554,219.503976 587.507109,214.28436 Z M653.658768,221.052133 L653.658768,128.957346 L640.123223,128.957346 L640.123223,107.061611 L690.018957,107.061611 L690.018957,128.957346 L676.483412,128.957346 L676.483412,221.052133 L653.658768,221.052133 Z M701.033175,214.417062 C696.432836,209.285914 694.132701,201.014275 694.132701,189.601896 L694.132701,178.454976 L716.559242,178.454976 L716.559242,192.654028 C716.559242,198.315984 718.37281,201.146919 722,201.146919 C724.034765,201.146919 725.450233,200.549769 726.246445,199.35545 C727.042658,198.161131 727.440758,196.148513 727.440758,193.317536 C727.440758,189.601877 726.998425,186.527658 726.113744,184.094787 C725.229064,181.661915 724.101113,179.62718 722.729858,177.990521 C721.358603,176.353862 718.903651,173.810444 715.364929,170.36019 L705.545024,160.540284 C697.936771,153.108968 694.132701,144.881562 694.132701,135.85782 C694.132701,126.126334 696.366486,118.717245 700.834123,113.630332 C705.30176,108.543418 711.826181,106 720.407583,106 C730.669878,106 738.056849,108.720352 742.56872,114.161137 C747.080591,119.601923 749.336493,128.116846 749.336493,139.706161 L726.113744,139.706161 L725.981043,131.876777 C725.981043,130.37282 725.560826,129.178519 724.720379,128.293839 C723.879933,127.409158 722.707748,126.966825 721.203791,126.966825 C719.43443,126.966825 718.107429,127.453392 717.222749,128.42654 C716.338068,129.399689 715.895735,130.72669 715.895735,132.407583 C715.895735,136.123241 718.018936,139.971544 722.265403,143.952607 L735.535545,156.691943 C738.631927,159.699857 741.197462,162.552909 743.232227,165.251185 C745.266993,167.949461 746.903627,171.134263 748.14218,174.805687 C749.380733,178.477112 750,182.834098 750,187.876777 C750,199.11222 747.943149,207.627143 743.829384,213.421801 C739.715619,219.216459 732.925798,222.113744 723.459716,222.113744 C713.108953,222.113744 705.633514,219.548209 701.033175,214.417062 Z" id="PROJECTS" fill="#244005"></path>
            </g>
        </g>
    </g>
</svg>