<?xml version="1.0" standalone="no"?>
<!DOCTYPE svg PUBLIC "-//W3C//DTD SVG 20010904//EN"
 "http://www.w3.org/TR/2001/REC-SVG-20010904/DTD/svg10.dtd">
<svg version="1.0" xmlns="http://www.w3.org/2000/svg"
 width="816.000000pt" height="816.000000pt" viewBox="0 0 816.000000 816.000000"
 preserveAspectRatio="xMidYMid meet">
<metadata>
Created by potrace 1.11, written by Peter Selinger 2001-2013
</metadata>
<g transform="translate(0.000000,816.000000) scale(0.100000,-0.100000)"
fill="#000000" stroke="none">
<path d="M20 7868 l-20 -22 0 -3788 0 -3788 4080 0 4080 0 0 3790 c0 3777 0
3790 -20 3810 -19 19 -33 20 -318 20 -288 0 -300 -1 -317 -20 -18 -20 -19 -75
-19 -1465 -1 -955 -4 -1446 -11 -1447 -8 -2 -91 303 -119 437 -3 11 -12 49
-21 85 -9 36 -18 76 -21 88 -2 13 -25 103 -49 200 -24 98 -53 218 -65 267 -12
50 -46 189 -75 310 -62 255 -106 434 -110 455 -3 15 -25 104 -130 535 -31 127
-72 295 -91 375 -25 107 -40 150 -56 163 -19 16 -50 17 -378 17 -341 -1 -359
-2 -375 -20 -17 -19 -18 -136 -19 -2217 l-1 -2198 -222 -3 c-207 -2 -223 -1
-224 15 0 10 -1 1003 -2 2206 -2 2154 -2 2189 -21 2203 -16 11 -79 14 -337 14
l-318 0 -18 -24 c-18 -23 -19 -72 -16 -1464 2 -959 0 -1443 -7 -1447 -5 -3
-14 4 -20 17 -5 13 -50 210 -100 438 -50 228 -94 426 -97 440 -3 14 -7 30 -9
35 -1 6 -4 21 -7 35 -3 14 -10 45 -16 70 -5 25 -12 56 -15 70 -2 14 -11 54
-20 90 -8 36 -17 76 -20 90 -2 14 -13 63 -25 110 -11 47 -22 97 -25 110 -2 14
-9 49 -15 79 -6 30 -16 71 -21 91 -6 21 -19 80 -30 131 -30 138 -58 265 -74
339 -29 130 -148 665 -152 684 -9 48 -27 87 -44 96 -11 6 -158 10 -373 10
-347 0 -354 0 -373 -21 -18 -20 -19 -74 -19 -2220 l0 -2199 -227 0 -228 0 0
2204 0 2205 -22 15 c-19 14 -69 16 -340 16 -309 0 -318 -1 -337 -21 -19 -20
-19 -55 -20 -2202 0 -1200 0 -2190 -1 -2199 0 -16 -14 -18 -145 -18 -80 0
-145 3 -146 8 0 4 -2 127 -2 274 -2 242 -4 269 -20 285 -17 17 -54 18 -568 19
-353 0 -553 4 -560 11 -6 6 -11 655 -12 1912 -2 1871 -2 1903 -21 1917 -16 11
-79 14 -338 14 -313 0 -317 0 -338 -22z m4103 -2545 c54 -163 119 -365 217
-673 39 -124 91 -286 115 -360 24 -74 83 -256 130 -405 48 -148 98 -304 111
-345 13 -41 24 -78 24 -82 0 -5 -150 -8 -333 -8 l-332 0 -1 998 c0 918 2 1010
23 1012 1 0 22 -62 46 -137z m2642 -58 c31 -99 74 -234 95 -300 151 -472 217
-677 252 -790 22 -71 44 -139 49 -150 4 -11 40 -121 79 -245 39 -124 77 -243
85 -265 8 -23 15 -46 15 -53 0 -9 -78 -12 -330 -12 l-330 0 -1 23 c-6 254 -2
1965 5 1975 5 7 12 9 16 5 4 -4 33 -89 65 -188z m-2952 -2310 c192 -40 351
-191 403 -382 19 -73 28 -251 13 -270 -9 -10 -55 -13 -193 -13 -99 0 -187 4
-194 9 -9 6 -15 37 -18 92 -8 146 -59 214 -164 214 -42 0 -63 -6 -89 -24 -68
-48 -93 -173 -54 -262 35 -78 58 -100 364 -334 295 -227 371 -346 370 -583 -1
-335 -222 -555 -567 -561 -263 -5 -471 118 -553 327 -27 69 -31 90 -38 211 -5
95 -4 105 13 114 26 15 361 16 382 1 10 -8 16 -33 18 -84 6 -130 59 -200 158
-208 43 -3 58 1 93 24 82 54 105 183 50 276 -34 57 -65 85 -242 218 -226 169
-286 223 -352 310 -90 120 -131 251 -127 407 4 150 44 258 134 356 80 88 184
144 310 168 47 8 234 5 283 -6z m2087 -10 c194 -57 331 -194 377 -379 21 -82
30 -271 14 -296 -8 -11 -44 -14 -193 -15 -101 -1 -190 2 -199 6 -13 7 -17 30
-21 116 -6 113 -18 151 -60 190 -59 54 -162 55 -223 2 -65 -57 -65 -61 -65
-663 0 -341 4 -555 10 -578 22 -77 89 -128 170 -128 50 0 89 19 124 60 37 45
45 89 43 245 l-2 140 -82 5 c-45 3 -84 8 -88 12 -4 3 -7 73 -7 154 0 128 2
149 17 160 21 15 539 17 568 2 17 -9 18 -28 14 -351 -2 -188 -7 -355 -11 -370
-47 -191 -188 -338 -376 -391 -101 -28 -197 -34 -315 -21 -235 27 -417 189
-470 415 -12 54 -15 164 -14 650 0 541 2 590 20 658 52 204 226 360 432 389
23 3 44 7 47 10 11 11 238 -6 290 -22z m-4775 -8 c11 -3 31 -8 45 -11 14 -2
50 -13 80 -25 183 -70 313 -237 337 -436 3 -22 5 -279 5 -571 0 -467 -2 -541
-17 -609 -49 -221 -224 -378 -460 -414 -94 -14 -664 -14 -681 0 -12 10 -14
167 -14 1035 0 926 2 1024 16 1032 18 10 658 9 689 -1z m1785 -3 c16 -16 16
-322 1 -337 -8 -8 -113 -12 -329 -13 -174 -1 -320 -2 -324 -3 -5 0 -8 -111 -8
-246 0 -135 3 -245 8 -246 4 -1 91 -2 194 -2 102 -1 190 -6 195 -10 4 -5 8
-80 9 -168 0 -128 -2 -162 -14 -171 -10 -9 -71 -13 -201 -13 l-186 0 -3 -252
-2 -253 282 1 c411 0 376 2 384 -23 12 -39 7 -308 -7 -324 -10 -12 -88 -14
-532 -14 -357 1 -525 4 -534 12 -11 8 -13 207 -13 1034 0 906 2 1024 15 1032
24 13 1052 9 1065 -4z m1957 3 c4 -5 8 -468 8 -1029 0 -846 -2 -1024 -13
-1035 -11 -10 -55 -13 -196 -13 -100 1 -189 5 -196 10 -13 8 -15 154 -15 1027
0 920 1 1019 16 1034 13 13 44 16 202 15 102 -1 189 -5 194 -9z m2117 -7 c7
-8 26 -53 40 -100 15 -47 66 -204 113 -350 47 -146 114 -355 150 -465 74 -230
83 -255 92 -255 4 0 6 261 6 580 -1 319 2 586 7 593 9 14 362 20 391 5 16 -8
17 -67 17 -1031 0 -782 -3 -1026 -12 -1035 -17 -17 -432 -17 -445 1 -10 14 -6
3 -103 307 -39 124 -77 243 -85 265 -7 22 -41 128 -75 235 -34 107 -74 232
-89 278 -15 46 -31 83 -36 83 -6 -1 -9 -212 -8 -581 3 -566 2 -580 -17 -590
-12 -6 -91 -10 -200 -10 -165 1 -181 3 -190 20 -6 12 -10 376 -10 1029 0 848
2 1012 14 1023 21 22 419 19 440 -2z"/>
<path d="M844 2576 c-2 -6 -3 -312 -2 -681 l3 -670 75 -1 c120 0 180 29 220
106 35 69 39 121 39 525 -1 393 -5 527 -20 588 -15 63 -68 121 -127 136 -53
15 -182 12 -188 -3z"/>
</g>
</svg>
