<?xml version="1.0" standalone="no"?>
<!DOCTYPE svg PUBLIC "-//W3C//DTD SVG 20010904//EN"
 "http://www.w3.org/TR/2001/REC-SVG-20010904/DTD/svg10.dtd">
<svg version="1.0" xmlns="http://www.w3.org/2000/svg"
 width="3326.000000pt" height="3326.000000pt" viewBox="0 0 3326.000000 3326.000000"
 preserveAspectRatio="xMidYMid meet">
<metadata>
Created by potrace 1.11, written by Peter Selinger 2001-2013
</metadata>
<g transform="translate(0.000000,3326.000000) scale(0.100000,-0.100000)"
fill="#000000" stroke="none">
<path d="M0 16630 l0 -15670 16630 0 16630 0 0 15670 0 15670 -1785 0 -1785 0
-1 -4417 c-1 -3728 -3 -4408 -15 -4353 -7 36 -29 151 -49 255 -20 105 -49 258
-65 340 -16 83 -32 161 -34 175 -3 14 -10 50 -16 80 -6 30 -13 69 -16 85 -6
34 -38 205 -59 310 -8 39 -17 86 -20 105 -3 19 -8 42 -10 50 -2 8 -7 31 -10
50 -3 19 -10 55 -15 80 -5 25 -12 56 -14 70 -3 14 -19 99 -36 190 -18 91 -34
176 -36 190 -2 14 -9 45 -14 70 -5 25 -12 61 -15 80 -3 19 -8 42 -10 50 -2 8
-6 26 -9 40 -7 43 -26 144 -31 170 -9 42 -93 483 -99 515 -3 17 -8 41 -11 55
-2 14 -7 36 -9 50 -4 23 -39 201 -66 340 -6 30 -13 69 -16 85 -2 17 -7 37 -9
45 -2 8 -7 30 -10 48 -11 70 -16 94 -44 238 -17 82 -33 165 -36 184 -3 19 -8
42 -10 50 -2 8 -6 32 -10 53 -3 22 -9 58 -15 80 -5 23 -23 116 -40 207 -17 91
-35 185 -41 210 -11 50 -16 78 -25 130 -3 19 -17 93 -31 164 -14 71 -27 139
-29 150 -2 12 -6 32 -9 46 -2 14 -7 37 -9 53 -3 15 -7 35 -10 45 -3 9 -7 35
-11 57 -3 22 -14 83 -25 135 -24 121 -73 376 -105 550 -9 47 -20 103 -25 125
-5 22 -14 67 -20 100 -10 60 -15 87 -25 135 -4 22 -11 56 -20 110 -2 8 -10 49
-19 90 -8 41 -17 89 -20 105 -3 17 -17 91 -31 165 -15 74 -28 146 -31 160 -2
14 -9 48 -15 76 -5 28 -12 64 -15 80 -3 16 -7 36 -9 44 -3 8 -7 33 -10 55 -4
22 -12 67 -20 100 -7 33 -16 83 -21 110 -4 28 -9 57 -11 65 -2 8 -5 24 -7 35
-2 11 -6 31 -9 45 -4 14 -20 97 -36 185 -17 88 -33 171 -35 185 -3 14 -8 39
-11 55 -19 101 -28 145 -36 182 -5 22 -12 58 -15 80 -3 21 -21 115 -39 208
-18 94 -41 210 -50 259 -10 49 -19 97 -20 105 -2 9 -4 19 -4 24 -1 4 -859 6
-1908 5 l-1908 -3 0 -9165 0 -9165 -818 -3 -817 -2 -1 22 c0 13 -1 4139 -1
9171 l-1 9147 -1789 0 -1788 0 -1 -4417 c-1 -2468 -5 -4400 -10 -4378 -10 47
-76 391 -84 438 -4 18 -12 64 -20 102 -8 39 -16 81 -19 95 -6 39 -26 142 -31
170 -17 86 -37 189 -41 210 -2 14 -8 45 -14 70 -5 25 -21 106 -35 180 -30 158
-26 138 -59 310 -15 74 -28 144 -30 155 -12 62 -46 244 -51 268 -3 15 -7 39
-10 55 -3 15 -10 47 -15 72 -5 25 -12 56 -14 70 -2 14 -14 77 -26 140 -12 63
-24 126 -26 140 -3 14 -15 79 -29 145 -13 66 -27 136 -30 155 -8 45 -41 217
-65 340 -24 121 -50 256 -56 295 -3 17 -16 84 -29 150 -13 66 -28 147 -34 180
-6 33 -13 69 -15 80 -39 195 -79 401 -86 440 -5 28 -33 178 -64 335 -30 157
-57 296 -60 310 -2 14 -14 75 -25 135 -12 61 -24 126 -27 145 -3 19 -7 37 -9
40 -2 3 -6 26 -10 50 -3 25 -10 61 -15 80 -5 19 -12 55 -15 80 -4 24 -8 47
-10 50 -2 3 -6 21 -9 40 -3 19 -15 85 -27 145 -11 61 -23 121 -25 135 -3 14
-18 93 -34 175 -16 83 -32 164 -35 180 -2 17 -7 39 -9 50 -2 11 -11 58 -20
105 -9 47 -18 96 -21 110 -3 14 -12 59 -20 100 -18 94 -19 97 -62 320 -19 102
-37 194 -39 205 -1 11 -14 79 -28 150 -14 72 -27 143 -30 159 -3 16 -10 52
-16 80 -15 76 -41 207 -46 236 -3 14 -13 70 -24 125 -27 133 -29 144 -36 185
-3 19 -17 89 -30 155 -13 66 -25 131 -27 145 -6 34 -36 189 -42 220 -3 14 -7
37 -10 52 -3 15 -14 73 -25 129 -11 55 -20 102 -20 105 0 2 -858 4 -1908 4
l-1907 0 0 -9170 0 -9170 -742 0 -743 0 -1 33 c0 17 -1 4143 -2 9167 l-2 9135
-1787 3 -1788 2 0 -9062 c0 -4985 0 -9111 0 -9170 l0 -108 -430 0 -430 0 -1
1413 c0 776 0 1446 1 1488 l1 76 -1899 0 c-1044 0 -1903 2 -1908 5 -5 4 -9
3060 -9 7682 l0 7676 -1852 0 -1853 0 0 -15670z m17077 6372 c1 -9 21 -109 44
-222 22 -113 42 -214 44 -225 2 -11 13 -67 25 -125 12 -58 24 -116 27 -130 2
-14 20 -104 40 -200 19 -96 37 -186 39 -200 2 -14 9 -47 15 -75 6 -27 12 -59
14 -70 2 -11 13 -67 25 -125 12 -58 24 -116 26 -130 3 -14 14 -68 24 -120 11
-52 22 -106 24 -120 2 -14 27 -140 56 -280 29 -140 54 -266 56 -280 3 -14 39
-194 80 -400 42 -206 78 -386 80 -400 2 -14 9 -47 15 -75 6 -27 12 -59 14 -70
2 -11 13 -67 25 -125 12 -58 24 -116 26 -130 2 -14 9 -47 15 -75 6 -27 12 -59
14 -70 2 -11 24 -121 48 -245 25 -124 49 -241 52 -260 3 -19 10 -51 15 -70 5
-19 12 -53 15 -75 4 -22 11 -60 17 -85 6 -25 12 -54 14 -65 1 -11 12 -67 24
-125 11 -58 22 -114 24 -125 2 -11 25 -123 51 -250 25 -126 48 -242 50 -258 2
-15 6 -31 9 -35 2 -4 7 -28 11 -52 3 -25 13 -73 20 -108 8 -34 17 -74 20 -90
2 -15 25 -130 50 -257 26 -126 48 -239 50 -250 1 -11 7 -40 13 -65 6 -25 13
-61 16 -80 3 -19 20 -102 36 -185 17 -82 34 -161 36 -175 3 -14 39 -194 80
-400 42 -206 78 -386 80 -400 3 -14 16 -81 30 -150 14 -69 27 -134 28 -145 2
-11 6 -29 9 -40 3 -11 9 -36 12 -55 5 -28 41 -215 59 -305 11 -52 105 -523
109 -545 3 -14 15 -72 27 -130 12 -58 23 -114 25 -125 1 -11 8 -42 14 -70 6
-27 13 -61 15 -75 2 -14 7 -42 11 -62 l7 -38 -908 0 -909 0 0 4534 c0 2494 2
4532 4 4530 3 -3 6 -12 8 -22z m10738 -44 c10 -57 12 -64 41 -208 14 -69 28
-136 30 -150 2 -14 7 -36 10 -50 3 -14 8 -35 10 -47 2 -13 6 -34 9 -48 3 -14
7 -37 10 -52 3 -16 23 -116 45 -223 22 -107 41 -206 44 -220 3 -19 115 -576
140 -700 3 -14 8 -38 11 -55 3 -16 14 -73 25 -125 11 -52 22 -111 25 -130 3
-19 8 -42 10 -50 2 -8 6 -26 9 -40 3 -14 14 -72 26 -130 12 -58 23 -116 26
-130 2 -14 7 -36 10 -50 3 -14 8 -36 10 -50 2 -14 9 -45 14 -70 5 -25 12 -56
14 -70 4 -20 38 -194 60 -305 72 -355 96 -475 100 -495 2 -14 11 -59 20 -100
8 -41 18 -91 21 -110 3 -19 8 -42 10 -50 2 -8 6 -26 9 -40 2 -14 25 -126 50
-250 25 -124 47 -236 50 -250 2 -14 20 -104 40 -200 19 -96 37 -186 40 -200 2
-14 10 -50 16 -80 6 -30 13 -66 16 -80 2 -14 7 -36 10 -50 3 -14 8 -36 11 -50
2 -14 62 -315 133 -670 71 -355 131 -656 134 -670 2 -14 14 -72 26 -130 11
-58 23 -116 26 -130 3 -14 23 -115 45 -225 22 -110 42 -211 45 -225 2 -14 16
-81 30 -150 15 -69 28 -136 31 -150 2 -14 60 -306 129 -650 69 -344 127 -636
130 -650 3 -14 25 -124 49 -246 25 -121 45 -226 45 -232 0 -9 -228 -12 -908
-12 l-908 0 0 4520 c0 2486 3 4520 7 4520 4 0 10 -19 14 -42z m-12785 -9952
c30 -4 96 -11 145 -17 102 -12 126 -15 210 -30 33 -6 73 -13 89 -16 15 -2 85
-20 155 -39 846 -232 1318 -774 1529 -1759 17 -77 33 -162 37 -189 3 -27 8
-52 9 -55 2 -3 7 -35 11 -71 3 -36 8 -78 10 -95 3 -16 7 -57 10 -90 3 -33 7
-76 10 -95 8 -59 17 -277 19 -430 l1 -145 -1047 -3 c-835 -2 -1048 0 -1049 10
0 7 -2 128 -5 268 -6 387 -11 510 -23 563 -36 154 -145 263 -300 298 -47 11
-186 13 -231 5 -193 -38 -304 -145 -350 -336 -17 -67 -17 -234 -1 -315 42
-210 165 -442 347 -655 61 -71 484 -486 764 -750 25 -23 139 -133 254 -244
115 -110 228 -218 250 -240 338 -321 588 -590 815 -879 285 -362 522 -918 586
-1372 3 -23 7 -50 9 -62 3 -12 8 -53 11 -90 4 -37 9 -77 11 -88 18 -93 24
-657 10 -885 -12 -197 -20 -293 -30 -360 -3 -19 -8 -53 -10 -75 -10 -87 -19
-145 -41 -265 -13 -69 -26 -134 -29 -145 -163 -713 -452 -1196 -888 -1484
-201 -133 -506 -251 -758 -295 -19 -3 -44 -8 -56 -10 -12 -2 -45 -7 -74 -11
-29 -4 -62 -8 -73 -11 -133 -25 -740 -25 -922 1 -16 2 -55 6 -85 10 -49 5
-121 16 -205 30 -24 4 -65 13 -95 20 -3 1 -32 7 -65 14 -202 42 -503 159 -660
256 -22 13 -55 32 -72 41 -18 9 -33 20 -33 25 0 5 -5 9 -11 9 -19 0 -153 112
-250 209 -193 194 -335 423 -447 726 -41 109 -107 327 -118 388 -3 18 -11 61
-19 97 -8 36 -21 106 -29 155 -13 79 -18 113 -31 223 -2 13 -6 55 -10 95 -3
40 -8 83 -10 97 -15 99 -30 1477 -17 1517 6 19 2022 19 2023 1 1 -7 2 -335 4
-728 1 -393 5 -728 8 -745 3 -16 8 -50 12 -75 35 -244 160 -428 320 -471 69
-19 88 -22 156 -21 61 0 85 3 164 17 78 15 171 79 220 153 26 40 73 171 80
224 17 126 19 173 19 333 0 160 -10 370 -19 385 -1 3 -6 32 -10 65 -8 78 -58
285 -85 355 -12 30 -25 66 -29 80 -18 56 -118 250 -170 330 -113 173 -122 182
-1076 1140 -611 613 -826 836 -904 935 -57 72 -111 139 -120 150 -9 11 -52 74
-95 140 -43 66 -86 131 -95 145 -35 52 -163 312 -204 416 -39 97 -91 254 -113
339 -4 17 -8 35 -10 40 -28 107 -58 303 -70 458 -11 145 -3 613 11 637 1 3 6
41 10 85 30 362 138 756 287 1050 180 356 455 650 773 827 171 95 423 192 575
222 14 2 61 12 105 21 44 8 99 18 121 21 23 2 53 7 65 9 13 3 62 8 109 11 47
4 86 8 88 9 6 6 548 -3 602 -9z m8525 1 c11 -3 52 -8 90 -11 39 -4 81 -8 95
-10 14 -3 59 -10 100 -16 41 -7 84 -14 95 -17 11 -2 31 -6 45 -9 309 -62 618
-201 855 -383 65 -50 216 -197 283 -276 217 -256 396 -658 488 -1096 15 -72
56 -291 64 -344 16 -104 34 -246 45 -364 11 -105 12 -117 30 -371 6 -77 17
-432 19 -570 l1 -115 -1007 -3 -1008 -2 0 68 c0 343 -8 1071 -12 1087 -3 11
-9 45 -13 75 -19 140 -79 292 -146 365 -35 38 -135 89 -194 100 -115 20 -274
0 -380 -49 -72 -33 -181 -141 -217 -216 -31 -64 -65 -165 -73 -218 -2 -20 -9
-66 -14 -102 -10 -69 -8 -5406 1 -5450 3 -14 9 -50 13 -80 4 -30 8 -57 10 -60
2 -3 6 -24 10 -47 8 -59 41 -157 77 -232 90 -186 290 -275 523 -234 110 20
186 61 261 142 38 40 94 165 119 265 29 114 32 132 50 321 4 39 8 1338 6 1623
l-1 62 -275 0 -275 0 2 888 3 887 1255 0 1255 0 3 -2998 c1 -1648 -1 -2998 -5
-2998 -5 -1 -190 -2 -411 -3 -259 -1 -406 3 -411 9 -4 6 -60 143 -125 305 -65
162 -122 304 -127 315 -5 11 -28 68 -52 127 l-43 107 -44 -72 c-25 -40 -50
-79 -57 -87 -6 -8 -37 -49 -68 -90 -62 -83 -196 -225 -268 -283 -25 -21 -52
-44 -59 -50 -26 -26 -185 -126 -253 -161 -148 -74 -320 -137 -440 -161 -110
-22 -200 -36 -265 -42 -144 -15 -519 -8 -615 11 -11 2 -41 6 -66 10 -295 43
-596 164 -824 331 -465 342 -763 942 -884 1780 -11 77 -22 163 -25 190 -3 28
-8 73 -11 100 -8 82 -14 158 -22 283 -10 155 -10 5089 0 5257 4 72 10 137 12
145 2 8 6 47 9 85 4 39 8 80 10 91 2 11 8 47 12 79 4 33 8 62 9 65 1 3 5 25 9
50 51 285 139 564 253 800 47 97 165 296 202 342 6 7 34 42 63 78 263 328 617
554 1064 680 108 30 128 35 193 46 18 3 43 8 55 10 22 5 53 9 151 24 33 5 101
12 150 16 50 4 91 8 93 9 6 5 585 -3 607 -8z m-18850 -91 c90 -5 117 -8 205
-21 504 -72 862 -236 1151 -524 325 -326 517 -773 593 -1386 3 -16 7 -66 11
-110 3 -44 8 -105 11 -135 16 -166 35 -5348 20 -5555 -4 -66 -9 -138 -11 -160
-8 -106 -46 -409 -60 -475 -5 -23 -27 -130 -39 -190 -20 -103 -85 -320 -138
-460 -86 -228 -243 -503 -364 -639 -160 -179 -336 -316 -524 -406 -30 -14 -62
-30 -71 -35 -118 -63 -440 -150 -649 -176 -19 -2 -53 -6 -75 -9 -129 -15 -367
-18 -1685 -19 l-1455 -1 -3 5155 -2 5155 1492 -1 c821 -1 1538 -4 1593 -8z
m6956 4 c4 -20 3 -1974 -2 -1981 -3 -5 -430 -10 -1014 -11 l-1010 -3 0 -985
c0 -542 1 -992 3 -1000 3 -13 118 -15 973 -13 l969 1 0 -971 0 -972 -962 0
c-530 1 -967 0 -973 -2 -7 -2 -10 -400 -9 -1171 1 -642 2 -1173 3 -1179 1 -10
224 -13 1079 -13 l1077 0 0 -1002 0 -1003 -2127 0 c-2119 0 -2127 0 -2130 20
-3 17 -2 10254 1 10280 1 10 4120 15 4122 5z m8231 1 c15 -1 16 -344 16 -5153
l0 -5153 -986 1 c-543 1 -991 2 -997 3 -11 1 -15 10293 -4 10301 6 4 1911 5
1971 1z m8792 -11 c4 -14 12 -56 22 -120 2 -14 9 -45 14 -70 9 -43 28 -143 35
-185 2 -11 20 -105 40 -210 20 -104 39 -201 42 -215 2 -14 13 -70 24 -125 11
-55 22 -115 25 -134 3 -18 8 -43 10 -55 6 -27 7 -32 55 -281 22 -115 49 -253
59 -305 11 -52 21 -109 24 -126 3 -17 24 -127 47 -245 22 -118 43 -225 45
-239 3 -14 13 -68 24 -120 23 -117 57 -293 65 -340 3 -19 17 -89 30 -155 13
-66 27 -136 30 -155 3 -19 21 -114 40 -210 46 -240 44 -229 55 -285 6 -27 13
-63 15 -80 3 -16 10 -50 15 -75 10 -49 80 -410 86 -450 2 -14 8 -45 13 -70 12
-60 29 -149 35 -180 2 -14 14 -74 26 -135 12 -60 23 -117 25 -125 1 -8 8 -46
16 -85 7 -38 12 -73 11 -77 -1 -5 2 -8 8 -8 6 0 10 856 10 2418 0 1329 0 2426
0 2437 0 20 7 20 992 20 l993 -1 3 -5154 2 -5155 -1004 0 c-553 0 -1007 3
-1010 6 -5 5 -24 96 -42 199 -3 14 -16 77 -29 140 -13 63 -27 131 -30 150 -3
19 -29 148 -57 285 -27 138 -52 259 -54 270 -3 18 -23 116 -29 140 -1 6 -5 28
-9 50 -5 22 -24 119 -43 215 -19 96 -37 186 -39 200 -3 14 -12 59 -21 100 -8
41 -17 84 -19 95 -2 11 -13 67 -25 124 -11 57 -23 116 -25 130 -3 14 -23 113
-44 219 -22 107 -43 208 -46 225 -3 17 -18 97 -35 177 -16 80 -32 159 -35 175
-2 17 -25 128 -49 249 -25 120 -48 232 -50 250 -3 17 -17 83 -30 146 -13 63
-27 131 -30 150 -3 19 -24 122 -45 228 -22 107 -42 206 -45 220 -3 20 -93 468
-141 707 -4 24 -22 110 -29 145 -3 14 -10 50 -16 80 -6 30 -12 57 -14 59 -2 2
-4 -1150 -4 -2560 0 -2472 0 -2563 -18 -2569 -14 -5 -1972 -6 -1993 -1 -8 2
-6 10295 1 10301 4 3 482 5 1063 5 930 0 1057 -2 1060 -15z"/>
<path d="M3707 11116 c-1 -6 -3 -1505 -2 -3331 l0 -3320 236 1 c211 1 242 3
306 22 181 55 323 218 351 404 9 63 8 5779 -2 5826 -37 186 -182 341 -366 393
-59 16 -518 21 -523 5z"/>
</g>
</svg>
