<?xml version="1.0" encoding="UTF-8"?>
<svg width="775px" height="200px" viewBox="0 0 775 200" version="1.1" xmlns="http://www.w3.org/2000/svg" xmlns:xlink="http://www.w3.org/1999/xlink">
    <!-- Generator: Sketch 50.2 (55047) - http://www.bohemiancoding.com/sketch -->
    <title>Group 15</title>
    <desc>Created with Sketch.</desc>
    <defs></defs>
    <g id="Page-1" stroke="none" stroke-width="1" fill="none" fill-rule="evenodd">
        <g id="Group-15">
            <rect id="Rectangle-2" fill="#D22727" x="0" y="0" width="775" height="200" rx="16"></rect>
            <path d="M221.9,138 L219.5,138 L219.5,65.9 L233.8,64.8 C239.80003,64.8 243.933322,65.666658 246.2,67.4 C247.066671,68.06667 247.799997,68.666664 248.4,69.2 C249.000003,69.733336 249.499998,70.533328 249.9,71.6 L250.7,74.4 C251.166669,75.666673 251.4,77.333323 251.4,79.4 L251.4,85.2 C251.4,94.800048 250.033347,100.799988 247.3,103.2 C246.099994,104.266672 244.533343,104.899999 242.6,105.1 L258.5,138 L255.2,138 C251.86665,138 249.600006,137.683336 248.4,137.05 C247.199994,136.416664 246.100005,134.966678 245.1,132.7 L232.8,105.4 L228.1,105.4 L229,107.9 L229.1,131.9 C229.1,134.966682 228.800003,136.749998 228.2,137.25 C227.599997,137.750002 225.500018,138 221.9,138 Z M234,96.5 C237.600018,96.5 239.78333,95.766674 240.55,94.3 C241.31667,92.833326 241.7,90.43335 241.7,87.1 C241.7,83.76665 241.683333,81.6500045 241.65,80.75 C241.616667,79.8499955 241.466668,78.8166725 241.2,77.65 C240.933332,76.4833275 240.533336,75.700002 240,75.3 C238.599993,74.233328 236.600013,73.7 234,73.7 L228.1,73.7 L229,76.2 L229,94.2 L228.2,96.5 L234,96.5 Z M280.6,130.2 C285.133356,130.2 289.73331,129.86667 294.4,129.2 L294.4,137 C288.199969,138.133339 283.800013,138.7 281.2,138.7 C278.599987,138.7 276.516674,138.516669 274.95,138.15 C273.383325,137.783332 272.033339,137.350002 270.9,136.85 C269.766661,136.349997 268.833337,135.500006 268.1,134.3 C267.366663,133.099994 266.800002,131.983338 266.4,130.95 C265.999998,129.916662 265.700001,128.333344 265.5,126.2 C265.233332,123.333319 265.1,120.283349 265.1,117.05 L265.1,103.7 C265.1,98.966643 265.233332,96.0166725 265.5,94.85 C265.766668,93.6833275 266.066665,92.4166735 266.4,91.05 C266.733335,89.6833265 267.166664,88.7166695 267.7,88.15 C268.233336,87.5833305 268.883329,86.9166705 269.65,86.15 C270.416671,85.3833295 271.299995,84.866668 272.3,84.6 C275.433349,83.93333 278.233321,83.6 280.7,83.6 C283.166679,83.6 285.283324,83.9833295 287.05,84.75 C288.816675,85.5166705 290.183329,86.466661 291.15,87.6 C292.116671,88.733339 292.866664,90.333323 293.4,92.4 C294.266671,95.666683 294.7,99.933307 294.7,105.2 L295,112 L273.2,112.5 L274,114.8 C274,121.400033 274.316664,125.616657 274.95,127.45 C275.583336,129.283343 277.466651,130.2 280.6,130.2 Z M284.75,94.15 C284.116663,92.7833265 282.600012,92.1 280.2,92.1 C277.799988,92.1 276.250004,92.699994 275.55,93.9 C274.849997,95.100006 274.5,97.69998 274.5,101.7 L273.7,103.9 L286.8,103.9 L285.8,101.7 C285.733333,98.033315 285.383337,95.5166735 284.75,94.15 Z M326,147.15 C326.733337,146.249995 327.1,144.916675 327.1,143.15 C327.1,141.383324 326.750004,140.200003 326.05,139.6 C325.349997,138.999997 323.800012,138.7 321.4,138.7 C312.199954,138.7 306.816674,138.250005 305.25,137.35 C303.683325,136.449995 302.9,133.300027 302.9,127.9 C302.9,124.233315 304.333319,121.200012 307.2,118.8 C305.666659,117.399993 304.56667,115.716676 303.9,113.75 C303.23333,111.783324 302.9,109.033351 302.9,105.5 C302.9,101.966649 302.916667,99.666672 302.95,98.6 C302.983334,97.533328 303.05,96.166675 303.15,94.5 C303.25,92.833325 303.433332,91.6500035 303.7,90.95 C303.966668,90.2499965 304.349997,89.366672 304.85,88.3 C305.350003,87.233328 305.966663,86.500002 306.7,86.1 C307.433337,85.699998 308.333328,85.266669 309.4,84.8 C311.133342,83.999996 314.133312,83.6 318.4,83.6 L336.5,83.6 C336.5,86.800016 336.200003,88.933328 335.6,90 C334.999997,91.066672 333.800009,91.666666 332,91.8 C333.200006,94.400013 333.8,98.333307 333.8,103.6 L333.8,108.1 C333.8,111.366683 333.666668,113.566661 333.4,114.7 C333.133332,115.833339 332.816669,116.966661 332.45,118.1 C332.083331,119.233339 331.650003,120.033331 331.15,120.5 C330.649997,120.966669 330.01667,121.53333 329.25,122.2 C328.483329,122.86667 327.600005,123.333332 326.6,123.6 C323.733319,124.200003 320.850015,124.5 317.95,124.5 C315.049986,124.5 313.233337,124.699998 312.5,125.1 C311.766663,125.500002 311.4,126.233328 311.4,127.3 C311.4,128.366672 311.566665,129.033332 311.9,129.3 C312.633337,129.900003 315.899971,130.2 321.7,130.2 C327.500029,130.2 331.266658,130.899993 333,132.3 C334.733342,133.700007 335.6,137.083306 335.6,142.45 C335.6,147.816694 334.616677,151.533323 332.65,153.6 C330.683323,155.666677 326.833362,156.7 321.1,156.7 L315.1,156.7 C311.899984,156.7 310.033336,156.383337 309.5,155.75 C308.966664,155.116663 308.7,152.933352 308.7,149.2 L321,148.5 C323.600013,148.5 325.266663,148.050005 326,147.15 Z M324.6,109.85 C324.666667,107.816657 324.7,105.750011 324.7,103.65 C324.7,101.54999 324.683333,100.050005 324.65,99.15 C324.616667,98.2499955 324.500001,97.2166725 324.3,96.05 C324.099999,94.8833275 323.800002,94.100002 323.4,93.7 C322.199994,92.633328 320.316679,92.1 317.75,92.1 C315.183321,92.1 313.56667,92.8499925 312.9,94.35 C312.23333,95.8500075 311.9,98.9499765 311.9,103.65 C311.9,108.350024 312.28333,111.616657 313.05,113.45 C313.81667,115.283343 315.449987,116.2 317.95,116.2 C320.450012,116.2 322.166662,115.650006 323.1,114.55 C324.033338,113.449995 324.533333,111.883344 324.6,109.85 Z M348.3,77.35 C347.099994,76.1166605 346.5,74.6833415 346.5,73.05 C346.5,71.4166585 347.099994,70.033339 348.3,68.9 C349.500006,67.766661 350.899992,67.2 352.5,67.2 C354.100008,67.2 355.499994,67.766661 356.7,68.9 C357.900006,70.033339 358.5,71.4166585 358.5,73.05 C358.5,74.6833415 357.900006,76.1166605 356.7,77.35 C355.499994,78.5833395 354.100008,79.2 352.5,79.2 C350.899992,79.2 349.500006,78.5833395 348.3,77.35 Z M348.1,132.4 L348.1,84.3 C352.566689,84.3 355.166663,84.5499975 355.9,85.05 C356.633337,85.5500025 357,87.299985 357,90.3 L357,138.4 C352.533311,138.4 349.933337,138.150003 349.2,137.65 C348.466663,137.149998 348.1,135.400015 348.1,132.4 Z M367.6,129.2 C373.60003,129.86667 377.566657,130.2 379.5,130.2 C381.433343,130.2 382.699997,130.033335 383.3,129.7 C383.900003,129.366665 384.349998,129.016669 384.65,128.65 C384.950001,128.283332 385.166666,127.600005 385.3,126.6 C385.500001,125.199993 385.6,123.433344 385.6,121.3 C385.6,119.699992 382.60003,116.633356 376.6,112.1 C374.333322,110.433325 372.25001,108.350013 370.35,105.85 C368.449991,103.349987 367.5,101.000011 367.5,98.8 C367.5,96.599989 367.533333,94.966672 367.6,93.9 C367.666667,92.833328 367.949997,91.5166745 368.45,89.95 C368.950002,88.3833255 369.666662,87.233337 370.6,86.5 C373.200013,84.566657 376.966642,83.6 381.9,83.6 L393.6,86 C393.066664,89.866686 392.550002,92.0166645 392.05,92.45 C391.549998,92.8833355 390.783338,93.1 389.75,93.1 C388.716662,93.1 387.500007,93.000001 386.1,92.8 L382.2,92.1 C379.466653,92.1 377.800003,92.699994 377.2,93.9 C376.733331,94.833338 376.5,96.066659 376.5,97.6 C376.5,99.133341 377.466657,100.766658 379.4,102.5 C381.333343,104.233342 383.483321,105.899992 385.85,107.5 C388.216678,109.100008 390.366657,111.083322 392.3,113.45 C394.233343,115.816678 395.2,118.166655 395.2,120.5 C395.2,122.833345 395.166667,124.599994 395.1,125.8 C395.033333,127.000006 394.750002,128.566657 394.25,130.5 C393.749998,132.433343 393.033338,133.899995 392.1,134.9 C391.166662,135.900005 389.75001,136.78333 387.85,137.55 C385.949991,138.31667 383.983344,138.7 381.95,138.7 C379.916657,138.7 378.18334,138.616667 376.75,138.45 C375.31666,138.283333 373.650009,138.033335 371.75,137.7 C369.84999,137.366665 368.466671,137.133334 367.6,137 L367.6,129.2 Z M423.4,84.3 C423.4,88.100019 423.050004,90.4499955 422.35,91.35 C421.649997,92.2500045 419.600017,92.7 416.2,92.7 L413.3,92.7 L414.2,95.2 L414.2,115 C414.2,120.666695 414.416665,124.54999 414.85,126.65 C415.283336,128.750011 416.199993,129.933332 417.6,130.2 L425.2,130.2 L425.2,138 L417.1,138.5 C413.76665,138.5 411.566672,138.16667 410.5,137.5 C409.433328,136.83333 408.633336,136.300002 408.1,135.9 C407.566664,135.499998 407.100002,134.683339 406.7,133.45 C406.299998,132.21666 406.000001,131.21667 405.8,130.45 C405.599999,129.68333 405.45,128.283344 405.35,126.25 C405.25,124.216656 405.2,122.53334 405.2,121.2 L405.2,95.2 L406,92.7 L400.7,92.7 L400.7,84.3 L406,84.3 L405.2,80.6 L405.2,75.5 C409.666689,75.5 412.28333,75.7166645 413.05,76.15 C413.81667,76.5833355 414.2,78.166653 414.2,80.9 L413.4,84.3 L423.4,84.3 Z M441.7,138 C437.233311,138 434.616671,137.750002 433.85,137.25 C433.083329,136.749998 432.7,135.000015 432.7,132 L432.7,84.3 C437.100022,84.3 439.666663,84.433332 440.4,84.7 C441.133337,84.966668 441.5,85.866659 441.5,87.4 L447.9,83.6 C449.833343,83.6 451.599992,83.799998 453.2,84.2 L454.8,84.3 C454.8,88.100019 454.533336,90.3499965 454,91.05 C453.466664,91.7500035 451.766681,92.1 448.9,92.1 L440.7,94.9 L441.7,97.7 L441.7,138 Z M476.9,130.2 C481.433356,130.2 486.03331,129.86667 490.7,129.2 L490.7,137 C484.499969,138.133339 480.100013,138.7 477.5,138.7 C474.899987,138.7 472.816674,138.516669 471.25,138.15 C469.683325,137.783332 468.333339,137.350002 467.2,136.85 C466.066661,136.349997 465.133337,135.500006 464.4,134.3 C463.666663,133.099994 463.100002,131.983338 462.7,130.95 C462.299998,129.916662 462.000001,128.333344 461.8,126.2 C461.533332,123.333319 461.4,120.283349 461.4,117.05 L461.4,103.7 C461.4,98.966643 461.533332,96.0166725 461.8,94.85 C462.066668,93.6833275 462.366665,92.4166735 462.7,91.05 C463.033335,89.6833265 463.466664,88.7166695 464,88.15 C464.533336,87.5833305 465.183329,86.9166705 465.95,86.15 C466.71667,85.3833295 467.599995,84.866668 468.6,84.6 C471.733349,83.93333 474.533321,83.6 477,83.6 C479.466679,83.6 481.583324,83.9833295 483.35,84.75 C485.116675,85.5166705 486.483328,86.466661 487.45,87.6 C488.416672,88.733339 489.166664,90.333323 489.7,92.4 C490.566671,95.666683 491,99.933307 491,105.2 L491.3,112 L469.5,112.5 L470.3,114.8 C470.3,121.400033 470.616663,125.616657 471.25,127.45 C471.883337,129.283343 473.766651,130.2 476.9,130.2 Z M481.05,94.15 C480.416663,92.7833265 478.900012,92.1 476.5,92.1 C474.099988,92.1 472.550004,92.699994 471.85,93.9 C471.149996,95.100006 470.8,97.69998 470.8,101.7 L470,103.9 L483.1,103.9 L482.1,101.7 C482.033333,98.033315 481.683336,95.5166735 481.05,94.15 Z M509.2,138 C504.733311,138 502.116671,137.750002 501.35,137.25 C500.583329,136.749998 500.2,135.000015 500.2,132 L500.2,84.3 C504.600022,84.3 507.166663,84.433332 507.9,84.7 C508.633337,84.966668 509,85.866659 509,87.4 L515.4,83.6 C517.333343,83.6 519.099992,83.799998 520.7,84.2 L522.3,84.3 C522.3,88.100019 522.033336,90.3499965 521.5,91.05 C520.966664,91.7500035 519.266681,92.1 516.4,92.1 L508.2,94.9 L509.2,97.7 L509.2,138 Z M547.7,96.7 L547.8,94 C547.8,93.066662 547.700001,92.566667 547.5,92.5 C547.299999,92.433333 547.066668,92.2833345 546.8,92.05 C546.533332,91.8166655 546.183335,91.766666 545.75,91.9 C545.316665,92.033334 544.800003,92.066667 544.2,92 L538.8,92.7 C537.399993,92.900001 536.200005,93 535.2,93 C534.199995,93 533.433336,92.766669 532.9,92.3 C532.366664,91.833331 531.833336,89.700019 531.3,85.9 L542.9,83.6 C547.633357,83.6 550.599994,83.9499965 551.8,84.65 C553.000006,85.3500035 553.866664,85.933331 554.4,86.4 C554.933336,86.866669 555.299999,87.799993 555.5,89.2 C555.833335,90.933342 556,93.666648 556,97.4 L556,138 C552.133314,138 549.700005,137.800002 548.7,137.4 C547.699995,136.999998 547.166667,136.033341 547.1,134.5 L538.8,138.7 C536.933324,138.7 535.550004,138.683334 534.65,138.65 C533.749996,138.616667 532.850005,138.333336 531.95,137.8 C531.049996,137.266664 530.450002,136.733336 530.15,136.2 C529.849999,135.666664 529.566668,134.533342 529.3,132.8 C528.966665,130.733323 528.8,126.500032 528.8,120.1 L528.8,113.2 C528.8,105.666629 535.366601,101.766668 548.5,101.5 L547.7,99.1 L547.7,96.7 Z M538.2,130.2 C538.266667,130.2 541.6333,128.933346 548.3,126.4 L547.3,123.5 L547.3,111.6 L548.1,109.3 C545.366653,109.366667 542.966677,109.633331 540.9,110.1 C538.833323,110.566669 537.8,111.199996 537.8,112 L537.7,125.2 C537.7,128.53335 537.866665,130.2 538.2,130.2 Z" id="Registrera" fill="#FFFFFF"></path>
        </g>
    </g>
</svg>