<?xml version="1.0" encoding="UTF-8"?>
<svg width="51px" height="14px" viewBox="0 0 51 14" version="1.1" xmlns="http://www.w3.org/2000/svg" xmlns:xlink="http://www.w3.org/1999/xlink">
    <!-- Generator: Sketch 50.2 (55047) - http://www.bohemiancoding.com/sketch -->
    <title>Group 10</title>
    <desc>Created with Sketch.</desc>
    <defs></defs>
    <g id="Page-1" stroke="none" stroke-width="1" fill="none" fill-rule="evenodd">
        <g id="Group-10">
            <rect id="Rectangle-2" fill="#F7C900" x="0.133333333" y="0.722986248" width="50.8666667" height="13.1119843" rx="2"></rect>
            <path d="M14.8241429,9.57409929 L14.6666667,9.57409929 L14.6666667,4.97778614 L15.6049629,4.90766208 C15.9986555,4.90766208 16.269862,4.96291079 16.4185903,5.07340985 C16.475457,5.11590949 16.5235743,5.1541586 16.5629436,5.18815831 C16.6023128,5.22215802 16.6351201,5.27315682 16.6613663,5.34115625 L16.7138583,5.51965385 C16.7444789,5.60040316 16.7597889,5.70665067 16.7597889,5.83839956 L16.7597889,6.20814458 C16.7597889,6.82013941 16.6701158,7.20263044 16.4907669,7.35562914 C16.4120284,7.42362857 16.3092324,7.46400262 16.1823759,7.47675251 L17.2256563,9.57409929 L17.0091264,9.57409929 C16.7904082,9.57409929 16.6416821,9.55391227 16.5629436,9.51353761 C16.484205,9.47316295 16.4120291,9.38072762 16.3464137,9.23622884 L15.5393477,7.49587726 L15.2309567,7.49587726 L15.2900103,7.65525011 L15.2965718,9.18522952 C15.2965718,9.38072787 15.2768875,9.49441271 15.2375182,9.52628744 C15.1981489,9.55816217 15.0603586,9.57409929 14.8241429,9.57409929 Z M15.6180859,6.92850989 C15.8543015,6.92850989 15.9975597,6.88176099 16.0478649,6.78826178 C16.0981701,6.69476257 16.1233223,6.54176616 16.1233223,6.32926795 C16.1233223,6.11676975 16.1222287,5.98183542 16.1200415,5.9244609 C16.1178543,5.86708639 16.1080122,5.80121293 16.0905147,5.72683856 C16.0730173,5.65246419 16.0467715,5.60252786 16.0117766,5.57702808 C15.919915,5.50902865 15.788686,5.47502945 15.6180859,5.47502945 L15.2309567,5.47502945 L15.2900103,5.6344023 L15.2900103,6.78188686 L15.2375182,6.92850989 L15.6180859,6.92850989 Z M18.6757504,9.07685598 C18.9732071,9.07685598 19.2750336,9.05560648 19.581239,9.01310684 L19.581239,9.51035015 C19.1744232,9.58259954 18.8857196,9.61872369 18.7151194,9.61872369 C18.5445193,9.61872369 18.4078225,9.60703647 18.305025,9.58366166 C18.2022274,9.56028686 18.1136479,9.53266251 18.0392837,9.50078778 C17.9649196,9.46891305 17.9036794,9.41472682 17.8555614,9.33822747 C17.8074434,9.26172811 17.7702619,9.19054228 17.7440157,9.12466784 C17.7177695,9.0587934 17.6980852,8.95785826 17.6849621,8.82185941 C17.6674646,8.63911096 17.658716,8.44467802 17.658716,8.23855476 L17.658716,7.38750371 C17.658716,7.08575627 17.6674646,6.89769818 17.6849621,6.82332381 C17.7024595,6.74894943 17.7221439,6.66820133 17.7440157,6.58107707 C17.7658875,6.4939528 17.7943204,6.43232925 17.8293154,6.39620455 C17.8643103,6.36007986 17.9069597,6.31758086 17.9572648,6.26870627 C18.00757,6.21983168 18.0655294,6.18689495 18.1311449,6.1698951 C18.33674,6.12739546 18.5204604,6.10614596 18.6823119,6.10614596 C18.8441633,6.10614596 18.9830473,6.13058288 19.0989679,6.17945747 C19.2148885,6.22833206 19.3045616,6.28889314 19.3679899,6.36114252 C19.4314181,6.43339191 19.480629,6.53538952 19.5156239,6.66713841 C19.5724906,6.87538665 19.6009235,7.14738027 19.6009235,7.48312743 L19.6206081,7.91662159 L18.1901985,7.94849617 L18.2426906,8.09511919 C18.2426906,8.51586564 18.2634685,8.78467183 18.305025,8.90154584 C18.3465814,9.01841985 18.4701553,9.07685598 18.6757504,9.07685598 Z M18.9480531,6.77869941 C18.9064967,6.69157514 18.8069814,6.64801366 18.6495043,6.64801366 C18.4920273,6.64801366 18.3903248,6.68626277 18.344394,6.76276212 C18.2984632,6.83926147 18.2754982,7.00500759 18.2754982,7.26000543 L18.2230061,7.40025354 L19.0825641,7.40025354 L19.016949,7.26000543 C19.0125746,7.02625741 18.9896096,6.86582367 18.9480531,6.77869941 Z M21.6546767,10.1574039 C21.7027947,10.1000294 21.7268534,10.0150314 21.7268534,9.90240737 C21.7268534,9.78978333 21.7038883,9.7143476 21.6579575,9.67609792 C21.6120267,9.63784824 21.5103243,9.61872369 21.3528472,9.61872369 C20.7491851,9.61872369 20.3959606,9.59003686 20.293163,9.53266235 C20.1903655,9.47528783 20.1389675,9.27448005 20.1389675,8.93023296 C20.1389675,8.69648493 20.2330149,8.50311447 20.4211125,8.35011576 C20.3205022,8.26086652 20.2483262,8.15355653 20.2045826,8.02818259 C20.160839,7.90280865 20.1389675,7.72750027 20.1389675,7.50225217 C20.1389675,7.27700408 20.1400611,7.13038251 20.1422483,7.06238309 C20.1444354,6.99438366 20.1488097,6.90726071 20.1553713,6.80101161 C20.1619328,6.6947625 20.1739621,6.61932677 20.1914596,6.57470215 C20.208957,6.53007753 20.2341093,6.47376635 20.266917,6.40576692 C20.2997247,6.3377675 20.340187,6.2910186 20.3883049,6.26551881 C20.4364229,6.24001903 20.495476,6.21239468 20.5654658,6.18264493 C20.6791992,6.13164536 20.8760426,6.10614596 21.1560018,6.10614596 L22.3436355,6.10614596 C22.3436355,6.31014423 22.3239511,6.44614104 22.2845819,6.51414047 C22.2452126,6.58213989 22.1664752,6.62038899 22.0483674,6.62888892 C22.127106,6.79463752 22.1664746,7.04538164 22.1664746,7.3811288 L22.1664746,7.66799994 C22.1664746,7.87624818 22.157726,8.01649489 22.1402286,8.08874428 C22.1227311,8.16099367 22.1019532,8.23324197 22.0778942,8.30549136 C22.0538352,8.37774075 22.0254023,8.42873956 21.9925946,8.4584893 C21.9597869,8.48823905 21.918231,8.5243632 21.8679259,8.56686285 C21.8176207,8.60936249 21.7596612,8.63911179 21.6940458,8.65611164 C21.5059482,8.69436132 21.3167598,8.71348587 21.126475,8.71348587 C20.9361902,8.71348587 20.8169906,8.72623557 20.7688726,8.75173536 C20.7207546,8.77723514 20.696696,8.82398405 20.696696,8.89198347 C20.696696,8.9599829 20.7076317,9.0024819 20.7295036,9.01948175 C20.7776216,9.05773143 20.9919621,9.07685598 21.3725317,9.07685598 C21.7531013,9.07685598 22.0002491,9.12147994 22.1139826,9.21072918 C22.227716,9.29997843 22.2845819,9.51566087 22.2845819,9.85778298 C22.2845819,10.1999051 22.220061,10.436837 22.0910173,10.5685859 C21.9619735,10.7003348 21.7093579,10.7662083 21.3331626,10.7662083 L20.9394719,10.7662083 C20.7295025,10.7662083 20.6070222,10.7460212 20.5720273,10.7056466 C20.5370324,10.6652719 20.5195352,10.5260877 20.5195352,10.2880897 L21.3266011,10.2434653 C21.4972013,10.2434653 21.6065587,10.2147785 21.6546767,10.1574039 Z M21.5628156,7.77956094 C21.5671899,7.64993704 21.5693771,7.51819013 21.5693771,7.38431626 C21.5693771,7.25044239 21.5682835,7.15481963 21.5660963,7.09744512 C21.5639091,7.0400706 21.5562541,6.97419715 21.543131,6.89982278 C21.5300079,6.82544841 21.5103236,6.77551208 21.4840774,6.75001229 C21.4053389,6.68201287 21.281765,6.64801366 21.113352,6.64801366 C20.944939,6.64801366 20.8388623,6.69582504 20.7951187,6.79144923 C20.751375,6.88707343 20.7295036,7.08469379 20.7295036,7.38431626 C20.7295036,7.68393872 20.7546558,7.89218384 20.8049609,8.00905785 C20.8552661,8.12593186 20.9624364,8.18436799 21.126475,8.18436799 C21.2905136,8.18436799 21.4031518,8.14930631 21.4643929,8.07918191 C21.525634,8.0090575 21.5584412,7.90918484 21.5628156,7.77956094 Z M23.1178939,5.70771382 C23.0391553,5.62908948 22.9997866,5.53771663 22.9997866,5.43359251 C22.9997866,5.32946839 23.0391553,5.24128295 23.1178939,5.16903357 C23.1966324,5.09678418 23.2884926,5.06066002 23.3934773,5.06066002 C23.4984621,5.06066002 23.5903223,5.09678418 23.6690608,5.16903357 C23.7477994,5.24128295 23.7871681,5.32946839 23.7871681,5.43359251 C23.7871681,5.53771663 23.7477994,5.62908948 23.6690608,5.70771382 C23.5903223,5.78633815 23.4984621,5.82564973 23.3934773,5.82564973 C23.2884926,5.82564973 23.1966324,5.78633815 23.1178939,5.70771382 Z M23.1047708,9.2171041 L23.1047708,6.15077036 C23.3978532,6.15077036 23.5684508,6.16670748 23.6165688,6.19858221 C23.6646867,6.23045694 23.6887454,6.34201683 23.6887454,6.53326521 L23.6887454,9.59959895 C23.3956631,9.59959895 23.2250655,9.58366182 23.1769475,9.55178709 C23.1288295,9.51991236 23.1047708,9.40835248 23.1047708,9.2171041 Z M24.3842656,9.01310684 C24.7779583,9.05560648 25.038229,9.07685598 25.1650855,9.07685598 C25.2919421,9.07685598 25.3750537,9.06623123 25.414423,9.04498141 C25.4537922,9.02373159 25.4833188,9.00141961 25.5030034,8.97804481 C25.522688,8.95467001 25.5369045,8.91110853 25.5456532,8.84735907 C25.5587763,8.75810983 25.5653378,8.64548747 25.5653378,8.50948862 C25.5653378,8.40748948 25.3684944,8.21199407 24.9748017,7.92299651 C24.8260733,7.81674741 24.6893766,7.68393802 24.5647072,7.52456437 C24.4400379,7.36519072 24.3777041,7.21538173 24.3777041,7.07513292 C24.3777041,6.9348841 24.3798913,6.83076155 24.3842656,6.76276212 C24.38864,6.6947627 24.4072308,6.61082716 24.4400385,6.51095301 C24.4728462,6.41107885 24.5198699,6.33776807 24.581111,6.29101847 C24.7517111,6.16776951 24.9988589,6.10614596 25.3225618,6.10614596 L26.0902587,6.2591439 C26.0552638,6.50564181 26.021363,6.6427011 25.9885553,6.67032586 C25.9557475,6.69795063 25.9054431,6.71176281 25.8376405,6.71176281 C25.7698379,6.71176281 25.6900069,6.70538796 25.5981453,6.69263806 L25.3422464,6.64801366 C25.1628975,6.64801366 25.05354,6.68626277 25.0141708,6.76276212 C24.9835502,6.82226162 24.9682402,6.90088477 24.9682402,6.99863395 C24.9682402,7.09638312 25.0316675,7.20050568 25.158524,7.31100474 C25.2853806,7.42150381 25.4264516,7.52775132 25.5817415,7.62975045 C25.7370314,7.73174959 25.8781025,7.85818413 26.004959,8.00905785 C26.1318156,8.15993158 26.1952429,8.30974056 26.1952429,8.4584893 C26.1952429,8.60723805 26.1930557,8.7198604 26.1886814,8.79635976 C26.184307,8.87285911 26.1657162,8.97273177 26.1329085,9.09598073 C26.1001008,9.21922968 26.0530771,9.31272749 25.991836,9.37647695 C25.9305949,9.44022641 25.8376411,9.49653759 25.7129718,9.54541218 C25.5883024,9.59428676 25.4592606,9.61872369 25.3258426,9.61872369 C25.1924245,9.61872369 25.0786928,9.61341132 24.984644,9.60278641 C24.8905952,9.5921615 24.7812377,9.57622437 24.6565684,9.55497455 C24.531899,9.53372473 24.4411324,9.51885008 24.3842656,9.51035015 L24.3842656,9.01310684 Z M28.0455892,6.15077036 C28.0455892,6.39301831 28.0226241,6.54282729 27.9766933,6.60020181 C27.9307625,6.65757632 27.7962529,6.68626315 27.5731604,6.68626315 L27.3828765,6.68626315 L27.4419301,6.84563601 L27.4419301,8.10786902 C27.4419301,8.46911597 27.4561466,8.71667266 27.48458,8.85054653 C27.5130133,8.9844204 27.5731599,9.05985613 27.6650215,9.07685598 L28.1636964,9.07685598 L28.1636964,9.57409929 L27.632214,9.60597386 C27.4134958,9.60597386 27.269144,9.58472436 27.1991542,9.54222472 C27.1291644,9.49972508 27.0766728,9.46572588 27.0416779,9.44022609 C27.006683,9.41472631 26.9760629,9.36266503 26.9498167,9.2840407 C26.9235706,9.20541636 26.9038862,9.14166786 26.8907631,9.09279327 C26.87764,9.04391868 26.8677979,8.95467078 26.8612363,8.82504687 C26.8546748,8.69542297 26.8513941,8.58811298 26.8513941,8.5031137 L26.8513941,6.84563601 L26.9038862,6.68626315 L26.556126,6.68626315 L26.556126,6.15077036 L26.9038862,6.15077036 L26.8513941,5.91489853 L26.8513941,5.5897779 C27.1444764,5.5897779 27.3161676,5.60359008 27.3664727,5.63121485 C27.4167779,5.65883961 27.4419301,5.75977475 27.4419301,5.93402327 L27.389438,6.15077036 L28.0455892,6.15077036 Z M29.2463459,9.57409929 C28.9532635,9.57409929 28.7815724,9.55816217 28.7312672,9.52628744 C28.680962,9.49441271 28.6558098,9.38285282 28.6558098,9.19160444 L28.6558098,6.15077036 C28.9445178,6.15077036 29.1129282,6.15927016 29.1610462,6.17627001 C29.2091642,6.19326987 29.2332228,6.25064352 29.2332228,6.3483927 L29.6531596,6.10614596 C29.7800161,6.10614596 29.895935,6.11889566 30.0009197,6.14439544 L30.1059039,6.15077036 C30.1059039,6.39301831 30.0884067,6.53645244 30.0534118,6.58107707 C30.0184169,6.62570169 29.9068723,6.64801366 29.7187747,6.64801366 L29.1807308,6.82651126 L29.2463459,7.00500886 L29.2463459,9.57409929 Z M31.555998,9.07685598 C31.8534547,9.07685598 32.1552812,9.05560648 32.4614866,9.01310684 L32.4614866,9.51035015 C32.0546709,9.58259954 31.7659672,9.61872369 31.5953671,9.61872369 C31.4247669,9.61872369 31.2880701,9.60703647 31.1852726,9.58366166 C31.0824751,9.56028686 30.9938955,9.53266251 30.9195314,9.50078778 C30.8451672,9.46891305 30.783927,9.41472682 30.735809,9.33822747 C30.6876911,9.26172811 30.6505095,9.19054228 30.6242633,9.12466784 C30.5980172,9.0587934 30.5783328,8.95785826 30.5652097,8.82185941 C30.5477123,8.63911096 30.5389637,8.44467802 30.5389637,8.23855476 L30.5389637,7.38750371 C30.5389637,7.08575627 30.5477123,6.89769818 30.5652097,6.82332381 C30.5827072,6.74894943 30.6023915,6.66820133 30.6242633,6.58107707 C30.6461352,6.4939528 30.6745681,6.43232925 30.709563,6.39620455 C30.7445579,6.36007986 30.7872073,6.31758086 30.8375125,6.26870627 C30.8878177,6.21983168 30.9457771,6.18689495 31.0113925,6.1698951 C31.2169876,6.12739546 31.4007081,6.10614596 31.5625595,6.10614596 C31.724411,6.10614596 31.8632949,6.13058288 31.9792155,6.17945747 C32.0951362,6.22833206 32.1848092,6.28889314 32.2482375,6.36114252 C32.3116658,6.43339191 32.3608766,6.53538952 32.3958715,6.66713841 C32.4527382,6.87538665 32.4811712,7.14738027 32.4811712,7.48312743 L32.5008557,7.91662159 L31.0704461,7.94849617 L31.1229382,8.09511919 C31.1229382,8.51586564 31.1437162,8.78467183 31.1852726,8.90154584 C31.2268291,9.01841985 31.350403,9.07685598 31.555998,9.07685598 Z M31.8283008,6.77869941 C31.7867443,6.69157514 31.687229,6.64801366 31.529752,6.64801366 C31.3722749,6.64801366 31.2705725,6.68626277 31.2246417,6.76276212 C31.1787109,6.83926147 31.1557458,7.00500759 31.1557458,7.26000543 L31.1032537,7.40025354 L31.9628117,7.40025354 L31.8971966,7.26000543 C31.8928223,7.02625741 31.8698572,6.86582367 31.8283008,6.77869941 Z M33.6753663,9.57409929 C33.382284,9.57409929 33.2105928,9.55816217 33.1602877,9.52628744 C33.1099825,9.49441271 33.0848303,9.38285282 33.0848303,9.19160444 L33.0848303,6.15077036 C33.3735382,6.15077036 33.5419487,6.15927016 33.5900667,6.17627001 C33.6381847,6.19326987 33.6622433,6.25064352 33.6622433,6.3483927 L34.0821801,6.10614596 C34.2090366,6.10614596 34.3249555,6.11889566 34.4299402,6.14439544 L34.5349244,6.15077036 C34.5349244,6.39301831 34.5174272,6.53645244 34.4824323,6.58107707 C34.4474374,6.62570169 34.3358928,6.64801366 34.1477952,6.64801366 L33.6097512,6.82651126 L33.6753663,7.00500886 L33.6753663,9.57409929 Z M36.2015484,6.94125972 L36.2081099,6.76913704 C36.2081099,6.70963754 36.2015484,6.67776329 36.1884253,6.67351332 C36.1753023,6.66926336 36.1599922,6.65970108 36.1424948,6.64482621 C36.1249973,6.62995133 36.1020322,6.62676391 36.0735989,6.63526384 C36.0451655,6.64376376 36.0112647,6.64588871 35.9718955,6.64163875 L35.6175738,6.68626315 C35.5257122,6.69901304 35.4469748,6.70538789 35.3813594,6.70538789 C35.3157439,6.70538789 35.2654395,6.69051324 35.2304446,6.66076349 C35.1954497,6.63101374 35.1604553,6.49501693 35.1254604,6.25276898 L35.8865958,6.10614596 C36.1971756,6.10614596 36.3918318,6.12845793 36.4705704,6.17308256 C36.5493089,6.21770718 36.6061748,6.25489381 36.6411697,6.28464355 C36.6761646,6.3143933 36.7002232,6.37389191 36.7133463,6.46314115 C36.7352181,6.57364022 36.7461538,6.74788613 36.7461538,6.98588412 L36.7461538,9.57409929 C36.4924408,9.57409929 36.3327789,9.56134959 36.2671635,9.53584981 C36.201548,9.51035002 36.1665537,9.44872647 36.1621793,9.35097729 L35.6175738,9.61872369 C35.4950917,9.61872369 35.404325,9.61766122 35.3452711,9.61553623 C35.2862172,9.61341125 35.2271642,9.59534918 35.1681103,9.56134946 C35.1090564,9.52734975 35.0696877,9.49335055 35.050003,9.45935084 C35.0303184,9.42535112 35.0117277,9.35310282 34.9942302,9.24260375 C34.9723584,9.11085487 34.9614226,8.8409862 34.9614226,8.43298965 L34.9614226,7.99312057 C34.9614226,7.51287463 35.3922909,7.26425546 36.2540405,7.2472556 L36.2015484,7.09425766 L36.2015484,6.94125972 Z M35.5782047,9.07685598 C35.5825791,9.07685598 35.8034811,8.99610788 36.2409174,8.83460924 L36.1753023,8.64973673 L36.1753023,7.89112194 L36.2277944,7.74449891 C36.0484455,7.74874887 35.8909708,7.76574848 35.7553656,7.79549822 C35.6197603,7.82524797 35.5519587,7.86562203 35.5519587,7.91662159 L35.5453972,8.75811027 C35.5453972,8.97060848 35.5563329,9.07685598 35.5782047,9.07685598 Z" id="Registrera" fill="#FFFFFF"></path>
        </g>
    </g>
</svg>