<?xml version="1.0" encoding="UTF-8"?>
<svg width="212px" height="284px" viewBox="0 0 212 284" version="1.1" xmlns="http://www.w3.org/2000/svg" xmlns:xlink="http://www.w3.org/1999/xlink">
    <!-- Generator: Sketch 50.2 (55047) - http://www.bohemiancoding.com/sketch -->
    <title>Group 5</title>
    <desc>Created with Sketch.</desc>
    <defs>
        <polygon id="path-1" points="0.0219328851 0 8.80346689 0 8.80346689 15.5621339 0.0219328851 15.5621339"></polygon>
    </defs>
    <g id="Page-1" stroke="none" stroke-width="1" fill="none" fill-rule="evenodd">
        <g id="Tablet" transform="translate(-112.000000, -103.000000)">
            <g id="Group-5" transform="translate(112.000000, 103.000000)">
                <rect id="Rectangle-2" stroke="#000000" stroke-width="11" fill="#FFFFFF" x="5.5" y="5.5" width="201" height="273"></rect>
                <g id="Group" transform="translate(39.000000, 24.000000)">
                    <g id="Rectangle-8">
                        <g id="path-1-link" fill="#FFFFFF">
                            <rect id="path-1" x="0" y="0" width="133" height="236" rx="8"></rect>
                        </g>
                        <rect id="Rectangle-path" stroke="#979797" x="0.289130435" y="0.288508557" width="132.421739" height="235.422983" rx="8"></rect>
                    </g>
                    <rect id="Rectangle-9" fill="#EBEBEB" fill-rule="nonzero" x="8" y="9" width="117" height="217"></rect>
                    <path d="M43,95.3333337 C43,92.0611114 40.6304081,89.3137779 37.4288953,88.5468892 L37.4288953,84.7864449 C40.6304081,84.0195556 43,81.2722227 43,78.0000004 C43,74.1340002 39.6929652,71 35.6134642,71 C31.5339638,71 28.226929,74.1340002 28.226929,78.0000004 C28.226929,81.2722227 30.5965203,84.0195556 33.7980331,84.7864449 L33.7980331,88.5468892 C30.5965203,89.3137779 28.226929,92.0611114 28.226929,95.3333337 C28.226929,98.605556 30.5965203,101.352889 33.7980331,102.119778 L33.7980331,105.164 C30.4823753,105.852889 28,108.651111 28,112 C28,115.866 31.3070348,119 35.3865352,119 C39.4660362,119 42.773071,115.866 42.773071,112 C42.773071,108.805778 40.5144477,106.113111 37.4288953,105.273111 L37.4288953,102.119778 C40.6304081,101.352889 43,98.605556 43,95.3333337" id="Fill-1" fill="#C3A550" fill-rule="nonzero"></path>
                    <path d="M63.8121501,84.6801511 C63.1495243,79.9631674 59.3946443,73 59.3946443,73 C59.3946443,73 56.0815145,79.9631674 55.1980133,84.6801511 C54.3536071,89.1891391 56.3023899,93.2156464 59.2842066,92.9910281 C63.5853109,92.6671282 64.4507006,89.2239548 63.8121501,84.6801511" id="Fill-3" fill="#C3A550" fill-rule="nonzero"></path>
                    <path d="M63.9612055,44 L59.9852232,44 C59.9852232,49.3126663 60.2454291,54.6317778 59.9852232,59.938 C59.798352,63.7519995 57.7118449,65.6108888 52.9243203,65.8228886 C54.751726,63.8786666 57.3345685,60.6111109 57.3345685,57.6666662 C57.3345685,51.0959999 50.9288194,46.8888886 50.9288194,46.8888886 C50.9288194,46.8888886 44.3021823,51.5393333 44.3021823,57.6666662 C44.3021823,61.4097778 46.6939565,64.1817774 48.6503603,65.8239998 C43.5513843,65.6584443 41.6245789,63.5111108 41.4306396,59.5555557 C41.1706544,54.2493334 41.4306396,49.3126663 41.4306396,44 L37.051758,44 C37.051758,50.6853334 36.7334581,62.3731108 37.6755452,65.1111112 C39.2935489,69.8135554 44.7410862,69.9526663 48.4990521,69.7217776 L48.4990521,84 L52.2541465,84 L52.2541465,69.6384442 C56.007253,69.6835554 61.6432077,69.0333332 63.2985414,64.222222 C64.2408494,61.4842223 63.9612055,50.6853334 63.9612055,44" id="Fill-5" fill="#C3A550" fill-rule="nonzero"></path>
                    <path d="M57.6454671,28.8371337 L54.1768992,28.8371337 C51.7818621,28.8371337 49.8223663,30.8202087 49.8223663,33.2440655 L49.8223663,35.0390883 L47.1959897,35.0390883 L47.1959897,26.8436483 L49.6262635,26.8436483 C52.0213001,26.8436483 53.9807965,24.8605733 53.9807965,22.4367166 L53.9807965,17.4069316 C53.9807965,14.9830749 52.0213001,13 49.6262635,13 L44.1091218,13 C41.7140847,13 39.7545889,14.9830749 39.7545889,17.4069316 L39.7545889,22.4367166 C39.7545889,24.8605733 41.7140847,26.8436483 44.1091218,26.8436483 L44.569613,26.8436483 L44.569613,33.0456029 L42.5210391,33.0456029 L42.5210391,32.5795701 C42.5210391,30.1557134 40.5615433,28.1726384 38.1665062,28.1726384 L35.3545323,28.1726384 C32.9594958,28.1726384 31,30.1557134 31,32.5795701 L31,36.1696158 C31,38.5934726 32.9594958,40.5765476 35.3545323,40.5765476 L38.1665062,40.5765476 C40.5615433,40.5765476 42.5210391,38.5934726 42.5210391,36.1696158 L42.5210391,35.4820846 L44.569613,35.4820846 L44.569613,47 L47.1959897,47 L47.1959897,37.2540715 L49.8435963,37.2540715 C50.0543628,39.4827884 51.9219357,41.2410423 54.1768992,41.2410423 L57.6454671,41.2410423 C60.0405042,41.2410423 62,39.2579679 62,36.8341111 L62,33.2440655 C62,30.8202087 60.0405042,28.8371337 57.6454671,28.8371337" id="Fill-7" fill="#C3A550" fill-rule="nonzero"></path>
                    <path d="M32.7035343,58.6917236 L22.4840654,53.9589676 L22.4840654,50.7611062 C26.5689818,49.9827096 29.6612696,46.3389127 29.6612696,41.9585252 C29.6612696,37.010765 25.7175044,33 20.8528822,33 C15.9880426,33 12.0444953,37.010765 12.0444953,41.9585252 C12.0444953,46.4165532 15.2466158,50.1125529 19.4391907,50.8007006 L19.4391907,53.6375665 L9.49680506,58.1174932 C8.82432296,58.4205347 8.83758989,59.3876131 9.51811925,59.6691983 L19.4391907,63.7728661 L19.4391907,64.5287003 L10.5220582,67.064516 C9.89677125,67.3230965 9.68667488,68.5556127 10.3045671,68.8341012 L19.4391907,73.3759631 L19.4391907,81 L22.4840654,81 L22.4840654,73.3286269 L31.4011979,69.2764976 C31.7813723,69.0670232 31.5795404,67.90706 31.1837067,67.7281106 L22.4840654,64.8629306 L22.4840654,63.4432808 L32.6617755,59.7220643 C33.0928428,59.5271889 33.1174193,58.9195576 32.7035343,58.6917236" id="Fill-9" fill="#C3A550" fill-rule="nonzero"></path>
                    <path d="M22.2631579,116 L14.7368421,116 C13.2315787,116 12,114.786957 12,113.304348 L12,87.6956524 C12,86.2130436 13.2315787,85 14.7368421,85 L22.2631579,85 C23.7684207,85 25,86.2130436 25,87.6956524 L25,113.304348 C25,114.786957 23.7684207,116 22.2631579,116" id="Fill-11" fill="#C3A550" fill-rule="nonzero"></path>
                    <path d="M49.6225761,113.405332 L44.1530736,103.664834 C43.9530401,103.308384 43.9487658,102.871318 44.1419603,102.510947 L49.4473333,92.6148825 C49.8929202,91.7841098 51.0679029,91.7980541 51.4942556,92.6392852 L56.8707942,103.248685 C57.0535169,103.609492 57.0417627,104.040675 56.8398059,104.390589 L51.6273979,113.417751 C51.1760402,114.199501 50.0647437,114.192746 49.6225761,113.405332" id="Fill-13" fill="#C3A550" fill-rule="nonzero"></path>
                    <path d="M87,108.5 C87,103.805733 83.4184696,100 79.0002202,100 C74.5817503,100 71,103.805733 71,108.5 C71,113.194267 74.5817503,117 79.0002202,117 C83.4184696,117 87,113.194267 87,108.5" id="Fill-15" fill="#C3A550" fill-rule="nonzero"></path>
                    <path d="M99,34.6666663 C99,37.9388886 96.6304439,40.6862221 93.4287527,41.4531108 L93.4287527,45.2135552 C96.6304439,45.9804444 99,48.7277774 99,51.9999996 C99,55.8659998 95.6930152,59 91.6133491,59 C87.5341372,59 84.2269256,55.8659998 84.2269256,51.9999996 C84.2269256,48.7277774 86.5967079,45.9804444 89.7979455,45.2135552 L89.7979455,41.4531108 C86.5967079,40.6862221 84.2269256,37.9388886 84.2269256,34.6666663 C84.2269256,31.3944446 86.5967079,28.6471111 89.7979455,27.8802224 L89.7979455,24.8359997 C86.4825646,24.1471109 84,21.348889 84,18 C84,14.134 87.3072116,11 91.3864235,11 C95.4660896,11 98.7730744,14.134 98.7730744,18 C98.7730744,21.1942222 96.5144853,23.8868889 93.4287527,24.726889 L93.4287527,27.8802224 C96.6304439,28.6471111 99,31.3944446 99,34.6666663" id="Fill-17" fill="#C3A550" fill-rule="nonzero"></path>
                    <path d="M121.81215,46.3198489 C121.149524,51.0368326 117.394644,58 117.394644,58 C117.394644,58 114.081514,51.0368326 113.198013,46.3198489 C112.353607,41.8108609 114.30239,37.7843536 117.284207,38.0089719 C121.585311,38.3328713 122.450701,41.7760452 121.81215,46.3198489" id="Fill-19" fill="#C3A550" fill-rule="nonzero"></path>
                    <path d="M119.961206,86 L115.985223,86 C115.985223,80.6873337 116.245429,75.3682222 115.985223,70.0620005 C115.798352,66.2480005 113.711845,64.3891112 108.9241,64.1771114 C110.751947,66.1213334 113.334568,69.3888891 113.334568,72.3333338 C113.334568,78.9040001 106.928819,83.1111114 106.928819,83.1111114 C106.928819,83.1111114 100.302182,78.4606667 100.302182,72.3333338 C100.302182,68.5902222 102.693956,65.8182226 104.650361,64.1760002 C99.5513841,64.3415557 97.6245793,66.4888892 97.4306394,70.4444449 C97.1706543,75.7506672 97.4306394,80.6873337 97.4306394,86 L93.0517578,86 C93.0517578,79.3146672 92.7334585,67.6268892 93.6755451,64.8888894 C95.2935493,60.1864446 100.740866,60.0473337 104.499053,60.2782224 L104.499053,46 L108.254147,46 L108.254147,60.3615558 C112.007253,60.3164446 117.643208,60.9666668 119.298542,65.777778 C120.240849,68.5157783 119.961206,79.3146672 119.961206,86" id="Fill-21" fill="#C3A550" fill-rule="nonzero"></path>
                    <path d="M113.645468,102.162866 L110.176899,102.162866 C107.782081,102.162866 105.822367,100.179791 105.822367,97.7559345 L105.822367,95.9609117 L103.19599,95.9609117 L103.19599,104.156352 L105.626264,104.156352 C108.021301,104.156352 109.980796,106.139427 109.980796,108.563283 L109.980796,113.593068 C109.980796,116.016925 108.021301,118 105.626264,118 L100.109122,118 C97.714304,118 95.7545894,116.016925 95.7545894,113.593068 L95.7545894,108.563283 C95.7545894,106.139427 97.714304,104.156352 100.109122,104.156352 L100.569613,104.156352 L100.569613,97.954397 L98.5210391,97.954397 L98.5210391,98.4204298 C98.5210391,100.844287 96.5615433,102.827362 94.1665067,102.827362 L91.3545329,102.827362 C88.9597146,102.827362 87,100.844287 87,98.4204298 L87,94.8303842 C87,92.4065274 88.9597146,90.4234524 91.3545329,90.4234524 L94.1665067,90.4234524 C96.5615433,90.4234524 98.5210391,92.4065274 98.5210391,94.8303842 L98.5210391,95.5179154 L100.569613,95.5179154 L100.569613,84 L103.19599,84 L103.19599,93.7459284 L105.843596,93.7459284 C106.054363,91.5172115 107.922155,89.7589577 110.176899,89.7589577 L113.645468,89.7589577 C116.040504,89.7589577 118,91.7420327 118,94.1658894 L118,97.7559345 C118,100.179791 116.040504,102.162866 113.645468,102.162866" id="Fill-23" fill="#C3A550" fill-rule="nonzero"></path>
                    <path d="M88.7036954,72.3082764 L78.4839503,77.0410324 L78.4839503,80.2388938 C82.5691079,81.0172904 85.661196,84.6610873 85.661196,89.0414748 C85.661196,93.989235 81.7176257,98 76.8527584,98 C71.9881085,98 68.0443213,93.989235 68.0443213,89.0414748 C68.0443213,84.5834468 71.24646,80.8874471 75.4390588,80.1992994 L75.4390588,77.3624335 L65.496834,72.8825068 C64.824348,72.5794653 64.8376153,71.6123874 65.5179309,71.3308017 L75.4390588,67.2271339 L75.4390588,66.4712997 L66.521875,63.935484 C65.8968024,63.6769035 65.6867049,62.4443873 66.3043832,62.1658988 L75.4390588,57.6240369 L75.4390588,50 L78.4839503,50 L78.4839503,57.6713731 L87.4011341,61.7235024 C87.7813102,61.9329768 87.5794777,63.09294 87.1836417,63.2718894 L78.4839503,66.1370694 L78.4839503,67.5567192 L88.6619364,71.2779357 C89.0927887,71.4728111 89.1173653,72.0804424 88.7036954,72.3082764" id="Fill-25" fill="#C3A550" fill-rule="nonzero"></path>
                    <path d="M79.2631581,15 L71.7368425,15 C70.2315792,15 69,16.2130435 69,17.6956522 L69,43.3043476 C69,44.7869564 70.2315792,46 71.7368425,46 L79.2631581,46 C80.7686488,46 82,44.7869564 82,43.3043476 L82,17.6956522 C82,16.2130435 80.7686488,15 79.2631581,15" id="Fill-27" fill="#C3A550" fill-rule="nonzero"></path>
                    <path d="M103.622697,16.5946682 L98.1532603,26.3351663 C97.9530155,26.6916162 97.9487412,27.1286819 98.1419335,27.4890535 L103.447455,37.3851175 C103.893037,38.2158902 105.068005,38.2019459 105.494354,37.3607148 L110.870614,26.7513152 C111.053548,26.3905074 111.041794,25.9593253 110.839839,25.6094115 L105.627494,16.5822491 C105.176142,15.8004993 104.064645,15.8072535 103.622697,16.5946682" id="Fill-29" fill="#C3A550" fill-rule="nonzero"></path>
                    <path d="M29,126.5 C29,131.194493 25.4182491,135 20.9999997,135 C16.5817503,135 13,131.194493 13,126.5 C13,121.805506 16.5817503,118 20.9999997,118 C25.4182491,118 29,121.805506 29,126.5" id="Fill-31" fill="#C3A550" fill-rule="nonzero"></path>
                    <path d="M42,200.333333 C42,197.060889 39.6304086,194.313778 36.4288957,193.547111 L36.4288957,189.786222 C39.6304086,189.019556 42,186.272445 42,183 C42,179.134222 38.6929651,176 34.6134645,176 C30.5339634,176 27.226929,179.134222 27.226929,183 C27.226929,186.272445 29.5965204,189.019556 32.7980334,189.786222 L32.7980334,193.547111 C29.5965204,194.313778 27.226929,197.060889 27.226929,200.333333 C27.226929,203.605778 29.5965204,206.352889 32.7980334,207.119556 L32.7980334,210.164 C29.4823754,210.853111 27,213.651111 27,217 C27,220.865778 30.3070349,224 34.3865355,224 C38.4660366,224 41.7730716,220.865778 41.7730716,217 C41.7730716,213.805778 39.5144482,211.113334 36.4288957,210.273111 L36.4288957,207.119556 C39.6304086,206.352889 42,203.605778 42,200.333333" id="Fill-33" fill="#C3A550" fill-rule="nonzero"></path>
                    <path d="M62.8121503,189.680151 C62.149524,184.963167 58.3946438,178 58.3946438,178 C58.3946438,178 55.0815145,184.963167 54.1980134,189.680151 C53.353607,194.188915 55.30239,198.215647 58.2842061,197.991029 C62.5853111,197.667129 63.4507003,194.223955 62.8121503,189.680151" id="Fill-35" fill="#C3A550" fill-rule="nonzero"></path>
                    <path d="M62.9612054,149 L58.9852236,149 C58.9852236,154.312667 59.2454295,159.631778 58.9852236,164.938223 C58.7983524,168.752 56.7118453,170.610889 51.9243207,170.822889 C53.7517264,168.878667 56.3345683,165.611112 56.3345683,162.666667 C56.3345683,156.096222 49.9288192,151.888889 49.9288192,151.888889 C49.9288192,151.888889 43.3021821,156.539556 43.3021821,162.666667 C43.3021821,166.409778 45.6939563,169.181778 47.6503607,170.823778 C42.5513846,170.658445 40.6245792,168.511334 40.4306399,164.555556 C40.1706548,159.249333 40.4306399,154.312667 40.4306399,149 L36.0517578,149 C36.0517578,155.685333 35.7334585,167.373111 36.6755456,170.111111 C38.2935492,174.813334 43.7410866,174.952667 47.4990525,174.721778 L47.4990525,189 L51.2541469,189 L51.2541469,174.638222 C55.0072534,174.683556 60.6432081,174.033334 62.2985418,169.222223 C63.2408497,166.484222 62.9612054,155.685333 62.9612054,149" id="Fill-37" fill="#C3A550" fill-rule="nonzero"></path>
                    <path d="M56.6454672,133.837134 L53.1768988,133.837134 C50.7818623,133.837134 48.8223665,135.820209 48.8223665,138.244065 L48.8223665,140.039088 L46.1959899,140.039088 L46.1959899,131.843648 L48.6262638,131.843648 C51.0213003,131.843648 52.980796,129.860573 52.980796,127.436717 L52.980796,122.406932 C52.980796,119.983075 51.0213003,118 48.6262638,118 L43.1091215,118 C40.714085,118 38.7545893,119.983075 38.7545893,122.406932 L38.7545893,127.436717 C38.7545893,129.860573 40.714085,131.843648 43.1091215,131.843648 L43.5696133,131.843648 L43.5696133,138.045602 L41.5210394,138.045602 L41.5210394,137.57957 C41.5210394,135.155713 39.5615437,133.172638 37.1665066,133.172638 L34.3545328,133.172638 C31.9594963,133.172638 30,135.155713 30,137.57957 L30,141.169616 C30,143.593473 31.9594963,145.576547 34.3545328,145.576547 L37.1665066,145.576547 C39.5615437,145.576547 41.5210394,143.593473 41.5210394,141.169616 L41.5210394,140.482085 L43.5696133,140.482085 L43.5696133,152 L46.1959899,152 L46.1959899,142.254072 L48.8435966,142.254072 C49.054363,144.482788 50.9219359,146.241042 53.1768988,146.241042 L56.6454672,146.241042 C59.0405037,146.241042 61,144.257967 61,141.834111 L61,138.244065 C61,135.820209 59.0405037,133.837134 56.6454672,133.837134" id="Fill-39" fill="#C3A550" fill-rule="nonzero"></path>
                    <path d="M31.7035338,163.691724 L21.4840649,158.958968 L21.4840649,155.760885 C25.5689819,154.98271 28.6612691,151.338912 28.6612691,146.958525 C28.6612691,142.010765 24.7175044,138 19.8528823,138 C14.9880427,138 11.0444954,142.010765 11.0444954,146.958525 C11.0444954,151.416553 14.2466159,155.112553 18.4391908,155.800479 L18.4391908,158.637567 L8.49680518,163.117493 C7.8243229,163.420535 7.83758989,164.387613 8.5181193,164.669198 L18.4391908,168.772866 L18.4391908,169.5287 L9.52205778,172.064516 C8.8967712,172.323097 8.68667488,173.555613 9.30456718,173.834101 L18.4391908,178.375963 L18.4391908,186 L21.4840649,186 L21.4840649,178.328626 L30.4011979,174.276498 C30.7813718,174.067023 30.5795405,172.906839 30.1837068,172.728111 L21.4840649,169.862931 L21.4840649,168.443281 L31.6617756,164.722064 C32.0928429,164.527189 32.1174194,163.919558 31.7035338,163.691724" id="Fill-41" fill="#C3A550" fill-rule="nonzero"></path>
                    <path d="M22.2903228,223 L13.7096778,223 C12.2193551,223 11,221.812831 11,220.361846 L11,192.638153 C11,191.187169 12.2193551,190 13.7096778,190 L22.2903228,190 C23.7806449,190 25,191.187169 25,192.638153 L25,220.361846 C25,221.812831 23.7806449,223 22.2903228,223" id="Fill-43" fill="#C3A550" fill-rule="nonzero"></path>
                    <path d="M48.6225761,218.405417 L43.1530732,208.664761 C42.9530402,208.308313 42.9487658,207.871251 43.1419604,207.510881 L48.4473328,197.614879 C48.8929202,196.784111 50.0679024,196.798055 50.4942557,197.639281 L55.8707942,208.248615 C56.0535169,208.60942 56.0417627,209.0406 55.8398059,209.390512 L50.6273974,218.417835 C50.1760402,219.199581 49.0647437,219.192608 48.6225761,218.405417" id="Fill-45" fill="#C3A550" fill-rule="nonzero"></path>
                    <path d="M86,213.5 C86,208.805506 82.41847,205 78.0002205,205 C73.5817504,205 70,208.805506 70,213.5 C70,218.194493 73.5817504,222 78.0002205,222 C82.41847,222 86,218.194493 86,213.5" id="Fill-47" fill="#C3A550" fill-rule="nonzero"></path>
                    <path d="M99,140.666667 C99,143.939111 96.6304444,146.686222 93.4287531,147.452889 L93.4287531,151.213778 C96.6304444,151.980445 99,154.727556 99,158 C99,161.865778 95.6930151,165 91.6133494,165 C87.5341368,165 84.226925,161.865778 84.226925,158 C84.226925,154.727556 86.596708,151.980445 89.7979457,151.213778 L89.7979457,147.452889 C86.596708,146.686222 84.226925,143.939111 84.226925,140.666667 C84.226925,137.394222 86.596708,134.647111 89.7979457,133.880444 L89.7979457,130.836 C86.4825647,130.146889 84,127.348888 84,124 C84,120.134222 87.3072117,117 91.3864238,117 C95.4660901,117 98.7730744,120.134222 98.7730744,124 C98.7730744,127.194222 96.5144858,129.886667 93.4287531,130.726889 L93.4287531,133.880444 C96.6304444,134.647111 99,137.394222 99,140.666667" id="Fill-49" fill="#C3A550" fill-rule="nonzero"></path>
                    <path d="M118.81215,150.319849 C118.149524,155.036832 114.394644,162 114.394644,162 C114.394644,162 111.081515,155.036832 110.198013,150.319849 C109.353607,145.811085 111.30239,141.784353 114.284207,142.008971 C118.585311,142.332871 119.450701,145.776045 118.81215,150.319849" id="Fill-51" fill="#C3A550" fill-rule="nonzero"></path>
                    <path d="M118.961206,191 L114.985223,191 C114.985223,185.687334 115.245429,180.368222 114.985223,175.061778 C114.798352,171.248 112.711845,169.389111 107.924099,169.177111 C109.751947,171.121333 112.334568,174.388889 112.334568,177.333333 C112.334568,183.903778 105.928819,188.111111 105.928819,188.111111 C105.928819,188.111111 99.3021823,183.460445 99.3021823,177.333333 C99.3021823,173.590222 101.693957,170.818223 103.65036,169.176222 C98.5513843,169.341556 96.6245789,171.488667 96.4306396,175.444444 C96.1706544,180.750667 96.4306396,185.687334 96.4306396,191 L92.051758,191 C92.051758,184.314667 91.7334581,172.626889 92.6755452,169.888889 C94.2935489,165.186667 99.7408654,165.047333 103.499052,165.278222 L103.499052,151 L107.254146,151 L107.254146,165.361778 C111.007253,165.316445 116.643208,165.966667 118.298541,170.777778 C119.240849,173.515778 118.961206,184.314667 118.961206,191" id="Fill-53" fill="#C3A550" fill-rule="nonzero"></path>
                    <path d="M113.645467,207.162866 L110.176899,207.162866 C107.782081,207.162866 105.822366,205.179792 105.822366,202.755935 L105.822366,200.960912 L103.19599,200.960912 L103.19599,209.156352 L105.626264,209.156352 C108.021301,209.156352 109.980796,211.139427 109.980796,213.563283 L109.980796,218.593068 C109.980796,221.016925 108.021301,223 105.626264,223 L100.109122,223 C97.714304,223 95.7545889,221.016925 95.7545889,218.593068 L95.7545889,213.563283 C95.7545889,211.139427 97.714304,209.156352 100.109122,209.156352 L100.569613,209.156352 L100.569613,202.954397 L98.5210391,202.954397 L98.5210391,203.42043 C98.5210391,205.844287 96.5615433,207.827362 94.1665067,207.827362 L91.3545323,207.827362 C88.9597146,207.827362 87,205.844287 87,203.42043 L87,199.830385 C87,197.406528 88.9597146,195.423453 91.3545323,195.423453 L94.1665067,195.423453 C96.5615433,195.423453 98.5210391,197.406528 98.5210391,199.830385 L98.5210391,200.517915 L100.569613,200.517915 L100.569613,189 L103.19599,189 L103.19599,198.745928 L105.843596,198.745928 C106.054363,196.517212 107.922154,194.758958 110.176899,194.758958 L113.645467,194.758958 C116.040504,194.758958 118,196.742033 118,199.165889 L118,202.755935 C118,205.179792 116.040504,207.162866 113.645467,207.162866" id="Fill-55" fill="#C3A550" fill-rule="nonzero"></path>
                    <path d="M87.7036949,177.308276 L77.4839505,182.041032 L77.4839505,185.239115 C81.5691081,186.01729 84.6611955,189.661087 84.6611955,194.041474 C84.6611955,198.989235 80.7176258,203 75.8527585,203 C70.9881086,203 67.0443215,198.989235 67.0443215,194.041474 C67.0443215,189.583447 70.2464602,185.887447 74.4390584,185.199521 L74.4390584,182.362433 L64.4968342,177.882507 C63.8243482,177.579465 63.8376149,176.612387 64.5179311,176.330802 L74.4390584,172.227133 L74.4390584,171.4713 L65.5218752,168.935484 C64.8968026,168.676903 64.6867051,167.444387 65.3043828,167.165899 L74.4390584,162.624037 L74.4390584,155 L77.4839505,155 L77.4839505,162.671373 L86.4011337,166.723502 C86.7813103,166.932977 86.5794778,168.093161 86.1836418,168.271889 L77.4839505,171.137069 L77.4839505,172.556719 L87.6619365,176.277935 C88.0927888,176.472811 88.1173654,177.080442 87.7036949,177.308276" id="Fill-57" fill="#C3A550" fill-rule="nonzero"></path>
                    <path d="M78.2631575,120 L70.7368419,120 C69.2315792,120 68,121.213043 68,122.695652 L68,148.304348 C68,149.786957 69.2315792,151 70.7368419,151 L78.2631575,151 C79.7686488,151 81,149.786957 81,148.304348 L81,122.695652 C81,121.213043 79.7686488,120 78.2631575,120" id="Fill-59" fill="#C3A550" fill-rule="nonzero"></path>
                    <path d="M105.622696,121.594583 L100.15326,131.335239 C99.9530154,131.691687 99.9487412,132.128749 100.141934,132.489119 L105.447456,142.385121 C105.893038,143.215889 107.068006,143.201945 107.494354,142.360719 L112.870613,131.751385 C113.053547,131.39058 113.041794,130.9594 112.83984,130.609489 L107.627494,121.582164 C107.176142,120.800419 106.064645,120.807391 105.622696,121.594583" id="Fill-61" fill="#C3A550" fill-rule="nonzero"></path>
                    <path d="M19.617273,13.750607 L27.7353433,25.8157627 C28.0324946,26.2573935 28.0830401,26.7934708 27.8686194,27.2317997 L21.9813416,39.2661333 C21.4872218,40.2764249 19.9565836,40.2352563 19.3153613,39.1941428 L11.2290241,26.0649782 C10.9538584,25.6185038 10.924846,25.0894712 11.1517325,24.6643519 L17.0070519,13.6942473 C17.5143178,12.7440583 18.9610913,12.7753203 19.617273,13.750607" id="Fill-63" fill="#C3A550" fill-rule="nonzero"></path>
                    <path d="M60.3091245,111.528574 C59.6629416,109.338517 60.6170068,107.032957 62.4864623,105.86048 L61.9154574,103.925376 C59.817426,104.176974 57.7993527,102.912273 57.1827194,100.82272 C56.4863448,98.4629909 57.8415048,95.948812 60.2096119,95.2072276 C62.5775013,94.4656432 65.061852,95.77735 65.7580094,98.1373026 C66.3557398,100.162614 65.4394806,102.298502 63.6712763,103.33287 L64.2153391,105.177094 C66.6573205,104.708147 69.0817026,106.130431 69.797849,108.556865 C70.5683151,111.168191 69.0688835,113.950084 66.448517,114.770684 C63.8283682,115.591284 61.0795906,114.139901 60.3091245,111.528574" id="Fill-65" fill="#C3A550" fill-rule="nonzero"></path>
                    <path d="M65.6908878,218.528472 C66.3372892,216.338649 65.3827879,214.032877 63.5135478,212.860629 L64.0845534,210.925311 C66.1825874,211.176907 68.2008806,209.912213 68.8172975,207.822894 C69.5136725,205.462953 68.158294,202.948786 65.790401,202.207206 C63.422508,201.465625 60.9383719,202.777549 60.2419964,205.13749 C59.6442653,207.162791 60.5607428,209.298445 62.3287322,210.333031 L61.7844515,212.177246 C59.3424664,211.708079 56.9182989,213.13058 56.202151,215.557001 C55.4316845,218.168314 56.9311181,220.950193 59.551488,221.770789 C62.1716401,222.591162 64.9204213,221.139786 65.6908878,218.528472" id="Fill-67" fill="#C3A550" fill-rule="nonzero"></path>
                    <path d="M64.8121455,126.344239 C64.1495091,122.570713 60.3947893,117 60.3947893,117 C60.3947893,117 57.0816067,122.570713 56.1980913,126.344239 C55.35345,129.95123 57.3024851,133.172644 60.2843498,132.992812 C64.5853032,132.733882 65.4507064,129.979174 64.8121455,126.344239" id="Fill-69" fill="#C3A550" fill-rule="nonzero"></path>
                    <g id="Group-73" transform="translate(57.000000, 11.000000)">
                        <g id="Fill-71-Clipped">
                            <mask id="mask-2" fill="white">
                                <use xlink:href="#path-1"></use>
                            </mask>
                            <g id="path-2"></g>
                            <path d="M8.62017244,6.47379651 C7.97362071,10.1440697 4.3100431,15.5621339 4.3100431,15.5621339 C4.3100431,15.5621339 1.07728448,10.1440697 0.215215517,6.47379651 C-0.608922416,2.96528269 1.29280173,-0.167765132 4.20228448,0.00692628451 C8.39883623,0.258990437 9.24323276,2.93810359 8.62017244,6.47379651" id="Fill-71" fill="#C3A550" fill-rule="nonzero" mask="url(#mask-2)"></path>
                        </g>
                    </g>
                    <path d="M119.257143,138 L116.742858,138 C115.234286,138 114,136.807792 114,135.35065 L114,106.649351 C114,105.192208 115.234286,104 116.742858,104 L119.257143,104 C120.765943,104 122,105.192208 122,106.649351 L122,135.35065 C122,136.807792 120.765943,138 119.257143,138" id="Fill-74" fill="#C3A550" fill-rule="nonzero"></path>
                    <path d="M123.976968,17.5340056 C123.747367,19.8589337 121.84472,21.6540221 119.470627,22.014764 L119.267588,24.0691356 C121.501241,24.6688251 123.03985,26.6677153 122.820874,28.8856584 C122.573255,31.3907362 120.178835,33.2229602 117.472582,32.9780448 C114.766328,32.7331294 112.773365,30.5036914 113.020753,27.9986137 C113.233262,25.8487515 115.02873,24.1984457 117.244134,23.9276686 L117.43724,21.9698923 C114.766328,21.4382844 112.878695,19.1283873 113.133244,16.5525756 C113.407196,13.7806989 116.056626,11.7532944 119.051152,12.0242928 C122.045679,12.2952913 124.251151,14.7621289 123.976968,17.5340056" id="Fill-76" fill="#C3A550" fill-rule="nonzero"></path>
                    <path d="M122.81215,217.344239 C122.149524,213.570713 118.394644,208 118.394644,208 C118.394644,208 115.081514,213.570713 114.198013,217.344239 C113.353607,220.95123 115.30239,224.172644 118.284207,223.992812 C122.585311,223.733882 123.450701,220.979174 122.81215,217.344239" id="Fill-78" fill="#C3A550" fill-rule="nonzero"></path>
                    <path d="M36,18.5 C36,20.9854226 33.9851834,23 31.5000003,23 C29.0145891,23 27,20.9854226 27,18.5 C27,16.0147972 29.0145891,14 31.5000003,14 C33.9851834,14 36,16.0147972 36,18.5" id="Fill-80" fill="#C3A550" fill-rule="nonzero"></path>
                    <path d="M108,47.5 C108,48.8806666 107.1046,50 106,50 C104.8956,50 104,48.8806666 104,47.5 C104,46.1193334 104.8956,45 106,45 C107.1046,45 108,46.1193334 108,47.5" id="Fill-82" fill="#C3A550" fill-rule="nonzero"></path>
                    <path d="M53,83.9999997 C53,85.6568887 51.8806248,87 50.5,87 C49.1193747,87 48,85.6568887 48,83.9999997 C48,82.3431113 49.1193747,81 50.5,81 C51.8806248,81 53,82.3431113 53,83.9999997" id="Fill-84" fill="#C3A550" fill-rule="nonzero"></path>
                    <path d="M47,150 C47,151.104593 46.1044447,152 45,152 C43.8953332,152 43,151.104593 43,150 C43,148.895407 43.8953332,148 45,148 C46.1044447,148 47,148.895407 47,150" id="Fill-86" fill="#C3A550" fill-rule="nonzero"></path>
                    <path d="M52,188 C52,189.656889 50.8806249,191 49.5000003,191 C48.1193751,191 47,189.656889 47,188 C47,186.343111 48.1193751,185 49.5000003,185 C50.8806249,185 52,186.343111 52,188" id="Fill-88" fill="#C3A550" fill-rule="nonzero"></path>
                    <path d="M109,152 C109,153.656889 107.880834,155 106.5,155 C105.119375,155 104,153.656889 104,152 C104,150.343111 105.119375,149 106.5,149 C107.880834,149 109,150.343111 109,152" id="Fill-90" fill="#C3A550" fill-rule="nonzero"></path>
                    <path d="M47,45.9999997 C47,47.104527 46.3283996,48 45.4999997,48 C44.6715999,48 44,47.104527 44,45.9999997 C44,44.895473 44.6715999,44 45.4999997,44 C46.3283996,44 47,44.895473 47,45.9999997" id="Fill-92" fill="#C3A550" fill-rule="nonzero"></path>
                    <path d="M104,84 C104,85.1045929 103.104667,86 102,86 C100.895334,86 100,85.1045929 100,84 C100,82.8954076 100.895334,82 102,82 C103.104667,82 104,82.8954076 104,84" id="Fill-94" fill="#C3A550" fill-rule="nonzero"></path>
                    <path d="M79,156 C79,157.104592 78.1046668,158 77,158 C75.8953332,158 75,157.104592 75,156 C75,154.895408 75.8953332,154 77,154 C78.1046668,154 79,154.895408 79,156" id="Fill-96" fill="#C3A550" fill-rule="nonzero"></path>
                    <path d="M22,185 C22,186.104593 21.1044447,187 20,187 C18.8953332,187 18,186.104593 18,185 C18,183.895407 18.8953332,183 20,183 C21.1044447,183 22,183.895407 22,185" id="Fill-98" fill="#C3A550" fill-rule="nonzero"></path>
                    <path d="M104,189 C104,190.104667 103.10475,191 102,191 C100.8955,191 100,190.104667 100,189 C100,187.895333 100.8955,187 102,187 C103.10475,187 104,187.895333 104,189" id="Fill-100" fill="#C3A550" fill-rule="nonzero"></path>
                    <path d="M23,79.9999997 C23,81.1045928 22.1044447,82 21,82 C19.8953338,82 19,81.1045928 19,79.9999997 C19,78.8954072 19.8953338,78 21,78 C22.1044447,78 23,78.8954072 23,79.9999997" id="Fill-102" fill="#C3A550" fill-rule="nonzero"></path>
                    <path d="M79,50.0000003 C79,51.1045928 78.1046668,52 77,52 C75.8953332,52 75,51.1045928 75,50.0000003 C75,48.8954072 75.8953332,48 77,48 C78.1046668,48 79,48.8954072 79,50.0000003" id="Fill-104" fill="#C3A550" fill-rule="nonzero"></path>
                </g>
            </g>
        </g>
    </g>
</svg>