<?xml version="1.0" encoding="UTF-8"?>
<svg width="213px" height="285px" viewBox="0 0 213 285" version="1.1" xmlns="http://www.w3.org/2000/svg" xmlns:xlink="http://www.w3.org/1999/xlink">
    <!-- Generator: Sketch 50.2 (55047) - http://www.bohemiancoding.com/sketch -->
    <title>Group 12</title>
    <desc>Created with Sketch.</desc>
    <defs>
        <polygon id="path-1" points="0.0214261101 0 8.60005653 0 8.60005653 14.7002636 0.0214261101 14.7002636"></polygon>
    </defs>
    <g id="Page-1" stroke="none" stroke-width="1" fill="none" fill-rule="evenodd">
        <g id="Group-12" transform="translate(6.000000, 6.000000)">
            <rect id="Rectangle-2" stroke="#000000" stroke-width="11" fill="#FFFFFF" fill-rule="nonzero" x="0" y="0" width="201" height="273"></rect>
            <g id="Group-4" transform="translate(39.000000, 24.000000)">
                <rect id="Rectangle-2" stroke="#979797" stroke-width="0.7" fill="#FFFFFF" fill-rule="nonzero" x="0" y="0" width="124" height="224" rx="6"></rect>
                <rect id="Rectangle-6" fill="#EEEDED" fill-rule="nonzero" x="8" y="9" width="110" height="207"></rect>
                <g id="Group-12" transform="translate(9.617647, 12.234375)">
                    <path d="M73.1451815,91.4177794 C73.1451815,87.1048202 69.7891781,83.6082203 65.6491429,83.6082203 C61.5089009,83.6082203 58.1526909,87.1048202 58.1526909,91.4177794 C58.1526909,95.7307384 61.5089009,99.2273384 65.6491429,99.2273384 C69.7891781,99.2273384 73.1451815,95.7307384 73.1451815,91.4177794" id="Fill-15" fill="#C3A550" fill-rule="nonzero"></path>
                    <path d="M52.9750199,107.353174 C52.3394748,103.886165 48.7382647,98.7679525 48.7382647,98.7679525 C48.7382647,98.7679525 45.5605396,103.886165 44.7131462,107.353174 C43.9030381,110.667176 45.7723879,113.626919 48.6323405,113.461695 C52.7574517,113.223798 53.5874735,110.69285 52.9750199,107.353174" id="Fill-69" fill="#C3A550" fill-rule="nonzero"></path>
                    <path d="M19.5356695,107.955669 C19.5356695,112.268836 16.1794595,115.765228 12.0394243,115.765228 C7.89938904,115.765228 4.54317898,112.268836 4.54317898,107.955669 C4.54317898,103.642502 7.89938904,100.14611 12.0394243,100.14611 C16.1794595,100.14611 19.5356695,103.642502 19.5356695,107.955669" id="Fill-31" fill="#C3A550" fill-rule="nonzero"></path>
                    <path d="M83.594493,120.279332 C83.594493,123.31728 81.44143,125.867539 78.5322586,126.579268 L78.5322586,130.07066 C81.44143,130.782389 83.594493,133.332648 83.594493,136.370596 C83.594493,139.959361 80.5896484,142.868992 76.8827178,142.868992 C73.1761997,142.868992 70.1711487,139.959361 70.1711487,136.370596 C70.1711487,133.332648 72.3244181,130.782389 75.2331771,130.07066 L75.2331771,126.579268 C72.3244181,125.867539 70.1711487,123.31728 70.1711487,120.279332 C70.1711487,117.241384 72.3244181,114.691124 75.2331771,113.979395 L75.2331771,111.153109 C72.2207032,110.513378 69.9649561,107.915877 69.9649561,104.806962 C69.9649561,101.218197 72.9700072,98.3085666 76.6765253,98.3085666 C80.3834559,98.3085666 83.3883005,101.218197 83.3883005,104.806962 C83.3883005,107.772293 81.3360656,110.271803 78.5322586,111.051817 L78.5322586,113.979395 C81.44143,114.691124 83.594493,117.241384 83.594493,120.279332" id="Fill-49" fill="#C3A550" fill-rule="nonzero"></path>
                    <path d="M72.2365456,189.26696 C72.2365456,184.953793 68.8805423,181.457402 64.740507,181.457402 C60.6002652,181.457402 57.244055,184.953793 57.244055,189.26696 C57.244055,193.580127 60.6002652,197.076519 64.740507,197.076519 C68.8805423,197.076519 72.2365456,193.580127 72.2365456,189.26696" id="Fill-47" fill="#C3A550" fill-rule="nonzero"></path>
                    <path d="M53.2129961,193.886979 C53.8229296,191.875031 52.9222783,189.756552 51.1584941,188.679525 L51.6972859,186.901409 C53.6769557,187.132569 55.5813833,185.970603 56.1630242,184.050997 C56.8201121,181.882749 55.5411995,179.572804 53.3068952,178.89146 C51.0725909,178.210118 48.7286011,179.415476 48.0715131,181.583723 C47.507504,183.444513 48.3722769,185.40669 50.0405219,186.35724 L49.5269477,188.051652 C47.2227316,187.620594 44.9353272,188.927546 44.2595825,191.156875 C43.5325828,193.556075 44.9474235,196.111986 47.4199607,196.865927 C49.8922927,197.619662 52.4859964,196.286178 53.2129961,193.886979" id="Fill-67" fill="#C3A550" fill-rule="nonzero"></path>
                    <path d="M31.8022529,78.6347306 C31.8022529,75.5969887 29.6491572,73.0465232 26.740148,72.334588 L26.740148,68.8436088 C29.6491572,68.1316734 31.8022529,65.5812079 31.8022529,62.5434661 C31.8022529,58.9544951 28.7973626,56.0450707 25.0905822,56.0450707 C21.3838018,56.0450707 18.3789116,58.9544951 18.3789116,62.5434661 C18.3789116,65.5812079 20.5320073,68.1316734 23.4410165,68.8436088 L23.4410165,72.334588 C20.5320073,73.0465232 18.3789116,75.5969887 18.3789116,78.6347306 C18.3789116,81.6724726 20.5320073,84.2229381 23.4410165,84.9348733 L23.4410165,87.7609533 C20.4282909,88.4004778 18.172716,90.9981857 18.172716,94.1071006 C18.172716,97.6960714 21.177606,100.605496 24.8843865,100.605496 C28.5911668,100.605496 31.5960571,97.6960714 31.5960571,94.1071006 C31.5960571,91.1417693 29.5437911,88.6420531 26.740148,87.8622458 L26.740148,84.9348733 C29.6491572,84.2229381 31.8022529,81.6724726 31.8022529,78.6347306" id="Fill-1" fill="#C3A550" fill-rule="nonzero"></path>
                    <path d="M13.4143337,97.389795 L6.57565378,97.389795 C5.20791779,97.389795 4.08886107,96.275285 4.08886107,94.9131062 L4.08886107,71.3845626 C4.08886107,70.0223837 5.20791779,68.9078739 6.57565378,68.9078739 L13.4143337,68.9078739 C14.7820697,68.9078739 15.9011264,70.0223837 15.9011264,71.3845626 L15.9011264,94.9131062 C15.9011264,96.275285 14.7820697,97.389795 13.4143337,97.389795" id="Fill-11" fill="#C3A550" fill-rule="nonzero"></path>
                    <path d="M84.048811,22.430151 C84.048811,25.4678929 81.8957478,28.0183584 78.9865765,28.7302936 L78.9865765,32.221273 C81.8957478,32.9332082 84.048811,35.4836736 84.048811,38.5214156 C84.048811,42.1103865 81.0439662,45.0198109 77.3370358,45.0198109 C73.6305177,45.0198109 70.6254667,42.1103865 70.6254667,38.5214156 C70.6254667,35.4836736 72.7787359,32.9332082 75.687495,32.221273 L75.687495,28.7302936 C72.7787359,28.0183584 70.6254667,25.4678929 70.6254667,22.430151 C70.6254667,19.392409 72.7787359,16.8419435 75.687495,16.1300083 L75.687495,13.3039284 C72.6750211,12.6644037 70.4192741,10.066696 70.4192741,6.95778114 C70.4192741,3.36881024 73.424325,0.459385825 77.1308432,0.459385825 C80.8377737,0.459385825 83.8426184,3.36881024 83.8426184,6.95778114 C83.8426184,9.92311241 81.7903835,12.4228285 78.9865765,13.2026359 L78.9865765,16.1300083 C81.8957478,16.8419435 84.048811,19.392409 84.048811,22.430151" id="Fill-17" fill="#C3A550" fill-rule="nonzero"></path>
                    <path d="M99.8689557,70.2860314 C99.8689557,70.2860314 100.109767,60.3957532 99.8689557,55.4596064 C99.6960135,51.9116089 97.7650297,50.1823659 93.3341515,49.9851515 C95.0257555,51.7937765 97.4158745,54.8334406 97.4158745,57.5725287 C97.4158745,63.6849327 91.4875946,67.5986243 91.4875946,67.5986243 C91.4875946,67.5986243 85.3548913,63.272519 85.3548913,57.5725287 C85.3548913,54.0904759 87.5683883,51.5118054 89.3789668,49.9841179 C84.6600559,50.1381271 82.8768704,52.1356973 82.6973866,55.8153778 C82.4567802,60.7515244 82.6973866,65.3438897 82.6973866,70.2860314 L78.6448962,70.2860314 C78.6448962,64.0669578 78.350322,53.1943291 79.222188,50.6472872 C80.7195897,46.2728088 85.7608762,46.1433997 89.2389366,46.3581856 L89.2389366,33.0757795 C89.7300418,31.5096348 90.3473091,30.7265625 91.0907384,30.7265625 C91.8341678,30.7265625 92.3753,31.5096348 92.7141352,33.0757795 L92.7141352,46.435707 C96.187494,46.3937421 101.403358,46.9986153 102.935307,51.4741817 C103.807378,54.0212236 103.548578,64.0669578 103.548578,70.2860314 C101.095496,70.2860314 99.8689557,70.2860314 99.8689557,70.2860314 Z" id="Fill-21" fill="#C3A550" fill-rule="nonzero"></path>
                    <path d="M94.8838759,84.9220338 C92.6376645,84.9220338 90.7995568,83.0732468 90.7995568,80.8135264 L90.7995568,79.1400571 L88.3361555,79.1400571 L88.3361555,86.7805262 L90.6156227,86.7805262 C92.8620393,86.7805262 94.699942,88.6293133 94.699942,90.8890338 L94.699942,95.5782167 C94.699942,97.8379371 92.8620393,99.6867241 90.6156227,99.6867241 L85.440838,99.6867241 C83.1946267,99.6867241 81.3565188,97.8379371 81.3565188,95.5782167 L81.3565188,90.8890338 C81.3565188,88.6293133 83.1946267,86.7805262 85.440838,86.7805262 L85.8727543,86.7805262 L85.8727543,80.9985497 L83.9513013,80.9985497 L83.9513013,81.4330239 C83.9513013,83.6927443 82.1133989,85.5415313 79.8669822,85.5415313 L77.2295006,85.5415313 C74.9832893,85.5415313 73.1451815,83.6927443 73.1451815,81.4330239 L73.1451815,78.0860854 C73.1451815,75.826365 74.9832893,73.977578 77.2295006,73.977578 L79.8669822,73.977578 C82.1133989,73.977578 83.9513013,75.826365 83.9513013,78.0860854 L83.9513013,78.7270588 L85.8727543,78.7270588 L85.8727543,67.9891021 C86.4828845,66.866159 86.9762801,66.3046875 87.3529412,66.3046875 C87.7296022,66.3046875 88.0573404,66.866159 88.3361555,67.9891021 L88.3361555,77.0750655 L90.8194692,77.0750655 C91.0171572,74.9972708 92.769046,73.3580805 94.8838759,73.3580805 L98.1372077,73.3580805 C100.383624,73.3580805 102.221527,75.2068676 102.221527,77.4665879 L102.221527,80.8135264 C102.221527,83.0732468 100.383624,84.9220338 98.1372077,84.9220338 L94.8838759,84.9220338 Z" id="Fill-23" fill="#C3A550" fill-rule="nonzero"></path>
                    <path d="M75.1363197,57.0011944 L65.4633762,61.3948113 L65.4633762,64.3635212 C69.3299598,65.0861395 72.2566072,68.4688301 72.2566072,72.5353283 C72.2566072,77.128543 68.5240356,80.8519054 63.91946,80.8519054 C59.3150904,80.8519054 55.5823128,77.128543 55.5823128,72.5353283 C55.5823128,68.3967531 58.6131231,64.9656005 62.5813993,64.326764 L62.5813993,61.6931813 L53.1711275,57.5342768 C52.5346222,57.2529506 52.5471796,56.355171 53.1910955,56.0937635 L62.5813993,52.2841553 L62.5813993,51.5824825 L54.1413243,49.2283779 C53.5496958,48.9883265 53.3508394,47.8441298 53.9354689,47.5855971 L62.5813993,43.3691954 L62.5813993,36.2914802 L65.4633762,36.2914802 L65.4633762,43.4131397 L73.9034511,47.174902 C74.2632865,47.3693662 74.0722526,48.4462088 73.6975957,48.6123351 L65.4633762,51.2722023 L65.4633762,52.5901231 L75.0967954,56.0446854 C75.5045951,56.2255966 75.5278567,56.7896865 75.1363197,57.0011944" id="Fill-25" fill="#C3A550" fill-rule="nonzero"></path>
                    <path d="M65.206574,3.6750866 L58.3678941,3.6750866 C57.0001581,3.6750866 55.8811015,4.78959656 55.8811015,6.15177541 L55.8811015,29.680319 C55.8811015,31.0424979 57.0001581,32.1570079 58.3678941,32.1570079 L65.206574,32.1570079 C66.5745172,32.1570079 67.6933667,31.0424979 67.6933667,29.680319 L67.6933667,6.15177541 C67.6933667,4.78959656 66.5745172,3.6750866 65.206574,3.6750866" id="Fill-27" fill="#C3A550" fill-rule="nonzero"></path>
                    <path d="M88.4456579,5.15263991 L83.2847889,14.3053266 C83.0958414,14.6402659 83.0918084,15.0509555 83.2741014,15.38958 L88.2803036,24.6884443 C88.7007471,25.4690822 89.8094275,25.4559794 90.2117224,24.6655145 L95.2846714,14.6963621 C95.4572852,14.3573282 95.4461942,13.9521663 95.2556335,13.623369 L90.3373513,5.14097027 C89.9114632,4.40639684 88.8626734,4.41274349 88.4456579,5.15263991" id="Fill-29" fill="#C3A550" fill-rule="nonzero"></path>
                    <path d="M31.3479349,176.943298 C31.3479349,173.905349 29.1948392,171.35509 26.28583,170.643361 L26.28583,167.15197 C29.1948392,166.44024 31.3479349,163.889981 31.3479349,160.852033 C31.3479349,157.263268 28.3430447,154.353637 24.6362644,154.353637 C20.9294839,154.353637 17.9245937,157.263268 17.9245937,160.852033 C17.9245937,163.889981 20.0776893,166.44024 22.9866985,167.15197 L22.9866985,170.643361 C20.0776893,171.35509 17.9245937,173.905349 17.9245937,176.943298 C17.9245937,179.981246 20.0776893,182.531505 22.9866985,183.243234 L22.9866985,186.06952 C19.9739729,186.70925 17.718398,189.306753 17.718398,192.415668 C17.718398,196.004432 20.7232882,198.914063 24.4300686,198.914063 C28.136849,198.914063 31.1417393,196.004432 31.1417393,192.415668 C31.1417393,189.450336 29.0894731,186.950826 26.28583,186.170813 L26.28583,183.243234 C29.1948392,182.531505 31.3479349,179.981246 31.3479349,176.943298" id="Fill-33" fill="#C3A550" fill-rule="nonzero"></path>
                    <path d="M42.1829998,114.451415 C39.9365832,114.451415 38.0986805,116.300202 38.0986805,118.559922 L38.0986805,120.233391 L35.6352794,120.233391 L35.6352794,112.592922 L37.9147466,112.592922 C40.1611632,112.592922 41.9990659,110.744135 41.9990659,108.484415 L41.9990659,103.795232 C41.9990659,101.535511 40.1611632,99.6867241 37.9147466,99.6867241 L32.7399619,99.6867241 C30.4935453,99.6867241 28.6556427,101.535511 28.6556427,103.795232 L28.6556427,108.484415 C28.6556427,110.744135 30.4935453,112.592922 32.7399619,112.592922 L33.1718782,112.592922 L33.1718782,118.374899 L31.2504252,118.374899 L31.2504252,117.940424 C31.2504252,115.680704 29.4125228,113.831917 27.1661062,113.831917 L24.5286245,113.831917 C22.2822079,113.831917 20.4443054,115.680704 20.4443054,117.940424 L20.4443054,121.287363 C20.4443054,123.547083 22.2822079,125.39587 24.5286245,125.39587 L27.1661062,125.39587 C29.4125228,125.39587 31.2504252,123.547083 31.2504252,121.287363 L31.2504252,120.646389 L33.1718782,120.646389 L33.1718782,131.384346 C33.2148088,132.201032 33.4810455,132.609375 33.9705882,132.609375 C34.2214259,132.609375 34.3767209,132.609375 34.9824781,132.609375 C35.3863162,132.609375 35.6039166,132.201032 35.6352794,131.384346 L35.6352794,122.298383 L38.1185931,122.298383 C38.3162811,124.376177 40.0679646,126.015368 42.1829998,126.015368 L45.4363316,126.015368 C47.6827482,126.015368 49.5206509,124.166581 49.5206509,121.90686 L49.5206509,118.559922 C49.5206509,116.300202 47.6827482,114.451415 45.4363316,114.451415 L42.1829998,114.451415 Z" id="Fill-39" fill="#C3A550" fill-rule="nonzero"></path>
                    <path d="M12.7626085,137.978637 L12.7626085,135.009722 C16.6289642,134.287309 19.5558008,130.904618 19.5558008,126.83812 C19.5558008,122.244905 15.8230446,118.521543 11.2187011,118.521543 C6.61415181,118.521543 2.88160138,122.244905 2.88160138,126.83812 C2.88160138,130.976695 5.91239445,134.407848 9.88064807,135.046479 L9.88064807,137.680267 L0.470223944,141.839172 C-0.166277595,142.120498 -0.153720482,143.018277 0.490397668,143.279685 L9.88064807,147.089293 L9.88064807,147.790966 L1.44062118,150.14507 C0.848790028,150.385122 0.649934761,151.529319 1.23476687,151.787851 L9.88064807,156.004253 L9.88064807,163.081968 C9.76413759,164.329407 10.245098,164.953125 11.3235294,164.953125 C12.4019608,164.953125 12.8816538,164.329407 12.7626085,163.081968 L12.7626085,155.960309 L21.2026354,152.198546 C21.5624687,152.004082 21.3714359,150.927034 20.9967811,150.761113 L12.7626085,148.101246 L12.7626085,146.783325 L22.3957669,143.328763 C22.8037702,143.147852 22.8270318,142.583762 22.435291,142.372254 L12.7626085,137.978637 Z" id="Fill-41" fill="#C3A550" fill-rule="nonzero"></path>
                    <path d="M12.5303807,197.995291 L4.73369938,197.995291 C3.37953895,197.995291 2.27158949,196.871501 2.27158949,195.49798 L2.27158949,169.254365 C2.27158949,167.880844 3.37953895,166.757054 4.73369938,166.757054 L12.5303807,166.757054 C13.8845412,166.757054 14.9924906,167.880844 14.9924906,169.254365 L14.9924906,195.49798 C14.9924906,196.871501 13.8845412,197.995291 12.5303807,197.995291" id="Fill-43" fill="#C3A550" fill-rule="nonzero"></path>
                    <path d="M38.0162575,193.761503 L32.8553262,184.608668 C32.666578,184.27373 32.6625449,183.863044 32.8448401,183.524421 L37.8509012,174.225614 C38.2713498,173.444981 39.3800437,173.458084 39.7823434,174.248544 L44.8555552,184.217635 C45.0279694,184.556667 45.0168785,184.961826 44.8263155,185.290621 L39.9079738,193.773172 C39.4820806,194.507741 38.4334796,194.50119 38.0162575,193.761503" id="Fill-45" fill="#C3A550" fill-rule="nonzero"></path>
                    <path d="M99.4146379,168.594598 C99.4146379,163.652457 99.6554486,158.70432 99.4146379,153.767966 C99.2416956,150.220176 97.3107117,148.490933 92.8798336,148.293718 C94.5714377,150.102343 96.9615565,153.142007 96.9615565,155.881095 C96.9615565,161.993292 91.0332767,165.907191 91.0332767,165.907191 C91.0332767,165.907191 84.9005734,161.580879 84.9005734,155.881095 C84.9005734,152.399043 87.1140704,149.820372 88.9246488,148.292891 C84.2057381,148.446694 82.4225524,150.444057 82.2430686,154.123945 C82.0024622,159.060091 82.2430686,163.652457 82.2430686,168.594598 L78.1905784,168.594598 C78.1905784,162.375524 77.8960042,151.502896 78.7678702,148.955854 C80.2652719,144.581582 85.3065583,144.451966 88.7846188,144.666752 L88.7846188,131.384346 C88.9085984,130.044782 89.5098039,129.375 90.5882353,129.375 C91.6666667,129.375 92.2238607,130.044782 92.2598173,131.384346 L92.2598173,144.74448 C95.733176,144.702309 100.94904,145.307182 102.480989,149.782749 C103.35306,152.32979 103.09426,162.375524 103.09426,168.594598 L99.4146379,168.594598 Z" id="Fill-53" fill="#C3A550" fill-rule="nonzero"></path>
                    <path d="M94.4295579,182.771214 C92.1833466,182.771214 90.3452388,180.922428 90.3452388,178.662708 L90.3452388,176.989239 L87.8818377,176.989239 L87.8818377,184.629707 L90.1613049,184.629707 C92.4077215,184.629707 94.245624,186.478494 94.245624,188.738214 L94.245624,193.427398 C94.245624,195.687118 92.4077215,197.535905 90.1613049,197.535905 L84.9865201,197.535905 C82.7403087,197.535905 80.9022008,195.687118 80.9022008,193.427398 L80.9022008,188.738214 C80.9022008,186.478494 82.7403087,184.629707 84.9865201,184.629707 L85.4184364,184.629707 L85.4184364,178.84773 L83.4969835,178.84773 L83.4969835,179.282205 C83.4969835,181.541925 81.6590809,183.390712 79.4126643,183.390712 L76.7751828,183.390712 C74.5289715,183.390712 72.6908636,181.541925 72.6908636,179.282205 L72.6908636,175.935266 C72.6908636,173.675545 74.5289715,171.826759 76.7751828,171.826759 L79.4126643,171.826759 C81.6590809,171.826759 83.4969835,173.675545 83.4969835,175.935266 L83.4969835,176.57624 L85.4184364,176.57624 L85.4184364,165.838283 C86.3555086,164.170052 87.0003436,163.335938 87.3529412,163.335938 C87.7055387,163.335938 87.8818377,164.170052 87.8818377,165.838283 L87.8818377,174.924247 L90.3651512,174.924247 C90.5628392,172.846452 92.314728,171.207261 94.4295579,171.207261 L97.6828898,171.207261 C99.9293064,171.207261 101.767209,173.056048 101.767209,175.315768 L101.767209,178.662708 C101.767209,180.922428 99.9293064,182.771214 97.6828898,182.771214 L94.4295579,182.771214 Z" id="Fill-55" fill="#C3A550" fill-rule="nonzero"></path>
                    <path d="M65.0090582,159.243992 L65.0090582,162.212908 C68.8756418,162.93532 71.8022894,166.31801 71.8022894,170.384509 C71.8022894,174.977724 68.0697176,178.701087 63.465142,178.701087 C58.8607724,178.701087 55.1279949,174.977724 55.1279949,170.384509 C55.1279949,166.245934 58.1588053,162.814781 62.1270815,162.17615 L62.1270815,159.542362 L52.7168096,155.383458 C52.0803045,155.102131 52.0928616,154.204352 52.7367775,153.942944 L62.1270815,150.133336 L62.1270815,149.431663 L53.6870065,147.077559 C53.0953778,146.837507 52.8965214,145.693311 53.4811511,145.434778 L62.1270815,141.218376 L62.1270815,134.140661 C62.1919618,133.119804 62.637982,132.609375 63.465142,132.609375 C64.2923022,132.609375 64.806941,133.119804 65.0090582,134.140661 L65.0090582,141.262321 L73.4491332,145.024083 C73.8089686,145.218547 73.6179348,146.295595 73.2432777,146.461516 L65.0090582,149.121383 L65.0090582,150.439304 L74.6424776,153.893866 C75.0502772,154.074778 75.0735389,154.638867 74.6820017,154.850375 L65.0090582,159.243992 Z" id="Fill-57" fill="#C3A550" fill-rule="nonzero"></path>
                    <path d="M90.2629295,103.461127 L85.1020605,112.613961 C84.913113,112.948899 84.9090799,113.359586 85.091373,113.698208 L90.0975751,122.997015 C90.5180187,123.777648 91.6266992,123.764545 92.0289941,122.974085 L97.1019429,113.004994 C97.2745567,112.665963 97.2634659,112.260803 97.0729051,111.932008 L92.154623,103.449457 C91.7287349,102.714888 90.6799449,102.72144 90.2629295,103.461127" id="Fill-61" fill="#C3A550" fill-rule="nonzero"></path>
                    <path d="M48.5542247,93.740962 C47.944497,91.728799 48.8447371,89.6105162 50.6087241,88.5332769 L50.0699331,86.7553591 C48.0902659,86.9865192 46.1860457,85.8245485 45.6042007,83.9047263 C44.9471134,81.7366742 46.2258194,79.4267177 48.4603258,78.745371 C50.6946272,78.0640244 53.0388191,79.2691832 53.6957012,81.4374409 C54.2597095,83.2982393 53.3951427,85.2606329 51.7266949,86.2109809 L52.2400634,87.9054014 C54.5442765,87.4745469 56.8318829,88.7813011 57.5076268,91.0106395 C58.2346255,93.4098518 56.8197866,95.9657759 54.3472527,96.71972 C51.8749239,97.4736641 49.2812234,96.1401742 48.5542247,93.740962" id="Fill-65" fill="#C3A550" fill-rule="nonzero"></path>
                    <g id="Group-4" transform="translate(45.431789, 0.000000)">
                        <g id="Group-3">
                            <g id="Fill-71-Clipped">
                                <mask id="mask-2" fill="white">
                                    <use xlink:href="#path-1"></use>
                                </mask>
                                <g id="path-1"></g>
                                <path d="M8.4209972,6.11526129 C7.78938451,9.58226553 4.21045649,14.7002636 4.21045649,14.7002636 C4.21045649,14.7002636 1.05239306,9.58226553 0.210242809,6.11526129 C-0.594852828,2.80105784 1.26293062,-0.158473875 4.10518771,0.0065426894 C8.20477512,0.244646893 9.02966128,2.775384 8.4209972,6.11526129" id="Fill-71" fill="#C3A550" fill-rule="nonzero" mask="url(#mask-2)"></path>
                            </g>
                        </g>
                    </g>
                    <path d="M102.909494,118.521543 L100.624924,118.521543 C99.254182,118.521543 98.1326659,117.410068 98.1326659,116.051598 L98.1326659,89.2938656 C98.1326659,87.935396 99.254182,86.823921 100.624924,86.823921 L102.909494,86.823921 C104.280444,86.823921 105.401752,87.935396 105.401752,89.2938656 L105.401752,116.051598 C105.401752,117.410068 104.280444,118.521543 102.909494,118.521543" id="Fill-74" fill="#C3A550" fill-rule="nonzero"></path>
                    <path d="M106.743778,6.12431833 C106.535154,8.31125542 104.806341,9.99980038 102.649155,10.3391312 L102.464667,12.2715701 C104.494243,12.835666 105.89228,14.7159162 105.69331,16.8022185 C105.468314,19.158613 103.292659,20.882089 100.83366,20.6517101 C98.3746608,20.4213311 96.5637832,18.3242169 96.7885687,15.9678223 C96.9816619,13.9455605 98.6130889,12.3932053 100.626085,12.1384992 L100.801547,10.2969227 C98.3746608,9.79686725 96.6594902,7.62406896 96.8907822,5.20113897 C97.1397044,2.59378103 99.5470719,0.686708691 102.268006,0.941622633 C104.98894,1.19653658 106.99291,3.51696039 106.743778,6.12431833" id="Fill-76" fill="#C3A550" fill-rule="nonzero"></path>
                    <path d="M106.584536,192.339552 C105.949001,188.872543 102.347637,183.75433 102.347637,183.75433 C102.347637,183.75433 99.1699633,188.872543 98.3225834,192.339552 C97.5127004,195.653554 99.3818082,198.613296 102.241715,198.448073 C106.366971,198.210175 107.19698,195.679227 106.584536,192.339552" id="Fill-78" fill="#C3A550" fill-rule="nonzero"></path>
                    <path d="M48.0767155,30.7788504 C48.0767155,35.7209919 48.3175262,40.6691286 48.0767155,45.6052752 C47.9037732,49.1532727 45.9727893,50.8825157 41.5421157,51.0797301 C43.2333108,49.2711051 45.6236341,46.231441 45.6236341,43.4923531 C45.6236341,37.3799491 39.6953543,33.4662575 39.6953543,33.4662575 C39.6953543,33.4662575 33.562651,37.7923626 33.562651,43.4923531 C33.562651,46.9744057 35.776148,49.5530762 37.5867265,51.0807637 C32.8678157,50.9267547 31.08463,48.9291843 30.9051462,45.2495038 C30.6645399,40.3133572 30.9051462,35.7209919 30.9051462,30.7788504 L26.8526558,30.7788504 C26.8526558,36.9979238 26.5580816,47.8705527 27.4299476,50.4175944 C28.9273495,54.792073 33.9688404,54.9214819 37.4466965,54.7066961 L37.4466965,67.9891021 C37.9194454,69.0224091 38.5367125,69.5390625 39.2984981,69.5390625 C40.0602837,69.5390625 40.6014159,69.0224091 40.9218949,67.9891021 L40.9218949,54.6291746 C44.3952536,54.6711395 49.6111178,54.0662663 51.1430671,49.5906999 C52.0151375,47.0436582 51.7563375,36.9979238 51.7563375,30.7788504 L48.0767155,30.7788504 Z" id="Fill-5" fill="#C3A550" fill-rule="nonzero"></path>
                    <path d="M43.0916355,16.1428478 C40.8452189,16.1428478 39.0073164,17.9916348 39.0073164,20.2513553 L39.0073164,21.9248245 L36.5439151,21.9248245 L36.5439151,14.2843553 L38.8233824,14.2843553 C41.0697991,14.2843553 42.9077016,12.4355683 42.9077016,10.1758479 L42.9077016,5.48666488 C42.9077016,3.22694451 41.0697991,1.37815748 38.8233824,1.37815748 L33.6485977,1.37815748 C31.4021811,1.37815748 29.5642784,3.22694451 29.5642784,5.48666488 L29.5642784,10.1758479 C29.5642784,12.4355683 31.4021811,14.2843553 33.6485977,14.2843553 L34.080514,14.2843553 L34.080514,20.0663319 L32.1590612,20.0663319 L32.1590612,19.6318577 C32.1590612,17.3721373 30.3211585,15.5233503 28.0747419,15.5233503 L25.4372604,15.5233503 C23.1908438,15.5233503 21.3529412,17.3721373 21.3529412,19.6318577 L21.3529412,22.9787962 C21.3529412,25.2385166 23.1908438,27.0873036 25.4372604,27.0873036 L28.0747419,27.0873036 C30.3211585,27.0873036 32.1590612,25.2385166 32.1590612,22.9787962 L32.1590612,22.3378228 L34.080514,22.3378228 L34.080514,33.0757795 C34.6979755,34.7440098 35.2005492,35.578125 35.5882353,35.578125 C35.9759214,35.578125 36.2944814,34.7440098 36.5439151,33.0757795 L36.5439151,23.9898161 L39.0272289,23.9898161 C39.2249168,26.0676108 40.9766003,27.7068011 43.0916355,27.7068011 L46.3449674,27.7068011 C48.591384,27.7068011 50.4292866,25.858014 50.4292866,23.5982937 L50.4292866,20.2513553 C50.4292866,17.9916348 48.591384,16.1428478 46.3449674,16.1428478 L43.0916355,16.1428478 Z" id="Fill-7" fill="#C3A550" fill-rule="nonzero"></path>
                    <path d="M13.6712443,39.2106846 L13.6712443,36.2419745 C17.5376001,35.5193564 20.4644367,32.1366657 20.4644367,28.0701676 C20.4644367,23.4769529 16.7316804,19.7535905 12.1273369,19.7535905 C7.52278761,19.7535905 3.79023718,23.4769529 3.79023718,28.0701676 C3.79023718,32.2087427 6.82103025,35.6398954 10.7892839,36.2787317 L10.7892839,38.9123144 L1.37885974,43.071219 C0.742358199,43.3525453 0.754915312,44.2503248 1.39903346,44.5117324 L10.7892839,48.3213406 L10.7892839,49.0230134 L2.34925698,51.377118 C1.75742582,51.6171692 1.55857056,52.7613661 2.14340267,53.0198986 L10.7892839,57.2363005 L10.7892839,64.3140156 C11.3021459,65.6411302 11.7945791,66.3046875 12.2665832,66.3046875 C12.7385874,66.3046875 13.2068077,65.6411302 13.6712443,64.3140156 L13.6712443,57.1923562 L22.1112711,53.4305939 C22.4711044,53.2361297 22.2800716,52.1592869 21.9054168,51.9931608 L13.6712443,49.3332934 L13.6712443,48.0153728 L23.3044028,44.5608104 C23.7124061,44.3798992 23.7356675,43.8158093 23.3439268,43.6043013 L13.6712443,39.2106846 Z" id="Fill-9" fill="#C3A550" fill-rule="nonzero"></path>
                    <path d="M10.5558703,2.09333603 L17.932239,13.5890191 C18.2022419,14.0098052 18.248169,14.5205799 18.0533386,14.9382195 L12.7039473,26.4045356 C12.2549724,27.3671415 10.8641801,27.3279157 10.2815425,26.3359429 L2.93400693,13.8264716 C2.68398148,13.4010707 2.65761964,12.8970084 2.86377737,12.4919546 L8.18412961,2.03963651 C8.64504968,1.13429614 9.95963986,1.1640826 10.5558703,2.09333603" id="Fill-63" fill="#C3A550" fill-rule="nonzero"></path>
                    <path d="M25.8961201,7.1204803 C25.8961201,9.53087951 24.0653856,11.4846456 21.8072591,11.4846456 C19.5489258,11.4846456 17.718398,9.53087951 17.718398,7.1204803 C17.718398,4.71029457 19.5489258,2.75631495 21.8072591,2.75631495 C24.0653856,2.75631495 25.8961201,4.71029457 25.8961201,7.1204803" id="Fill-80" fill="#C3A550" fill-rule="nonzero"></path>
                    <path d="M51.5958865,69.5521467 C51.0003893,64.9751981 47.6259056,58.21875 47.6259056,58.21875 C47.6259056,58.21875 44.6484199,64.9751981 43.8544237,69.5521467 C43.0955619,73.9272738 44.846919,77.8342443 47.5266561,77.6162944 C51.392028,77.3020106 52.1697472,73.961056 51.5958865,69.5521467" id="Fill-3" fill="#C3A550" fill-rule="nonzero"></path>
                    <path d="M38.8680809,96.4629787 L34.1039215,87.1548534 C33.9296842,86.8142258 33.9259612,86.3965616 34.0942417,86.0521864 L38.7154371,76.5954009 C39.1035618,75.8015056 40.1270192,75.8148309 40.4983902,76.6187201 L45.1815741,86.757177 C45.3407331,87.1019686 45.3304946,87.5140113 45.1545822,87.8483927 L40.6143623,96.4748465 C40.2212116,97.2218951 39.2532269,97.2154405 38.8680809,96.4629787" id="Fill-13" fill="#C3A550" fill-rule="nonzero"></path>
                    <path d="M104.978239,32.3306658 C104.382742,36.9076144 101.008259,43.6640625 101.008259,43.6640625 C101.008259,43.6640625 98.0307729,36.9076144 97.2367767,32.3306658 C96.4779148,27.9555387 98.2292719,24.0485682 100.909009,24.2665181 C104.774381,24.5808019 105.5521,27.9217565 104.978239,32.3306658" id="Fill-19" fill="#C3A550" fill-rule="nonzero"></path>
                    <path d="M102.949993,130.300056 C102.314458,134.633888 98.7130941,141.031448 98.7130941,141.031448 C98.7130941,141.031448 95.5354201,134.633888 94.6880403,130.300056 C93.8781572,126.157533 95.7472651,122.457885 98.6071717,122.664258 C102.732428,122.961848 103.562437,126.125339 102.949993,130.300056" id="Fill-51" fill="#C3A550" fill-rule="nonzero"></path>
                    <path d="M51.5958865,168.200585 C51.0003893,163.623635 47.6259056,156.867188 47.6259056,156.867188 C47.6259056,156.867188 44.6484199,163.623635 43.8544237,168.200585 C43.0955619,172.575494 44.846919,176.482682 47.5266561,176.264732 C51.392028,175.950448 52.1697472,172.609494 51.5958865,168.200585" id="Fill-35" fill="#C3A550" fill-rule="nonzero"></path>
                    <path d="M47.9161181,129.375 C47.9161181,134.315157 48.165553,139.261307 47.9161181,144.195679 C47.7369824,147.742045 45.7368448,149.470594 41.1474968,149.667729 C42.8992583,147.85983 45.3751854,144.821387 45.3751854,142.083398 C45.3751854,135.973655 39.2345981,132.061328 39.2345981,132.061328 C39.2345981,132.061328 32.8822662,136.385903 32.8822662,142.083398 C32.8822662,145.564053 35.1750345,148.141688 37.0504546,149.668556 C32.162547,149.514815 30.3155008,147.518254 30.1295891,143.839844 C29.880366,138.905679 30.1295891,134.315157 30.1295891,129.375 L25.9319683,129.375 C25.9319683,135.591577 25.6268446,146.45984 26.5299344,149.005859 C28.0809621,153.378375 33.3030024,153.507939 36.9054097,153.293239 L36.9054097,166.570313 C37.1057248,167.648438 37.745098,168.1875 38.8235294,168.1875 C39.9019608,168.1875 40.4624725,167.648438 40.5050645,166.570313 L40.5050645,153.215542 C44.1028134,153.257697 49.5054715,152.653066 51.092284,148.179297 C51.9955855,145.633278 51.7275171,135.591577 51.7275171,129.375 L47.9161181,129.375 Z" id="Fill-37" fill="#C3A550" fill-rule="nonzero"></path>
                    <path d="M65.5572756,101.882813 L59.001548,101.882813 C57.6904025,101.882813 56.6176471,103.021875 56.6176471,104.414063 L56.6176471,128.460937 C56.6176471,129.853125 57.6904025,130.992188 59.001548,130.992188 L65.5572756,130.992188 C66.8686197,130.992188 67.9411765,129.853125 67.9411765,128.460937 L67.9411765,104.414063 C67.9411765,103.021875 66.8686197,101.882813 65.5572756,101.882813" id="Fill-59" fill="#C3A550" fill-rule="nonzero"></path>
                </g>
            </g>
        </g>
    </g>
</svg>