<?xml version="1.0" encoding="UTF-8"?>
<svg width="180px" height="323px" viewBox="0 0 180 323" version="1.1" xmlns="http://www.w3.org/2000/svg" xmlns:xlink="http://www.w3.org/1999/xlink">
    <!-- Generator: Sketch 51.3 (57544) - http://www.bohemiancoding.com/sketch -->
    <title>Group 2</title>
    <desc>Created with Sketch.</desc>
    <defs></defs>
    <g id="Page-1" stroke="none" stroke-width="1" fill="none" fill-rule="evenodd">
        <g id="Desktop-projects" transform="translate(-284.000000, -1641.000000)">
            <g id="Group-2" transform="translate(284.000000, 1641.000000)">
                <rect id="Rectangle-2" fill="#FFFFFF" x="0" y="0" width="180" height="323" rx="6"></rect>
                <rect id="Rectangle-6" fill="#F5F5F5" x="11.5789474" y="13.6775244" width="157.894737" height="297.749186"></rect>
                <path d="M118.947368,149.92671 C118.947368,143.825693 113.999202,138.879479 107.895042,138.879479 C101.790576,138.879479 96.8421053,143.825693 96.8421053,149.92671 C96.8421053,156.027728 101.790576,160.973941 107.895042,160.973941 C113.999202,160.973941 118.947368,156.027728 118.947368,149.92671" id="Fill-15" fill="#2C3F16"></path>
                <path d="M90.2626604,173.262985 C89.3326442,168.300245 84.0628622,160.973941 84.0628622,160.973941 C84.0628622,160.973941 79.4127811,168.300245 78.1727594,173.262985 C76.9872987,178.006708 79.7227865,182.243338 83.9078595,182.006834 C89.9442849,181.666303 91.1588861,178.043458 90.2626604,173.262985" id="Fill-69" fill="#2C3F16"></path>
                <path d="M43.1578947,174.125407 C43.1578947,180.226719 38.2094236,185.172638 32.1052632,185.172638 C26.0011027,185.172638 21.0526316,180.226719 21.0526316,174.125407 C21.0526316,168.024095 26.0011027,163.078176 32.1052632,163.078176 C38.2094236,163.078176 43.1578947,168.024095 43.1578947,174.125407" id="Fill-31" fill="#2B3E16"></path>
                <path d="M133.684211,191.565712 C133.684211,195.941185 130.524803,199.614253 126.255881,200.639337 L126.255881,205.667892 C130.524803,206.692976 133.684211,210.366044 133.684211,214.741517 C133.684211,219.910316 129.274898,224.100977 123.835343,224.100977 C118.396393,224.100977 113.986778,219.910316 113.986778,214.741517 C113.986778,210.366044 117.146488,206.692976 121.414805,205.667892 L121.414805,200.639337 C117.146488,199.614253 113.986778,195.941185 113.986778,191.565712 C113.986778,187.190239 117.146488,183.517171 121.414805,182.492087 L121.414805,178.421465 C116.994297,177.500078 113.684211,173.758968 113.684211,169.281284 C113.684211,164.112485 118.093826,159.921824 123.532776,159.921824 C128.97233,159.921824 133.381643,164.112485 133.381643,169.281284 C133.381643,173.552169 130.370191,177.152144 126.255881,178.275576 L126.255881,182.492087 C130.524803,183.517171 133.684211,187.190239 133.684211,191.565712" id="Fill-49" fill="#2B3E16"></path>
                <path d="M117.894737,290.910423 C117.894737,284.809111 112.94657,279.863192 106.84241,279.863192 C100.737945,279.863192 95.7894737,284.809111 95.7894737,290.910423 C95.7894737,297.011736 100.737945,301.957655 106.84241,301.957655 C112.94657,301.957655 117.894737,297.011736 117.894737,290.910423" id="Fill-47" fill="#2B3E16"></path>
                <path d="M90.1817889,297.392087 C91.0715721,294.512149 89.7576839,291.47972 87.1846403,289.938042 L87.9706403,287.392816 C90.8586223,287.723701 93.6368394,286.060443 94.4853486,283.312683 C95.4439218,280.209014 93.5782184,276.902516 90.3187707,275.927229 C87.0593229,274.951941 83.6398637,276.677314 82.6812906,279.780983 C81.8585028,282.44455 83.1200509,285.253248 85.55372,286.613882 L84.8045076,289.039294 C81.4430713,288.42227 78.10616,290.293067 77.12037,293.484167 C76.0598083,296.918427 78.1238062,300.577005 81.7307928,301.656209 C85.3374803,302.735119 89.1212272,300.826347 90.1817889,297.392087" id="Fill-67" fill="#2B3E16"></path>
                <path d="M60,131.434288 C60,127.059112 56.8405446,123.385747 52.5718608,122.360366 L52.5718608,117.332405 C56.8405446,116.307024 60,112.633659 60,108.258483 C60,103.089387 55.5906203,98.8990228 50.1512859,98.8990228 C44.7119516,98.8990228 40.3025719,103.089387 40.3025719,108.258483 C40.3025719,112.633659 43.4620272,116.307024 47.730711,117.332405 L47.730711,122.360366 C43.4620272,123.385747 40.3025719,127.059112 40.3025719,131.434288 C40.3025719,135.809464 43.4620272,139.482829 47.730711,140.50821 L47.730711,144.578535 C43.3098336,145.499625 40,149.241032 40,153.718716 C40,158.887812 44.4093797,163.078176 49.8487141,163.078176 C55.2880484,163.078176 59.6974281,158.887812 59.6974281,153.718716 C59.6974281,149.447831 56.6859304,145.847559 52.5718608,144.724424 L52.5718608,140.50821 C56.8405446,139.482829 60,135.809464 60,131.434288" id="Fill-1" fill="#2B3E16"></path>
                <path d="M33.2963989,157.81759 L23.5457064,157.81759 C21.5955679,157.81759 20,156.253137 20,154.341028 L20,121.313695 C20,119.401586 21.5955679,117.837134 23.5457064,117.837134 L33.2963989,117.837134 C35.2465374,117.837134 36.8421053,119.401586 36.8421053,121.313695 L36.8421053,154.341028 C36.8421053,156.253137 35.2465374,157.81759 33.2963989,157.81759" id="Fill-11" fill="#2B3E16"></path>
                <path d="M134.736842,51.634116 C134.736842,56.0092921 131.577435,59.6826572 127.308513,60.708038 L127.308513,65.7359993 C131.577435,66.7613801 134.736842,70.4347452 134.736842,74.8099213 C134.736842,79.9790172 130.327529,84.1693811 124.887974,84.1693811 C119.449025,84.1693811 115.039409,79.9790172 115.039409,74.8099213 C115.039409,70.4347452 118.19912,66.7613801 122.467436,65.7359993 L122.467436,60.708038 C118.19912,59.6826572 115.039409,56.0092921 115.039409,51.634116 C115.039409,47.2589399 118.19912,43.5855748 122.467436,42.560194 L122.467436,38.4898689 C118.046928,37.5687792 114.736842,33.8273723 114.736842,29.3496878 C114.736842,24.1805919 119.146458,19.990228 124.585407,19.990228 C130.024962,19.990228 134.434275,24.1805919 134.434275,29.3496878 C134.434275,33.6205728 131.422823,37.220845 127.308513,38.3439802 L127.308513,42.560194 C131.577435,43.5855748 134.736842,47.2589399 134.736842,51.634116" id="Fill-17" fill="#2B3E16"></path>
                <path d="M157.836163,119.941368 C157.836163,119.941368 158.181076,105.737195 157.836163,98.6480228 C157.588459,93.5524764 154.822718,91.0689802 148.476389,90.7857458 C150.899267,93.3832483 154.322625,97.7487389 154.322625,101.682549 C154.322625,110.461033 145.831573,116.08178 145.831573,116.08178 C145.831573,116.08178 137.047727,109.868735 137.047727,101.682549 C137.047727,96.6817113 140.21811,92.9782885 142.811394,90.7842614 C136.052517,91.0054454 133.498468,93.8743066 133.241394,99.1589728 C132.896774,106.248145 133.241394,112.843586 133.241394,119.941368 L127.437028,119.941368 C127.437028,111.009688 127.015111,95.3946873 128.263881,91.7366888 C130.408603,85.4541708 137.629218,85.2683168 142.61083,85.5767869 L142.61083,66.5009232 C143.314238,64.251665 144.198347,63.1270358 145.263158,63.1270358 C146.327969,63.1270358 147.10303,64.251665 147.588343,66.5009232 L147.588343,85.6881211 C152.56322,85.6278522 160.033882,86.4965563 162.228087,92.9242543 C163.477149,96.5822527 163.106471,111.009688 163.106471,119.941368 C159.592933,119.941368 157.836163,119.941368 157.836163,119.941368 Z" id="Fill-21" fill="#2C3F16"></path>
                <path d="M149.640036,140.620159 C146.468631,140.620159 143.873423,137.939781 143.873423,134.66363 L143.873423,132.237429 L140.395369,132.237429 L140.395369,143.314608 L143.613728,143.314608 C146.785423,143.314608 149.380342,145.994986 149.380342,149.271136 L149.380342,156.06953 C149.380342,159.345681 146.785423,162.026059 143.613728,162.026059 L136.307496,162.026059 C133.13609,162.026059 130.540882,159.345681 130.540882,156.06953 L130.540882,149.271136 C130.540882,145.994986 133.13609,143.314608 136.307496,143.314608 L136.917314,143.314608 L136.917314,134.931878 L134.204432,134.931878 L134.204432,135.56178 C134.204432,138.83793 131.609514,141.518308 128.437819,141.518308 L124.713982,141.518308 C121.542576,141.518308 118.947368,138.83793 118.947368,135.56178 L118.947368,130.709377 C118.947368,127.433226 121.542576,124.752848 124.713982,124.752848 L128.437819,124.752848 C131.609514,124.752848 134.204432,127.433226 134.204432,130.709377 L134.204432,131.638662 L136.917314,131.638662 L136.917314,116.070735 C137.778752,114.442688 138.475373,113.628664 139.007177,113.628664 C139.538981,113.628664 140.001712,114.442688 140.395369,116.070735 L140.395369,129.243596 L143.901537,129.243596 C144.180651,126.231202 146.654127,123.854698 149.640036,123.854698 L154.233386,123.854698 C157.405082,123.854698 160,126.535076 160,129.811227 L160,134.66363 C160,137.939781 157.405082,140.620159 154.233386,140.620159 L149.640036,140.620159 Z" id="Fill-23" fill="#2C3F16"></path>
                <path d="M121.702392,100.319488 L107.807126,106.647493 L107.807126,110.923244 C113.361506,111.964011 117.565661,116.836008 117.565661,122.692873 C117.565661,129.308354 112.203789,134.67101 105.589277,134.67101 C98.97506,134.67101 93.6128929,129.308354 93.6128929,122.692873 C93.6128929,116.732197 97.9666781,111.790402 103.667141,110.870304 L103.667141,107.077227 L90.1492044,101.087272 C89.2348592,100.682085 89.2528977,99.3890379 90.1778886,99.01254 L103.667141,93.525666 L103.667141,92.5150662 L91.5429006,89.124514 C90.6930209,88.7787747 90.407362,87.1308197 91.2471874,86.7584623 L103.667141,80.6856948 L103.667141,70.4918567 L107.807126,70.4918567 L107.807126,80.7489867 L119.931366,86.1669494 C120.448273,86.4470307 120.173851,87.9979776 119.635653,88.2372446 L107.807126,92.0681781 L107.807126,93.9663431 L121.645616,98.9418542 C122.231423,99.2024156 122.264839,100.014859 121.702392,100.319488" id="Fill-25" fill="#2C3F16"></path>
                <path d="M108.033241,24.1986971 L98.2825485,24.1986971 C96.33241,24.1986971 94.7368421,25.7631497 94.7368421,27.6752585 L94.7368421,60.7025917 C94.7368421,62.6147005 96.33241,64.1791531 98.2825485,64.1791531 L108.033241,64.1791531 C109.983675,64.1791531 111.578947,62.6147005 111.578947,60.7025917 L111.578947,27.6752585 C111.578947,25.7631497 109.983675,24.1986971 108.033241,24.1986971" id="Fill-27" fill="#2B3E16"></path>
                <path d="M141.423955,26.0755489 L133.895176,39.5844691 C133.619535,40.0788232 133.613652,40.6849811 133.879585,41.1847743 L141.182733,54.9094456 C141.796084,56.0616291 143.413449,56.04229 144.000325,54.8756023 L151.400844,40.1616184 C151.652657,39.6612209 151.636477,39.0632217 151.358483,38.5779328 L144.183595,26.058325 C143.562301,24.9741304 142.032305,24.9834977 141.423955,26.0755489" id="Fill-29" fill="#2B3E16"></path>
                <path d="M60,272.418001 C60,268.042528 56.8405446,264.36946 52.5718608,263.344376 L52.5718608,258.315821 C56.8405446,257.290737 60,253.617669 60,249.242196 C60,244.073397 55.5906203,239.882736 50.1512859,239.882736 C44.7119516,239.882736 40.3025719,244.073397 40.3025719,249.242196 C40.3025719,253.617669 43.4620272,257.290737 47.730711,258.315821 L47.730711,263.344376 C43.4620272,264.36946 40.3025719,268.042528 40.3025719,272.418001 C40.3025719,276.793474 43.4620272,280.466542 47.730711,281.491626 L47.730711,285.562248 C43.3098336,286.483635 40,290.224745 40,294.702429 C40,299.871228 44.4093797,304.061889 49.8487141,304.061889 C55.2880484,304.061889 59.6974281,299.871228 59.6974281,294.702429 C59.6974281,290.431544 56.6859304,286.831569 52.5718608,285.708137 L52.5718608,281.491626 C56.8405446,280.466542 60,276.793474 60,272.418001" id="Fill-33" fill="#2B3E16"></path>
                <path d="M73.8505626,183.258807 C70.6788671,183.258807 68.0839489,185.917503 68.0839489,189.167153 L68.0839489,191.573729 L64.6058949,191.573729 L64.6058949,180.586153 L67.8242542,180.586153 C70.9959497,180.586153 73.5908679,177.927457 73.5908679,174.677807 L73.5908679,167.934405 C73.5908679,164.684755 70.9959497,162.026059 67.8242542,162.026059 L60.518022,162.026059 C57.3463265,162.026059 54.7514083,164.684755 54.7514083,167.934405 L54.7514083,174.677807 C54.7514083,177.927457 57.3463265,180.586153 60.518022,180.586153 L61.1278408,180.586153 L61.1278408,188.901076 L58.4149586,188.901076 L58.4149586,188.276268 C58.4149586,185.026619 55.8200404,182.367922 52.648345,182.367922 L48.9245084,182.367922 C45.7528129,182.367922 43.1578947,185.026619 43.1578947,188.276268 L43.1578947,193.089421 C43.1578947,196.339071 45.7528129,198.997767 48.9245084,198.997767 L52.648345,198.997767 C55.8200404,198.997767 58.4149586,196.339071 58.4149586,193.089421 L58.4149586,192.167652 L61.1278408,192.167652 L61.1278408,207.609651 C61.1884541,208.784107 61.5643513,209.371336 62.2555323,209.371336 C62.6096878,209.371336 62.8289474,209.371336 63.6842105,209.371336 C64.254386,209.371336 64.5616141,208.784107 64.6058949,207.609651 L64.6058949,194.543344 L68.1120632,194.543344 C68.391177,197.531371 70.8643633,199.888651 73.8505626,199.888651 L78.4439127,199.888651 C81.6156081,199.888651 84.2105263,197.229955 84.2105263,193.980305 L84.2105263,189.167153 C84.2105263,185.917503 81.6156081,183.258807 78.4439127,183.258807 L73.8505626,183.258807 Z" id="Fill-39" fill="#2C3F16"></path>
                <path d="M73.8505626,42.2750934 C70.6788671,42.2750934 68.0839489,44.9337898 68.0839489,48.1834397 L68.0839489,50.5900158 L64.6058949,50.5900158 L64.6058949,39.6024398 L67.8242542,39.6024398 C70.9959497,39.6024398 73.5908679,36.9437434 73.5908679,33.6940936 L73.5908679,26.9506915 C73.5908679,23.7010417 70.9959497,21.0423453 67.8242542,21.0423453 L60.518022,21.0423453 C57.3463265,21.0423453 54.7514083,23.7010417 54.7514083,26.9506915 L54.7514083,33.6940936 C54.7514083,36.9437434 57.3463265,39.6024398 60.518022,39.6024398 L61.1278408,39.6024398 L61.1278408,47.9173621 L58.4149586,47.9173621 L58.4149586,47.2925551 C58.4149586,44.0429053 55.8200404,41.3842089 52.648345,41.3842089 L48.9245084,41.3842089 C45.7528129,41.3842089 43.1578947,44.0429053 43.1578947,47.2925551 L43.1578947,52.1057073 C43.1578947,55.3553571 45.7528129,58.0140536 48.9245084,58.0140536 L52.648345,58.0140536 C55.8200404,58.0140536 58.4149586,55.3553571 58.4149586,52.1057073 L58.4149586,51.1839388 L61.1278408,51.1839388 L61.1278408,66.6259374 C61.1884541,67.8003939 61.5643513,68.3876221 62.2555323,68.3876221 C62.6096878,68.3876221 62.8289474,68.3876221 63.6842105,68.3876221 C64.254386,68.3876221 64.5616141,67.8003939 64.6058949,66.6259374 L64.6058949,53.5596309 L68.1120632,53.5596309 C68.391177,56.5476576 70.8643633,58.9049381 73.8505626,58.9049381 L78.4439127,58.9049381 C81.6156081,58.9049381 84.2105263,56.2462417 84.2105263,52.9965919 L84.2105263,48.1834397 C84.2105263,44.9337898 81.6156081,42.2750934 78.4439127,42.2750934 L73.8505626,42.2750934 Z" id="Fill-39" fill="#2C3F16"></path>
                <path d="M32.0178077,217.597963 L32.0178077,213.292415 C37.5718611,212.244765 41.7762872,207.339156 41.7762872,201.441884 C41.7762872,194.780762 36.4141506,189.381107 29.7999715,189.381107 C23.1854967,189.381107 17.8236558,194.780762 17.8236558,201.441884 C17.8236558,207.443683 22.1774162,212.419572 27.8778467,213.345721 L27.8778467,217.165264 L14.3596913,223.196546 C13.4453513,223.604527 13.4633897,224.906496 14.388671,225.285591 L27.8778467,230.81032 L27.8778467,231.827892 L15.7536753,235.241836 C14.9035047,235.589961 14.6178474,237.249285 15.4579638,237.624212 L27.8778467,243.738876 L27.8778467,254.003044 C27.7104784,255.812089 28.4013822,256.716612 29.9505582,256.716612 C31.4997342,256.716612 32.1888173,255.812089 32.0178077,254.003044 L32.0178077,243.675148 L44.1419791,238.219806 C44.6588828,237.937792 44.3844626,236.375847 43.8462676,236.135227 L32.0178077,232.277863 L32.0178077,230.366603 L45.855923,225.356765 C46.4420232,225.094406 46.4754386,224.276357 45.9126996,223.969627 L32.0178077,217.597963 Z" id="Fill-41" fill="#2B3E16"></path>
                <path d="M31.2733447,303.009772 L20.3056027,303.009772 C18.4006791,303.009772 16.8421053,301.382234 16.8421053,299.39302 L16.8421053,261.385481 C16.8421053,259.396268 18.4006791,257.76873 20.3056027,257.76873 L31.2733447,257.76873 C33.1782683,257.76873 34.7368421,259.396268 34.7368421,261.385481 L34.7368421,299.39302 C34.7368421,301.382234 33.1782683,303.009772 31.2733447,303.009772" id="Fill-43" fill="#2B3E16"></path>
                <path d="M68.7922098,297.976686 L61.26334,284.467548 C60.9879904,283.973197 60.9821068,283.367043 61.2480428,282.867252 L68.5509847,269.142666 C69.1643436,267.99049 70.7817283,268.009829 71.3686112,269.176509 L78.7695141,283.890402 C79.0210353,284.390796 79.0048556,284.988792 78.7268584,285.474078 L71.5518834,297.99391 C70.9305818,299.078098 69.4008618,299.068428 68.7922098,297.976686" id="Fill-45" fill="#2B3E16"></path>
                <path d="M156.783532,260.925081 C156.783532,253.765791 157.128444,246.597817 156.783532,239.446912 C156.535827,234.307508 153.770087,231.80249 147.423758,231.516801 C149.846636,234.136813 153.269993,238.540134 153.269993,242.508035 C153.269993,251.362292 144.778942,257.032047 144.778942,257.032047 C144.778942,257.032047 135.995095,250.764861 135.995095,242.508035 C135.995095,237.46386 139.165478,233.728344 141.758763,231.515603 C134.999886,231.738405 132.445836,234.631828 132.188762,239.962589 C131.844142,247.113195 132.188762,253.765791 132.188762,260.925081 L126.384396,260.925081 C126.384396,251.916001 125.962479,236.165683 127.211249,232.475985 C129.355972,226.139323 136.576586,225.951559 141.558198,226.262702 L141.558198,207.02153 C141.735774,205.08101 142.596878,204.110749 144.141511,204.110749 C145.686144,204.110749 146.48421,205.08101 146.535711,207.02153 L146.535711,226.375301 C151.510589,226.31421 158.98125,227.190442 161.175455,233.673842 C162.424518,237.36354 162.05384,251.916001 162.05384,260.925081 L156.783532,260.925081 Z" id="Fill-53" fill="#2C3F16"></path>
                <path d="M149.640036,281.661602 C146.468631,281.661602 143.873423,278.988453 143.873423,275.721138 L143.873423,273.301479 L140.395369,273.301479 L140.395369,284.348784 L143.613728,284.348784 C146.785423,284.348784 149.380342,287.021933 149.380342,290.289248 L149.380342,297.069308 C149.380342,300.336623 146.785423,303.009772 143.613728,303.009772 L136.307496,303.009772 C133.13609,303.009772 130.540882,300.336623 130.540882,297.069308 L130.540882,290.289248 C130.540882,287.021933 133.13609,284.348784 136.307496,284.348784 L136.917314,284.348784 L136.917314,275.988662 L134.204432,275.988662 L134.204432,276.616865 C134.204432,279.88418 131.609514,282.557329 128.437819,282.557329 L124.713982,282.557329 C121.542576,282.557329 118.947368,279.88418 118.947368,276.616865 L118.947368,271.777548 C118.947368,268.510233 121.542576,265.837084 124.713982,265.837084 L128.437819,265.837084 C131.609514,265.837084 134.204432,268.510233 134.204432,271.777548 L134.204432,272.704328 L136.917314,272.704328 L136.917314,257.178386 C138.240358,254.766302 139.150795,253.560261 139.648624,253.560261 C140.146454,253.560261 140.395369,254.766302 140.395369,257.178386 L140.395369,270.315721 L143.901537,270.315721 C144.180651,267.311452 146.654127,264.941357 149.640036,264.941357 L154.233386,264.941357 C157.405082,264.941357 160,267.614506 160,270.881821 L160,275.721138 C160,278.988453 157.405082,281.661602 154.233386,281.661602 L149.640036,281.661602 Z" id="Fill-55" fill="#2B3E16"></path>
                <path d="M106.754494,247.673942 L106.754494,251.943468 C112.308875,252.982352 116.513029,257.846919 116.513029,263.694853 C116.513029,270.300245 111.151158,275.654723 104.536645,275.654723 C97.9224285,275.654723 92.5602613,270.300245 92.5602613,263.694853 C92.5602613,257.743267 96.9140465,252.809008 102.61451,251.890608 L102.61451,248.10302 L89.0965728,242.122199 C88.1822276,241.717631 88.2002661,240.426555 89.125257,240.050631 L102.61451,234.572125 L102.61451,233.563066 L90.490269,230.177684 C89.6403893,229.832472 89.3547304,228.18703 90.1945559,227.815241 L102.61451,221.751734 L102.61451,211.573441 C102.707711,210.105371 103.348423,209.371336 104.536645,209.371336 C105.724868,209.371336 106.464151,210.105371 106.754494,211.573441 L106.754494,221.81493 L118.878735,227.22463 C119.395641,227.504284 119.121219,229.053161 118.583021,229.291768 L106.754494,233.11686 L106.754494,235.01213 L120.592984,239.980053 C121.178792,240.240218 121.212207,241.051422 120.649761,241.355586 L106.754494,247.673942 Z" id="Fill-57" fill="#2B3E16"></path>
                <path d="M143.529218,167.059144 L136.000439,180.568283 C135.724799,181.062634 135.718915,181.668788 135.984848,182.168578 L143.287996,195.893164 C143.901347,197.045341 145.518712,197.026002 146.105588,195.859321 L153.506107,181.145429 C153.75792,180.645034 153.74174,180.047039 153.463746,179.561753 L146.288858,167.041921 C145.667564,165.957733 144.137568,165.967402 143.529218,167.059144" id="Fill-61" fill="#2B3E16"></path>
                <path d="M83.502439,153.252156 C82.6129561,150.371909 83.9262444,147.339761 86.4995837,145.797781 L85.7135847,143.252836 C82.8256065,143.583723 80.047692,141.920457 79.1988849,139.172388 C78.240313,136.068999 80.1057148,132.762485 83.3654574,131.787193 C86.6249009,130.8119 90.0446548,132.536987 91.0029276,135.640671 C91.8257142,138.304252 90.5644669,141.113258 88.1305018,142.473603 L88.8794142,144.899028 C92.2408462,144.282295 95.5780521,146.152807 96.5638409,149.343923 C97.6244012,152.778199 95.560406,156.436796 91.9534241,157.516005 C88.3467413,158.595215 84.5629993,156.686433 83.502439,153.252156" id="Fill-65" fill="#2C3F16"></path>
                <path d="M161.654135,188.32899 L158.345865,188.32899 C156.360902,188.32899 154.736842,186.742616 154.736842,184.803714 L154.736842,146.613224 C154.736842,144.674322 156.360902,143.087948 158.345865,143.087948 L161.654135,143.087948 C163.639398,143.087948 165.263158,144.674322 165.263158,146.613224 L165.263158,184.803714 C165.263158,186.742616 163.639398,188.32899 161.654135,188.32899" id="Fill-74" fill="#2C3F16"></path>
                <path d="M166.287137,27.4762002 C166.001508,30.6211821 163.634579,33.0494383 160.681162,33.5374218 L160.428578,36.316416 C163.207285,37.1276288 165.121345,39.8315717 164.848934,42.831833 C164.540891,46.2205077 161.562187,48.6989974 158.195556,48.3676949 C154.828925,48.0363923 152.34964,45.0205825 152.657396,41.6319079 C152.921761,38.7237415 155.155358,36.4913366 157.911363,36.12505 L158.151591,33.4767228 C154.828925,32.757605 152.480673,29.6329557 152.797337,26.148598 C153.138138,22.3990189 156.43408,19.6565038 160.159328,20.0230895 C163.884576,20.3896751 166.628226,23.7266211 166.287137,27.4762002" id="Fill-76" fill="#2B3E16"></path>
                <path d="M167.104772,295.308588 C166.174771,290.345847 160.904764,283.019544 160.904764,283.019544 C160.904764,283.019544 156.254757,290.345847 155.014756,295.308588 C153.829624,300.05231 156.564758,304.288941 160.749763,304.052436 C166.786402,303.711905 168.000983,300.08906 167.104772,295.308588" id="Fill-78" fill="#2B3E16"></path>
                <path d="M92.3679299,33.3313893 C91.4379287,28.3686486 86.1679215,21.0423453 86.1679215,21.0423453 C86.1679215,21.0423453 81.5179152,28.3686486 80.2779135,33.3313893 C79.0927819,38.0751115 81.8279156,42.311742 86.0129213,42.0752376 C92.0495595,41.7347067 93.2641411,38.1118616 92.3679299,33.3313893" id="Fill-78" fill="#2B3E16" transform="translate(86.315789, 31.563518) scale(1, -1) translate(-86.315789, -31.563518) "></path>
                <path d="M83.0993213,63.1270358 C83.0993213,70.2370269 83.4442336,77.3556427 83.0993213,84.4570091 C82.8516168,89.5613207 80.0858764,92.049089 73.7398402,92.3328105 C76.1621322,89.7308399 79.5857827,85.35784 79.5857827,81.4172626 C79.5857827,72.6236785 71.0947313,66.9932626 71.0947313,66.9932626 C71.0947313,66.9932626 62.3108849,73.2169956 62.3108849,81.4172626 C62.3108849,86.426703 65.4812679,90.1364963 68.0745521,92.3342975 C61.3156751,92.112733 58.7616254,89.2389369 58.5045515,83.9451802 C58.1599319,76.8438137 58.5045515,70.2370269 58.5045515,63.1270358 L52.7001859,63.1270358 C52.7001859,72.0740795 52.2782684,87.7159409 53.5270386,91.3802317 C55.6717611,97.6735568 62.8926683,97.8597304 67.8739876,97.5507297 L67.8739876,116.659407 C68.551104,118.14597 69.4352134,118.889251 70.5263158,118.889251 C71.6174182,118.889251 72.3924798,118.14597 72.8515005,116.659407 L72.8515005,97.4392039 C77.8263783,97.4995765 85.2970396,96.6293781 87.4912444,90.1906235 C88.7403074,86.5263327 88.3696291,72.0740795 88.3696291,63.1270358 L83.0993213,63.1270358 Z" id="Fill-5" fill="#2B3E16"></path>
                <path d="M33.0704393,75.4896888 L33.0704393,71.1954917 C38.6244927,70.1502347 42.8289187,65.2572204 42.8289187,59.3750882 C42.8289187,52.731068 37.4667821,47.3452769 30.852603,47.3452769 C24.2381282,47.3452769 18.8762874,52.731068 18.8762874,59.3750882 C18.8762874,65.3614787 23.2300477,70.3245927 28.9304783,71.2486605 L28.9304783,75.0581007 L15.4123229,81.0738975 C14.4979829,81.4808318 14.5160213,82.7794574 15.4413026,83.1575796 L28.9304783,88.6681243 L28.9304783,89.6830839 L16.8063069,93.0882631 C15.9561363,93.435494 15.670479,95.0905584 16.5105954,95.4645221 L28.9304783,101.563488 L28.9304783,111.801303 C29.6672091,113.720955 30.3745935,114.680782 31.0526316,114.680782 C31.7306696,114.680782 32.4032722,113.720955 33.0704393,111.801303 L33.0704393,101.499923 L45.1946107,96.0585869 C45.7115144,95.7772972 45.4370942,94.2196594 44.8988992,93.9793602 L33.0704393,90.1318998 L33.0704393,88.225546 L46.9085546,83.2285703 C47.4946548,82.9668848 47.5280702,82.1509369 46.9653312,81.8449935 L33.0704393,75.4896888 Z" id="Fill-9" fill="#2B3E16"></path>
                <path d="M29.0998599,22.066065 L39.6558639,38.5211963 C40.0422533,39.1235173 40.1079778,39.8546496 39.8291644,40.4524666 L32.1738805,56.8655616 C31.5313719,58.2434533 29.5410688,58.1873048 28.7072812,56.7673767 L18.1925391,38.8610903 C17.8347385,38.2521637 17.7970132,37.5306396 18.0920366,36.9508382 L25.7057639,21.9891985 C26.3653667,20.6932777 28.2466202,20.7359146 29.0998599,22.066065" id="Fill-63" fill="#2B3E16"></path>
                <path d="M51.5789474,28.4071661 C51.5789474,31.8937746 48.9867855,34.7198697 45.7894737,34.7198697 C42.5918691,34.7198697 40,31.8937746 40,28.4071661 C40,24.9208665 42.5918691,22.0944625 45.7894737,22.0944625 C48.9867855,22.0944625 51.5789474,24.9208665 51.5789474,28.4071661" id="Fill-80" fill="#2B3E16"></path>
                <path d="M88.1793744,119.697492 C87.3268732,112.997684 82.4960333,103.107492 82.4960333,103.107492 C82.4960333,103.107492 78.2335275,112.997684 77.0968593,119.697492 C76.0104886,126.10187 78.5176945,131.820953 82.3539498,131.501915 C87.8875348,131.041861 89.0009013,126.151321 88.1793744,119.697492" id="Fill-3" fill="#2B3E16"></path>
                <path d="M69.9869343,158.044972 L63.3438139,144.536052 C63.1008584,144.041698 63.095667,143.43554 63.3303164,142.935747 L69.7740887,129.211076 C70.3152877,128.058892 71.7423918,128.078231 72.2602297,129.244919 L78.7904381,143.958903 C79.0123687,144.4593 78.9980924,145.057299 78.7528008,145.542588 L72.4219405,158.062196 C71.8737332,159.146391 70.5239802,159.137023 69.9869343,158.044972" id="Fill-13" fill="#2C3F16"></path>
                <path d="M165.02148,65.4751468 C164.168978,72.1749544 159.338139,82.0651466 159.338139,82.0651466 C159.338139,82.0651466 155.075633,72.1749544 153.938965,65.4751468 C152.852594,59.0707687 155.3598,53.3516853 159.196055,53.6707238 C164.72964,54.1307773 165.843007,59.0213178 165.02148,65.4751468" id="Fill-19" fill="#2B3E16"></path>
                <path d="M161.841614,205.583514 C160.911613,211.78704 155.641606,220.944625 155.641606,220.944625 C155.641606,220.944625 150.991599,211.78704 149.751598,205.583514 C148.566466,199.65383 151.3016,194.358087 155.486605,194.653493 C161.523244,195.079468 162.737825,199.607746 161.841614,205.583514" id="Fill-51" fill="#2C3F16"></path>
                <path d="M88.1793744,260.681205 C87.3268732,253.981398 82.4960333,244.091205 82.4960333,244.091205 C82.4960333,244.091205 78.2335275,253.981398 77.0968593,260.681205 C76.0104886,267.085265 78.5176945,272.804667 82.3539498,272.485629 C87.8875348,272.025575 89.0009013,267.135035 88.1793744,260.681205" id="Fill-35" fill="#2B3E16"></path>
                <path d="M81.8901682,204.110749 C81.8901682,211.208311 82.245225,218.314483 81.8901682,225.403732 C81.6351783,230.498823 78.7880926,232.982243 72.2554082,233.265468 C74.7489442,230.668046 78.2732903,226.302691 78.2732903,222.369002 C78.2732903,213.591087 69.532502,207.970217 69.532502,207.970217 C69.532502,207.970217 60.4903072,214.183367 60.4903072,222.369002 C60.4903072,227.369685 63.7539367,231.072993 66.423494,233.266656 C59.4658266,233.045775 56.8366577,230.1773 56.5720228,224.892501 C56.2172674,217.803548 56.5720228,211.208311 56.5720228,204.110749 L50.5969405,204.110749 C50.5969405,213.042152 50.1626138,228.65667 51.4481125,232.314555 C53.655915,238.596581 61.0892019,238.782726 66.2170306,238.474266 L66.2170306,257.549539 C66.5021681,259.098489 67.4122807,259.872964 68.9473684,259.872964 C70.4824561,259.872964 71.2803136,259.098489 71.3409409,257.549539 L71.3409409,238.362638 C76.4621387,238.423202 84.1525253,237.554525 86.4112655,231.127026 C87.6970656,227.469141 87.315485,213.042152 87.315485,204.110749 L81.8901682,204.110749 Z" id="Fill-37" fill="#2B3E16"></path>
                <path d="M107.202216,165.18241 L98.0609418,165.18241 C96.232687,165.18241 94.7368421,166.788033 94.7368421,168.75046 L94.7368421,202.646934 C94.7368421,204.609361 96.232687,206.214984 98.0609418,206.214984 L107.202216,206.214984 C109.030748,206.214984 110.526316,204.609361 110.526316,202.646934 L110.526316,168.75046 C110.526316,166.788033 109.030748,165.18241 107.202216,165.18241" id="Fill-59" fill="#2B3E16"></path>
            </g>
        </g>
    </g>
</svg>