<?xml version="1.0" encoding="UTF-8"?>
<svg width="77px" height="139px" viewBox="0 0 77 139" version="1.1" xmlns="http://www.w3.org/2000/svg" xmlns:xlink="http://www.w3.org/1999/xlink">
    <!-- Generator: Sketch 51.3 (57544) - http://www.bohemiancoding.com/sketch -->
    <title>Group 13</title>
    <desc>Created with Sketch.</desc>
    <defs>
        <polygon id="path-1" points="0.0132452317 0 5.31639858 0 5.31639858 9.09001807 0.0132452317 9.09001807"></polygon>
    </defs>
    <g id="Page-1" stroke="none" stroke-width="1" fill="none" fill-rule="evenodd">
        <g id="Mobile-Korset" transform="translate(-219.000000, -244.000000)">
            <g id="Group-13" transform="translate(219.000000, 244.000000)">
                <rect id="Rectangle-2" stroke="#979797" stroke-width="0.7" fill="#FFFFFF" x="0.35" y="0.35" width="76.3" height="138.3" rx="6"></rect>
                <g id="Group-15" transform="translate(5.000000, 6.000000)">
                    <rect id="Rectangle-6" fill="#F5F5F5" x="0" y="0" width="68" height="128"></rect>
                    <g id="Group-12" transform="translate(1.000000, 2.000000)">
                        <path d="M45.2170213,56.5288684 C45.2170213,53.8619178 43.142401,51.6997691 40.5831065,51.6997691 C38.0236842,51.6997691 35.9489362,53.8619178 35.9489362,56.5288684 C35.9489362,59.1958189 38.0236842,61.3579677 40.5831065,61.3579677 C43.142401,61.3579677 45.2170213,59.1958189 45.2170213,56.5288684" id="Fill-15" fill="#C3A550"></path>
                        <path d="M32.7481941,66.3826393 C32.3553117,64.2387881 30.1291091,61.073903 30.1291091,61.073903 C30.1291091,61.073903 28.1646972,64.2387881 27.640854,66.3826393 C27.1400599,68.4318768 28.295658,70.2620561 30.0636287,70.1598887 C32.6136974,70.012783 33.1268018,68.4477524 32.7481941,66.3826393" id="Fill-69" fill="#C3A550"></path>
                        <path d="M12.0765957,66.7551963 C12.0765957,69.4222757 10.0018477,71.5842956 7.44255319,71.5842956 C4.88325868,71.5842956 2.80851064,69.4222757 2.80851064,66.7551963 C2.80851064,64.088117 4.88325868,61.926097 7.44255319,61.926097 C10.0018477,61.926097 12.0765957,64.088117 12.0765957,66.7551963" id="Fill-31" fill="#C3A550"></path>
                        <path d="M51.6765957,74.3756255 C51.6765957,76.2541635 50.3456113,77.8311354 48.5472144,78.2712383 L48.5472144,80.4301666 C50.3456113,80.8702696 51.6765957,82.4472414 51.6765957,84.3257794 C51.6765957,86.5449189 49.8190554,88.3441109 47.5274983,88.3441109 C45.2361962,88.3441109 43.3785283,86.5449189 43.3785283,84.3257794 C43.3785283,82.4472414 44.7096403,80.8702696 46.5077822,80.4301666 L46.5077822,78.2712383 C44.7096403,77.8311354 43.3785283,76.2541635 43.3785283,74.3756255 C43.3785283,72.4970874 44.7096403,70.9201156 46.5077822,70.4800126 L46.5077822,68.7323574 C44.6455256,68.336775 43.2510638,66.7305905 43.2510638,64.8081697 C43.2510638,62.5890303 45.1087317,60.7898383 47.4000338,60.7898383 C49.6915909,60.7898383 51.5491312,62.5890303 51.5491312,64.8081697 C51.5491312,66.6418045 50.2804769,68.1873951 48.5472144,68.6697224 L48.5472144,70.4800126 C50.3456113,70.9201156 51.6765957,72.4970874 51.6765957,74.3756255" id="Fill-49" fill="#C3A550"></path>
                        <path d="M44.6553191,117.034642 C44.6553191,114.367563 42.5806989,112.205543 40.0214043,112.205543 C37.4619821,112.205543 35.387234,114.367563 35.387234,117.034642 C35.387234,119.701721 37.4619821,121.863741 40.0214043,121.863741 C42.5806989,121.863741 44.6553191,119.701721 44.6553191,117.034642" id="Fill-47" fill="#C3A550"></path>
                        <path d="M32.8953067,119.891465 C33.2723565,118.647362 32.7155902,117.337385 31.6252509,116.671397 L31.9583222,115.571886 C33.1821181,115.714825 34.3594006,114.996315 34.7189604,113.809312 C35.1251602,112.46856 34.3345597,111.040188 32.9533534,110.618874 C31.5721471,110.197561 30.1231352,110.942903 29.7169354,112.283655 C29.3682752,113.434288 29.9028621,114.647615 30.9341408,115.235395 L30.6166586,116.283147 C29.1922341,116.016599 27.7782023,116.824763 27.3604692,118.203285 C26.9110512,119.686848 27.78568,121.267315 29.3141575,121.73352 C30.8425082,122.199598 32.4458887,121.375028 32.8953067,119.891465" id="Fill-67" fill="#C3A550"></path>
                        <path d="M19.6595745,48.6243745 C19.6595745,46.745964 18.3285699,45.1688646 16.5302733,44.7286341 L16.5302733,42.569961 C18.3285699,42.1297304 19.6595745,40.552631 19.6595745,38.6742206 C19.6595745,36.4549535 17.802006,34.6558891 15.5105417,34.6558891 C13.2190775,34.6558891 11.361509,36.4549535 11.361509,38.6742206 C11.361509,40.552631 12.6925136,42.1297304 14.4908102,42.569961 L14.4908102,44.7286341 C12.6925136,45.1688646 11.361509,46.745964 11.361509,48.6243745 C11.361509,50.502785 12.6925136,52.0798844 14.4908102,52.5201149 L14.4908102,54.2676426 C12.628398,54.6630974 11.2340426,56.2694095 11.2340426,58.1918303 C11.2340426,60.4110973 13.091611,62.2101617 15.3830753,62.2101617 C17.6745395,62.2101617 19.532108,60.4110973 19.532108,58.1918303 C19.532108,56.3581955 18.2634345,54.8124773 16.5302733,54.3302776 L16.5302733,52.5201149 C18.3285699,52.0798844 19.6595745,50.502785 19.6595745,48.6243745" id="Fill-1" fill="#C3A550"></path>
                        <path d="M8.2924972,60.221709 L4.06494961,60.221709 C3.21944009,60.221709 2.52765957,59.5325434 2.52765957,58.6902299 L2.52765957,44.1411788 C2.52765957,43.2988653 3.21944009,42.6096998 4.06494961,42.6096998 L8.2924972,42.6096998 C9.13800672,42.6096998 9.82978723,43.2988653 9.82978723,44.1411788 L9.82978723,58.6902299 C9.82978723,59.5325434 9.13800672,60.221709 8.2924972,60.221709" id="Fill-11" fill="#C3A550"></path>
                        <path d="M51.9574468,13.8698518 C51.9574468,15.7482623 50.6264623,17.3253617 48.8280655,17.7655922 L48.8280655,19.9242654 C50.6264623,20.3644959 51.9574468,21.9415953 51.9574468,23.8200058 C51.9574468,26.0392728 50.0999064,27.8383372 47.8083494,27.8383372 C45.5170473,27.8383372 43.6593794,26.0392728 43.6593794,23.8200058 C43.6593794,21.9415953 44.9904913,20.3644959 46.7886333,19.9242654 L46.7886333,17.7655922 C44.9904913,17.3253617 43.6593794,15.7482623 43.6593794,13.8698518 C43.6593794,11.9914413 44.9904913,10.4143419 46.7886333,9.9741114 L46.7886333,8.22658372 C44.9263767,7.83112888 43.5319149,6.22481685 43.5319149,4.30239607 C43.5319149,2.08312904 45.3895827,0.284064665 47.6808849,0.284064665 C49.9724419,0.284064665 51.8299823,2.08312904 51.8299823,4.30239607 C51.8299823,6.13603086 50.561328,7.68174901 48.8280655,8.16394877 L48.8280655,9.9741114 C50.6264623,10.4143419 51.9574468,11.9914413 51.9574468,13.8698518" id="Fill-17" fill="#C3A550"></path>
                        <path d="M61.7371726,43.4618938 C61.7371726,43.4618938 61.8860375,37.3461662 61.7371726,34.2938629 C61.6302629,32.0999321 60.4365638,31.0306417 57.6974755,30.9086927 C58.7431943,32.0270695 60.2207224,33.9066686 60.2207224,35.6004042 C60.2207224,39.380055 56.5559676,41.8001155 56.5559676,41.8001155 C56.5559676,41.8001155 52.7648419,39.1250359 52.7648419,35.6004042 C52.7648419,33.4472508 54.1331855,31.8527106 55.2524522,30.9080536 C52.3353073,31.0032863 51.2329744,32.2384988 51.1220208,34.5138568 C50.9732823,37.56616 51.1220208,40.4058835 51.1220208,43.4618938 L48.6168449,43.4618938 C48.6168449,39.6162831 48.4347445,32.8931117 48.9737162,31.3181293 C49.8993827,28.6131378 53.0158144,28.5331167 55.1658881,28.6659312 L55.1658881,20.4526559 C55.4694804,19.4842186 55.8510638,19 56.3106383,19 C56.7702128,19 57.1047309,19.4842186 57.3141927,20.4526559 L57.3141927,28.7138671 C59.4613599,28.6879178 62.6857123,29.0619457 63.6327355,31.8294457 C64.1718335,33.4044281 64.011848,39.6162831 64.011848,43.4618938 C62.4953978,43.4618938 61.7371726,43.4618938 61.7371726,43.4618938 Z" id="Fill-21" fill="#C3A550"></path>
                        <path d="M58.6554869,52.5121755 C57.2669199,52.5121755 56.1306351,51.3689642 56.1306351,49.9716492 L56.1306351,48.9368469 L54.6078052,48.9368469 L54.6078052,53.6613882 L56.0169304,53.6613882 C57.4056243,53.6613882 58.5417823,54.8045995 58.5417823,56.2019146 L58.5417823,59.101506 C58.5417823,60.498821 57.4056243,61.6420323 56.0169304,61.6420323 L52.8179726,61.6420323 C51.4294056,61.6420323 50.2931207,60.498821 50.2931207,59.101506 L50.2931207,56.2019146 C50.2931207,54.8045995 51.4294056,53.6613882 52.8179726,53.6613882 L53.0849754,53.6613882 L53.0849754,50.0860597 L51.8971681,50.0860597 L51.8971681,50.3547201 C51.8971681,51.7520351 50.7610102,52.8952464 49.3723163,52.8952464 L47.7418731,52.8952464 C46.3533061,52.8952464 45.2170213,51.7520351 45.2170213,50.3547201 L45.2170213,48.2851156 C45.2170213,46.8878006 46.3533061,45.7445893 47.7418731,45.7445893 L49.3723163,45.7445893 C50.7610102,45.7445893 51.8971681,46.8878006 51.8971681,48.2851156 L51.8971681,48.6814663 L53.0849754,48.6814663 L53.0849754,42.0415704 C53.4621468,41.3471901 53.767155,41 54,41 C54.232845,41 54.4354468,41.3471901 54.6078052,42.0415704 L54.6078052,47.6599439 L56.1429446,47.6599439 C56.2651517,46.375124 57.3481375,45.3615184 58.6554869,45.3615184 L60.6666375,45.3615184 C62.0553314,45.3615184 63.1914894,46.5047297 63.1914894,47.9020447 L63.1914894,49.9716492 C63.1914894,51.3689642 62.0553314,52.5121755 60.6666375,52.5121755 L58.6554869,52.5121755 Z" id="Fill-23" fill="#C3A550"></path>
                        <path d="M46.4479067,35.2471154 L40.4682689,37.9639413 L40.4682689,39.7996653 C42.8585206,40.2465017 44.6677208,42.3382138 44.6677208,44.8527634 C44.6677208,47.6930121 42.3603129,49.9953811 39.513848,49.9953811 C36.6675104,49.9953811 34.3599752,47.6930121 34.3599752,44.8527634 C34.3599752,42.2936444 36.233567,40.1719655 38.6866832,39.7769362 L38.6866832,38.1484406 L32.8694243,35.5767509 C32.4759483,35.4027907 32.483711,34.847642 32.8817681,34.6859987 L38.6866832,32.3302989 L38.6866832,31.8964143 L33.4691823,30.4407361 C33.1034483,30.2922985 32.9805189,29.5847759 33.3419262,29.4249103 L38.6866832,26.8176667 L38.6866832,22.4411085 L40.4682689,22.4411085 L40.4682689,26.84484 L45.6857698,29.1709539 C45.9082135,29.2912023 45.7901198,29.957076 45.5585137,30.0598014 L40.4682689,31.7045502 L40.4682689,32.5194964 L46.4234735,34.6556509 C46.6755679,34.7675187 46.6899478,35.1163279 46.4479067,35.2471154" id="Fill-25" fill="#C3A550"></path>
                        <path d="M40.3095185,2.27251732 L36.0819709,2.27251732 C35.2364614,2.27251732 34.5446809,2.9616829 34.5446809,3.80399639 L34.5446809,18.3530475 C34.5446809,19.195361 35.2364614,19.8845266 36.0819709,19.8845266 L40.3095185,19.8845266 C41.1551561,19.8845266 41.8468085,19.195361 41.8468085,18.3530475 L41.8468085,3.80399639 C41.8468085,2.9616829 41.1551561,2.27251732 40.3095185,2.27251732" id="Fill-27" fill="#C3A550"></path>
                        <path d="M54.6754976,3.18617347 L51.4851422,8.84580584 C51.3683383,9.05291806 51.3658452,9.30687105 51.4785354,9.516262 L54.5732786,15.2662844 C54.8331891,15.7489977 55.5185552,15.7408955 55.7672466,15.2521056 L58.9032514,9.08760555 C59.0099581,8.87796141 59.0031019,8.62742652 58.8853007,8.42411221 L55.8449081,3.17895746 C55.5816318,2.72472848 54.933289,2.72865298 54.6754976,3.18617347" id="Fill-29" fill="#C3A550"></path>
                        <path d="M19.3787234,109.414213 C19.3787234,107.535675 18.0477188,105.958703 16.2494222,105.5186 L16.2494222,103.359672 C18.0477188,102.919569 19.3787234,101.342597 19.3787234,99.4640589 C19.3787234,97.2449194 17.5211549,95.4457275 15.2296907,95.4457275 C12.9382264,95.4457275 11.0806579,97.2449194 11.0806579,99.4640589 C11.0806579,101.342597 12.4116625,102.919569 14.2099591,103.359672 L14.2099591,105.5186 C12.4116625,105.958703 11.0806579,107.535675 11.0806579,109.414213 C11.0806579,111.292751 12.4116625,112.869723 14.2099591,113.309826 L14.2099591,115.057481 C12.3475469,115.453063 10.9531915,117.059248 10.9531915,118.981669 C10.9531915,121.200808 12.81076,123 15.1022242,123 C17.3936885,123 19.251257,121.200808 19.251257,118.981669 C19.251257,117.148034 17.9825834,115.602443 16.2494222,115.120116 L16.2494222,113.309826 C18.0477188,112.869723 19.3787234,111.292751 19.3787234,109.414213" id="Fill-33" fill="#C3A550"></path>
                        <path d="M26.0767635,70.7718892 C24.6880696,70.7718892 23.5519116,71.9151005 23.5519116,73.3124155 L23.5519116,74.3472177 L22.0290818,74.3472177 L22.0290818,69.6226764 L23.438207,69.6226764 C24.8269009,69.6226764 25.9630589,68.4794651 25.9630589,67.0821501 L25.9630589,64.1825587 C25.9630589,62.7852436 24.8269009,61.6420323 23.438207,61.6420323 L20.2392492,61.6420323 C18.8505553,61.6420323 17.7143973,62.7852436 17.7143973,64.1825587 L17.7143973,67.0821501 C17.7143973,68.4794651 18.8505553,69.6226764 20.2392492,69.6226764 L20.506252,69.6226764 L20.506252,73.198005 L19.3184447,73.198005 L19.3184447,72.9293446 C19.3184447,71.5320296 18.1822868,70.3888183 16.7935929,70.3888183 L15.1631497,70.3888183 C13.7744558,70.3888183 12.6382979,71.5320296 12.6382979,72.9293446 L12.6382979,74.998949 C12.6382979,76.3962641 13.7744558,77.5394754 15.1631497,77.5394754 L16.7935929,77.5394754 C18.1822868,77.5394754 19.3184447,76.3962641 19.3184447,74.998949 L19.3184447,74.6025983 L20.506252,74.6025983 L20.506252,81.2424942 C20.5327909,81.7474981 20.6973736,82 21,82 C21.1550633,82 21.2510638,82 21.6255319,82 C21.8751773,82 22.0096939,81.7474981 22.0290818,81.2424942 L22.0290818,75.6241208 L23.5642212,75.6241208 C23.6864283,76.9089406 24.7692872,77.9225463 26.0767635,77.9225463 L28.0879141,77.9225463 C29.476608,77.9225463 30.612766,76.779335 30.612766,75.38202 L30.612766,73.3124155 C30.612766,71.9151005 29.476608,70.7718892 28.0879141,70.7718892 L26.0767635,70.7718892 Z" id="Fill-39" fill="#C3A550"></path>
                        <path d="M7.88961251,85.3201234 L7.88961251,83.4842723 C10.2797233,83.037563 12.0890405,80.9458509 12.0890405,78.4313013 C12.0890405,75.5910526 9.78151846,73.2886836 6.93519705,73.2886836 C4.08874839,73.2886836 1.78135358,75.5910526 1.78135358,78.4313013 C1.78135358,80.9904202 3.65493475,83.1120992 6.10803699,83.5070014 L6.10803699,85.135624 L0.290683893,87.7073138 C-0.102789786,87.881274 -0.0950272072,88.4364227 0.303154922,88.598066 L6.10803699,90.9537658 L6.10803699,91.3876504 L0.890565822,92.8433286 C0.524706563,92.9917661 0.401777852,93.6992888 0.763310428,93.8591543 L6.10803699,96.466398 L6.10803699,100.842956 C6.03601233,101.614319 6.33333333,102 7,102 C7.66666667,102 7.96320417,101.614319 7.88961251,100.842956 L7.88961251,96.4392247 L13.1070837,94.1131108 C13.3295261,93.9928624 13.2114331,93.3268617 12.9798283,93.2242633 L7.88961251,91.5795144 L7.88961251,90.7645683 L13.8446559,88.6284138 C14.0968761,88.516546 14.111256,88.1677368 13.869089,88.0369492 L7.88961251,85.3201234 Z" id="Fill-41" fill="#C3A550"></path>
                        <path d="M7.74605353,122.431871 L2.92628689,122.431871 C2.08916953,122.431871 1.40425532,121.736967 1.40425532,120.88764 L1.40425532,104.659704 C1.40425532,103.810377 2.08916953,103.115473 2.92628689,103.115473 L7.74605353,103.115473 C8.5831709,103.115473 9.26808511,103.810377 9.26808511,104.659704 L9.26808511,120.88764 C9.26808511,121.736967 8.5831709,122.431871 7.74605353,122.431871" id="Fill-43" fill="#C3A550"></path>
                        <path d="M23.5009592,119.813876 L20.3105653,114.154152 C20.1938846,113.947041 20.1913914,113.69309 20.304083,113.4837 L23.3987389,107.733713 C23.6586526,107.251003 24.344027,107.259105 24.5927214,107.747892 L27.7288887,113.912354 C27.835472,114.121997 27.8286158,114.37253 27.7108132,114.575843 L24.6703838,119.821092 C24.4071044,120.275318 23.7588783,120.271267 23.5009592,119.813876" id="Fill-45" fill="#C3A550"></path>
                        <path d="M61.4563216,104.251732 C61.4563216,101.195722 61.6051864,98.1360045 61.4563216,95.0835734 C61.3494118,92.8897704 60.1557127,91.82048 57.4166244,91.6985311 C58.4623433,92.8169079 59.9398713,94.6965069 59.9398713,96.3902425 C59.9398713,100.169765 56.2751165,102.589954 56.2751165,102.589954 C56.2751165,102.589954 52.4839908,99.9147464 52.4839908,96.3902425 C52.4839908,94.2370891 53.8523344,92.642549 54.9716011,91.6980197 C52.0544563,91.7931246 50.9521233,93.0282094 50.8411697,95.3036952 C50.6924312,98.3559984 50.8411697,101.195722 50.8411697,104.251732 L48.3359939,104.251732 C48.3359939,100.406121 48.1538935,93.68295 48.6928652,92.1079677 C49.6185317,89.4031039 52.7349633,89.3229551 54.8850371,89.4557695 L54.8850371,81.2424942 C54.961679,80.4141647 55.3333333,80 56,80 C56.6666667,80 57.0111139,80.4141647 57.0333416,81.2424942 L57.0333416,89.5038333 C59.1805088,89.4777561 62.4048612,89.8517841 63.3518844,92.6192841 C63.8909825,94.1942664 63.730997,100.406121 63.730997,104.251732 L61.4563216,104.251732 Z" id="Fill-53" fill="#C3A550"></path>
                        <path d="M58.3746358,113.017949 C56.9860688,113.017949 55.849784,111.874738 55.849784,110.477423 L55.849784,109.442621 L54.3269542,109.442621 L54.3269542,114.167162 L55.7360794,114.167162 C57.1247733,114.167162 58.2609312,115.310373 58.2609312,116.707688 L58.2609312,119.60728 C58.2609312,121.004595 57.1247733,122.147806 55.7360794,122.147806 L52.5371215,122.147806 C51.1485545,122.147806 50.0122696,121.004595 50.0122696,119.60728 L50.0122696,116.707688 C50.0122696,115.310373 51.1485545,114.167162 52.5371215,114.167162 L52.8041243,114.167162 L52.8041243,110.591833 L51.6163171,110.591833 L51.6163171,110.860494 C51.6163171,112.257809 50.4801591,113.40102 49.0914652,113.40102 L47.4610221,113.40102 C46.0724551,113.40102 44.9361702,112.257809 44.9361702,110.860494 L44.9361702,108.790889 C44.9361702,107.393574 46.0724551,106.250363 47.4610221,106.250363 L49.0914652,106.250363 C50.4801591,106.250363 51.6163171,107.393574 51.6163171,108.790889 L51.6163171,109.18724 L52.8041243,109.18724 L52.8041243,102.547344 C53.3834053,101.515781 53.7820306,101 54,101 C54.2179694,101 54.3269542,101.515781 54.3269542,102.547344 L54.3269542,108.165718 L55.8620935,108.165718 C55.9843006,106.880898 57.0672864,105.867292 58.3746358,105.867292 L60.3857864,105.867292 C61.7744803,105.867292 62.9106383,107.010503 62.9106383,108.407818 L62.9106383,110.477423 C62.9106383,111.874738 61.7744803,113.017949 60.3857864,113.017949 L58.3746358,113.017949 Z" id="Fill-55" fill="#C3A550"></path>
                        <path d="M40.1874178,98.469715 L40.1874178,100.305566 C42.5776695,100.752275 44.3868698,102.843987 44.3868698,105.358537 C44.3868698,108.198786 42.0794618,110.501155 39.2329969,110.501155 C36.3866593,110.501155 34.0791241,108.198786 34.0791241,105.358537 C34.0791241,102.799418 35.952716,100.677739 38.4058322,100.282837 L38.4058322,98.6542143 L32.5885732,96.0825245 C32.1950973,95.9085644 32.2028599,95.3534156 32.600917,95.1917724 L38.4058322,92.8360725 L38.4058322,92.402188 L33.1883313,90.9465097 C32.8225972,90.7980722 32.6996678,90.0905496 33.0610752,89.930684 L38.4058322,87.3234403 L38.4058322,82.9468822 C38.44594,82.3156274 38.7216616,82 39.2329969,82 C39.7443323,82 40.0624726,82.3156274 40.1874178,82.9468822 L40.1874178,87.3506137 L45.4049187,89.6767276 C45.6273624,89.7969759 45.5092688,90.4629767 45.2776626,90.5655751 L40.1874178,92.2103239 L40.1874178,93.0252701 L46.1426225,95.1614246 C46.3947168,95.2732924 46.4090968,95.6221015 46.1670556,95.7528891 L40.1874178,98.469715 Z" id="Fill-57" fill="#C3A550"></path>
                        <path d="M55.7989019,63.9759625 L52.6085465,69.6356863 C52.4917426,69.8427972 52.4892494,70.0967486 52.6019397,70.3061383 L55.6966828,76.056125 C55.9565934,76.5388352 56.6419595,76.5307331 56.8906509,76.0419462 L60.0266556,69.8774845 C60.1333623,69.6678417 60.1265062,69.4173083 60.008705,69.2139953 L56.9683124,63.9687465 C56.7050361,63.5145204 56.0566932,63.5185714 55.7989019,63.9759625" id="Fill-61" fill="#C3A550"></path>
                        <path d="M30.0153389,57.9654258 C29.6384163,56.7211897 30.1949284,55.4113337 31.2853931,54.7452147 L30.9523223,53.6458259 C29.728528,53.7887655 28.5513737,53.0702522 28.1916877,51.8831158 C27.7854883,50.5424845 28.5759611,49.1141056 29.9572923,48.6927898 C31.3384968,48.271474 32.7876336,49.016693 33.1937062,50.3574514 C33.5423659,51.50809 33.0079064,52.7215508 31.9765023,53.3092056 L32.2938574,54.3569632 C33.71828,54.0905411 35.1324367,54.8985823 35.5501693,56.2771104 C35.9995867,57.7606813 35.124959,59.3411561 33.5964835,59.8073631 C32.0681348,60.2735701 30.4647563,59.4489966 30.0153389,57.9654258" id="Fill-65" fill="#C3A550"></path>
                        <g id="Group-4" transform="translate(28.085106, 0.000000)">
                            <g id="Group-3">
                                <mask id="mask-2" fill="white">
                                    <use xlink:href="#path-1"></use>
                                </mask>
                                <g id="Clip-72"></g>
                                <path d="M5.20570736,3.78141761 C4.81525588,5.92526564 2.60282765,9.09001807 2.60282765,9.09001807 C2.60282765,9.09001807 0.650570254,5.92526564 0.129968282,3.78141761 C-0.367727203,1.73205509 0.780720747,-0.0979935075 2.5377524,0.00404572098 C5.0720428,0.151279238 5.58197243,1.71617948 5.20570736,3.78141761" id="Fill-71" fill="#C3A550" mask="url(#mask-2)"></path>
                            </g>
                        </g>
                        <path d="M63.6167781,73.2886836 L62.2044985,73.2886836 C61.3571307,73.2886836 60.6638298,72.6013947 60.6638298,71.7613749 L60.6638298,55.2155304 C60.6638298,54.3755106 61.3571307,53.6882217 62.2044985,53.6882217 L63.6167781,53.6882217 C64.4642743,53.6882217 65.1574468,54.3755106 65.1574468,55.2155304 L65.1574468,71.7613749 C65.1574468,72.6013947 64.4642743,73.2886836 63.6167781,73.2886836" id="Fill-74" fill="#C3A550"></path>
                        <path d="M65.9870629,3.7870181 C65.858095,5.13932702 64.7893742,6.18345144 63.4558411,6.39327918 L63.3417941,7.58821729 C64.5964414,7.93703019 65.4606819,9.099697 65.3376824,10.3897776 C65.1985943,11.8468718 63.8536435,12.9125961 62.3335351,12.7701396 C60.8134267,12.627683 59.6939751,11.3309167 59.8329334,9.87382249 C59.9523001,8.62334175 60.9608186,7.66343127 62.2052159,7.5059319 L62.3136839,6.36717928 C60.8134267,6.05796622 59.7531394,4.71440013 59.8961199,3.21616323 C60.0499991,1.60388392 61.5381899,0.424631461 63.2202217,0.582259406 C64.9022536,0.739887351 66.1410718,2.17473879 65.9870629,3.7870181" id="Fill-76" fill="#C3A550"></path>
                        <path d="M65.8886223,118.934602 C65.4957462,116.790751 63.2694485,113.625866 63.2694485,113.625866 C63.2694485,113.625866 61.3050682,116.790751 60.7812334,118.934602 C60.2805784,120.98384 61.4360269,122.814019 63.2039692,122.711852 C65.7541277,122.564746 66.2672239,120.999715 65.8886223,118.934602" id="Fill-78" fill="#C3A550"></path>
                        <path d="M29.7201514,19.0323326 C29.7201514,22.0883428 29.8690162,25.1480602 29.7201514,28.2003634 C29.6132416,30.3942942 28.4195425,31.4635846 25.6805806,31.5855336 C26.7260467,30.4671568 28.2037011,28.5875577 28.2037011,26.8938222 C28.2037011,23.1141714 24.5389463,20.6941109 24.5389463,20.6941109 C24.5389463,20.6941109 20.7478206,23.3691904 20.7478206,26.8938222 C20.7478206,29.0469755 22.1161642,30.6415157 23.2354309,31.5861727 C20.3182861,31.4909401 19.2159531,30.2557275 19.1049995,27.9803695 C18.956261,24.9280663 19.1049995,22.0883428 19.1049995,19.0323326 L16.5998236,19.0323326 C16.5998236,22.8779432 16.4177232,29.6011147 16.9566949,31.176097 C17.8823615,33.8810886 20.9989195,33.9611096 23.1488669,33.8282952 L23.1488669,42.0415704 C23.4411117,42.6805235 23.822695,43 24.293617,43 C24.764539,43 25.0990571,42.6805235 25.2971714,42.0415704 L25.2971714,33.7803592 C27.4443386,33.8063085 30.668691,33.4322806 31.6157142,30.6647806 C32.1548123,29.0897983 31.9948268,22.8779432 31.9948268,19.0323326 L29.7201514,19.0323326 Z" id="Fill-5" fill="#C3A550"></path>
                        <path d="M26.6384656,9.98205084 C25.2497717,9.98205084 24.1136138,11.1252621 24.1136138,12.5225772 L24.1136138,13.5573794 L22.5907839,13.5573794 L22.5907839,8.83283809 L23.9999091,8.83283809 C25.3886031,8.83283809 26.524761,7.68962678 26.524761,6.29231177 L26.524761,3.39272031 C26.524761,1.9954053 25.3886031,0.852193995 23.9999091,0.852193995 L20.8009513,0.852193995 C19.4122574,0.852193995 18.2760994,1.9954053 18.2760994,3.39272031 L18.2760994,6.29231177 C18.2760994,7.68962678 19.4122574,8.83283809 20.8009513,8.83283809 L21.0679541,8.83283809 L21.0679541,12.4081666 L19.8801469,12.4081666 L19.8801469,12.1395062 C19.8801469,10.7421912 18.7439889,9.59897992 17.355295,9.59897992 L15.7248519,9.59897992 C14.336158,9.59897992 13.2,10.7421912 13.2,12.1395062 L13.2,14.2091107 C13.2,15.6064257 14.336158,16.749637 15.7248519,16.749637 L17.355295,16.749637 C18.7439889,16.749637 19.8801469,15.6064257 19.8801469,14.2091107 L19.8801469,13.81276 L21.0679541,13.81276 L21.0679541,20.4526559 C21.4496576,21.4842186 21.7603395,22 22,22 C22.2396605,22 22.4365885,21.4842186 22.5907839,20.4526559 L22.5907839,14.8342824 L24.1259233,14.8342824 C24.2481304,16.1191023 25.3309893,17.1327079 26.6384656,17.1327079 L28.6496162,17.1327079 C30.0383101,17.1327079 31.1744681,15.9894966 31.1744681,14.5921816 L31.1744681,12.5225772 C31.1744681,11.1252621 30.0383101,9.98205084 28.6496162,9.98205084 L26.6384656,9.98205084 Z" id="Fill-7" fill="#C3A550"></path>
                        <path d="M8.45131464,24.2462204 L8.45131464,22.4104963 C10.8414255,21.96366 12.6507427,19.8719479 12.6507427,17.3573983 C12.6507427,14.5171496 10.3432206,12.2147806 7.49689918,12.2147806 C4.65045052,12.2147806 2.34305571,14.5171496 2.34305571,17.3573983 C2.34305571,19.9165172 4.21663688,22.0381962 6.66973912,22.4332254 L6.66973912,24.061721 L0.852386021,26.6334108 C0.458912341,26.807371 0.46667492,27.3625197 0.864857049,27.524163 L6.66973912,29.8798628 L6.66973912,30.3137474 L1.45226795,31.7694256 C1.08640869,31.9178631 0.96347998,32.6253858 1.32501256,32.7852513 L6.66973912,35.392495 L6.66973912,39.7690531 C6.98678113,40.5896844 7.29119433,41 7.58297872,41 C7.87476312,41 8.16420842,40.5896844 8.45131464,39.7690531 L8.45131464,35.3653217 L13.6687858,33.0392078 C13.8912282,32.9189594 13.7731352,32.2530856 13.5415304,32.1503603 L8.45131464,30.5056114 L8.45131464,29.6906653 L14.4063581,27.5545108 C14.6585783,27.442643 14.6729581,27.0938338 14.4307911,26.9630462 L8.45131464,24.2462204 Z" id="Fill-9" fill="#C3A550"></path>
                        <path d="M6.52544707,1.29443001 L11.0853841,8.40287169 C11.252295,8.66306792 11.2806863,8.97890931 11.1602457,9.2371599 L7.85334923,16.3274423 C7.57580112,16.9226769 6.71603858,16.8984213 6.35586263,16.2850275 L1.81374974,8.54970227 C1.65918855,8.28665244 1.64289214,7.97496174 1.7703351,7.72449368 L5.05928012,1.26122451 C5.34421253,0.701400514 6.15686828,0.719819191 6.52544707,1.29443001" id="Fill-63" fill="#C3A550"></path>
                        <path d="M16.0085106,4.40300231 C16.0085106,5.89349071 14.8767838,7.10161663 13.4808511,7.10161663 C12.0847905,7.10161663 10.9531915,5.89349071 10.9531915,4.40300231 C10.9531915,2.91264592 12.0847905,1.70438799 13.4808511,1.70438799 C14.8767838,1.70438799 16.0085106,2.91264592 16.0085106,4.40300231" id="Fill-80" fill="#C3A550"></path>
                        <path d="M31.8956389,43.0080907 C31.5275134,40.1779003 29.4414689,36 29.4414689,36 C29.4414689,36 27.6008414,40.1779003 27.1100074,43.0080907 C26.6408928,45.7134833 27.7235499,48.1293878 29.3801147,47.9946168 C31.7696173,47.8002771 32.2503892,45.7343728 31.8956389,43.0080907" id="Fill-3" fill="#C3A550"></path>
                        <path d="M24.0275409,59.6486052 L21.0824242,53.8928562 C20.9747139,53.6822266 20.9724124,53.4239608 21.0764403,53.2110138 L23.9331793,47.3633397 C24.1731109,46.8724286 24.8057937,46.8806684 25.0353685,47.3777593 L27.9304276,53.64695 C28.0288168,53.8601545 28.0224876,54.1149442 27.9137417,54.3217114 L25.1070603,59.6559437 C24.8640217,60.1178868 24.2656312,60.1138956 24.0275409,59.6486052" id="Fill-13" fill="#C3A550"></path>
                        <path d="M64.8956389,19.9919093 C64.5275134,22.8220997 62.4414689,27 62.4414689,27 C62.4414689,27 60.6008414,22.8220997 60.1100074,19.9919093 C59.6408928,17.2865167 60.7235499,14.8706122 62.3801147,15.0053832 C64.7696173,15.1997229 65.2503892,17.2656272 64.8956389,19.9919093" id="Fill-19" fill="#C3A550"></path>
                        <path d="M63.6418138,80.5720155 C63.2489377,83.2518726 61.02264,87.2078522 61.02264,87.2078522 C61.02264,87.2078522 59.0582597,83.2518726 58.5344249,80.5720155 C58.0337699,78.010455 59.1892184,75.7227503 60.9571607,75.8503625 C63.5073192,76.0343794 64.0204154,77.9905475 63.6418138,80.5720155" id="Fill-51" fill="#C3A550"></path>
                        <path d="M31.8956389,104.008091 C31.5275134,101.1779 29.4414689,97 29.4414689,97 C29.4414689,97 27.6008414,101.1779 27.1100074,104.008091 C26.6408928,106.713349 27.7235499,109.129388 29.3801147,108.994617 C31.7696173,108.800277 32.2503892,106.734373 31.8956389,104.008091" id="Fill-35" fill="#C3A550"></path>
                        <path d="M29.620873,80 C29.620873,83.0547833 29.7750691,86.1132722 29.620873,89.1644778 C29.5101346,91.3574 28.2736859,92.4262611 25.4366344,92.5481611 C26.5195415,91.4302333 28.0501146,89.5513889 28.0501146,87.8583333 C28.0501146,84.0803278 24.2541152,81.6611111 24.2541152,81.6611111 C24.2541152,81.6611111 20.3272191,84.3352444 20.3272191,87.8583333 C20.3272191,90.0106222 21.7445668,91.6045222 22.9039174,92.5486722 C19.8823018,92.4536056 18.7404914,91.2190167 18.6255642,88.9444444 C18.471499,85.8933667 18.6255642,83.0547833 18.6255642,80 L16.0306713,80 C16.0306713,83.8440667 15.8420494,90.5645389 16.4003231,92.1388889 C17.3591402,94.8426667 20.5873106,94.9227833 22.8142533,94.7900222 L22.8142533,103 C22.9380844,103.666667 23.3333333,104 24,104 C24.6666667,104 25.0131648,103.666667 25.0394944,103 L25.0394944,94.7419778 C27.2635574,94.7680444 30.6033824,94.3941667 31.584321,91.6277778 C32.1427256,90.0534278 31.9770106,83.8440667 31.9770106,80 L29.620873,80 Z" id="Fill-37" fill="#C3A550"></path>
                        <path d="M40.5263158,63 L36.4736842,63 C35.6631579,63 35,63.7043478 35,64.5652174 L35,79.4347826 C35,80.2956522 35.6631579,81 36.4736842,81 L40.5263158,81 C41.3369649,81 42,80.2956522 42,79.4347826 L42,64.5652174 C42,63.7043478 41.3369649,63 40.5263158,63" id="Fill-59" fill="#C3A550"></path>
                    </g>
                </g>
            </g>
        </g>
    </g>
</svg>