<?xml version="1.0" encoding="UTF-8"?>
<svg width="405px" height="508px" viewBox="0 0 405 508" version="1.1" xmlns="http://www.w3.org/2000/svg" xmlns:xlink="http://www.w3.org/1999/xlink">
    <!-- Generator: Sketch 50.2 (55047) - http://www.bohemiancoding.com/sketch -->
    <title>Group 7</title>
    <desc>Created with Sketch.</desc>
    <defs></defs>
    <g id="Page-1" stroke="none" stroke-width="1" fill="none" fill-rule="evenodd">
        <g id="Group-7">
            <rect id="Rectangle-4" stroke="#417505" stroke-width="10" x="5" y="5" width="395" height="498"></rect>
            <path d="M203,344 C115.186725,344 44,272.813275 44,185 C44,97.1867248 115.186725,26 203,26 C290.813275,26 362,97.1867248 362,185 C362,272.813275 290.813275,344 203,344 Z M167,172.924919 L167,249.287373 C191.79483,254.161541 207.901733,256.898546 215.320709,257.49839 C226.449174,258.398155 259.546443,260.372246 266.507902,257.49839 C273.46936,254.624534 282.068808,252.57178 285.344788,244.771314 C288.620769,236.970849 284.159941,238.107692 286.573281,232.86534 C288.986621,227.622988 295.622912,225.707033 296.810719,218.08551 C297.998527,210.463988 292.447783,209.489439 293.125241,203.716231 C293.8027,197.943024 299.945163,198.353575 300.905695,190.168054 C301.866226,181.982533 295.172729,184.523752 295.172729,178.26208 C295.172729,172.000409 302.543685,170.051064 299.677202,159.787293 C296.810719,149.523522 290.535888,147.744574 282.478305,145.828565 C277.106584,144.551226 261.955175,144.551226 237.024079,145.828565 C237.843074,134.059441 240.16356,125.985275 243.985537,121.606066 C249.718503,115.037253 255.04197,95.7413638 248.080512,81.7826357 C245.085112,75.7764261 240.132746,71.2766989 234.976591,70.2872125 C232.143974,69.743622 228.015133,69.8766617 226.78664,71.518865 C225.558148,73.1610683 224.329655,97.794118 219.415685,107.236787 C214.501714,116.679456 210.153735,116.274017 201.397793,126.943227 C197.307156,131.927712 192.798345,150.541272 182.970404,164.5 C180.299009,168.294211 174.975541,171.102517 167,172.924919 Z M131,170 C126.029437,170 122,174.029437 122,179 L122,246 C122,250.970563 126.029437,255 131,255 L151,255 C155.970563,255 160,250.970563 160,246 L160,179 C160,174.029437 155.970563,170 151,170 L131,170 Z" id="Combined-Shape" fill="#417505"></path>
            <path d="M86.8183594,378.464844 L79.6582031,378.464844 L79.6582031,386 L77.4082031,386 L77.4082031,368.9375 L87.9785156,368.9375 L87.9785156,370.789062 L79.6582031,370.789062 L79.6582031,376.625 L86.8183594,376.625 L86.8183594,378.464844 Z M89.5136719,379.542969 C89.5136719,378.300775 89.7578101,377.183599 90.2460938,376.191406 C90.7343774,375.199214 91.4140581,374.433596 92.2851562,373.894531 C93.1562544,373.355466 94.150385,373.085938 95.2675781,373.085938 C96.9941493,373.085938 98.3906197,373.683588 99.4570312,374.878906 C100.523443,376.074225 101.056641,377.664053 101.056641,379.648438 L101.056641,379.800781 C101.056641,381.035162 100.820315,382.142573 100.347656,383.123047 C99.8749976,384.103521 99.1992231,384.867185 98.3203125,385.414062 C97.4414019,385.96094 96.4316463,386.234375 95.2910156,386.234375 C93.572257,386.234375 92.1796928,385.636725 91.1132812,384.441406 C90.0468697,383.246088 89.5136719,381.664072 89.5136719,379.695312 L89.5136719,379.542969 Z M91.6933594,379.800781 C91.6933594,381.207038 92.019528,382.335933 92.671875,383.1875 C93.324222,384.039067 94.1972602,384.464844 95.2910156,384.464844 C96.3925836,384.464844 97.2675749,384.033207 97.9160156,383.169922 C98.5644564,382.306636 98.8886719,381.097664 98.8886719,379.542969 C98.8886719,378.152337 98.5585971,377.025395 97.8984375,376.162109 C97.2382779,375.298824 96.3613336,374.867188 95.2675781,374.867188 C94.1972603,374.867188 93.3339877,375.292964 92.6777344,376.144531 C92.0214811,376.996098 91.6933594,378.214836 91.6933594,379.800781 Z M109.904297,375.265625 C109.57617,375.210937 109.220705,375.183594 108.837891,375.183594 C107.416009,375.183594 106.451174,375.789056 105.943359,377 L105.943359,386 L103.775391,386 L103.775391,373.320312 L105.884766,373.320312 L105.919922,374.785156 C106.630863,373.652338 107.638665,373.085938 108.943359,373.085938 C109.365236,373.085938 109.685546,373.140624 109.904297,373.25 L109.904297,375.265625 Z M113.935547,373.320312 L113.994141,374.726562 C114.923833,373.632807 116.177726,373.085938 117.755859,373.085938 C119.529306,373.085938 120.736325,373.765618 121.376953,375.125 C121.79883,374.515622 122.347653,374.023439 123.023438,373.648438 C123.699222,373.273436 124.498042,373.085938 125.419922,373.085938 C128.201186,373.085938 129.615234,374.558579 129.662109,377.503906 L129.662109,386 L127.494141,386 L127.494141,377.632812 C127.494141,376.726558 127.287111,376.04883 126.873047,375.599609 C126.458982,375.150388 125.763677,374.925781 124.787109,374.925781 C123.982418,374.925781 123.314456,375.166013 122.783203,375.646484 C122.25195,376.126956 121.94336,376.773433 121.857422,377.585938 L121.857422,386 L119.677734,386 L119.677734,377.691406 C119.677734,375.847647 118.7754,374.925781 116.970703,374.925781 C115.548821,374.925781 114.576174,375.531244 114.052734,376.742188 L114.052734,386 L111.884766,386 L111.884766,373.320312 L113.935547,373.320312 Z M140.759766,384.746094 C139.916011,385.738286 138.677743,386.234375 137.044922,386.234375 C135.693353,386.234375 134.664066,385.841801 133.957031,385.056641 C133.249996,384.27148 132.892578,383.109383 132.884766,381.570312 L132.884766,373.320312 L135.052734,373.320312 L135.052734,381.511719 C135.052734,383.433603 135.833977,384.394531 137.396484,384.394531 C139.052743,384.394531 140.154294,383.77735 140.701172,382.542969 L140.701172,373.320312 L142.869141,373.320312 L142.869141,386 L140.806641,386 L140.759766,384.746094 Z M148.517578,386 L146.349609,386 L146.349609,368 L148.517578,368 L148.517578,386 Z M159.814453,386 C159.689453,385.749999 159.587891,385.304691 159.509766,384.664062 C158.501948,385.710943 157.298835,386.234375 155.900391,386.234375 C154.650384,386.234375 153.625004,385.880863 152.824219,385.173828 C152.023433,384.466793 151.623047,383.570318 151.623047,382.484375 C151.623047,381.164056 152.124995,380.138676 153.128906,379.408203 C154.132818,378.677731 155.544913,378.3125 157.365234,378.3125 L159.474609,378.3125 L159.474609,377.316406 C159.474609,376.55859 159.248049,375.95508 158.794922,375.505859 C158.341795,375.056638 157.673833,374.832031 156.791016,374.832031 C156.017574,374.832031 155.369143,375.027342 154.845703,375.417969 C154.322263,375.808596 154.060547,376.281247 154.060547,376.835938 L151.880859,376.835938 C151.880859,376.203122 152.105467,375.5918 152.554688,375.001953 C153.003908,374.412106 153.613277,373.945314 154.382812,373.601562 C155.152348,373.257811 155.998042,373.085938 156.919922,373.085938 C158.380867,373.085938 159.525386,373.451168 160.353516,374.181641 C161.181645,374.912113 161.611328,375.917962 161.642578,377.199219 L161.642578,383.035156 C161.642578,384.199225 161.791014,385.124997 162.087891,385.8125 L162.087891,386 L159.814453,386 Z M156.216797,384.347656 C156.896488,384.347656 157.541013,384.171877 158.150391,383.820312 C158.759769,383.468748 159.201171,383.011722 159.474609,382.449219 L159.474609,379.847656 L157.775391,379.847656 C155.119127,379.847656 153.791016,380.624992 153.791016,382.179688 C153.791016,382.859378 154.017576,383.390623 154.470703,383.773438 C154.92383,384.156252 155.505856,384.347656 156.216797,384.347656 Z M153.380859,369.933594 C153.380859,369.582029 153.48828,369.287111 153.703125,369.048828 C153.91797,368.810546 154.236326,368.691406 154.658203,368.691406 C155.08008,368.691406 155.40039,368.810546 155.619141,369.048828 C155.837892,369.287111 155.947266,369.582029 155.947266,369.933594 C155.947266,370.285158 155.837892,370.578124 155.619141,370.8125 C155.40039,371.046876 155.08008,371.164062 154.658203,371.164062 C154.236326,371.164062 153.91797,371.046876 153.703125,370.8125 C153.48828,370.578124 153.380859,370.285158 153.380859,369.933594 Z M158.419922,369.957031 C158.419922,369.605467 158.527343,369.308595 158.742188,369.066406 C158.957032,368.824218 159.275389,368.703125 159.697266,368.703125 C160.119143,368.703125 160.439452,368.824218 160.658203,369.066406 C160.876954,369.308595 160.986328,369.605467 160.986328,369.957031 C160.986328,370.308596 160.876954,370.601561 160.658203,370.835938 C160.439452,371.070314 160.119143,371.1875 159.697266,371.1875 C159.275389,371.1875 158.957032,371.070314 158.742188,370.835938 C158.527343,370.601561 158.419922,370.308596 158.419922,369.957031 Z M171.169922,375.265625 C170.841795,375.210937 170.48633,375.183594 170.103516,375.183594 C168.681634,375.183594 167.716799,375.789056 167.208984,377 L167.208984,386 L165.041016,386 L165.041016,373.320312 L167.150391,373.320312 L167.185547,374.785156 C167.896488,373.652338 168.90429,373.085938 170.208984,373.085938 C170.630861,373.085938 170.951171,373.140624 171.169922,373.25 L171.169922,375.265625 Z M178.201172,386.234375 C176.482413,386.234375 175.08399,385.669928 174.005859,384.541016 C172.927729,383.412104 172.388672,381.902353 172.388672,380.011719 L172.388672,379.613281 C172.388672,378.355462 172.628904,377.232427 173.109375,376.244141 C173.589846,375.255854 174.261714,374.482425 175.125,373.923828 C175.988286,373.365232 176.923823,373.085938 177.931641,373.085938 C179.580086,373.085938 180.861324,373.628901 181.775391,374.714844 C182.689458,375.800787 183.146484,377.355459 183.146484,379.378906 L183.146484,380.28125 L174.556641,380.28125 C174.587891,381.531256 174.953122,382.541012 175.652344,383.310547 C176.351566,384.080082 177.240229,384.464844 178.318359,384.464844 C179.083988,384.464844 179.732419,384.308595 180.263672,383.996094 C180.794925,383.683592 181.259764,383.269534 181.658203,382.753906 L182.982422,383.785156 C181.919917,385.417977 180.326182,386.234375 178.201172,386.234375 Z M177.931641,374.867188 C177.056636,374.867188 176.322269,375.185544 175.728516,375.822266 C175.134763,376.458988 174.767579,377.351557 174.626953,378.5 L180.978516,378.5 L180.978516,378.335938 C180.916015,377.234369 180.619143,376.380862 180.087891,375.775391 C179.556638,375.169919 178.837895,374.867188 177.931641,374.867188 Z M188.595703,370.25 L188.595703,373.320312 L190.962891,373.320312 L190.962891,374.996094 L188.595703,374.996094 L188.595703,382.859375 C188.595703,383.36719 188.701171,383.748046 188.912109,384.001953 C189.123048,384.255861 189.482419,384.382812 189.990234,384.382812 C190.240236,384.382812 190.583982,384.335938 191.021484,384.242188 L191.021484,386 C190.451169,386.156251 189.896487,386.234375 189.357422,386.234375 C188.388667,386.234375 187.658206,385.941409 187.166016,385.355469 C186.673826,384.769528 186.427734,383.937505 186.427734,382.859375 L186.427734,374.996094 L184.119141,374.996094 L184.119141,373.320312 L186.427734,373.320312 L186.427734,370.25 L188.595703,370.25 Z M207.263672,386 C207.138671,385.749999 207.03711,385.304691 206.958984,384.664062 C205.951167,385.710943 204.748054,386.234375 203.349609,386.234375 C202.099603,386.234375 201.074223,385.880863 200.273438,385.173828 C199.472652,384.466793 199.072266,383.570318 199.072266,382.484375 C199.072266,381.164056 199.574214,380.138676 200.578125,379.408203 C201.582036,378.677731 202.994132,378.3125 204.814453,378.3125 L206.923828,378.3125 L206.923828,377.316406 C206.923828,376.55859 206.697268,375.95508 206.244141,375.505859 C205.791013,375.056638 205.123051,374.832031 204.240234,374.832031 C203.466793,374.832031 202.818362,375.027342 202.294922,375.417969 C201.771482,375.808596 201.509766,376.281247 201.509766,376.835938 L199.330078,376.835938 C199.330078,376.203122 199.554685,375.5918 200.003906,375.001953 C200.453127,374.412106 201.062496,373.945314 201.832031,373.601562 C202.601566,373.257811 203.447261,373.085938 204.369141,373.085938 C205.830085,373.085938 206.974605,373.451168 207.802734,374.181641 C208.630864,374.912113 209.060547,375.917962 209.091797,377.199219 L209.091797,383.035156 C209.091797,384.199225 209.240233,385.124997 209.537109,385.8125 L209.537109,386 L207.263672,386 Z M203.666016,384.347656 C204.345707,384.347656 204.990231,384.171877 205.599609,383.820312 C206.208987,383.468748 206.650389,383.011722 206.923828,382.449219 L206.923828,379.847656 L205.224609,379.847656 C202.568346,379.847656 201.240234,380.624992 201.240234,382.179688 C201.240234,382.859378 201.466795,383.390623 201.919922,383.773438 C202.373049,384.156252 202.955075,384.347656 203.666016,384.347656 Z M200.830078,369.933594 C200.830078,369.582029 200.937499,369.287111 201.152344,369.048828 C201.367189,368.810546 201.685545,368.691406 202.107422,368.691406 C202.529299,368.691406 202.849608,368.810546 203.068359,369.048828 C203.28711,369.287111 203.396484,369.582029 203.396484,369.933594 C203.396484,370.285158 203.28711,370.578124 203.068359,370.8125 C202.849608,371.046876 202.529299,371.164062 202.107422,371.164062 C201.685545,371.164062 201.367189,371.046876 201.152344,370.8125 C200.937499,370.578124 200.830078,370.285158 200.830078,369.933594 Z M205.869141,369.957031 C205.869141,369.605467 205.976561,369.308595 206.191406,369.066406 C206.406251,368.824218 206.724607,368.703125 207.146484,368.703125 C207.568361,368.703125 207.888671,368.824218 208.107422,369.066406 C208.326173,369.308595 208.435547,369.605467 208.435547,369.957031 C208.435547,370.308596 208.326173,370.601561 208.107422,370.835938 C207.888671,371.070314 207.568361,371.1875 207.146484,371.1875 C206.724607,371.1875 206.406251,371.070314 206.191406,370.835938 C205.976561,370.601561 205.869141,370.308596 205.869141,369.957031 Z M218.619141,375.265625 C218.291014,375.210937 217.935549,375.183594 217.552734,375.183594 C216.130852,375.183594 215.166018,375.789056 214.658203,377 L214.658203,386 L212.490234,386 L212.490234,373.320312 L214.599609,373.320312 L214.634766,374.785156 C215.345707,373.652338 216.353509,373.085938 217.658203,373.085938 C218.08008,373.085938 218.40039,373.140624 218.619141,373.25 L218.619141,375.265625 Z M231.814453,386.234375 C230.095695,386.234375 228.697271,385.669928 227.619141,384.541016 C226.54101,383.412104 226.001953,381.902353 226.001953,380.011719 L226.001953,379.613281 C226.001953,378.355462 226.242185,377.232427 226.722656,376.244141 C227.203127,375.255854 227.874996,374.482425 228.738281,373.923828 C229.601567,373.365232 230.537104,373.085938 231.544922,373.085938 C233.193368,373.085938 234.474605,373.628901 235.388672,374.714844 C236.302739,375.800787 236.759766,377.355459 236.759766,379.378906 L236.759766,380.28125 L228.169922,380.28125 C228.201172,381.531256 228.566403,382.541012 229.265625,383.310547 C229.964847,384.080082 230.85351,384.464844 231.931641,384.464844 C232.697269,384.464844 233.3457,384.308595 233.876953,383.996094 C234.408206,383.683592 234.873045,383.269534 235.271484,382.753906 L236.595703,383.785156 C235.533198,385.417977 233.939464,386.234375 231.814453,386.234375 Z M231.544922,374.867188 C230.669917,374.867188 229.93555,375.185544 229.341797,375.822266 C228.748044,376.458988 228.38086,377.351557 228.240234,378.5 L234.591797,378.5 L234.591797,378.335938 C234.529297,377.234369 234.232425,376.380862 233.701172,375.775391 C233.169919,375.169919 232.451176,374.867188 231.544922,374.867188 Z M241.318359,373.320312 L241.388672,374.914062 C242.357427,373.695306 243.623039,373.085938 245.185547,373.085938 C247.865248,373.085938 249.216797,374.597641 249.240234,377.621094 L249.240234,386 L247.072266,386 L247.072266,377.609375 C247.064453,376.695308 246.855471,376.019533 246.445312,375.582031 C246.035154,375.144529 245.396489,374.925781 244.529297,374.925781 C243.826168,374.925781 243.208987,375.113279 242.677734,375.488281 C242.146482,375.863283 241.732423,376.355466 241.435547,376.964844 L241.435547,386 L239.267578,386 L239.267578,373.320312 L241.318359,373.320312 Z M251.982422,379.554688 C251.982422,377.609365 252.443355,376.044928 253.365234,374.861328 C254.287114,373.677728 255.494133,373.085938 256.986328,373.085938 C258.470711,373.085938 259.64648,373.593745 260.513672,374.609375 L260.513672,368 L262.681641,368 L262.681641,386 L260.689453,386 L260.583984,384.640625 C259.716793,385.70313 258.509773,386.234375 256.962891,386.234375 C255.494133,386.234375 254.29688,385.632819 253.371094,384.429688 C252.445308,383.226556 251.982422,381.65626 251.982422,379.71875 L251.982422,379.554688 Z M254.150391,379.800781 C254.150391,381.238288 254.447263,382.363277 255.041016,383.175781 C255.634769,383.988285 256.455073,384.394531 257.501953,384.394531 C258.87696,384.394531 259.880856,383.77735 260.513672,382.542969 L260.513672,376.71875 C259.865231,375.523432 258.869147,374.925781 257.525391,374.925781 C256.462885,374.925781 255.634769,375.335933 255.041016,376.15625 C254.447263,376.976567 254.150391,378.191398 254.150391,379.800781 Z M273.873047,386 C273.748046,385.749999 273.646485,385.304691 273.568359,384.664062 C272.560542,385.710943 271.357429,386.234375 269.958984,386.234375 C268.708978,386.234375 267.683598,385.880863 266.882812,385.173828 C266.082027,384.466793 265.681641,383.570318 265.681641,382.484375 C265.681641,381.164056 266.183589,380.138676 267.1875,379.408203 C268.191411,378.677731 269.603507,378.3125 271.423828,378.3125 L273.533203,378.3125 L273.533203,377.316406 C273.533203,376.55859 273.306643,375.95508 272.853516,375.505859 C272.400388,375.056638 271.732426,374.832031 270.849609,374.832031 C270.076168,374.832031 269.427737,375.027342 268.904297,375.417969 C268.380857,375.808596 268.119141,376.281247 268.119141,376.835938 L265.939453,376.835938 C265.939453,376.203122 266.16406,375.5918 266.613281,375.001953 C267.062502,374.412106 267.671871,373.945314 268.441406,373.601562 C269.210941,373.257811 270.056636,373.085938 270.978516,373.085938 C272.43946,373.085938 273.58398,373.451168 274.412109,374.181641 C275.240239,374.912113 275.669922,375.917962 275.701172,377.199219 L275.701172,383.035156 C275.701172,384.199225 275.849608,385.124997 276.146484,385.8125 L276.146484,386 L273.873047,386 Z M270.275391,384.347656 C270.955082,384.347656 271.599606,384.171877 272.208984,383.820312 C272.818362,383.468748 273.259764,383.011722 273.533203,382.449219 L273.533203,379.847656 L271.833984,379.847656 C269.177721,379.847656 267.849609,380.624992 267.849609,382.179688 C267.849609,382.859378 268.07617,383.390623 268.529297,383.773438 C268.982424,384.156252 269.56445,384.347656 270.275391,384.347656 Z M286.482422,382.636719 C286.482422,382.050778 286.261721,381.595705 285.820312,381.271484 C285.378904,380.947264 284.60938,380.66797 283.511719,380.433594 C282.414057,380.199218 281.542972,379.91797 280.898438,379.589844 C280.253903,379.261717 279.777345,378.871096 279.46875,378.417969 C279.160155,377.964841 279.005859,377.425784 279.005859,376.800781 C279.005859,375.761714 279.445308,374.882816 280.324219,374.164062 C281.203129,373.445309 282.326165,373.085938 283.693359,373.085938 C285.130867,373.085938 286.296871,373.457028 287.191406,374.199219 C288.085942,374.94141 288.533203,375.890619 288.533203,377.046875 L286.353516,377.046875 C286.353516,376.453122 286.101565,375.941408 285.597656,375.511719 C285.093747,375.082029 284.458988,374.867188 283.693359,374.867188 C282.904293,374.867188 282.287112,375.039061 281.841797,375.382812 C281.396482,375.726564 281.173828,376.175778 281.173828,376.730469 C281.173828,377.253909 281.380857,377.648436 281.794922,377.914062 C282.208986,378.179689 282.957026,378.433593 284.039062,378.675781 C285.121099,378.91797 285.998044,379.20703 286.669922,379.542969 C287.3418,379.878908 287.839842,380.283201 288.164062,380.755859 C288.488283,381.228518 288.650391,381.804684 288.650391,382.484375 C288.650391,383.617193 288.19727,384.525387 287.291016,385.208984 C286.384761,385.892582 285.208992,386.234375 283.763672,386.234375 C282.748042,386.234375 281.849613,386.054689 281.068359,385.695312 C280.287105,385.335936 279.675783,384.833988 279.234375,384.189453 C278.792967,383.544919 278.572266,382.84766 278.572266,382.097656 L280.740234,382.097656 C280.779297,382.824222 281.07031,383.400388 281.613281,383.826172 C282.156253,384.251955 282.873042,384.464844 283.763672,384.464844 C284.583988,384.464844 285.242185,384.29883 285.738281,383.966797 C286.234377,383.634764 286.482422,383.191409 286.482422,382.636719 Z M294.416016,370.25 L294.416016,373.320312 L296.783203,373.320312 L296.783203,374.996094 L294.416016,374.996094 L294.416016,382.859375 C294.416016,383.36719 294.521483,383.748046 294.732422,384.001953 C294.94336,384.255861 295.302732,384.382812 295.810547,384.382812 C296.060548,384.382812 296.404295,384.335938 296.841797,384.242188 L296.841797,386 C296.271482,386.156251 295.7168,386.234375 295.177734,386.234375 C294.20898,386.234375 293.478518,385.941409 292.986328,385.355469 C292.494138,384.769528 292.248047,383.937505 292.248047,382.859375 L292.248047,374.996094 L289.939453,374.996094 L289.939453,373.320312 L292.248047,373.320312 L292.248047,370.25 L294.416016,370.25 Z M310.517578,386.234375 C308.79882,386.234375 307.400396,385.669928 306.322266,384.541016 C305.244135,383.412104 304.705078,381.902353 304.705078,380.011719 L304.705078,379.613281 C304.705078,378.355462 304.94531,377.232427 305.425781,376.244141 C305.906252,375.255854 306.578121,374.482425 307.441406,373.923828 C308.304692,373.365232 309.240229,373.085938 310.248047,373.085938 C311.896493,373.085938 313.17773,373.628901 314.091797,374.714844 C315.005864,375.800787 315.462891,377.355459 315.462891,379.378906 L315.462891,380.28125 L306.873047,380.28125 C306.904297,381.531256 307.269528,382.541012 307.96875,383.310547 C308.667972,384.080082 309.556635,384.464844 310.634766,384.464844 C311.400394,384.464844 312.048825,384.308595 312.580078,383.996094 C313.111331,383.683592 313.57617,383.269534 313.974609,382.753906 L315.298828,383.785156 C314.236323,385.417977 312.642589,386.234375 310.517578,386.234375 Z M310.248047,374.867188 C309.373042,374.867188 308.638675,375.185544 308.044922,375.822266 C307.451169,376.458988 307.083985,377.351557 306.943359,378.5 L313.294922,378.5 L313.294922,378.335938 C313.232422,377.234369 312.93555,376.380862 312.404297,375.775391 C311.873044,375.169919 311.154301,374.867188 310.248047,374.867188 Z M320.021484,373.320312 L320.091797,374.914062 C321.060552,373.695306 322.326164,373.085938 323.888672,373.085938 C326.568373,373.085938 327.919922,374.597641 327.943359,377.621094 L327.943359,386 L325.775391,386 L325.775391,377.609375 C325.767578,376.695308 325.558596,376.019533 325.148438,375.582031 C324.738279,375.144529 324.099614,374.925781 323.232422,374.925781 C322.529293,374.925781 321.912112,375.113279 321.380859,375.488281 C320.849607,375.863283 320.435548,376.355466 320.138672,376.964844 L320.138672,386 L317.970703,386 L317.970703,373.320312 L320.021484,373.320312 Z M97.734375,407.800781 C97.734375,409.730478 97.2929732,411.28515 96.4101562,412.464844 C95.5273393,413.644537 94.3320388,414.234375 92.8242188,414.234375 C91.2851486,414.234375 90.0742232,413.746099 89.1914062,412.769531 L89.1914062,418.875 L87.0234375,418.875 L87.0234375,401.320312 L89.0039062,401.320312 L89.109375,402.726562 C89.9921919,401.632807 91.2187421,401.085938 92.7890625,401.085938 C94.3125076,401.085938 95.5175737,401.660151 96.4042969,402.808594 C97.2910201,403.957037 97.734375,405.554677 97.734375,407.601562 L97.734375,407.800781 Z M95.5664062,407.554688 C95.5664062,406.124993 95.2617218,404.996098 94.6523438,404.167969 C94.0429657,403.33984 93.2070366,402.925781 92.1445312,402.925781 C90.8320247,402.925781 89.8476595,403.507807 89.1914062,404.671875 L89.1914062,410.730469 C89.839847,411.886725 90.8320246,412.464844 92.1679688,412.464844 C93.2070364,412.464844 94.0332001,412.052738 94.6464844,411.228516 C95.2597687,410.404293 95.5664062,409.179696 95.5664062,407.554688 Z M106.617188,403.265625 C106.289061,403.210937 105.933596,403.183594 105.550781,403.183594 C104.128899,403.183594 103.164065,403.789056 102.65625,405 L102.65625,414 L100.488281,414 L100.488281,401.320312 L102.597656,401.320312 L102.632812,402.785156 C103.343754,401.652338 104.351556,401.085938 105.65625,401.085938 C106.078127,401.085938 106.398436,401.140624 106.617188,401.25 L106.617188,403.265625 Z M107.800781,407.542969 C107.800781,406.300775 108.044919,405.183599 108.533203,404.191406 C109.021487,403.199214 109.701168,402.433596 110.572266,401.894531 C111.443364,401.355466 112.437494,401.085938 113.554688,401.085938 C115.281259,401.085938 116.677729,401.683588 117.744141,402.878906 C118.810552,404.074225 119.34375,405.664053 119.34375,407.648438 L119.34375,407.800781 C119.34375,409.035162 119.107424,410.142573 118.634766,411.123047 C118.162107,412.103521 117.486333,412.867185 116.607422,413.414062 C115.728511,413.96094 114.718756,414.234375 113.578125,414.234375 C111.859366,414.234375 110.466802,413.636725 109.400391,412.441406 C108.333979,411.246088 107.800781,409.664072 107.800781,407.695312 L107.800781,407.542969 Z M109.980469,407.800781 C109.980469,409.207038 110.306637,410.335933 110.958984,411.1875 C111.611331,412.039067 112.48437,412.464844 113.578125,412.464844 C114.679693,412.464844 115.554684,412.033207 116.203125,411.169922 C116.851566,410.306636 117.175781,409.097664 117.175781,407.542969 C117.175781,406.152337 116.845706,405.025395 116.185547,404.162109 C115.525387,403.298824 114.648443,402.867188 113.554688,402.867188 C112.48437,402.867188 111.621097,403.292964 110.964844,404.144531 C110.30859,404.996098 109.980469,406.214836 109.980469,407.800781 Z M125.003906,398.25 L125.003906,401.320312 L127.371094,401.320312 L127.371094,402.996094 L125.003906,402.996094 L125.003906,410.859375 C125.003906,411.36719 125.109374,411.748046 125.320312,412.001953 C125.531251,412.255861 125.890622,412.382812 126.398438,412.382812 C126.648439,412.382812 126.992185,412.335938 127.429688,412.242188 L127.429688,414 C126.859372,414.156251 126.30469,414.234375 125.765625,414.234375 C124.79687,414.234375 124.066409,413.941409 123.574219,413.355469 C123.082029,412.769528 122.835938,411.937505 122.835938,410.859375 L122.835938,402.996094 L120.527344,402.996094 L120.527344,401.320312 L122.835938,401.320312 L122.835938,398.25 L125.003906,398.25 Z M129.09375,407.542969 C129.09375,406.300775 129.337888,405.183599 129.826172,404.191406 C130.314456,403.199214 130.994136,402.433596 131.865234,401.894531 C132.736332,401.355466 133.730463,401.085938 134.847656,401.085938 C136.574227,401.085938 137.970698,401.683588 139.037109,402.878906 C140.103521,404.074225 140.636719,405.664053 140.636719,407.648438 L140.636719,407.800781 C140.636719,409.035162 140.400393,410.142573 139.927734,411.123047 C139.455076,412.103521 138.779301,412.867185 137.900391,413.414062 C137.02148,413.96094 136.011724,414.234375 134.871094,414.234375 C133.152335,414.234375 131.759771,413.636725 130.693359,412.441406 C129.626948,411.246088 129.09375,409.664072 129.09375,407.695312 L129.09375,407.542969 Z M131.273438,407.800781 C131.273438,409.207038 131.599606,410.335933 132.251953,411.1875 C132.9043,412.039067 133.777338,412.464844 134.871094,412.464844 C135.972662,412.464844 136.847653,412.033207 137.496094,411.169922 C138.144534,410.306636 138.46875,409.097664 138.46875,407.542969 C138.46875,406.152337 138.138675,405.025395 137.478516,404.162109 C136.818356,403.298824 135.941412,402.867188 134.847656,402.867188 C133.777338,402.867188 132.914066,403.292964 132.257812,404.144531 C131.601559,404.996098 131.273438,406.214836 131.273438,407.800781 Z M146.296875,398.25 L146.296875,401.320312 L148.664062,401.320312 L148.664062,402.996094 L146.296875,402.996094 L146.296875,410.859375 C146.296875,411.36719 146.402343,411.748046 146.613281,412.001953 C146.82422,412.255861 147.183591,412.382812 147.691406,412.382812 C147.941407,412.382812 148.285154,412.335938 148.722656,412.242188 L148.722656,414 C148.152341,414.156251 147.597659,414.234375 147.058594,414.234375 C146.089839,414.234375 145.359377,413.941409 144.867188,413.355469 C144.374998,412.769528 144.128906,411.937505 144.128906,410.859375 L144.128906,402.996094 L141.820312,402.996094 L141.820312,401.320312 L144.128906,401.320312 L144.128906,398.25 L146.296875,398.25 Z M155.34375,410.824219 L158.296875,401.320312 L160.617188,401.320312 L155.519531,415.957031 C154.730465,418.066417 153.476571,419.121094 151.757812,419.121094 L151.347656,419.085938 L150.539062,418.933594 L150.539062,417.175781 L151.125,417.222656 C151.859379,417.222656 152.431639,417.07422 152.841797,416.777344 C153.251955,416.480467 153.589842,415.937504 153.855469,415.148438 L154.335938,413.859375 L149.8125,401.320312 L152.179688,401.320312 L155.34375,410.824219 Z M173.261719,407.800781 C173.261719,409.730478 172.820317,411.28515 171.9375,412.464844 C171.054683,413.644537 169.859383,414.234375 168.351562,414.234375 C166.812492,414.234375 165.601567,413.746099 164.71875,412.769531 L164.71875,418.875 L162.550781,418.875 L162.550781,401.320312 L164.53125,401.320312 L164.636719,402.726562 C165.519536,401.632807 166.746086,401.085938 168.316406,401.085938 C169.839851,401.085938 171.044917,401.660151 171.931641,402.808594 C172.818364,403.957037 173.261719,405.554677 173.261719,407.601562 L173.261719,407.800781 Z M171.09375,407.554688 C171.09375,406.124993 170.789066,404.996098 170.179688,404.167969 C169.570309,403.33984 168.73438,402.925781 167.671875,402.925781 C166.359368,402.925781 165.375003,403.507807 164.71875,404.671875 L164.71875,410.730469 C165.367191,411.886725 166.359368,412.464844 167.695312,412.464844 C168.73438,412.464844 169.560544,412.052738 170.173828,411.228516 C170.787112,410.404293 171.09375,409.179696 171.09375,407.554688 Z M181.382812,407.542969 C181.382812,406.300775 181.626951,405.183599 182.115234,404.191406 C182.603518,403.199214 183.283199,402.433596 184.154297,401.894531 C185.025395,401.355466 186.019526,401.085938 187.136719,401.085938 C188.86329,401.085938 190.25976,401.683588 191.326172,402.878906 C192.392583,404.074225 192.925781,405.664053 192.925781,407.648438 L192.925781,407.800781 C192.925781,409.035162 192.689455,410.142573 192.216797,411.123047 C191.744138,412.103521 191.068364,412.867185 190.189453,413.414062 C189.310542,413.96094 188.300787,414.234375 187.160156,414.234375 C185.441398,414.234375 184.048833,413.636725 182.982422,412.441406 C181.91601,411.246088 181.382812,409.664072 181.382812,407.695312 L181.382812,407.542969 Z M183.5625,407.800781 C183.5625,409.207038 183.888669,410.335933 184.541016,411.1875 C185.193363,412.039067 186.066401,412.464844 187.160156,412.464844 C188.261724,412.464844 189.136716,412.033207 189.785156,411.169922 C190.433597,410.306636 190.757812,409.097664 190.757812,407.542969 C190.757812,406.152337 190.427738,405.025395 189.767578,404.162109 C189.107419,403.298824 188.230474,402.867188 187.136719,402.867188 C186.066401,402.867188 185.203128,403.292964 184.546875,404.144531 C183.890622,404.996098 183.5625,406.214836 183.5625,407.800781 Z M200.730469,412.464844 C201.50391,412.464844 202.179685,412.230471 202.757812,411.761719 C203.33594,411.292966 203.65625,410.707035 203.71875,410.003906 L205.769531,410.003906 C205.730469,410.730472 205.480471,411.421872 205.019531,412.078125 C204.558591,412.734378 203.943363,413.257811 203.173828,413.648438 C202.404293,414.039064 201.589848,414.234375 200.730469,414.234375 C199.003898,414.234375 197.630864,413.658209 196.611328,412.505859 C195.591792,411.35351 195.082031,409.777354 195.082031,407.777344 L195.082031,407.414062 C195.082031,406.179681 195.308591,405.082036 195.761719,404.121094 C196.214846,403.160151 196.86523,402.414065 197.712891,401.882812 C198.560551,401.35156 199.562494,401.085938 200.71875,401.085938 C202.140632,401.085938 203.322261,401.511714 204.263672,402.363281 C205.205083,403.214848 205.707031,404.320306 205.769531,405.679688 L203.71875,405.679688 C203.65625,404.859371 203.345706,404.18555 202.787109,403.658203 C202.228513,403.130857 201.539067,402.867188 200.71875,402.867188 C199.617182,402.867188 198.763675,403.263668 198.158203,404.056641 C197.552731,404.849613 197.25,405.996086 197.25,407.496094 L197.25,407.90625 C197.25,409.367195 197.550778,410.492184 198.152344,411.28125 C198.753909,412.070316 199.613276,412.464844 200.730469,412.464844 Z M210.375,402.855469 C211.335942,401.675775 212.58593,401.085938 214.125,401.085938 C216.804701,401.085938 218.15625,402.597641 218.179688,405.621094 L218.179688,414 L216.011719,414 L216.011719,405.609375 C216.003906,404.695308 215.794924,404.019533 215.384766,403.582031 C214.974607,403.144529 214.335942,402.925781 213.46875,402.925781 C212.765621,402.925781 212.14844,403.113279 211.617188,403.488281 C211.085935,403.863283 210.671876,404.355466 210.375,404.964844 L210.375,414 L208.207031,414 L208.207031,396 L210.375,396 L210.375,402.855469 Z M233.894531,410.496094 C233.894531,410.082029 233.689455,409.755861 233.279297,409.517578 C232.869139,409.279296 232.210942,409.066407 231.304688,408.878906 C228.289047,408.246091 226.78125,406.964853 226.78125,405.035156 C226.78125,403.910151 227.248042,402.970707 228.181641,402.216797 C229.115239,401.462887 230.33593,401.085938 231.84375,401.085938 C233.453133,401.085938 234.74023,401.46484 235.705078,402.222656 C236.669927,402.980473 237.152344,403.964838 237.152344,405.175781 L233.765625,405.175781 C233.765625,404.691404 233.609377,404.291017 233.296875,403.974609 C232.984373,403.658202 232.496097,403.5 231.832031,403.5 C231.261716,403.5 230.820314,403.628905 230.507812,403.886719 C230.195311,404.144533 230.039062,404.472654 230.039062,404.871094 C230.039062,405.246096 230.216795,405.548827 230.572266,405.779297 C230.927736,406.009767 231.52734,406.208984 232.371094,406.376953 C233.214848,406.544923 233.925778,406.734374 234.503906,406.945312 C236.292978,407.601566 237.1875,408.738273 237.1875,410.355469 C237.1875,411.511725 236.691411,412.447262 235.699219,413.162109 C234.707026,413.876957 233.425789,414.234375 231.855469,414.234375 C230.792963,414.234375 229.849613,414.044924 229.025391,413.666016 C228.201168,413.287107 227.55469,412.767581 227.085938,412.107422 C226.617185,411.447262 226.382812,410.734379 226.382812,409.96875 L229.59375,409.96875 C229.625,410.570316 229.847654,411.031248 230.261719,411.351562 C230.675783,411.671877 231.230465,411.832031 231.925781,411.832031 C232.574222,411.832031 233.064451,411.708986 233.396484,411.462891 C233.728517,411.216796 233.894531,410.894533 233.894531,410.496094 Z M250.78125,407.777344 C250.78125,409.730479 250.337895,411.294916 249.451172,412.470703 C248.564449,413.64649 247.367195,414.234375 245.859375,414.234375 C244.578119,414.234375 243.542973,413.789067 242.753906,412.898438 L242.753906,418.875 L239.367188,418.875 L239.367188,401.320312 L242.507812,401.320312 L242.625,402.5625 C243.445317,401.57812 244.515618,401.085938 245.835938,401.085938 C247.398445,401.085938 248.613277,401.664057 249.480469,402.820312 C250.347661,403.976568 250.78125,405.570302 250.78125,407.601562 L250.78125,407.777344 Z M247.394531,407.53125 C247.394531,406.351557 247.185549,405.441409 246.767578,404.800781 C246.349607,404.160153 245.742191,403.839844 244.945312,403.839844 C243.882807,403.839844 243.152346,404.24609 242.753906,405.058594 L242.753906,410.25 C243.167971,411.085942 243.906245,411.503906 244.96875,411.503906 C246.585946,411.503906 247.394531,410.179701 247.394531,407.53125 Z M260.226562,414 C260.070312,413.695311 259.957032,413.316409 259.886719,412.863281 C259.066402,413.777348 258.000007,414.234375 256.6875,414.234375 C255.445306,414.234375 254.41602,413.875004 253.599609,413.15625 C252.783199,412.437496 252.375,411.531255 252.375,410.4375 C252.375,409.093743 252.873042,408.062504 253.869141,407.34375 C254.865239,406.624996 256.304678,406.261719 258.1875,406.253906 L259.746094,406.253906 L259.746094,405.527344 C259.746094,404.941403 259.595705,404.472658 259.294922,404.121094 C258.994139,403.769529 258.519534,403.59375 257.871094,403.59375 C257.300778,403.59375 256.853517,403.730467 256.529297,404.003906 C256.205077,404.277345 256.042969,404.652341 256.042969,405.128906 L252.65625,405.128906 C252.65625,404.394528 252.88281,403.714847 253.335938,403.089844 C253.789065,402.464841 254.429683,401.974611 255.257812,401.619141 C256.085942,401.26367 257.01562,401.085938 258.046875,401.085938 C259.609383,401.085938 260.849605,401.478512 261.767578,402.263672 C262.685551,403.048832 263.144531,404.152337 263.144531,405.574219 L263.144531,411.070312 C263.152344,412.273444 263.320311,413.183591 263.648438,413.800781 L263.648438,414 L260.226562,414 Z M257.425781,411.644531 C257.925784,411.644531 258.386717,411.533204 258.808594,411.310547 C259.230471,411.08789 259.542968,410.789064 259.746094,410.414062 L259.746094,408.234375 L258.480469,408.234375 C256.785148,408.234375 255.882813,408.820307 255.773438,409.992188 L255.761719,410.191406 C255.761719,410.613283 255.910155,410.960936 256.207031,411.234375 C256.503908,411.507814 256.910154,411.644531 257.425781,411.644531 Z M272.871094,404.496094 C272.410154,404.433593 272.003908,404.402344 271.652344,404.402344 C270.371087,404.402344 269.531252,404.835933 269.132812,405.703125 L269.132812,414 L265.746094,414 L265.746094,401.320312 L268.945312,401.320312 L269.039062,402.832031 C269.718753,401.667963 270.66015,401.085938 271.863281,401.085938 C272.238283,401.085938 272.589842,401.136718 272.917969,401.238281 L272.871094,404.496094 Z M281.496094,414 C281.339843,413.695311 281.226563,413.316409 281.15625,412.863281 C280.335933,413.777348 279.269538,414.234375 277.957031,414.234375 C276.714838,414.234375 275.685551,413.875004 274.869141,413.15625 C274.05273,412.437496 273.644531,411.531255 273.644531,410.4375 C273.644531,409.093743 274.142573,408.062504 275.138672,407.34375 C276.134771,406.624996 277.574209,406.261719 279.457031,406.253906 L281.015625,406.253906 L281.015625,405.527344 C281.015625,404.941403 280.865236,404.472658 280.564453,404.121094 C280.26367,403.769529 279.789066,403.59375 279.140625,403.59375 C278.57031,403.59375 278.123048,403.730467 277.798828,404.003906 C277.474608,404.277345 277.3125,404.652341 277.3125,405.128906 L273.925781,405.128906 C273.925781,404.394528 274.152341,403.714847 274.605469,403.089844 C275.058596,402.464841 275.699215,401.974611 276.527344,401.619141 C277.355473,401.26367 278.285151,401.085938 279.316406,401.085938 C280.878914,401.085938 282.119136,401.478512 283.037109,402.263672 C283.955083,403.048832 284.414062,404.152337 284.414062,405.574219 L284.414062,411.070312 C284.421875,412.273444 284.589842,413.183591 284.917969,413.800781 L284.917969,414 L281.496094,414 Z M278.695312,411.644531 C279.195315,411.644531 279.656248,411.533204 280.078125,411.310547 C280.500002,411.08789 280.812499,410.789064 281.015625,410.414062 L281.015625,408.234375 L279.75,408.234375 C278.054679,408.234375 277.152344,408.820307 277.042969,409.992188 L277.03125,410.191406 C277.03125,410.613283 277.179686,410.960936 277.476562,411.234375 C277.773439,411.507814 278.179685,411.644531 278.695312,411.644531 Z M294.140625,404.496094 C293.679685,404.433593 293.273439,404.402344 292.921875,404.402344 C291.640619,404.402344 290.800783,404.835933 290.402344,405.703125 L290.402344,414 L287.015625,414 L287.015625,401.320312 L290.214844,401.320312 L290.308594,402.832031 C290.988285,401.667963 291.929681,401.085938 293.132812,401.085938 C293.507814,401.085938 293.859373,401.136718 294.1875,401.238281 L294.140625,404.496094 Z M307.546875,414.234375 C305.687491,414.234375 304.173834,413.664068 303.005859,412.523438 C301.837885,411.382807 301.253906,409.863291 301.253906,407.964844 L301.253906,407.636719 C301.253906,406.363275 301.499998,405.224614 301.992188,404.220703 C302.484377,403.216792 303.181636,402.443362 304.083984,401.900391 C304.986333,401.357419 306.015619,401.085938 307.171875,401.085938 C308.906259,401.085938 310.271479,401.632807 311.267578,402.726562 C312.263677,403.820318 312.761719,405.371084 312.761719,407.378906 L312.761719,408.761719 L304.6875,408.761719 C304.796876,409.589848 305.12695,410.253904 305.677734,410.753906 C306.228518,411.253909 306.925777,411.503906 307.769531,411.503906 C309.074225,411.503906 310.093746,411.031255 310.828125,410.085938 L312.492188,411.949219 C311.984372,412.667972 311.296879,413.228514 310.429688,413.630859 C309.562496,414.033205 308.601568,414.234375 307.546875,414.234375 Z M307.160156,403.828125 C306.488278,403.828125 305.943361,404.054685 305.525391,404.507812 C305.10742,404.96094 304.839844,405.609371 304.722656,406.453125 L309.433594,406.453125 L309.433594,406.183594 C309.417969,405.43359 309.214846,404.853518 308.824219,404.443359 C308.433592,404.033201 307.87891,403.828125 307.160156,403.828125 Z M318.269531,401.320312 L318.269531,414.691406 C318.269531,416.089851 317.898441,417.17773 317.15625,417.955078 C316.414059,418.732426 315.343757,419.121094 313.945312,419.121094 C313.359372,419.121094 312.800784,419.054688 312.269531,418.921875 L312.269531,416.238281 C312.675783,416.308594 313.031248,416.34375 313.335938,416.34375 C314.35938,416.34375 314.871094,415.800787 314.871094,414.714844 L314.871094,401.320312 L318.269531,401.320312 Z M314.601562,398.039062 C314.601562,397.531247 314.771483,397.113283 315.111328,396.785156 C315.451174,396.45703 315.91406,396.292969 316.5,396.292969 C317.08594,396.292969 317.548826,396.45703 317.888672,396.785156 C318.228517,397.113283 318.398438,397.531247 318.398438,398.039062 C318.398438,398.55469 318.224611,398.976561 317.876953,399.304688 C317.529295,399.632814 317.070315,399.796875 316.5,399.796875 C315.929685,399.796875 315.470705,399.632814 315.123047,399.304688 C314.775389,398.976561 314.601562,398.55469 314.601562,398.039062 Z M120.515625,429.320312 L120.585938,430.914062 C121.554692,429.695306 122.820305,429.085938 124.382812,429.085938 C127.062513,429.085938 128.414062,430.597641 128.4375,433.621094 L128.4375,442 L126.269531,442 L126.269531,433.609375 C126.261719,432.695308 126.052736,432.019533 125.642578,431.582031 C125.23242,431.144529 124.593754,430.925781 123.726562,430.925781 C123.023434,430.925781 122.406253,431.113279 121.875,431.488281 C121.343747,431.863283 120.929689,432.355466 120.632812,432.964844 L120.632812,442 L118.464844,442 L118.464844,429.320312 L120.515625,429.320312 Z M139.535156,442 C139.410156,441.749999 139.308594,441.304691 139.230469,440.664062 C138.222651,441.710943 137.019538,442.234375 135.621094,442.234375 C134.371088,442.234375 133.345707,441.880863 132.544922,441.173828 C131.744137,440.466793 131.34375,439.570318 131.34375,438.484375 C131.34375,437.164056 131.845698,436.138676 132.849609,435.408203 C133.853521,434.677731 135.265616,434.3125 137.085938,434.3125 L139.195312,434.3125 L139.195312,433.316406 C139.195312,432.55859 138.968752,431.95508 138.515625,431.505859 C138.062498,431.056638 137.394536,430.832031 136.511719,430.832031 C135.738277,430.832031 135.089846,431.027342 134.566406,431.417969 C134.042966,431.808596 133.78125,432.281247 133.78125,432.835938 L131.601562,432.835938 C131.601562,432.203122 131.82617,431.5918 132.275391,431.001953 C132.724612,430.412106 133.333981,429.945314 134.103516,429.601562 C134.873051,429.257811 135.718745,429.085938 136.640625,429.085938 C138.10157,429.085938 139.24609,429.451168 140.074219,430.181641 C140.902348,430.912113 141.332031,431.917962 141.363281,433.199219 L141.363281,439.035156 C141.363281,440.199225 141.511717,441.124997 141.808594,441.8125 L141.808594,442 L139.535156,442 Z M135.9375,440.347656 C136.617191,440.347656 137.261716,440.171877 137.871094,439.820312 C138.480472,439.468748 138.921874,439.011722 139.195312,438.449219 L139.195312,435.847656 L137.496094,435.847656 C134.83983,435.847656 133.511719,436.624992 133.511719,438.179688 C133.511719,438.859378 133.738279,439.390623 134.191406,439.773438 C134.644534,440.156252 135.226559,440.347656 135.9375,440.347656 Z M139.394531,425.371094 C139.394531,426.050785 139.152346,426.619138 138.667969,427.076172 C138.183591,427.533205 137.585941,427.761719 136.875,427.761719 C136.156246,427.761719 135.556643,427.531252 135.076172,427.070312 C134.595701,426.609373 134.355469,426.042972 134.355469,425.371094 C134.355469,424.699215 134.595701,424.125002 135.076172,423.648438 C135.556643,423.171873 136.156246,422.933594 136.875,422.933594 C137.593754,422.933594 138.193357,423.171873 138.673828,423.648438 C139.154299,424.125002 139.394531,424.699215 139.394531,425.371094 Z M135.515625,425.371094 C135.515625,425.738283 135.646483,426.054686 135.908203,426.320312 C136.169923,426.585939 136.492186,426.71875 136.875,426.71875 C137.250002,426.71875 137.570311,426.589845 137.835938,426.332031 C138.101564,426.074217 138.234375,425.753908 138.234375,425.371094 C138.234375,424.988279 138.103517,424.662111 137.841797,424.392578 C137.580077,424.123046 137.257814,423.988281 136.875,423.988281 C136.484373,423.988281 136.160158,424.124999 135.902344,424.398438 C135.64453,424.671876 135.515625,424.996092 135.515625,425.371094 Z M144.246094,435.554688 C144.246094,433.578115 144.70312,432.005865 145.617188,430.837891 C146.531255,429.669916 147.74218,429.085938 149.25,429.085938 C150.796883,429.085938 152.003902,429.632807 152.871094,430.726562 L152.976562,429.320312 L154.957031,429.320312 L154.957031,441.695312 C154.957031,443.335946 154.470708,444.628902 153.498047,445.574219 C152.525386,446.519536 151.218758,446.992188 149.578125,446.992188 C148.664058,446.992188 147.769536,446.796877 146.894531,446.40625 C146.019527,446.015623 145.351565,445.480472 144.890625,444.800781 L146.015625,443.5 C146.945317,444.648443 148.082025,445.222656 149.425781,445.222656 C150.480474,445.222656 151.302731,444.925784 151.892578,444.332031 C152.482425,443.738278 152.777344,442.902349 152.777344,441.824219 L152.777344,440.734375 C151.910152,441.73438 150.72657,442.234375 149.226562,442.234375 C147.74218,442.234375 146.54102,441.636725 145.623047,440.441406 C144.705074,439.246088 144.246094,437.617198 144.246094,435.554688 Z M146.425781,435.800781 C146.425781,437.230476 146.718747,438.353512 147.304688,439.169922 C147.890628,439.986332 148.710932,440.394531 149.765625,440.394531 C151.132819,440.394531 152.136716,439.773444 152.777344,438.53125 L152.777344,432.742188 C152.113278,431.531244 151.117194,430.925781 149.789062,430.925781 C148.73437,430.925781 147.910159,431.335933 147.316406,432.15625 C146.722653,432.976567 146.425781,434.191398 146.425781,435.800781 Z M157.652344,435.542969 C157.652344,434.300775 157.896482,433.183599 158.384766,432.191406 C158.873049,431.199214 159.55273,430.433596 160.423828,429.894531 C161.294926,429.355466 162.289057,429.085938 163.40625,429.085938 C165.132821,429.085938 166.529292,429.683588 167.595703,430.878906 C168.662115,432.074225 169.195312,433.664053 169.195312,435.648438 L169.195312,435.800781 C169.195312,437.035162 168.958987,438.142573 168.486328,439.123047 C168.01367,440.103521 167.337895,440.867185 166.458984,441.414062 C165.580074,441.96094 164.570318,442.234375 163.429688,442.234375 C161.710929,442.234375 160.318365,441.636725 159.251953,440.441406 C158.185542,439.246088 157.652344,437.664072 157.652344,435.695312 L157.652344,435.542969 Z M159.832031,435.800781 C159.832031,437.207038 160.1582,438.335933 160.810547,439.1875 C161.462894,440.039067 162.335932,440.464844 163.429688,440.464844 C164.531256,440.464844 165.406247,440.033207 166.054688,439.169922 C166.703128,438.306636 167.027344,437.097664 167.027344,435.542969 C167.027344,434.152337 166.697269,433.025395 166.037109,432.162109 C165.37695,431.298824 164.500005,430.867188 163.40625,430.867188 C162.335932,430.867188 161.47266,431.292964 160.816406,432.144531 C160.160153,432.996098 159.832031,434.214836 159.832031,435.800781 Z M173.964844,429.320312 L174.035156,430.914062 C175.003911,429.695306 176.269523,429.085938 177.832031,429.085938 C180.511732,429.085938 181.863281,430.597641 181.886719,433.621094 L181.886719,442 L179.71875,442 L179.71875,433.609375 C179.710937,432.695308 179.501955,432.019533 179.091797,431.582031 C178.681639,431.144529 178.042973,430.925781 177.175781,430.925781 C176.472653,430.925781 175.855471,431.113279 175.324219,431.488281 C174.792966,431.863283 174.378908,432.355466 174.082031,432.964844 L174.082031,442 L171.914062,442 L171.914062,429.320312 L173.964844,429.320312 Z M201.808594,435.800781 C201.808594,437.730478 201.367192,439.28515 200.484375,440.464844 C199.601558,441.644537 198.406258,442.234375 196.898438,442.234375 C195.359367,442.234375 194.148442,441.746099 193.265625,440.769531 L193.265625,446.875 L191.097656,446.875 L191.097656,429.320312 L193.078125,429.320312 L193.183594,430.726562 C194.066411,429.632807 195.292961,429.085938 196.863281,429.085938 C198.386726,429.085938 199.591792,429.660151 200.478516,430.808594 C201.365239,431.957037 201.808594,433.554677 201.808594,435.601562 L201.808594,435.800781 Z M199.640625,435.554688 C199.640625,434.124993 199.335941,432.996098 198.726562,432.167969 C198.117184,431.33984 197.281255,430.925781 196.21875,430.925781 C194.906243,430.925781 193.921878,431.507807 193.265625,432.671875 L193.265625,438.730469 C193.914066,439.886725 194.906243,440.464844 196.242188,440.464844 C197.281255,440.464844 198.107419,440.052738 198.720703,439.228516 C199.333987,438.404293 199.640625,437.179696 199.640625,435.554688 Z M209.824219,442.234375 C208.10546,442.234375 206.707037,441.669928 205.628906,440.541016 C204.550776,439.412104 204.011719,437.902353 204.011719,436.011719 L204.011719,435.613281 C204.011719,434.355462 204.251951,433.232427 204.732422,432.244141 C205.212893,431.255854 205.884761,430.482425 206.748047,429.923828 C207.611332,429.365232 208.54687,429.085938 209.554688,429.085938 C211.203133,429.085938 212.48437,429.628901 213.398438,430.714844 C214.312505,431.800787 214.769531,433.355459 214.769531,435.378906 L214.769531,436.28125 L206.179688,436.28125 C206.210938,437.531256 206.576168,438.541012 207.275391,439.310547 C207.974613,440.080082 208.863276,440.464844 209.941406,440.464844 C210.707035,440.464844 211.355466,440.308595 211.886719,439.996094 C212.417971,439.683592 212.882811,439.269534 213.28125,438.753906 L214.605469,439.785156 C213.542963,441.417977 211.949229,442.234375 209.824219,442.234375 Z M209.554688,430.867188 C208.679683,430.867188 207.945315,431.185544 207.351562,431.822266 C206.75781,432.458988 206.390626,433.351557 206.25,434.5 L212.601562,434.5 L212.601562,434.335938 C212.539062,433.234369 212.24219,432.380862 211.710938,431.775391 C211.179685,431.169919 210.460942,430.867188 209.554688,430.867188 Z M223.40625,431.265625 C223.078123,431.210937 222.722658,431.183594 222.339844,431.183594 C220.917962,431.183594 219.953128,431.789056 219.445312,433 L219.445312,442 L217.277344,442 L217.277344,429.320312 L219.386719,429.320312 L219.421875,430.785156 C220.132816,429.652338 221.140618,429.085938 222.445312,429.085938 C222.86719,429.085938 223.187499,429.140624 223.40625,429.25 L223.40625,431.265625 Z M232.78125,438.636719 C232.78125,438.050778 232.560549,437.595705 232.119141,437.271484 C231.677732,436.947264 230.908209,436.66797 229.810547,436.433594 C228.712885,436.199218 227.8418,435.91797 227.197266,435.589844 C226.552731,435.261717 226.076173,434.871096 225.767578,434.417969 C225.458983,433.964841 225.304688,433.425784 225.304688,432.800781 C225.304688,431.761714 225.744136,430.882816 226.623047,430.164062 C227.501958,429.445309 228.624993,429.085938 229.992188,429.085938 C231.429695,429.085938 232.595699,429.457028 233.490234,430.199219 C234.38477,430.94141 234.832031,431.890619 234.832031,433.046875 L232.652344,433.046875 C232.652344,432.453122 232.400393,431.941408 231.896484,431.511719 C231.392576,431.082029 230.757816,430.867188 229.992188,430.867188 C229.203121,430.867188 228.58594,431.039061 228.140625,431.382812 C227.69531,431.726564 227.472656,432.175778 227.472656,432.730469 C227.472656,433.253909 227.679685,433.648436 228.09375,433.914062 C228.507815,434.179689 229.255854,434.433593 230.337891,434.675781 C231.419927,434.91797 232.296872,435.20703 232.96875,435.542969 C233.640628,435.878908 234.13867,436.283201 234.462891,436.755859 C234.787111,437.228518 234.949219,437.804684 234.949219,438.484375 C234.949219,439.617193 234.496098,440.525387 233.589844,441.208984 C232.683589,441.892582 231.50782,442.234375 230.0625,442.234375 C229.04687,442.234375 228.148441,442.054689 227.367188,441.695312 C226.585934,441.335936 225.974612,440.833988 225.533203,440.189453 C225.091795,439.544919 224.871094,438.84766 224.871094,438.097656 L227.039062,438.097656 C227.078125,438.824222 227.369138,439.400388 227.912109,439.826172 C228.455081,440.251955 229.171871,440.464844 230.0625,440.464844 C230.882817,440.464844 231.541013,440.29883 232.037109,439.966797 C232.533206,439.634764 232.78125,439.191409 232.78125,438.636719 Z M237.199219,435.542969 C237.199219,434.300775 237.443357,433.183599 237.931641,432.191406 C238.419924,431.199214 239.099605,430.433596 239.970703,429.894531 C240.841801,429.355466 241.835932,429.085938 242.953125,429.085938 C244.679696,429.085938 246.076167,429.683588 247.142578,430.878906 C248.20899,432.074225 248.742188,433.664053 248.742188,435.648438 L248.742188,435.800781 C248.742188,437.035162 248.505862,438.142573 248.033203,439.123047 C247.560545,440.103521 246.88477,440.867185 246.005859,441.414062 C245.126949,441.96094 244.117193,442.234375 242.976562,442.234375 C241.257804,442.234375 239.86524,441.636725 238.798828,440.441406 C237.732417,439.246088 237.199219,437.664072 237.199219,435.695312 L237.199219,435.542969 Z M239.378906,435.800781 C239.378906,437.207038 239.705075,438.335933 240.357422,439.1875 C241.009769,440.039067 241.882807,440.464844 242.976562,440.464844 C244.078131,440.464844 244.953122,440.033207 245.601562,439.169922 C246.250003,438.306636 246.574219,437.097664 246.574219,435.542969 C246.574219,434.152337 246.244144,433.025395 245.583984,432.162109 C244.923825,431.298824 244.04688,430.867188 242.953125,430.867188 C241.882807,430.867188 241.019535,431.292964 240.363281,432.144531 C239.707028,432.996098 239.378906,434.214836 239.378906,435.800781 Z M253.511719,429.320312 L253.582031,430.914062 C254.550786,429.695306 255.816398,429.085938 257.378906,429.085938 C260.058607,429.085938 261.410156,430.597641 261.433594,433.621094 L261.433594,442 L259.265625,442 L259.265625,433.609375 C259.257812,432.695308 259.04883,432.019533 258.638672,431.582031 C258.228514,431.144529 257.589848,430.925781 256.722656,430.925781 C256.019528,430.925781 255.402346,431.113279 254.871094,431.488281 C254.339841,431.863283 253.925783,432.355466 253.628906,432.964844 L253.628906,442 L251.460938,442 L251.460938,429.320312 L253.511719,429.320312 Z M267.058594,442 L264.890625,442 L264.890625,424 L267.058594,424 L267.058594,442 Z M272.882812,442 L270.714844,442 L270.714844,429.320312 L272.882812,429.320312 L272.882812,442 Z M270.539062,425.957031 C270.539062,425.605467 270.646483,425.308595 270.861328,425.066406 C271.076173,424.824218 271.394529,424.703125 271.816406,424.703125 C272.238283,424.703125 272.558593,424.824218 272.777344,425.066406 C272.996095,425.308595 273.105469,425.605467 273.105469,425.957031 C273.105469,426.308596 272.996095,426.601561 272.777344,426.835938 C272.558593,427.070314 272.238283,427.1875 271.816406,427.1875 C271.394529,427.1875 271.076173,427.070314 270.861328,426.835938 C270.646483,426.601561 270.539062,426.308596 270.539062,425.957031 Z M275.835938,435.554688 C275.835938,433.578115 276.292964,432.005865 277.207031,430.837891 C278.121098,429.669916 279.332024,429.085938 280.839844,429.085938 C282.386726,429.085938 283.593746,429.632807 284.460938,430.726562 L284.566406,429.320312 L286.546875,429.320312 L286.546875,441.695312 C286.546875,443.335946 286.060552,444.628902 285.087891,445.574219 C284.11523,446.519536 282.808602,446.992188 281.167969,446.992188 C280.253902,446.992188 279.359379,446.796877 278.484375,446.40625 C277.609371,446.015623 276.941409,445.480472 276.480469,444.800781 L277.605469,443.5 C278.535161,444.648443 279.671868,445.222656 281.015625,445.222656 C282.070318,445.222656 282.892575,444.925784 283.482422,444.332031 C284.072269,443.738278 284.367188,442.902349 284.367188,441.824219 L284.367188,440.734375 C283.499996,441.73438 282.316414,442.234375 280.816406,442.234375 C279.332024,442.234375 278.130864,441.636725 277.212891,440.441406 C276.294917,439.246088 275.835938,437.617198 275.835938,435.554688 Z M278.015625,435.800781 C278.015625,437.230476 278.308591,438.353512 278.894531,439.169922 C279.480472,439.986332 280.300776,440.394531 281.355469,440.394531 C282.722663,440.394531 283.726559,439.773444 284.367188,438.53125 L284.367188,432.742188 C283.703122,431.531244 282.707038,430.925781 281.378906,430.925781 C280.324213,430.925781 279.500003,431.335933 278.90625,432.15625 C278.312497,432.976567 278.015625,434.191398 278.015625,435.800781 Z M141.392578,470 L139.224609,470 L139.224609,457.320312 L141.392578,457.320312 L141.392578,470 Z M139.048828,453.957031 C139.048828,453.605467 139.156249,453.308595 139.371094,453.066406 C139.585939,452.824218 139.904295,452.703125 140.326172,452.703125 C140.748049,452.703125 141.068358,452.824218 141.287109,453.066406 C141.50586,453.308595 141.615234,453.605467 141.615234,453.957031 C141.615234,454.308596 141.50586,454.601561 141.287109,454.835938 C141.068358,455.070314 140.748049,455.1875 140.326172,455.1875 C139.904295,455.1875 139.585939,455.070314 139.371094,454.835938 C139.156249,454.601561 139.048828,454.308596 139.048828,453.957031 Z M146.912109,457.320312 L146.982422,458.914062 C147.951177,457.695306 149.216789,457.085938 150.779297,457.085938 C153.458998,457.085938 154.810547,458.597641 154.833984,461.621094 L154.833984,470 L152.666016,470 L152.666016,461.609375 C152.658203,460.695308 152.449221,460.019533 152.039062,459.582031 C151.628904,459.144529 150.990239,458.925781 150.123047,458.925781 C149.419918,458.925781 148.802737,459.113279 148.271484,459.488281 C147.740232,459.863283 147.326173,460.355466 147.029297,460.964844 L147.029297,470 L144.861328,470 L144.861328,457.320312 L146.912109,457.320312 Z M159.169922,470 L159.169922,458.996094 L157.166016,458.996094 L157.166016,457.320312 L159.169922,457.320312 L159.169922,456.019531 C159.169922,454.660149 159.533199,453.609379 160.259766,452.867188 C160.986332,452.124996 162.013665,451.753906 163.341797,451.753906 C163.841799,451.753906 164.337888,451.820312 164.830078,451.953125 L164.712891,453.710938 C164.345701,453.640625 163.95508,453.605469 163.541016,453.605469 C162.837887,453.605469 162.294924,453.810545 161.912109,454.220703 C161.529295,454.630861 161.337891,455.218746 161.337891,455.984375 L161.337891,457.320312 L164.044922,457.320312 L164.044922,458.996094 L161.337891,458.996094 L161.337891,470 L159.169922,470 Z M165.861328,463.542969 C165.861328,462.300775 166.105466,461.183599 166.59375,460.191406 C167.082034,459.199214 167.761714,458.433596 168.632812,457.894531 C169.503911,457.355466 170.498041,457.085938 171.615234,457.085938 C173.341806,457.085938 174.738276,457.683588 175.804688,458.878906 C176.871099,460.074225 177.404297,461.664053 177.404297,463.648438 L177.404297,463.800781 C177.404297,465.035162 177.167971,466.142573 176.695312,467.123047 C176.222654,468.103521 175.546879,468.867185 174.667969,469.414062 C173.789058,469.96094 172.779303,470.234375 171.638672,470.234375 C169.919913,470.234375 168.527349,469.636725 167.460938,468.441406 C166.394526,467.246088 165.861328,465.664072 165.861328,463.695312 L165.861328,463.542969 Z M168.041016,463.800781 C168.041016,465.207038 168.367184,466.335933 169.019531,467.1875 C169.671878,468.039067 170.544916,468.464844 171.638672,468.464844 C172.74024,468.464844 173.615231,468.033207 174.263672,467.169922 C174.912113,466.306636 175.236328,465.097664 175.236328,463.542969 C175.236328,462.152337 174.906253,461.025395 174.246094,460.162109 C173.585934,459.298824 172.70899,458.867188 171.615234,458.867188 C170.544917,458.867188 169.681644,459.292964 169.025391,460.144531 C168.369137,460.996098 168.041016,462.214836 168.041016,463.800781 Z M186.251953,459.265625 C185.923826,459.210937 185.568361,459.183594 185.185547,459.183594 C183.763665,459.183594 182.798831,459.789056 182.291016,461 L182.291016,470 L180.123047,470 L180.123047,457.320312 L182.232422,457.320312 L182.267578,458.785156 C182.978519,457.652338 183.986322,457.085938 185.291016,457.085938 C185.712893,457.085938 186.033202,457.140624 186.251953,457.25 L186.251953,459.265625 Z M190.283203,457.320312 L190.341797,458.726562 C191.271489,457.632807 192.525383,457.085938 194.103516,457.085938 C195.876962,457.085938 197.083981,457.765618 197.724609,459.125 C198.146486,458.515622 198.695309,458.023439 199.371094,457.648438 C200.046878,457.273436 200.845699,457.085938 201.767578,457.085938 C204.548842,457.085938 205.96289,458.558579 206.009766,461.503906 L206.009766,470 L203.841797,470 L203.841797,461.632812 C203.841797,460.726558 203.634768,460.04883 203.220703,459.599609 C202.806639,459.150388 202.111333,458.925781 201.134766,458.925781 C200.330074,458.925781 199.662112,459.166013 199.130859,459.646484 C198.599607,460.126956 198.291016,460.773433 198.205078,461.585938 L198.205078,470 L196.025391,470 L196.025391,461.691406 C196.025391,459.847647 195.123056,458.925781 193.318359,458.925781 C191.896477,458.925781 190.923831,459.531244 190.400391,460.742188 L190.400391,470 L188.232422,470 L188.232422,457.320312 L190.283203,457.320312 Z M217.107422,470 C216.982421,469.749999 216.88086,469.304691 216.802734,468.664062 C215.794917,469.710943 214.591804,470.234375 213.193359,470.234375 C211.943353,470.234375 210.917973,469.880863 210.117188,469.173828 C209.316402,468.466793 208.916016,467.570318 208.916016,466.484375 C208.916016,465.164056 209.417964,464.138676 210.421875,463.408203 C211.425786,462.677731 212.837882,462.3125 214.658203,462.3125 L216.767578,462.3125 L216.767578,461.316406 C216.767578,460.55859 216.541018,459.95508 216.087891,459.505859 C215.634763,459.056638 214.966801,458.832031 214.083984,458.832031 C213.310543,458.832031 212.662112,459.027342 212.138672,459.417969 C211.615232,459.808596 211.353516,460.281247 211.353516,460.835938 L209.173828,460.835938 C209.173828,460.203122 209.398435,459.5918 209.847656,459.001953 C210.296877,458.412106 210.906246,457.945314 211.675781,457.601562 C212.445316,457.257811 213.291011,457.085938 214.212891,457.085938 C215.673835,457.085938 216.818355,457.451168 217.646484,458.181641 C218.474614,458.912113 218.904297,459.917962 218.935547,461.199219 L218.935547,467.035156 C218.935547,468.199225 219.083983,469.124997 219.380859,469.8125 L219.380859,470 L217.107422,470 Z M213.509766,468.347656 C214.189457,468.347656 214.833981,468.171877 215.443359,467.820312 C216.052737,467.468748 216.494139,467.011722 216.767578,466.449219 L216.767578,463.847656 L215.068359,463.847656 C212.412096,463.847656 211.083984,464.624992 211.083984,466.179688 C211.083984,466.859378 211.310545,467.390623 211.763672,467.773438 C212.216799,468.156252 212.798825,468.347656 213.509766,468.347656 Z M225.275391,454.25 L225.275391,457.320312 L227.642578,457.320312 L227.642578,458.996094 L225.275391,458.996094 L225.275391,466.859375 C225.275391,467.36719 225.380858,467.748046 225.591797,468.001953 C225.802735,468.255861 226.162107,468.382812 226.669922,468.382812 C226.919923,468.382812 227.26367,468.335938 227.701172,468.242188 L227.701172,470 C227.130857,470.156251 226.576175,470.234375 226.037109,470.234375 C225.068355,470.234375 224.337893,469.941409 223.845703,469.355469 C223.353513,468.769528 223.107422,467.937505 223.107422,466.859375 L223.107422,458.996094 L220.798828,458.996094 L220.798828,457.320312 L223.107422,457.320312 L223.107422,454.25 L225.275391,454.25 Z M232.529297,470 L230.361328,470 L230.361328,457.320312 L232.529297,457.320312 L232.529297,470 Z M230.185547,453.957031 C230.185547,453.605467 230.292968,453.308595 230.507812,453.066406 C230.722657,452.824218 231.041014,452.703125 231.462891,452.703125 C231.884768,452.703125 232.205077,452.824218 232.423828,453.066406 C232.642579,453.308595 232.751953,453.605467 232.751953,453.957031 C232.751953,454.308596 232.642579,454.601561 232.423828,454.835938 C232.205077,455.070314 231.884768,455.1875 231.462891,455.1875 C231.041014,455.1875 230.722657,455.070314 230.507812,454.835938 C230.292968,454.601561 230.185547,454.308596 230.185547,453.957031 Z M235.423828,463.542969 C235.423828,462.300775 235.667966,461.183599 236.15625,460.191406 C236.644534,459.199214 237.324214,458.433596 238.195312,457.894531 C239.066411,457.355466 240.060541,457.085938 241.177734,457.085938 C242.904306,457.085938 244.300776,457.683588 245.367188,458.878906 C246.433599,460.074225 246.966797,461.664053 246.966797,463.648438 L246.966797,463.800781 C246.966797,465.035162 246.730471,466.142573 246.257812,467.123047 C245.785154,468.103521 245.109379,468.867185 244.230469,469.414062 C243.351558,469.96094 242.341803,470.234375 241.201172,470.234375 C239.482413,470.234375 238.089849,469.636725 237.023438,468.441406 C235.957026,467.246088 235.423828,465.664072 235.423828,463.695312 L235.423828,463.542969 Z M237.603516,463.800781 C237.603516,465.207038 237.929684,466.335933 238.582031,467.1875 C239.234378,468.039067 240.107416,468.464844 241.201172,468.464844 C242.30274,468.464844 243.177731,468.033207 243.826172,467.169922 C244.474613,466.306636 244.798828,465.097664 244.798828,463.542969 C244.798828,462.152337 244.468753,461.025395 243.808594,460.162109 C243.148434,459.298824 242.27149,458.867188 241.177734,458.867188 C240.107417,458.867188 239.244144,459.292964 238.587891,460.144531 C237.931637,460.996098 237.603516,462.214836 237.603516,463.800781 Z M251.736328,457.320312 L251.806641,458.914062 C252.775395,457.695306 254.041008,457.085938 255.603516,457.085938 C258.283217,457.085938 259.634766,458.597641 259.658203,461.621094 L259.658203,470 L257.490234,470 L257.490234,461.609375 C257.482422,460.695308 257.27344,460.019533 256.863281,459.582031 C256.453123,459.144529 255.814457,458.925781 254.947266,458.925781 C254.244137,458.925781 253.626956,459.113279 253.095703,459.488281 C252.56445,459.863283 252.150392,460.355466 251.853516,460.964844 L251.853516,470 L249.685547,470 L249.685547,457.320312 L251.736328,457.320312 Z M262.974609,468.863281 C262.974609,468.488279 263.085936,468.175782 263.308594,467.925781 C263.531251,467.67578 263.865232,467.550781 264.310547,467.550781 C264.755862,467.550781 265.093749,467.67578 265.324219,467.925781 C265.554689,468.175782 265.669922,468.488279 265.669922,468.863281 C265.669922,469.222658 265.554689,469.523436 265.324219,469.765625 C265.093749,470.007814 264.755862,470.128906 264.310547,470.128906 C263.865232,470.128906 263.531251,470.007814 263.308594,469.765625 C263.085936,469.523436 262.974609,469.222658 262.974609,468.863281 Z" id="Formulret-r-endast" fill="#417505"></path>
        </g>
    </g>
</svg>