<?xml version="1.0" encoding="UTF-8"?>
<svg width="405px" height="508px" viewBox="0 0 405 508" version="1.1" xmlns="http://www.w3.org/2000/svg" xmlns:xlink="http://www.w3.org/1999/xlink">
    <!-- Generator: Sketch 50.2 (55047) - http://www.bohemiancoding.com/sketch -->
    <title>Group 7</title>
    <desc>Created with Sketch.</desc>
    <defs></defs>
    <g id="Page-1" stroke="none" stroke-width="1" fill="none" fill-rule="evenodd">
        <g id="Group-7">
            <rect id="Rectangle-4" stroke="#417505" stroke-width="4" x="2" y="2" width="401" height="504"></rect>
            <path d="M203,463 C115.186725,463 44,391.813275 44,304 C44,216.186725 115.186725,145 203,145 C290.813275,145 362,216.186725 362,304 C362,391.813275 290.813275,463 203,463 Z M167,291.924919 L167,368.287373 C191.79483,373.161541 207.901733,375.898546 215.320709,376.49839 C226.449174,377.398155 259.546443,379.372246 266.507902,376.49839 C273.46936,373.624534 282.068808,371.57178 285.344788,363.771314 C288.620769,355.970849 284.159941,357.107692 286.573281,351.86534 C288.986621,346.622988 295.622912,344.707033 296.810719,337.08551 C297.998527,329.463988 292.447783,328.489439 293.125241,322.716231 C293.8027,316.943024 299.945163,317.353575 300.905695,309.168054 C301.866226,300.982533 295.172729,303.523752 295.172729,297.26208 C295.172729,291.000409 302.543685,289.051064 299.677202,278.787293 C296.810719,268.523522 290.535888,266.744574 282.478305,264.828565 C277.106584,263.551226 261.955175,263.551226 237.024079,264.828565 C237.843074,253.059441 240.16356,244.985275 243.985537,240.606066 C249.718503,234.037253 255.04197,214.741364 248.080512,200.782636 C245.085112,194.776426 240.132746,190.276699 234.976591,189.287213 C232.143974,188.743622 228.015133,188.876662 226.78664,190.518865 C225.558148,192.161068 224.329655,216.794118 219.415685,226.236787 C214.501714,235.679456 210.153735,235.274017 201.397793,245.943227 C197.307156,250.927712 192.798345,269.541272 182.970404,283.5 C180.299009,287.294211 174.975541,290.102517 167,291.924919 Z M131,289 C126.029437,289 122,293.029437 122,298 L122,365 C122,369.970563 126.029437,374 131,374 L151,374 C155.970563,374 160,369.970563 160,365 L160,298 C160,293.029437 155.970563,289 151,289 L131,289 Z" id="Combined-Shape" fill="#417505"></path>
            <path d="M86.1,79.4 C86.1,84.266691 86.1499995,87.866655 86.25,90.2 C86.3500005,92.533345 86.633331,95.1833185 87.1,98.15 C87.566669,101.116681 88.366661,103.199994 89.5,104.4 C90.633339,105.600006 92.166657,106.2 94.1,106.2 C96.033343,106.2 98.66665,106.050002 102,105.75 C105.33335,105.449998 107.499995,105.266667 108.5,105.2 L108.5,114.9 C107.899997,114.966667 105.916684,115.28333 102.55,115.85 C99.1833165,116.416669 96.50001,116.7 94.5,116.7 C92.49999,116.7 90.700008,116.483336 89.1,116.05 C87.499992,115.616665 86.100006,115.083337 84.9,114.45 C83.699994,113.816664 82.633338,112.850007 81.7,111.55 C80.766662,110.249994 80.000003,109.066672 79.4,108 C78.799997,106.933328 78.300002,105.383343 77.9,103.35 C77.499998,101.316656 77.200001,99.63334 77,98.3 C76.799999,96.96666 76.633334,94.9833465 76.5,92.35 C76.366666,89.7166535 76.3,87.666674 76.3,86.2 L76.3,72.7 C76.3,67.899976 76.466665,64.3833445 76.8,62.15 C77.133335,59.9166555 77.499998,57.80001 77.9,55.8 C78.300002,53.79999 78.799997,52.2833385 79.4,51.25 C80.000003,50.2166615 80.766662,49.066673 81.7,47.8 C82.633338,46.533327 83.699994,45.600003 84.9,45 C87.833348,43.533326 91.033316,42.8 94.5,42.8 L108.4,46 C107.866664,49.866686 106.866674,52.266662 105.4,53.2 C104.599996,53.666669 103.466674,53.9 102,53.9 C100.533326,53.9 98.80001,53.700002 96.8,53.3 L94,52.6 C92.133324,52.6 90.633339,53.199994 89.5,54.4 C88.366661,55.600006 87.566669,57.6833185 87.1,60.65 C86.633331,63.6166815 86.3500005,66.266655 86.25,68.6 C86.1499995,70.933345 86.1,74.533309 86.1,79.4 Z M116,89.4 L116,83.2 C116,79.066646 116.099999,76.300007 116.3,74.9 C116.500001,73.499993 116.733332,72.1166735 117,70.75 C117.266668,69.3833265 117.583331,68.3833365 117.95,67.75 C118.316668,67.1166635 118.783331,66.366671 119.35,65.5 C119.91667,64.633329 120.566663,64.033335 121.3,63.7 C122.033337,63.366665 122.899995,63.000002 123.9,62.6 C125.566675,61.93333 127.999984,61.6 131.2,61.6 C134.400016,61.6 136.983323,61.9833295 138.95,62.75 C140.916676,63.5166705 142.449995,64.3833285 143.55,65.35 C144.650006,66.3166715 145.433331,68.1833195 145.9,70.95 C146.366669,73.7166805 146.65,76.166656 146.75,78.3 C146.850001,80.433344 146.9,83.333315 146.9,87 L146.9,94.5 C146.9,98.766688 146.800001,101.599993 146.6,103 C146.399999,104.400007 146.166668,105.799993 145.9,107.2 C145.633332,108.600007 145.316668,109.616663 144.95,110.25 C144.583331,110.883337 144.11667,111.649995 143.55,112.55 C142.983331,113.450004 142.31667,114.083331 141.55,114.45 C140.78333,114.816669 139.900005,115.199998 138.9,115.6 C137.299992,116.333337 135.16668,116.7 132.5,116.7 C129.83332,116.7 127.783341,116.600001 126.35,116.4 C124.91666,116.199999 123.650006,115.76667 122.55,115.1 C121.449995,114.43333 120.533337,113.800003 119.8,113.2 C119.066663,112.599997 118.450003,111.583341 117.95,110.15 C117.449997,108.716659 117.066668,107.500005 116.8,106.5 C116.533332,105.499995 116.366667,103.866678 116.3,101.6 C116.099999,97.799981 116,93.733355 116,89.4 Z M131.4,70.1 C128.399985,70.1 126.56667,71.3166545 125.9,73.75 C125.23333,76.1833455 124.9,80.3833035 124.9,86.35 C124.9,92.3166965 124.933333,96.1833245 125,97.95 C125.066667,99.7166755 125.299998,101.583324 125.7,103.55 C126.100002,105.516676 126.749996,106.78333 127.65,107.35 C128.550005,107.916669 129.799992,108.2 131.4,108.2 C134.400015,108.2 136.23333,106.933346 136.9,104.4 C137.56667,101.866654 137.9,97.60003 137.9,91.6 C137.9,85.59997 137.866667,81.733342 137.8,80 C137.733333,78.266658 137.500002,76.466676 137.1,74.6 C136.699998,72.733324 136.050005,71.5166695 135.15,70.95 C134.249996,70.3833305 133.000008,70.1 131.4,70.1 Z M165.9,116 C161.433311,116 158.81667,115.750002 158.05,115.25 C157.28333,114.749998 156.9,113.000015 156.9,110 L156.9,62.3 C161.300022,62.3 163.866663,62.433332 164.6,62.7 C165.333337,62.966668 165.7,63.866659 165.7,65.4 L172.1,61.6 C174.033343,61.6 175.799992,61.799998 177.4,62.2 L179,62.3 C179,66.100019 178.733336,68.3499965 178.2,69.05 C177.666664,69.7500035 175.966681,70.1 173.1,70.1 L164.9,72.9 L165.9,75.7 L165.9,116 Z M195.5,116 C191.033311,116 188.416671,115.750002 187.65,115.25 C186.88333,114.749998 186.5,113.000015 186.5,110 L186.5,62.3 C190.900022,62.3 193.466663,62.433332 194.2,62.7 C194.933337,62.966668 195.3,63.866659 195.3,65.4 L201.7,61.6 C203.633343,61.6 205.399992,61.799998 207,62.2 L208.6,62.3 C208.6,66.100019 208.333336,68.3499965 207.8,69.05 C207.266664,69.7500035 205.566681,70.1 202.7,70.1 L194.5,72.9 L195.5,75.7 L195.5,116 Z M230.7,108.2 C235.233356,108.2 239.83331,107.86667 244.5,107.2 L244.5,115 C238.299969,116.133339 233.900013,116.7 231.3,116.7 C228.699987,116.7 226.616675,116.516668 225.05,116.15 C223.483325,115.783332 222.133339,115.350003 221,114.85 C219.866661,114.349997 218.933337,113.500006 218.2,112.3 C217.466663,111.099994 216.900002,109.983338 216.5,108.95 C216.099998,107.916661 215.800001,106.333344 215.6,104.2 C215.333332,101.333319 215.2,98.2833495 215.2,95.05 L215.2,81.7 C215.2,76.966643 215.333332,74.0166725 215.6,72.85 C215.866668,71.6833275 216.166665,70.4166735 216.5,69.05 C216.833335,67.6833265 217.266664,66.7166695 217.8,66.15 C218.333336,65.5833305 218.98333,64.9166705 219.75,64.15 C220.516671,63.3833295 221.399995,62.866668 222.4,62.6 C225.533349,61.93333 228.333321,61.6 230.8,61.6 C233.266679,61.6 235.383325,61.9833295 237.15,62.75 C238.916675,63.5166705 240.283329,64.466661 241.25,65.6 C242.216672,66.733339 242.966664,68.333323 243.5,70.4 C244.366671,73.666683 244.8,77.933307 244.8,83.2 L245.1,90 L223.3,90.5 L224.1,92.8 C224.1,99.400033 224.416664,103.616657 225.05,105.45 C225.683336,107.283342 227.566651,108.2 230.7,108.2 Z M234.85,72.15 C234.216664,70.7833265 232.700012,70.1 230.3,70.1 C227.899988,70.1 226.350003,70.699994 225.65,71.9 C224.949996,73.100006 224.6,75.69998 224.6,79.7 L223.8,81.9 L236.9,81.9 L235.9,79.7 C235.833333,76.033315 235.483336,73.5166735 234.85,72.15 Z M261.9,88.9 C261.9,93.100021 261.933333,96.0833245 262,97.85 C262.066667,99.6166755 262.283332,101.483324 262.65,103.45 C263.016669,105.416676 263.616663,106.699997 264.45,107.3 C265.283338,107.900003 266.383327,108.2 267.75,108.2 C269.116674,108.2 270.383328,108.083335 271.55,107.85 C272.716672,107.616665 273.999993,107.316669 275.4,106.95 C276.800007,106.583331 277.966662,106.333334 278.9,106.2 L278.9,114 C278.299997,114.133334 276.733346,114.616663 274.2,115.45 C271.666654,116.283338 269.583342,116.7 267.95,116.7 C266.316659,116.7 264.850007,116.583335 263.55,116.35 C262.249994,116.116665 261.083339,115.850001 260.05,115.55 C259.016662,115.249998 258.133337,114.683338 257.4,113.85 C256.666663,113.016662 256.050003,112.300003 255.55,111.7 C255.049998,111.099997 254.633335,110.066674 254.3,108.6 C253.966665,107.133326 253.716668,105.933338 253.55,105 C253.383333,104.066662 253.250001,102.516678 253.15,100.35 C253.05,98.1833225 253,96.466673 253,95.2 L253,82.8 C253,78.266644 253.133332,75.2833405 253.4,73.85 C253.666668,72.4166595 253.966665,70.966674 254.3,69.5 C254.633335,68.033326 255.049998,67.0166695 255.55,66.45 C256.050003,65.8833305 256.666663,65.200004 257.4,64.4 C258.133337,63.599996 259.033328,63.066668 260.1,62.8 C262.700013,61.999996 265.33332,61.6 268,61.6 L279.3,64 C278.766664,67.800019 278.233336,69.933331 277.7,70.4 C277.166664,70.866669 276.400005,71.1 275.4,71.1 C274.399995,71.1 273.200007,71.000001 271.8,70.8 L268,70.1 C266.466659,70.1 265.283338,70.366664 264.45,70.9 C263.616663,71.433336 263.016669,72.6499905 262.65,74.55 C262.283332,76.4500095 262.066667,78.266658 262,80 C261.933333,81.733342 261.9,84.699979 261.9,88.9 Z M306.6,62.3 C306.6,66.100019 306.250004,68.4499955 305.55,69.35 C304.849997,70.2500045 302.800017,70.7 299.4,70.7 L296.5,70.7 L297.4,73.2 L297.4,93 C297.4,98.666695 297.616665,102.54999 298.05,104.65 C298.483336,106.75001 299.399993,107.933332 300.8,108.2 L308.4,108.2 L308.4,116 L300.3,116.5 C296.96665,116.5 294.766672,116.16667 293.7,115.5 C292.633328,114.83333 291.833336,114.300002 291.3,113.9 C290.766664,113.499998 290.300002,112.68334 289.9,111.45 C289.499998,110.21666 289.200001,109.21667 289,108.45 C288.799999,107.683329 288.650001,106.283344 288.55,104.25 C288.45,102.216656 288.4,100.53334 288.4,99.2 L288.4,73.2 L289.2,70.7 L283.9,70.7 L283.9,62.3 L289.2,62.3 L288.4,58.6 L288.4,53.5 C292.866689,53.5 295.48333,53.7166645 296.25,54.15 C297.016671,54.5833355 297.4,56.166653 297.4,58.9 L296.6,62.3 L306.6,62.3 Z M324.1,106.15 C325.166672,107.450006 325.7,108.799993 325.7,110.2 C325.7,112.000009 325.066673,113.416661 323.8,114.45 C322.533327,115.483338 321.200007,116 319.8,116 C317.999991,116 316.550005,115.366673 315.45,114.1 C314.349995,112.833327 313.8,111.416674 313.8,109.85 C313.8,108.283326 314.449994,106.950006 315.75,105.85 C317.050007,104.749994 318.499992,104.2 320.1,104.2 C321.700008,104.2 323.033328,104.849993 324.1,106.15 Z M321.3,98.9 L316.7,98.5 L318.1,50.9 C318.166667,48.099986 318.733328,46.433336 319.8,45.9 C320.533337,45.566665 321.666659,45.4 323.2,45.4 C324.733341,45.4 326.333325,45.466666 328,45.6 L325.7,93.4 C325.566666,94.800007 325.5,95.6499985 325.5,95.95 C325.5,96.2500015 325.350001,96.7499965 325.05,97.45 C324.749999,98.1500035 324.533334,98.5 324.4,98.5 L321.3,98.9 Z" id="Correct!" fill="#417505"></path>
        </g>
    </g>
</svg>