<?xml version="1.0" encoding="UTF-8"?>
<svg width="405px" height="508px" viewBox="0 0 405 508" version="1.1" xmlns="http://www.w3.org/2000/svg" xmlns:xlink="http://www.w3.org/1999/xlink">
    <!-- Generator: Sketch 50.2 (55047) - http://www.bohemiancoding.com/sketch -->
    <title>Group 7</title>
    <desc>Created with Sketch.</desc>
    <defs></defs>
    <g id="Page-1" stroke="none" stroke-width="1" fill="none" fill-rule="evenodd">
        <g id="Group-7">
            <rect id="Rectangle-4" stroke="#417505" stroke-width="4" x="2" y="2" width="401" height="504"></rect>
            <path d="M203,463 C115.186725,463 44,391.813275 44,304 C44,216.186725 115.186725,145 203,145 C290.813275,145 362,216.186725 362,304 C362,391.813275 290.813275,463 203,463 Z M167,291.924919 L167,368.287373 C191.79483,373.161541 207.901733,375.898546 215.320709,376.49839 C226.449174,377.398155 259.546443,379.372246 266.507902,376.49839 C273.46936,373.624534 282.068808,371.57178 285.344788,363.771314 C288.620769,355.970849 284.159941,357.107692 286.573281,351.86534 C288.986621,346.622988 295.622912,344.707033 296.810719,337.08551 C297.998527,329.463988 292.447783,328.489439 293.125241,322.716231 C293.8027,316.943024 299.945163,317.353575 300.905695,309.168054 C301.866226,300.982533 295.172729,303.523752 295.172729,297.26208 C295.172729,291.000409 302.543685,289.051064 299.677202,278.787293 C296.810719,268.523522 290.535888,266.744574 282.478305,264.828565 C277.106584,263.551226 261.955175,263.551226 237.024079,264.828565 C237.843074,253.059441 240.16356,244.985275 243.985537,240.606066 C249.718503,234.037253 255.04197,214.741364 248.080512,200.782636 C245.085112,194.776426 240.132746,190.276699 234.976591,189.287213 C232.143974,188.743622 228.015133,188.876662 226.78664,190.518865 C225.558148,192.161068 224.329655,216.794118 219.415685,226.236787 C214.501714,235.679456 210.153735,235.274017 201.397793,245.943227 C197.307156,250.927712 192.798345,269.541272 182.970404,283.5 C180.299009,287.294211 174.975541,290.102517 167,291.924919 Z M131,289 C126.029437,289 122,293.029437 122,298 L122,365 C122,369.970563 126.029437,374 131,374 L151,374 C155.970563,374 160,369.970563 160,365 L160,298 C160,293.029437 155.970563,289 151,289 L131,289 Z" id="Combined-Shape" fill="#417505"></path>
            <text id="Correct!" font-family="Economica-Bold, Economica" font-size="100" font-weight="bold" fill="#417505">
                <tspan x="71.3" y="116">Correct!</tspan>
            </text>
        </g>
    </g>
</svg>