<?xml version="1.0" encoding="UTF-8"?>
<svg width="405px" height="508px" viewBox="0 0 405 508" version="1.1" xmlns="http://www.w3.org/2000/svg" xmlns:xlink="http://www.w3.org/1999/xlink">
    <!-- Generator: Sketch 50.2 (55047) - http://www.bohemiancoding.com/sketch -->
    <title>Group 7</title>
    <desc>Created with Sketch.</desc>
    <defs></defs>
    <g id="Page-1" stroke="none" stroke-width="1" fill="none" fill-rule="evenodd">
        <g id="Group-7">
            <rect id="Rectangle-4" stroke="#417505" stroke-width="10" x="5" y="5" width="395" height="498"></rect>
            <path d="M203,344 C115.186725,344 44,272.813275 44,185 C44,97.1867248 115.186725,26 203,26 C290.813275,26 362,97.1867248 362,185 C362,272.813275 290.813275,344 203,344 Z M167,172.924919 L167,249.287373 C191.79483,254.161541 207.901733,256.898546 215.320709,257.49839 C226.449174,258.398155 259.546443,260.372246 266.507902,257.49839 C273.46936,254.624534 282.068808,252.57178 285.344788,244.771314 C288.620769,236.970849 284.159941,238.107692 286.573281,232.86534 C288.986621,227.622988 295.622912,225.707033 296.810719,218.08551 C297.998527,210.463988 292.447783,209.489439 293.125241,203.716231 C293.8027,197.943024 299.945163,198.353575 300.905695,190.168054 C301.866226,181.982533 295.172729,184.523752 295.172729,178.26208 C295.172729,172.000409 302.543685,170.051064 299.677202,159.787293 C296.810719,149.523522 290.535888,147.744574 282.478305,145.828565 C277.106584,144.551226 261.955175,144.551226 237.024079,145.828565 C237.843074,134.059441 240.16356,125.985275 243.985537,121.606066 C249.718503,115.037253 255.04197,95.7413638 248.080512,81.7826357 C245.085112,75.7764261 240.132746,71.2766989 234.976591,70.2872125 C232.143974,69.743622 228.015133,69.8766617 226.78664,71.518865 C225.558148,73.1610683 224.329655,97.794118 219.415685,107.236787 C214.501714,116.679456 210.153735,116.274017 201.397793,126.943227 C197.307156,131.927712 192.798345,150.541272 182.970404,164.5 C180.299009,168.294211 174.975541,171.102517 167,172.924919 Z M131,170 C126.029437,170 122,174.029437 122,179 L122,246 C122,250.970563 126.029437,255 131,255 L151,255 C155.970563,255 160,250.970563 160,246 L160,179 C160,174.029437 155.970563,170 151,170 L131,170 Z" id="Combined-Shape" fill="#417505"></path>
            <path d="M70.1953125,375.035156 L64.7109375,375.035156 L64.7109375,390.246094 L62.4726562,390.246094 L62.4726562,375.035156 L57,375.035156 L57,373.183594 L70.1953125,373.183594 L70.1953125,375.035156 Z M74.5546875,379.101562 C75.5156298,377.921869 76.7656173,377.332031 78.3046875,377.332031 C80.9843884,377.332031 82.3359374,378.843735 82.359375,381.867188 L82.359375,390.246094 L80.1914062,390.246094 L80.1914062,381.855469 C80.1835937,380.941402 79.9746114,380.265627 79.5644531,379.828125 C79.1542948,379.390623 78.5156293,379.171875 77.6484375,379.171875 C76.945309,379.171875 76.3281277,379.359373 75.796875,379.734375 C75.2656223,380.109377 74.851564,380.601559 74.5546875,381.210938 L74.5546875,390.246094 L72.3867188,390.246094 L72.3867188,372.246094 L74.5546875,372.246094 L74.5546875,379.101562 Z M90.8671875,390.480469 C89.1484289,390.480469 87.7500054,389.916021 86.671875,388.787109 C85.5937446,387.658197 85.0546875,386.148447 85.0546875,384.257812 L85.0546875,383.859375 C85.0546875,382.601556 85.2949195,381.478521 85.7753906,380.490234 C86.2558618,379.501948 86.9277301,378.728518 87.7910156,378.169922 C88.6543012,377.611325 89.5898387,377.332031 90.5976562,377.332031 C92.246102,377.332031 93.5273392,377.874995 94.4414062,378.960938 C95.3554733,380.04688 95.8125,381.601552 95.8125,383.625 L95.8125,384.527344 L87.2226562,384.527344 C87.2539064,385.77735 87.6191371,386.787106 88.3183594,387.556641 C89.0175816,388.326176 89.9062446,388.710938 90.984375,388.710938 C91.7500038,388.710938 92.3984348,388.554689 92.9296875,388.242188 C93.4609402,387.929686 93.9257793,387.515628 94.3242188,387 L95.6484375,388.03125 C94.5859322,389.664071 92.9921981,390.480469 90.8671875,390.480469 Z M90.5976562,379.113281 C89.7226519,379.113281 88.9882842,379.431637 88.3945312,380.068359 C87.8007783,380.705081 87.4335945,381.597651 87.2929688,382.746094 L93.6445312,382.746094 L93.6445312,382.582031 C93.5820309,381.480463 93.2851589,380.626956 92.7539062,380.021484 C92.2226536,379.416013 91.5039108,379.113281 90.5976562,379.113281 Z M105.328125,390.246094 L105.328125,379.242188 L103.324219,379.242188 L103.324219,377.566406 L105.328125,377.566406 L105.328125,376.265625 C105.328125,374.906243 105.691403,373.855472 106.417969,373.113281 C107.144535,372.37109 108.171868,372 109.5,372 C110.000003,372 110.496091,372.066406 110.988281,372.199219 L110.871094,373.957031 C110.503904,373.886718 110.113283,373.851562 109.699219,373.851562 C108.99609,373.851562 108.453127,374.056639 108.070312,374.466797 C107.687498,374.876955 107.496094,375.46484 107.496094,376.230469 L107.496094,377.566406 L110.203125,377.566406 L110.203125,379.242188 L107.496094,379.242188 L107.496094,390.246094 L105.328125,390.246094 Z M112.019531,383.789062 C112.019531,382.546869 112.263669,381.429692 112.751953,380.4375 C113.240237,379.445308 113.919918,378.67969 114.791016,378.140625 C115.662114,377.60156 116.656244,377.332031 117.773438,377.332031 C119.500009,377.332031 120.896479,377.929682 121.962891,379.125 C123.029302,380.320318 123.5625,381.910146 123.5625,383.894531 L123.5625,384.046875 C123.5625,385.281256 123.326174,386.388667 122.853516,387.369141 C122.380857,388.349614 121.705083,389.113279 120.826172,389.660156 C119.947261,390.207034 118.937506,390.480469 117.796875,390.480469 C116.078116,390.480469 114.685552,389.882818 113.619141,388.6875 C112.552729,387.492182 112.019531,385.910166 112.019531,383.941406 L112.019531,383.789062 Z M114.199219,384.046875 C114.199219,385.453132 114.525387,386.582027 115.177734,387.433594 C115.830081,388.285161 116.70312,388.710938 117.796875,388.710938 C118.898443,388.710938 119.773434,388.279301 120.421875,387.416016 C121.070316,386.55273 121.394531,385.343758 121.394531,383.789062 C121.394531,382.398431 121.064456,381.271489 120.404297,380.408203 C119.744137,379.544918 118.867193,379.113281 117.773438,379.113281 C116.70312,379.113281 115.839847,379.539058 115.183594,380.390625 C114.52734,381.242192 114.199219,382.46093 114.199219,384.046875 Z M132.410156,379.511719 C132.08203,379.457031 131.726564,379.429688 131.34375,379.429688 C129.921868,379.429688 128.957034,380.03515 128.449219,381.246094 L128.449219,390.246094 L126.28125,390.246094 L126.28125,377.566406 L128.390625,377.566406 L128.425781,379.03125 C129.136722,377.898432 130.144525,377.332031 131.449219,377.332031 C131.871096,377.332031 132.191405,377.386718 132.410156,377.496094 L132.410156,379.511719 Z M136.441406,377.566406 L136.5,378.972656 C137.429692,377.878901 138.683586,377.332031 140.261719,377.332031 C142.035165,377.332031 143.242184,378.011712 143.882812,379.371094 C144.30469,378.761716 144.853512,378.269533 145.529297,377.894531 C146.205082,377.519529 147.003902,377.332031 147.925781,377.332031 C150.707045,377.332031 152.121094,378.804673 152.167969,381.75 L152.167969,390.246094 L150,390.246094 L150,381.878906 C150,380.972652 149.792971,380.294924 149.378906,379.845703 C148.964842,379.396482 148.269536,379.171875 147.292969,379.171875 C146.488277,379.171875 145.820315,379.412107 145.289062,379.892578 C144.75781,380.373049 144.449219,381.019527 144.363281,381.832031 L144.363281,390.246094 L142.183594,390.246094 L142.183594,381.9375 C142.183594,380.093741 141.281259,379.171875 139.476562,379.171875 C138.05468,379.171875 137.082034,379.777338 136.558594,380.988281 L136.558594,390.246094 L134.390625,390.246094 L134.390625,377.566406 L136.441406,377.566406 Z M163.734375,390.246094 L161.566406,390.246094 L161.566406,377.566406 L163.734375,377.566406 L163.734375,390.246094 Z M161.390625,374.203125 C161.390625,373.851561 161.498046,373.554689 161.712891,373.3125 C161.927735,373.070311 162.246092,372.949219 162.667969,372.949219 C163.089846,372.949219 163.410155,373.070311 163.628906,373.3125 C163.847657,373.554689 163.957031,373.851561 163.957031,374.203125 C163.957031,374.554689 163.847657,374.847655 163.628906,375.082031 C163.410155,375.316407 163.089846,375.433594 162.667969,375.433594 C162.246092,375.433594 161.927735,375.316407 161.712891,375.082031 C161.498046,374.847655 161.390625,374.554689 161.390625,374.203125 Z M174.585938,386.882812 C174.585938,386.296872 174.365237,385.841798 173.923828,385.517578 C173.48242,385.193358 172.712896,384.914064 171.615234,384.679688 C170.517573,384.445311 169.646488,384.164064 169.001953,383.835938 C168.357419,383.507811 167.880861,383.11719 167.572266,382.664062 C167.26367,382.210935 167.109375,381.671878 167.109375,381.046875 C167.109375,380.007807 167.548824,379.12891 168.427734,378.410156 C169.306645,377.691403 170.429681,377.332031 171.796875,377.332031 C173.234382,377.332031 174.400386,377.703121 175.294922,378.445312 C176.189458,379.187504 176.636719,380.136713 176.636719,381.292969 L174.457031,381.292969 C174.457031,380.699216 174.205081,380.187502 173.701172,379.757812 C173.197263,379.328123 172.562504,379.113281 171.796875,379.113281 C171.007809,379.113281 170.390627,379.285155 169.945312,379.628906 C169.499998,379.972658 169.277344,380.421872 169.277344,380.976562 C169.277344,381.500003 169.484373,381.89453 169.898438,382.160156 C170.312502,382.425783 171.060541,382.679686 172.142578,382.921875 C173.224615,383.164064 174.101559,383.453123 174.773438,383.789062 C175.445316,384.125002 175.943358,384.529295 176.267578,385.001953 C176.591798,385.474612 176.753906,386.050778 176.753906,386.730469 C176.753906,387.863287 176.300786,388.771481 175.394531,389.455078 C174.488277,390.138675 173.312507,390.480469 171.867188,390.480469 C170.851557,390.480469 169.953129,390.300783 169.171875,389.941406 C168.390621,389.582029 167.779299,389.080081 167.337891,388.435547 C166.896482,387.791012 166.675781,387.093754 166.675781,386.34375 L168.84375,386.34375 C168.882813,387.070316 169.173825,387.646482 169.716797,388.072266 C170.259768,388.498049 170.976558,388.710938 171.867188,388.710938 C172.687504,388.710938 173.345701,388.544924 173.841797,388.212891 C174.337893,387.880858 174.585938,387.437503 174.585938,386.882812 Z M187.757812,377.566406 L187.757812,391.710938 C187.757812,394.14845 186.652355,395.367188 184.441406,395.367188 C183.964841,395.367188 183.52344,395.296876 183.117188,395.15625 L183.117188,393.421875 C183.367189,393.484375 183.69531,393.515625 184.101562,393.515625 C184.58594,393.515625 184.955077,393.384767 185.208984,393.123047 C185.462892,392.861327 185.589844,392.406253 185.589844,391.757812 L185.589844,377.566406 L187.757812,377.566406 Z M185.367188,374.203125 C185.367188,373.859373 185.474608,373.564454 185.689453,373.318359 C185.904298,373.072264 186.218748,372.949219 186.632812,372.949219 C187.05469,372.949219 187.374999,373.070311 187.59375,373.3125 C187.812501,373.554689 187.921875,373.851561 187.921875,374.203125 C187.921875,374.554689 187.812501,374.847655 187.59375,375.082031 C187.374999,375.316407 187.05469,375.433594 186.632812,375.433594 C186.210935,375.433594 185.894532,375.316407 185.683594,375.082031 C185.472655,374.847655 185.367188,374.554689 185.367188,374.203125 Z M199.078125,388.992188 C198.234371,389.98438 196.996102,390.480469 195.363281,390.480469 C194.011712,390.480469 192.982425,390.087895 192.275391,389.302734 C191.568356,388.517574 191.210938,387.355476 191.203125,385.816406 L191.203125,377.566406 L193.371094,377.566406 L193.371094,385.757812 C193.371094,387.679697 194.152336,388.640625 195.714844,388.640625 C197.371102,388.640625 198.472654,388.023444 199.019531,386.789062 L199.019531,377.566406 L201.1875,377.566406 L201.1875,390.246094 L199.125,390.246094 L199.078125,388.992188 Z M211.863281,386.882812 C211.863281,386.296872 211.64258,385.841798 211.201172,385.517578 C210.759763,385.193358 209.99024,384.914064 208.892578,384.679688 C207.794916,384.445311 206.923831,384.164064 206.279297,383.835938 C205.634762,383.507811 205.158205,383.11719 204.849609,382.664062 C204.541014,382.210935 204.386719,381.671878 204.386719,381.046875 C204.386719,380.007807 204.826167,379.12891 205.705078,378.410156 C206.583989,377.691403 207.707024,377.332031 209.074219,377.332031 C210.511726,377.332031 211.67773,377.703121 212.572266,378.445312 C213.466801,379.187504 213.914062,380.136713 213.914062,381.292969 L211.734375,381.292969 C211.734375,380.699216 211.482424,380.187502 210.978516,379.757812 C210.474607,379.328123 209.839848,379.113281 209.074219,379.113281 C208.285152,379.113281 207.667971,379.285155 207.222656,379.628906 C206.777342,379.972658 206.554688,380.421872 206.554688,380.976562 C206.554688,381.500003 206.761717,381.89453 207.175781,382.160156 C207.589846,382.425783 208.337885,382.679686 209.419922,382.921875 C210.501959,383.164064 211.378903,383.453123 212.050781,383.789062 C212.72266,384.125002 213.220702,384.529295 213.544922,385.001953 C213.869142,385.474612 214.03125,386.050778 214.03125,386.730469 C214.03125,387.863287 213.57813,388.771481 212.671875,389.455078 C211.76562,390.138675 210.589851,390.480469 209.144531,390.480469 C208.128901,390.480469 207.230473,390.300783 206.449219,389.941406 C205.667965,389.582029 205.056643,389.080081 204.615234,388.435547 C204.173826,387.791012 203.953125,387.093754 203.953125,386.34375 L206.121094,386.34375 C206.160156,387.070316 206.451169,387.646482 206.994141,388.072266 C207.537112,388.498049 208.253902,388.710938 209.144531,388.710938 C209.964848,388.710938 210.623044,388.544924 211.119141,388.212891 C211.615237,387.880858 211.863281,387.437503 211.863281,386.882812 Z M219.796875,374.496094 L219.796875,377.566406 L222.164062,377.566406 L222.164062,379.242188 L219.796875,379.242188 L219.796875,387.105469 C219.796875,387.613284 219.902343,387.994139 220.113281,388.248047 C220.32422,388.501954 220.683591,388.628906 221.191406,388.628906 C221.441407,388.628906 221.785154,388.582032 222.222656,388.488281 L222.222656,390.246094 C221.652341,390.402345 221.097659,390.480469 220.558594,390.480469 C219.589839,390.480469 218.859377,390.187503 218.367188,389.601562 C217.874998,389.015622 217.628906,388.183599 217.628906,387.105469 L217.628906,379.242188 L215.320312,379.242188 L215.320312,377.566406 L217.628906,377.566406 L217.628906,374.496094 L219.796875,374.496094 Z M238.464844,390.246094 C238.339843,389.996093 238.238282,389.550784 238.160156,388.910156 C237.152339,389.957036 235.949226,390.480469 234.550781,390.480469 C233.300775,390.480469 232.275395,390.126957 231.474609,389.419922 C230.673824,388.712887 230.273438,387.816412 230.273438,386.730469 C230.273438,385.41015 230.775386,384.384769 231.779297,383.654297 C232.783208,382.923824 234.195303,382.558594 236.015625,382.558594 L238.125,382.558594 L238.125,381.5625 C238.125,380.804684 237.89844,380.201174 237.445312,379.751953 C236.992185,379.302732 236.324223,379.078125 235.441406,379.078125 C234.667965,379.078125 234.019534,379.273436 233.496094,379.664062 C232.972654,380.054689 232.710938,380.527341 232.710938,381.082031 L230.53125,381.082031 C230.53125,380.449216 230.755857,379.837894 231.205078,379.248047 C231.654299,378.6582 232.263668,378.191408 233.033203,377.847656 C233.802738,377.503905 234.648433,377.332031 235.570312,377.332031 C237.031257,377.332031 238.175777,377.697262 239.003906,378.427734 C239.832035,379.158207 240.261719,380.164056 240.292969,381.445312 L240.292969,387.28125 C240.292969,388.445318 240.441405,389.37109 240.738281,390.058594 L240.738281,390.246094 L238.464844,390.246094 Z M234.867188,388.59375 C235.546878,388.59375 236.191403,388.417971 236.800781,388.066406 C237.410159,387.714842 237.851561,387.257815 238.125,386.695312 L238.125,384.09375 L236.425781,384.09375 C233.769518,384.09375 232.441406,384.871086 232.441406,386.425781 C232.441406,387.105472 232.667966,387.636717 233.121094,388.019531 C233.574221,388.402346 234.156246,388.59375 234.867188,388.59375 Z M260.34375,384.046875 C260.34375,385.976572 259.902348,387.531244 259.019531,388.710938 C258.136714,389.890631 256.941414,390.480469 255.433594,390.480469 C253.894524,390.480469 252.683598,389.992192 251.800781,389.015625 L251.800781,395.121094 L249.632812,395.121094 L249.632812,377.566406 L251.613281,377.566406 L251.71875,378.972656 C252.601567,377.878901 253.828117,377.332031 255.398438,377.332031 C256.921883,377.332031 258.126949,377.906244 259.013672,379.054688 C259.900395,380.203131 260.34375,381.800771 260.34375,383.847656 L260.34375,384.046875 Z M258.175781,383.800781 C258.175781,382.371087 257.871097,381.242192 257.261719,380.414062 C256.652341,379.585933 255.816412,379.171875 254.753906,379.171875 C253.4414,379.171875 252.457035,379.7539 251.800781,380.917969 L251.800781,386.976562 C252.449222,388.132818 253.4414,388.710938 254.777344,388.710938 C255.816411,388.710938 256.642575,388.298832 257.255859,387.474609 C257.869144,386.650387 258.175781,385.425789 258.175781,383.800781 Z M269.226562,379.511719 C268.898436,379.457031 268.542971,379.429688 268.160156,379.429688 C266.738274,379.429688 265.77344,380.03515 265.265625,381.246094 L265.265625,390.246094 L263.097656,390.246094 L263.097656,377.566406 L265.207031,377.566406 L265.242188,379.03125 C265.953129,377.898432 266.960931,377.332031 268.265625,377.332031 C268.687502,377.332031 269.007811,377.386718 269.226562,377.496094 L269.226562,379.511719 Z M270.410156,383.789062 C270.410156,382.546869 270.654294,381.429692 271.142578,380.4375 C271.630862,379.445308 272.310543,378.67969 273.181641,378.140625 C274.052739,377.60156 275.046869,377.332031 276.164062,377.332031 C277.890634,377.332031 279.287104,377.929682 280.353516,379.125 C281.419927,380.320318 281.953125,381.910146 281.953125,383.894531 L281.953125,384.046875 C281.953125,385.281256 281.716799,386.388667 281.244141,387.369141 C280.771482,388.349614 280.095708,389.113279 279.216797,389.660156 C278.337886,390.207034 277.328131,390.480469 276.1875,390.480469 C274.468741,390.480469 273.076177,389.882818 272.009766,388.6875 C270.943354,387.492182 270.410156,385.910166 270.410156,383.941406 L270.410156,383.789062 Z M272.589844,384.046875 C272.589844,385.453132 272.916012,386.582027 273.568359,387.433594 C274.220706,388.285161 275.093745,388.710938 276.1875,388.710938 C277.289068,388.710938 278.164059,388.279301 278.8125,387.416016 C279.460941,386.55273 279.785156,385.343758 279.785156,383.789062 C279.785156,382.398431 279.455081,381.271489 278.794922,380.408203 C278.134762,379.544918 277.257818,379.113281 276.164062,379.113281 C275.093745,379.113281 274.230472,379.539058 273.574219,380.390625 C272.917965,381.242192 272.589844,382.46093 272.589844,384.046875 Z M287.613281,374.496094 L287.613281,377.566406 L289.980469,377.566406 L289.980469,379.242188 L287.613281,379.242188 L287.613281,387.105469 C287.613281,387.613284 287.718749,387.994139 287.929688,388.248047 C288.140626,388.501954 288.499997,388.628906 289.007812,388.628906 C289.257814,388.628906 289.60156,388.582032 290.039062,388.488281 L290.039062,390.246094 C289.468747,390.402345 288.914065,390.480469 288.375,390.480469 C287.406245,390.480469 286.675784,390.187503 286.183594,389.601562 C285.691404,389.015622 285.445312,388.183599 285.445312,387.105469 L285.445312,379.242188 L283.136719,379.242188 L283.136719,377.566406 L285.445312,377.566406 L285.445312,374.496094 L287.613281,374.496094 Z M291.703125,383.789062 C291.703125,382.546869 291.947263,381.429692 292.435547,380.4375 C292.923831,379.445308 293.603511,378.67969 294.474609,378.140625 C295.345707,377.60156 296.339838,377.332031 297.457031,377.332031 C299.183602,377.332031 300.580073,377.929682 301.646484,379.125 C302.712896,380.320318 303.246094,381.910146 303.246094,383.894531 L303.246094,384.046875 C303.246094,385.281256 303.009768,386.388667 302.537109,387.369141 C302.064451,388.349614 301.388676,389.113279 300.509766,389.660156 C299.630855,390.207034 298.621099,390.480469 297.480469,390.480469 C295.76171,390.480469 294.369146,389.882818 293.302734,388.6875 C292.236323,387.492182 291.703125,385.910166 291.703125,383.941406 L291.703125,383.789062 Z M293.882812,384.046875 C293.882812,385.453132 294.208981,386.582027 294.861328,387.433594 C295.513675,388.285161 296.386713,388.710938 297.480469,388.710938 C298.582037,388.710938 299.457028,388.279301 300.105469,387.416016 C300.753909,386.55273 301.078125,385.343758 301.078125,383.789062 C301.078125,382.398431 300.74805,381.271489 300.087891,380.408203 C299.427731,379.544918 298.550787,379.113281 297.457031,379.113281 C296.386713,379.113281 295.523441,379.539058 294.867188,380.390625 C294.210934,381.242192 293.882812,382.46093 293.882812,384.046875 Z M308.90625,374.496094 L308.90625,377.566406 L311.273438,377.566406 L311.273438,379.242188 L308.90625,379.242188 L308.90625,387.105469 C308.90625,387.613284 309.011718,387.994139 309.222656,388.248047 C309.433595,388.501954 309.792966,388.628906 310.300781,388.628906 C310.550782,388.628906 310.894529,388.582032 311.332031,388.488281 L311.332031,390.246094 C310.761716,390.402345 310.207034,390.480469 309.667969,390.480469 C308.699214,390.480469 307.968752,390.187503 307.476562,389.601562 C306.984373,389.015622 306.738281,388.183599 306.738281,387.105469 L306.738281,379.242188 L304.429688,379.242188 L304.429688,377.566406 L306.738281,377.566406 L306.738281,374.496094 L308.90625,374.496094 Z M317.953125,387.070312 L320.90625,377.566406 L323.226562,377.566406 L318.128906,392.203125 C317.33984,394.312511 316.085946,395.367188 314.367188,395.367188 L313.957031,395.332031 L313.148438,395.179688 L313.148438,393.421875 L313.734375,393.46875 C314.468754,393.46875 315.041014,393.320314 315.451172,393.023438 C315.86133,392.726561 316.199217,392.183598 316.464844,391.394531 L316.945312,390.105469 L312.421875,377.566406 L314.789062,377.566406 L317.953125,387.070312 Z M335.871094,384.046875 C335.871094,385.976572 335.429692,387.531244 334.546875,388.710938 C333.664058,389.890631 332.468758,390.480469 330.960938,390.480469 C329.421867,390.480469 328.210942,389.992192 327.328125,389.015625 L327.328125,395.121094 L325.160156,395.121094 L325.160156,377.566406 L327.140625,377.566406 L327.246094,378.972656 C328.128911,377.878901 329.355461,377.332031 330.925781,377.332031 C332.449226,377.332031 333.654292,377.906244 334.541016,379.054688 C335.427739,380.203131 335.871094,381.800771 335.871094,383.847656 L335.871094,384.046875 Z M333.703125,383.800781 C333.703125,382.371087 333.398441,381.242192 332.789062,380.414062 C332.179684,379.585933 331.343755,379.171875 330.28125,379.171875 C328.968743,379.171875 327.984378,379.7539 327.328125,380.917969 L327.328125,386.976562 C327.976566,388.132818 328.968743,388.710938 330.304688,388.710938 C331.343755,388.710938 332.169919,388.298832 332.783203,387.474609 C333.396487,386.650387 333.703125,385.425789 333.703125,383.800781 Z M343.886719,390.480469 C342.16796,390.480469 340.769537,389.916021 339.691406,388.787109 C338.613276,387.658197 338.074219,386.148447 338.074219,384.257812 L338.074219,383.859375 C338.074219,382.601556 338.314451,381.478521 338.794922,380.490234 C339.275393,379.501948 339.947261,378.728518 340.810547,378.169922 C341.673832,377.611325 342.60937,377.332031 343.617188,377.332031 C345.265633,377.332031 346.54687,377.874995 347.460938,378.960938 C348.375005,380.04688 348.832031,381.601552 348.832031,383.625 L348.832031,384.527344 L340.242188,384.527344 C340.273438,385.77735 340.638668,386.787106 341.337891,387.556641 C342.037113,388.326176 342.925776,388.710938 344.003906,388.710938 C344.769535,388.710938 345.417966,388.554689 345.949219,388.242188 C346.480471,387.929686 346.945311,387.515628 347.34375,387 L348.667969,388.03125 C347.605463,389.664071 346.011729,390.480469 343.886719,390.480469 Z M343.617188,379.113281 C342.742183,379.113281 342.007815,379.431637 341.414062,380.068359 C340.82031,380.705081 340.453126,381.597651 340.3125,382.746094 L346.664062,382.746094 L346.664062,382.582031 C346.601562,381.480463 346.30469,380.626956 345.773438,380.021484 C345.242185,379.416013 344.523442,379.113281 343.617188,379.113281 Z M105.65625,418.246094 C105.531249,417.996093 105.429688,417.550784 105.351562,416.910156 C104.343745,417.957036 103.140632,418.480469 101.742188,418.480469 C100.492181,418.480469 99.4668009,418.126957 98.6660156,417.419922 C97.8652304,416.712887 97.4648438,415.816412 97.4648438,414.730469 C97.4648438,413.41015 97.9667919,412.384769 98.9707031,411.654297 C99.9746144,410.923824 101.38671,410.558594 103.207031,410.558594 L105.316406,410.558594 L105.316406,409.5625 C105.316406,408.804684 105.089846,408.201174 104.636719,407.751953 C104.183591,407.302732 103.515629,407.078125 102.632812,407.078125 C101.859371,407.078125 101.21094,407.273436 100.6875,407.664062 C100.16406,408.054689 99.9023438,408.527341 99.9023438,409.082031 L97.7226562,409.082031 C97.7226562,408.449216 97.9472634,407.837894 98.3964844,407.248047 C98.8457054,406.6582 99.4550743,406.191408 100.224609,405.847656 C100.994144,405.503905 101.839839,405.332031 102.761719,405.332031 C104.222664,405.332031 105.367183,405.697262 106.195312,406.427734 C107.023442,407.158207 107.453125,408.164056 107.484375,409.445312 L107.484375,415.28125 C107.484375,416.445318 107.632811,417.37109 107.929688,418.058594 L107.929688,418.246094 L105.65625,418.246094 Z M102.058594,416.59375 C102.738285,416.59375 103.382809,416.417971 103.992188,416.066406 C104.601566,415.714842 105.042967,415.257815 105.316406,414.695312 L105.316406,412.09375 L103.617188,412.09375 C100.960924,412.09375 99.6328125,412.871086 99.6328125,414.425781 C99.6328125,415.105472 99.8593727,415.636717 100.3125,416.019531 C100.765627,416.402346 101.347653,416.59375 102.058594,416.59375 Z M112.933594,405.566406 L113.003906,407.160156 C113.972661,405.9414 115.238273,405.332031 116.800781,405.332031 C119.480482,405.332031 120.832031,406.843735 120.855469,409.867188 L120.855469,418.246094 L118.6875,418.246094 L118.6875,409.855469 C118.679687,408.941402 118.470705,408.265627 118.060547,407.828125 C117.650389,407.390623 117.011723,407.171875 116.144531,407.171875 C115.441403,407.171875 114.824221,407.359373 114.292969,407.734375 C113.761716,408.109377 113.347658,408.601559 113.050781,409.210938 L113.050781,418.246094 L110.882812,418.246094 L110.882812,405.566406 L112.933594,405.566406 Z M123.597656,411.800781 C123.597656,409.855459 124.058589,408.291022 124.980469,407.107422 C125.902348,405.923822 127.109368,405.332031 128.601562,405.332031 C130.085945,405.332031 131.261714,405.839839 132.128906,406.855469 L132.128906,400.246094 L134.296875,400.246094 L134.296875,418.246094 L132.304688,418.246094 L132.199219,416.886719 C131.332027,417.949224 130.125008,418.480469 128.578125,418.480469 C127.109368,418.480469 125.912114,417.878912 124.986328,416.675781 C124.060542,415.47265 123.597656,413.902353 123.597656,411.964844 L123.597656,411.800781 Z M125.765625,412.046875 C125.765625,413.484382 126.062497,414.609371 126.65625,415.421875 C127.250003,416.234379 128.070307,416.640625 129.117188,416.640625 C130.492194,416.640625 131.496091,416.023444 132.128906,414.789062 L132.128906,408.964844 C131.480466,407.769525 130.484382,407.171875 129.140625,407.171875 C128.07812,407.171875 127.250003,407.582027 126.65625,408.402344 C126.062497,409.22266 125.765625,410.437492 125.765625,412.046875 Z M142.570312,411.8125 C142.570312,409.804677 143.003902,408.222662 143.871094,407.066406 C144.738286,405.91015 145.949211,405.332031 147.503906,405.332031 C148.636724,405.332031 149.58984,405.777339 150.363281,406.667969 L150.363281,400.246094 L154.324219,400.246094 L154.324219,418.246094 L150.773438,418.246094 L150.574219,416.886719 C149.761715,417.949224 148.730475,418.480469 147.480469,418.480469 C145.972649,418.480469 144.777348,417.90235 143.894531,416.746094 C143.011714,415.589838 142.570312,413.945323 142.570312,411.8125 Z M146.519531,412.058594 C146.519531,414.308605 147.175775,415.433594 148.488281,415.433594 C149.363286,415.433594 149.988279,415.06641 150.363281,414.332031 L150.363281,409.503906 C150.003904,408.753903 149.386723,408.378906 148.511719,408.378906 C147.292963,408.378906 146.632813,409.363271 146.53125,411.332031 L146.519531,412.058594 Z M156.070312,411.789062 C156.070312,410.523431 156.316404,409.396489 156.808594,408.408203 C157.300784,407.419917 158.007808,406.660159 158.929688,406.128906 C159.851567,405.597654 160.933588,405.332031 162.175781,405.332031 C164.074228,405.332031 165.570307,405.919916 166.664062,407.095703 C167.757818,408.27149 168.304688,409.871084 168.304688,411.894531 L168.304688,412.035156 C168.304688,414.011729 167.755865,415.580072 166.658203,416.740234 C165.560541,417.900396 164.074228,418.480469 162.199219,418.480469 C160.394522,418.480469 158.945318,417.939459 157.851562,416.857422 C156.757807,415.775385 156.167969,414.308603 156.082031,412.457031 L156.070312,411.789062 Z M160.019531,412.035156 C160.019531,413.207037 160.203123,414.066404 160.570312,414.613281 C160.937502,415.160159 161.480465,415.433594 162.199219,415.433594 C163.605476,415.433594 164.324219,414.351573 164.355469,412.1875 L164.355469,411.789062 C164.355469,409.515614 163.628914,408.378906 162.175781,408.378906 C160.855462,408.378906 160.140626,409.359365 160.03125,411.320312 L160.019531,412.035156 Z M179.648438,405.566406 L179.777344,407.054688 C180.652348,405.906244 181.859367,405.332031 183.398438,405.332031 C184.718757,405.332031 185.705075,405.726559 186.357422,406.515625 C187.009769,407.304691 187.347656,408.49218 187.371094,410.078125 L187.371094,418.246094 L183.410156,418.246094 L183.410156,410.242188 C183.410156,409.601559 183.281251,409.130861 183.023438,408.830078 C182.765624,408.529295 182.296878,408.378906 181.617188,408.378906 C180.843746,408.378906 180.269533,408.683591 179.894531,409.292969 L179.894531,418.246094 L175.945312,418.246094 L175.945312,405.566406 L179.648438,405.566406 Z M189.058594,411.789062 C189.058594,410.523431 189.304685,409.396489 189.796875,408.408203 C190.289065,407.419917 190.996089,406.660159 191.917969,406.128906 C192.839848,405.597654 193.921869,405.332031 195.164062,405.332031 C197.062509,405.332031 198.558588,405.919916 199.652344,407.095703 C200.746099,408.27149 201.292969,409.871084 201.292969,411.894531 L201.292969,412.035156 C201.292969,414.011729 200.744146,415.580072 199.646484,416.740234 C198.548823,417.900396 197.062509,418.480469 195.1875,418.480469 C193.382803,418.480469 191.933599,417.939459 190.839844,416.857422 C189.746088,415.775385 189.15625,414.308603 189.070312,412.457031 L189.058594,411.789062 Z M193.007812,412.035156 C193.007812,413.207037 193.191404,414.066404 193.558594,414.613281 C193.925783,415.160159 194.468746,415.433594 195.1875,415.433594 C196.593757,415.433594 197.3125,414.351573 197.34375,412.1875 L197.34375,411.789062 C197.34375,409.515614 196.617195,408.378906 195.164062,408.378906 C193.843743,408.378906 193.128907,409.359365 193.019531,411.320312 L193.007812,412.035156 Z M207.632812,402.414062 L207.632812,405.566406 L209.71875,405.566406 L209.71875,408.308594 L207.632812,408.308594 L207.632812,414.109375 C207.632812,414.58594 207.718749,414.917968 207.890625,415.105469 C208.062501,415.29297 208.402341,415.386719 208.910156,415.386719 C209.300783,415.386719 209.628905,415.363281 209.894531,415.316406 L209.894531,418.140625 C209.18359,418.367189 208.44141,418.480469 207.667969,418.480469 C206.308587,418.480469 205.304691,418.160159 204.65625,417.519531 C204.007809,416.878903 203.683594,415.906257 203.683594,414.601562 L203.683594,408.308594 L202.066406,408.308594 L202.066406,405.566406 L203.683594,405.566406 L203.683594,402.414062 L207.632812,402.414062 Z M223.886719,414.683594 C223.886719,414.347655 223.710939,414.078126 223.359375,413.875 C223.007811,413.671874 222.339849,413.460939 221.355469,413.242188 C220.371089,413.023436 219.558597,412.73633 218.917969,412.380859 C218.277341,412.025389 217.789064,411.593753 217.453125,411.085938 C217.117186,410.578122 216.949219,409.996097 216.949219,409.339844 C216.949219,408.175775 217.429683,407.216801 218.390625,406.462891 C219.351567,405.708981 220.609367,405.332031 222.164062,405.332031 C223.835946,405.332031 225.179682,405.710934 226.195312,406.46875 C227.210943,407.226566 227.71875,408.22265 227.71875,409.457031 L223.757812,409.457031 C223.757812,408.441401 223.222662,407.933594 222.152344,407.933594 C221.738279,407.933594 221.390626,408.048827 221.109375,408.279297 C220.828124,408.509767 220.6875,408.796873 220.6875,409.140625 C220.6875,409.492189 220.859373,409.777343 221.203125,409.996094 C221.546877,410.214845 222.095699,410.394531 222.849609,410.535156 C223.603519,410.675782 224.265622,410.843749 224.835938,411.039062 C226.742197,411.695316 227.695312,412.871085 227.695312,414.566406 C227.695312,415.722662 227.181646,416.664059 226.154297,417.390625 C225.126948,418.117191 223.796883,418.480469 222.164062,418.480469 C221.07812,418.480469 220.109379,418.285158 219.257812,417.894531 C218.406246,417.503904 217.74219,416.97266 217.265625,416.300781 C216.78906,415.628903 216.550781,414.921879 216.550781,414.179688 L220.242188,414.179688 C220.257813,414.765628 220.453123,415.193358 220.828125,415.462891 C221.203127,415.732423 221.683591,415.867188 222.269531,415.867188 C222.808596,415.867188 223.212889,415.757814 223.482422,415.539062 C223.751954,415.320311 223.886719,415.035158 223.886719,414.683594 Z M236.683594,418.246094 C236.542968,417.98828 236.417969,417.609377 236.308594,417.109375 C235.582028,418.023442 234.566413,418.480469 233.261719,418.480469 C232.0664,418.480469 231.050785,418.119144 230.214844,417.396484 C229.378902,416.673825 228.960938,415.76563 228.960938,414.671875 C228.960938,413.296868 229.468745,412.257816 230.484375,411.554688 C231.500005,410.851559 232.976553,410.5 234.914062,410.5 L236.132812,410.5 L236.132812,409.832031 C236.132812,408.667963 235.628911,408.085938 234.621094,408.085938 C233.683589,408.085938 233.214844,408.54687 233.214844,409.46875 L229.265625,409.46875 C229.265625,408.242181 229.787104,407.246098 230.830078,406.480469 C231.873052,405.71484 233.203117,405.332031 234.820312,405.332031 C236.437508,405.332031 237.714839,405.726559 238.652344,406.515625 C239.589848,407.304691 240.070312,408.386712 240.09375,409.761719 L240.09375,415.375 C240.109375,416.539068 240.289061,417.429684 240.632812,418.046875 L240.632812,418.246094 L236.683594,418.246094 Z M234.210938,415.667969 C234.703127,415.667969 235.111327,415.562501 235.435547,415.351562 C235.759767,415.140624 235.992187,414.902345 236.132812,414.636719 L236.132812,412.609375 L234.984375,412.609375 C233.609368,412.609375 232.921875,413.226556 232.921875,414.460938 C232.921875,414.820314 233.042968,415.111327 233.285156,415.333984 C233.527345,415.556642 233.835936,415.667969 234.210938,415.667969 Z M247.160156,413.546875 L249.164062,405.566406 L253.324219,405.566406 L249.1875,418.246094 L245.15625,418.246094 L241.019531,405.566406 L245.191406,405.566406 L247.160156,413.546875 Z M260.484375,418.480469 C258.539053,418.480469 256.96485,417.900396 255.761719,416.740234 C254.558588,415.580072 253.957031,414.070322 253.957031,412.210938 L253.957031,411.882812 C253.957031,410.585931 254.197263,409.441411 254.677734,408.449219 C255.158206,407.457026 255.85937,406.689456 256.78125,406.146484 C257.70313,405.603513 258.796869,405.332031 260.0625,405.332031 C261.843759,405.332031 263.249995,405.88476 264.28125,406.990234 C265.312505,408.095709 265.828125,409.636709 265.828125,411.613281 L265.828125,413.148438 L257.976562,413.148438 C258.117188,413.859379 258.425779,414.417967 258.902344,414.824219 C259.378909,415.230471 259.99609,415.433594 260.753906,415.433594 C262.003913,415.433594 262.980465,414.996098 263.683594,414.121094 L265.488281,416.253906 C264.996091,416.933597 264.298833,417.474607 263.396484,417.876953 C262.494136,418.279299 261.523443,418.480469 260.484375,418.480469 Z M260.039062,408.378906 C258.882807,408.378906 258.195314,409.144524 257.976562,410.675781 L261.960938,410.675781 L261.960938,410.371094 C261.976563,409.738278 261.816408,409.248049 261.480469,408.900391 C261.14453,408.552733 260.664066,408.378906 260.039062,408.378906 Z M281.753906,418.246094 C281.628906,417.996093 281.527344,417.550784 281.449219,416.910156 C280.441401,417.957036 279.238288,418.480469 277.839844,418.480469 C276.589837,418.480469 275.564457,418.126957 274.763672,417.419922 C273.962887,416.712887 273.5625,415.816412 273.5625,414.730469 C273.5625,413.41015 274.064448,412.384769 275.068359,411.654297 C276.072271,410.923824 277.484366,410.558594 279.304688,410.558594 L281.414062,410.558594 L281.414062,409.5625 C281.414062,408.804684 281.187502,408.201174 280.734375,407.751953 C280.281248,407.302732 279.613286,407.078125 278.730469,407.078125 C277.957027,407.078125 277.308596,407.273436 276.785156,407.664062 C276.261716,408.054689 276,408.527341 276,409.082031 L273.820312,409.082031 C273.820312,408.449216 274.04492,407.837894 274.494141,407.248047 C274.943362,406.6582 275.552731,406.191408 276.322266,405.847656 C277.091801,405.503905 277.937495,405.332031 278.859375,405.332031 C280.32032,405.332031 281.46484,405.697262 282.292969,406.427734 C283.121098,407.158207 283.550781,408.164056 283.582031,409.445312 L283.582031,415.28125 C283.582031,416.445318 283.730467,417.37109 284.027344,418.058594 L284.027344,418.246094 L281.753906,418.246094 Z M278.15625,416.59375 C278.835941,416.59375 279.480466,416.417971 280.089844,416.066406 C280.699222,415.714842 281.140624,415.257815 281.414062,414.695312 L281.414062,412.09375 L279.714844,412.09375 C277.05858,412.09375 275.730469,412.871086 275.730469,414.425781 C275.730469,415.105472 275.957029,415.636717 276.410156,416.019531 C276.863284,416.402346 277.445309,416.59375 278.15625,416.59375 Z M289.03125,405.566406 L289.101562,407.160156 C290.070317,405.9414 291.33593,405.332031 292.898438,405.332031 C295.578138,405.332031 296.929687,406.843735 296.953125,409.867188 L296.953125,418.246094 L294.785156,418.246094 L294.785156,409.855469 C294.777344,408.941402 294.568361,408.265627 294.158203,407.828125 C293.748045,407.390623 293.109379,407.171875 292.242188,407.171875 C291.539059,407.171875 290.921878,407.359373 290.390625,407.734375 C289.859372,408.109377 289.445314,408.601559 289.148438,409.210938 L289.148438,418.246094 L286.980469,418.246094 L286.980469,405.566406 L289.03125,405.566406 Z M304.371094,415.070312 L307.324219,405.566406 L309.644531,405.566406 L304.546875,420.203125 C303.757809,422.312511 302.503915,423.367188 300.785156,423.367188 L300.375,423.332031 L299.566406,423.179688 L299.566406,421.421875 L300.152344,421.46875 C300.886722,421.46875 301.458982,421.320314 301.869141,421.023438 C302.279299,420.726561 302.617186,420.183598 302.882812,419.394531 L303.363281,418.105469 L298.839844,405.566406 L301.207031,405.566406 L304.371094,415.070312 Z M101.097656,440.046875 C101.097656,441.976572 100.656254,443.531244 99.7734375,444.710938 C98.8906206,445.890631 97.69532,446.480469 96.1875,446.480469 C94.6484298,446.480469 93.4375044,445.992192 92.5546875,445.015625 L92.5546875,451.121094 L90.3867188,451.121094 L90.3867188,433.566406 L92.3671875,433.566406 L92.4726562,434.972656 C93.3554732,433.878901 94.5820234,433.332031 96.1523438,433.332031 C97.6757889,433.332031 98.8808549,433.906244 99.7675781,435.054688 C100.654301,436.203131 101.097656,437.800771 101.097656,439.847656 L101.097656,440.046875 Z M98.9296875,439.800781 C98.9296875,438.371087 98.625003,437.242192 98.015625,436.414062 C97.406247,435.585933 96.5703178,435.171875 95.5078125,435.171875 C94.1953059,435.171875 93.2109408,435.7539 92.5546875,436.917969 L92.5546875,442.976562 C93.2031282,444.132818 94.1953058,444.710938 95.53125,444.710938 C96.5703177,444.710938 97.3964813,444.298832 98.0097656,443.474609 C98.6230499,442.650387 98.9296875,441.425789 98.9296875,439.800781 Z M109.113281,446.480469 C107.394523,446.480469 105.996099,445.916021 104.917969,444.787109 C103.839838,443.658197 103.300781,442.148447 103.300781,440.257812 L103.300781,439.859375 C103.300781,438.601556 103.541013,437.478521 104.021484,436.490234 C104.501956,435.501948 105.173824,434.728518 106.037109,434.169922 C106.900395,433.611325 107.835932,433.332031 108.84375,433.332031 C110.492196,433.332031 111.773433,433.874995 112.6875,434.960938 C113.601567,436.04688 114.058594,437.601552 114.058594,439.625 L114.058594,440.527344 L105.46875,440.527344 C105.5,441.77735 105.865231,442.787106 106.564453,443.556641 C107.263675,444.326176 108.152338,444.710938 109.230469,444.710938 C109.996098,444.710938 110.644529,444.554689 111.175781,444.242188 C111.707034,443.929686 112.171873,443.515628 112.570312,443 L113.894531,444.03125 C112.832026,445.664071 111.238292,446.480469 109.113281,446.480469 Z M108.84375,435.113281 C107.968746,435.113281 107.234378,435.431637 106.640625,436.068359 C106.046872,436.705081 105.679688,437.597651 105.539062,438.746094 L111.890625,438.746094 L111.890625,438.582031 C111.828125,437.480463 111.531253,436.626956 111,436.021484 C110.468747,435.416013 109.750005,435.113281 108.84375,435.113281 Z M122.695312,435.511719 C122.367186,435.457031 122.011721,435.429688 121.628906,435.429688 C120.207024,435.429688 119.24219,436.03515 118.734375,437.246094 L118.734375,446.246094 L116.566406,446.246094 L116.566406,433.566406 L118.675781,433.566406 L118.710938,435.03125 C119.421879,433.898432 120.429681,433.332031 121.734375,433.332031 C122.156252,433.332031 122.476561,433.386718 122.695312,433.496094 L122.695312,435.511719 Z M132.070312,442.882812 C132.070312,442.296872 131.849612,441.841798 131.408203,441.517578 C130.966795,441.193358 130.197271,440.914064 129.099609,440.679688 C128.001948,440.445311 127.130863,440.164064 126.486328,439.835938 C125.841794,439.507811 125.365236,439.11719 125.056641,438.664062 C124.748045,438.210935 124.59375,437.671878 124.59375,437.046875 C124.59375,436.007807 125.033199,435.12891 125.912109,434.410156 C126.79102,433.691403 127.914056,433.332031 129.28125,433.332031 C130.718757,433.332031 131.884761,433.703121 132.779297,434.445312 C133.673833,435.187504 134.121094,436.136713 134.121094,437.292969 L131.941406,437.292969 C131.941406,436.699216 131.689456,436.187502 131.185547,435.757812 C130.681638,435.328123 130.046879,435.113281 129.28125,435.113281 C128.492184,435.113281 127.875002,435.285155 127.429688,435.628906 C126.984373,435.972658 126.761719,436.421872 126.761719,436.976562 C126.761719,437.500003 126.968748,437.89453 127.382812,438.160156 C127.796877,438.425783 128.544916,438.679686 129.626953,438.921875 C130.70899,439.164064 131.585934,439.453123 132.257812,439.789062 C132.929691,440.125002 133.427733,440.529295 133.751953,441.001953 C134.076173,441.474612 134.238281,442.050778 134.238281,442.730469 C134.238281,443.863287 133.785161,444.771481 132.878906,445.455078 C131.972652,446.138675 130.796882,446.480469 129.351562,446.480469 C128.335932,446.480469 127.437504,446.300783 126.65625,445.941406 C125.874996,445.582029 125.263674,445.080081 124.822266,444.435547 C124.380857,443.791012 124.160156,443.093754 124.160156,442.34375 L126.328125,442.34375 C126.367188,443.070316 126.6582,443.646482 127.201172,444.072266 C127.744143,444.498049 128.460933,444.710938 129.351562,444.710938 C130.171879,444.710938 130.830076,444.544924 131.326172,444.212891 C131.822268,443.880858 132.070312,443.437503 132.070312,442.882812 Z M136.488281,439.789062 C136.488281,438.546869 136.732419,437.429692 137.220703,436.4375 C137.708987,435.445308 138.388668,434.67969 139.259766,434.140625 C140.130864,433.60156 141.124994,433.332031 142.242188,433.332031 C143.968759,433.332031 145.365229,433.929682 146.431641,435.125 C147.498052,436.320318 148.03125,437.910146 148.03125,439.894531 L148.03125,440.046875 C148.03125,441.281256 147.794924,442.388667 147.322266,443.369141 C146.849607,444.349614 146.173833,445.113279 145.294922,445.660156 C144.416011,446.207034 143.406256,446.480469 142.265625,446.480469 C140.546866,446.480469 139.154302,445.882818 138.087891,444.6875 C137.021479,443.492182 136.488281,441.910166 136.488281,439.941406 L136.488281,439.789062 Z M138.667969,440.046875 C138.667969,441.453132 138.994137,442.582027 139.646484,443.433594 C140.298831,444.285161 141.17187,444.710938 142.265625,444.710938 C143.367193,444.710938 144.242184,444.279301 144.890625,443.416016 C145.539066,442.55273 145.863281,441.343758 145.863281,439.789062 C145.863281,438.398431 145.533206,437.271489 144.873047,436.408203 C144.212887,435.544918 143.335943,435.113281 142.242188,435.113281 C141.17187,435.113281 140.308597,435.539058 139.652344,436.390625 C138.99609,437.242192 138.667969,438.46093 138.667969,440.046875 Z M152.800781,433.566406 L152.871094,435.160156 C153.839849,433.9414 155.105461,433.332031 156.667969,433.332031 C159.34767,433.332031 160.699219,434.843735 160.722656,437.867188 L160.722656,446.246094 L158.554688,446.246094 L158.554688,437.855469 C158.546875,436.941402 158.337893,436.265627 157.927734,435.828125 C157.517576,435.390623 156.878911,435.171875 156.011719,435.171875 C155.30859,435.171875 154.691409,435.359373 154.160156,435.734375 C153.628904,436.109377 153.214845,436.601559 152.917969,437.210938 L152.917969,446.246094 L150.75,446.246094 L150.75,433.566406 L152.800781,433.566406 Z M171.820312,446.246094 C171.695312,445.996093 171.59375,445.550784 171.515625,444.910156 C170.507807,445.957036 169.304694,446.480469 167.90625,446.480469 C166.656244,446.480469 165.630863,446.126957 164.830078,445.419922 C164.029293,444.712887 163.628906,443.816412 163.628906,442.730469 C163.628906,441.41015 164.130854,440.384769 165.134766,439.654297 C166.138677,438.923824 167.550772,438.558594 169.371094,438.558594 L171.480469,438.558594 L171.480469,437.5625 C171.480469,436.804684 171.253909,436.201174 170.800781,435.751953 C170.347654,435.302732 169.679692,435.078125 168.796875,435.078125 C168.023434,435.078125 167.375003,435.273436 166.851562,435.664062 C166.328122,436.054689 166.066406,436.527341 166.066406,437.082031 L163.886719,437.082031 C163.886719,436.449216 164.111326,435.837894 164.560547,435.248047 C165.009768,434.6582 165.619137,434.191408 166.388672,433.847656 C167.158207,433.503905 168.003902,433.332031 168.925781,433.332031 C170.386726,433.332031 171.531246,433.697262 172.359375,434.427734 C173.187504,435.158207 173.617187,436.164056 173.648438,437.445312 L173.648438,443.28125 C173.648438,444.445318 173.796874,445.37109 174.09375,446.058594 L174.09375,446.246094 L171.820312,446.246094 Z M168.222656,444.59375 C168.902347,444.59375 169.546872,444.417971 170.15625,444.066406 C170.765628,443.714842 171.20703,443.257815 171.480469,442.695312 L171.480469,440.09375 L169.78125,440.09375 C167.124987,440.09375 165.796875,440.871086 165.796875,442.425781 C165.796875,443.105472 166.023435,443.636717 166.476562,444.019531 C166.92969,444.402346 167.511715,444.59375 168.222656,444.59375 Z M179.402344,446.246094 L177.234375,446.246094 L177.234375,428.246094 L179.402344,428.246094 L179.402344,446.246094 Z M191.167969,446.246094 L189,446.246094 L189,433.566406 L191.167969,433.566406 L191.167969,446.246094 Z M188.824219,430.203125 C188.824219,429.851561 188.93164,429.554689 189.146484,429.3125 C189.361329,429.070311 189.679685,428.949219 190.101562,428.949219 C190.52344,428.949219 190.843749,429.070311 191.0625,429.3125 C191.281251,429.554689 191.390625,429.851561 191.390625,430.203125 C191.390625,430.554689 191.281251,430.847655 191.0625,431.082031 C190.843749,431.316407 190.52344,431.433594 190.101562,431.433594 C189.679685,431.433594 189.361329,431.316407 189.146484,431.082031 C188.93164,430.847655 188.824219,430.554689 188.824219,430.203125 Z M196.6875,433.566406 L196.757812,435.160156 C197.726567,433.9414 198.99218,433.332031 200.554688,433.332031 C203.234388,433.332031 204.585937,434.843735 204.609375,437.867188 L204.609375,446.246094 L202.441406,446.246094 L202.441406,437.855469 C202.433594,436.941402 202.224611,436.265627 201.814453,435.828125 C201.404295,435.390623 200.765629,435.171875 199.898438,435.171875 C199.195309,435.171875 198.578128,435.359373 198.046875,435.734375 C197.515622,436.109377 197.101564,436.601559 196.804688,437.210938 L196.804688,446.246094 L194.636719,446.246094 L194.636719,433.566406 L196.6875,433.566406 Z M208.945312,446.246094 L208.945312,435.242188 L206.941406,435.242188 L206.941406,433.566406 L208.945312,433.566406 L208.945312,432.265625 C208.945312,430.906243 209.30859,429.855472 210.035156,429.113281 C210.761722,428.37109 211.789056,428 213.117188,428 C213.61719,428 214.113279,428.066406 214.605469,428.199219 L214.488281,429.957031 C214.121092,429.886718 213.730471,429.851562 213.316406,429.851562 C212.613278,429.851562 212.070314,430.056639 211.6875,430.466797 C211.304686,430.876955 211.113281,431.46484 211.113281,432.230469 L211.113281,433.566406 L213.820312,433.566406 L213.820312,435.242188 L211.113281,435.242188 L211.113281,446.246094 L208.945312,446.246094 Z M215.636719,439.789062 C215.636719,438.546869 215.880857,437.429692 216.369141,436.4375 C216.857424,435.445308 217.537105,434.67969 218.408203,434.140625 C219.279301,433.60156 220.273432,433.332031 221.390625,433.332031 C223.117196,433.332031 224.513667,433.929682 225.580078,435.125 C226.64649,436.320318 227.179688,437.910146 227.179688,439.894531 L227.179688,440.046875 C227.179688,441.281256 226.943362,442.388667 226.470703,443.369141 C225.998045,444.349614 225.32227,445.113279 224.443359,445.660156 C223.564449,446.207034 222.554693,446.480469 221.414062,446.480469 C219.695304,446.480469 218.30274,445.882818 217.236328,444.6875 C216.169917,443.492182 215.636719,441.910166 215.636719,439.941406 L215.636719,439.789062 Z M217.816406,440.046875 C217.816406,441.453132 218.142575,442.582027 218.794922,443.433594 C219.447269,444.285161 220.320307,444.710938 221.414062,444.710938 C222.515631,444.710938 223.390622,444.279301 224.039062,443.416016 C224.687503,442.55273 225.011719,441.343758 225.011719,439.789062 C225.011719,438.398431 224.681644,437.271489 224.021484,436.408203 C223.361325,435.544918 222.48438,435.113281 221.390625,435.113281 C220.320307,435.113281 219.457035,435.539058 218.800781,436.390625 C218.144528,437.242192 217.816406,438.46093 217.816406,440.046875 Z M236.027344,435.511719 C235.699217,435.457031 235.343752,435.429688 234.960938,435.429688 C233.539055,435.429688 232.574221,436.03515 232.066406,437.246094 L232.066406,446.246094 L229.898438,446.246094 L229.898438,433.566406 L232.007812,433.566406 L232.042969,435.03125 C232.75391,433.898432 233.761712,433.332031 235.066406,433.332031 C235.488283,433.332031 235.808593,433.386718 236.027344,433.496094 L236.027344,435.511719 Z M240.058594,433.566406 L240.117188,434.972656 C241.04688,433.878901 242.300773,433.332031 243.878906,433.332031 C245.652353,433.332031 246.859372,434.011712 247.5,435.371094 C247.921877,434.761716 248.4707,434.269533 249.146484,433.894531 C249.822269,433.519529 250.621089,433.332031 251.542969,433.332031 C254.324233,433.332031 255.738281,434.804673 255.785156,437.75 L255.785156,446.246094 L253.617188,446.246094 L253.617188,437.878906 C253.617188,436.972652 253.410158,436.294924 252.996094,435.845703 C252.582029,435.396482 251.886724,435.171875 250.910156,435.171875 C250.105465,435.171875 249.437503,435.412107 248.90625,435.892578 C248.374997,436.373049 248.066407,437.019527 247.980469,437.832031 L247.980469,446.246094 L245.800781,446.246094 L245.800781,437.9375 C245.800781,436.093741 244.898447,435.171875 243.09375,435.171875 C241.671868,435.171875 240.699221,435.777338 240.175781,436.988281 L240.175781,446.246094 L238.007812,446.246094 L238.007812,433.566406 L240.058594,433.566406 Z M266.882812,446.246094 C266.757812,445.996093 266.65625,445.550784 266.578125,444.910156 C265.570307,445.957036 264.367194,446.480469 262.96875,446.480469 C261.718744,446.480469 260.693363,446.126957 259.892578,445.419922 C259.091793,444.712887 258.691406,443.816412 258.691406,442.730469 C258.691406,441.41015 259.193354,440.384769 260.197266,439.654297 C261.201177,438.923824 262.613272,438.558594 264.433594,438.558594 L266.542969,438.558594 L266.542969,437.5625 C266.542969,436.804684 266.316409,436.201174 265.863281,435.751953 C265.410154,435.302732 264.742192,435.078125 263.859375,435.078125 C263.085934,435.078125 262.437503,435.273436 261.914062,435.664062 C261.390622,436.054689 261.128906,436.527341 261.128906,437.082031 L258.949219,437.082031 C258.949219,436.449216 259.173826,435.837894 259.623047,435.248047 C260.072268,434.6582 260.681637,434.191408 261.451172,433.847656 C262.220707,433.503905 263.066402,433.332031 263.988281,433.332031 C265.449226,433.332031 266.593746,433.697262 267.421875,434.427734 C268.250004,435.158207 268.679687,436.164056 268.710938,437.445312 L268.710938,443.28125 C268.710938,444.445318 268.859374,445.37109 269.15625,446.058594 L269.15625,446.246094 L266.882812,446.246094 Z M263.285156,444.59375 C263.964847,444.59375 264.609372,444.417971 265.21875,444.066406 C265.828128,443.714842 266.26953,443.257815 266.542969,442.695312 L266.542969,440.09375 L264.84375,440.09375 C262.187487,440.09375 260.859375,440.871086 260.859375,442.425781 C260.859375,443.105472 261.085935,443.636717 261.539062,444.019531 C261.99219,444.402346 262.574215,444.59375 263.285156,444.59375 Z M275.050781,430.496094 L275.050781,433.566406 L277.417969,433.566406 L277.417969,435.242188 L275.050781,435.242188 L275.050781,443.105469 C275.050781,443.613284 275.156249,443.994139 275.367188,444.248047 C275.578126,444.501954 275.937497,444.628906 276.445312,444.628906 C276.695314,444.628906 277.03906,444.582032 277.476562,444.488281 L277.476562,446.246094 C276.906247,446.402345 276.351565,446.480469 275.8125,446.480469 C274.843745,446.480469 274.113284,446.187503 273.621094,445.601562 C273.128904,445.015622 272.882812,444.183599 272.882812,443.105469 L272.882812,435.242188 L270.574219,435.242188 L270.574219,433.566406 L272.882812,433.566406 L272.882812,430.496094 L275.050781,430.496094 Z M282.304688,446.246094 L280.136719,446.246094 L280.136719,433.566406 L282.304688,433.566406 L282.304688,446.246094 Z M279.960938,430.203125 C279.960938,429.851561 280.068358,429.554689 280.283203,429.3125 C280.498048,429.070311 280.816404,428.949219 281.238281,428.949219 C281.660158,428.949219 281.980468,429.070311 282.199219,429.3125 C282.41797,429.554689 282.527344,429.851561 282.527344,430.203125 C282.527344,430.554689 282.41797,430.847655 282.199219,431.082031 C281.980468,431.316407 281.660158,431.433594 281.238281,431.433594 C280.816404,431.433594 280.498048,431.316407 280.283203,431.082031 C280.068358,430.847655 279.960938,430.554689 279.960938,430.203125 Z M285.199219,439.789062 C285.199219,438.546869 285.443357,437.429692 285.931641,436.4375 C286.419924,435.445308 287.099605,434.67969 287.970703,434.140625 C288.841801,433.60156 289.835932,433.332031 290.953125,433.332031 C292.679696,433.332031 294.076167,433.929682 295.142578,435.125 C296.20899,436.320318 296.742188,437.910146 296.742188,439.894531 L296.742188,440.046875 C296.742188,441.281256 296.505862,442.388667 296.033203,443.369141 C295.560545,444.349614 294.88477,445.113279 294.005859,445.660156 C293.126949,446.207034 292.117193,446.480469 290.976562,446.480469 C289.257804,446.480469 287.86524,445.882818 286.798828,444.6875 C285.732417,443.492182 285.199219,441.910166 285.199219,439.941406 L285.199219,439.789062 Z M287.378906,440.046875 C287.378906,441.453132 287.705075,442.582027 288.357422,443.433594 C289.009769,444.285161 289.882807,444.710938 290.976562,444.710938 C292.078131,444.710938 292.953122,444.279301 293.601562,443.416016 C294.250003,442.55273 294.574219,441.343758 294.574219,439.789062 C294.574219,438.398431 294.244144,437.271489 293.583984,436.408203 C292.923825,435.544918 292.04688,435.113281 290.953125,435.113281 C289.882807,435.113281 289.019535,435.539058 288.363281,436.390625 C287.707028,437.242192 287.378906,438.46093 287.378906,440.046875 Z M301.511719,433.566406 L301.582031,435.160156 C302.550786,433.9414 303.816398,433.332031 305.378906,433.332031 C308.058607,433.332031 309.410156,434.843735 309.433594,437.867188 L309.433594,446.246094 L307.265625,446.246094 L307.265625,437.855469 C307.257812,436.941402 307.04883,436.265627 306.638672,435.828125 C306.228514,435.390623 305.589848,435.171875 304.722656,435.171875 C304.019528,435.171875 303.402346,435.359373 302.871094,435.734375 C302.339841,436.109377 301.925783,436.601559 301.628906,437.210938 L301.628906,446.246094 L299.460938,446.246094 L299.460938,433.566406 L301.511719,433.566406 Z M312.75,445.109375 C312.75,444.734373 312.861327,444.421876 313.083984,444.171875 C313.306642,443.921874 313.640623,443.796875 314.085938,443.796875 C314.531252,443.796875 314.869139,443.921874 315.099609,444.171875 C315.330079,444.421876 315.445312,444.734373 315.445312,445.109375 C315.445312,445.468752 315.330079,445.76953 315.099609,446.011719 C314.869139,446.253907 314.531252,446.375 314.085938,446.375 C313.640623,446.375 313.306642,446.253907 313.083984,446.011719 C312.861327,445.76953 312.75,445.468752 312.75,445.109375 Z" id="The-form-is-just-a-p" fill="#417505"></path>
        </g>
    </g>
</svg>