<svg id="Layer_1" xmlns="http://www.w3.org/2000/svg" viewBox="0 0 635.6 732.6"><style>.st0{fill:none;stroke:#000;stroke-miterlimit:10}</style><title>torotoAsset 3</title><g id="Layer_2"><g id="Layer_1-2"><path d="M633.7 672.9c-8.9 3.2-17.8 6.1-26.9 8.8-8.4-19.1-17.1-38.2-26.8-56.6-14.7-27.9-32.6-54.6-56.8-75.2-10.8-9.3-22.9-17-35.8-22.9 3.7-.5 7.2-1.7 10.6-3.4.7-.4.9-1.4.5-2.1-.2-.3-.5-.5-.8-.6-1.2-.3-2.4-.7-3.5-1.3-2.7-2.3-3.1-3.6-1.2-4l1.6 1.1c.7.4 1.7.2 2.1-.6.1-.2.2-.5.2-.7-.2-2.1-1.7-3.1-3.4-3.1l-3.9-2.8 5 .1c.8 0 1.5-.7 1.5-1.5 0-.5-.3-1-.7-1.3-1.5-.7-2.7-1.8-3.5-3.1 4.2 1.9 9.7.3 12.8-3.4 3.1-3.8 3.6-9 3.8-13.6.2-7.3 0-14.5 0-21.8l-.3-89.8-.1-20.7c0-5 .6-11-1.9-15.6-4.4-8.2-15.3-6-20.7-.2-3.9 4.1-6.1 9.6-8.5 14.7l-2.2 4.7c.1-8.3-2.8-16.5-8.2-22.9-6.1-7.6-13.2-13.9-18-22.6-9.5-17.1-12.2-37.1-15-56.2l-20.7-141.9c-1.1-7.5-2.5-40.2-18.2-34.2-7.1 2.8-9.5 14.4-11.8 20.6-3.7 10.3-6.9 20.8-9.6 31.4-2.5 10.3-4.6 20.7-6.1 31.3-6.5-3.5-13.4-6.1-20.4-7.9 4.7-2.6 8.7-5.9 11.1-10.8 3-6.1 4.1-13.4 5.5-20.1 3-14.1 3.6-27.5.5-41.6-1.8-8.1-4.2-16.1-5.4-24.3-1.1-7.8-.7-15.5-.4-23.3.5-12.4.6-25.5-8.3-35.1-.6-.6-1.5-.6-2.1 0a73.223 73.223 0 0 0-17.9 44.5c-9.7-4.6-21-3.9-30.1 1.7-1.5-14.5-8.3-27.9-19.3-37.6-.2-.1-.3-.2-.5-.3-.5-1-2-1.5-2.6-.2-5.7 12.8-8 26.8-6.6 40.7.4 4.1.8 8-.6 12-1.2 3.4-3.2 6.5-4.9 9.7-3.2 6.2-5.4 12.9-6.7 19.8-2.3 13-3.3 26.2-2.7 39.4.4 12.3 4.6 22.7 16.1 28.4 2.6 1.3 5.3 2.4 8 3.4-7.2 3.4-13.9 7.6-20.1 12.8-2.6-17.5-5.9-35-11.3-51.8-3.9-12-11.9-37.2-28.8-34.8-.4.1-.6.2-.8.4-6.7 3.3-7.5 13.7-8.1 20.1-1.6 15.3-.8 30.9-.4 46.3 1 37.6 1.8 77.1-9.2 113.5-12.7 42.2-35.6 81.9-35.9 127 0 3.6.1 7.1.4 10.7-6.9-13.7-13.9-27.4-20.8-41.1-2-3.8-4.2-8.6-8.6-10.2-3.7-1.4-7.2.4-9.5 3.4-2.8 3.8-4 8.8-5.2 13.2-1.6 6.2-2.8 12.4-3.5 18.8-3.2 27.4.7 55.2-3.5 82.6-1.7 11.3-6.3 25.8 1.7 35.8 4.2 5.2 11.4 8.5 17.6 6.6 0 1.2.2 2.4.9 3.5.4.7 1 1.3 1.6 1.8l-4.8 6.3c-.8 1.1.5 2.5 1.7 2.2l3-.8-3.2 3.7c-.2.1-.3.3-.5.4-.5.6-.5 1.5.1 2.1.6.5 1.5.5 2 0 2-2.1 5-2.8 7.7-1.9-29.6 27.7-58 57-84 88.1-15.7 18.8-30.1 39.5-40.9 61.6-.7 1.4-1.3 2.8-2 4.2l-13.8-3.3c-1.9-.5-2.7 2.4-.8 2.9 4.4 1.1 8.9 2.2 13.3 3.2C9 701.3 4.7 714.8 6.3 728v.5c.2 1 .6 2 1 3 .3.8 1.1 1.2 1.9 1 26.5-4 53-7.4 79.6-10.6 19.6-2.3 39.4-3 59.1-2.2 22 .8 43.8 3.8 65.8 4.9 44.2 2.2 88.6.2 132.7-.6l134.7-2.5c24.2-.4 48.5-1.1 72.7.6 23.1 1.5 47.1 8.4 70.2 3.2.8-.2 1.3-1.1 1-1.9 0-.1-.1-.2-.1-.3-5.7-12.8-11.2-25.7-16.8-38.5 8.9-2.7 17.7-5.6 26.5-8.7 1.7-.8.9-3.7-.9-3zM264.9 149.7c-4.8-5.6-5.9-13.2-6-20.3-.3-12.5.2-25.6 2.6-37.8 1.3-7.1 3.7-14 7.1-20.5 2.8-5.3 5.5-10 5.6-16.2.1-7-1.2-13.7-.6-20.8.7-7.6 2.6-15.1 5.6-22.1 10.5 9.7 16.9 23.1 17.8 37.4.1 1 1.3 2 2.3 1.3 9.1-6.8 21.4-7.6 31.3-2 .7.4 1.7.2 2.1-.6.1-.2.2-.5.2-.7.3-15.9 5.9-31.3 16-43.5 7.2 8.9 6.8 20.8 6.3 31.8-.5 11.2-.3 21.8 2.2 32.8 2.9 12.9 6.7 25.4 5.8 38.8-.6 7.2-1.8 14.4-3.6 21.5-1.4 6.2-2.4 13.2-6.5 18.3-2.7 3.3-6.6 5.7-10.6 7.6-19.3-4-39.7-2.1-57.9 5.4-1.3-.4-2.6-.7-3.9-1.1-5.8-2-11.7-4.7-15.8-9.3zm-90 202.2c5.6-20.1 14.2-39.3 21.3-58.8 6.9-19.1 12.9-38.2 15-58.5 1.8-16.4 2.7-32.9 2.8-49.4 0-16-.7-31.9-.9-47.9-.2-12.3-.8-25.5 2.3-37.5.8-3 2-7.4 5.3-8.6.1 0 .1 0 .2-.1 7.9-1 13.5 7.2 16.8 13.2 4.6 8.1 7.6 17.1 10.1 26.1 4.3 15.7 7.5 31.6 9.7 47.7.2 1.2 1.8 1.3 2.5.7 7.3-6.5 15.5-11.6 24.4-15.4 1.5-.9 3.4-1.7 5.8-2.3 14.8-5.2 31-6.8 46.5-4.5 2.3 0 4.4.5 6.1 1.1 8.7 1.9 17.1 5 24.9 9.4.7.4 1.6.2 2.1-.6.1-.1.1-.2.1-.3 2.9-20.5 7.7-40.6 14.4-60.2 2-5.9 8.1-30.2 17.6-21.4 6.2 5.7 6.1 17 7.2 24.6l19 130.1c2.7 18.7 4.6 37.9 10.2 56.1 2.4 8.2 6 16.1 10.6 23.3 4.5 6.8 10.5 12.1 15.6 18.5 7.3 9.2 8.2 19.3 6.1 29.5l-3 6.4-13 27.4c0-7.3-.7-14.7-2-22-6.1-33.6-26.5-68-59.1-81.5-17.6-7.3-37.6-9.7-56.5-10-19.6-.3-39.1 2.2-57.9 7.4-33.4 9.2-69.6 27.1-87.8 58-17.1 29.1-13.1 63.2-4.8 95-.6-1-1.1-2.1-1.6-3.1-5.2-10.2-10.3-20.4-15.4-30.5 0-.3-.1-.6-.1-.9-2.5-20.6 0-41.3 5.5-61zM433.8 467c.4 1.2.9 2.4 1.4 3.6.2.3.3.6.5.9-.6.5-1.2.9-1.9 1.4-1.8 1.2-3.6 2.3-5.5 3.2-4.5 2.2-9.3 3.6-14.1 4.7-16.5 3.8-33.8 5.1-50.8 6.9-7.2-2-14.5-3.7-21.9-4.7-32.8-4.6-65.5 3.6-96.8 12.9l-5.1 1.5c-3.6-.7-7.2-1.7-10.7-2.9-12.2-4.4-22.7-11.6-31.4-20.7 0-.1 0-.3-.1-.4v.1c-10.8-33.6-22.1-71.8-9.6-106.5 12.2-33.8 46.4-54.2 78.6-65.5 34.7-12.2 73.6-15.3 109.5-6.9 18.4 4.3 34.4 13.1 46.8 27.5 11.2 13.1 19.4 28.5 24.1 45.1 3.8 13.1 5.2 26.5 4.7 39.9l-3.5 7.4c-6 12.7-14.3 26.1-15.5 40.4-.4 3.9 0 8.2 1.3 12.1zm0 37.2c-21.7-.7-42.2-8.2-62.9-14.4 10.2-1.2 20.5-2.4 30.7-3.8 12.2-1.6 25.7-4.2 35.6-11.9 1.8 2.6 4 4.8 6.8 6.4-3.5 3.1-8.3 6.8-9.1 11.2-.1.4-.1.8-.1 1.2-1.7.5-3.1 1.9-3.8 3.7-1.2 3 .5 5.6 2.8 7.6zm-241.6-1c-.4-.7-1.4-.9-2.1-.5-.3.2-.6.5-.7.9l-.1.6c-.8-1.6-1.4-3.3-2-5-.3-1.1-.7-2.1-1.3-3 6.2-3.9 9.6-10.9 10.1-18.4v-1.1c4.3 4.3 9 8.2 14.2 11.7 7.5 5 15.4 8.5 23.8 10.7-14.4 4.4-28.9 8.8-43.6 12.3l1.3-5.2c.8-.6 1-1.7.4-3zm429.3 219.6c-20.8 4.1-42.1-1.6-62.9-3.3-21.9-1.8-43.8-1.5-65.8-1.1-44.5.8-89.1 1.6-133.6 2.5-44.2.8-88.7 2.7-132.9 1.4-42.1-1.3-83.8-8.5-126-4.5-30.3 2.9-60.6 7.2-90.7 11.8-.2-.5-.3-1-.5-1.5-1.6-13 2.8-26.2 8.1-38.1 27.8 6.4 55.9 11.5 84.1 15.2 1.9.2 1.9-2.8 0-3-27.9-3.7-55.5-8.7-82.9-15 .1-.2.2-.5.4-.8 6.6-14 14.8-27.2 23.7-39.9 13.8-19.7 29.7-37.7 45.9-55.3 18.4-20 37.6-39.4 57.6-58 .6-.6.6-1.6 0-2.1-.1-.1-.2-.2-.3-.2-2-1.3-4.2-1.8-6.4-1.6l2.3-2.6c.6-.6.6-1.6 0-2.1-.4-.4-.9-.5-1.4-.4l-3.6 1 3.2-4.2c.4-.7.2-1.7-.6-2.1-.1-.1-.2-.1-.3-.1-2.3-.7-2.7-3.4-1.5-5.1.5-.3.9-.7 1.4-1.1 1.3-1.2-.4-3.2-1.8-2.4-.1.1-.2.1-.3.2-7.8 7.2-18.9-1.6-21-9.8-2.8-10.6 1.4-22 2.6-32.5 2.5-21 .8-42.2 1.7-63.3.3-10.6 1.7-21.1 4.2-31.4 1.1-4.3 2.4-11.7 6.3-14.5 6.8-4.9 11.2 7 13.5 11.5l22.6 44.7 4.6 9.1 3.5 6.8c5.7 11.2 12.7 22.5 16.5 34.5.2.8.5 1.5.7 2.3.5 1.8.8 3.8.9 5.7.7 8.7-1.8 17.8-10.5 21.5l-.6.3c-.1 0-.2.1-.3.1 0 0-.1 0-.1.1-1.4.8-.5 3.4 1.2 2.7.2-.1.4-.2.6-.2 1 .2 1.8 6 2.5 6.9.8 1 1.8 1.8 3 2.1l-1.6 6.4c-.2.8.3 1.6 1.1 1.8.2.1.5.1.8 0 17.2-4 34.1-9.4 51.1-14.5.5-.2 1-.3 1.6-.5h.1c1.6-.5 3.2-1 4.9-1.5 13.4-4 26.8-7.6 40.5-10.2 16.6-3.2 33.6-4.6 50.5-2.7 5.9.7 11.7 1.8 17.4 3.1.3.1.6.2 1 .2 2 .5 4 1 6 1.6l1.2.3c7.7 2.1 15.3 4.5 22.9 6.9 17.2 5.3 34.6 10 52.7 9.7.8 0 1.5-.7 1.5-1.5 0-.5-.3-1-.7-1.3-1.2-.6-2.4-1.3-3.4-2.2-1.3-.7-1.6-1.8-.9-3.5-.7-2-.5-2.9.5-2.9.5.5 1.2.7 2.2.6.8 0 1.5-.7 1.5-1.6 0-.5-.3-1-.7-1.2l-.9-.6c0-.8.9-2.8 1-2.9 1-1.1 2-2.2 3.1-3.2l5.7-5.7c.6-.6.6-1.5 0-2.1-.1-.1-.2-.2-.3-.2-3.6-1.7-6.2-3.9-8.1-6.5-.7-.8-1.2-1.7-1.5-2.7l-.1.1c-.3-.6-.6-1.2-.8-1.9-.4-.7-.7-1.8-.9-2.9-.1-.5-.1-.9-.2-1.4 0 0 0 .1-.1.1-2-13.2 6.5-30.1 11.5-40.7l3.7-7.8c0 .3 0 .5-.1.8l23.3-50.3c.3-.6.6-1.2 1-1.7l1.9-3.9c3.9-8.2 8.8-24.8 20.5-23.8 6.9.6 7.5 7.7 7.5 13.1.1 5.9 0 11.8 0 17.8l.2 69 .1 39.5c0 5.8.7 12.4-.9 18.1-1.5 5.2-9.7 12-13.8 5-.4-.7-1.4-.9-2.1-.5-.5.3-.7.8-.7 1.3-.1 2.6.7 5.1 2.3 7l-5.4-.1c-.8 0-1.5.7-1.5 1.5 0 .5.3 1 .7 1.3l6.2 4.4c-.2.2-.4.4-.5.6-2.9 3.5.5 6.4 3.9 8.2-3.9 1.5-8 2.2-12.2 2h-.5c-1.8-.1-1.9 2.4-.4 3 61 24.3 92.5 86.1 117.7 142.6 1.9 4.3 3.8 8.5 5.7 12.8-25.9 7.6-52.2 13.3-79 17.2-1.9.3-1.1 3.2.8 2.9 26.9-3.8 53.4-9.6 79.4-17.3 5.5 11.7 11 24.2 16.5 36.7z"/><path d="M332.1 637.6c-9.8-.8-19.9-1.7-29.7-.9-7.4.5-14.8 1.6-22 3.3-5.4 1.4-12.9 3.4-13.1 10.2 0 .2 0 .4.1.6 1.7 9.7 12.9 8.2 20.1 9.7 6.3 1.3 12.1 4.3 17 8.5 2.9 2.5 5.6 8.3 9.7 8.7 2.8.3 4.8-2 6.4-4 4.6-5.8 9.2-9.1 16.4-11 5.5-1.5 11.2-1.9 16.7-3.1 4.4-.9 11.5-2.2 14.3-6.1 9.2-12.6-30.2-15.4-35.9-15.9zm31.4 15.7c-1.9 1.6-6.3 2.4-8.7 3-5.2 1.2-10.4 1.6-15.6 2.8-7 1.5-14 4.2-18.7 9.8-.8 1-1.5 2.1-2.3 3.1-1.3 1.6-3.4 2.8-5.5 1.5-1.8-1.2-3.3-4-4.9-5.5-3.5-3.3-7.4-5.9-11.8-7.9-4-1.8-8.3-2.8-12.6-3.2-5.1-.5-11.9-.5-13.1-6.9.5-5.4 9.7-6.8 13.8-7.7 5.6-1.1 11.2-1.9 16.8-2.3 6.1-.4 12.2-.5 18.4-.1 13.8.6 28.8 1.1 41.9 5.9 3.6 1.2 7.2 3.3 2.3 7.5zm90.5-44.6c-1.2.8-2.4 1.6-3.6 2.5 1.2-1.1 2.4-2 3.6-2.5z"/><path d="M518.2 619.1c-9.3-18.8-32.1-23-51-18.8-5.3 1.2-10.3 3.1-14.8 5.7-1 .6-1.9 1.2-2.8 1.8l-.1.1c-3.4 2.5-6.5 5.6-9.1 9.3-6.4 9.4-8.9 20.9-7.1 32.2 0 .2.1.3.1.5 4.2 17.6 25 28.6 42.1 28.9 11.5.1 22.7-3.7 31.8-10.8 14.6-11.7 19-32 10.9-48.9zm-67.7-7.9c1.1-1.1 2.3-2 3.6-2.5.6-.3 1.2-.5 1.9-.5 7.1-.8 12.2 10.1 11.1 15.9-1.1 5.7-7 12-13.2 11.6-6.7-.4-8.8-8.3-8.5-14.3 1 1.3 2.6 1.9 4.6 1.5 1.6-.3 4.4-1.5 4.7-3.4.3-2.1-1.9-4.6-3.6-5.4-.8-.4-1.8-.5-2.7-.4.6-.9 1.3-1.7 2.1-2.5zm0 6.1c.4.4.8.9 1 1.4v.1c-.2.2-.5.3-.7.5-.5.3-1 .5-1.5.6-1.3.2-1.9-.4-2.2-1.5 0-1.9 2.2-2.2 3.4-1.1zm55.7 47.9c-8 6.8-19 10.5-29.4 10.7-16.3.4-36.8-10.2-40.6-27.1 0-.1 0-.1-.1-.2-1.5-10.3.9-20.5 6.3-28.6-.8 7.2 1.6 16.7 9.4 18.5 8.2 1.9 16.5-6 18-13.6 1.4-7.1-3.1-16.5-10.2-19.2 1.5-.6 3-1.1 4.5-1.5 17.5-4.8 39.7-3 50 14 9.3 15.2 5.5 35.6-7.9 47z"/><path d="M452.4 606.1c-1 .6-1.9 1.2-2.8 1.8.9-.7 1.9-1.3 2.8-1.8zm-270.8.4c-15.5-8.3-37-3.2-49.6 8.2-10 9-16.7 23.8-15.8 37.4v.1c.2 4.3.2 8 2.5 11.7 2.6 4 5.9 7.5 9.7 10.4 7.3 5.6 16.7 7.1 25.6 7.8 9.3.7 20.2 1.8 28.9-2.8 8.9-4.7 12.8-15.4 14.9-24.6 4.1-17.4 1-39-16.2-48.2zm-1 8.5c-.3 3-2.8 4.7-5.7 4.6-1.7-1-4-2.1-2.7-4.2.9-1.5 3.2-2.5 4.8-2.8 2.1-.5 3.9-.1 3.6 2.4zm-2.8-5.6c-3.1.3-6.7 1.9-8.2 4.6-2.3 3.9 1.2 6.5 4.2 8.3.3.2.6.2.9.2 4.4.5 8.3-2.6 8.9-6.9.1-.4.1-.9.1-1.3 3.5 5.1 3.7 12.3-1.2 17-4.8 4.6-15.1 5.9-19.6-.1-2.1-2.8-1.5-7.4-1.6-10.7v-.3c0-4.4 1.6-7.2 5.5-9.5 3.4-2.2 7.3-2.9 11-1.3zm18.7 32.7c-.2 8.9-2.4 17.6-6.4 25.5-5.3 10-15 12-25.5 11.9-9.7-.2-20.5-.4-29.5-4.7-4.1-2-7.2-5-10.3-8.2-4.3-4.5-5.3-8.5-5.6-14.4-1.8-26.4 22.5-48.5 48.4-46.5.9.1 1.8.2 2.6.3-2.7.7-5.2 2-7.4 3.8-3.8 3-4.6 6-4.6 10.5.1 7.6-.2 13.2 7.6 16.5 8.4 3.5 18.5.5 22.2-8.4 1.7-4.1 1.4-8.8-.5-12.8 6.2 6.7 9.2 16.5 9 26.5zm45-142.2c-.5.2-.9.3-1.3.5h-.2c.5-.2 1-.4 1.5-.5zm114.3-11.1c-.5-.1-.9-.1-1.4-.2h.4c.4 0 .7.1 1 .2zm7.3 1.9h-.3c-.3-.1-.6-.3-1-.4.5.2.9.3 1.3.4zm-90-282c-3.3-4.4-8.5-7-13.9-7.3-5.3-.1-8 2.3-10.6 6.8 0 .1-.1.1-.1.2-1.9 3.5-4.7 7.4-5.5 11.4-.9 5.3 0 10.7 2.6 15.3 4.7 8.1 16.7 12.4 24.6 6.3 9.2-7.1 9.9-23.9 2.9-32.7zm-9.6 32.5c-9.7 1.7-16.9-6.8-17.7-15.7-.5-6.1 2.4-10.2 5.3-15.5v-.1c.3-.6.7-1.1 1.1-1.6l.1-.1c6.6-8.2 18.2-1 21.3 7.9-.1-.1-.1-.2-.2-.2-2-2.3-6.3-2.8-8 .1-.1.2-.2.4-.2.6-1 2.7.5 5.2 2.9 6.4 1.8.9 4.7 1.7 6-.3.2-.3.3-.6.5-.9.5 8-2.8 17.9-11.1 19.4zm119.2-30.6c-7.7-7.2-18.6-7.2-24.9 1.6-.1.1-.1.2-.2.2-.1.1-.2.3-.2.4-3.8 7.5-2.4 17.7 3.8 23.6 7.6 7.1 19.5 4 25.5-3.6 6-7.5 2.4-16.2-4-22.2zm.4 21.8c-5.8 5.9-15.7 7.4-21.2.4-4.2-5.4-4.8-12.7-1.7-18.8 10.9-15.8 35.4 5.6 22.9 18.4z"/><path d="M367.2 223.1c-.3 1.7-1.4 3.2-2.9 3.9-1.9 1-4 .3-4.5-1.9 0-.1-.1-.3-.1-.4-.3-2.3 1.2-4.4 3.5-4.7h.4c2.1-.3 3.8.9 3.6 3.1zm-46.2 2.7c-3.4-.4-20.4-3.7-20.6 2.8-.1.2-.1.5.1.9 2.1 4.9 6.8 8.2 11.2 10.8.6.3 1.3.2 1.8-.2 4-3.3 7.1-7.6 9-12.4.3-1-.7-1.8-1.5-1.9zm-8.8 11.3c-3.4-2.1-7.2-4.7-8.8-8.3.5-1.7 10.7-.8 15.4-.3-1.6 3.3-3.8 6.2-6.6 8.6zM260.9 365c-2.1-8.2-5.4-16-9.6-23.3-2.9-4.7-6.3-10.8-11.7-12.8-.2-.1-.4-.2-.7-.3-9-1.4-16 6.8-21 13.2-6.1 7.6-10.6 16.4-13.2 25.8-.2.8.3 1.6 1.1 1.8.5.1 1 0 1.4-.4l11.8-9.4 5.9-4.7c1.8-1.4 4.2-4.2 6.4-4.9 4.8-1.3 11.2 5.3 14.8 7.8l12.7 8.8c1 .9 2.4-.4 2.1-1.6zm-16.5-12c-3.4-2.3-7.9-7-12.4-6.3-4.2.7-8.3 5.4-11.4 7.9l-11.6 9.2c2.2-6.5 5.5-12.6 9.6-18.1 4.3-5.6 11.2-15.2 19.2-14.2.1 0 .1 0 .2.1 5.4 1.6 9.2 9.1 11.9 13.8 2.9 5.2 5.2 10.7 7 16.4l-12.5-8.8zm100.5 1.6c-3.2-16.5-15.8-33.9-33.5-36.6-.1-.1-.3-.1-.5-.1-8.5-.2-14.5 7.5-18.8 13.9-5.5 8-9.3 17.1-11.2 26.6-.2.8.3 1.6 1.1 1.8.5.1 1 0 1.4-.4l12.3-12.7c4.3-4.4 10.9-14.5 17.9-11.7 4.9 2 9.6 5.9 13.9 8.9 5.2 3.6 10.1 7.5 14.9 11.6.6.6 1.6.6 2.1 0 .3-.2.5-.8.4-1.3zm-16.7-13.2c-3-2.1-6.1-4.1-9.2-6-2.4-1.5-5.2-3.7-8.1-4.2-5.2-.9-9.5 6-12.6 9.1L285 354c1.7-6.3 4.4-12.4 7.9-17.9 4-6.2 9.6-15.3 18-15.1h.1c14.9 2.6 25.7 16.1 29.9 30-4.1-3.4-8.4-6.6-12.7-9.6zm91.2 28.2c-2.3-8.2-5.4-16.3-9.1-24-3.6-7.4-8.8-17.1-18.1-17.9-.1 0-.3-.1-.5-.1-8.6.4-14 7.8-18.3 14.4-5.2 7.9-8.9 16.8-10.8 26.1-.2.8.3 1.6 1.1 1.8.5.1 1 0 1.4-.4l11.9-9.2 6-4.6c3.7-2.9 5.4-5 10.8-2.8 8.8 3.7 16.8 11.1 23 18.1.6.6 1.6.6 2.1 0 .5-.4.6-.9.5-1.4zm-13.1-12.5c-4.2-3.1-9.7-7.5-15-8.4-4.4-.8-7.9 3-11.1 5.5l-13.7 10.6c1.7-6.5 4.3-12.6 7.8-18.4 3.9-6.4 9.1-15.3 17.5-15.8h.1c9.1.5 14.2 12.5 17.4 19.6 2 4.6 3.8 9.3 5.4 14-2.7-2.5-5.5-4.9-8.4-7.1z"/><path d="M303.3 67.9c-.1-.2-.2-.4-.2-.5-.1-.1-.2-.3-.3-.4-3.5-4.4-11.3-4.6-15.5-1.3-4.8 3.7-4.8 10.8-2.7 15.9 2.5 6.3 9.4 8.7 15.2 4.9 6.3-4.4 6.2-12.1 3.5-18.6zm-4.6 15.4c-4.4 3.8-9.9 1.6-11.7-3.7-1-3.1-1.4-7.2.5-10 2.5-3.6 10.2-4.8 13-.7 2.2 4.9 2.6 10.7-1.8 14.4zm4.1-16.4c.1.1.2.2.3.4-.1-.1-.2-.2-.3-.4z"/><path d="M303.3 67.9c-.1-.2-.2-.4-.2-.5.1.2.2.4.2.5zm42.9 4.8c-2.5-5.4-8.7-11.2-15-8-.1 0-.2.1-.3.1-.1.1-.2.1-.3.2-5.1 3.5-8.5 11.2-5.5 17 3 5.7 11 6.3 16.4 4 5.8-2.3 7.3-7.7 4.7-13.3zm-7 11.1c-3.7 1.2-9.1.9-11.3-2.8-2.7-4.5.6-11 4.5-13.5 4.9-2.6 9.7 3.1 11.3 7.2 1.8 4.4-.1 7.7-4.5 9.1z"/><path d="M337.9 74.1v.6c-.3 1.9-1.9 3.2-3.8 3.2h-.6c-.1 0-.1-.1-.2-.1-1.6-.6-3-2.5-1.5-4 1.1-1.1 3.2-1.1 4.7-1.2.7 0 1.4.7 1.4 1.5zM334 78h-.6c.2-.1.4 0 .6 0zm-39.7-.3c-1.3 1-3 1.6-4.7 1.5h-.4c-.8-.2-1.3-1-1.1-1.8.3-1.7 1.3-3.2 2.8-4.2 1.3-.9 3.7-1.7 5-.4l.1.1v.1l.1.1c.1.2.2.5.2.7.3 1.6-.8 3-2 3.9zm1.8-4.8l-.1-.1.1.1zm.3.9c0-.2-.1-.5-.2-.7.2.2.2.5.2.7z"/></g></g><path d="M361.8 490.3c-2-.6-4-1.1-6-1.6 2.1.4 4.2.9 6 1.6z"/></svg>