<?xml version="1.0" encoding="UTF-8"?>
<svg width="3118px" height="6210px" viewBox="0 0 3118 6210" version="1.1" xmlns="http://www.w3.org/2000/svg" xmlns:xlink="http://www.w3.org/1999/xlink">
    <!-- Generator: Sketch 51.3 (57544) - http://www.bohemiancoding.com/sketch -->
    <title>Group 15</title>
    <desc>Created with Sketch.</desc>
    <defs></defs>
    <g id="Page-1" stroke="none" stroke-width="1" fill="none" fill-rule="evenodd">
        <g id="Group-15" fill="#000000" fill-rule="nonzero">
            <g id="totoro" transform="translate(352.000000, 2448.000000)">
                <g id="Layer_2">
                    <g id="Layer_1-2">
                        <path d="M2407.62151,2556.15025 C2373.82292,2568.30095 2340.02432,2579.31252 2305.46621,2589.56467 C2273.56641,2517.04018 2240.52734,2444.5157 2203.69067,2374.64917 C2147.86602,2268.71026 2079.88907,2167.32786 1987.98728,2089.10773 C1946.97325,2053.79476 1901.02235,2024.55714 1852.03338,2002.15429 C1866.08448,2000.25574 1879.37606,1995.69923 1892.28789,1989.24417 C1894.9462,1987.72533 1895.70572,1983.92824 1894.18668,1981.27027 C1893.42716,1980.13114 1892.28789,1979.37173 1891.14861,1978.99202 C1886.59149,1977.85289 1882.03438,1976.33405 1877.85703,1974.05579 C1867.60352,1965.32248 1866.08448,1960.38626 1873.29991,1958.86742 L1879.37606,1963.04422 C1882.03438,1964.56306 1885.83197,1963.80364 1887.35101,1960.76597 C1887.73077,1960.00655 1888.11053,1958.86742 1888.11053,1958.108 C1887.35101,1950.1341 1881.65462,1946.33701 1875.19871,1946.33701 L1860.38809,1935.70515 L1879.37606,1936.08486 C1882.41414,1936.08486 1885.07246,1933.42689 1885.07246,1930.38922 C1885.07246,1928.49067 1883.93318,1926.59212 1882.41414,1925.453 C1876.71775,1922.79503 1872.16063,1918.61823 1869.12256,1913.68201 C1885.07246,1920.89648 1905.95923,1914.82113 1917.73177,1900.77189 C1929.50432,1886.34293 1931.40311,1866.59804 1932.16263,1849.13141 C1932.92215,1821.41263 1932.16263,1794.07356 1932.16263,1766.35477 L1931.02335,1425.37576 L1930.64359,1346.77593 C1930.64359,1327.79046 1932.92215,1305.0079 1923.42816,1287.54126 C1906.71875,1256.4051 1865.32496,1264.7587 1844.81795,1286.78185 C1830.00733,1302.34993 1821.65262,1323.23394 1812.53839,1342.59912 L1804.18368,1360.44546 C1804.56344,1328.92959 1793.55042,1297.79342 1773.04341,1273.49202 C1749.87808,1244.63411 1722.91515,1220.71242 1704.6867,1187.6777 C1668.60955,1122.7474 1658.35604,1046.80553 1647.72278,974.281039 L1569.11256,435.473452 C1564.93521,406.995249 1559.61857,282.830287 1499.99633,305.612849 C1473.03341,316.244711 1463.91918,360.290998 1455.18472,383.832978 C1441.13361,422.943043 1428.98131,462.812526 1418.7278,503.061718 C1409.23382,542.171783 1401.25887,581.661557 1395.56248,621.910749 C1370.87811,608.620922 1344.6747,598.748478 1318.09154,591.91371 C1335.94024,582.041266 1351.13062,569.510857 1360.24484,550.905098 C1371.63763,527.742827 1375.81498,500.024044 1381.13162,474.583516 C1392.5244,421.044496 1394.80296,370.163441 1383.03041,316.624421 C1376.19474,285.867962 1367.08051,255.491213 1362.5234,224.355045 C1358.34605,194.737715 1359.86508,165.500094 1361.00436,135.882763 C1362.90316,88.7988023 1363.28292,39.0568756 1329.48432,2.60477669 C1327.20577,0.326520504 1323.78793,0.326520504 1321.50938,2.60477669 C1280.51978,49.6999802 1256.57551,109.218376 1253.53243,171.575444 C1216.69576,154.108813 1173.78293,156.766778 1139.22482,178.030503 C1133.52843,122.972645 1107.70478,72.0915903 1065.93124,35.259782 C1065.17172,34.8800726 1064.79196,34.5003633 1064.03244,34.1206539 C1062.13365,30.3235603 1056.43725,28.4250134 1054.1587,33.3612352 C1032.51241,81.9640338 1023.77794,135.123345 1029.09457,187.902946 C1030.61361,203.47103 1032.13265,218.279695 1026.81601,233.46807 C1022.2589,246.378188 1014.66371,258.149179 1008.2078,270.299878 C996.055494,293.841859 987.700785,319.282386 982.763912,345.482332 C974.029444,394.84455 970.231849,444.966186 972.510406,495.087822 C974.029444,541.792074 989.979342,581.281847 1033.65168,602.925281 C1043.52543,607.861503 1053.77894,612.038306 1064.03244,615.8354 C1036.68976,628.745518 1011.24587,644.693311 987.700785,664.438198 C977.827039,597.989059 965.294976,531.539921 944.787963,467.748748 C929.977343,422.183624 899.596584,326.496864 835.417231,335.609889 C833.898193,335.989598 833.138674,336.369308 832.379155,337.128726 C806.935269,349.659135 803.897193,389.148909 801.618636,413.450309 C795.542484,471.545841 798.58056,530.780502 800.099598,589.255744 C803.897193,732.026465 806.935269,882.011664 765.161725,1020.22587 C716.93227,1180.46322 629.967348,1331.20784 628.828069,1502.45676 C628.828069,1516.1263 629.207829,1529.41613 630.347107,1543.08567 C604.143702,1491.06548 577.560538,1439.0453 551.357134,1387.02512 C543.761944,1372.59616 535.407235,1354.37011 518.697818,1348.29476 C504.646717,1342.97883 491.355134,1349.8136 482.620666,1361.20488 C471.987401,1375.63384 467.430287,1394.61931 462.873173,1411.32652 C456.797021,1434.8685 452.239907,1458.41048 449.581591,1482.71188 C437.429287,1586.75224 452.239907,1692.31145 436.290009,1796.35181 C429.834097,1839.25897 412.365161,1894.31683 442.74592,1932.28776 C458.695818,1952.03265 486.038502,1964.56306 509.58359,1957.34858 C509.58359,1961.90509 510.343109,1966.46161 513.001425,1970.63841 C514.520463,1973.29638 516.79902,1975.57463 519.077577,1977.47318 L500.849122,2001.39487 C497.811046,2005.57167 502.747919,2010.8876 507.305033,2009.74847 L518.697818,2006.7108 L506.545514,2020.76005 C505.785995,2021.13976 505.406236,2021.89917 504.646717,2022.27888 C502.747919,2024.55714 502.747919,2027.97452 505.026476,2030.25278 C507.305033,2032.15133 510.722868,2032.15133 512.621666,2030.25278 C520.216856,2022.27888 531.60964,2019.62092 541.863146,2023.0383 C429.454338,2128.2178 321.602643,2239.47264 222.865176,2357.56225 C163.242937,2428.94761 108.55757,2507.54745 67.5435457,2591.46322 C64.8852293,2596.77915 62.6066724,2602.09508 59.948356,2607.41101 L7.54154661,2594.8806 C0.326116332,2592.98206 -2.71195957,2603.99363 4.5034707,2605.89218 C21.2128882,2610.06898 38.3020651,2614.24578 55.0114826,2618.04288 C35.2639892,2663.98771 18.9343312,2715.24847 25.0104831,2765.37011 L25.0104831,2767.26866 C25.770002,2771.06575 27.28904,2774.86284 28.8080779,2778.65994 C29.9473564,2781.69761 32.9854323,2783.21645 36.0235082,2782.45703 C136.659773,2767.26866 237.296037,2754.35854 338.312061,2742.20784 C412.74492,2733.47452 487.937299,2730.81656 562.749918,2733.85423 C646.297006,2736.89191 729.084574,2748.28319 812.631661,2752.45999 C980.485355,2760.8136 1149.09857,2753.21941 1316.5725,2750.18173 L1828.10853,2740.689 C1920.01033,2739.17016 2012.29188,2736.5122 2104.19368,2742.96726 C2191.91812,2748.6629 2283.0604,2774.86284 2370.78484,2755.11796 C2373.82292,2754.35854 2375.72171,2750.94115 2374.58244,2747.90348 C2374.58244,2747.52377 2374.20268,2747.14406 2374.20268,2746.76435 C2352.55639,2698.16155 2331.66961,2649.17904 2310.40308,2600.57625 C2344.20168,2590.32409 2377.62051,2579.31252 2411.03935,2567.54153 C2417.49526,2564.50386 2414.45718,2553.49228 2407.62151,2556.15025 Z M1007.06852,569.510857 C988.840064,548.247133 984.66271,519.389221 984.28295,492.429856 C983.143672,444.966186 985.042469,395.224259 994.156697,348.899717 C999.09357,321.940352 1008.2078,295.740406 1021.11962,271.059297 C1031.75289,250.934701 1042.00639,233.088361 1042.38615,209.54638 C1042.76591,182.966725 1037.82904,157.526197 1040.10759,130.566832 C1042.76591,101.708921 1049.98134,73.2307184 1061.37413,46.6510629 C1101.24887,83.4828712 1125.55348,134.363926 1128.97132,188.662365 C1129.35107,192.459459 1133.90819,196.256552 1137.70578,193.598587 C1172.2639,167.77835 1218.97431,164.740675 1256.5705,186.004399 C1259.22882,187.523237 1263.02641,186.763818 1264.54545,183.726143 C1264.92521,182.966725 1265.30497,181.827596 1265.30497,181.068178 C1266.44425,120.694389 1287.71078,62.2191468 1326.06649,15.8946044 C1353.40917,49.6887378 1351.89013,94.8741521 1349.99134,136.642182 C1348.09254,179.169631 1348.85206,219.418824 1358.34605,261.186854 C1369.35907,310.169362 1383.78993,357.633032 1380.3721,408.514087 C1378.09354,435.853161 1373.53643,463.192235 1366.70075,490.1516 C1361.38412,513.693581 1357.58653,540.273236 1342.01639,559.638414 C1331.76288,572.168823 1316.95226,581.281847 1301.76188,588.496325 C1228.4683,573.307951 1150.99737,580.522429 1081.88114,609.000631 C1076.94427,607.481794 1072.00739,606.342665 1067.07052,604.823828 C1045.04447,597.229641 1022.63866,586.977488 1007.06852,569.510857 Z M665.28498,1337.28319 C686.551511,1260.96161 719.210827,1188.05741 746.173751,1114.01409 C772.377156,1041.4896 795.162725,968.965108 803.137674,891.884107 C809.973345,829.611771 813.39118,766.959726 813.77094,704.307681 C813.77094,643.554183 811.112623,583.180394 810.353105,522.426896 C809.593586,475.722644 807.315029,425.601008 819.087573,380.035884 C822.125649,368.644604 826.682762,351.937392 839.214826,347.380879 C839.594585,347.380879 839.594585,347.380879 839.974345,347.00117 C869.975344,343.204076 891.241875,374.340244 903.773939,397.122806 C921.242875,427.879264 932.63566,462.053107 942.129647,496.22695 C958.459305,555.84132 970.611608,616.215109 978.966317,677.348316 C979.725836,681.904829 985.801988,682.284538 988.460304,680.006282 C1016.18275,655.325173 1047.32303,635.959996 1081.12162,621.53104 C1086.81801,618.113656 1094.03344,615.075981 1103.14767,612.797725 C1159.35207,593.052838 1220.87311,586.977488 1279.73583,595.710803 C1288.4703,595.710803 1296.44525,597.60935 1302.90116,599.887606 C1335.94024,607.102084 1367.84003,618.873074 1397.46127,635.580286 C1400.11959,637.099124 1403.53742,636.339705 1405.43622,633.30203 C1405.81598,632.922321 1405.81598,632.542612 1405.81598,632.162902 C1416.82901,554.322483 1435.05746,478.0009 1460.50135,403.577865 C1468.09654,381.175013 1491.26187,288.905637 1527.33902,322.320061 C1550.88411,343.963495 1550.50435,386.870653 1554.6817,415.728565 L1626.836,909.730447 C1637.08951,980.736098 1644.30494,1053.6403 1665.57147,1122.7474 C1674.6857,1153.88357 1688.35704,1183.88061 1705.82598,1211.21968 C1722.91515,1237.03992 1745.70072,1257.16452 1765.06846,1281.46591 C1792.7909,1316.39918 1796.20874,1354.74982 1788.23379,1393.48018 L1776.841,1417.78158 L1727.47227,1521.82194 C1727.47227,1494.10316 1724.81395,1466.00467 1719.87708,1438.28588 C1696.71175,1310.70354 1619.24081,1180.08351 1495.43922,1128.82275 C1428.60155,1101.10397 1352.64965,1091.99094 1280.87511,1090.85181 C1206.44225,1089.71269 1132.38915,1099.20542 1060.99437,1118.95031 C934.154698,1153.88357 796.681763,1221.85154 727.565536,1339.18174 C662.626664,1449.67716 677.817043,1579.15806 709.337081,1699.90563 C707.058524,1696.10854 705.159726,1691.93174 703.260929,1688.13464 C683.513435,1649.40429 664.145702,1610.67393 644.777968,1572.32329 C644.777968,1571.18416 644.398208,1570.04503 644.398208,1568.9059 C634.904221,1490.68577 644.398208,1412.08594 665.28498,1337.28319 Z M1648.48229,1774.32867 C1650.00133,1778.88518 1651.90013,1783.44169 1653.79893,1787.99821 C1654.55845,1789.13733 1654.93821,1790.27646 1655.69773,1791.41559 C1653.41917,1793.31414 1651.14061,1794.83297 1648.48229,1796.73152 C1641.64662,1801.28803 1634.81095,1805.46484 1627.59552,1808.88222 C1610.50635,1817.23583 1592.27789,1822.55176 1574.04944,1826.72856 C1511.38912,1841.15752 1445.69073,1846.09374 1381.13162,1852.92851 C1353.78893,1845.33432 1326.06649,1838.87926 1297.96429,1835.08217 C1173.40318,1817.61554 1049.22182,1848.7517 930.357103,1884.06468 L910.989369,1889.76032 C897.318027,1887.10235 883.646686,1883.30526 870.355104,1878.74874 C824.024446,1862.04153 784.1497,1834.70246 751.110624,1800.14891 C751.110624,1799.7692 751.110624,1799.00978 750.730865,1798.63007 L750.730865,1799.00978 C709.71684,1671.42743 666.804018,1526.37845 714.273954,1394.61931 C760.604612,1266.27754 890.482356,1188.81683 1012.76491,1145.90967 C1144.54145,1099.58513 1292.26789,1087.81414 1428.60155,1119.70973 C1498.4773,1136.03723 1559.23882,1169.45165 1606.32899,1224.1298 C1648.86205,1273.87173 1680.00233,1332.34697 1697.85103,1395.37872 C1712.28189,1445.12065 1717.59852,1496.00171 1715.69972,1546.88276 L1702.40814,1574.98125 C1679.62257,1623.20434 1648.10254,1674.0854 1643.54542,1728.38384 C1642.02638,1743.1925 1643.54542,1759.52 1648.48229,1774.32867 Z M1648.48229,1915.58055 C1566.07449,1912.92259 1488.22379,1884.44438 1409.61358,1860.9024 C1448.34904,1856.34589 1487.46427,1851.78938 1526.19974,1846.47345 C1572.5304,1840.3981 1623.79793,1830.52565 1661.39412,1801.28803 C1668.22979,1811.16048 1676.5845,1819.51408 1687.21776,1825.58943 C1673.92618,1837.36042 1655.69773,1851.40967 1652.65965,1868.11688 C1652.27989,1869.63572 1652.27989,1871.15456 1652.27989,1872.67339 C1645.82398,1874.57194 1640.50735,1879.88787 1637.84903,1886.72264 C1633.29192,1898.11392 1639.74783,1907.98637 1648.48229,1915.58055 Z M730.983371,1911.78346 C729.464334,1909.12549 725.666739,1908.36607 723.008422,1909.88491 C721.869144,1910.64433 720.729865,1911.78346 720.350106,1913.3023 L719.970346,1915.58055 C716.93227,1909.5052 714.653713,1903.05014 712.375157,1896.59508 C711.235878,1892.41828 709.71684,1888.62119 707.438283,1885.2038 C730.983371,1870.39514 743.895194,1843.81548 745.793992,1815.33728 L745.793992,1811.16048 C762.12365,1827.48798 779.972345,1842.29665 799.719839,1855.58647 C828.2018,1874.57194 858.2028,1887.86177 890.102597,1896.21537 C835.417231,1912.92259 780.352105,1929.6298 724.52746,1942.91963 L729.464334,1923.17474 C732.502409,1920.89648 733.261928,1916.71968 730.983371,1911.78346 Z M2361.29085,2745.62522 C2282.30088,2761.19331 2201.41211,2739.54987 2122.42214,2733.09481 C2039.25481,2726.26004 1956.08748,2727.39917 1872.54039,2728.91801 C1703.54742,2731.95568 1534.17469,2734.99336 1365.18172,2738.41074 C1197.32802,2741.44842 1028.33505,2748.6629 860.481357,2743.72668 C700.602612,2738.79045 542.242906,2711.45138 381.984402,2726.63975 C266.917277,2737.65133 151.850152,2753.97883 37.5425462,2771.44546 C36.7830272,2769.54691 36.4032677,2767.64837 35.6437487,2765.74982 C29.5675969,2716.3876 46.2770144,2666.26597 66.4042673,2621.08055 C171.977405,2645.38195 278.689821,2664.74713 385.781997,2678.79637 C392.997427,2679.55579 392.997427,2668.16451 385.781997,2667.40509 C279.8291,2653.35585 175.015481,2634.37038 70.9613811,2610.44869 C71.3411406,2609.68927 71.7209001,2608.55014 72.4804191,2607.41101 C97.5445453,2554.2517 128.684823,2504.13007 162.483418,2455.90698 C214.890227,2381.10423 275.271986,2312.75655 336.793023,2245.9277 C406.668769,2169.98583 479.58259,2096.32221 555.534488,2025.69627 C557.813045,2023.41801 557.813045,2019.62092 555.534488,2017.72237 C555.154728,2017.34266 554.774969,2016.96295 554.39521,2016.96295 C546.80002,2012.02673 538.445311,2010.12818 530.090602,2010.8876 L538.82507,2001.01516 C541.103627,1998.7369 541.103627,1994.93981 538.82507,1993.04126 C537.306033,1991.52243 535.407235,1991.14272 533.508438,1991.52243 L519.837096,1995.31952 L531.9894,1979.37173 C533.508438,1976.71376 532.748919,1972.91667 529.710843,1971.39783 C529.331083,1971.01812 528.951324,1971.01812 528.571564,1971.01812 C519.837096,1968.36015 518.318058,1958.108 522.875172,1951.65294 C524.773969,1950.51381 526.293007,1948.99498 528.191805,1947.47614 C533.128678,1942.91963 526.672767,1935.32544 521.356134,1938.36311 C520.976375,1938.74282 520.596615,1938.74282 520.216856,1939.12253 C490.595616,1966.46161 448.442312,1933.04718 440.467363,1901.91102 C429.834097,1861.66182 445.783996,1818.37496 450.34111,1778.50547 C459.835097,1698.76651 453.379186,1618.26812 456.797021,1538.14944 C457.9363,1497.90025 463.252932,1458.03077 472.74692,1418.9207 C476.924274,1402.5932 481.861147,1374.49471 496.671767,1363.86285 C522.495413,1345.25709 539.20483,1390.4425 547.939298,1407.52942 L633.764943,1577.25951 L651.233879,1611.81306 L664.525461,1637.6333 C686.171752,1680.16075 712.754916,1723.0679 727.185777,1768.63303 C727.945296,1771.6707 729.084574,1774.32867 729.844093,1777.36634 C731.74289,1784.20111 732.882169,1791.7953 733.261928,1799.00978 C735.920245,1832.04449 726.426258,1866.59804 693.387182,1880.64729 L691.108625,1881.78642 C690.728866,1881.78642 690.349106,1882.16613 689.969347,1882.16613 C689.969347,1882.16613 689.589587,1882.16613 689.589587,1882.54584 C684.272954,1885.58351 687.69079,1895.45596 694.146701,1892.79799 C694.90622,1892.41828 695.665739,1892.03857 696.425258,1892.03857 C700.222853,1892.79799 703.260929,1914.82113 705.919245,1918.23852 C708.957321,1922.03561 712.754916,1925.07329 717.31203,1926.21241 L711.235878,1950.51381 C710.476359,1953.55149 712.375157,1956.58916 715.413232,1957.34858 C716.172751,1957.72829 717.31203,1957.72829 718.451308,1957.34858 C783.76994,1942.16021 847.949294,1921.6559 912.508407,1902.29072 C914.407204,1901.53131 916.306002,1901.1516 918.584559,1900.39218 L918.964318,1900.39218 C925.04047,1898.49363 931.116622,1896.59508 937.572533,1894.69654 C988.460304,1879.50816 1039.34808,1865.83863 1091.37513,1855.96618 C1154.4152,1843.81548 1218.97431,1838.49955 1283.15367,1845.71403 C1305.55948,1848.37199 1327.58553,1852.5488 1349.23182,1857.48502 C1350.3711,1857.86473 1351.51038,1858.24444 1353.02941,1858.24444 C1360.6246,1860.14299 1368.21979,1862.04153 1375.81498,1864.31979 L1380.3721,1865.45892 C1409.61358,1873.43281 1438.4753,1882.54584 1467.33702,1891.65886 C1532.65565,1911.78346 1598.7338,1929.6298 1667.47027,1928.49067 C1670.50835,1928.49067 1673.16666,1925.83271 1673.16666,1922.79503 C1673.16666,1920.89648 1672.02738,1918.99794 1670.50835,1917.85881 C1665.95123,1915.58055 1661.39412,1912.92259 1657.59652,1909.5052 C1652.65965,1906.84724 1651.52037,1902.67043 1654.17869,1896.21537 C1651.52037,1888.62119 1652.27989,1885.2038 1656.07748,1885.2038 C1657.97628,1887.10235 1660.6346,1887.86177 1664.43219,1887.48206 C1667.47027,1887.48206 1670.12859,1884.82409 1670.12859,1881.40671 C1670.12859,1879.50816 1668.98931,1877.60962 1667.47027,1876.8502 L1664.05243,1874.57194 C1664.05243,1871.53427 1667.47027,1863.94008 1667.85003,1863.56037 C1671.64762,1859.38357 1675.44522,1855.20676 1679.62257,1851.40967 L1701.26886,1829.76624 C1703.54742,1827.48798 1703.54742,1824.0706 1701.26886,1821.79234 C1700.8891,1821.41263 1700.50934,1821.03292 1700.12959,1821.03292 C1686.45824,1814.57786 1676.5845,1806.22426 1669.36907,1796.35181 C1666.71075,1793.31414 1664.81195,1789.89675 1663.67267,1786.09966 L1663.29291,1786.47937 C1662.15364,1784.20111 1661.01436,1781.92286 1660.25484,1779.26489 C1658.7358,1776.60693 1657.59652,1772.43012 1656.837,1768.25332 C1656.45724,1766.35477 1656.45724,1764.83593 1656.07748,1762.93739 C1656.07748,1762.93739 1656.07748,1763.3171 1655.69773,1763.3171 C1648.10254,1713.19546 1680.38209,1649.02458 1699.37007,1608.77539 L1713.42117,1579.15806 C1713.42117,1580.29718 1713.42117,1581.0566 1713.04141,1582.19573 L1801.52537,1391.20192 C1802.66465,1388.92366 1803.80393,1386.64541 1805.32296,1384.74686 L1812.53839,1369.9382 C1827.34901,1338.80203 1845.95723,1275.77027 1890.38909,1279.56737 C1916.59249,1281.84562 1918.87105,1308.80499 1918.87105,1329.30929 C1919.25081,1351.71215 1918.87105,1374.115 1918.87105,1396.89756 L1919.63057,1658.89702 L1920.01033,1808.88222 C1920.01033,1830.90536 1922.66865,1855.96618 1916.59249,1877.60962 C1910.8961,1897.3545 1879.75582,1923.17474 1864.18568,1896.59508 C1862.66665,1893.93712 1858.86905,1893.1777 1856.21073,1894.69654 C1854.31194,1895.83567 1853.55242,1897.73421 1853.55242,1899.63276 C1853.17266,1909.5052 1856.21073,1918.99794 1862.28689,1926.21241 L1841.77987,1925.83271 C1838.7418,1925.83271 1836.08348,1928.49067 1836.08348,1931.52835 C1836.08348,1933.42689 1837.22276,1935.32544 1838.7418,1936.46457 L1862.28689,1953.17178 C1861.52737,1953.9312 1860.76785,1954.69062 1860.38809,1955.45004 C1849.37506,1968.73986 1862.28689,1979.75143 1875.19871,1986.5862 C1860.38809,1992.28184 1844.81795,1994.93981 1828.86805,1994.18039 L1826.96925,1994.18039 C1820.13358,1993.80068 1819.75382,2003.29342 1825.45022,2005.57167 C2057.1035,2097.84105 2176.72774,2332.50143 2272.42713,2547.03722 C2279.64256,2563.36473 2286.85799,2579.31252 2294.07342,2595.64002 C2195.71572,2624.49793 2095.83897,2646.14137 1994.06343,2660.95003 C1986.848,2662.08916 1989.88607,2673.10073 1997.1015,2671.96161 C2099.25681,2657.53265 2199.89307,2635.50951 2298.63054,2606.27189 C2319.51731,2650.69788 2340.40408,2698.16155 2361.29085,2745.62522 Z" id="Shape"></path>
                        <path d="M1262.2669,2422.11284 C1225.05047,2419.07517 1186.69476,2415.65778 1149.47833,2418.69546 C1121.37613,2420.59401 1093.27392,2424.77081 1065.93124,2431.22587 C1045.42423,2436.5418 1016.94227,2444.13599 1016.18275,2469.95622 C1016.18275,2470.71564 1016.18275,2471.47506 1016.56251,2472.23448 C1023.01842,2509.06629 1065.55148,2503.37065 1092.89416,2509.06629 C1116.81901,2514.00251 1138.84506,2525.39379 1157.45328,2541.34158 C1168.4663,2550.83432 1178.71981,2572.85746 1194.28995,2574.3763 C1204.92321,2575.51543 1212.5184,2566.78211 1218.59455,2559.18792 C1236.06349,2537.16478 1253.53243,2524.63437 1280.87511,2517.41989 C1301.76188,2511.72425 1323.40817,2510.20542 1344.29494,2505.6489 C1361.00436,2502.23152 1387.96729,2497.2953 1398.60055,2482.48663 C1433.53842,2434.64325 1283.91319,2424.01139 1262.2669,2422.11284 Z M1381.51137,2481.72721 C1374.29594,2487.80256 1357.58653,2490.84024 1348.4723,2493.1185 C1328.72481,2497.67501 1308.97731,2499.19384 1289.22982,2503.75036 C1262.64665,2509.446 1236.06349,2519.69815 1218.21479,2540.96187 C1215.17672,2544.75897 1212.5184,2548.93577 1209.48033,2552.73287 C1204.54345,2558.80822 1196.5685,2563.36473 1188.59355,2558.42851 C1181.75788,2553.87199 1176.06149,2543.24013 1169.98534,2537.54449 C1156.69376,2525.01408 1141.88314,2515.14164 1125.17372,2507.54745 C1109.98334,2500.71268 1093.65368,2496.91559 1077.32402,2495.39675 C1057.95629,2493.4982 1032.13265,2493.4982 1027.57553,2469.19681 C1029.47433,2448.6925 1064.4122,2443.37657 1079.98234,2439.95918 C1101.24887,2435.78238 1122.5154,2432.74471 1143.78194,2431.22587 C1166.94726,2429.70703 1190.11259,2429.32732 1213.65768,2430.84616 C1266.06449,2433.12442 1323.02841,2435.02296 1372.77691,2453.24901 C1386.44825,2457.80552 1400.11959,2465.77942 1381.51137,2481.72721 Z M1725.19371,2312.37684 C1720.6366,2315.41451 1716.07948,2318.45219 1711.52237,2321.86957 C1716.07948,2317.69277 1720.6366,2314.27538 1725.19371,2312.37684 Z" id="Shape"></path>
                        <path d="M1968.9993,2351.86661 C1933.68167,2280.48125 1847.09651,2264.53346 1775.32196,2280.48125 C1755.19471,2285.03776 1736.20674,2292.25224 1719.11756,2302.12468 C1715.31996,2304.40294 1711.90213,2306.6812 1708.48429,2308.95945 L1708.10453,2309.33916 C1695.19271,2318.8319 1683.42017,2330.60289 1673.54642,2344.65213 C1649.24181,2380.34481 1639.74783,2424.01139 1646.5835,2466.91855 C1646.5835,2467.67797 1646.96326,2468.05768 1646.96326,2468.8171 C1662.91316,2535.64594 1741.90313,2577.41397 1806.842,2578.5531 C1850.51434,2578.93281 1893.04741,2564.50386 1927.60552,2537.54449 C1983.0504,2493.1185 1999.75982,2416.03749 1968.9993,2351.86661 Z M1711.90213,2321.86957 C1716.07948,2317.69277 1720.6366,2314.27538 1725.57347,2312.37684 C1727.85203,2311.23771 1730.13058,2310.47829 1732.7889,2310.47829 C1759.75182,2307.44062 1779.11956,2348.82894 1774.9422,2370.85208 C1770.76485,2392.49551 1748.35904,2416.4172 1724.81395,2414.89837 C1699.37007,2413.37953 1691.39512,2383.38249 1692.5344,2360.59993 C1696.33199,2365.53615 1702.40814,2367.8144 1710.00333,2366.29557 C1716.07948,2365.15644 1726.71275,2360.59993 1727.85203,2353.38545 C1728.99131,2345.41155 1720.6366,2335.91882 1714.18069,2332.88114 C1711.14261,2331.36231 1707.34502,2330.9826 1703.92718,2331.36231 C1706.20574,2327.94492 1708.86405,2324.90725 1711.90213,2321.86957 Z M1711.90213,2345.03184 C1713.42117,2346.55068 1714.94021,2348.44923 1715.69972,2350.34777 L1715.69972,2350.72748 C1714.94021,2351.4869 1713.80093,2351.86661 1713.04141,2352.62603 C1711.14261,2353.76516 1709.24381,2354.52458 1707.34502,2354.90429 C1702.40814,2355.66371 1700.12959,2353.38545 1698.99031,2349.20865 C1698.99031,2341.99417 1707.34502,2340.85504 1711.90213,2345.03184 Z M1923.42816,2526.91263 C1893.04741,2552.73287 1851.27386,2566.78211 1811.77887,2567.54153 C1749.87808,2569.06037 1672.02738,2528.81118 1657.59652,2464.64029 C1657.59652,2464.26058 1657.59652,2464.26058 1657.21676,2463.88087 C1651.52037,2424.77081 1660.6346,2386.04045 1681.14161,2355.284 C1678.10353,2382.62307 1687.21776,2418.69546 1716.839,2425.53023 C1747.97928,2432.74471 1779.49932,2402.74767 1785.19571,2373.88975 C1790.51234,2346.93039 1773.42317,2311.23771 1746.46024,2300.98556 C1752.15664,2298.7073 1757.85303,2296.80875 1763.54942,2295.28992 C1830.00733,2277.06387 1914.31394,2283.89864 1953.42916,2348.44923 C1988.7468,2406.16505 1974.31594,2483.62576 1923.42816,2526.91263 Z" id="Shape"></path>
                        <path d="M1719.11756,2302.50439 C1715.31996,2304.78265 1711.90213,2307.06091 1708.48429,2309.33916 C1711.90213,2306.6812 1715.69972,2304.40294 1719.11756,2302.50439 Z M690.728866,2304.02323 C631.866145,2272.50735 550.217855,2291.87253 502.36816,2335.1594 C464.392211,2369.33324 438.948325,2425.53023 442.366161,2477.1707 L442.366161,2477.55041 C443.125679,2493.87791 443.125679,2507.92716 451.860148,2521.97641 C461.733894,2537.16478 474.265958,2550.45461 488.696818,2561.46618 C516.419261,2582.7299 552.116653,2588.42555 585.915247,2591.08351 C621.232879,2593.74148 662.626664,2597.91828 695.665739,2580.45165 C729.464334,2562.60531 744.274954,2521.97641 752.249903,2487.04315 C767.820042,2420.97372 756.047498,2338.95649 690.728866,2304.02323 Z M686.931271,2336.29853 C685.791992,2347.68981 676.298005,2354.14487 665.28498,2353.76516 C658.829069,2349.96806 650.094601,2345.79126 655.031474,2337.81737 C658.449309,2332.12172 667.183777,2328.32463 673.259929,2327.1855 C681.234879,2325.28696 688.070549,2326.80579 686.931271,2336.29853 Z M676.298005,2315.0348 C664.525461,2316.17393 650.854119,2322.24928 645.157727,2332.50143 C636.423259,2347.3101 649.714841,2357.18254 661.107626,2364.01731 C662.246904,2364.77673 663.386183,2364.77673 664.525461,2364.77673 C681.234879,2366.67528 696.045499,2354.90429 698.324056,2338.57678 C698.703815,2337.05795 698.703815,2335.1594 698.703815,2333.64056 C711.995397,2353.00574 712.754916,2380.34481 694.146701,2398.19115 C675.918246,2415.65778 636.803018,2420.59401 619.713841,2397.81144 C611.738892,2387.17958 614.017449,2369.71295 613.63769,2357.18254 L613.63769,2356.04341 C613.63769,2339.3362 619.713841,2328.70434 634.524462,2319.97103 C647.436284,2311.61742 662.246904,2308.95945 676.298005,2315.0348 Z M747.313029,2439.19977 C746.55351,2472.9939 738.198802,2506.02861 723.008422,2536.02565 C702.881169,2573.99659 666.044499,2581.59078 626.169753,2581.21107 C589.333082,2580.45165 548.319058,2579.69223 514.140704,2563.36473 C498.570565,2555.77054 486.798021,2544.37926 475.025476,2532.22856 C458.695818,2515.14164 454.898224,2499.95326 453.758945,2477.55041 C446.923274,2377.30714 539.20483,2293.39137 637.562537,2300.98556 C640.980373,2301.36527 644.398208,2301.74498 647.436284,2302.12468 C637.182778,2304.78265 627.688791,2309.71887 619.334082,2316.55364 C604.903221,2327.94492 601.865146,2339.3362 601.865146,2356.42312 C602.244905,2385.28104 601.105627,2406.54476 630.726867,2419.07517 C662.626664,2432.365 700.982372,2420.97372 715.033473,2387.17958 C721.489384,2371.6115 720.350106,2353.76516 713.134676,2338.57678 C736.679764,2364.01731 748.072548,2401.22883 747.313029,2439.19977 Z M918.204799,1899.25305 C916.306002,1900.01247 914.786964,1900.39218 913.267926,1901.1516 L912.508407,1901.1516 C914.407204,1900.39218 916.306002,1899.63276 918.204799,1899.25305 Z M1352.26989,1857.10531 C1350.3711,1856.7256 1348.85206,1856.7256 1346.95326,1856.34589 L1348.4723,1856.34589 C1349.99134,1856.34589 1351.13062,1856.7256 1352.26989,1857.10531 Z M1379.99234,1864.31979 L1378.85306,1864.31979 C1377.71378,1863.94008 1376.5745,1863.18066 1375.05546,1862.80095 C1376.95426,1863.56037 1378.4733,1863.94008 1379.99234,1864.31979 Z M1038.2088,793.539382 C1025.67673,776.83217 1005.92924,766.959726 985.422229,765.820598 C965.294976,765.440889 955.041469,774.553914 945.167723,791.640835 C945.167723,792.020544 944.787963,792.020544 944.787963,792.400254 C937.572533,805.690082 926.939267,820.498747 923.901191,835.687121 C920.483356,855.811718 923.901191,876.316023 933.774938,893.782654 C951.623634,924.539112 997.194773,940.866615 1027.19577,917.704344 C1062.13365,890.744979 1064.79196,826.953806 1038.2088,793.539382 Z M1001.75189,916.944925 C964.915216,923.399984 937.572533,891.124688 934.534457,857.330555 C932.63566,834.168284 943.648685,818.6002 954.66171,798.475604 L954.66171,798.095894 C955.800988,795.817638 957.320026,793.919091 958.839064,792.020544 L959.218824,791.640835 C984.28295,760.504667 1028.33505,787.843741 1040.10759,821.637875 C1039.72784,821.258165 1039.72784,820.878456 1039.34808,820.878456 C1031.75289,812.145141 1015.42323,810.246594 1008.96732,821.258165 C1008.58756,822.017584 1008.2078,822.777003 1008.2078,823.536422 C1004.4102,833.788574 1010.1066,843.281309 1019.22082,847.837821 C1026.05649,851.255205 1037.06952,854.29288 1042.00639,846.698693 C1042.76591,845.559565 1043.14567,844.420437 1043.90519,843.281309 C1045.80399,873.658058 1033.27192,911.249285 1001.75189,916.944925 Z M1454.4252,800.75386 C1425.18372,773.414786 1383.78993,773.414786 1359.86508,806.82921 C1359.48532,807.208919 1359.48532,807.588628 1359.10556,807.588628 C1358.72581,807.968338 1358.34605,808.727756 1358.34605,809.107466 C1343.91519,837.585668 1349.23182,876.316023 1372.77691,898.718876 C1401.63863,925.678241 1446.83001,913.90725 1469.61558,885.049339 C1492.40115,856.571136 1478.7298,823.536422 1454.4252,800.75386 Z M1455.94423,883.530501 C1433.91818,905.933354 1396.32199,911.628994 1375.43522,885.049339 C1359.48532,864.545033 1357.20677,836.826249 1368.97931,813.663978 C1410.3731,753.669899 1503.41417,834.927703 1455.94423,883.530501 Z" id="Shape"></path>
                        <path d="M1395.56248,848.21753 C1394.4232,854.672589 1390.24584,860.36823 1384.54945,863.026195 C1377.33402,866.823289 1369.35907,864.165324 1367.46027,855.811718 C1367.46027,855.432008 1367.08051,854.672589 1367.08051,854.29288 C1365.94124,845.559565 1371.63763,837.585668 1380.3721,836.44654 L1381.89113,836.44654 C1389.86608,835.307412 1396.32199,839.863924 1395.56248,848.21753 Z M1220.11359,858.469683 C1207.20177,856.950846 1142.64266,844.420437 1141.88314,869.101545 C1141.50338,869.860964 1141.50338,871.000092 1142.2629,872.51893 C1150.23785,891.124688 1168.08654,903.655097 1184.79596,913.527541 C1187.07452,914.666669 1189.73283,914.28696 1191.63163,912.768122 C1206.82201,900.237713 1218.59455,883.91021 1225.80998,865.684161 C1226.94926,861.887067 1223.15167,858.849392 1220.11359,858.469683 Z M1186.69476,901.376841 C1173.78293,893.402945 1159.35207,883.530501 1153.27592,869.860964 C1155.17472,863.405905 1193.91019,866.823289 1211.75888,868.721836 C1205.68273,881.252245 1197.32802,892.263816 1186.69476,901.376841 Z M991.87814,1387.02512 C983.903191,1355.88895 971.371127,1326.27162 955.421229,1298.55284 C944.408204,1280.7065 931.496381,1257.54422 910.989369,1249.95004 C910.22985,1249.57033 909.470331,1249.19062 908.331052,1248.81091 C874.152699,1243.49498 847.569534,1274.63115 828.58156,1298.93255 C805.416231,1327.79046 788.327054,1361.20488 778.453308,1396.89756 C777.693789,1399.93524 779.592586,1402.97291 782.630662,1403.73233 C784.529459,1404.11204 786.428257,1403.73233 787.947295,1402.21349 L832.758914,1366.52081 L855.164724,1348.67447 C862.000395,1343.35854 871.114623,1332.72668 879.469331,1330.06871 C897.697787,1325.13249 922.002394,1350.19331 935.673736,1359.68604 L983.903191,1393.10047 C987.700785,1396.51785 993.017418,1391.58163 991.87814,1387.02512 Z M929.217824,1341.45999 C916.306002,1332.72668 899.216825,1314.88034 882.127648,1317.5383 C866.177749,1320.19627 850.60761,1338.04261 838.835066,1347.53534 L794.782965,1382.46861 C803.137674,1357.7875 815.669737,1334.62523 831.239876,1313.74121 C847.569534,1292.47749 873.772939,1256.02539 904.153698,1259.82248 C904.533458,1259.82248 904.533458,1259.82248 904.913217,1260.20219 C925.420229,1266.27754 939.85109,1294.75574 950.104596,1312.60208 C961.117621,1332.34697 969.85209,1353.23098 976.68776,1374.87442 L929.217824,1341.45999 Z M1310.87611,1347.53534 C1298.72381,1284.8833 1250.87411,1218.81387 1183.65668,1208.56172 C1183.27692,1208.18201 1182.5174,1208.18201 1181.75788,1208.18201 C1149.47833,1207.42259 1126.69276,1236.66021 1110.3631,1260.96161 C1089.47633,1291.33836 1075.04547,1325.89191 1067.83004,1361.9643 C1067.07052,1365.00197 1068.96932,1368.03965 1072.00739,1368.79907 C1073.90619,1369.17878 1075.80499,1368.79907 1077.32402,1367.28023 L1124.03444,1319.05714 C1140.3641,1302.34993 1165.42823,1263.99928 1192.01139,1274.63115 C1210.6196,1282.22533 1228.4683,1297.034 1244.79796,1308.42528 C1264.54545,1322.09482 1283.15367,1336.90348 1301.38212,1352.47157 C1303.66068,1354.74982 1307.45827,1354.74982 1309.35707,1352.47157 C1310.49635,1351.71215 1311.25587,1349.43389 1310.87611,1347.53534 Z M1247.45628,1297.41371 C1236.06349,1289.43981 1224.29095,1281.84562 1212.5184,1274.63115 C1203.40417,1268.93551 1192.77091,1260.5819 1181.75788,1258.68335 C1162.01039,1255.26597 1145.68073,1281.46591 1133.90819,1293.2369 L1083.40018,1345.25709 C1089.85609,1321.3354 1100.10959,1298.17313 1113.40118,1277.28911 C1128.59156,1253.74713 1149.85809,1219.19358 1181.75788,1219.953 L1182.13764,1219.953 C1238.72181,1229.82544 1279.73583,1281.08621 1295.68573,1333.86581 C1280.11559,1320.95569 1263.78593,1308.80499 1247.45628,1297.41371 Z M1593.79693,1404.49175 C1585.06246,1373.35558 1573.28992,1342.59912 1559.23882,1313.3615 C1545.56747,1285.26301 1525.81998,1248.4312 1490.50235,1245.39352 C1490.12259,1245.39352 1489.36307,1245.01382 1488.60355,1245.01382 C1455.94423,1246.53265 1435.43722,1274.63115 1419.10756,1299.69196 C1399.36007,1329.689 1385.30897,1363.48314 1378.09354,1398.79611 C1377.33402,1401.83378 1379.23282,1404.87146 1382.27089,1405.63088 C1384.16969,1406.01059 1386.06849,1405.63088 1387.58753,1404.11204 L1432.77891,1369.17878 L1455.56447,1351.71215 C1469.61558,1340.70058 1476.07149,1332.72668 1496.5785,1341.08028 C1529.99733,1355.12953 1560.37809,1383.22802 1583.92318,1409.80768 C1586.20174,1412.08594 1589.99933,1412.08594 1591.89813,1409.80768 C1593.79693,1408.28884 1594.17669,1406.3903 1593.79693,1404.49175 Z M1544.04844,1357.02808 C1528.09854,1345.25709 1507.21177,1328.54988 1487.08451,1325.13249 C1470.37509,1322.09482 1457.08351,1336.52377 1444.93121,1346.01651 L1392.90416,1386.2657 C1399.36007,1361.58459 1409.23382,1338.42232 1422.5254,1316.39918 C1437.33602,1292.09778 1457.08351,1258.30364 1488.98331,1256.4051 L1489.36307,1256.4051 C1523.92118,1258.30364 1543.28892,1303.86877 1555.44122,1330.82813 C1563.03641,1348.29476 1569.87208,1366.1411 1575.94823,1383.98744 C1565.69473,1374.49471 1555.06146,1365.38168 1544.04844,1357.02808 Z" id="Shape"></path>
                        <path d="M1152.89616,258.908597 C1152.5164,258.149179 1152.13664,257.38976 1152.13664,257.010051 C1151.75688,256.630341 1151.37712,255.870922 1150.99737,255.491213 C1137.70578,238.784001 1108.08454,238.024582 1092.13464,250.554991 C1073.90619,264.604238 1073.90619,291.563603 1081.88114,310.92878 C1091.37513,334.85047 1117.57853,343.963495 1139.60458,329.534539 C1163.52943,312.827327 1163.14967,283.589706 1152.89616,258.908597 Z M1135.42723,317.383839 C1118.71781,331.812795 1097.83104,323.459189 1090.99537,303.334593 C1087.19777,291.563603 1085.67873,275.995519 1092.89416,265.363657 C1102.38815,251.694119 1131.62963,247.137607 1142.2629,262.705691 C1150.61761,281.31145 1152.13664,303.334593 1135.42723,317.383839 Z M1150.99737,255.111504 C1151.37712,255.491213 1151.75688,255.870922 1152.13664,256.630341 C1151.75688,256.250632 1151.37712,255.870922 1150.99737,255.111504 Z" id="Shape"></path>
                        <path d="M1152.89616,258.908597 C1152.5164,258.149179 1152.13664,257.38976 1152.13664,257.010051 C1152.5164,257.769469 1152.89616,258.528888 1152.89616,258.908597 Z M1315.81298,277.134647 C1306.319,256.630341 1282.77391,234.607198 1258.84906,246.757898 C1258.4693,246.757898 1258.08954,247.137607 1257.70978,247.137607 C1257.33002,247.517316 1256.95026,247.517316 1256.5705,247.897026 C1237.20277,261.186854 1224.29095,290.424475 1235.68373,312.447618 C1247.07652,334.091051 1277.45727,336.369308 1297.96429,327.635992 C1319.99034,318.902677 1325.68673,298.398371 1315.81298,277.134647 Z M1289.22982,319.282386 C1275.17872,323.838899 1254.67171,322.699771 1246.317,308.650524 C1236.06349,291.563603 1248.59555,266.882494 1263.40617,257.38976 C1282.01439,247.517316 1300.24284,269.16075 1306.319,284.728834 C1313.15467,301.436046 1305.93924,313.966455 1289.22982,319.282386 Z" id="Shape"></path>
                        <path d="M1284.29295,282.450578 L1284.29295,284.728834 C1283.15367,291.943312 1277.07752,296.879534 1269.86209,296.879534 L1267.58353,296.879534 C1267.20377,296.879534 1267.20377,296.499824 1266.82401,296.499824 C1260.74786,294.221568 1255.43122,287.00709 1261.12762,281.31145 C1265.30497,277.134647 1273.27992,277.134647 1278.97631,276.754937 C1281.63463,276.754937 1284.29295,279.412903 1284.29295,282.450578 Z M1269.48233,297.259243 L1267.20377,297.259243 C1267.96329,296.879534 1268.72281,297.259243 1269.48233,297.259243 Z M1118.71781,296.120115 C1113.78094,299.917209 1107.32502,302.195465 1100.86911,301.815756 L1099.35007,301.815756 C1096.312,301.056337 1094.4132,298.018662 1095.17272,294.980987 C1096.312,288.525928 1100.10959,282.830287 1105.80599,279.033194 C1110.74286,275.615809 1119.85709,272.578134 1124.79396,277.514356 L1125.17372,277.894066 L1125.17372,278.273775 L1125.55348,278.653484 C1125.93324,279.412903 1126.313,280.552031 1126.313,281.31145 C1127.45228,287.3868 1123.27492,292.702731 1118.71781,296.120115 Z M1125.55348,277.894066 L1125.17372,277.514356 L1125.55348,277.894066 Z M1126.69276,281.31145 C1126.69276,280.552031 1126.313,279.412903 1125.93324,278.653484 C1126.69276,279.412903 1126.69276,280.552031 1126.69276,281.31145 Z" id="Shape"></path>
                    </g>
                </g>
                <path d="M1375,1862 C1367.33333,1860.125 1359.66667,1858.5625 1352,1857 C1360.05,1858.25 1368.1,1859.8125 1375,1862 Z" id="Shape"></path>
            </g>
            <path d="M417,0 L2701,0 C2931.30274,-4.23059271e-14 3118,186.697259 3118,417 L3118,5793 C3118,6023.30274 2931.30274,6210 2701,6210 L417,6210 C186.697259,6210 2.82039514e-14,6023.30274 0,5793 L0,417 C-2.82039514e-14,186.697259 186.697259,4.23059271e-14 417,0 Z M621,202.924795 C390.697259,202.924795 204,389.622055 204,619.924795 L204,5589.9248 C204,5820.22754 390.697259,6006.9248 621,6006.9248 L2496,6006.9248 C2726.30274,6006.9248 2913,5820.22754 2913,5589.9248 L2913,619.924795 C2913,389.622055 2726.30274,202.924795 2496,202.924795 L2326.69724,202.924795 L2326.69724,311.998038 C2326.69724,367.226513 2281.92571,411.998038 2226.69724,411.998038 L899.477634,411.998038 C847.562867,411.998038 805.477634,369.912805 805.477634,317.998038 L805.477634,202.924795 L621,202.924795 Z" id="Combined-Shape"></path>
            <path d="M1033.84282,1557.41628 C1021.41091,1584.20541 999.517533,1610.22442 967.337574,1634.42815 C905.012971,1681.79045 839.937943,1705.93917 774.807907,1706.59927 C829.376316,1735.91879 870.687682,1767.1086 898.466962,1802.69908 C930.481895,1843.02029 952.32026,1876.02538 962.716862,1902.42945 C979.219405,1944.56594 969.592922,1973.94047 932.022133,1990.00294 C901.657454,2002.76491 868.982419,1999.4644 835.097197,1979.9914 C809.298222,1964.97409 784.10434,1941.48547 760.120644,1909.19549 C742.744377,1884.07213 728.206702,1857.09995 716.773965,1828.7731 C713.143405,1834.71401 706.322354,1849.23625 696.255803,1872.2848 C689.755612,1887.14834 681.160391,1901.00443 670.73187,1913.43114 C660.628409,1924.68876 646.674825,1931.75386 631.620844,1933.2342 C616.573147,1934.95387 601.342982,1932.47897 587.614062,1926.08309 C573.469808,1919.97943 561.013236,1910.54264 551.308468,1898.57886 C541.92816,1887.56418 536.539932,1873.70597 536.016112,1859.24779 C535.539372,1827.15952 545.642595,1768.97888 566.325782,1684.7059 C589.484351,1590.09132 614.513207,1514.50967 640.03714,1457.41088 C659.125082,1415.54942 682.943752,1387.66013 711.218109,1373.1929 C736.632025,1360.15589 760.725737,1359.6058 783.884306,1371.65266 C813.918934,1387.16505 828.441172,1411.25876 827.230985,1444.70392 C826.790917,1458.27267 817.622838,1500.53752 799.726747,1571.49845 C802.257137,1569.29812 807.92301,1563.74226 816.559341,1554.99591 C827.561036,1543.4808 836.344056,1534.31272 842.908401,1527.49167 C864.533997,1505.01453 887.554843,1483.9228 911.834022,1464.34194 C974.158626,1415.16437 1013.21464,1414.83431 1035.27304,1466.6523 C1047.88187,1495.70269 1047.36069,1528.77759 1033.84282,1557.41628 Z M696.36582,1426.66114 C710.327826,1413.94716 726.772597,1404.26385 744.663262,1398.22175 C737.89722,1389.03534 726.785508,1389.75045 710.943066,1400.14705 C694.726507,1411.38977 682.252752,1427.23585 675.132548,1445.63906 C682.589076,1439.7108 689.679808,1433.33649 696.36582,1426.55112 L696.36582,1426.66114 Z M912.714157,1491.84618 C903.58275,1499.7674 892.03097,1510.60407 877.838783,1524.35619 C863.646597,1538.10831 855.450334,1545.36943 852.369859,1547.7898 C853.360012,1547.18471 844.998723,1551.80542 827.010951,1561.48691 C815.569188,1567.70287 811.003485,1572.98368 813.423858,1577.38436 C818.264604,1586.24073 835.427248,1578.09947 864.636749,1552.24549 C905.783089,1515.55483 928.941658,1494.37657 936.147768,1489.97589 C962.936896,1471.71308 976.028914,1462.03159 976.138931,1461.4815 C964.092074,1454.82548 943.29887,1465.11206 912.769166,1491.73616 L912.714157,1491.84618 Z M1517.75239,1627.55209 C1534.90466,1670.69989 1544.21877,1716.56254 1545.25663,1762.98296 L1545.25663,1773.10452 C1545.59674,1817.08801 1537.83971,1860.75857 1522.3731,1901.93437 C1506.81163,1945.34359 1479.43383,1983.54295 1443.32592,2012.22637 C1400.30929,2045.67152 1347.39114,2061.734 1286.33173,2058.26846 L1277.0353,2057.44333 C1217.3511,2051.94249 1170.92395,2028.45387 1139.51411,1988.13265 C1076.96541,1907.76833 1049.76369,1805.43428 1064.15249,1704.61897 C1072.72547,1642.55814 1100.70119,1584.79683 1144.07981,1539.59354 C1179.45026,1502.24278 1229.39796,1483.48489 1295.07808,1480.62445 C1308.77695,1480.02426 1322.49972,1480.26307 1336.16941,1481.33956 C1381.44138,1485.02513 1418.35207,1498.94227 1447.89162,1524.02614 C1477.43118,1549.11001 1500.3147,1583.65533 1517.75239,1627.55209 Z M1116.7956,1646.75005 C1122.41917,1633.14209 1128.77271,1619.8474 1135.82854,1606.92391 C1156.56673,1571.05839 1189.02173,1545.2044 1232.69846,1528.04176 C1244.94346,1523.96046 1257.48625,1520.83396 1270.21425,1518.69032 C1280.7746,1517.17612 1291.10447,1514.3488 1300.96398,1510.27402 C1248.10084,1505.26825 1204.20407,1517.15008 1167.56843,1547.18471 C1130.93278,1577.21934 1108.15927,1619.63087 1100.45809,1675.68451 C1107.37903,1666.95037 1112.89147,1657.1876 1116.7956,1646.75005 Z M1233.08352,1752.2013 C1221.1982,1766.70388 1213.57995,1784.22587 1211.08013,1802.8091 C1208.82479,1825.47259 1217.13107,1848.08107 1236.60407,1870.24949 C1250.35619,1886.14694 1265.26348,1894.83828 1280.99591,1896.2685 C1284.12542,1896.54202 1287.27284,1896.54202 1290.40236,1896.2685 C1309.65532,1894.83828 1325.49776,1883.45152 1337.70965,1862.32827 C1348.23358,1845.13083 1354.49511,1825.6673 1355.97246,1805.55952 C1356.66508,1793.60841 1355.30693,1781.62692 1351.95684,1770.13406 C1341.89029,1735.25869 1324.4526,1716.77584 1299.58877,1714.30046 C1274.72494,1711.82508 1253.54668,1724.75207 1233.08352,1752.2013 Z M1357.67772,1897.14863 C1374.03612,1876.94414 1383.26055,1851.90089 1383.91677,1825.91266 C1383.31167,1826.46274 1377.59079,1837.29941 1366.47908,1858.31265 C1355.58109,1878.84779 1339.13169,1895.90713 1319.00676,1907.54524 C1299.69879,1918.54693 1289.57723,1924.92792 1288.80711,1927.12825 C1315.43209,1929.89894 1341.56353,1918.52383 1357.67772,1897.14863 Z M1863.42565,1617.26551 C1870.68677,1586.68079 1877.17777,1562.25703 1883.11869,1543.8842 C1899.07115,1494.37657 1919.97437,1467.53243 1947.25857,1462.52666 L1949.23888,1462.25162 C1965.46092,1459.49289 1982.08805,1460.28108 1997.97639,1464.56198 C2016.95431,1470.06282 2029.38623,1480.51444 2035.0521,1496.02683 C2036.53928,1500.14469 2037.60816,1504.40181 2038.24259,1508.73378 C2047.09896,1544.32427 2024.27044,1619.41084 1958.53531,1730.96803 C1927.9506,1782.51097 1922.22971,1835.48413 1945.00322,1890.49261 C1956.00492,1938.18496 1959.52546,1973.72043 1955.67487,1997.26406 C1953.21782,2019.74419 1947.47861,2034.24809 1938.45722,2040.77577 C1927.45552,2050.40225 1904.07692,2057.60836 1868.9265,2061.51396 L1867.05621,2061.51396 C1833.44603,2064.92449 1809.95741,2063.43926 1796.81039,2057.71838 C1783.9665,2052.65612 1773.30101,2043.25569 1766.66574,2031.14928 C1760.84207,2018.31515 1757.1271,2004.62551 1755.66405,1990.60804 C1752.63579,1968.42895 1751.80663,1946.00489 1753.18867,1923.66272 C1754.15905,1900.4585 1756.3625,1877.32228 1759.78968,1854.35204 C1762.84485,1833.50004 1758.31647,1812.24399 1747.02772,1794.44781 C1739.98663,1782.51097 1723.20905,1762.48788 1697.52009,1733.93849 C1649.5527,1680.52525 1626.00907,1651.42577 1624.13878,1648.45531 C1592.83896,1606.97892 1577.98667,1575.56908 1577.76664,1554.9409 L1577.76664,1552.85058 C1578.42883,1532.87067 1589.74301,1514.77638 1607.4162,1505.43327 C1618.1273,1499.0625 1630.27599,1495.50494 1642.73165,1495.09168 C1651.69252,1494.85804 1660.64043,1495.914 1669.30074,1498.22716 C1706.81652,1507.5236 1738.66643,1530.84719 1765.62058,1568.80304 C1783.60835,1594.492 1802.14621,1632.1178 1821.72923,1681.73544 C1828.11021,1697.52287 1832.73092,1705.27907 1835.53636,1704.94902 C1838.34179,1704.61897 1842.13737,1695.65259 1847.63822,1678.65497 C1849.83856,1671.33884 1855.33941,1650.93069 1863.42565,1617.26551 Z M1624.30381,1542.12393 C1629.96059,1537.67227 1634.57856,1532.04059 1637.83589,1525.62139 C1615.00737,1526.3915 1603.67563,1532.33242 1603.89566,1543.8842 C1604.12403,1547.7226 1605.15469,1551.47047 1606.92113,1554.8859 C1613.3654,1551.59673 1619.23539,1547.28712 1624.30381,1542.12393 Z M1840.54213,1720.90148 C1843.64058,1722.95813 1847.34287,1723.90794 1851.04875,1723.59689 C1862.32548,1722.38671 1873.05214,1707.09435 1882.89865,1678.32492 C1886.78592,1666.51643 1890.72819,1651.71915 1894.72548,1633.93308 C1896.88914,1624.03155 1899.01614,1614.11169 1901.10646,1604.17349 C1914.08846,1553.67571 1925.09016,1524.52122 1935.21172,1516.82003 C1946.21341,1501.85772 1952.26434,1494.21155 1953.36451,1494.04652 L1953.36451,1494.48659 C1950.28477,1492.55434 1946.62753,1491.75675 1943.02292,1492.23124 C1928.28065,1494.43158 1915.51868,1514.23463 1903.91189,1551.47537 C1898.41104,1568.96806 1892.63515,1591.41152 1886.03414,1618.86075 C1879.43312,1646.30998 1875.03244,1662.15242 1874.31733,1664.51779 C1869.26226,1676.44784 1862.47851,1687.56875 1854.18423,1697.52287 C1844.77778,1709.29469 1840.15707,1716.99587 1840.48712,1720.62643 L1840.54213,1720.90148 Z M2577.05062,1830.0933 C2578.012,1832.25889 2578.8387,1834.4818 2579.526,1836.74933 C2583.75102,1851.24694 2581.35513,1866.87054 2572.97999,1879.43591 C2563.20755,1895.89073 2547.74923,1908.19868 2529.52329,1914.03624 C2508.84568,1921.1285 2486.23107,1919.98595 2466.37356,1910.84575 C2442.71992,1899.84405 2423.24692,1879.27088 2407.84454,1849.07123 C2393.76237,1821.56699 2375.55457,1811.00536 2352.83607,1816.67123 L2351.0758,1817.16631 C2329.45747,1823.16223 2314.38514,1841.48006 2305.41876,1872.17479 C2293.59194,1913.1561 2287.21096,1933.72927 2287.32097,1934.00431 L2287.70603,1933.45423 C2280.37149,1952.86552 2267.73529,1969.82815 2251.23541,1982.41177 C2239.53659,1991.75621 2225.88884,1998.3545 2211.29926,2001.71975 C2207.45591,2002.5449 2203.55886,2003.09637 2199.63746,2003.37 C2183.11606,2005.82979 2166.38121,2000.55578 2154.25547,1989.0678 C2144.75422,1979.37287 2138.68776,1966.83424 2136.98281,1953.3673 C2135.86858,1946.36387 2135.33502,1939.28035 2135.38756,1932.18903 C2135.38756,1907.49023 2137.25785,1879.10585 2140.00827,1847.03591 C2143.80386,1805.00944 2146.77432,1772.22438 2149.41472,1748.68076 C2153.8154,1713.58535 2157.88603,1683.3857 2161.84664,1658.02679 C2183.13492,1519.57045 2207.6687,1435.90256 2242.37905,1405.86793 C2247.97333,1401.01935 2254.5368,1397.41882 2261.63201,1395.30631 C2287.04593,1388.1552 2316.97054,1404.71275 2353.11111,1444.42887 C2422.75184,1522.10084 2497.34333,1650.05056 2577.05062,1830.0933 Z M2169.98789,1918.76697 C2169.71285,1918.76697 2169.49282,1918.76697 2169.43781,1918.43692 C2168.39265,1912.93607 2173.39842,1869.47937 2182.14477,1788.17684 C2187.1322,1739.07261 2192.63305,1695.92763 2198.64731,1658.7419 C2214.37973,1561.92698 2232.9726,1492.89134 2256.95629,1451.19492 C2262.1821,1442.50358 2264.21741,1435.95757 2263.22726,1431.6119 C2263.02335,1430.77638 2262.68921,1429.97816 2262.23711,1429.24654 C2260.89812,1429.33331 2259.57125,1429.55445 2258.2765,1429.90664 C2243.97429,1433.86725 2231.0473,1457.41088 2218.34034,1500.97759 C2204.46395,1552.92904 2193.82684,1605.69201 2186.49044,1658.96193 C2167.4575,1783.17107 2157.99604,1864.36358 2164.8721,1902.59447 C2165.64044,1908.22059 2167.37094,1913.6726 2169.98789,1918.71196 L2169.98789,1918.76697 Z M2347.39023,1679.92016 C2339.79906,1663.45429 2333.3814,1650.43562 2328.13726,1640.86414 C2317.68565,1621.99624 2309.92946,1613.35991 2304.70365,1614.68011 C2300.85306,1615.72527 2298.21265,1620.84106 2296.78243,1629.91746 C2295.35221,1638.99386 2294.36206,1665.28791 2294.74712,1711.05496 C2294.78312,1714.33455 2295.05889,1717.60711 2295.57224,1720.84647 L2295.84729,1722.05665 C2296.3607,1723.08348 2297.62589,1723.32185 2299.64287,1722.77176 C2300.9317,1722.413 2302.18404,1721.93417 2303.38345,1721.34154 C2308.78954,1718.48155 2314.48838,1716.21308 2320.38107,1714.5755 C2326.93019,1712.67274 2333.69658,1711.61896 2340.51417,1711.44002 C2343.26459,1711.44002 2348.05033,1711.44002 2354.92639,1710.83493 L2359.93216,1710.83493 C2360.29337,1710.78864 2360.61454,1710.58217 2360.80658,1710.27276 C2360.99863,1709.96335 2361.04114,1709.58391 2360.92231,1709.23968 L2360.92231,1708.41455 C2359.82214,1707.25937 2355.53148,1697.6879 2347.61026,1679.86515 L2347.39023,1679.92016 Z M2349.1505,1740.42949 C2354.14092,1739.58414 2359.08086,1738.46393 2363.94778,1737.07397 C2378.24998,1732.94833 2386.44625,1727.11743 2388.53657,1719.80131 C2389.41165,1716.52149 2389.41165,1713.06958 2388.53657,1709.78976 C2384.88463,1698.96851 2379.29255,1688.90278 2372.03403,1680.08519 C2372.82311,1682.03349 2373.46664,1684.03763 2373.95932,1686.08111 C2375.65092,1692.84172 2376.00595,1699.86761 2375.00448,1706.7643 C2373.033,1721.65934 2363.25971,1734.36882 2349.37053,1740.09943 L2349.1505,1740.42949 Z" id="Shape"></path>
        </g>
    </g>
</svg>