<?xml version="1.0" encoding="UTF-8"?>
<svg width="2760px" height="4596px" viewBox="0 0 2760 4596" version="1.1" xmlns="http://www.w3.org/2000/svg" xmlns:xlink="http://www.w3.org/1999/xlink">
    <!-- Generator: Sketch 51.3 (57544) - http://www.bohemiancoding.com/sketch -->
    <title>Group 15</title>
    <desc>Created with Sketch.</desc>
    <defs></defs>
    <g id="Page-1" stroke="none" stroke-width="1" fill="none" fill-rule="evenodd">
        <g id="Group-15" fill-rule="nonzero">
            <path d="M446,0.013565516 L2314,0.013565516 C2560.319,0.013565516 2760,199.694567 2760,446.013566 L2760,4149.01357 C2760,4395.33256 2560.319,4595.01357 2314,4595.01357 L446,4595.01357 C199.681002,4595.01357 8.70087962e-14,4395.33256 5.68434189e-14,4149.01357 L0,446.013566 C-3.01653773e-14,199.694567 199.681002,0.013565516 446,0.013565516 Z M455,918.013566 C389.278115,918.013566 336,971.29168 336,1037.01357 L336,3561.01357 C336,3626.73545 389.278115,3680.01357 455,3680.01357 L2303,3680.01357 C2368.72189,3680.01357 2422,3626.73545 2422,3561.01357 L2422,1037.01357 C2422,971.29168 2368.72189,918.013566 2303,918.013566 L455,918.013566 Z M1380,4419.01357 C1538.50572,4419.01357 1667,4290.51929 1667,4132.01357 C1667,3973.50784 1538.50572,3845.01357 1380,3845.01357 C1221.49428,3845.01357 1093,3973.50784 1093,4132.01357 C1093,4290.51929 1221.49428,4419.01357 1380,4419.01357 Z" id="Combined-Shape" fill="#000000"></path>
            <rect id="Rectangle-3" stroke="#979797" fill="#FFFFFF" x="1008.5" y="455.513566" width="744" height="133" rx="66.5"></rect>
            <g id="totoro" transform="translate(489.000000, 1271.000000)" fill="#000000">
                <g id="Layer_2">
                    <g id="Layer_1-2">
                        <path d="M1775.55856,1885.6545 C1750.63297,1894.61798 1725.70738,1902.74114 1700.22166,1910.30409 C1676.69639,1856.80327 1652.33093,1803.30245 1625.16484,1751.7624 C1583.9956,1673.61199 1533.86436,1598.82289 1466.08917,1541.12044 C1435.84239,1515.0703 1401.95479,1493.50191 1365.82669,1476.97548 C1376.18901,1475.57493 1385.99121,1472.21362 1395.51334,1467.45177 C1397.47378,1466.33134 1398.03391,1463.53025 1396.91366,1461.56948 C1396.35353,1460.72916 1395.51334,1460.16894 1394.67316,1459.88883 C1391.3124,1459.0485 1387.95165,1457.92807 1384.87096,1456.24741 C1377.30926,1449.8049 1376.18901,1446.16349 1381.5102,1445.04305 L1385.99121,1448.12425 C1387.95165,1449.24469 1390.75228,1448.68447 1391.87253,1446.4436 C1392.15259,1445.88338 1392.43265,1445.04305 1392.43265,1444.48283 C1391.87253,1438.60054 1387.67159,1435.79946 1382.91052,1435.79946 L1371.98807,1427.9564 L1385.99121,1428.23651 C1388.23171,1428.23651 1390.19215,1426.27575 1390.19215,1424.03488 C1390.19215,1422.63433 1389.35196,1421.23379 1388.23171,1420.39346 C1384.03077,1418.4327 1380.67002,1415.3515 1378.42951,1411.71008 C1390.19215,1417.03215 1405.5956,1412.55041 1414.27755,1402.18638 C1422.9595,1391.54223 1424.35981,1376.97657 1424.91994,1364.09155 C1425.48006,1343.6436 1424.91994,1323.47575 1424.91994,1303.02779 L1424.07975,1051.48992 L1423.79969,993.507357 C1423.79969,979.501907 1425.48006,962.695368 1418.47849,949.810354 C1406.15573,926.841417 1375.62889,933.003815 1360.50549,949.250136 C1349.58305,960.734605 1343.42166,976.140599 1336.70016,990.426158 L1330.53878,1003.59128 C1330.81884,980.342234 1322.69702,957.373297 1307.57363,939.446322 C1290.4898,918.158038 1270.60534,900.511172 1257.16232,876.141689 C1230.55636,828.243052 1222.99466,772.221253 1215.1529,718.720436 L1157.17991,321.245777 C1154.09922,300.237602 1150.17834,208.641962 1106.20848,225.448501 C1086.32402,233.291553 1079.60251,265.784196 1073.16107,283.150954 C1062.79874,312.00218 1053.83673,341.413624 1046.27504,371.105177 C1039.27347,399.956403 1033.39215,429.087738 1029.19121,458.779292 C1010.98713,448.975477 991.662794,441.692643 972.058399,436.650681 C985.22135,429.367847 996.423862,420.124251 1003.14537,406.39891 C1011.54725,389.312262 1014.62794,368.864305 1018.54882,350.097003 C1026.95071,310.601635 1028.63108,273.06703 1019.94914,233.571662 C1014.90801,210.882834 1008.1865,188.474114 1004.82575,165.505177 C1001.74505,143.656676 1002.86531,122.088283 1003.70549,100.239782 C1005.10581,65.506267 1005.38587,28.8119891 980.460283,1.92152589 C978.779906,0.240871935 976.259341,0.240871935 974.578964,1.92152589 C944.350196,36.6633343 926.691919,80.5696462 924.447724,126.570027 C897.281633,113.685014 865.634537,115.645777 840.148823,131.33188 C835.947881,90.7160763 816.903611,53.1814714 786.096703,26.0108992 C785.536578,25.7307902 785.256515,25.4506812 784.696389,25.1705722 C783.296075,22.3694823 779.095133,20.9689373 777.414757,24.6103542 C761.451177,60.4643052 755.009733,99.679564 758.930612,138.614714 C760.050863,150.099183 761.171115,161.023433 757.250235,172.227793 C753.889482,181.751499 748.288226,190.434877 743.527159,199.398365 C734.565149,216.765123 728.403768,235.532425 724.762951,254.859946 C718.321507,291.274114 715.520879,328.248501 717.201256,365.222888 C718.321507,399.676294 730.084144,428.807629 762.291366,444.773842 C769.572998,448.415259 777.134694,451.496458 784.696389,454.297548 C764.531868,463.821253 745.767661,475.585831 728.403768,490.151499 C721.122135,441.132425 711.880063,392.113351 696.756672,345.055041 C685.834223,311.441962 663.429199,240.854496 616.098587,247.577112 C614.978336,247.857221 614.41821,248.13733 613.858085,248.697548 C595.093878,257.941144 592.853375,287.07248 591.172998,304.999455 C586.691994,347.856131 588.932496,391.553134 590.052747,434.689918 C592.853375,540.010899 595.093878,650.653951 564.28697,752.613624 C528.718995,870.819619 464.584615,982.022888 463.744427,1108.35204 C463.744427,1118.43597 464.02449,1128.23978 464.864678,1138.32371 C445.540345,1099.94877 425.93595,1061.57384 406.611617,1023.19891 C401.010361,1012.55477 394.84898,999.109537 382.526217,994.627793 C372.163893,990.706267 362.361695,995.748229 355.920251,1004.1515 C348.078493,1014.79564 344.717739,1028.80109 341.356986,1041.12589 C336.875981,1058.49264 333.515228,1075.8594 331.554788,1093.78638 C322.592779,1170.53624 333.515228,1248.40654 321.75259,1325.1564 C316.991523,1356.80872 304.108634,1397.42452 326.513658,1425.43542 C338.276295,1440.00109 358.440816,1449.24469 375.80471,1443.92262 C375.80471,1447.28392 376.364835,1450.64523 378.325275,1453.72643 C379.445526,1455.68719 381.125903,1457.36785 382.806279,1458.76839 L369.363265,1476.41526 C367.122763,1479.49646 370.763579,1483.41798 374.124333,1482.57766 L382.526217,1480.33678 L373.564207,1490.70082 C373.004082,1490.98093 372.724019,1491.54114 372.163893,1491.82125 C370.763579,1493.50191 370.763579,1496.02289 372.443956,1497.70354 C374.124333,1499.10409 376.644898,1499.10409 378.045212,1497.70354 C383.646468,1491.82125 392.048352,1489.86049 399.610047,1492.38147 C316.71146,1569.97166 237.173626,1652.0436 164.3573,1739.15749 C120.387441,1791.81798 80.0583987,1849.80054 49.811617,1911.70463 C47.8511774,1915.62616 46.1708006,1919.54768 44.2103611,1923.46921 L5.56169545,1914.22561 C0.240502355,1912.82507 -2,1920.94823 3.32119309,1922.34877 C15.643956,1925.42997 28.2467818,1928.51117 40.5695447,1931.31226 C26.0062794,1965.20545 13.9635793,2003.02016 18.444584,2039.99455 L18.444584,2041.3951 C19.0047096,2044.19619 20.1249608,2046.99728 21.2452119,2049.79837 C22.0854003,2052.03924 24.3259027,2053.15967 26.566405,2052.59946 C100.783046,2041.3951 174.999686,2031.87139 249.496389,2022.9079 C304.388697,2016.4654 359.84113,2014.50463 415.013501,2016.7455 C476.627316,2018.98638 537.681005,2027.38965 599.294819,2030.47084 C723.082575,2036.63324 847.430455,2031.03106 970.938148,2028.79019 L1348.18273,2021.78747 C1415.95793,2020.66703 1484.01319,2018.70627 1551.78838,2023.46812 C1616.48289,2027.66975 1683.69796,2046.99728 1748.39246,2032.43161 C1750.63297,2031.87139 1752.03328,2029.35041 1751.19309,2027.10954 C1751.19309,2026.82943 1750.91303,2026.54932 1750.91303,2026.26921 C1734.94945,1990.41526 1719.546,1954.2812 1703.86248,1918.42725 C1728.78807,1910.86431 1753.43359,1902.74114 1778.07912,1894.05777 C1782.84019,1891.81689 1780.59969,1883.69373 1775.55856,1885.6545 Z M742.68697,420.124251 C729.243956,404.438147 726.163265,383.149864 725.883203,363.262125 C725.043014,328.248501 726.443328,291.554223 733.164835,257.380926 C736.805651,237.493188 743.527159,218.165668 753.049294,199.958583 C760.891052,185.112807 768.452747,171.947684 768.73281,154.580926 C769.012873,134.973297 765.372057,116.205995 767.052433,96.3182561 C769.012873,75.0299728 774.334066,54.0217984 782.73595,34.4141689 C812.142543,61.5847411 830.066562,99.119346 832.587127,139.174932 C832.86719,141.976022 836.227943,144.777112 839.028571,142.816349 C864.514286,123.768937 898.962009,121.528065 926.688226,137.214169 C928.648666,138.334605 931.449294,137.774387 932.569545,135.533515 C932.849608,134.973297 933.12967,134.13297 933.12967,133.572752 C933.969859,89.0354223 949.653375,45.8986376 977.939717,11.7253406 C998.104239,36.6550409 996.983987,69.9880109 995.583673,100.8 C994.183359,132.172207 994.743485,161.86376 1001.74505,192.675749 C1009.86688,228.809809 1020.50926,263.823433 1017.9887,301.358038 C1016.30832,321.525886 1012.94757,341.693733 1007.90644,361.581471 C1003.98556,378.948229 1001.18493,398.555858 989.702355,412.841417 C982.140659,422.085014 971.21821,428.807629 960.015699,434.1297 C905.963579,422.925341 848.830769,428.247411 797.859341,449.255586 C794.218524,448.13515 790.577708,447.294823 786.936892,446.174387 C770.69325,440.572207 754.169545,433.009264 742.68697,420.124251 Z M490.630455,986.504632 C506.313972,930.202725 530.399372,876.421798 550.28383,821.800545 C569.608163,768.299728 586.411931,714.79891 592.29325,657.936785 C597.33438,611.99891 599.854945,565.780926 600.135008,519.562943 C600.135008,474.745504 598.174568,430.208174 597.614443,385.390736 C597.054317,350.93733 595.37394,313.962943 604.055887,280.349864 C606.296389,271.946594 609.657143,259.621798 618.899215,256.26049 C619.179278,256.26049 619.179278,256.26049 619.459341,255.980381 C641.584301,253.179292 657.267818,276.148229 666.50989,292.954768 C679.392779,315.643597 687.794662,340.853406 694.796232,366.063215 C706.838932,410.040327 715.800942,454.577657 721.962323,499.675204 C722.522449,503.036512 727.003454,503.316621 728.963893,501.635967 C749.408477,483.428883 772.373626,469.143324 797.299215,458.499183 C801.500157,455.978202 806.82135,453.73733 813.542857,452.056676 C854.992151,437.491008 900.362323,433.009264 943.772057,439.451771 C950.213501,439.451771 956.094819,440.852316 960.855887,442.53297 C985.22135,447.855041 1008.74662,456.53842 1030.59152,468.863215 C1032.55196,469.983651 1035.07253,469.423433 1036.47284,467.182561 C1036.7529,466.902452 1036.7529,466.622343 1036.7529,466.342234 C1044.87473,408.919891 1058.31774,352.617984 1077.08195,297.716621 C1082.6832,281.190191 1099.76703,213.123706 1126.373,237.773297 C1143.73689,253.73951 1143.45683,285.391826 1146.53752,306.680109 L1199.74945,671.101907 C1207.31115,723.482289 1212.63234,777.263215 1228.31586,828.243052 C1235.03736,851.211989 1245.11962,873.340599 1258.00251,893.508447 C1270.60534,912.555858 1287.40911,927.401635 1301.69231,945.32861 C1322.13689,971.098638 1324.65746,999.389646 1318.77614,1027.96076 L1310.37425,1045.88774 L1273.96609,1122.6376 C1273.96609,1102.18965 1272.00565,1081.46158 1268.36484,1061.01362 C1251.281,966.897003 1194.14819,870.53951 1102.84772,832.724796 C1053.55667,812.276839 997.544113,805.554223 944.612245,804.713896 C889.719937,803.873569 835.107692,810.876294 782.455887,825.441962 C688.914914,851.211989 587.532182,901.351499 536.560754,987.905177 C488.670016,1069.41689 499.872527,1164.93406 523.117739,1254.00872 C521.437363,1251.20763 520.037049,1248.12643 518.636735,1245.32534 C504.073469,1216.75422 489.790267,1188.18311 475.507064,1159.8921 C475.507064,1159.05177 475.227002,1158.21144 475.227002,1157.37112 C468.225432,1099.66866 475.227002,1041.6861 490.630455,986.504632 Z M1215.71303,1308.91008 C1216.83328,1312.27139 1218.23359,1315.6327 1219.63391,1318.99401 C1220.19403,1319.83433 1220.4741,1320.67466 1221.03422,1321.51499 C1219.35385,1322.91553 1217.67347,1324.03597 1215.71303,1325.43651 C1210.6719,1328.79782 1205.63077,1331.87902 1200.30958,1334.4 C1187.70675,1340.5624 1174.26374,1344.48392 1160.82072,1347.56512 C1114.61036,1358.20926 1066.1595,1361.85068 1018.54882,1366.89264 C998.384301,1361.29046 977.939717,1356.52861 957.215071,1353.72752 C865.354474,1340.84251 773.77394,1363.81144 686.114286,1389.86158 L671.831083,1394.06322 C661.748823,1392.10245 651.666562,1389.30136 641.864364,1385.94005 C607.696703,1373.61526 578.29011,1353.44741 553.924647,1327.95749 C553.924647,1327.67738 553.924647,1327.11717 553.644584,1326.83706 L553.644584,1327.11717 C523.397802,1233.00054 491.750706,1125.99891 526.758556,1028.80109 C560.926217,934.124251 656.707692,876.982016 746.887912,845.3297 C844.069702,811.156403 953.014129,802.473025 1053.55667,826.00218 C1105.08823,838.046866 1149.89827,862.696458 1184.62606,903.032153 C1215.99309,939.726431 1238.95824,982.863215 1252.12119,1029.36131 C1262.76358,1066.05559 1266.68446,1103.59019 1265.28414,1141.1248 L1255.48195,1161.85286 C1238.67818,1197.4267 1215.43297,1234.96131 1212.07221,1275.01689 C1210.95196,1285.94114 1212.07221,1297.98583 1215.71303,1308.91008 Z M1215.71303,1413.11063 C1154.9394,1411.14986 1097.52653,1390.14169 1039.55353,1372.77493 C1068.11994,1369.41362 1096.96641,1366.05232 1125.53281,1362.13079 C1159.70047,1357.64905 1197.50895,1350.36621 1225.23516,1328.79782 C1230.2763,1336.08065 1236.43768,1342.24305 1244.27943,1346.7248 C1234.47724,1355.40817 1221.03422,1365.77221 1218.79372,1378.097 C1218.51366,1379.21744 1218.51366,1380.33787 1218.51366,1381.45831 C1213.75259,1382.85886 1209.83171,1386.78038 1207.87127,1391.82234 C1204.51052,1400.22561 1209.27159,1407.50845 1215.71303,1413.11063 Z M539.081319,1410.30954 C537.961068,1408.34877 535.16044,1407.78856 533.2,1408.90899 C532.359812,1409.46921 531.519623,1410.30954 531.23956,1411.42997 L530.959498,1413.11063 C528.718995,1408.62888 527.038619,1403.86703 525.358242,1399.10518 C524.518053,1396.02398 523.397802,1393.22289 521.717425,1390.70191 C539.081319,1379.77766 548.603454,1360.17003 550.003768,1339.16185 L550.003768,1336.08065 C562.046468,1348.12534 575.209419,1359.04959 589.772684,1368.85341 C610.777394,1382.85886 632.902355,1392.66267 656.42763,1398.82507 C616.098587,1411.14986 575.489482,1423.47466 534.320251,1433.27847 L537.961068,1418.71281 C540.20157,1417.03215 540.761695,1413.95095 539.081319,1410.30954 Z M1741.39089,2025.42888 C1683.13783,2036.91335 1623.48446,2020.94714 1565.2314,2016.18529 C1503.89765,2011.14332 1442.56389,2011.98365 1380.95008,2013.10409 C1256.32214,2015.34496 1131.41413,2017.58583 1006.78619,2020.10681 C882.99843,2022.34768 758.370487,2027.66975 634.582732,2024.02834 C516.676295,2020.38692 399.89011,2000.21907 281.703611,2011.42343 C196.844584,2019.54659 111.985557,2031.59128 27.6866562,2044.47629 C27.1265306,2043.07575 26.8464678,2041.6752 26.2863422,2040.27466 C21.8053375,2003.86049 34.1281005,1966.8861 48.9714286,1933.55313 C126.828885,1951.48011 205.526531,1965.76567 284.504239,1976.1297 C289.825432,1976.68992 289.825432,1968.28665 284.504239,1967.72643 C206.366719,1957.3624 129.069388,1943.35695 52.3321821,1925.71008 C52.6122449,1925.14986 52.8923077,1924.30954 53.4524333,1923.46921 C71.9365777,1884.25395 94.9017268,1847.27956 119.827316,1811.70572 C158.475981,1756.52425 203.005965,1706.10463 248.376138,1656.80545 C299.907692,1600.78365 353.679749,1546.44251 409.692308,1494.34223 C411.372684,1492.66158 411.372684,1489.86049 409.692308,1488.45995 C409.412245,1488.17984 409.132182,1487.89973 408.852119,1487.89973 C403.250863,1484.25831 397.089482,1482.85777 390.9281,1483.41798 L397.369545,1476.13515 C399.049922,1474.4545 399.049922,1471.65341 397.369545,1470.25286 C396.249294,1469.13243 394.84898,1468.85232 393.448666,1469.13243 L383.366405,1471.93351 L392.328414,1460.16894 C393.448666,1458.20817 392.88854,1455.40708 390.648038,1454.28665 C390.367975,1454.00654 390.087912,1454.00654 389.807849,1454.00654 C383.366405,1452.04578 382.246154,1444.48283 385.606907,1439.72098 C387.007221,1438.88065 388.127473,1437.76022 389.527786,1436.63978 C393.168603,1433.27847 388.407535,1427.67629 384.486656,1429.91717 C384.206593,1430.19728 383.926531,1430.19728 383.646468,1430.47738 C361.80157,1450.64523 330.7146,1425.99564 324.833281,1403.0267 C316.991523,1373.33515 328.75416,1341.40272 332.114914,1311.99128 C339.116484,1253.16839 334.355416,1193.78529 336.875981,1134.68229 C337.71617,1104.99074 341.637049,1075.57929 348.638619,1046.72807 C351.719309,1034.68338 355.360126,1013.95531 366.282575,1006.11226 C385.326845,992.386921 397.649608,1025.71989 404.091052,1038.3248 L467.385243,1163.53351 L480.268132,1189.02343 L490.07033,1208.07084 C506.033909,1239.44305 525.638305,1271.09537 536.280691,1304.70845 C536.840816,1306.94932 537.681005,1308.91008 538.24113,1311.15095 C539.641444,1316.19292 540.481633,1321.7951 540.761695,1327.11717 C542.722135,1351.48665 535.720565,1376.97657 511.355102,1387.3406 L509.674725,1388.18093 C509.394662,1388.18093 509.1146,1388.46104 508.834537,1388.46104 C508.834537,1388.46104 508.554474,1388.46104 508.554474,1388.74114 C504.633595,1390.98202 507.15416,1398.26485 511.915228,1396.30409 C512.475353,1396.02398 513.035479,1395.74387 513.595604,1395.74387 C516.396232,1396.30409 518.636735,1412.55041 520.597174,1415.07139 C522.837677,1417.87248 525.638305,1420.11335 528.999058,1420.95368 L524.518053,1438.88065 C523.957928,1441.12153 525.358242,1443.3624 527.598744,1443.92262 C528.15887,1444.20272 528.999058,1444.20272 529.839246,1443.92262 C578.010047,1432.71826 625.340659,1417.59237 672.951334,1403.30681 C674.351648,1402.74659 675.751962,1402.46649 677.432339,1401.90627 L677.712402,1401.90627 C682.193407,1400.50572 686.674411,1399.10518 691.435479,1397.70463 C728.963893,1386.50027 766.492308,1376.41635 804.860911,1369.13351 C851.351334,1360.17003 898.962009,1356.2485 946.292622,1361.57057 C962.816327,1363.53134 979.059969,1366.61253 995.023548,1370.25395 C995.863736,1370.53406 996.703925,1370.81417 997.824176,1370.81417 C1003.42543,1372.21471 1009.02669,1373.61526 1014.62794,1375.29591 L1017.9887,1376.13624 C1039.55353,1382.01853 1060.8383,1388.74114 1082.12308,1395.46376 C1130.29388,1410.30954 1179.0248,1423.47466 1229.71617,1422.63433 C1231.95667,1422.63433 1233.91711,1420.67357 1233.91711,1418.4327 C1233.91711,1417.03215 1233.07692,1415.63161 1231.95667,1414.79128 C1228.59592,1413.11063 1225.23516,1411.14986 1222.43454,1408.62888 C1218.79372,1406.66812 1217.95353,1403.58692 1219.91397,1398.82507 C1217.95353,1393.22289 1218.51366,1390.70191 1221.31429,1390.70191 C1222.7146,1392.10245 1224.67504,1392.66267 1227.47567,1392.38256 C1229.71617,1392.38256 1231.67661,1390.4218 1231.67661,1387.90082 C1231.67661,1386.50027 1230.83642,1385.09973 1229.71617,1384.53951 L1227.1956,1382.85886 C1227.1956,1380.61798 1229.71617,1375.0158 1229.99623,1374.73569 C1232.79686,1371.6545 1235.59749,1368.5733 1238.67818,1365.77221 L1254.64176,1349.80599 C1256.32214,1348.12534 1256.32214,1345.60436 1254.64176,1343.92371 C1254.3617,1343.6436 1254.08163,1343.36349 1253.80157,1343.36349 C1243.71931,1338.60163 1236.43768,1332.43924 1231.11648,1325.1564 C1229.15604,1322.91553 1227.75573,1320.39455 1226.91554,1317.59346 L1226.63548,1317.87357 C1225.79529,1316.19292 1224.9551,1314.51226 1224.39498,1312.5515 C1223.27473,1310.59074 1222.43454,1307.50954 1221.87441,1304.42834 C1221.59435,1303.02779 1221.59435,1301.90736 1221.31429,1300.50681 C1221.31429,1300.50681 1221.31429,1300.78692 1221.03422,1300.78692 C1215.43297,1263.81253 1239.2383,1216.47411 1253.24144,1186.78256 L1263.60377,1164.93406 C1263.60377,1165.77439 1263.60377,1166.3346 1263.3237,1167.17493 L1328.57834,1026.28011 C1329.41852,1024.59946 1330.25871,1022.9188 1331.37896,1021.51826 L1336.70016,1010.59401 C1347.62261,987.625068 1361.34568,941.126975 1394.11303,943.928065 C1413.43736,945.608719 1415.11774,965.496458 1415.11774,980.622343 C1415.3978,997.148774 1415.11774,1013.6752 1415.11774,1030.48174 L1415.67786,1223.75695 L1415.95793,1334.4 C1415.95793,1350.64632 1417.91837,1369.13351 1413.43736,1385.09973 C1409.23642,1399.6654 1386.27127,1418.71281 1374.7887,1399.10518 C1373.66845,1397.14441 1370.86782,1396.5842 1368.90738,1397.70463 C1367.50706,1398.54496 1366.94694,1399.9455 1366.94694,1401.34605 C1366.66688,1408.62888 1368.90738,1415.63161 1373.38838,1420.95368 L1358.26499,1420.67357 C1356.02449,1420.67357 1354.06405,1422.63433 1354.06405,1424.8752 C1354.06405,1426.27575 1354.90424,1427.67629 1356.02449,1428.51662 L1373.38838,1440.84142 C1372.82826,1441.40163 1372.26813,1441.96185 1371.98807,1442.52207 C1363.86625,1452.32589 1373.38838,1460.44905 1382.91052,1465.49101 C1371.98807,1469.69264 1360.50549,1471.65341 1348.74286,1471.09319 L1347.34254,1471.09319 C1342.30141,1470.81308 1342.02135,1477.8158 1346.22229,1479.49646 C1517.0606,1547.56294 1605.28038,1720.6703 1675.8562,1878.93188 C1681.17739,1890.97657 1686.49859,1902.74114 1691.81978,1914.78583 C1619.28352,1936.07411 1545.627,1952.04033 1470.57017,1962.96458 C1465.24898,1963.8049 1467.48948,1971.92807 1472.81068,1971.08774 C1548.14757,1960.4436 1622.36421,1944.19728 1695.18053,1922.62888 C1710.58399,1955.40163 1725.98744,1990.41526 1741.39089,2025.42888 Z" id="Shape"></path>
                        <path d="M930.889168,1786.77602 C903.443014,1784.53515 875.156672,1782.01417 847.710518,1784.25504 C826.985871,1785.65559 806.261224,1788.73678 786.096703,1793.49864 C770.973312,1797.42016 749.968603,1803.02234 749.408477,1822.06975 C749.408477,1822.62997 749.408477,1823.19019 749.68854,1823.75041 C754.449608,1850.92098 785.816641,1846.71935 805.981162,1850.92098 C823.625118,1854.5624 839.86876,1862.96567 853.591837,1874.73025 C861.713658,1881.73297 869.275353,1897.97929 880.757928,1899.09973 C888.599686,1899.94005 894.200942,1893.49755 898.681947,1887.89537 C911.564835,1871.64905 924.447724,1862.40545 944.612245,1857.08338 C960.015699,1852.88174 975.979278,1851.76131 991.382732,1848.4 C1003.70549,1845.87902 1023.58995,1842.2376 1031.43171,1831.31335 C1057.19749,1796.01962 946.852747,1788.17657 930.889168,1786.77602 Z M1018.82889,1830.75313 C1013.50769,1835.23488 1001.18493,1837.47575 994.463422,1839.1564 C979.900157,1842.51771 965.336892,1843.63815 950.773626,1846.99946 C931.169231,1851.20109 911.564835,1858.76403 898.401884,1874.45014 C896.161381,1877.25123 894.200942,1880.33243 891.96044,1883.13351 C888.319623,1887.61526 882.438305,1890.97657 876.556986,1887.33515 C871.515856,1883.97384 867.314914,1876.13079 862.833909,1871.92916 C853.031711,1862.68556 842.109262,1855.40272 829.786499,1849.80054 C818.583987,1844.75858 806.541287,1841.95749 794.498587,1840.83706 C780.215385,1839.43651 761.171115,1839.43651 757.810361,1821.50954 C759.210675,1806.38365 784.976452,1802.46213 796.459027,1799.94114 C812.142543,1796.85995 827.82606,1794.61907 843.509576,1793.49864 C860.593407,1792.3782 877.677237,1792.09809 895.04113,1793.21853 C933.689796,1794.89918 975.699215,1796.29973 1012.38744,1809.74496 C1022.4697,1813.10627 1032.55196,1818.98856 1018.82889,1830.75313 Z M1272.28571,1705.82452 C1268.92496,1708.0654 1265.56421,1710.30627 1262.20345,1712.82725 C1265.56421,1709.74605 1268.92496,1707.22507 1272.28571,1705.82452 Z" id="Shape"></path>
                        <path d="M1452.08603,1734.95586 C1426.04019,1682.29537 1362.18587,1670.53079 1309.254,1682.29537 C1294.41068,1685.65668 1280.40754,1690.97875 1267.80471,1698.26158 C1265.00408,1699.94223 1262.48352,1701.62289 1259.96295,1703.30354 L1259.68289,1703.58365 C1250.16075,1710.58638 1241.47881,1719.26975 1234.19717,1729.63379 C1216.27316,1755.96403 1209.27159,1788.17657 1214.31272,1819.82888 C1214.31272,1820.3891 1214.59278,1820.66921 1214.59278,1821.22943 C1226.35542,1870.52861 1284.60848,1901.3406 1332.49922,1902.18093 C1364.70644,1902.46104 1396.07347,1891.81689 1421.55918,1871.92916 C1462.44835,1839.1564 1474.77111,1782.29428 1452.08603,1734.95586 Z M1262.48352,1712.82725 C1265.56421,1709.74605 1268.92496,1707.22507 1272.56578,1705.82452 C1274.24615,1704.9842 1275.92653,1704.42398 1277.88697,1704.42398 C1297.77143,1702.18311 1312.05463,1732.71499 1308.97394,1748.96131 C1305.89325,1764.92752 1289.36954,1782.57439 1272.00565,1781.45395 C1253.24144,1780.33351 1247.36013,1758.2049 1248.20031,1741.39837 C1251.00094,1745.03978 1255.48195,1746.72044 1261.0832,1745.6 C1265.56421,1744.75967 1273.40597,1741.39837 1274.24615,1736.07629 C1275.08634,1730.19401 1268.92496,1723.19128 1264.16389,1720.95041 C1261.92339,1719.82997 1259.12276,1719.54986 1256.6022,1719.82997 C1258.28257,1717.30899 1260.24301,1715.06812 1262.48352,1712.82725 Z M1262.48352,1729.9139 C1263.60377,1731.03433 1264.72402,1732.43488 1265.28414,1733.83542 L1265.28414,1734.11553 C1264.72402,1734.67575 1263.88383,1734.95586 1263.3237,1735.51608 C1261.92339,1736.3564 1260.52308,1736.91662 1259.12276,1737.19673 C1255.48195,1737.75695 1253.80157,1736.07629 1252.96138,1732.9951 C1252.96138,1727.67302 1259.12276,1726.8327 1262.48352,1729.9139 Z M1418.47849,1864.0861 C1396.07347,1883.13351 1365.26656,1893.49755 1336.14003,1894.05777 C1290.4898,1895.1782 1233.07692,1865.48665 1222.43454,1818.14823 C1222.43454,1817.86812 1222.43454,1817.86812 1222.15447,1817.58801 C1217.95353,1788.73678 1224.67504,1760.16567 1239.79843,1737.47684 C1237.55793,1757.64469 1244.27943,1784.25504 1266.12433,1789.297 C1289.08948,1794.61907 1312.33469,1772.49046 1316.53564,1751.20218 C1320.45651,1731.31444 1307.85369,1704.9842 1287.96923,1697.42125 C1292.17017,1695.7406 1296.37111,1694.34005 1300.57206,1693.21962 C1349.58305,1679.77439 1411.75699,1684.81635 1440.60345,1732.43488 C1466.64929,1775.01144 1456.00691,1832.15368 1418.47849,1864.0861 Z" id="Shape"></path>
                        <path d="M1267.80471,1698.54169 C1265.00408,1700.22234 1262.48352,1701.903 1259.96295,1703.58365 C1262.48352,1701.62289 1265.28414,1699.94223 1267.80471,1698.54169 Z M509.394662,1699.66213 C465.984929,1676.41308 405.771429,1690.69864 370.483516,1722.63106 C342.477237,1747.84087 323.71303,1789.297 326.233595,1827.39183 L326.233595,1827.67193 C326.793721,1839.71662 326.793721,1850.08065 333.235165,1860.44469 C340.516797,1871.64905 349.75887,1881.45286 360.401256,1889.57602 C380.84584,1905.26213 407.171743,1909.46376 432.097331,1911.42452 C458.143171,1913.38529 488.670016,1916.46649 513.035479,1903.58147 C537.961068,1890.41635 548.883516,1860.44469 554.764835,1834.67466 C566.24741,1785.93569 557.565463,1725.43215 509.394662,1699.66213 Z M506.594035,1723.47139 C505.753846,1731.87466 498.752276,1736.63651 490.630455,1736.3564 C485.869388,1733.55531 479.427943,1730.47411 483.06876,1724.59183 C485.589325,1720.39019 492.030769,1717.5891 496.511774,1716.74877 C502.393093,1715.34823 507.434223,1716.46866 506.594035,1723.47139 Z M498.752276,1707.78529 C490.07033,1708.62561 479.988069,1713.10736 475.787127,1720.6703 C469.345683,1731.59455 479.147881,1738.87738 487.549765,1743.91935 C488.389953,1744.47956 489.230141,1744.47956 490.07033,1744.47956 C502.393093,1745.88011 513.315542,1737.19673 514.995918,1725.15204 C515.275981,1724.03161 515.275981,1722.63106 515.275981,1721.51063 C525.078179,1735.79619 525.638305,1755.96403 511.915228,1769.12916 C498.472214,1782.01417 469.625746,1785.65559 457.02292,1768.84905 C451.141601,1761.00599 452.821978,1748.12098 452.541915,1738.87738 L452.541915,1738.03706 C452.541915,1725.71226 457.02292,1717.86921 467.945369,1711.4267 C477.467504,1705.26431 488.389953,1703.30354 498.752276,1707.78529 Z M551.124019,1799.38093 C550.563893,1824.31063 544.402512,1848.68011 533.2,1870.80872 C518.356672,1898.81962 491.190581,1904.4218 461.783987,1904.14169 C434.617896,1903.58147 404.371115,1903.02125 379.165463,1890.97657 C367.682889,1885.37439 359.000942,1876.97112 350.318995,1868.00763 C338.276295,1855.40272 335.475667,1844.19837 334.635479,1827.67193 C329.594349,1753.72316 397.649608,1691.81907 470.185871,1697.42125 C472.706436,1697.70136 475.227002,1697.98147 477.467504,1698.26158 C469.905808,1700.22234 462.904239,1703.86376 456.742857,1708.90572 C446.100471,1717.30899 443.859969,1725.71226 443.859969,1738.31717 C444.140031,1759.60545 443.299843,1775.29155 465.144741,1784.53515 C488.670016,1794.33896 516.956358,1785.93569 527.318681,1761.00599 C532.079749,1749.52153 531.23956,1736.3564 525.918367,1725.15204 C543.282261,1743.91935 551.684144,1771.37003 551.124019,1799.38093 Z M677.152276,1401.06594 C675.751962,1401.62616 674.631711,1401.90627 673.51146,1402.46649 L672.951334,1402.46649 C674.351648,1401.90627 675.751962,1401.34605 677.152276,1401.06594 Z M997.26405,1369.97384 C995.863736,1369.69373 994.743485,1369.69373 993.343171,1369.41362 L994.463422,1369.41362 C995.583673,1369.41362 996.423862,1369.69373 997.26405,1369.97384 Z M1017.70863,1375.29591 L1016.86845,1375.29591 C1016.02826,1375.0158 1015.18807,1374.45559 1014.06782,1374.17548 C1015.46813,1374.73569 1016.58838,1375.0158 1017.70863,1375.29591 Z M765.652119,585.388556 C756.410047,573.06376 741.846782,565.780926 726.723391,564.940599 C711.880063,564.66049 704.318367,571.383106 697.036735,583.988011 C697.036735,584.26812 696.756672,584.26812 696.756672,584.548229 C691.435479,594.352044 683.593721,605.276294 681.353218,616.480654 C678.832653,631.326431 681.353218,646.452316 688.634851,659.33733 C701.797802,682.026158 735.405338,694.070845 757.530298,676.984196 C783.296075,657.096458 785.256515,610.038147 765.652119,585.388556 Z M738.766091,676.423978 C711.6,681.185831 691.435479,657.376567 689.194976,632.446866 C687.794662,615.360218 695.916484,603.875749 704.038305,589.029973 L704.038305,588.749864 C704.878493,587.06921 705.998744,585.668665 707.118995,584.26812 L707.399058,583.988011 C725.883203,561.019074 758.370487,581.186921 767.052433,606.116621 C766.77237,605.836512 766.77237,605.556403 766.492308,605.556403 C760.891052,599.113896 748.848352,597.713351 744.087284,605.836512 C743.807221,606.39673 743.527159,606.956948 743.527159,607.517166 C740.726531,615.080109 744.927473,622.082834 751.64898,625.444142 C756.69011,627.965123 764.811931,630.205995 768.452747,624.603815 C769.012873,623.763488 769.292936,622.923161 769.853061,622.082834 C771.253375,644.491553 762.011303,672.222343 738.766091,676.423978 Z M1072.60094,590.710627 C1051.03611,570.542779 1020.50926,570.542779 1002.86531,595.192371 C1002.58524,595.47248 1002.58524,595.752589 1002.30518,595.752589 C1002.02512,596.032698 1001.74505,596.592916 1001.74505,596.873025 C991.102669,617.881199 995.023548,646.452316 1012.38744,662.978747 C1033.67221,682.866485 1066.99969,674.183106 1083.80345,652.894823 C1100.60722,631.886649 1090.52496,607.517166 1072.60094,590.710627 Z M1073.72119,651.774387 C1057.47755,668.300817 1029.75133,672.502452 1014.34788,652.894823 C1002.58524,637.768937 1000.90487,617.320981 1009.58681,600.234332 C1040.11366,555.977112 1108.72904,615.920436 1073.72119,651.774387 Z" id="Shape"></path>
                        <path d="M1029.19121,625.724251 C1028.35102,630.486104 1025.27033,634.687738 1021.06939,636.648501 C1015.74819,639.449591 1009.86688,637.488828 1008.46656,631.326431 C1008.46656,631.046322 1008.1865,630.486104 1008.1865,630.205995 C1007.34631,623.763488 1011.54725,617.881199 1017.9887,617.040872 L1019.10895,617.040872 C1024.99027,616.200545 1029.75133,619.561853 1029.19121,625.724251 Z M899.802198,633.287193 C890.280063,632.166757 842.669388,622.923161 842.109262,641.130245 C841.829199,641.690463 841.829199,642.53079 842.389325,643.651226 C848.270644,657.376567 861.433595,666.620163 873.756358,673.902997 C875.436735,674.743324 877.397174,674.463215 878.797488,673.342779 C890,664.099183 898.681947,652.054496 904.00314,638.609264 C904.843328,635.808174 902.0427,633.567302 899.802198,633.287193 Z M875.156672,664.93951 C865.634537,659.057221 854.992151,651.774387 850.511146,641.690463 C851.91146,636.92861 880.477865,639.449591 893.640816,640.850136 C889.159812,650.093733 882.99843,658.216894 875.156672,664.93951 Z M731.484458,1023.19891 C725.60314,1000.22997 716.361068,978.381471 704.59843,957.933515 C696.476609,944.768392 686.954474,927.681744 671.831083,922.079564 C671.270958,921.799455 670.710832,921.519346 669.870644,921.239237 C644.664992,917.317711 625.060597,940.286649 611.057457,958.213624 C593.973626,979.501907 581.370801,1004.1515 574.089168,1030.48174 C573.529042,1032.72262 574.929356,1034.96349 577.169859,1035.52371 C578.570173,1035.80381 579.970487,1035.52371 581.090738,1034.40327 L614.138148,1008.07302 L630.661852,994.907902 C635.702983,990.986376 642.42449,983.143324 648.585871,981.182561 C662.028885,977.541144 679.952904,996.028338 690.035165,1003.03106 L725.60314,1027.68065 C728.403768,1030.20163 732.324647,1026.56022 731.484458,1023.19891 Z M685.274097,989.585831 C675.751962,983.143324 663.149137,969.978202 650.546311,971.938965 C638.783673,973.899728 627.301099,987.06485 618.619152,994.067575 L586.131868,1019.8376 C592.29325,1001.63052 601.535322,984.543869 613.017896,969.137875 C625.060597,953.451771 644.384929,926.561308 666.789953,929.362398 C667.070016,929.362398 667.070016,929.362398 667.350078,929.642507 C682.473469,934.124251 693.115856,955.132425 700.677551,968.297548 C708.799372,982.863215 715.240816,998.26921 720.281947,1014.23542 L685.274097,989.585831 Z M966.737206,994.067575 C957.775196,947.849591 922.487284,899.110627 872.91617,891.547684 C872.636107,891.267575 872.075981,891.267575 871.515856,891.267575 C847.710518,890.707357 830.90675,912.275749 818.86405,930.202725 C803.460597,952.611444 792.81821,978.101362 787.497017,1004.71172 C786.936892,1006.95259 788.337206,1009.19346 790.577708,1009.75368 C791.978022,1010.03379 793.378336,1009.75368 794.498587,1008.63324 L828.946311,973.059401 C840.989011,960.734605 859.473155,932.443597 879.077551,940.286649 C892.800628,945.888828 905.963579,956.813079 918.006279,965.216349 C932.569545,975.300272 946.292622,986.224523 959.735636,997.708992 C961.416013,999.389646 964.216641,999.389646 965.616954,997.708992 C966.457143,997.148774 967.017268,995.46812 966.737206,994.067575 Z M919.966719,957.093188 C911.564835,951.210899 902.882889,945.608719 894.200942,940.286649 C887.479435,936.085014 879.637677,929.922616 871.515856,928.522071 C856.95259,926.00109 844.90989,945.32861 836.227943,954.011989 L798.979592,992.386921 C803.740659,974.740054 811.302355,957.653406 821.104553,942.247411 C832.307064,924.880654 847.990581,899.390736 871.515856,899.950954 L871.795918,899.950954 C913.525275,907.233787 943.772057,945.048501 955.534694,983.983651 C944.052119,974.459946 932.009419,965.496458 919.966719,957.093188 Z M1175.38399,1036.08392 C1168.94254,1013.11499 1160.2606,990.426158 1149.89827,968.857766 C1139.81601,948.1297 1125.25275,920.959128 1099.20691,918.718256 C1098.92684,918.718256 1098.36672,918.438147 1097.80659,918.438147 C1073.72119,919.558583 1058.5978,940.286649 1046.5551,958.773842 C1031.99184,980.902452 1021.62951,1005.83215 1016.30832,1031.88229 C1015.74819,1034.12316 1017.14851,1036.36403 1019.38901,1036.92425 C1020.78932,1037.20436 1022.18964,1036.92425 1023.30989,1035.80381 L1056.63736,1010.03379 L1073.44113,997.148774 C1083.80345,989.025613 1088.56452,983.143324 1103.68791,989.305722 C1128.33344,999.669755 1150.73846,1020.39782 1168.10235,1040.00545 C1169.78273,1041.6861 1172.58336,1041.6861 1173.98367,1040.00545 C1175.38399,1038.88501 1175.66405,1037.48447 1175.38399,1036.08392 Z M1138.69576,1001.0703 C1126.93312,992.386921 1111.52967,980.062125 1096.68634,977.541144 C1084.36358,975.300272 1074.56138,985.944414 1065.59937,992.947139 L1027.23077,1022.63869 C1031.99184,1004.43161 1039.27347,987.344959 1049.07567,971.098638 C1059.99812,953.171662 1074.56138,928.241962 1098.08666,926.841417 L1098.36672,926.841417 C1123.85243,928.241962 1138.13564,961.855041 1147.09765,981.742779 C1152.6989,994.627793 1157.74003,1007.79292 1162.22104,1020.95804 C1154.65934,1013.95531 1146.81758,1007.2327 1138.69576,1001.0703 Z" id="Shape"></path>
                        <path d="M850.231083,190.995095 C849.95102,190.434877 849.670958,189.874659 849.670958,189.59455 C849.390895,189.314441 849.110832,188.754223 848.830769,188.474114 C839.028571,176.149319 817.183673,175.589101 805.421036,184.832698 C791.978022,195.19673 791.978022,215.084469 797.859341,229.370027 C804.860911,247.016894 824.185243,253.73951 840.428885,243.095368 C858.072841,230.770572 857.792779,209.20218 850.231083,190.995095 Z M837.348195,234.13188 C825.025432,244.776022 809.621978,238.613624 804.580848,223.767847 C801.78022,215.084469 800.659969,203.6 805.981162,195.756948 C812.982732,185.673025 834.547567,182.311717 842.389325,193.796185 C848.550706,207.521526 849.670958,223.767847 837.348195,234.13188 Z M848.830769,188.194005 C849.110832,188.474114 849.390895,188.754223 849.670958,189.314441 C849.390895,189.034332 849.110832,188.754223 848.830769,188.194005 Z" id="Shape"></path>
                        <path d="M850.231083,190.995095 C849.95102,190.434877 849.670958,189.874659 849.670958,189.59455 C849.95102,190.154768 850.231083,190.714986 850.231083,190.995095 Z M970.378022,204.440327 C963.376452,189.314441 946.012559,173.06812 928.368603,182.031608 C928.08854,182.031608 927.808477,182.311717 927.528414,182.311717 C927.248352,182.591826 926.968289,182.591826 926.688226,182.871935 C912.405024,192.675749 902.882889,214.244142 911.284772,230.490463 C919.686656,246.456676 942.09168,248.13733 957.215071,241.694823 C973.458713,235.252316 977.659655,220.126431 970.378022,204.440327 Z M950.773626,235.532425 C940.411303,238.893733 925.287912,238.053406 919.126531,227.689373 C911.564835,215.084469 920.806907,196.877384 931.729356,189.874659 C945.452433,182.591826 958.895447,198.558038 963.376452,210.042507 C968.417582,222.367302 963.096389,231.610899 950.773626,235.532425 Z" id="Shape"></path>
                        <path d="M947.13281,208.361853 L947.13281,210.042507 C946.292622,215.364578 941.811617,219.005995 936.490424,219.005995 L934.810047,219.005995 C934.529984,219.005995 934.529984,218.725886 934.249922,218.725886 C929.768917,217.045232 925.848038,211.723161 930.04898,207.521526 C933.12967,204.440327 939.010989,204.440327 943.211931,204.160218 C945.17237,204.160218 947.13281,206.120981 947.13281,208.361853 Z M936.210361,219.286104 L934.529984,219.286104 C935.09011,219.005995 935.650235,219.286104 936.210361,219.286104 Z M825.025432,218.445777 C821.384615,221.246866 816.623548,222.92752 811.86248,222.647411 L810.742229,222.647411 C808.501727,222.087193 807.101413,219.846322 807.661538,217.60545 C808.501727,212.843597 811.302355,208.641962 815.503297,205.840872 C819.144113,203.319891 825.86562,201.079019 829.506436,204.720436 L829.786499,205.000545 L829.786499,205.280654 L830.066562,205.560763 C830.346625,206.120981 830.626688,206.961308 830.626688,207.521526 C831.466876,212.00327 828.386185,215.924796 825.025432,218.445777 Z M830.066562,205.000545 L829.786499,204.720436 L830.066562,205.000545 Z M830.90675,207.521526 C830.90675,206.961308 830.626688,206.120981 830.346625,205.560763 C830.90675,206.120981 830.90675,206.961308 830.90675,207.521526 Z" id="Shape"></path>
                    </g>
                </g>
                <path d="M1014,1374 C1008.33333,1372.5 1002.66667,1371.25 997,1370 C1002.95,1371 1008.9,1372.25 1014,1374 Z" id="Shape"></path>
            </g>
        </g>
    </g>
</svg>