<?xml version="1.0" encoding="UTF-8"?>
<svg width="109px" height="14px" viewBox="0 0 109 14" version="1.1" xmlns="http://www.w3.org/2000/svg" xmlns:xlink="http://www.w3.org/1999/xlink">
    <!-- Generator: Sketch 50.2 (55047) - http://www.bohemiancoding.com/sketch -->
    <title>Group 15</title>
    <desc>Created with Sketch.</desc>
    <defs></defs>
    <g id="Page-1" stroke="none" stroke-width="1" fill="none" fill-rule="evenodd">
        <g id="Group-15">
            <rect id="Rectangle-2" fill="#417505" x="0" y="0.888015717" width="109" height="13.1119843" rx="2"></rect>
            <path d="M31.8533978,2.84086444 L31.8696791,2.84086444 C34.3348873,2.84086444 36.3333333,4.83931051 36.3333333,7.30451866 C36.3333333,9.76972682 34.3348873,11.7681729 31.8696791,11.7681729 L31.8533978,11.7681729 C29.3881897,11.7681729 27.3897436,9.76972682 27.3897436,7.30451866 C27.3897436,4.83931051 29.3881897,2.84086444 31.8533978,2.84086444 Z M29.5608324,5.34606168 C29.4108129,5.60067886 29.3676071,5.83787788 29.4312152,6.05765873 C29.4948232,6.27743958 29.6784476,6.52542037 29.9820884,6.8016011 C29.8809028,6.80193649 29.7836899,6.79115472 29.6904496,6.76925578 C29.5972094,6.74735684 29.5107979,6.71501152 29.4312152,6.67221982 C29.4332668,6.93255787 29.5088769,7.15096211 29.6580453,7.32743252 C29.8072138,7.50390294 30.0232425,7.63051546 30.3061315,7.70727007 C30.2311309,7.72376157 30.1555209,7.73454335 30.0793014,7.73961539 C30.0030819,7.74468744 29.9166704,7.74468744 29.8200669,7.73961539 C29.8750192,7.93444208 29.9830336,8.09616868 30.14411,8.2247952 C30.3051864,8.35342172 30.5212151,8.42889414 30.7921962,8.45121244 C30.5985176,8.66066134 30.3824889,8.8008244 30.14411,8.87170161 C29.9057311,8.94257882 29.6140923,8.97492414 29.2691936,8.96873757 C29.9265121,9.34057591 30.5529955,9.49152074 31.1486436,9.42157206 C32.0421158,9.31664903 32.7688592,8.83935629 33.060498,8.51590309 C33.3521368,8.19244988 33.6373,7.74607035 33.7733928,7.38381687 C33.8641213,7.14231455 33.9397314,6.74338893 34.000223,6.18704001 C34.0997753,6.11968062 34.1861868,6.04420821 34.2594575,5.96062277 C34.3327281,5.87703733 34.3975367,5.78000137 34.4538833,5.66951488 L34.1298402,5.76655085 L33.8706057,5.83124149 C34.000223,5.72342375 34.0974359,5.61560602 34.1622445,5.50778828 C34.2270531,5.39997055 34.2918618,5.29215281 34.3566704,5.18433508 C34.1545302,5.30909527 34.0141115,5.38456768 33.9354143,5.41075232 C33.8567172,5.43693696 33.7595042,5.44771873 33.6437755,5.44309764 C33.2549238,5.0549538 32.8228663,5.00104493 32.3476031,5.28137104 C31.8723399,5.56169715 31.6995169,5.949841 31.8291342,6.44580258 C31.3929356,6.4166864 30.982481,6.30886866 30.5977703,6.12234937 C30.2130597,5.93583008 29.8674137,5.67706751 29.5608324,5.34606168 Z" id="Combined-Shape" fill="#FFFFFF"></path>
            <path d="M43.070667,8.37214158 C43.2601782,8.37214158 43.3716021,8.38608524 43.4049421,8.41397296 C43.438282,8.44186069 43.4549517,8.53598035 43.4549517,8.69633477 L43.4549517,8.83751568 L41.9230769,8.83751568 L41.9230769,5.07269155 L42.0546813,5.07269155 C42.2441925,5.07269155 42.3556164,5.08576373 42.3889564,5.11190847 C42.4222963,5.13805321 42.438966,5.2313014 42.438966,5.39165582 L42.438966,8.24141852 L42.3915885,8.37214158 L43.070667,8.37214158 Z M43.7444813,7.44662232 L43.7444813,7.12242913 C43.7444813,6.90629926 43.7497455,6.76163385 43.7602739,6.68842857 C43.7708023,6.61522329 43.7830852,6.54289059 43.7971231,6.47142829 C43.811161,6.399966 43.8278307,6.3476773 43.8471328,6.31456062 C43.8664348,6.28144395 43.8910007,6.24222742 43.9208312,6.19690987 C43.9506617,6.15159231 43.9848785,6.12021909 44.0234826,6.10278926 C44.0620867,6.08535944 44.1077091,6.06618691 44.1603511,6.04527112 C44.2480878,6.01041146 44.3761815,5.99298189 44.5446359,5.99298189 C44.7130903,5.99298189 44.8490801,6.0130259 44.9526094,6.0531145 C45.0561387,6.09320311 45.1368552,6.13851998 45.1947615,6.18906648 C45.2526677,6.23961299 45.2939033,6.33721856 45.3184696,6.48188614 C45.3430358,6.62655371 45.3579508,6.75466103 45.363215,6.86621193 C45.3684792,6.97776284 45.3711113,7.12940007 45.3711113,7.32112818 L45.3711113,7.71329736 C45.3711113,7.93639917 45.3658472,8.08455049 45.3553188,8.15775577 C45.3447904,8.23096105 45.3325074,8.30416523 45.3184696,8.37737051 C45.3044317,8.45057579 45.287762,8.50373597 45.2684599,8.53685264 C45.2491578,8.56996931 45.2245919,8.61005732 45.1947615,8.65711785 C45.164931,8.70417839 45.1298368,8.73729457 45.089478,8.75646738 C45.0491191,8.77564019 45.0026193,8.79568419 44.9499773,8.81659999 C44.8657501,8.85494561 44.7534489,8.87411813 44.6130702,8.87411813 C44.4726915,8.87411813 44.364777,8.86888926 44.2893234,8.85843137 C44.2138699,8.84797347 44.147191,8.82531503 44.0892848,8.79045538 C44.0313786,8.75559572 43.9831241,8.72247954 43.94452,8.69110585 C43.9059158,8.65973216 43.8734538,8.60657198 43.8471328,8.53162372 C43.8208117,8.45667545 43.8006326,8.39305753 43.7865947,8.34076805 C43.7725569,8.28847856 43.7637833,8.20307369 43.7602739,8.08455085 C43.7497455,7.88585081 43.7444813,7.67321009 43.7444813,7.44662232 Z M44.5551642,6.4374403 C44.3972382,6.4374403 44.3007293,6.50105822 44.2656346,6.62829596 C44.23054,6.75553371 44.2129929,6.97514626 44.2129929,7.28714019 C44.2129929,7.59913412 44.2147476,7.80131709 44.2182571,7.89369518 C44.2217665,7.98607328 44.2340495,8.08367885 44.2551063,8.18651484 C44.2761631,8.28935083 44.3103799,8.35558318 44.3577577,8.38521389 C44.4051355,8.4148446 44.470937,8.42965973 44.5551642,8.42965973 C44.7130903,8.42965973 44.8095992,8.36342738 44.8446938,8.23096068 C44.8797885,8.09849398 44.8973356,7.87539552 44.8973356,7.56165861 C44.8973356,7.2479217 44.8955809,7.04573872 44.8920714,6.95510361 C44.888562,6.86446851 44.876279,6.77034884 44.8552222,6.67274181 C44.8341654,6.57513477 44.7999486,6.51151685 44.7525708,6.48188614 C44.705193,6.45225543 44.6393915,6.4374403 44.5551642,6.4374403 Z M47.0609114,9.31596208 C47.0995155,9.26890154 47.1188173,9.19918327 47.1188173,9.10680518 C47.1188173,9.01442709 47.1003929,8.95255213 47.0635435,8.92117844 C47.026694,8.88980474 46.9451002,8.87411813 46.8187593,8.87411813 C46.3344528,8.87411813 46.0510676,8.85058822 45.9685951,8.80352768 C45.8861226,8.75646714 45.844887,8.59175774 45.844887,8.30939452 C45.844887,8.1176664 45.9203394,7.95905734 46.0712465,7.83356258 C45.9905288,7.7603573 45.9326234,7.67233798 45.8975288,7.569502 C45.8624341,7.46666601 45.844887,7.32287208 45.844887,7.1381159 C45.844887,6.95335972 45.8457644,6.8330957 45.8475191,6.77732025 C45.8492738,6.7215448 45.8527833,6.65008358 45.8580475,6.56293443 C45.8633117,6.47578529 45.8729626,6.41391033 45.8870004,6.37730769 C45.9010383,6.34070505 45.9212174,6.2945167 45.9475384,6.23874125 C45.9738594,6.1829658 46.0063215,6.14462075 46.0449257,6.12370495 C46.0835298,6.10278916 46.1309069,6.08013072 46.1870584,6.05572896 C46.2783045,6.01389737 46.4362282,5.99298189 46.6608341,5.99298189 L47.6136497,5.99298189 C47.6136497,6.16030825 47.5978573,6.27185748 47.5662721,6.32763293 C47.5346869,6.38340838 47.4715175,6.4147816 47.3767618,6.42175353 C47.4399323,6.55770619 47.471517,6.76337508 47.471517,7.03876637 L47.471517,7.27406788 C47.471517,7.4448802 47.4644982,7.55991534 47.4504603,7.61917676 C47.4364224,7.67843818 47.4197527,7.7376987 47.4004506,7.79696012 C47.3811486,7.85622154 47.3583374,7.8980525 47.3320164,7.92245426 C47.3056954,7.94685602 47.2723559,7.97648628 47.231997,8.01134594 C47.1916382,8.0462056 47.1451384,8.07060699 47.0924964,8.08455085 C46.9415893,8.11592454 46.7898071,8.13161115 46.6371453,8.13161115 C46.4844835,8.13161115 46.3888519,8.14206889 46.3502478,8.16298469 C46.3116437,8.18390048 46.2923419,8.22224553 46.2923419,8.27802098 C46.2923419,8.33379643 46.3011154,8.36865557 46.3186627,8.38259943 C46.3572669,8.41397312 46.5292282,8.42965973 46.8345519,8.42965973 C47.1398755,8.42965973 47.3381574,8.46626182 47.4294036,8.5394671 C47.5206497,8.61267238 47.5662721,8.78958249 47.5662721,9.07020272 C47.5662721,9.35082296 47.5145083,9.54516263 47.410979,9.65322757 C47.3074497,9.76129251 47.104781,9.81532417 46.8029668,9.81532417 L46.4871163,9.81532417 C46.3186619,9.81532417 46.2203983,9.79876608 46.1923226,9.7656494 C46.1642468,9.73253273 46.1502092,9.61836906 46.1502092,9.42315499 L46.7977026,9.38655253 C46.9345719,9.38655253 47.0223072,9.36302261 47.0609114,9.31596208 Z M46.9872129,7.36557402 C46.9907224,7.25925207 46.9924771,7.15118875 46.9924771,7.04138083 C46.9924771,6.93157291 46.9915997,6.85313986 46.989845,6.80607933 C46.9880903,6.75901879 46.9819488,6.70498713 46.9714204,6.64398273 C46.960892,6.58297833 46.9450996,6.54201885 46.9240428,6.52110306 C46.8608724,6.4653276 46.7617315,6.4374403 46.626617,6.4374403 C46.4915025,6.4374403 46.4063992,6.47665682 46.3713045,6.55509105 C46.3362098,6.63352528 46.3186627,6.79562025 46.3186627,7.04138083 C46.3186627,7.28714142 46.3388419,7.45795117 46.3792008,7.55381523 C46.4195596,7.64967929 46.5055403,7.69761059 46.6371453,7.69761059 C46.7687503,7.69761059 46.8591178,7.66885181 46.9082503,7.61133338 C46.9573828,7.55381494 46.9837035,7.47189598 46.9872129,7.36557402 Z M49.3034498,9.31596208 C49.3420539,9.26890154 49.3613557,9.19918327 49.3613557,9.10680518 C49.3613557,9.01442709 49.3429313,8.95255213 49.3060818,8.92117844 C49.2692324,8.88980474 49.1876386,8.87411813 49.0612977,8.87411813 C48.5769912,8.87411813 48.293606,8.85058822 48.2111335,8.80352768 C48.128661,8.75646714 48.0874254,8.59175774 48.0874254,8.30939452 C48.0874254,8.1176664 48.1628778,7.95905734 48.3137849,7.83356258 C48.2330672,7.7603573 48.1751618,7.67233798 48.1400672,7.569502 C48.1049725,7.46666601 48.0874254,7.32287208 48.0874254,7.1381159 C48.0874254,6.95335972 48.0883028,6.8330957 48.0900575,6.77732025 C48.0918122,6.7215448 48.0953217,6.65008358 48.1005859,6.56293443 C48.1058501,6.47578529 48.1155009,6.41391033 48.1295388,6.37730769 C48.1435767,6.34070505 48.1637558,6.2945167 48.1900768,6.23874125 C48.2163978,6.1829658 48.2488599,6.14462075 48.2874641,6.12370495 C48.3260682,6.10278916 48.3734453,6.08013072 48.4295968,6.05572896 C48.5208429,6.01389737 48.6787666,5.99298189 48.9033725,5.99298189 L49.8561881,5.99298189 C49.8561881,6.16030825 49.8403957,6.27185748 49.8088105,6.32763293 C49.7772253,6.38340838 49.7140559,6.4147816 49.6193002,6.42175353 C49.6824707,6.55770619 49.7140554,6.76337508 49.7140554,7.03876637 L49.7140554,7.27406788 C49.7140554,7.4448802 49.7070366,7.55991534 49.6929987,7.61917676 C49.6789608,7.67843818 49.6622911,7.7376987 49.642989,7.79696012 C49.623687,7.85622154 49.6008758,7.8980525 49.5745548,7.92245426 C49.5482338,7.94685602 49.5148943,7.97648628 49.4745354,8.01134594 C49.4341766,8.0462056 49.3876768,8.07060699 49.3350348,8.08455085 C49.1841277,8.11592454 49.0323455,8.13161115 48.8796837,8.13161115 C48.7270219,8.13161115 48.6313903,8.14206889 48.5927862,8.16298469 C48.554182,8.18390048 48.5348803,8.22224553 48.5348803,8.27802098 C48.5348803,8.33379643 48.5436538,8.36865557 48.5612011,8.38259943 C48.5998053,8.41397312 48.7717666,8.42965973 49.0770903,8.42965973 C49.3824139,8.42965973 49.5806958,8.46626182 49.671942,8.5394671 C49.7631881,8.61267238 49.8088105,8.78958249 49.8088105,9.07020272 C49.8088105,9.35082296 49.7570467,9.54516263 49.6535174,9.65322757 C49.5499881,9.76129251 49.3473194,9.81532417 49.0455052,9.81532417 L48.7296547,9.81532417 C48.5612003,9.81532417 48.4629367,9.79876608 48.4348609,9.7656494 C48.4067852,9.73253273 48.3927475,9.61836906 48.3927475,9.42315499 L49.040241,9.38655253 C49.1771103,9.38655253 49.2648456,9.36302261 49.3034498,9.31596208 Z M49.2297513,7.36557402 C49.2332608,7.25925207 49.2350155,7.15118875 49.2350155,7.04138083 C49.2350155,6.93157291 49.2341381,6.85313986 49.2323834,6.80607933 C49.2306287,6.75901879 49.2244872,6.70498713 49.2139588,6.64398273 C49.2034304,6.58297833 49.187638,6.54201885 49.1665812,6.52110306 C49.1034108,6.4653276 49.0042698,6.4374403 48.8691554,6.4374403 C48.7340409,6.4374403 48.6489376,6.47665682 48.6138429,6.55509105 C48.5787482,6.63352528 48.5612011,6.79562025 48.5612011,7.04138083 C48.5612011,7.28714142 48.5813803,7.45795117 48.6217391,7.55381523 C48.662098,7.64967929 48.7480787,7.69761059 48.8796837,7.69761059 C49.0112887,7.69761059 49.1016562,7.66885181 49.1507887,7.61133338 C49.1999212,7.55381494 49.2262418,7.47189598 49.2297513,7.36557402 Z M51.3248928,6.67797073 L51.330157,6.53678982 C51.330157,6.4879863 51.3248929,6.46184195 51.3143645,6.45835599 C51.3038361,6.45487002 51.2915531,6.44702672 51.2775153,6.43482584 C51.2634774,6.42262496 51.245053,6.42001052 51.2222414,6.42698245 C51.1994299,6.43395438 51.1722319,6.43569734 51.1406467,6.43221137 L50.8563813,6.46881383 C50.7826825,6.47927173 50.719513,6.4845006 50.666871,6.4845006 C50.614229,6.4845006 50.5738707,6.4722999 50.545795,6.44789814 C50.5177192,6.42349638 50.4896439,6.31194715 50.4615682,6.11324711 L51.0722124,5.99298189 C51.3213846,5.99298189 51.4775536,6.01128294 51.540724,6.04788558 C51.6038944,6.08448822 51.6495168,6.11498996 51.6775925,6.13939172 C51.7056683,6.16379348 51.72497,6.21259627 51.7354984,6.28580155 C51.7530458,6.37643666 51.7618193,6.51935911 51.7618193,6.71457318 L51.7618193,8.83751568 C51.5582702,8.83751568 51.4301766,8.82705794 51.3775346,8.80614214 C51.3248926,8.78522635 51.2968172,8.7346806 51.2933078,8.65450339 L50.8563813,8.87411813 C50.7581162,8.87411813 50.6852958,8.87324666 50.637918,8.87150367 C50.5905402,8.86976069 50.5431631,8.85494556 50.4957853,8.82705783 C50.4484075,8.79917011 50.4168228,8.7712828 50.4010302,8.74339507 C50.3852376,8.71550735 50.3703226,8.65624682 50.3562847,8.56561171 C50.3387374,8.45754678 50.3299638,8.23619127 50.3299638,7.90153857 L50.3299638,7.54074292 C50.3299638,7.1468288 50.6756412,6.94290287 51.3670062,6.928959 L51.3248928,6.80346487 L51.3248928,6.67797073 Z M50.8247962,8.42965973 C50.8283057,8.42965973 51.0055311,8.36342738 51.3564779,8.23096068 L51.3038361,8.07932193 L51.3038361,7.45708016 L51.3459495,7.33681495 C51.2020614,7.34030092 51.0757224,7.35424457 50.9669289,7.37864633 C50.8581355,7.40304809 50.8037395,7.43616427 50.8037395,7.47799585 L50.7984754,8.16821361 C50.7984754,8.3425119 50.8072489,8.42965973 50.8247962,8.42965973 Z M53.3831851,5.66617424 C53.3200147,5.60168388 53.28843,5.52673674 53.28843,5.44133058 C53.28843,5.35592442 53.3200147,5.28359172 53.3831851,5.2243303 C53.4463555,5.16506888 53.5200532,5.13543862 53.6042804,5.13543862 C53.6885077,5.13543862 53.7622054,5.16506888 53.8253758,5.2243303 C53.8885462,5.28359172 53.9201309,5.35592442 53.9201309,5.44133058 C53.9201309,5.52673674 53.8885462,5.60168388 53.8253758,5.66617424 C53.7622054,5.73066461 53.6885077,5.76290931 53.6042804,5.76290931 C53.5200532,5.76290931 53.4463555,5.73066461 53.3831851,5.66617424 Z M53.3726568,8.54469602 L53.3726568,6.02958435 C53.6077911,6.02958435 53.7446582,6.04265653 53.7832624,6.06880127 C53.8218665,6.09494601 53.8411683,6.18645124 53.8411683,6.34331969 L53.8411683,8.85843137 C53.606034,8.85843137 53.4691668,8.84535919 53.4305627,8.81921445 C53.3919585,8.79306971 53.3726568,8.70156448 53.3726568,8.54469602 Z M55.6573085,7.4413934 L55.6625727,6.98124823 C55.6625727,6.8418096 55.6590633,6.7372322 55.6520444,6.66751288 C55.6380065,6.52110232 55.5555353,6.44441223 55.4046282,6.4374403 L54.9203241,6.5786212 L54.9677017,6.72503103 L54.9677017,8.83751568 C54.7325674,8.83751568 54.5957002,8.8244435 54.557096,8.79829876 C54.5184919,8.77215402 54.4991901,8.68064879 54.4991901,8.52378033 L54.4991901,6.02958435 C54.7027392,6.02958435 54.8308329,6.03481322 54.8834749,6.04527112 C54.9361169,6.05572901 54.9641922,6.08710224 54.9677017,6.13939172 L55.3572506,5.99298189 C55.5713281,5.99298189 55.7117047,6.00692555 55.7783846,6.03481327 C55.8450644,6.062701 55.895951,6.08710239 55.9310456,6.10801819 C55.9661403,6.12893398 55.997725,6.17163642 56.0258008,6.23612679 C56.0538765,6.30061715 56.0731783,6.35987768 56.0837067,6.41391015 C56.0942351,6.46794261 56.1047633,6.55421897 56.1152917,6.67274181 C56.1258201,6.84355412 56.1310843,7.10151172 56.1310843,7.44662232 L56.1310843,8.83751568 C55.89595,8.83751568 55.7582054,8.8244435 55.7178466,8.79829876 C55.6774877,8.77215402 55.6573085,8.68064879 55.6573085,8.52378033 L55.6573085,7.4413934 Z M59.258004,8.83751568 C59.0228697,8.83751568 58.8860025,8.8244435 58.8473984,8.79829876 C58.8087942,8.77215402 58.7894925,8.68064879 58.7894925,8.52378033 L58.7842283,7.24269435 L58.7842283,7.03876637 C58.7842283,6.95858916 58.7851056,6.89758568 58.7868604,6.85575409 C58.7886151,6.8139225 58.7877377,6.76599119 58.7842283,6.71195872 C58.7807188,6.65792625 58.7745773,6.61783825 58.7658037,6.59169351 C58.75703,6.56554877 58.7456244,6.53853294 58.7315865,6.51064521 C58.7070203,6.46184169 58.654379,6.4374403 58.5736613,6.4374403 L58.1051498,6.57339228 L58.1525273,6.72503103 L58.1525273,8.83751568 C57.917393,8.83751568 57.7805258,8.8244435 57.7419217,8.79829876 C57.7033176,8.77215402 57.6840158,8.68064879 57.6840158,8.52378033 L57.6840158,6.02958435 C57.8770365,6.02958435 57.999866,6.03481322 58.052508,6.04527112 C58.10515,6.05572901 58.1367347,6.08710224 58.1472631,6.13939172 L58.5420762,5.99298189 C58.6964928,5.99298189 58.8140582,6.00605407 58.8947759,6.03219881 C58.9754937,6.05834355 59.0474367,6.10801782 59.1106071,6.1812231 L59.5949112,5.99298189 C59.8019697,5.99298189 59.941469,6.00779703 60.0134131,6.03742773 C60.0853571,6.06705844 60.1379984,6.09233131 60.1713383,6.11324711 C60.2046782,6.1341629 60.2345083,6.17773682 60.2608293,6.24397017 C60.2871503,6.31020352 60.3064521,6.36946404 60.3187352,6.42175353 C60.3310183,6.47404302 60.3406692,6.56119085 60.3476881,6.68319965 C60.3582165,6.86446987 60.3634807,7.11894154 60.3634807,7.44662232 L60.3634807,8.83751568 C60.1248369,8.83751568 59.986215,8.8244435 59.9476109,8.79829876 C59.9090067,8.77215402 59.889705,8.68064879 59.889705,8.52378033 L59.889705,7.4413934 C59.889705,6.96033013 59.8844408,6.6919148 59.8739124,6.63613935 C59.8563651,6.53504634 59.8072333,6.47404286 59.7265155,6.45312706 C59.6984398,6.44615513 59.6633457,6.44092626 59.621232,6.4374403 L59.2106264,6.55770551 L59.258004,6.70411534 L59.258004,8.83751568 Z M61.6847885,8.42965973 C61.9234323,8.42965973 62.1655819,8.41223016 62.4112446,8.37737051 L62.4112446,8.78522645 C62.0848641,8.84448787 61.8532428,8.87411813 61.7163736,8.87411813 C61.5795043,8.87411813 61.4698351,8.86453187 61.3873626,8.84535906 C61.3048902,8.82618625 61.2338245,8.80352781 61.1741636,8.77738307 C61.1145026,8.75123833 61.0653708,8.70679293 61.0267667,8.64404555 C60.9881625,8.58129817 60.9583325,8.52290912 60.9372757,8.46887665 C60.9162189,8.41484418 60.9004265,8.33205374 60.8898981,8.22050283 C60.8758603,8.07060631 60.8688414,7.91112577 60.8688414,7.74205644 L60.8688414,7.0439953 C60.8688414,6.79649173 60.8758603,6.64224006 60.8898981,6.58123566 C60.903936,6.52023126 60.9197284,6.45399891 60.9372757,6.38253661 C60.954823,6.31107432 60.9776342,6.26052857 61.00571,6.23089786 C61.0337857,6.20126715 61.0680025,6.16640802 61.1083614,6.12631941 C61.1487203,6.08623081 61.19522,6.05921498 61.247862,6.04527112 C61.412807,6.01041146 61.5602024,5.99298189 61.6900527,5.99298189 C61.819903,5.99298189 61.9313269,6.0130259 62.0243278,6.0531145 C62.1173287,6.09320311 62.1892717,6.14287737 62.2401589,6.20213879 C62.2910462,6.26140021 62.3305271,6.34506213 62.3586029,6.45312706 C62.4042259,6.62393938 62.4270371,6.84703784 62.4270371,7.12242913 L62.4428297,7.47799585 L61.2952396,7.50414047 L61.337353,7.62440568 C61.337353,7.96951628 61.3540227,8.19000031 61.3873626,8.28586436 C61.4207026,8.38172842 61.5198435,8.42965973 61.6847885,8.42965973 Z M61.9032518,6.54463321 C61.8699118,6.47317091 61.7900726,6.4374403 61.6637318,6.4374403 C61.537391,6.4374403 61.4557971,6.46881352 61.4189477,6.5315609 C61.3820983,6.59430828 61.3636739,6.73025891 61.3636739,6.93941685 L61.3215605,7.05445314 L62.0111673,7.05445314 L61.9585256,6.93941685 C61.9550161,6.74768873 61.9365917,6.6160955 61.9032518,6.54463321 Z M62.8586994,7.4413934 C62.8586994,7.18343194 62.8613315,6.99693557 62.8665957,6.8818987 C62.8718599,6.76686183 62.8876523,6.63701156 62.9139733,6.49234398 C62.9402943,6.34767641 62.9832846,6.2474564 63.0429456,6.19168094 C63.1833243,6.05921425 63.3991533,5.99298189 63.690439,5.99298189 L63.9852328,6.09756034 L63.9852328,5.07269155 C64.2203671,5.07269155 64.3572343,5.08576373 64.3958384,5.11190847 C64.4344426,5.13805321 64.4537444,5.2313014 64.4537444,5.39165582 L64.4537444,8.83751568 C64.2431763,8.83751568 64.113328,8.82880089 64.0641954,8.81137107 C64.0150629,8.79394124 63.9887423,8.74339549 63.9852328,8.65973232 L63.6641182,8.87411813 C63.3868703,8.87411813 63.1763054,8.80962874 63.0324172,8.68064801 C62.9376616,8.59349886 62.881511,8.36691449 62.8639636,8.00088809 C62.8604542,7.88585123 62.8586994,7.69935486 62.8586994,7.4413934 Z M64.0378746,8.25710529 L63.9852328,8.08977977 L63.9852328,6.68842857 L64.0326104,6.54201875 L63.6220048,6.4374403 C63.488645,6.44789819 63.4061738,6.52110238 63.3745886,6.65705504 C63.3430034,6.7930077 63.327211,7.06316599 63.327211,7.46753801 C63.327211,7.87191003 63.3430034,8.12638171 63.3745886,8.23096068 C63.4131927,8.35994141 63.4974187,8.42617376 63.6272689,8.42965973 L64.0378746,8.25710529 Z M67.549079,5.51714996 L66.9068497,5.51714996 L66.9542273,5.64787302 L66.9542273,8.51855141 C66.9542273,8.67890583 66.9375576,8.77215402 66.9042177,8.79829876 C66.8708777,8.8244435 66.7594538,8.83751568 66.5699426,8.83751568 L66.4436024,8.83751568 L66.4436024,5.64787302 L66.4804516,5.51714996 L65.8487506,5.51714996 L65.8487506,5.07269155 L67.549079,5.07269155 L67.549079,5.51714996 Z M70.4759601,6.0871025 C70.4864885,6.10453233 70.4917527,6.12457633 70.4917527,6.1472351 C70.4917527,6.16989388 70.4812244,6.23525476 70.4601676,6.34331969 L69.9705994,8.83751568 L69.386276,8.83751568 L69.1493881,7.05968206 L68.9125003,8.83751568 L68.3229127,8.83751568 L67.759646,6.02958435 C67.9982898,6.02958435 68.1395438,6.04178505 68.1834121,6.06618681 C68.2272804,6.09058857 68.2632519,6.1777364 68.2913277,6.32763293 L68.6071781,8.142069 L68.6229707,8.142069 L68.8493302,6.66751288 L68.9493495,6.29103047 L69.3599551,6.29103047 L69.4547103,6.67274181 L69.6915981,8.14729792 L69.7073906,8.14729792 L70.0706187,6.02958435 C70.3127719,6.02958435 70.4478844,6.04875687 70.4759601,6.0871025 Z M70.9813209,5.66617424 C70.9181505,5.60168388 70.8865658,5.52673674 70.8865658,5.44133058 C70.8865658,5.35592442 70.9181505,5.28359172 70.9813209,5.2243303 C71.0444913,5.16506888 71.118189,5.13543862 71.2024162,5.13543862 C71.2866435,5.13543862 71.3603412,5.16506888 71.4235116,5.2243303 C71.486682,5.28359172 71.5182667,5.35592442 71.5182667,5.44133058 C71.5182667,5.52673674 71.486682,5.60168388 71.4235116,5.66617424 C71.3603412,5.73066461 71.2866435,5.76290931 71.2024162,5.76290931 C71.118189,5.76290931 71.0444913,5.73066461 70.9813209,5.66617424 Z M70.9707926,8.54469602 L70.9707926,6.02958435 C71.2059269,6.02958435 71.342794,6.04265653 71.3813982,6.06880127 C71.4200023,6.09494601 71.4393041,6.18645124 71.4393041,6.34331969 L71.4393041,8.85843137 C71.2041698,8.85843137 71.0673026,8.84535919 71.0286985,8.81921445 C70.9900943,8.79306971 70.9707926,8.70156448 70.9707926,8.54469602 Z M73.1080475,6.02958435 C73.1080475,6.2282844 73.089623,6.35116284 73.0527736,6.39822338 C73.0159242,6.44528392 72.9080097,6.46881383 72.7290269,6.46881383 L72.5763658,6.46881383 L72.6237434,6.59953689 L72.6237434,7.63486353 C72.6237434,7.93117061 72.635149,8.13422507 72.6579605,8.24403299 C72.6807721,8.3538409 72.7290265,8.41571587 72.8027253,8.42965973 L73.2028026,8.42965973 L73.2028026,8.83751568 L72.7764045,8.86366029 C72.6009311,8.86366029 72.4851204,8.84623072 72.4289689,8.81137107 C72.3728175,8.77651141 72.3307045,8.7486241 72.3026287,8.72770831 C72.274553,8.70679251 72.2499871,8.66409007 72.2289303,8.59959971 C72.2078735,8.53510934 72.1920811,8.48282064 72.1815527,8.44273204 C72.1710243,8.40264343 72.1631281,8.32943925 72.1578639,8.2231173 C72.1525997,8.11679534 72.1499677,8.02877603 72.1499677,7.95905671 L72.1499677,6.59953689 L72.1920811,6.46881383 L71.9130798,6.46881383 L71.9130798,6.02958435 L72.1920811,6.02958435 L72.1499677,5.83611422 L72.1499677,5.56943918 C72.385102,5.56943918 72.5228465,5.5807684 72.5632054,5.60342718 C72.6035643,5.62608595 72.6237434,5.7088764 72.6237434,5.85180099 L72.58163,6.02958435 L73.1080475,6.02958435 Z M74.6083372,6.02958435 C74.6083372,6.2282844 74.5899128,6.35116284 74.5530634,6.39822338 C74.516214,6.44528392 74.4082995,6.46881383 74.2293167,6.46881383 L74.0766556,6.46881383 L74.1240332,6.59953689 L74.1240332,7.63486353 C74.1240332,7.93117061 74.1354388,8.13422507 74.1582503,8.24403299 C74.1810618,8.3538409 74.2293163,8.41571587 74.3030151,8.42965973 L74.7030924,8.42965973 L74.7030924,8.83751568 L74.2766942,8.86366029 C74.1012209,8.86366029 73.9854102,8.84623072 73.9292587,8.81137107 C73.8731072,8.77651141 73.8309943,8.7486241 73.8029185,8.72770831 C73.7748428,8.70679251 73.7502769,8.66409007 73.7292201,8.59959971 C73.7081633,8.53510934 73.6923709,8.48282064 73.6818425,8.44273204 C73.6713141,8.40264343 73.6634179,8.32943925 73.6581537,8.2231173 C73.6528895,8.11679534 73.6502575,8.02877603 73.6502575,7.95905671 L73.6502575,6.59953689 L73.6923708,6.46881383 L73.4133696,6.46881383 L73.4133696,6.02958435 L73.6923708,6.02958435 L73.6502575,5.83611422 L73.6502575,5.56943918 C73.8853918,5.56943918 74.0231363,5.5807684 74.0634952,5.60342718 C74.103854,5.62608595 74.1240332,5.7088764 74.1240332,5.85180099 L74.0819198,6.02958435 L74.6083372,6.02958435 Z M75.866475,8.42965973 C76.1051187,8.42965973 76.3472684,8.41223016 76.5929311,8.37737051 L76.5929311,8.78522645 C76.2665506,8.84448787 76.0349292,8.87411813 75.89806,8.87411813 C75.7611908,8.87411813 75.6515216,8.86453187 75.5690491,8.84535906 C75.4865766,8.82618625 75.415511,8.80352781 75.35585,8.77738307 C75.2961891,8.75123833 75.2470573,8.70679293 75.2084531,8.64404555 C75.169849,8.58129817 75.140019,8.52290912 75.1189622,8.46887665 C75.0979054,8.41484418 75.082113,8.33205374 75.0715846,8.22050283 C75.0575467,8.07060631 75.0505279,7.91112577 75.0505279,7.74205644 L75.0505279,7.0439953 C75.0505279,6.79649173 75.0575467,6.64224006 75.0715846,6.58123566 C75.0856225,6.52023126 75.1014148,6.45399891 75.1189622,6.38253661 C75.1365095,6.31107432 75.1593207,6.26052857 75.1873964,6.23089786 C75.2154722,6.20126715 75.249689,6.16640802 75.2900478,6.12631941 C75.3304067,6.08623081 75.3769065,6.05921498 75.4295485,6.04527112 C75.5944934,6.01041146 75.7418889,5.99298189 75.8717391,5.99298189 C76.0015894,5.99298189 76.1130134,6.0130259 76.2060142,6.0531145 C76.2990151,6.09320311 76.3709581,6.14287737 76.4218454,6.20213879 C76.4727327,6.26140021 76.5122136,6.34506213 76.5402893,6.45312706 C76.5859124,6.62393938 76.6087236,6.84703784 76.6087236,7.12242913 L76.6245161,7.47799585 L75.476926,7.50414047 L75.5190394,7.62440568 C75.5190394,7.96951628 75.5357092,8.19000031 75.5690491,8.28586436 C75.602389,8.38172842 75.70153,8.42965973 75.866475,8.42965973 Z M76.0849382,6.54463321 C76.0515983,6.47317091 75.9717591,6.4374403 75.8454183,6.4374403 C75.7190775,6.4374403 75.6374836,6.46881352 75.6006342,6.5315609 C75.5637847,6.59430828 75.5453603,6.73025891 75.5453603,6.93941685 L75.5032469,7.05445314 L76.1928538,7.05445314 L76.1402121,6.93941685 C76.1367026,6.74768873 76.1182782,6.6160955 76.0849382,6.54463321 Z M77.5668034,8.83751568 C77.3316691,8.83751568 77.1939245,8.8244435 77.1535657,8.79829876 C77.1132068,8.77215402 77.0930277,8.68064879 77.0930277,8.52378033 L77.0930277,6.02958435 C77.3246525,6.02958435 77.459765,6.03655618 77.4983691,6.05050004 C77.5369732,6.0644439 77.556275,6.11150373 77.556275,6.19168094 L77.8931822,5.99298189 C77.9949568,5.99298189 78.0879562,6.00343963 78.1721835,6.02435543 L78.2564103,6.02958435 C78.2564103,6.2282844 78.2423726,6.34593397 78.2142969,6.38253661 C78.1862211,6.41913925 78.096731,6.4374403 77.945824,6.4374403 L77.5141616,6.58385012 L77.5668034,6.73025995 L77.5668034,8.83751568 Z" id="Logga-in-med-Twitter" fill="#FFFFFF"></path>
        </g>
    </g>
</svg>