<?xml version="1.0" encoding="UTF-8"?>
<svg width="1659px" height="200px" viewBox="0 0 1659 200" version="1.1" xmlns="http://www.w3.org/2000/svg" xmlns:xlink="http://www.w3.org/1999/xlink">
    <!-- Generator: Sketch 50.2 (55047) - http://www.bohemiancoding.com/sketch -->
    <title>Group 8</title>
    <desc>Created with Sketch.</desc>
    <defs></defs>
    <g id="Page-1" stroke="none" stroke-width="1" fill="none" fill-rule="evenodd">
        <g id="Group-8">
            <rect id="Rectangle-2" fill="#417505" x="0" y="0" width="1659" height="200" rx="16"></rect>
            <path d="M442,31 L528,31 C542.359403,31 554,42.6405965 554,57 L554,143 C554,157.359403 542.359403,169 528,169 L442,169 C427.640597,169 416,157.359403 416,143 L416,57 C416,42.6405965 427.640597,31 442,31 Z M449.5,69.7258065 C447.185192,73.6617263 446.518525,77.328393 447.5,80.7258065 C448.481475,84.1232199 451.314808,87.9565533 456,92.2258065 C454.438701,92.230991 452.938701,92.0643243 451.5,91.7258065 C450.061299,91.3872886 448.727966,90.8872886 447.5,90.2258065 C447.531657,94.2501607 448.698324,97.6262941 451,100.354207 C453.301676,103.082119 456.63501,105.039319 461,106.225806 C459.842737,106.480735 458.67607,106.647402 457.5,106.725806 C456.32393,106.804211 454.990597,106.804211 453.5,106.725806 C454.347917,109.737474 456.014584,112.237474 458.5,114.225806 C460.985416,116.214139 464.318749,117.380806 468.5,117.725806 C465.511531,120.963507 462.178197,123.130173 458.5,124.225806 C454.821803,125.32144 450.321803,125.82144 445,125.725806 C455.142455,131.473753 464.809122,133.807086 474,132.725806 C487.786317,131.103887 499,123.725806 503.5,118.725806 C508,113.725806 512.400082,106.825588 514.5,101.225806 C515.899945,97.4926185 517.066612,91.3259518 518,82.7258065 C519.536097,81.6845524 520.869431,80.5178857 522,79.2258065 C523.130569,77.9337272 524.130569,76.4337272 525,74.7258065 L520,76.2258065 L516,77.2258065 C518,75.5591398 519.5,73.8924731 520.5,72.2258065 C521.5,70.5591398 522.5,68.8924731 523.5,67.2258065 C520.380968,69.1543728 518.214301,70.3210395 517,70.7258065 C515.785699,71.1305734 514.285699,71.2972401 512.5,71.2258065 C506.5,65.2258065 499.833333,64.3924731 492.5,68.7258065 C485.166667,73.0591398 482.5,79.0591398 484.5,86.7258065 C477.769436,86.2757232 471.436103,84.6090565 465.5,81.7258065 C459.563897,78.8425564 454.230564,74.8425564 449.5,69.7258065 Z" id="Combined-Shape" fill="#FFFFFF"></path>
            <path d="M654.44,114.48 C657.320014,114.48 659.013331,114.693331 659.52,115.12 C660.026669,115.546669 660.28,116.986654 660.28,119.44 L660.28,121.6 L637,121.6 L637,64 L639,64 C641.880014,64 643.573331,64.199998 644.08,64.6 C644.586669,65.000002 644.84,66.4266544 644.84,68.88 L644.84,112.48 L644.12,114.48 L654.44,114.48 Z M664.68,100.32 L664.68,95.36 C664.68,92.0533168 664.759999,89.8400056 664.92,88.72 C665.080001,87.5999944 665.266666,86.4933388 665.48,85.4 C665.693334,84.3066612 665.946665,83.5066692 666.24,83 C666.533335,82.4933308 666.906664,81.8933368 667.36,81.2 C667.813336,80.5066632 668.33333,80.026668 668.92,79.76 C669.50667,79.493332 670.199996,79.2000016 671,78.88 C672.33334,78.346664 674.279987,78.08 676.84,78.08 C679.400013,78.08 681.466659,78.3866636 683.04,79 C684.613341,79.6133364 685.839996,80.3066628 686.72,81.08 C687.600004,81.8533372 688.226665,83.3466556 688.6,85.56 C688.973335,87.7733444 689.2,89.7333248 689.28,91.44 C689.36,93.1466752 689.4,95.466652 689.4,98.4 L689.4,104.4 C689.4,107.81335 689.320001,110.079994 689.16,111.2 C688.999999,112.320006 688.813334,113.439994 688.6,114.56 C688.386666,115.680006 688.133335,116.493331 687.84,117 C687.546665,117.506669 687.173336,118.119996 686.72,118.84 C686.266664,119.560004 685.733336,120.066665 685.12,120.36 C684.506664,120.653335 683.800004,120.959998 683,121.28 C681.719994,121.86667 680.013344,122.16 677.88,122.16 C675.746656,122.16 674.106672,122.080001 672.96,121.92 C671.813328,121.759999 670.800004,121.413336 669.92,120.88 C669.039996,120.346664 668.30667,119.840002 667.72,119.36 C667.13333,118.879998 666.640002,118.066672 666.24,116.92 C665.839998,115.773328 665.533334,114.800004 665.32,114 C665.106666,113.199996 664.973334,111.893342 664.92,110.08 C664.759999,107.039985 664.68,103.786684 664.68,100.32 Z M677,84.88 C674.599988,84.88 673.133336,85.8533236 672.6,87.8 C672.066664,89.7466764 671.8,93.1066428 671.8,97.88 C671.8,102.653357 671.826666,105.74666 671.88,107.16 C671.933334,108.57334 672.119998,110.066659 672.44,111.64 C672.760002,113.213341 673.279996,114.226664 674,114.68 C674.720004,115.133336 675.719994,115.36 677,115.36 C679.400012,115.36 680.866664,114.346677 681.4,112.32 C681.933336,110.293323 682.2,106.880024 682.2,102.08 C682.2,97.279976 682.173334,94.1866736 682.12,92.8 C682.066666,91.4133264 681.880002,89.9733408 681.56,88.48 C681.239998,86.9866592 680.720004,86.0133356 680,85.56 C679.279996,85.1066644 678.280006,84.88 677,84.88 Z M715.08,128.92 C715.66667,128.199996 715.96,127.13334 715.96,125.72 C715.96,124.30666 715.680003,123.360002 715.12,122.88 C714.559997,122.399998 713.32001,122.16 711.4,122.16 C704.039963,122.16 699.73334,121.800004 698.48,121.08 C697.22666,120.359996 696.6,117.840022 696.6,113.52 C696.6,110.586652 697.746655,108.16001 700.04,106.24 C698.813327,105.119994 697.933336,103.773341 697.4,102.2 C696.866664,100.626659 696.6,98.4266808 696.6,95.6 C696.6,92.7733192 696.613333,90.9333376 696.64,90.08 C696.666667,89.2266624 696.72,88.13334 696.8,86.8 C696.88,85.46666 697.026666,84.5200028 697.24,83.96 C697.453334,83.3999972 697.759998,82.6933376 698.16,81.84 C698.560002,80.9866624 699.05333,80.4000016 699.64,80.08 C700.22667,79.7599984 700.946662,79.4133352 701.8,79.04 C703.186674,78.3999968 705.58665,78.08 709,78.08 L723.48,78.08 C723.48,80.6400128 723.240002,82.3466624 722.76,83.2 C722.279998,84.0533376 721.320007,84.5333328 719.88,84.64 C720.840005,86.7200104 721.32,89.8666456 721.32,94.08 L721.32,97.68 C721.32,100.293346 721.213334,102.053329 721,102.96 C720.786666,103.866671 720.533335,104.773329 720.24,105.68 C719.946665,106.586671 719.600002,107.226665 719.2,107.6 C718.799998,107.973335 718.293336,108.426664 717.68,108.96 C717.066664,109.493336 716.360004,109.866666 715.56,110.08 C713.266655,110.560002 710.960012,110.8 708.64,110.8 C706.319988,110.8 704.86667,110.959998 704.28,111.28 C703.69333,111.600002 703.4,112.186662 703.4,113.04 C703.4,113.893338 703.533332,114.426666 703.8,114.64 C704.38667,115.120002 706.999977,115.36 711.64,115.36 C716.280023,115.36 719.293326,115.919994 720.68,117.04 C722.066674,118.160006 722.76,120.866645 722.76,125.16 C722.76,129.453355 721.973341,132.426658 720.4,134.08 C718.826659,135.733342 715.74669,136.56 711.16,136.56 L706.36,136.56 C703.799987,136.56 702.306669,136.306669 701.88,135.8 C701.453331,135.293331 701.24,133.546682 701.24,130.56 L711.08,130 C713.16001,130 714.49333,129.640004 715.08,128.92 Z M713.96,99.08 C714.013334,97.4533252 714.04,95.8000084 714.04,94.12 C714.04,92.4399916 714.026667,91.2400036 714,90.52 C713.973333,89.7999964 713.880001,88.973338 713.72,88.04 C713.559999,87.106662 713.320002,86.4800016 713,86.16 C712.039995,85.3066624 710.533344,84.88 708.48,84.88 C706.426656,84.88 705.133336,85.479994 704.6,86.68 C704.066664,87.880006 703.8,90.3599812 703.8,94.12 C703.8,97.8800188 704.106664,100.493326 704.72,101.96 C705.333336,103.426674 706.63999,104.16 708.64,104.16 C710.64001,104.16 712.01333,103.720004 712.76,102.84 C713.50667,101.959996 713.906666,100.706675 713.96,99.08 Z M749.16,128.92 C749.74667,128.199996 750.04,127.13334 750.04,125.72 C750.04,124.30666 749.760003,123.360002 749.2,122.88 C748.639997,122.399998 747.40001,122.16 745.48,122.16 C738.119963,122.16 733.81334,121.800004 732.56,121.08 C731.30666,120.359996 730.68,117.840022 730.68,113.52 C730.68,110.586652 731.826655,108.16001 734.12,106.24 C732.893327,105.119994 732.013336,103.773341 731.48,102.2 C730.946664,100.626659 730.68,98.4266808 730.68,95.6 C730.68,92.7733192 730.693333,90.9333376 730.72,90.08 C730.746667,89.2266624 730.8,88.13334 730.88,86.8 C730.96,85.46666 731.106666,84.5200028 731.32,83.96 C731.533334,83.3999972 731.839998,82.6933376 732.24,81.84 C732.640002,80.9866624 733.13333,80.4000016 733.72,80.08 C734.30667,79.7599984 735.026662,79.4133352 735.88,79.04 C737.266674,78.3999968 739.66665,78.08 743.08,78.08 L757.56,78.08 C757.56,80.6400128 757.320002,82.3466624 756.84,83.2 C756.359998,84.0533376 755.400007,84.5333328 753.96,84.64 C754.920005,86.7200104 755.4,89.8666456 755.4,94.08 L755.4,97.68 C755.4,100.293346 755.293334,102.053329 755.08,102.96 C754.866666,103.866671 754.613335,104.773329 754.32,105.68 C754.026665,106.586671 753.680002,107.226665 753.28,107.6 C752.879998,107.973335 752.373336,108.426664 751.76,108.96 C751.146664,109.493336 750.440004,109.866666 749.64,110.08 C747.346655,110.560002 745.040012,110.8 742.72,110.8 C740.399988,110.8 738.94667,110.959998 738.36,111.28 C737.77333,111.600002 737.48,112.186662 737.48,113.04 C737.48,113.893338 737.613332,114.426666 737.88,114.64 C738.46667,115.120002 741.079977,115.36 745.72,115.36 C750.360023,115.36 753.373326,115.919994 754.76,117.04 C756.146674,118.160006 756.84,120.866645 756.84,125.16 C756.84,129.453355 756.053341,132.426658 754.48,134.08 C752.906659,135.733342 749.82669,136.56 745.24,136.56 L740.44,136.56 C737.879987,136.56 736.386669,136.306669 735.96,135.8 C735.533331,135.293331 735.32,133.546682 735.32,130.56 L745.16,130 C747.24001,130 748.57333,129.640004 749.16,128.92 Z M748.04,99.08 C748.093334,97.4533252 748.12,95.8000084 748.12,94.12 C748.12,92.4399916 748.106667,91.2400036 748.08,90.52 C748.053333,89.7999964 747.960001,88.973338 747.8,88.04 C747.639999,87.106662 747.400002,86.4800016 747.08,86.16 C746.119995,85.3066624 744.613344,84.88 742.56,84.88 C740.506656,84.88 739.213336,85.479994 738.68,86.68 C738.146664,87.880006 737.88,90.3599812 737.88,94.12 C737.88,97.8800188 738.186664,100.493326 738.8,101.96 C739.413336,103.426674 740.71999,104.16 742.72,104.16 C744.72001,104.16 746.09333,103.720004 746.84,102.84 C747.58667,101.959996 747.986666,100.706675 748.04,99.08 Z M779.88,88.56 L779.96,86.4 C779.96,85.6533296 779.880001,85.2533336 779.72,85.2 C779.559999,85.1466664 779.373334,85.0266676 779.16,84.84 C778.946666,84.6533324 778.666668,84.6133328 778.32,84.72 C777.973332,84.8266672 777.560002,84.8533336 777.08,84.8 L772.76,85.36 C771.639994,85.5200008 770.680004,85.6 769.88,85.6 C769.079996,85.6 768.466669,85.4133352 768.04,85.04 C767.613331,84.6666648 767.186669,82.9600152 766.76,79.92 L776.04,78.08 C779.826686,78.08 782.199995,78.3599972 783.16,78.92 C784.120005,79.4800028 784.813331,79.9466648 785.24,80.32 C785.666669,80.6933352 785.959999,81.4399944 786.12,82.56 C786.386668,83.9466736 786.52,86.1333184 786.52,89.12 L786.52,121.6 C783.426651,121.6 781.480004,121.440002 780.68,121.12 C779.879996,120.799998 779.453334,120.026673 779.4,118.8 L772.76,122.16 C771.266659,122.16 770.160004,122.146667 769.44,122.12 C768.719996,122.093333 768.000004,121.866669 767.28,121.44 C766.559996,121.013331 766.080001,120.586669 765.84,120.16 C765.599999,119.733331 765.373334,118.826674 765.16,117.44 C764.893332,115.786658 764.76,112.400026 764.76,107.28 L764.76,101.76 C764.76,95.7333032 770.013281,92.6133344 780.52,92.4 L779.88,90.48 L779.88,88.56 Z M772.28,115.36 C772.333334,115.36 775.02664,114.346677 780.36,112.32 L779.56,110 L779.56,100.48 L780.2,98.64 C778.013322,98.6933336 776.093342,98.9066648 774.44,99.28 C772.786658,99.6533352 771.96,100.159997 771.96,100.8 L771.88,111.36 C771.88,114.02668 772.013332,115.36 772.28,115.36 Z M811.16,73.08 C810.199995,72.0933284 809.72,70.9466732 809.72,69.64 C809.72,68.3333268 810.199995,67.2266712 811.16,66.32 C812.120005,65.4133288 813.239994,64.96 814.52,64.96 C815.800006,64.96 816.919995,65.4133288 817.88,66.32 C818.840005,67.2266712 819.32,68.3333268 819.32,69.64 C819.32,70.9466732 818.840005,72.0933284 817.88,73.08 C816.919995,74.0666716 815.800006,74.56 814.52,74.56 C813.239994,74.56 812.120005,74.0666716 811.16,73.08 Z M811,117.12 L811,78.64 C814.573351,78.64 816.65333,78.839998 817.24,79.24 C817.82667,79.640002 818.12,81.039988 818.12,83.44 L818.12,121.92 C814.546649,121.92 812.46667,121.720002 811.88,121.32 C811.29333,120.919998 811,119.520012 811,117.12 Z M845.72,100.24 L845.8,93.2 C845.8,91.066656 845.746667,89.466672 845.64,88.4 C845.426666,86.1599888 844.173345,84.9866672 841.88,84.88 L834.52,87.04 L835.24,89.28 L835.24,121.6 C831.666649,121.6 829.58667,121.400002 829,121 C828.41333,120.599998 828.12,119.200012 828.12,116.8 L828.12,78.64 C831.213349,78.64 833.159996,78.7199992 833.96,78.88 C834.760004,79.0400008 835.186666,79.519996 835.24,80.32 L841.16,78.08 C844.41335,78.08 846.546662,78.2933312 847.56,78.72 C848.573338,79.1466688 849.346664,79.5199984 849.88,79.84 C850.413336,80.1600016 850.893331,80.8133284 851.32,81.8 C851.746669,82.7866716 852.039999,83.6933292 852.2,84.52 C852.360001,85.3466708 852.519999,86.6666576 852.68,88.48 C852.840001,91.0933464 852.92,95.0399736 852.92,100.32 L852.92,121.6 C849.346649,121.6 847.253336,121.400002 846.64,121 C846.026664,120.599998 845.72,119.200012 845.72,116.8 L845.72,100.24 Z M900.44,121.6 C896.866649,121.6 894.78667,121.400002 894.2,121 C893.61333,120.599998 893.32,119.200012 893.32,116.8 L893.24,97.2 L893.24,94.08 C893.24,92.8533272 893.253333,91.9200032 893.28,91.28 C893.306667,90.6399968 893.293334,89.9066708 893.24,89.08 C893.186666,88.2533292 893.093334,87.640002 892.96,87.24 C892.826666,86.839998 892.653334,86.4266688 892.44,86 C892.066665,85.2533296 891.266673,84.88 890.04,84.88 L882.92,86.96 L883.64,89.28 L883.64,121.6 C880.066649,121.6 877.98667,121.400002 877.4,121 C876.81333,120.599998 876.52,119.200012 876.52,116.8 L876.52,78.64 C879.453348,78.64 881.319996,78.7199992 882.12,78.88 C882.920004,79.0400008 883.399999,79.519996 883.56,80.32 L889.56,78.08 C891.906678,78.08 893.693327,78.279998 894.92,78.68 C896.146673,79.080002 897.239995,79.8399944 898.2,80.96 L905.56,78.08 C908.706682,78.08 910.826661,78.3066644 911.92,78.76 C913.013339,79.2133356 913.813331,79.5999984 914.32,79.92 C914.826669,80.2400016 915.279998,80.9066616 915.68,81.92 C916.080002,82.9333384 916.373332,83.839996 916.56,84.64 C916.746668,85.440004 916.893333,86.773324 917,88.64 C917.160001,91.4133472 917.24,95.3066416 917.24,100.32 L917.24,121.6 C913.613315,121.6 911.50667,121.400002 910.92,121 C910.33333,120.599998 910.04,119.200012 910.04,116.8 L910.04,100.24 C910.04,92.8799632 909.960001,88.7733376 909.8,87.92 C909.533332,86.3733256 908.786673,85.4400016 907.56,85.12 C907.133331,85.0133328 906.600003,84.9333336 905.96,84.88 L899.72,86.72 L900.44,88.96 L900.44,121.6 Z M937.32,115.36 C940.946685,115.36 944.626648,115.093336 948.36,114.56 L948.36,120.8 C943.399975,121.706671 939.88001,122.16 937.8,122.16 C935.71999,122.16 934.05334,122.013335 932.8,121.72 C931.54666,121.426665 930.466671,121.080002 929.56,120.68 C928.653329,120.279998 927.90667,119.600005 927.32,118.64 C926.73333,117.679995 926.280002,116.786671 925.96,115.96 C925.639998,115.133329 925.400001,113.866675 925.24,112.16 C925.026666,109.866655 924.92,107.42668 924.92,104.84 L924.92,94.16 C924.92,90.3733144 925.026666,88.013338 925.24,87.08 C925.453334,86.146662 925.693332,85.1333388 925.96,84.04 C926.226668,82.9466612 926.573331,82.1733356 927,81.72 C927.426669,81.2666644 927.946664,80.7333364 928.56,80.12 C929.173336,79.5066636 929.879996,79.0933344 930.68,78.88 C933.186679,78.346664 935.426657,78.08 937.4,78.08 C939.373343,78.08 941.06666,78.3866636 942.48,79 C943.89334,79.6133364 944.986663,80.3733288 945.76,81.28 C946.533337,82.1866712 947.133331,83.4666584 947.56,85.12 C948.253337,87.7333464 948.6,91.1466456 948.6,95.36 L948.84,100.8 L931.4,101.2 L932.04,103.04 C932.04,108.320026 932.293331,111.693326 932.8,113.16 C933.306669,114.626674 934.813321,115.36 937.32,115.36 Z M940.64,86.52 C940.133331,85.4266612 938.92001,84.88 937,84.88 C935.07999,84.88 933.840003,85.3599952 933.28,86.32 C932.719997,87.2800048 932.44,89.359984 932.44,92.56 L931.8,94.32 L942.28,94.32 L941.48,92.56 C941.426666,89.626652 941.146669,87.6133388 940.64,86.52 Z M955.16,100.24 C955.16,96.2933136 955.2,93.4400088 955.28,91.68 C955.36,89.9199912 955.599998,87.9333444 956,85.72 C956.400002,83.5066556 957.053329,81.9733376 957.96,81.12 C960.093344,79.0933232 963.373311,78.08 967.8,78.08 L972.28,79.68 L972.28,64 C975.853351,64 977.93333,64.199998 978.52,64.6 C979.10667,65.000002 979.4,66.4266544 979.4,68.88 L979.4,121.6 C976.199984,121.6 974.22667,121.466668 973.48,121.2 C972.73333,120.933332 972.333334,120.160006 972.28,118.88 L967.4,122.16 C963.186646,122.16 959.986678,121.173343 957.8,119.2 C956.359993,117.86666 955.506668,114.400028 955.24,108.8 C955.186666,107.039991 955.16,104.186686 955.16,100.24 Z M973.08,112.72 L972.28,110.16 L972.28,88.72 L973,86.48 L966.76,84.88 C964.733323,85.0400008 963.480002,86.1599896 963,88.24 C962.519998,90.3200104 962.28,94.4533024 962.28,100.64 C962.28,106.826698 962.519998,110.719992 963,112.32 C963.58667,114.293343 964.866657,115.306666 966.84,115.36 L973.08,112.72 Z M1026.44,70.8 L1016.68,70.8 L1017.4,72.8 L1017.4,116.72 C1017.4,119.173346 1017.14667,120.599998 1016.64,121 C1016.13333,121.400002 1014.44001,121.6 1011.56,121.6 L1009.64,121.6 L1009.64,72.8 L1010.2,70.8 L1000.6,70.8 L1000.6,64 L1026.44,64 L1026.44,70.8 Z M1070.92,79.52 C1071.08,79.786668 1071.16,80.0933316 1071.16,80.44 C1071.16,80.7866684 1071,81.7866584 1070.68,83.44 L1063.24,121.6 L1054.36,121.6 L1050.76,94.4 L1047.16,121.6 L1038.2,121.6 L1029.64,78.64 C1033.26668,78.64 1035.41333,78.8266648 1036.08,79.2 C1036.74667,79.5733352 1037.29333,80.9066552 1037.72,83.2 L1042.52,110.96 L1042.76,110.96 L1046.2,88.4 L1047.72,82.64 L1053.96,82.64 L1055.4,88.48 L1059,111.04 L1059.24,111.04 L1064.76,78.64 C1068.44002,78.64 1070.49333,78.9333304 1070.92,79.52 Z M1078.6,73.08 C1077.64,72.0933284 1077.16,70.9466732 1077.16,69.64 C1077.16,68.3333268 1077.64,67.2266712 1078.6,66.32 C1079.56,65.4133288 1080.67999,64.96 1081.96,64.96 C1083.24001,64.96 1084.36,65.4133288 1085.32,66.32 C1086.28,67.2266712 1086.76,68.3333268 1086.76,69.64 C1086.76,70.9466732 1086.28,72.0933284 1085.32,73.08 C1084.36,74.0666716 1083.24001,74.56 1081.96,74.56 C1080.67999,74.56 1079.56,74.0666716 1078.6,73.08 Z M1078.44,117.12 L1078.44,78.64 C1082.01335,78.64 1084.09333,78.839998 1084.68,79.24 C1085.26667,79.640002 1085.56,81.039988 1085.56,83.44 L1085.56,121.92 C1081.98665,121.92 1079.90667,121.720002 1079.32,121.32 C1078.73333,120.919998 1078.44,119.520012 1078.44,117.12 Z M1110.92,78.64 C1110.92,81.6800152 1110.64,83.5599964 1110.08,84.28 C1109.52,85.0000036 1107.88001,85.36 1105.16,85.36 L1102.84,85.36 L1103.56,87.36 L1103.56,103.2 C1103.56,107.733356 1103.73333,110.839992 1104.08,112.52 C1104.42667,114.200008 1105.15999,115.146666 1106.28,115.36 L1112.36,115.36 L1112.36,121.6 L1105.88,122 C1103.21332,122 1101.45334,121.733336 1100.6,121.2 C1099.74666,120.666664 1099.10667,120.240002 1098.68,119.92 C1098.25333,119.599998 1097.88,118.946672 1097.56,117.96 C1097.24,116.973328 1097,116.173336 1096.84,115.56 C1096.68,114.946664 1096.56,113.826675 1096.48,112.2 C1096.4,110.573325 1096.36,109.226672 1096.36,108.16 L1096.36,87.36 L1097,85.36 L1092.76,85.36 L1092.76,78.64 L1097,78.64 L1096.36,75.68 L1096.36,71.6 C1099.93335,71.6 1102.02666,71.7733316 1102.64,72.12 C1103.25334,72.4666684 1103.56,73.7333224 1103.56,75.92 L1102.92,78.64 L1110.92,78.64 Z M1133.72,78.64 C1133.72,81.6800152 1133.44,83.5599964 1132.88,84.28 C1132.32,85.0000036 1130.68001,85.36 1127.96,85.36 L1125.64,85.36 L1126.36,87.36 L1126.36,103.2 C1126.36,107.733356 1126.53333,110.839992 1126.88,112.52 C1127.22667,114.200008 1127.95999,115.146666 1129.08,115.36 L1135.16,115.36 L1135.16,121.6 L1128.68,122 C1126.01332,122 1124.25334,121.733336 1123.4,121.2 C1122.54666,120.666664 1121.90667,120.240002 1121.48,119.92 C1121.05333,119.599998 1120.68,118.946672 1120.36,117.96 C1120.04,116.973328 1119.8,116.173336 1119.64,115.56 C1119.48,114.946664 1119.36,113.826675 1119.28,112.2 C1119.2,110.573325 1119.16,109.226672 1119.16,108.16 L1119.16,87.36 L1119.8,85.36 L1115.56,85.36 L1115.56,78.64 L1119.8,78.64 L1119.16,75.68 L1119.16,71.6 C1122.73335,71.6 1124.82666,71.7733316 1125.44,72.12 C1126.05334,72.4666684 1126.36,73.7333224 1126.36,75.92 L1125.72,78.64 L1133.72,78.64 Z M1152.84,115.36 C1156.46668,115.36 1160.14665,115.093336 1163.88,114.56 L1163.88,120.8 C1158.91998,121.706671 1155.40001,122.16 1153.32,122.16 C1151.23999,122.16 1149.57334,122.013335 1148.32,121.72 C1147.06666,121.426665 1145.98667,121.080002 1145.08,120.68 C1144.17333,120.279998 1143.42667,119.600005 1142.84,118.64 C1142.25333,117.679995 1141.8,116.786671 1141.48,115.96 C1141.16,115.133329 1140.92,113.866675 1140.76,112.16 C1140.54667,109.866655 1140.44,107.42668 1140.44,104.84 L1140.44,94.16 C1140.44,90.3733144 1140.54667,88.013338 1140.76,87.08 C1140.97333,86.146662 1141.21333,85.1333388 1141.48,84.04 C1141.74667,82.9466612 1142.09333,82.1733356 1142.52,81.72 C1142.94667,81.2666644 1143.46666,80.7333364 1144.08,80.12 C1144.69334,79.5066636 1145.4,79.0933344 1146.2,78.88 C1148.70668,78.346664 1150.94666,78.08 1152.92,78.08 C1154.89334,78.08 1156.58666,78.3866636 1158,79 C1159.41334,79.6133364 1160.50666,80.3733288 1161.28,81.28 C1162.05334,82.1866712 1162.65333,83.4666584 1163.08,85.12 C1163.77334,87.7333464 1164.12,91.1466456 1164.12,95.36 L1164.36,100.8 L1146.92,101.2 L1147.56,103.04 C1147.56,108.320026 1147.81333,111.693326 1148.32,113.16 C1148.82667,114.626674 1150.33332,115.36 1152.84,115.36 Z M1156.16,86.52 C1155.65333,85.4266612 1154.44001,84.88 1152.52,84.88 C1150.59999,84.88 1149.36,85.3599952 1148.8,86.32 C1148.24,87.2800048 1147.96,89.359984 1147.96,92.56 L1147.32,94.32 L1157.8,94.32 L1157,92.56 C1156.94667,89.626652 1156.66667,87.6133388 1156.16,86.52 Z M1178.68,121.6 C1175.10665,121.6 1173.01334,121.400002 1172.4,121 C1171.78666,120.599998 1171.48,119.200012 1171.48,116.8 L1171.48,78.64 C1175.00002,78.64 1177.05333,78.7466656 1177.64,78.96 C1178.22667,79.1733344 1178.52,79.8933272 1178.52,81.12 L1183.64,78.08 C1185.18667,78.08 1186.59999,78.2399984 1187.88,78.56 L1189.16,78.64 C1189.16,81.6800152 1188.94667,83.4799972 1188.52,84.04 C1188.09333,84.6000028 1186.73334,84.88 1184.44,84.88 L1177.88,87.12 L1178.68,89.36 L1178.68,121.6 Z" id="Logga-in-med-Twitter" fill="#FFFFFF"></path>
        </g>
    </g>
</svg>