<?xml version="1.0" encoding="UTF-8"?>
<svg width="213px" height="285px" viewBox="0 0 213 285" version="1.1" xmlns="http://www.w3.org/2000/svg" xmlns:xlink="http://www.w3.org/1999/xlink">
    <!-- Generator: Sketch 50.2 (55047) - http://www.bohemiancoding.com/sketch -->
    <title>Group 9</title>
    <desc>Created with Sketch.</desc>
    <defs>
        <path d="M65.5,131 C101.674651,131 131,101.674651 131,65.5 C131,29.3253489 101.674651,1.13686838e-13 65.5,1.13686838e-13 C29.3253489,1.13686838e-13 1.13686838e-13,29.3253489 1.13686838e-13,65.5 C1.13686838e-13,101.674651 29.3253489,131 65.5,131 Z" id="path-1"></path>
    </defs>
    <g id="Page-1" stroke="none" stroke-width="1" fill="none" fill-rule="evenodd">
        <g id="Group-9" transform="translate(6.000000, 6.000000)">
            <rect id="Rectangle-2" stroke="#000000" stroke-width="11" fill="#FFFFFF" fill-rule="nonzero" x="0" y="0" width="201" height="273"></rect>
            <rect id="Rectangle-13" fill="#EFEFEF" fill-rule="nonzero" x="16" y="21" width="170" height="230"></rect>
            <circle id="Oval" fill="#000000" fill-rule="nonzero" cx="100.5" cy="136.5" r="69.5"></circle>
            <g id="path-3-Clipped" stroke-linecap="round" stroke-linejoin="round" stroke-dasharray="247.0299987792969,620" transform="translate(35.000000, 71.000000)">
                <mask id="mask-2" fill="white">
                    <use xlink:href="#path-1"></use>
                </mask>
                <g id="path-3"></g>
                <path d="M65.5,131 C101.674651,131 131,101.674651 131,65.5 C131,29.3253489 101.674651,1.13686838e-13 65.5,1.13686838e-13 C29.3253489,1.13686838e-13 1.13686838e-13,29.3253489 1.13686838e-13,65.5 C1.13686838e-13,101.674651 29.3253489,131 65.5,131 Z" id="path-3" stroke="#BA908E" stroke-width="31" mask="url(#mask-2)"></path>
            </g>
            <path d="M80.928,137.206 C82.0426722,137.206 82.7139989,136.851337 82.942,136.142 C83.1700011,135.432663 83.284,133.748013 83.284,131.088 C83.284,128.427987 83.1636679,126.724337 82.923,125.977 C82.6823321,125.229663 82.0680049,124.843333 81.08,124.818 L78.572,125.54 L78.534,129.188 L78.534,130.67 C78.534,131.556671 78.5466665,132.335663 78.572,133.007 C78.5973335,133.678337 78.679666,134.412996 78.819,135.211 C78.958334,136.009004 79.1989983,136.540999 79.541,136.807 C79.8830017,137.073001 80.3453304,137.206 80.928,137.206 Z M86.818,130.898 L86.818,133.026 C86.818,134.596675 86.7800004,135.616331 86.704,136.085 C86.6279996,136.553669 86.5393338,137.028664 86.438,137.51 C86.3366662,137.991336 86.216334,138.326999 86.077,138.517 C85.937666,138.707001 85.7540011,138.947665 85.526,139.239 C85.2979989,139.530335 85.0446681,139.720333 84.766,139.809 C84.4873319,139.897667 84.1580019,140.005333 83.778,140.132 C83.2459973,140.309334 82.4543386,140.398 81.403,140.398 C80.3516614,140.398 79.5473361,140.347334 78.99,140.246 C78.4326639,140.144666 77.9513354,139.954668 77.546,139.676 C77.1406646,139.397332 76.7923348,139.125001 76.501,138.859 C76.2096652,138.592999 75.969001,138.175003 75.779,137.605 C75.588999,137.034997 75.4433338,136.522002 75.342,136.066 C75.2406662,135.609998 75.1646669,134.951338 75.114,134.09 C75.0379996,132.797994 75,131.366675 75,129.796 L75,126.528 C75,124.323989 75.0443329,122.829337 75.133,122.044 C75.2216671,121.258663 75.3166662,120.454337 75.418,119.631 C75.5193338,118.807663 75.6523325,118.168002 75.817,117.712 C75.9816675,117.255998 76.1779989,116.73667 76.406,116.154 C76.6340011,115.57133 76.9063317,115.121668 77.223,114.805 C77.5396682,114.488332 77.8879981,114.178002 78.268,113.874 C79.0026703,113.316664 80.0413266,113.038 81.384,113.038 L86.286,113.494 C86.286,114.912674 86.1846677,115.748665 85.982,116.002 C85.7793323,116.255335 85.0700061,116.382 83.854,116.382 L81.384,116.382 C80.5986627,116.382 80.0350017,116.818996 79.693,117.693 C79.3509983,118.567004 79.0786677,120.067989 78.876,122.196 L80.738,121.626 C83.6260144,121.626 85.3613304,122.157995 85.944,123.222 C86.5266696,124.286005 86.818,126.844646 86.818,130.898 Z M90.618,131.126 C90.5926665,130.213995 90.58,128.656011 90.58,126.452 C90.58,124.247989 90.5989998,122.620339 90.637,121.569 C90.6750002,120.517661 90.788999,119.29534 90.979,117.902 C91.1690009,116.50866 91.4793312,115.546003 91.91,115.014 C93.0246722,113.69666 94.6459894,113.038 96.774,113.038 C97.7873384,113.038 98.6486631,113.132999 99.358,113.323 C100.067337,113.513001 100.649998,113.91833 101.106,114.539 C101.562002,115.15967 101.916665,115.735997 102.17,116.268 C102.423335,116.800003 102.600666,117.72466 102.702,119.042 C102.854001,121.01801 102.93,123.392986 102.93,126.167 C102.93,128.941014 102.911,130.859995 102.873,131.924 C102.835,132.988005 102.721001,134.229326 102.531,135.648 C102.340999,137.066674 102.030669,138.041997 101.6,138.574 C100.510661,139.96734 98.9020106,140.664 96.774,140.664 C95.7606616,140.664 94.8930036,140.562668 94.171,140.36 C93.4489964,140.157332 92.8600023,139.733003 92.404,139.087 C91.9479977,138.440997 91.5933346,137.845669 91.34,137.301 C91.0866654,136.756331 90.9093338,135.819007 90.808,134.489 C90.7066662,133.158993 90.6433335,132.038005 90.618,131.126 Z M94.532,118.586 C94.2533319,120.055341 94.114,122.309985 94.114,125.35 C94.114,128.390015 94.1266665,130.378662 94.152,131.316 C94.1773335,132.253338 94.2723325,133.285661 94.437,134.413 C94.6016675,135.540339 94.8676648,136.306665 95.235,136.712 C95.6023352,137.117335 96.11533,137.32 96.774,137.32 C97.9646726,137.32 98.6993319,136.553674 98.978,135.021 C99.2566681,133.488326 99.396,131.202015 99.396,128.162 C99.396,125.121985 99.3833335,123.139671 99.358,122.215 C99.3326665,121.290329 99.2376675,120.277006 99.073,119.175 C98.9083325,118.072994 98.6423352,117.332002 98.275,116.952 C97.9076648,116.571998 97.4073365,116.382 96.774,116.382 C95.5579939,116.382 94.8106681,117.116659 94.532,118.586 Z M106.35,118.776 C106.35,116.546656 106.615997,115.026671 107.148,114.216 C107.680003,113.405329 108.547661,113 109.751,113 C110.954339,113 111.802998,113.405329 112.297,114.216 C112.791002,115.026671 113.038,116.552989 113.038,118.795 C113.038,121.037011 112.784669,122.588662 112.278,123.45 C111.771331,124.311338 110.929006,124.742 109.751,124.742 C108.572994,124.742 107.711669,124.305004 107.167,123.431 C106.622331,122.556996 106.35,121.005344 106.35,118.776 Z M110.397,115.546 C110.232333,115.393999 110.017001,115.318 109.751,115.318 C109.484999,115.318 109.269667,115.393999 109.105,115.546 C108.940333,115.698001 108.82,115.963998 108.744,116.344 C108.668,116.876003 108.63,117.591662 108.63,118.491 C108.63,119.390338 108.636333,119.991998 108.649,120.296 C108.661667,120.600002 108.699666,120.941998 108.763,121.322 C108.826334,121.702002 108.940333,121.961666 109.105,122.101 C109.269667,122.240334 109.491332,122.31 109.77,122.31 C110.048668,122.31 110.263999,122.240334 110.416,122.101 C110.568001,121.961666 110.669333,121.702002 110.72,121.322 C110.821334,120.789997 110.872,120.074338 110.872,119.175 C110.872,118.275662 110.865667,117.674002 110.853,117.37 C110.840333,117.065998 110.802334,116.724002 110.739,116.344 C110.675666,115.963998 110.561667,115.698001 110.397,115.546 Z M118.358,134.432 C118.358,132.202656 118.623997,130.682671 119.156,129.872 C119.688003,129.061329 120.555661,128.656 121.759,128.656 C122.962339,128.656 123.810998,129.061329 124.305,129.872 C124.799002,130.682671 125.046,132.208989 125.046,134.451 C125.046,136.693011 124.792669,138.244662 124.286,139.106 C123.779331,139.967338 122.937006,140.398 121.759,140.398 C120.580994,140.398 119.719669,139.961004 119.175,139.087 C118.630331,138.212996 118.358,136.661344 118.358,134.432 Z M122.405,131.202 C122.240333,131.049999 122.025001,130.974 121.759,130.974 C121.492999,130.974 121.277667,131.049999 121.113,131.202 C120.948333,131.354001 120.828,131.619998 120.752,132 C120.676,132.532003 120.638,133.247662 120.638,134.147 C120.638,135.046338 120.644333,135.647998 120.657,135.952 C120.669667,136.256002 120.707666,136.597998 120.771,136.978 C120.834334,137.358002 120.948333,137.617666 121.113,137.757 C121.277667,137.896334 121.499332,137.966 121.778,137.966 C122.056668,137.966 122.271999,137.896334 122.424,137.757 C122.576001,137.617666 122.677333,137.358002 122.728,136.978 C122.829334,136.445997 122.88,135.730338 122.88,134.831 C122.88,133.931662 122.873667,133.330002 122.861,133.026 C122.848333,132.721998 122.810334,132.380002 122.747,132 C122.683666,131.619998 122.569667,131.354001 122.405,131.202 Z M122.994,113.038 L112.05,140.398 L108.25,140.398 L119.232,113.038 L122.994,113.038 Z" id="60%" fill="#F7C900"></path>
            <path d="M82.128,153.388 C82.128,153.756002 82.0920004,153.97 82.02,154.03 C81.9479996,154.09 81.6960022,154.12 81.264,154.12 L81,154.12 L81,145.468 L82.944,145.336 C83.744004,145.336 84.2959985,145.439999 84.6,145.648 C84.7120006,145.728 84.8059996,145.8 84.882,145.864 C84.9580004,145.928 85.0219997,146.025999 85.074,146.158 C85.1260003,146.290001 85.1659999,146.398 85.194,146.482 C85.2220001,146.566 85.24,146.695999 85.248,146.872 C85.2720001,147.176002 85.284,147.481998 85.284,147.79 C85.284,148.098002 85.28,148.329999 85.272,148.486 C85.264,148.642001 85.2380002,148.831999 85.194,149.056 C85.1499998,149.280001 85.0800005,149.447999 84.984,149.56 C84.8879995,149.672001 84.7560008,149.783999 84.588,149.896 C84.2919985,150.104001 83.748004,150.208 82.956,150.208 L82.128,150.208 L82.128,153.388 Z M82.956,149.14 C83.348002,149.14 83.6519989,149.076001 83.868,148.948 C84.0040007,148.868 84.0839999,148.656002 84.108,148.312 C84.116,148.199999 84.12,148.022001 84.12,147.778 C84.12,147.533999 84.116,147.358001 84.108,147.25 C84.1,147.141999 84.0780002,147.018001 84.042,146.878 C84.0059998,146.737999 83.9480004,146.644 83.868,146.596 C83.6519989,146.467999 83.348002,146.404 82.956,146.404 L82.032,146.404 L82.128,146.704 L82.128,148.864 L82.032,149.14 L82.956,149.14 Z M87.354,146.908 C87.1259989,146.683999 87.012,146.420002 87.012,146.116 C87.012,145.811998 87.1259989,145.550001 87.354,145.33 C87.5820011,145.109999 87.8479985,145 88.152,145 C88.4560015,145 88.7199989,145.109999 88.944,145.33 C89.1680011,145.550001 89.28,145.813998 89.28,146.122 C89.28,146.430002 89.1680011,146.693999 88.944,146.914 C88.7199989,147.134001 88.4560015,147.244 88.152,147.244 C87.8479985,147.244 87.5820011,147.132001 87.354,146.908 Z M87.894,145.876 C87.8179996,145.948 87.78,146.03 87.78,146.122 C87.78,146.214 87.8199996,146.3 87.9,146.38 C87.9800004,146.46 88.0659995,146.5 88.158,146.5 C88.2500005,146.5 88.3359996,146.46 88.416,146.38 C88.4960004,146.3 88.536,146.214 88.536,146.122 C88.536,146.03 88.4960004,145.948 88.416,145.876 C88.3359996,145.804 88.2480005,145.768 88.152,145.768 C88.0559995,145.768 87.9700004,145.804 87.894,145.876 Z M88.692,149.164 L88.704,148.84 C88.704,148.727999 88.6920001,148.668 88.668,148.66 C88.6439999,148.652 88.6160002,148.634 88.584,148.606 C88.5519998,148.578 88.5100003,148.572 88.458,148.588 C88.4059997,148.604 88.3440004,148.608 88.272,148.6 L87.624,148.684 C87.4559992,148.708 87.3120006,148.72 87.192,148.72 C87.0719994,148.72 86.9800003,148.692 86.916,148.636 C86.8519997,148.58 86.7880003,148.324002 86.724,147.868 L88.116,147.592 C88.6840028,147.592 89.0399993,147.634 89.184,147.718 C89.3280007,147.802 89.4319997,147.872 89.496,147.928 C89.5600003,147.984 89.6039999,148.095999 89.628,148.264 C89.6680002,148.472001 89.688,148.799998 89.688,149.248 L89.688,154.12 C89.2239977,154.12 88.9320006,154.096 88.812,154.048 C88.6919994,154 88.628,153.884001 88.62,153.7 L87.624,154.204 C87.3999989,154.204 87.2340005,154.202 87.126,154.198 C87.0179995,154.194 86.9100005,154.16 86.802,154.096 C86.6939995,154.032 86.6220002,153.968 86.586,153.904 C86.5499998,153.84 86.5160002,153.704001 86.484,153.496 C86.4439998,153.247999 86.424,152.740004 86.424,151.972 L86.424,151.144 C86.424,150.239995 87.2119921,149.772 88.788,149.74 L88.692,149.452 L88.692,149.164 Z M87.552,153.184 C87.56,153.184 87.963996,153.032002 88.764,152.728 L88.644,152.38 L88.644,150.952 L88.74,150.676 C88.4119984,150.684 88.1240012,150.716 87.876,150.772 C87.6279988,150.828 87.504,150.904 87.504,151 L87.492,152.584 C87.492,152.984002 87.5119998,153.184 87.552,153.184 Z M93.156,147.676 L93.156,148.684 L91.956,148.684 L92.076,149.032 L92.076,155.524 C92.068,155.948002 92.0220004,156.194 91.938,156.262 C91.8539996,156.33 91.5440027,156.364 91.008,156.364 L91.02,149.032 L91.128,148.684 L90.468,148.684 L90.468,147.676 L91.128,147.676 L91.02,147.376 L91.02,146.776 C91.02,146.655999 91.0319999,146.506001 91.056,146.326 C91.0800001,146.145999 91.1039999,146.03 91.128,145.978 C91.1520001,145.926 91.2059996,145.854 91.29,145.762 C91.3740004,145.67 91.4559996,145.616 91.536,145.6 C91.6160004,145.584 91.7459991,145.56 91.926,145.528 C92.1060009,145.496 92.2839991,145.48 92.46,145.48 L93.18,145.48 L93.18,146.332 C92.6359973,146.332 92.3180005,146.376 92.226,146.464 C92.1339995,146.552 92.088,146.863997 92.088,147.4 L91.968,147.676 L93.156,147.676 Z M93.852,156.364 L93.852,155.5 C94.1640016,155.5 94.4299989,155.402001 94.65,155.206 C94.8700011,155.009999 94.98,154.784001 94.98,154.528 C94.98,154.464 94.976,154.412 94.968,154.372 L93.612,147.676 L94.08,147.676 C94.3200012,147.676 94.4719997,147.694 94.536,147.73 C94.6000003,147.766 94.6539998,147.816 94.698,147.88 C94.7420002,147.944 94.768,148.006 94.776,148.066 C94.784,148.126 94.7999999,148.223999 94.824,148.36 L95.508,152.68 L95.688,152.68 L96.42,147.676 C96.8440021,147.676 97.1139994,147.694 97.23,147.73 C97.3460006,147.766 97.404,147.875999 97.404,148.06 L96.132,154.312 C96.0119994,154.952003 95.8800007,155.375999 95.736,155.584 C95.535999,155.864001 95.3440009,156.044 95.16,156.124 C94.7439979,156.284001 94.3080023,156.364 93.852,156.364 Z M99.432,146.212 L99.432,154.168 C98.8959973,154.168 98.5840004,154.138 98.496,154.078 C98.4079996,154.018 98.364,153.808002 98.364,153.448 L98.364,145.48 C98.8920026,145.48 99.2019995,145.51 99.294,145.57 C99.3860005,145.63 99.432,145.843998 99.432,146.212 Z M101.82,146.212 L101.82,154.168 C101.283997,154.168 100.972,154.138 100.884,154.078 C100.796,154.018 100.752,153.808002 100.752,153.448 L100.752,145.48 C101.280003,145.48 101.59,145.51 101.682,145.57 C101.774,145.63 101.82,145.843998 101.82,146.212 Z M105.72,150.916 L105.732,149.86 C105.732,149.539998 105.724,149.300001 105.708,149.14 C105.676,148.803998 105.488002,148.628 105.144,148.612 L104.04,148.936 L104.148,149.272 L104.148,154.12 C103.611997,154.12 103.3,154.09 103.212,154.03 C103.124,153.97 103.08,153.760002 103.08,153.4 L103.08,147.676 C103.544002,147.676 103.835999,147.688 103.956,147.712 C104.076001,147.736 104.14,147.807999 104.148,147.928 L105.036,147.592 C105.524002,147.592 105.843999,147.624 105.996,147.688 C106.148001,147.752 106.264,147.808 106.344,147.856 C106.424,147.904 106.496,148.001999 106.56,148.15 C106.624,148.298001 106.668,148.433999 106.692,148.558 C106.716,148.682001 106.74,148.879999 106.764,149.152 C106.788,149.544002 106.8,150.135996 106.8,150.928 L106.8,154.12 C106.263997,154.12 105.95,154.09 105.858,154.03 C105.766,153.97 105.72,153.760002 105.72,153.4 L105.72,150.916 Z M108.276,146.842 C108.131999,146.693999 108.06,146.522001 108.06,146.326 C108.06,146.129999 108.131999,145.964001 108.276,145.828 C108.420001,145.691999 108.587999,145.624 108.78,145.624 C108.972001,145.624 109.139999,145.691999 109.284,145.828 C109.428001,145.964001 109.5,146.129999 109.5,146.326 C109.5,146.522001 109.428001,146.693999 109.284,146.842 C109.139999,146.990001 108.972001,147.064 108.78,147.064 C108.587999,147.064 108.420001,146.990001 108.276,146.842 Z M108.252,153.448 L108.252,147.676 C108.788003,147.676 109.1,147.706 109.188,147.766 C109.276,147.826 109.32,148.035998 109.32,148.396 L109.32,154.168 C108.783997,154.168 108.472,154.138 108.384,154.078 C108.296,154.018 108.252,153.808002 108.252,153.448 Z M113.46,150.916 L113.472,149.86 C113.472,149.539998 113.464,149.300001 113.448,149.14 C113.416,148.803998 113.228002,148.628 112.884,148.612 L111.78,148.936 L111.888,149.272 L111.888,154.12 C111.351997,154.12 111.04,154.09 110.952,154.03 C110.864,153.97 110.82,153.760002 110.82,153.4 L110.82,147.676 C111.284002,147.676 111.575999,147.688 111.696,147.712 C111.816001,147.736 111.88,147.807999 111.888,147.928 L112.776,147.592 C113.264002,147.592 113.583999,147.624 113.736,147.688 C113.888001,147.752 114.004,147.808 114.084,147.856 C114.164,147.904 114.236,148.001999 114.3,148.15 C114.364,148.298001 114.408,148.433999 114.432,148.558 C114.456,148.682001 114.48,148.879999 114.504,149.152 C114.528,149.544002 114.54,150.135996 114.54,150.928 L114.54,154.12 C114.003997,154.12 113.69,154.09 113.598,154.03 C113.506,153.97 113.46,153.760002 113.46,153.4 L113.46,150.916 Z M118.452,155.218 C118.54,155.109999 118.584,154.950001 118.584,154.738 C118.584,154.525999 118.542,154.384 118.458,154.312 C118.374,154.24 118.188001,154.204 117.9,154.204 C116.795994,154.204 116.150001,154.150001 115.962,154.042 C115.773999,153.933999 115.68,153.556003 115.68,152.908 C115.68,152.467998 115.851998,152.104001 116.196,151.816 C116.011999,151.647999 115.88,151.446001 115.8,151.21 C115.72,150.973999 115.68,150.644002 115.68,150.22 C115.68,149.795998 115.682,149.520001 115.686,149.392 C115.69,149.263999 115.698,149.100001 115.71,148.9 C115.722,148.699999 115.744,148.558 115.776,148.474 C115.808,148.39 115.854,148.284001 115.914,148.156 C115.974,148.027999 116.048,147.94 116.136,147.892 C116.224,147.844 116.331999,147.792 116.46,147.736 C116.668001,147.64 117.027997,147.592 117.54,147.592 L119.712,147.592 C119.712,147.976002 119.676,148.231999 119.604,148.36 C119.532,148.488001 119.388001,148.56 119.172,148.576 C119.316001,148.888002 119.388,149.359997 119.388,149.992 L119.388,150.532 C119.388,150.924002 119.372,151.187999 119.34,151.324 C119.308,151.460001 119.27,151.595999 119.226,151.732 C119.182,151.868001 119.13,151.964 119.07,152.02 C119.01,152.076 118.934,152.144 118.842,152.224 C118.75,152.304 118.644001,152.36 118.524,152.392 C118.179998,152.464 117.834002,152.5 117.486,152.5 C117.137998,152.5 116.92,152.524 116.832,152.572 C116.744,152.62 116.7,152.707999 116.7,152.836 C116.7,152.964001 116.72,153.044 116.76,153.076 C116.848,153.148 117.239997,153.184 117.936,153.184 C118.632003,153.184 119.083999,153.267999 119.292,153.436 C119.500001,153.604001 119.604,154.009997 119.604,154.654 C119.604,155.298003 119.486001,155.743999 119.25,155.992 C119.013999,156.240001 118.552003,156.364 117.864,156.364 L117.144,156.364 C116.759998,156.364 116.536,156.326 116.472,156.25 C116.408,156.174 116.376,155.912002 116.376,155.464 L117.852,155.38 C118.164002,155.38 118.364,155.326001 118.452,155.218 Z M118.284,150.742 C118.292,150.497999 118.296,150.250001 118.296,149.998 C118.296,149.745999 118.294,149.566001 118.29,149.458 C118.286,149.349999 118.272,149.226001 118.248,149.086 C118.224,148.945999 118.188,148.852 118.14,148.804 C117.995999,148.675999 117.770002,148.612 117.462,148.612 C117.153998,148.612 116.96,148.701999 116.88,148.882 C116.8,149.062001 116.76,149.433997 116.76,149.998 C116.76,150.562003 116.806,150.953999 116.898,151.174 C116.99,151.394001 117.185999,151.504 117.486,151.504 C117.786002,151.504 117.991999,151.438001 118.104,151.306 C118.216001,151.173999 118.276,150.986001 118.284,150.742 Z" id="Påfyllning" fill="#F7C900"></path>
            <path d="M75,163.448 L75,162.704 C75,162.207998 75.0119999,161.876001 75.036,161.708 C75.0600001,161.539999 75.0879998,161.374001 75.12,161.21 C75.1520002,161.045999 75.1899998,160.926 75.234,160.85 C75.2780002,160.774 75.3339997,160.684001 75.402,160.58 C75.4700003,160.475999 75.5479996,160.404 75.636,160.364 C75.7240004,160.324 75.8279994,160.28 75.948,160.232 C76.148001,160.152 76.4399981,160.112 76.824,160.112 C77.2080019,160.112 77.5179988,160.158 77.754,160.25 C77.9900012,160.342 78.1739993,160.445999 78.306,160.562 C78.4380007,160.678001 78.5319997,160.901998 78.588,161.234 C78.6440003,161.566002 78.6779999,161.859999 78.69,162.116 C78.7020001,162.372001 78.708,162.719998 78.708,163.16 L78.708,164.06 C78.708,164.572003 78.6960001,164.911999 78.672,165.08 C78.6479999,165.248001 78.6200002,165.415999 78.588,165.584 C78.5559998,165.752001 78.5180002,165.874 78.474,165.95 C78.4299998,166.026 78.3740003,166.117999 78.306,166.226 C78.2379997,166.334001 78.1580005,166.41 78.066,166.454 C77.9739995,166.498 77.8680006,166.544 77.748,166.592 C77.555999,166.68 77.3000016,166.724 76.98,166.724 C76.6599984,166.724 76.4140009,166.712 76.242,166.688 C76.0699991,166.664 75.9180007,166.612 75.786,166.532 C75.6539993,166.452 75.5440004,166.376 75.456,166.304 C75.3679996,166.232 75.2940003,166.110001 75.234,165.938 C75.1739997,165.765999 75.1280002,165.620001 75.096,165.5 C75.0639998,165.379999 75.044,165.184001 75.036,164.912 C75.0119999,164.455998 75,163.968003 75,163.448 Z M76.848,161.132 C76.4879982,161.132 76.2680004,161.277999 76.188,161.57 C76.1079996,161.862001 76.068,162.365996 76.068,163.082 C76.068,163.798004 76.072,164.261999 76.08,164.474 C76.088,164.686001 76.1159998,164.909999 76.164,165.146 C76.2120002,165.382001 76.2899995,165.534 76.398,165.602 C76.5060005,165.67 76.655999,165.704 76.848,165.704 C77.2080018,165.704 77.4279996,165.552002 77.508,165.248 C77.5880004,164.943998 77.628,164.432004 77.628,163.712 C77.628,162.991996 77.624,162.528001 77.616,162.32 C77.608,162.111999 77.5800002,161.896001 77.532,161.672 C77.4839998,161.447999 77.4060005,161.302 77.298,161.234 C77.1899995,161.166 77.040001,161.132 76.848,161.132 Z M83.496,166.64 C82.9599973,166.64 82.6480004,166.61 82.56,166.55 C82.4719996,166.49 82.428,166.280002 82.428,165.92 L82.416,162.98 L82.416,162.512 C82.416,162.327999 82.418,162.188 82.422,162.092 C82.426,161.996 82.424,161.886001 82.416,161.762 C82.408,161.637999 82.3940001,161.546 82.374,161.486 C82.3539999,161.426 82.3280002,161.364 82.296,161.3 C82.2399997,161.187999 82.1200009,161.132 81.936,161.132 L80.868,161.444 L80.976,161.792 L80.976,166.64 C80.4399973,166.64 80.1280004,166.61 80.04,166.55 C79.9519996,166.49 79.908,166.280002 79.908,165.92 L79.908,160.196 C80.3480022,160.196 80.6279994,160.208 80.748,160.232 C80.8680006,160.256 80.9399999,160.327999 80.964,160.448 L81.864,160.112 C82.2160018,160.112 82.4839991,160.142 82.668,160.202 C82.8520009,160.262 83.0159993,160.375999 83.16,160.544 L84.264,160.112 C84.7360024,160.112 85.0539992,160.146 85.218,160.214 C85.3820008,160.282 85.5019996,160.34 85.578,160.388 C85.6540004,160.436 85.7219997,160.535999 85.782,160.688 C85.8420003,160.840001 85.8859999,160.975999 85.914,161.096 C85.9420001,161.216001 85.9639999,161.415999 85.98,161.696 C86.0040001,162.112002 86.016,162.695996 86.016,163.448 L86.016,166.64 C85.4719973,166.64 85.1560004,166.61 85.068,166.55 C84.9799996,166.49 84.936,166.280002 84.936,165.92 L84.936,163.436 C84.936,162.331994 84.9240001,161.716001 84.9,161.588 C84.8599998,161.355999 84.7480009,161.216 84.564,161.168 C84.4999997,161.152 84.4200005,161.14 84.324,161.132 L83.388,161.408 L83.496,161.744 L83.496,166.64 Z M90.504,163.388 C90.504,163.892003 90.508,164.249999 90.516,164.462 C90.524,164.674001 90.5499998,164.897999 90.594,165.134 C90.6380002,165.370001 90.7099995,165.524 90.81,165.596 C90.9100005,165.668 91.0419992,165.704 91.206,165.704 C91.3700008,165.704 91.5219993,165.69 91.662,165.662 C91.8020007,165.634 91.9559992,165.598 92.124,165.554 C92.2920008,165.51 92.4319994,165.48 92.544,165.464 L92.544,166.4 C92.4719996,166.416 92.2840015,166.473999 91.98,166.574 C91.6759985,166.674001 91.426001,166.724 91.23,166.724 C91.033999,166.724 90.8580008,166.71 90.702,166.682 C90.5459992,166.654 90.4060006,166.622 90.282,166.586 C90.1579994,166.55 90.0520004,166.482001 89.964,166.382 C89.8759996,166.282 89.8020003,166.196 89.742,166.124 C89.6819997,166.052 89.6320002,165.928001 89.592,165.752 C89.5519998,165.575999 89.5220001,165.432001 89.502,165.32 C89.4819999,165.207999 89.4660001,165.022001 89.454,164.762 C89.4419999,164.501999 89.436,164.296001 89.436,164.144 L89.436,162.656 C89.436,162.111997 89.4519998,161.754001 89.484,161.582 C89.5160002,161.409999 89.5519998,161.236001 89.592,161.06 C89.6320002,160.883999 89.6819997,160.762 89.742,160.694 C89.8020003,160.626 89.8759996,160.544 89.964,160.448 C90.0520004,160.352 90.1599994,160.288 90.288,160.256 C90.6000016,160.16 90.9159984,160.112 91.236,160.112 L92.592,160.4 C92.5279997,160.856002 92.4640003,161.112 92.4,161.168 C92.3359997,161.224 92.2440006,161.252 92.124,161.252 C92.0039994,161.252 91.8600008,161.24 91.692,161.216 L91.236,161.132 C91.0519991,161.132 90.9100005,161.164 90.81,161.228 C90.7099995,161.292 90.6380002,161.437999 90.594,161.666 C90.5499998,161.894001 90.524,162.111999 90.516,162.32 C90.508,162.528001 90.504,162.883997 90.504,163.388 Z M95.712,161.684 L95.724,161.36 C95.724,161.247999 95.7120001,161.188 95.688,161.18 C95.6639999,161.172 95.6360002,161.154 95.604,161.126 C95.5719998,161.098 95.5300003,161.092 95.478,161.108 C95.4259997,161.124 95.3640004,161.128 95.292,161.12 L94.644,161.204 C94.4759992,161.228 94.3320006,161.24 94.212,161.24 C94.0919994,161.24 94.0000003,161.212 93.936,161.156 C93.8719997,161.1 93.8080003,160.844002 93.744,160.388 L95.136,160.112 C95.7040028,160.112 96.0599993,160.154 96.204,160.238 C96.3480007,160.322 96.4519997,160.392 96.516,160.448 C96.5800003,160.504 96.6239999,160.615999 96.648,160.784 C96.6880002,160.992001 96.708,161.319998 96.708,161.768 L96.708,166.64 C96.2439977,166.64 95.9520006,166.616 95.832,166.568 C95.7119994,166.52 95.648,166.404001 95.64,166.22 L94.644,166.724 C94.4199989,166.724 94.2540005,166.722 94.146,166.718 C94.0379995,166.714 93.9300005,166.68 93.822,166.616 C93.7139995,166.552 93.6420002,166.488 93.606,166.424 C93.5699998,166.36 93.5360002,166.224001 93.504,166.016 C93.4639998,165.767999 93.444,165.260004 93.444,164.492 L93.444,163.664 C93.444,162.759995 94.2319921,162.292 95.808,162.26 L95.712,161.972 L95.712,161.684 Z M94.572,165.704 C94.58,165.704 94.983996,165.552002 95.784,165.248 L95.664,164.9 L95.664,163.472 L95.76,163.196 C95.4319984,163.204 95.1440012,163.236 94.896,163.292 C94.6479988,163.348 94.524,163.424 94.524,163.52 L94.512,165.104 C94.512,165.504002 94.5319998,165.704 94.572,165.704 Z M100.248,165.584 C100.888003,165.664 101.399998,165.704 101.784,165.704 C102.168002,165.704 102.394,165.590001 102.462,165.362 C102.53,165.133999 102.564,164.588004 102.564,163.724 C102.564,162.859996 102.53,162.322001 102.462,162.11 C102.394,161.897999 102.188002,161.792 101.844,161.792 L100.992,161.792 L102.096,159.152 L100.26,159.152 L100.26,158.144 L103.68,158.144 L102.564,160.82 C102.948002,160.876 103.239999,161.023999 103.44,161.264 C103.576001,161.424001 103.656,161.799997 103.68,162.392 C103.688,162.592001 103.692,162.895998 103.692,163.304 L103.692,163.724 C103.692,165.020006 103.606001,165.843998 103.434,166.196 C103.261999,166.548002 102.752004,166.724 101.904,166.724 C101.607999,166.724 101.286002,166.694 100.938,166.634 C100.589998,166.574 100.360001,166.536 100.248,166.52 L100.248,165.584 Z M105.18,163.712 C105.172,163.423999 105.168,162.932003 105.168,162.236 C105.168,161.539997 105.174,161.026002 105.186,160.694 C105.198,160.361998 105.234,159.976002 105.294,159.536 C105.354,159.095998 105.451999,158.792001 105.588,158.624 C105.940002,158.207998 106.451997,158 107.124,158 C107.444002,158 107.715999,158.03 107.94,158.09 C108.164001,158.15 108.347999,158.277999 108.492,158.474 C108.636001,158.670001 108.748,158.851999 108.828,159.02 C108.908,159.188001 108.964,159.479998 108.996,159.896 C109.044,160.520003 109.068,161.269996 109.068,162.146 C109.068,163.022004 109.062,163.627998 109.05,163.964 C109.038,164.300002 109.002,164.691998 108.942,165.14 C108.882,165.588002 108.784001,165.895999 108.648,166.064 C108.303998,166.504002 107.796003,166.724 107.124,166.724 C106.803998,166.724 106.530001,166.692 106.302,166.628 C106.073999,166.564 105.888001,166.430001 105.744,166.226 C105.599999,166.021999 105.488,165.834001 105.408,165.662 C105.328,165.489999 105.272,165.194002 105.24,164.774 C105.208,164.353998 105.188,164.000001 105.18,163.712 Z M106.416,159.752 C106.328,160.216002 106.284,160.927995 106.284,161.888 C106.284,162.848005 106.288,163.475999 106.296,163.772 C106.304,164.068001 106.334,164.393998 106.386,164.75 C106.438,165.106002 106.521999,165.347999 106.638,165.476 C106.754001,165.604001 106.915999,165.668 107.124,165.668 C107.500002,165.668 107.732,165.426002 107.82,164.942 C107.908,164.457998 107.952,163.736005 107.952,162.776 C107.952,161.815995 107.948,161.190001 107.94,160.898 C107.932,160.605999 107.902,160.286002 107.85,159.938 C107.798,159.589998 107.714001,159.356001 107.598,159.236 C107.481999,159.115999 107.324001,159.056 107.124,159.056 C106.739998,159.056 106.504,159.287998 106.416,159.752 Z M115.896,166.64 C115.359997,166.64 115.048,166.61 114.96,166.55 C114.872,166.49 114.828,166.280002 114.828,165.92 L114.816,162.98 L114.816,162.512 C114.816,162.327999 114.818,162.188 114.822,162.092 C114.826,161.996 114.824,161.886001 114.816,161.762 C114.808,161.637999 114.794,161.546 114.774,161.486 C114.754,161.426 114.728,161.364 114.696,161.3 C114.64,161.187999 114.520001,161.132 114.336,161.132 L113.268,161.444 L113.376,161.792 L113.376,166.64 C112.839997,166.64 112.528,166.61 112.44,166.55 C112.352,166.49 112.308,166.280002 112.308,165.92 L112.308,160.196 C112.748002,160.196 113.027999,160.208 113.148,160.232 C113.268001,160.256 113.34,160.327999 113.364,160.448 L114.264,160.112 C114.616002,160.112 114.883999,160.142 115.068,160.202 C115.252001,160.262 115.415999,160.375999 115.56,160.544 L116.664,160.112 C117.136002,160.112 117.453999,160.146 117.618,160.214 C117.782001,160.282 117.902,160.34 117.978,160.388 C118.054,160.436 118.122,160.535999 118.182,160.688 C118.242,160.840001 118.286,160.975999 118.314,161.096 C118.342,161.216001 118.364,161.415999 118.38,161.696 C118.404,162.112002 118.416,162.695996 118.416,163.448 L118.416,166.64 C117.871997,166.64 117.556,166.61 117.468,166.55 C117.38,166.49 117.336,166.280002 117.336,165.92 L117.336,163.436 C117.336,162.331994 117.324,161.716001 117.3,161.588 C117.26,161.355999 117.148001,161.216 116.964,161.168 C116.9,161.152 116.82,161.14 116.724,161.132 L115.788,161.408 L115.896,161.744 L115.896,166.64 Z M119.892,159.362 C119.747999,159.213999 119.676,159.042001 119.676,158.846 C119.676,158.649999 119.747999,158.484001 119.892,158.348 C120.036001,158.211999 120.203999,158.144 120.396,158.144 C120.588001,158.144 120.755999,158.211999 120.9,158.348 C121.044001,158.484001 121.116,158.649999 121.116,158.846 C121.116,159.042001 121.044001,159.213999 120.9,159.362 C120.755999,159.510001 120.588001,159.584 120.396,159.584 C120.203999,159.584 120.036001,159.510001 119.892,159.362 Z M119.868,165.968 L119.868,160.196 C120.404003,160.196 120.716,160.226 120.804,160.286 C120.892,160.346 120.936,160.555998 120.936,160.916 L120.936,166.688 C120.399997,166.688 120.088,166.658 120,166.598 C119.912,166.538 119.868,166.328002 119.868,165.968 Z M125.076,163.436 L125.088,162.38 C125.088,162.059998 125.08,161.820001 125.064,161.66 C125.032,161.323998 124.844002,161.148 124.5,161.132 L123.396,161.456 L123.504,161.792 L123.504,166.64 C122.967997,166.64 122.656,166.61 122.568,166.55 C122.48,166.49 122.436,166.280002 122.436,165.92 L122.436,160.196 C122.900002,160.196 123.191999,160.208 123.312,160.232 C123.432001,160.256 123.496,160.327999 123.504,160.448 L124.392,160.112 C124.880002,160.112 125.199999,160.144 125.352,160.208 C125.504001,160.272 125.62,160.328 125.7,160.376 C125.78,160.424 125.852,160.521999 125.916,160.67 C125.98,160.818001 126.024,160.953999 126.048,161.078 C126.072,161.202001 126.096,161.399999 126.12,161.672 C126.144,162.064002 126.156,162.655996 126.156,163.448 L126.156,166.64 C125.619997,166.64 125.306,166.61 125.214,166.55 C125.122,166.49 125.076,166.280002 125.076,165.92 L125.076,163.436 Z" id="om-ca-30-min" fill="#F7C900"></path>
        </g>
    </g>
</svg>