<?xml version="1.0" encoding="UTF-8"?>
<svg width="213px" height="285px" viewBox="0 0 213 285" version="1.1" xmlns="http://www.w3.org/2000/svg" xmlns:xlink="http://www.w3.org/1999/xlink">
    <!-- Generator: Sketch 50.2 (55047) - http://www.bohemiancoding.com/sketch -->
    <title>Group 12</title>
    <desc>Created with Sketch.</desc>
    <defs>
        <path d="M65.5,131 C101.674651,131 131,101.674651 131,65.5 C131,29.3253489 101.674651,0 65.5,0 C29.3253489,0 0,29.3253489 0,65.5 C0,101.674651 29.3253489,131 65.5,131 Z" id="path-1"></path>
        <path d="M65.5,131 C101.674651,131 131,101.674651 131,65.5 C131,29.3253489 101.674651,1.13686838e-13 65.5,1.13686838e-13 C29.3253489,1.13686838e-13 1.13686838e-13,29.3253489 1.13686838e-13,65.5 C1.13686838e-13,101.674651 29.3253489,131 65.5,131 Z" id="path-3"></path>
        <path d="M71.928,92.206 C73.0426722,92.206 73.7139989,91.8513369 73.942,91.142 C74.1700011,90.4326631 74.284,88.7480133 74.284,86.088 C74.284,83.4279867 74.1636679,81.7243371 73.923,80.977 C73.6823321,80.2296629 73.0680049,79.8433335 72.08,79.818 L69.572,80.54 L69.534,84.188 L69.534,85.67 C69.534,86.5566711 69.5466665,87.3356633 69.572,88.007 C69.5973335,88.6783367 69.679666,89.412996 69.819,90.211 C69.958334,91.009004 70.1989983,91.5409987 70.541,91.807 C70.8830017,92.0730013 71.3453304,92.206 71.928,92.206 Z M77.818,85.898 L77.818,88.026 C77.818,89.5966745 77.7800004,90.616331 77.704,91.085 C77.6279996,91.553669 77.5393338,92.0286643 77.438,92.51 C77.3366662,92.9913357 77.216334,93.326999 77.077,93.517 C76.937666,93.7070009 76.7540011,93.9476652 76.526,94.239 C76.2979989,94.5303348 76.0446681,94.7203329 75.766,94.809 C75.4873319,94.8976671 75.1580019,95.0053327 74.778,95.132 C74.2459973,95.3093342 73.4543386,95.398 72.403,95.398 C71.3516614,95.398 70.5473361,95.3473338 69.99,95.246 C69.4326639,95.1446662 68.9513354,94.9546681 68.546,94.676 C68.1406646,94.3973319 67.7923348,94.1250013 67.501,93.859 C67.2096652,93.5929987 66.969001,93.1750028 66.779,92.605 C66.588999,92.0349971 66.4433338,91.5220023 66.342,91.066 C66.2406662,90.6099977 66.1646669,89.9513376 66.114,89.09 C66.0379996,87.7979935 66,86.3666745 66,84.796 L66,81.528 C66,79.323989 66.0443329,77.8293373 66.133,77.044 C66.2216671,76.2586627 66.3166662,75.4543374 66.418,74.631 C66.5193338,73.8076625 66.6523325,73.1680023 66.817,72.712 C66.9816675,72.2559977 67.1779989,71.7366696 67.406,71.154 C67.6340011,70.5713304 67.9063317,70.1216682 68.223,69.805 C68.5396682,69.4883317 68.8879981,69.1780015 69.268,68.874 C70.0026703,68.3166639 71.0413266,68.038 72.384,68.038 L77.286,68.494 C77.286,69.9126738 77.1846677,70.7486654 76.982,71.002 C76.7793323,71.2553346 76.0700061,71.382 74.854,71.382 L72.384,71.382 C71.5986627,71.382 71.0350017,71.8189956 70.693,72.693 C70.3509983,73.5670044 70.0786677,75.0679894 69.876,77.196 L71.738,76.626 C74.6260144,76.626 76.3613304,77.1579947 76.944,78.222 C77.5266696,79.2860053 77.818,81.8446464 77.818,85.898 Z M81.618,86.126 C81.5926665,85.2139954 81.58,83.656011 81.58,81.452 C81.58,79.247989 81.5989998,77.6203386 81.637,76.569 C81.6750002,75.5176614 81.788999,74.2953403 81.979,72.902 C82.1690009,71.5086597 82.4793312,70.5460027 82.91,70.014 C84.0246722,68.6966601 85.6459894,68.038 87.774,68.038 C88.7873384,68.038 89.6486631,68.132999 90.358,68.323 C91.0673369,68.5130009 91.6499977,68.9183302 92.106,69.539 C92.5620023,70.1596698 92.9166654,70.7359973 93.17,71.268 C93.4233346,71.8000027 93.6006662,72.7246601 93.702,74.042 C93.8540008,76.0180099 93.93,78.3929861 93.93,81.167 C93.93,83.9410139 93.9110002,85.8599947 93.873,86.924 C93.8349998,87.9880053 93.7210009,89.2293262 93.531,90.648 C93.340999,92.0666738 93.0306688,93.0419973 92.6,93.574 C91.5106612,94.9673403 89.9020106,95.664 87.774,95.664 C86.7606616,95.664 85.8930036,95.5626677 85.171,95.36 C84.4489964,95.1573323 83.8600023,94.7330032 83.404,94.087 C82.9479977,93.4409968 82.5933346,92.8456694 82.34,92.301 C82.0866654,91.7563306 81.9093338,90.8190066 81.808,89.489 C81.7066662,88.1589933 81.6433335,87.0380046 81.618,86.126 Z M85.532,73.586 C85.2533319,75.0553407 85.114,77.3099848 85.114,80.35 C85.114,83.3900152 85.1266665,85.378662 85.152,86.316 C85.1773335,87.253338 85.2723325,88.285661 85.437,89.413 C85.6016675,90.540339 85.8676648,91.3066646 86.235,91.712 C86.6023352,92.1173354 87.11533,92.32 87.774,92.32 C88.9646726,92.32 89.6993319,91.5536743 89.978,90.021 C90.2566681,88.4883257 90.396,86.2020152 90.396,83.162 C90.396,80.1219848 90.3833335,78.1396713 90.358,77.215 C90.3326665,76.2903287 90.2376675,75.2770055 90.073,74.175 C89.9083325,73.0729945 89.6423352,72.3320019 89.275,71.952 C88.9076648,71.5719981 88.4073365,71.382 87.774,71.382 C86.5579939,71.382 85.8106681,72.1166593 85.532,73.586 Z M97.35,73.776 C97.35,71.5466555 97.6159973,70.0266707 98.148,69.216 C98.6800027,68.4053293 99.5476606,68 100.751,68 C101.954339,68 102.802998,68.4053293 103.297,69.216 C103.791002,70.0266707 104.038,71.5529888 104.038,73.795 C104.038,76.0370112 103.784669,77.5886624 103.278,78.45 C102.771331,79.3113376 101.929006,79.742 100.751,79.742 C99.5729941,79.742 98.7116694,79.3050044 98.167,78.431 C97.6223306,77.5569956 97.35,76.0053445 97.35,73.776 Z M101.397,70.546 C101.232333,70.3939992 101.017001,70.318 100.751,70.318 C100.484999,70.318 100.269667,70.3939992 100.105,70.546 C99.9403325,70.6980008 99.8200004,70.9639981 99.744,71.344 C99.6679996,71.8760027 99.63,72.5916622 99.63,73.491 C99.63,74.3903378 99.6363333,74.9919985 99.649,75.296 C99.6616667,75.6000015 99.6996663,75.9419981 99.763,76.322 C99.8263336,76.7020019 99.9403325,76.961666 100.105,77.101 C100.269667,77.240334 100.491332,77.31 100.77,77.31 C101.048668,77.31 101.263999,77.240334 101.416,77.101 C101.568001,76.961666 101.669333,76.7020019 101.72,76.322 C101.821334,75.7899973 101.872,75.0743378 101.872,74.175 C101.872,73.2756622 101.865667,72.6740015 101.853,72.37 C101.840333,72.0659985 101.802334,71.7240019 101.739,71.344 C101.675666,70.9639981 101.561667,70.6980008 101.397,70.546 Z M109.358,89.432 C109.358,87.2026555 109.623997,85.6826707 110.156,84.872 C110.688003,84.0613293 111.555661,83.656 112.759,83.656 C113.962339,83.656 114.810998,84.0613293 115.305,84.872 C115.799002,85.6826707 116.046,87.2089888 116.046,89.451 C116.046,91.6930112 115.792669,93.2446624 115.286,94.106 C114.779331,94.9673376 113.937006,95.398 112.759,95.398 C111.580994,95.398 110.719669,94.9610044 110.175,94.087 C109.630331,93.2129956 109.358,91.6613445 109.358,89.432 Z M113.405,86.202 C113.240333,86.0499992 113.025001,85.974 112.759,85.974 C112.492999,85.974 112.277667,86.0499992 112.113,86.202 C111.948333,86.3540008 111.828,86.6199981 111.752,87 C111.676,87.5320027 111.638,88.2476622 111.638,89.147 C111.638,90.0463378 111.644333,90.6479985 111.657,90.952 C111.669667,91.2560015 111.707666,91.5979981 111.771,91.978 C111.834334,92.3580019 111.948333,92.617666 112.113,92.757 C112.277667,92.896334 112.499332,92.966 112.778,92.966 C113.056668,92.966 113.271999,92.896334 113.424,92.757 C113.576001,92.617666 113.677333,92.3580019 113.728,91.978 C113.829334,91.4459973 113.88,90.7303378 113.88,89.831 C113.88,88.9316622 113.873667,88.3300015 113.861,88.026 C113.848333,87.7219985 113.810334,87.3800019 113.747,87 C113.683666,86.6199981 113.569667,86.3540008 113.405,86.202 Z M113.994,68.038 L103.05,95.398 L99.25,95.398 L110.232,68.038 L113.994,68.038 Z" id="path-5"></path>
        <path d="M73.128,108.388 C73.128,108.756002 73.0920004,108.97 73.02,109.03 C72.9479996,109.09 72.6960022,109.12 72.264,109.12 L72,109.12 L72,100.468 L73.944,100.336 C74.744004,100.336 75.2959985,100.439999 75.6,100.648 C75.7120006,100.728 75.8059996,100.8 75.882,100.864 C75.9580004,100.928 76.0219997,101.025999 76.074,101.158 C76.1260003,101.290001 76.1659999,101.398 76.194,101.482 C76.2220001,101.566 76.24,101.695999 76.248,101.872 C76.2720001,102.176002 76.284,102.481998 76.284,102.79 C76.284,103.098002 76.28,103.329999 76.272,103.486 C76.264,103.642001 76.2380002,103.831999 76.194,104.056 C76.1499998,104.280001 76.0800005,104.447999 75.984,104.56 C75.8879995,104.672001 75.7560008,104.783999 75.588,104.896 C75.2919985,105.104001 74.748004,105.208 73.956,105.208 L73.128,105.208 L73.128,108.388 Z M73.956,104.14 C74.348002,104.14 74.6519989,104.076001 74.868,103.948 C75.0040007,103.868 75.0839999,103.656002 75.108,103.312 C75.116,103.199999 75.12,103.022001 75.12,102.778 C75.12,102.533999 75.116,102.358001 75.108,102.25 C75.1,102.141999 75.0780002,102.018001 75.042,101.878 C75.0059998,101.737999 74.9480004,101.644 74.868,101.596 C74.6519989,101.467999 74.348002,101.404 73.956,101.404 L73.032,101.404 L73.128,101.704 L73.128,103.864 L73.032,104.14 L73.956,104.14 Z M78.354,101.908 C78.1259989,101.683999 78.012,101.420002 78.012,101.116 C78.012,100.811998 78.1259989,100.550001 78.354,100.33 C78.5820011,100.109999 78.8479985,100 79.152,100 C79.4560015,100 79.7199989,100.109999 79.944,100.33 C80.1680011,100.550001 80.28,100.813998 80.28,101.122 C80.28,101.430002 80.1680011,101.693999 79.944,101.914 C79.7199989,102.134001 79.4560015,102.244 79.152,102.244 C78.8479985,102.244 78.5820011,102.132001 78.354,101.908 Z M78.894,100.876 C78.8179996,100.948 78.78,101.03 78.78,101.122 C78.78,101.214 78.8199996,101.3 78.9,101.38 C78.9800004,101.46 79.0659995,101.5 79.158,101.5 C79.2500005,101.5 79.3359996,101.46 79.416,101.38 C79.4960004,101.3 79.536,101.214 79.536,101.122 C79.536,101.03 79.4960004,100.948 79.416,100.876 C79.3359996,100.804 79.2480005,100.768 79.152,100.768 C79.0559995,100.768 78.9700004,100.804 78.894,100.876 Z M79.692,104.164 L79.704,103.84 C79.704,103.727999 79.6920001,103.668 79.668,103.66 C79.6439999,103.652 79.6160002,103.634 79.584,103.606 C79.5519998,103.578 79.5100003,103.572 79.458,103.588 C79.4059997,103.604 79.3440004,103.608 79.272,103.6 L78.624,103.684 C78.4559992,103.708 78.3120006,103.72 78.192,103.72 C78.0719994,103.72 77.9800003,103.692 77.916,103.636 C77.8519997,103.58 77.7880003,103.324002 77.724,102.868 L79.116,102.592 C79.6840028,102.592 80.0399993,102.634 80.184,102.718 C80.3280007,102.802 80.4319997,102.872 80.496,102.928 C80.5600003,102.984 80.6039999,103.095999 80.628,103.264 C80.6680002,103.472001 80.688,103.799998 80.688,104.248 L80.688,109.12 C80.2239977,109.12 79.9320006,109.096 79.812,109.048 C79.6919994,109 79.628,108.884001 79.62,108.7 L78.624,109.204 C78.3999989,109.204 78.2340005,109.202 78.126,109.198 C78.0179995,109.194 77.9100005,109.16 77.802,109.096 C77.6939995,109.032 77.6220002,108.968 77.586,108.904 C77.5499998,108.84 77.5160002,108.704001 77.484,108.496 C77.4439998,108.247999 77.424,107.740004 77.424,106.972 L77.424,106.144 C77.424,105.239995 78.2119921,104.772 79.788,104.74 L79.692,104.452 L79.692,104.164 Z M78.552,108.184 C78.56,108.184 78.963996,108.032002 79.764,107.728 L79.644,107.38 L79.644,105.952 L79.74,105.676 C79.4119984,105.684 79.1240012,105.716 78.876,105.772 C78.6279988,105.828 78.504,105.904 78.504,106 L78.492,107.584 C78.492,107.984002 78.5119998,108.184 78.552,108.184 Z M84.156,102.676 L84.156,103.684 L82.956,103.684 L83.076,104.032 L83.076,110.524 C83.068,110.948002 83.0220004,111.194 82.938,111.262 C82.8539996,111.33 82.5440027,111.364 82.008,111.364 L82.02,104.032 L82.128,103.684 L81.468,103.684 L81.468,102.676 L82.128,102.676 L82.02,102.376 L82.02,101.776 C82.02,101.655999 82.0319999,101.506001 82.056,101.326 C82.0800001,101.145999 82.1039999,101.03 82.128,100.978 C82.1520001,100.926 82.2059996,100.854 82.29,100.762 C82.3740004,100.67 82.4559996,100.616 82.536,100.6 C82.6160004,100.584 82.7459991,100.56 82.926,100.528 C83.1060009,100.496 83.2839991,100.48 83.46,100.48 L84.18,100.48 L84.18,101.332 C83.6359973,101.332 83.3180005,101.376 83.226,101.464 C83.1339995,101.552 83.088,101.863997 83.088,102.4 L82.968,102.676 L84.156,102.676 Z M84.852,111.364 L84.852,110.5 C85.1640016,110.5 85.4299989,110.402001 85.65,110.206 C85.8700011,110.009999 85.98,109.784001 85.98,109.528 C85.98,109.464 85.976,109.412 85.968,109.372 L84.612,102.676 L85.08,102.676 C85.3200012,102.676 85.4719997,102.694 85.536,102.73 C85.6000003,102.766 85.6539998,102.816 85.698,102.88 C85.7420002,102.944 85.768,103.006 85.776,103.066 C85.784,103.126 85.7999999,103.223999 85.824,103.36 L86.508,107.68 L86.688,107.68 L87.42,102.676 C87.8440021,102.676 88.1139994,102.694 88.23,102.73 C88.3460006,102.766 88.404,102.875999 88.404,103.06 L87.132,109.312 C87.0119994,109.952003 86.8800007,110.375999 86.736,110.584 C86.535999,110.864001 86.3440009,111.044 86.16,111.124 C85.7439979,111.284001 85.3080023,111.364 84.852,111.364 Z M90.432,101.212 L90.432,109.168 C89.8959973,109.168 89.5840004,109.138 89.496,109.078 C89.4079996,109.018 89.364,108.808002 89.364,108.448 L89.364,100.48 C89.8920026,100.48 90.2019995,100.51 90.294,100.57 C90.3860005,100.63 90.432,100.843998 90.432,101.212 Z M92.82,101.212 L92.82,109.168 C92.2839973,109.168 91.9720004,109.138 91.884,109.078 C91.7959996,109.018 91.752,108.808002 91.752,108.448 L91.752,100.48 C92.2800026,100.48 92.5899995,100.51 92.682,100.57 C92.7740005,100.63 92.82,100.843998 92.82,101.212 Z M96.72,105.916 L96.732,104.86 C96.732,104.539998 96.7240001,104.300001 96.708,104.14 C96.6759998,103.803998 96.4880017,103.628 96.144,103.612 L95.04,103.936 L95.148,104.272 L95.148,109.12 C94.6119973,109.12 94.3000004,109.09 94.212,109.03 C94.1239996,108.97 94.08,108.760002 94.08,108.4 L94.08,102.676 C94.5440023,102.676 94.8359994,102.688 94.956,102.712 C95.0760006,102.736 95.14,102.807999 95.148,102.928 L96.036,102.592 C96.5240024,102.592 96.8439992,102.624 96.996,102.688 C97.1480008,102.752 97.2639996,102.808 97.344,102.856 C97.4240004,102.904 97.4959997,103.001999 97.56,103.15 C97.6240003,103.298001 97.6679999,103.433999 97.692,103.558 C97.7160001,103.682001 97.7399999,103.879999 97.764,104.152 C97.7880001,104.544002 97.8,105.135996 97.8,105.928 L97.8,109.12 C97.2639973,109.12 96.9500005,109.09 96.858,109.03 C96.7659995,108.97 96.72,108.760002 96.72,108.4 L96.72,105.916 Z M99.276,101.842 C99.1319993,101.693999 99.06,101.522001 99.06,101.326 C99.06,101.129999 99.1319993,100.964001 99.276,100.828 C99.4200007,100.691999 99.587999,100.624 99.78,100.624 C99.972001,100.624 100.139999,100.691999 100.284,100.828 C100.428001,100.964001 100.5,101.129999 100.5,101.326 C100.5,101.522001 100.428001,101.693999 100.284,101.842 C100.139999,101.990001 99.972001,102.064 99.78,102.064 C99.587999,102.064 99.4200007,101.990001 99.276,101.842 Z M99.252,108.448 L99.252,102.676 C99.7880027,102.676 100.1,102.706 100.188,102.766 C100.276,102.826 100.32,103.035998 100.32,103.396 L100.32,109.168 C99.7839973,109.168 99.4720004,109.138 99.384,109.078 C99.2959996,109.018 99.252,108.808002 99.252,108.448 Z M104.46,105.916 L104.472,104.86 C104.472,104.539998 104.464,104.300001 104.448,104.14 C104.416,103.803998 104.228002,103.628 103.884,103.612 L102.78,103.936 L102.888,104.272 L102.888,109.12 C102.351997,109.12 102.04,109.09 101.952,109.03 C101.864,108.97 101.82,108.760002 101.82,108.4 L101.82,102.676 C102.284002,102.676 102.575999,102.688 102.696,102.712 C102.816001,102.736 102.88,102.807999 102.888,102.928 L103.776,102.592 C104.264002,102.592 104.583999,102.624 104.736,102.688 C104.888001,102.752 105.004,102.808 105.084,102.856 C105.164,102.904 105.236,103.001999 105.3,103.15 C105.364,103.298001 105.408,103.433999 105.432,103.558 C105.456,103.682001 105.48,103.879999 105.504,104.152 C105.528,104.544002 105.54,105.135996 105.54,105.928 L105.54,109.12 C105.003997,109.12 104.69,109.09 104.598,109.03 C104.506,108.97 104.46,108.760002 104.46,108.4 L104.46,105.916 Z M109.452,110.218 C109.54,110.109999 109.584,109.950001 109.584,109.738 C109.584,109.525999 109.542,109.384 109.458,109.312 C109.374,109.24 109.188001,109.204 108.9,109.204 C107.795994,109.204 107.150001,109.150001 106.962,109.042 C106.773999,108.933999 106.68,108.556003 106.68,107.908 C106.68,107.467998 106.851998,107.104001 107.196,106.816 C107.011999,106.647999 106.88,106.446001 106.8,106.21 C106.72,105.973999 106.68,105.644002 106.68,105.22 C106.68,104.795998 106.682,104.520001 106.686,104.392 C106.69,104.263999 106.698,104.100001 106.71,103.9 C106.722,103.699999 106.744,103.558 106.776,103.474 C106.808,103.39 106.854,103.284001 106.914,103.156 C106.974,103.027999 107.048,102.94 107.136,102.892 C107.224,102.844 107.331999,102.792 107.46,102.736 C107.668001,102.64 108.027997,102.592 108.54,102.592 L110.712,102.592 C110.712,102.976002 110.676,103.231999 110.604,103.36 C110.532,103.488001 110.388001,103.56 110.172,103.576 C110.316001,103.888002 110.388,104.359997 110.388,104.992 L110.388,105.532 C110.388,105.924002 110.372,106.187999 110.34,106.324 C110.308,106.460001 110.27,106.595999 110.226,106.732 C110.182,106.868001 110.13,106.964 110.07,107.02 C110.01,107.076 109.934,107.144 109.842,107.224 C109.75,107.304 109.644001,107.36 109.524,107.392 C109.179998,107.464 108.834002,107.5 108.486,107.5 C108.137998,107.5 107.92,107.524 107.832,107.572 C107.744,107.62 107.7,107.707999 107.7,107.836 C107.7,107.964001 107.72,108.044 107.76,108.076 C107.848,108.148 108.239997,108.184 108.936,108.184 C109.632003,108.184 110.083999,108.267999 110.292,108.436 C110.500001,108.604001 110.604,109.009997 110.604,109.654 C110.604,110.298003 110.486001,110.743999 110.25,110.992 C110.013999,111.240001 109.552003,111.364 108.864,111.364 L108.144,111.364 C107.759998,111.364 107.536,111.326 107.472,111.25 C107.408,111.174 107.376,110.912002 107.376,110.464 L108.852,110.38 C109.164002,110.38 109.364,110.326001 109.452,110.218 Z M109.284,105.742 C109.292,105.497999 109.296,105.250001 109.296,104.998 C109.296,104.745999 109.294,104.566001 109.29,104.458 C109.286,104.349999 109.272,104.226001 109.248,104.086 C109.224,103.945999 109.188,103.852 109.14,103.804 C108.995999,103.675999 108.770002,103.612 108.462,103.612 C108.153998,103.612 107.96,103.701999 107.88,103.882 C107.8,104.062001 107.76,104.433997 107.76,104.998 C107.76,105.562003 107.806,105.953999 107.898,106.174 C107.99,106.394001 108.185999,106.504 108.486,106.504 C108.786002,106.504 108.991999,106.438001 109.104,106.306 C109.216001,106.173999 109.276,105.986001 109.284,105.742 Z" id="path-6"></path>
        <path d="M66,118.448 L66,117.704 C66,117.207998 66.0119999,116.876001 66.036,116.708 C66.0600001,116.539999 66.0879998,116.374001 66.12,116.21 C66.1520002,116.045999 66.1899998,115.926 66.234,115.85 C66.2780002,115.774 66.3339997,115.684001 66.402,115.58 C66.4700003,115.475999 66.5479996,115.404 66.636,115.364 C66.7240004,115.324 66.8279994,115.28 66.948,115.232 C67.148001,115.152 67.4399981,115.112 67.824,115.112 C68.2080019,115.112 68.5179988,115.158 68.754,115.25 C68.9900012,115.342 69.1739993,115.445999 69.306,115.562 C69.4380007,115.678001 69.5319997,115.901998 69.588,116.234 C69.6440003,116.566002 69.6779999,116.859999 69.69,117.116 C69.7020001,117.372001 69.708,117.719998 69.708,118.16 L69.708,119.06 C69.708,119.572003 69.6960001,119.911999 69.672,120.08 C69.6479999,120.248001 69.6200002,120.415999 69.588,120.584 C69.5559998,120.752001 69.5180002,120.874 69.474,120.95 C69.4299998,121.026 69.3740003,121.117999 69.306,121.226 C69.2379997,121.334001 69.1580005,121.41 69.066,121.454 C68.9739995,121.498 68.8680006,121.544 68.748,121.592 C68.555999,121.68 68.3000016,121.724 67.98,121.724 C67.6599984,121.724 67.4140009,121.712 67.242,121.688 C67.0699991,121.664 66.9180007,121.612 66.786,121.532 C66.6539993,121.452 66.5440004,121.376 66.456,121.304 C66.3679996,121.232 66.2940003,121.110001 66.234,120.938 C66.1739997,120.765999 66.1280002,120.620001 66.096,120.5 C66.0639998,120.379999 66.044,120.184001 66.036,119.912 C66.0119999,119.455998 66,118.968003 66,118.448 Z M67.848,116.132 C67.4879982,116.132 67.2680004,116.277999 67.188,116.57 C67.1079996,116.862001 67.068,117.365996 67.068,118.082 C67.068,118.798004 67.072,119.261999 67.08,119.474 C67.088,119.686001 67.1159998,119.909999 67.164,120.146 C67.2120002,120.382001 67.2899995,120.534 67.398,120.602 C67.5060005,120.67 67.655999,120.704 67.848,120.704 C68.2080018,120.704 68.4279996,120.552002 68.508,120.248 C68.5880004,119.943998 68.628,119.432004 68.628,118.712 C68.628,117.991996 68.624,117.528001 68.616,117.32 C68.608,117.111999 68.5800002,116.896001 68.532,116.672 C68.4839998,116.447999 68.4060005,116.302 68.298,116.234 C68.1899995,116.166 68.040001,116.132 67.848,116.132 Z M74.496,121.64 C73.9599973,121.64 73.6480004,121.61 73.56,121.55 C73.4719996,121.49 73.428,121.280002 73.428,120.92 L73.416,117.98 L73.416,117.512 C73.416,117.327999 73.418,117.188 73.422,117.092 C73.426,116.996 73.424,116.886001 73.416,116.762 C73.408,116.637999 73.3940001,116.546 73.374,116.486 C73.3539999,116.426 73.3280002,116.364 73.296,116.3 C73.2399997,116.187999 73.1200009,116.132 72.936,116.132 L71.868,116.444 L71.976,116.792 L71.976,121.64 C71.4399973,121.64 71.1280004,121.61 71.04,121.55 C70.9519996,121.49 70.908,121.280002 70.908,120.92 L70.908,115.196 C71.3480022,115.196 71.6279994,115.208 71.748,115.232 C71.8680006,115.256 71.9399999,115.327999 71.964,115.448 L72.864,115.112 C73.2160018,115.112 73.4839991,115.142 73.668,115.202 C73.8520009,115.262 74.0159993,115.375999 74.16,115.544 L75.264,115.112 C75.7360024,115.112 76.0539992,115.146 76.218,115.214 C76.3820008,115.282 76.5019996,115.34 76.578,115.388 C76.6540004,115.436 76.7219997,115.535999 76.782,115.688 C76.8420003,115.840001 76.8859999,115.975999 76.914,116.096 C76.9420001,116.216001 76.9639999,116.415999 76.98,116.696 C77.0040001,117.112002 77.016,117.695996 77.016,118.448 L77.016,121.64 C76.4719973,121.64 76.1560004,121.61 76.068,121.55 C75.9799996,121.49 75.936,121.280002 75.936,120.92 L75.936,118.436 C75.936,117.331994 75.9240001,116.716001 75.9,116.588 C75.8599998,116.355999 75.7480009,116.216 75.564,116.168 C75.4999997,116.152 75.4200005,116.14 75.324,116.132 L74.388,116.408 L74.496,116.744 L74.496,121.64 Z M81.504,118.388 C81.504,118.892003 81.508,119.249999 81.516,119.462 C81.524,119.674001 81.5499998,119.897999 81.594,120.134 C81.6380002,120.370001 81.7099995,120.524 81.81,120.596 C81.9100005,120.668 82.0419992,120.704 82.206,120.704 C82.3700008,120.704 82.5219993,120.69 82.662,120.662 C82.8020007,120.634 82.9559992,120.598 83.124,120.554 C83.2920008,120.51 83.4319994,120.48 83.544,120.464 L83.544,121.4 C83.4719996,121.416 83.2840015,121.473999 82.98,121.574 C82.6759985,121.674001 82.426001,121.724 82.23,121.724 C82.033999,121.724 81.8580008,121.71 81.702,121.682 C81.5459992,121.654 81.4060006,121.622 81.282,121.586 C81.1579994,121.55 81.0520004,121.482001 80.964,121.382 C80.8759996,121.282 80.8020003,121.196 80.742,121.124 C80.6819997,121.052 80.6320002,120.928001 80.592,120.752 C80.5519998,120.575999 80.5220001,120.432001 80.502,120.32 C80.4819999,120.207999 80.4660001,120.022001 80.454,119.762 C80.4419999,119.501999 80.436,119.296001 80.436,119.144 L80.436,117.656 C80.436,117.111997 80.4519998,116.754001 80.484,116.582 C80.5160002,116.409999 80.5519998,116.236001 80.592,116.06 C80.6320002,115.883999 80.6819997,115.762 80.742,115.694 C80.8020003,115.626 80.8759996,115.544 80.964,115.448 C81.0520004,115.352 81.1599994,115.288 81.288,115.256 C81.6000016,115.16 81.9159984,115.112 82.236,115.112 L83.592,115.4 C83.5279997,115.856002 83.4640003,116.112 83.4,116.168 C83.3359997,116.224 83.2440006,116.252 83.124,116.252 C83.0039994,116.252 82.8600008,116.24 82.692,116.216 L82.236,116.132 C82.0519991,116.132 81.9100005,116.164 81.81,116.228 C81.7099995,116.292 81.6380002,116.437999 81.594,116.666 C81.5499998,116.894001 81.524,117.111999 81.516,117.32 C81.508,117.528001 81.504,117.883997 81.504,118.388 Z M86.712,116.684 L86.724,116.36 C86.724,116.247999 86.7120001,116.188 86.688,116.18 C86.6639999,116.172 86.6360002,116.154 86.604,116.126 C86.5719998,116.098 86.5300003,116.092 86.478,116.108 C86.4259997,116.124 86.3640004,116.128 86.292,116.12 L85.644,116.204 C85.4759992,116.228 85.3320006,116.24 85.212,116.24 C85.0919994,116.24 85.0000003,116.212 84.936,116.156 C84.8719997,116.1 84.8080003,115.844002 84.744,115.388 L86.136,115.112 C86.7040028,115.112 87.0599993,115.154 87.204,115.238 C87.3480007,115.322 87.4519997,115.392 87.516,115.448 C87.5800003,115.504 87.6239999,115.615999 87.648,115.784 C87.6880002,115.992001 87.708,116.319998 87.708,116.768 L87.708,121.64 C87.2439977,121.64 86.9520006,121.616 86.832,121.568 C86.7119994,121.52 86.648,121.404001 86.64,121.22 L85.644,121.724 C85.4199989,121.724 85.2540005,121.722 85.146,121.718 C85.0379995,121.714 84.9300005,121.68 84.822,121.616 C84.7139995,121.552 84.6420002,121.488 84.606,121.424 C84.5699998,121.36 84.5360002,121.224001 84.504,121.016 C84.4639998,120.767999 84.444,120.260004 84.444,119.492 L84.444,118.664 C84.444,117.759995 85.2319921,117.292 86.808,117.26 L86.712,116.972 L86.712,116.684 Z M85.572,120.704 C85.58,120.704 85.983996,120.552002 86.784,120.248 L86.664,119.9 L86.664,118.472 L86.76,118.196 C86.4319984,118.204 86.1440012,118.236 85.896,118.292 C85.6479988,118.348 85.524,118.424 85.524,118.52 L85.512,120.104 C85.512,120.504002 85.5319998,120.704 85.572,120.704 Z M91.248,120.584 C91.8880032,120.664 92.3999981,120.704 92.784,120.704 C93.1680019,120.704 93.3939997,120.590001 93.462,120.362 C93.5300003,120.133999 93.564,119.588004 93.564,118.724 C93.564,117.859996 93.5300003,117.322001 93.462,117.11 C93.3939997,116.897999 93.1880017,116.792 92.844,116.792 L91.992,116.792 L93.096,114.152 L91.26,114.152 L91.26,113.144 L94.68,113.144 L93.564,115.82 C93.9480019,115.876 94.239999,116.023999 94.44,116.264 C94.5760007,116.424001 94.6559999,116.799997 94.68,117.392 C94.688,117.592001 94.692,117.895998 94.692,118.304 L94.692,118.724 C94.692,120.020006 94.6060009,120.843998 94.434,121.196 C94.2619991,121.548002 93.7520042,121.724 92.904,121.724 C92.6079985,121.724 92.2860017,121.694 91.938,121.634 C91.5899983,121.574 91.3600006,121.536 91.248,121.52 L91.248,120.584 Z M96.18,118.712 C96.172,118.423999 96.168,117.932003 96.168,117.236 C96.168,116.539997 96.1739999,116.026002 96.186,115.694 C96.1980001,115.361998 96.2339997,114.976002 96.294,114.536 C96.3540003,114.095998 96.4519993,113.792001 96.588,113.624 C96.9400018,113.207998 97.4519966,113 98.124,113 C98.4440016,113 98.7159989,113.03 98.94,113.09 C99.1640011,113.15 99.3479993,113.277999 99.492,113.474 C99.6360007,113.670001 99.7479996,113.851999 99.828,114.02 C99.9080004,114.188001 99.9639998,114.479998 99.996,114.896 C100.044,115.520003 100.068,116.269996 100.068,117.146 C100.068,118.022004 100.062,118.627998 100.05,118.964 C100.038,119.300002 100.002,119.691998 99.942,120.14 C99.8819997,120.588002 99.7840007,120.895999 99.648,121.064 C99.3039983,121.504002 98.7960034,121.724 98.124,121.724 C97.8039984,121.724 97.5300011,121.692 97.302,121.628 C97.0739989,121.564 96.8880007,121.430001 96.744,121.226 C96.5999993,121.021999 96.4880004,120.834001 96.408,120.662 C96.3279996,120.489999 96.2720002,120.194002 96.24,119.774 C96.2079998,119.353998 96.188,119.000001 96.18,118.712 Z M97.416,114.752 C97.3279996,115.216002 97.284,115.927995 97.284,116.888 C97.284,117.848005 97.288,118.475999 97.296,118.772 C97.304,119.068001 97.3339997,119.393998 97.386,119.75 C97.4380003,120.106002 97.5219994,120.347999 97.638,120.476 C97.7540006,120.604001 97.915999,120.668 98.124,120.668 C98.5000019,120.668 98.7319996,120.426002 98.82,119.942 C98.9080004,119.457998 98.952,118.736005 98.952,117.776 C98.952,116.815995 98.948,116.190001 98.94,115.898 C98.932,115.605999 98.9020003,115.286002 98.85,114.938 C98.7979997,114.589998 98.7140006,114.356001 98.598,114.236 C98.4819994,114.115999 98.324001,114.056 98.124,114.056 C97.7399981,114.056 97.5040004,114.287998 97.416,114.752 Z M106.896,121.64 C106.359997,121.64 106.048,121.61 105.96,121.55 C105.872,121.49 105.828,121.280002 105.828,120.92 L105.816,117.98 L105.816,117.512 C105.816,117.327999 105.818,117.188 105.822,117.092 C105.826,116.996 105.824,116.886001 105.816,116.762 C105.808,116.637999 105.794,116.546 105.774,116.486 C105.754,116.426 105.728,116.364 105.696,116.3 C105.64,116.187999 105.520001,116.132 105.336,116.132 L104.268,116.444 L104.376,116.792 L104.376,121.64 C103.839997,121.64 103.528,121.61 103.44,121.55 C103.352,121.49 103.308,121.280002 103.308,120.92 L103.308,115.196 C103.748002,115.196 104.027999,115.208 104.148,115.232 C104.268001,115.256 104.34,115.327999 104.364,115.448 L105.264,115.112 C105.616002,115.112 105.883999,115.142 106.068,115.202 C106.252001,115.262 106.415999,115.375999 106.56,115.544 L107.664,115.112 C108.136002,115.112 108.453999,115.146 108.618,115.214 C108.782001,115.282 108.902,115.34 108.978,115.388 C109.054,115.436 109.122,115.535999 109.182,115.688 C109.242,115.840001 109.286,115.975999 109.314,116.096 C109.342,116.216001 109.364,116.415999 109.38,116.696 C109.404,117.112002 109.416,117.695996 109.416,118.448 L109.416,121.64 C108.871997,121.64 108.556,121.61 108.468,121.55 C108.38,121.49 108.336,121.280002 108.336,120.92 L108.336,118.436 C108.336,117.331994 108.324,116.716001 108.3,116.588 C108.26,116.355999 108.148001,116.216 107.964,116.168 C107.9,116.152 107.82,116.14 107.724,116.132 L106.788,116.408 L106.896,116.744 L106.896,121.64 Z M110.892,114.362 C110.747999,114.213999 110.676,114.042001 110.676,113.846 C110.676,113.649999 110.747999,113.484001 110.892,113.348 C111.036001,113.211999 111.203999,113.144 111.396,113.144 C111.588001,113.144 111.755999,113.211999 111.9,113.348 C112.044001,113.484001 112.116,113.649999 112.116,113.846 C112.116,114.042001 112.044001,114.213999 111.9,114.362 C111.755999,114.510001 111.588001,114.584 111.396,114.584 C111.203999,114.584 111.036001,114.510001 110.892,114.362 Z M110.868,120.968 L110.868,115.196 C111.404003,115.196 111.716,115.226 111.804,115.286 C111.892,115.346 111.936,115.555998 111.936,115.916 L111.936,121.688 C111.399997,121.688 111.088,121.658 111,121.598 C110.912,121.538 110.868,121.328002 110.868,120.968 Z M116.076,118.436 L116.088,117.38 C116.088,117.059998 116.08,116.820001 116.064,116.66 C116.032,116.323998 115.844002,116.148 115.5,116.132 L114.396,116.456 L114.504,116.792 L114.504,121.64 C113.967997,121.64 113.656,121.61 113.568,121.55 C113.48,121.49 113.436,121.280002 113.436,120.92 L113.436,115.196 C113.900002,115.196 114.191999,115.208 114.312,115.232 C114.432001,115.256 114.496,115.327999 114.504,115.448 L115.392,115.112 C115.880002,115.112 116.199999,115.144 116.352,115.208 C116.504001,115.272 116.62,115.328 116.7,115.376 C116.78,115.424 116.852,115.521999 116.916,115.67 C116.98,115.818001 117.024,115.953999 117.048,116.078 C117.072,116.202001 117.096,116.399999 117.12,116.672 C117.144,117.064002 117.156,117.655996 117.156,118.448 L117.156,121.64 C116.619997,121.64 116.306,121.61 116.214,121.55 C116.122,121.49 116.076,121.280002 116.076,120.92 L116.076,118.436 Z" id="path-7"></path>
    </defs>
    <g id="Page-1" stroke="none" stroke-width="1" fill="none" fill-rule="evenodd">
        <g id="Group-12" transform="translate(6.000000, 6.000000)">
            <rect id="Rectangle-2" stroke="#000000" stroke-width="11" fill="#FFFFFF" fill-rule="nonzero" x="0" y="0" width="201" height="273"></rect>
            <rect id="Rectangle-13" fill="#EFEFEF" fill-rule="nonzero" x="16" y="21" width="170" height="230"></rect>
            <g id="Group-11" transform="translate(9.000000, 45.000000)">
                <circle id="Oval" fill="#000000" fill-rule="nonzero" cx="91.5" cy="91.5" r="69.5"></circle>
                <g id="Group-10">
                    <g id="Group-9">
                        <g id="#FAFF81:40%" stroke-dasharray="164.6857147216797,654.9999999999999" transform="translate(91.500000, 91.500000) rotate(144.000000) translate(-91.500000, -91.500000) translate(26.000000, 26.000000)">
                            <g id="path-1-Clipped">
                                <mask id="mask-2" fill="white">
                                    <use xlink:href="#path-1"></use>
                                </mask>
                                <g id="path-1"></g>
                                <path d="M65.5,131 C101.674651,131 131,101.674651 131,65.5 C131,29.3253489 101.674651,0 65.5,0 C29.3253489,0 0,29.3253489 0,65.5 C0,101.674651 29.3253489,131 65.5,131 Z" id="path-1" stroke-opacity="0.675837862" stroke="#F7C900" stroke-width="31" mask="url(#mask-2)"></path>
                            </g>
                        </g>
                        <g id="path-3-Clipped" stroke-linecap="round" stroke-linejoin="round" stroke-dasharray="247.0299987792969,620" transform="translate(26.000000, 26.000000)">
                            <mask id="mask-4" fill="white">
                                <use xlink:href="#path-3"></use>
                            </mask>
                            <g id="path-3"></g>
                            <path d="M65.5,131 C101.674651,131 131,101.674651 131,65.5 C131,29.3253489 101.674651,1.13686838e-13 65.5,1.13686838e-13 C29.3253489,1.13686838e-13 1.13686838e-13,29.3253489 1.13686838e-13,65.5 C1.13686838e-13,101.674651 29.3253489,131 65.5,131 Z" id="path-3" stroke="#BA908E" stroke-width="31" mask="url(#mask-4)"></path>
                        </g>
                    </g>
                    <g id="60%">
                        <use fill="#000000" xlink:href="#path-5"></use>
                        <use fill="#F7C900" xlink:href="#path-5"></use>
                    </g>
                    <g id="Påfyllning">
                        <use fill="#000000" xlink:href="#path-6"></use>
                        <use fill="#F7C900" xlink:href="#path-6"></use>
                    </g>
                    <g id="om-ca-30-min">
                        <use fill="#000000" xlink:href="#path-7"></use>
                        <use fill="#F7C900" xlink:href="#path-7"></use>
                    </g>
                </g>
            </g>
        </g>
    </g>
</svg>