<?xml version="1.0" encoding="UTF-8"?>
<svg width="213px" height="285px" viewBox="0 0 213 285" version="1.1" xmlns="http://www.w3.org/2000/svg" xmlns:xlink="http://www.w3.org/1999/xlink">
    <!-- Generator: Sketch 50.2 (55047) - http://www.bohemiancoding.com/sketch -->
    <title>Group 7</title>
    <desc>Created with Sketch.</desc>
    <defs>
        <path d="M91.5,157 C127.674651,157 157,127.674651 157,91.5 C157,55.3253489 127.674651,26 91.5,26 C55.3253489,26 26,55.3253489 26,91.5 C26,127.674651 55.3253489,157 91.5,157 Z" id="path-1"></path>
        <mask id="mask-2" maskContentUnits="userSpaceOnUse" maskUnits="objectBoundingBox" x="0" y="0" width="131" height="131" fill="white">
            <use xlink:href="#path-1"></use>
        </mask>
        <path d="M65.5,131 C101.674651,131 131,101.674651 131,65.5 C131,29.3253489 101.674651,1.13686838e-13 65.5,1.13686838e-13 C29.3253489,1.13686838e-13 1.13686838e-13,29.3253489 1.13686838e-13,65.5 C1.13686838e-13,101.674651 29.3253489,131 65.5,131 Z" id="path-3"></path>
        <mask id="mask-4" maskContentUnits="userSpaceOnUse" maskUnits="objectBoundingBox" x="0" y="0" width="131" height="131" fill="white">
            <use xlink:href="#path-3"></use>
        </mask>
    </defs>
    <g id="Page-1" stroke="none" stroke-width="1" fill="none" fill-rule="evenodd">
        <g id="Group-7" transform="translate(6.000000, 6.000000)">
            <rect id="Rectangle-2" stroke="#000000" stroke-width="11" fill="#FFFFFF" fill-rule="nonzero" x="0" y="0" width="201" height="273"></rect>
            <rect id="Rectangle-13" fill="#EFEFEF" fill-rule="nonzero" x="16" y="21" width="170" height="230"></rect>
            <g id="Group-4" transform="translate(9.000000, 45.000000)">
                <circle id="Oval" fill="#000000" cx="91.5" cy="91.5" r="69.5"></circle>
                <g id="Group-3">
                    <use id="#FAFF81:40%" stroke-opacity="0.675837862" stroke="#F7C900" mask="url(#mask-2)" stroke-width="31" stroke-dasharray="164.6857142857143,655" transform="translate(91.500000, 91.500000) rotate(-216.000000) translate(-91.500000, -91.500000) " xlink:href="#path-1"></use>
                    <g id="Group-2" transform="translate(26.000000, 26.000000)">
                        <g id="Group" transform="translate(37.000000, 33.000000)" fill="#F7C900" font-family="Economica-Bold, Economica" font-weight="bold">
                            <text id="60%" font-size="38">
                                <tspan x="0" y="36">60%</tspan>
                            </text>
                            <text id="Påfyllning-om-ca-30" font-size="12">
                                <tspan x="8.514" y="50">Påfyllning</tspan>
                                <tspan x="2.352" y="63">om ca 30 min</tspan>
                            </text>
                        </g>
                        <use id="#161032:60%" stroke="#BA908E" mask="url(#mask-4)" stroke-width="31" stroke-linecap="round" stroke-linejoin="round" stroke-dasharray="247.0299987792969,620" xlink:href="#path-3"></use>
                    </g>
                </g>
                <circle id="Oval-2" stroke="#000000" cx="91.5" cy="91.5" r="65.5"></circle>
            </g>
        </g>
    </g>
</svg>