<?xml version="1.0" encoding="UTF-8"?>
<svg width="159px" height="159px" viewBox="0 0 159 159" version="1.1" xmlns="http://www.w3.org/2000/svg" xmlns:xlink="http://www.w3.org/1999/xlink">
    <!-- Generator: Sketch 51.3 (57544) - http://www.bohemiancoding.com/sketch -->
    <title>Group 5</title>
    <desc>Created with Sketch.</desc>
    <defs>
        <path d="M75.5,151 C117.197498,151 151,117.197498 151,75.5 C151,33.8025014 117.197498,0 75.5,0 C33.8025014,0 0,33.8025014 0,75.5 C0,117.197498 33.8025014,151 75.5,151 Z" id="path-1"></path>
        <path d="M75.5,151 C117.197498,151 151,117.197498 151,75.5 C151,33.8025014 117.197498,0 75.5,0 C33.8025014,0 0,33.8025014 0,75.5 C0,117.197498 33.8025014,151 75.5,151 Z" id="path-3"></path>
        <path d="M75.5,151 C117.197498,151 151,117.197498 151,75.5 C151,33.8025014 117.197498,0 75.5,0 C33.8025014,0 0,33.8025014 0,75.5 C0,117.197498 33.8025014,151 75.5,151 Z" id="path-5"></path>
        <path d="M75.5,151 C117.197498,151 151,117.197498 151,75.5 C151,33.8025014 117.197498,0 75.5,0 C33.8025014,0 0,33.8025014 0,75.5 C0,117.197498 33.8025014,151 75.5,151 Z" id="path-7"></path>
    </defs>
    <g id="Page-1" stroke="none" stroke-width="1" fill="none" fill-rule="evenodd">
        <g id="Desktop-Copy-4" transform="translate(-1399.000000, -379.000000)">
            <g id="Group-5" transform="translate(1399.000000, 379.000000)">
                <g id="Group-4">
                    <circle id="Oval" fill="#000000" fill-rule="nonzero" cx="79.5" cy="79.5" r="79.5"></circle>
                    <g id="60%-Clipped" transform="translate(4.000000, 4.000000)">
                        <mask id="mask-2" fill="white">
                            <use xlink:href="#path-1"></use>
                        </mask>
                        <g id="path-1"></g>
                        <path d="M52.9399084,76.3137863 C54.2247596,76.3137863 54.9985789,75.9049761 55.2613893,75.0873435 C55.5241997,74.2697109 55.6556031,72.3278627 55.6556031,69.2617405 C55.6556031,66.1956183 55.5168996,64.2318695 55.2394885,63.3704351 C54.9620775,62.5090007 54.2539598,62.0636898 53.1151145,62.0344885 L50.2242137,62.8667176 L50.1804122,67.0716641 L50.1804122,68.7799237 C50.1804122,69.8019644 50.1950125,70.6998867 50.2242137,71.4737176 C50.253415,72.2475484 50.3483173,73.0943694 50.5089237,74.0142061 C50.66953,74.9340428 50.946937,75.547258 51.3411527,75.8538702 C51.7353684,76.1604824 52.2682816,76.3137863 52.9399084,76.3137863 Z M59.729145,69.0427328 L59.729145,71.4956183 C59.729145,73.3060905 59.685344,74.4814197 59.5977405,75.0216412 C59.5101369,75.5618627 59.4079344,76.1093764 59.2911298,76.6641985 C59.1743252,77.2190205 59.0356216,77.6059301 58.8750153,77.8249389 C58.7144089,78.0439476 58.5027036,78.3213545 58.2398931,78.6571679 C57.9770827,78.9929813 57.6850754,79.2119868 57.3638626,79.3141908 C57.0426497,79.4163949 56.6630404,79.540498 56.2250229,79.6865038 C55.6117984,79.8909119 54.6992758,79.9931145 53.4874275,79.9931145 C52.2755792,79.9931145 51.3484561,79.934713 50.7060305,79.8179084 C50.063605,79.7011038 49.5087912,79.4820983 49.0415725,79.1608855 C48.5743539,78.8396726 48.1728439,78.5257649 47.8370305,78.2191527 C47.5012171,77.9125405 47.2238103,77.4307284 47.0048015,76.7737023 C46.7857927,76.116676 46.6178886,75.5253614 46.501084,74.9997405 C46.3842794,74.4741195 46.2966771,73.7149006 46.2382748,72.7220611 C46.1506713,71.2328017 46.1068702,69.5829607 46.1068702,67.7724885 L46.1068702,64.0055573 C46.1068702,61.465056 46.1579715,59.7422132 46.2601756,58.8369771 C46.3623796,57.931741 46.4718824,57.0046179 46.588687,56.0555802 C46.7054916,55.1065423 46.8587955,54.369224 47.0486031,53.8436031 C47.2384106,53.3179821 47.4647163,52.7193672 47.7275267,52.0477405 C47.9903371,51.3761137 48.3042449,50.8578007 48.6692595,50.4927863 C49.034274,50.1277717 49.4357841,49.7700628 49.8738015,49.4196489 C50.7206352,48.7772233 51.917865,48.4560153 53.4655267,48.4560153 L59.1159237,48.9816336 C59.1159237,50.6168988 58.9991208,51.5805227 58.7655115,51.8725344 C58.5319021,52.164546 57.7142818,52.3105496 56.312626,52.3105496 L53.4655267,52.3105496 C52.5602906,52.3105496 51.9105745,52.8142621 51.5163588,53.8217023 C51.1221431,54.8291425 50.8082353,56.5592855 50.574626,59.0121832 L52.7209008,58.3551603 C56.0498334,58.3551603 58.0500831,58.9683756 58.7217099,60.1948244 C59.3933367,61.4212733 59.729145,64.3705466 59.729145,69.0427328 Z M64.1092977,69.305542 C64.0800965,68.2543 64.0654962,66.4584554 64.0654962,63.9179542 C64.0654962,61.377453 64.0873967,59.5013063 64.1311985,58.289458 C64.1750002,57.0776097 64.3064034,55.6686747 64.5254122,54.0626107 C64.7444209,52.4565467 65.1021299,51.3469191 65.5985496,50.7336947 C66.8834008,49.2152342 68.7522473,48.4560153 71.205145,48.4560153 C72.3731916,48.4560153 73.3660162,48.5655179 74.1836489,48.7845267 C75.0012815,49.0035354 75.6728981,49.470747 76.1985191,50.1861756 C76.7241401,50.9016041 77.1329502,51.5659206 77.4249618,52.179145 C77.7169735,52.7923695 77.9213786,53.858196 78.0381832,55.3766565 C78.2133902,57.6543473 78.3009924,60.3919153 78.3009924,63.5894427 C78.3009924,66.7869702 78.2790918,68.9989252 78.2352901,70.225374 C78.1914883,71.4518229 78.060085,72.8826584 77.8410763,74.5179237 C77.6220675,76.1531889 77.2643587,77.2774167 76.7679389,77.8906412 C75.5122889,79.4967052 73.6580428,80.2997252 71.205145,80.2997252 C70.0370985,80.2997252 69.0369736,80.1829223 68.2047405,79.949313 C67.3725073,79.7157036 66.6935904,79.2265915 66.1679695,78.4819618 C65.6423485,77.7373322 65.2335384,77.0511151 64.9415267,76.4232901 C64.6495151,75.795465 64.44511,74.7150381 64.3283053,73.1819771 C64.2115007,71.6489159 64.1384989,70.3567839 64.1092977,69.305542 Z M68.620855,54.8510382 C68.2996421,56.5447057 68.1390382,59.1435703 68.1390382,62.6477099 C68.1390382,66.1518496 68.1536385,68.4441066 68.1828397,69.5245496 C68.2120409,70.6049927 68.3215436,71.7949222 68.5113511,73.094374 C68.7011587,74.3938259 69.0077663,75.2771477 69.4311832,75.7443664 C69.8546001,76.2115851 70.4459147,76.4451908 71.205145,76.4451908 C72.5775997,76.4451908 73.4244207,75.5618688 73.7456336,73.7951985 C74.0668464,72.0285281 74.2274504,69.3931626 74.2274504,65.8890229 C74.2274504,62.3848832 74.2128501,60.0999265 74.1836489,59.034084 C74.1544476,57.9682415 74.044945,56.8002124 73.8551374,55.5299618 C73.6653298,54.2597112 73.3587223,53.40559 72.9353053,52.9675725 C72.5118884,52.5295551 71.9351741,52.3105496 71.205145,52.3105496 C69.8034892,52.3105496 68.9420678,53.1573706 68.620855,54.8510382 Z M82.2431298,55.0700458 C82.2431298,52.5003434 82.5497373,50.7482998 83.1629618,49.8138626 C83.7761863,48.8794254 84.7763111,48.4122137 86.1633664,48.4122137 C87.5504216,48.4122137 88.528646,48.8794254 89.0980687,49.8138626 C89.6674914,50.7482998 89.9521985,52.5076436 89.9521985,55.0919466 C89.9521985,57.6762496 89.6601912,59.4647941 89.0761679,60.4576336 C88.4921447,61.4504731 87.5212205,61.9468855 86.1633664,61.9468855 C84.8055123,61.9468855 83.8126876,61.443173 83.1848626,60.4357328 C82.5570376,59.4282926 82.2431298,57.6397482 82.2431298,55.0700458 Z M86.9079924,51.346916 C86.7181848,51.171709 86.4699786,51.0841069 86.1633664,51.0841069 C85.8567542,51.0841069 85.608548,51.171709 85.4187405,51.346916 C85.2289329,51.5221231 85.0902295,51.8287306 85.002626,52.2667481 C84.9150224,52.8799726 84.8712214,53.7048931 84.8712214,54.7415344 C84.8712214,55.7781756 84.8785216,56.4716929 84.8931221,56.8221069 C84.9077227,57.1725208 84.9515238,57.5667306 85.0245267,58.0047481 C85.0975296,58.4427655 85.2289329,58.742073 85.4187405,58.9026794 C85.608548,59.0632858 85.8640543,59.1435878 86.1852672,59.1435878 C86.50648,59.1435878 86.7546861,59.0632858 86.9298931,58.9026794 C87.1051002,58.742073 87.221903,58.4427655 87.2803053,58.0047481 C87.39711,57.3915236 87.4555115,56.5666031 87.4555115,55.5299618 C87.4555115,54.4933206 87.4482112,53.7998033 87.4336107,53.4493893 C87.4190101,53.0989754 87.375209,52.7047655 87.3022061,52.2667481 C87.2292031,51.8287306 87.0977999,51.5221231 86.9079924,51.346916 Z M96.0844122,73.1162748 C96.0844122,70.5465724 96.3910198,68.7945288 97.0042443,67.8600916 C97.6174688,66.9256544 98.6175935,66.4584427 100.004649,66.4584427 C101.391704,66.4584427 102.369928,66.9256544 102.939351,67.8600916 C103.508774,68.7945288 103.793481,70.5538726 103.793481,73.1381756 C103.793481,75.7224786 103.501474,77.5110231 102.91745,78.5038626 C102.333427,79.4967021 101.362503,79.9931145 100.004649,79.9931145 C98.6467947,79.9931145 97.6539701,79.489402 97.026145,78.4819618 C96.39832,77.4745216 96.0844122,75.6859772 96.0844122,73.1162748 Z M100.749275,69.393145 C100.559467,69.217938 100.311261,69.1303359 100.004649,69.1303359 C99.6980367,69.1303359 99.4498305,69.217938 99.2600229,69.393145 C99.0702153,69.5683521 98.9315119,69.8749596 98.8439084,70.3129771 C98.7563049,70.9262016 98.7125038,71.7511221 98.7125038,72.7877634 C98.7125038,73.8244046 98.719804,74.5179219 98.7344046,74.8683359 C98.7490051,75.2187498 98.7928062,75.6129596 98.8658092,76.0509771 C98.938812,76.4889946 99.0702153,76.788302 99.2600229,76.9489084 C99.4498305,77.1095148 99.7053368,77.1898168 100.02655,77.1898168 C100.347762,77.1898168 100.595969,77.1095148 100.771176,76.9489084 C100.946383,76.788302 101.063185,76.4889946 101.121588,76.0509771 C101.238392,75.4377526 101.296794,74.6128321 101.296794,73.5761908 C101.296794,72.5395496 101.289494,71.8460323 101.274893,71.4956183 C101.260293,71.1452044 101.216491,70.7509946 101.143489,70.3129771 C101.070486,69.8749596 100.939082,69.5683521 100.749275,69.393145 Z M101.428198,48.4560153 L88.8133588,79.9931145 L84.4332061,79.9931145 L97.0918473,48.4560153 L101.428198,48.4560153 Z" id="60%" fill="#DCBC3F" fill-rule="nonzero" mask="url(#mask-2)"></path>
                    </g>
                    <g id="Påfyllning-Clipped" transform="translate(4.000000, 4.000000)">
                        <mask id="mask-4" fill="white">
                            <use xlink:href="#path-3"></use>
                        </mask>
                        <g id="path-1"></g>
                        <path d="M54.3231145,94.9663206 C54.3231145,95.3905059 54.2816188,95.6371752 54.198626,95.7063359 C54.1156331,95.7754965 53.8251628,95.8100763 53.3272061,95.8100763 L53.0229008,95.8100763 L53.0229008,85.8371603 L55.2636947,85.6850076 C56.1858367,85.6850076 56.8221051,85.8048843 57.1725191,86.0446412 C57.301619,86.1368554 57.409969,86.219847 57.4975725,86.2936183 C57.585176,86.3673897 57.6589462,86.4803503 57.7188855,86.6325038 C57.7788248,86.7846573 57.8249312,86.9091446 57.8572061,87.0059695 C57.889481,87.1027944 57.910229,87.2526402 57.9194504,87.4555115 C57.9471146,87.8059254 57.9609466,88.1586395 57.9609466,88.5136641 C57.9609466,88.8686888 57.9563359,89.1361059 57.9471145,89.3159237 C57.9378931,89.4957414 57.9079239,89.7147468 57.8572061,89.9729466 C57.8064883,90.2311463 57.7258021,90.4247932 57.615145,90.5538931 C57.504488,90.6829931 57.3523368,90.8120909 57.158687,90.9411908 C56.8174945,91.1809477 56.1904474,91.3008244 55.2775267,91.3008244 L54.3231145,91.3008244 L54.3231145,94.9663206 Z M55.2775267,90.069771 C55.7293764,90.069771 56.079785,89.9960007 56.3287634,89.848458 C56.4855275,89.7562438 56.5777403,89.5118798 56.6054046,89.1153588 C56.614626,88.9862589 56.6192366,88.7810854 56.6192366,88.4998321 C56.6192366,88.2185788 56.614626,88.0157105 56.6054046,87.8912214 C56.5961832,87.7667322 56.5708247,87.6238023 56.5293282,87.4624275 C56.4878318,87.3010526 56.4209776,87.1927025 56.3287634,87.137374 C56.079785,86.9898314 55.7293764,86.9160611 55.2775267,86.9160611 L54.212458,86.9160611 L54.3231145,87.2618626 L54.3231145,89.7516336 L54.212458,90.069771 L55.2775267,90.069771 Z M60.3469771,87.4970076 C60.0841667,87.2388079 59.9527634,86.9345055 59.9527634,86.5840916 C59.9527634,86.2336777 60.0841667,85.9316807 60.3469771,85.6780916 C60.6097875,85.4245025 60.9163952,85.2977099 61.2668092,85.2977099 C61.6172231,85.2977099 61.9215254,85.4245025 62.1797252,85.6780916 C62.4379249,85.9316807 62.5670229,86.235983 62.5670229,86.5910076 C62.5670229,86.9460323 62.4379249,87.2503346 62.1797252,87.5039237 C61.9215254,87.7575127 61.6172231,87.8843053 61.2668092,87.8843053 C60.9163952,87.8843053 60.6097875,87.7552074 60.3469771,87.4970076 Z M60.9694198,86.3074504 C60.8818163,86.3904432 60.8380153,86.4849613 60.8380153,86.5910076 C60.8380153,86.697054 60.8841217,86.7961827 60.9763359,86.8883969 C61.0685501,86.9806111 61.1676788,87.0267176 61.2737252,87.0267176 C61.3797716,87.0267176 61.4789003,86.9806111 61.5711145,86.8883969 C61.6633287,86.7961827 61.7094351,86.697054 61.7094351,86.5910076 C61.7094351,86.4849613 61.6633287,86.3904432 61.5711145,86.3074504 C61.4789003,86.2244576 61.3774662,86.1829618 61.2668092,86.1829618 C61.1561521,86.1829618 61.0570234,86.2244576 60.9694198,86.3074504 Z M61.8892519,90.0974351 L61.903084,89.7239695 C61.903084,89.5948695 61.889252,89.5257099 61.8615878,89.5164885 C61.8339235,89.5072672 61.8016491,89.4865192 61.7647634,89.4542443 C61.7278776,89.4219694 61.679466,89.4150533 61.6195267,89.4334962 C61.5595874,89.451939 61.4881226,89.4565496 61.4051298,89.4473282 L60.6581985,89.5441527 C60.4645487,89.5718169 60.2985656,89.5856489 60.1602443,89.5856489 C60.021923,89.5856489 59.9158782,89.5533744 59.8421069,89.4888244 C59.7683355,89.4242745 59.6945652,89.1291935 59.6207939,88.6035725 L61.225313,88.2854351 C61.8800338,88.2854351 62.2903809,88.3338469 62.4563664,88.4306718 C62.622352,88.5274966 62.7422287,88.6081829 62.816,88.6727328 C62.8897713,88.7372828 62.9404884,88.8663808 62.9681527,89.0600305 C63.0142598,89.2997874 63.037313,89.6778601 63.037313,90.1942595 L63.037313,95.8100763 C62.5024706,95.8100763 62.1658938,95.7824124 62.0275725,95.727084 C61.8892512,95.6717555 61.8154809,95.5380468 61.8062595,95.3259542 L60.6581985,95.9069008 C60.3999987,95.9069008 60.2086571,95.9045954 60.0841679,95.8999847 C59.9596788,95.895374 59.8351914,95.8561836 59.7107023,95.7824122 C59.5862132,95.7086409 59.5032216,95.6348706 59.4617252,95.5610992 C59.4202288,95.4873279 59.3810384,95.330566 59.3441527,95.0908092 C59.2980456,94.8049452 59.2749924,94.2193937 59.2749924,93.3341374 L59.2749924,92.3797252 C59.2749924,91.3377047 60.1832886,90.7982598 61.9999084,90.761374 L61.8892519,90.4294046 L61.8892519,90.0974351 Z M60.5752061,94.7311756 C60.5844275,94.7311756 61.0501023,94.5559712 61.9722443,94.2055573 L61.8339237,93.8044275 L61.8339237,92.1584122 L61.9445802,91.8402748 C61.566502,91.8494962 61.2345357,91.8863813 60.9486718,91.9509313 C60.6628078,92.0154813 60.5198779,92.1030834 60.5198779,92.2137405 L60.5060458,94.0395725 C60.5060458,94.5006435 60.529099,94.7311756 60.5752061,94.7311756 Z M67.0347786,88.3822595 L67.0347786,89.5441527 L65.6515725,89.5441527 L65.7898931,89.9452824 L65.7898931,97.4284275 C65.7806718,97.9171627 65.7276493,98.2007172 65.6308244,98.2790992 C65.5339995,98.3574813 65.1766749,98.3966718 64.5588397,98.3966718 L64.5726718,89.9452824 L64.6971603,89.5441527 L63.9363969,89.5441527 L63.9363969,88.3822595 L64.6971603,88.3822595 L64.5726718,88.036458 L64.5726718,87.344855 C64.5726718,87.2065337 64.5865037,87.0336346 64.6141679,86.8261527 C64.6418322,86.6186707 64.6694961,86.4849622 64.6971603,86.4250229 C64.7248245,86.3650836 64.7870682,86.2820922 64.8838931,86.1760458 C64.980718,86.0699994 65.0752362,86.0077558 65.1674504,85.989313 C65.2596646,85.9708701 65.4095104,85.9432063 65.6169924,85.9063206 C65.8244743,85.8694349 66.0296478,85.8509924 66.2325191,85.8509924 L67.0624427,85.8509924 L67.0624427,86.8330687 C66.4353862,86.8330687 66.0688403,86.8837858 65.9627939,86.9852214 C65.8567475,87.0866569 65.8037252,87.446287 65.8037252,88.0641221 L65.6654046,88.3822595 L67.0347786,88.3822595 Z M67.8370382,98.3966718 L67.8370382,97.4007634 C68.1966736,97.4007634 68.5032812,97.2878027 68.7568702,97.0618779 C69.0104593,96.835953 69.1372519,96.5754519 69.1372519,96.2803664 C69.1372519,96.2065951 69.1326412,96.1466567 69.1234198,96.1005496 L67.5603969,88.3822595 L68.0998473,88.3822595 C68.3764899,88.3822595 68.5516943,88.4030074 68.6254656,88.4445038 C68.699237,88.4860002 68.7614807,88.5436332 68.8121985,88.6174046 C68.8629163,88.6911759 68.8928855,88.7626409 68.9021069,88.8318015 C68.9113282,88.9009622 68.9297709,89.0139229 68.9574351,89.170687 L69.7458626,94.150229 L69.9533435,94.150229 L70.7970992,88.3822595 C71.2858345,88.3822595 71.5970527,88.4030074 71.7307634,88.4445038 C71.864474,88.4860002 71.9313282,88.6127929 71.9313282,88.8248855 L70.4651298,96.0313893 C70.3268085,96.7691029 70.1746573,97.2578309 70.0086718,97.4975878 C69.7781363,97.8203375 69.5568255,98.0278163 69.3447328,98.1200305 C68.865219,98.3044589 68.3626591,98.3966718 67.8370382,98.3966718 Z M74.2689466,86.6947481 L74.2689466,95.8654046 C73.6511114,95.8654046 73.2914814,95.8308248 73.1900458,95.7616641 C73.0886102,95.6925035 73.0378931,95.4504448 73.0378931,95.0354809 L73.0378931,85.8509924 C73.6465068,85.8509924 74.0038315,85.8855722 74.1098779,85.9547328 C74.2159242,86.0238935 74.2689466,86.2705628 74.2689466,86.6947481 Z M77.0215267,86.6947481 L77.0215267,95.8654046 C76.4036915,95.8654046 76.0440615,95.8308248 75.942626,95.7616641 C75.8411904,95.6925035 75.7904733,95.4504448 75.7904733,95.0354809 L75.7904733,85.8509924 C76.399087,85.8509924 76.7564116,85.8855722 76.862458,85.9547328 C76.9685044,86.0238935 77.0215267,86.2705628 77.0215267,86.6947481 Z M81.5169466,92.116916 L81.5307786,90.8996947 C81.5307786,90.5308379 81.5215574,90.2541994 81.5031145,90.069771 C81.4662288,89.6824713 81.2495287,89.4796032 80.8530076,89.4611603 L79.580458,89.834626 L79.7049466,90.2219237 L79.7049466,95.8100763 C79.0871114,95.8100763 78.7274814,95.7754965 78.6260458,95.7063359 C78.5246102,95.6371752 78.4738931,95.3951166 78.4738931,94.9801527 L78.4738931,88.3822595 C79.0087355,88.3822595 79.3453123,88.3960915 79.4836336,88.4237557 C79.6219549,88.45142 79.6957252,88.5344115 79.7049466,88.6727328 L80.7285191,88.2854351 C81.2910257,88.2854351 81.6598769,88.3223203 81.835084,88.3960916 C82.010291,88.4698629 82.1439995,88.534412 82.2362137,88.5897405 C82.3284279,88.6450689 82.4114195,88.7580297 82.4851908,88.928626 C82.5589622,89.0992222 82.6096793,89.255984 82.6373435,89.398916 C82.6650077,89.541848 82.6926716,89.7700747 82.7203359,90.0836031 C82.7480001,90.5354527 82.7618321,91.2178275 82.7618321,92.1307481 L82.7618321,95.8100763 C82.1439969,95.8100763 81.7820616,95.7754965 81.6760153,95.7063359 C81.5699689,95.6371752 81.5169466,95.3951166 81.5169466,94.9801527 L81.5169466,92.116916 Z M84.4631756,87.4209313 C84.29719,87.2503351 84.2141985,87.0520775 84.2141985,86.8261527 C84.2141985,86.6002279 84.29719,86.4088863 84.4631756,86.2521221 C84.6291611,86.095358 84.822808,86.0169771 85.0441221,86.0169771 C85.2654363,86.0169771 85.4590832,86.095358 85.6250687,86.2521221 C85.7910542,86.4088863 85.8740458,86.6002279 85.8740458,86.8261527 C85.8740458,87.0520775 85.7910542,87.2503351 85.6250687,87.4209313 C85.4590832,87.5915275 85.2654363,87.6768244 85.0441221,87.6768244 C84.822808,87.6768244 84.6291611,87.5915275 84.4631756,87.4209313 Z M84.4355115,95.0354809 L84.4355115,88.3822595 C85.0533466,88.3822595 85.4129766,88.4168393 85.5144122,88.486 C85.6158478,88.5551607 85.6665649,88.7972193 85.6665649,89.2121832 L85.6665649,95.8654046 C85.0487297,95.8654046 84.6890997,95.8308248 84.5876641,95.7616641 C84.4862285,95.6925035 84.4355115,95.4504448 84.4355115,95.0354809 Z M90.438626,92.116916 L90.452458,90.8996947 C90.452458,90.5308379 90.4432368,90.2541994 90.4247939,90.069771 C90.3879082,89.6824713 90.1712081,89.4796032 89.774687,89.4611603 L88.5021374,89.834626 L88.626626,90.2219237 L88.626626,95.8100763 C88.0087908,95.8100763 87.6491608,95.7754965 87.5477252,95.7063359 C87.4462896,95.6371752 87.3955725,95.3951166 87.3955725,94.9801527 L87.3955725,88.3822595 C87.9304149,88.3822595 88.2669917,88.3960915 88.405313,88.4237557 C88.5436343,88.45142 88.6174046,88.5344115 88.626626,88.6727328 L89.6501985,88.2854351 C90.2127051,88.2854351 90.5815563,88.3223203 90.7567634,88.3960916 C90.9319704,88.4698629 91.0656789,88.534412 91.1578931,88.5897405 C91.2501073,88.6450689 91.3330989,88.7580297 91.4068702,88.928626 C91.4806416,89.0992222 91.5313587,89.255984 91.5590229,89.398916 C91.5866871,89.541848 91.614351,89.7700747 91.6420153,90.0836031 C91.6696795,90.5354527 91.6835115,91.2178275 91.6835115,92.1307481 L91.6835115,95.8100763 C91.0656763,95.8100763 90.703741,95.7754965 90.5976947,95.7063359 C90.4916483,95.6371752 90.438626,95.3951166 90.438626,94.9801527 L90.438626,92.116916 Z M96.1927634,97.0757099 C96.2941989,96.9512208 96.344916,96.7667952 96.344916,96.5224275 C96.344916,96.2780598 96.2965043,96.1143821 96.1996794,96.0313893 C96.1028545,95.9483965 95.8884596,95.9069008 95.5564885,95.9069008 C94.2839326,95.9069008 93.539314,95.8446571 93.3226107,95.7201679 C93.1059074,95.5956788 92.9975573,95.1599732 92.9975573,94.4130382 C92.9975573,93.9058601 93.1958148,93.4862917 93.5923359,93.1543206 C93.3802432,92.9606708 93.2280921,92.7278334 93.1358779,92.4558015 C93.0436637,92.1837696 92.9975573,91.8033917 92.9975573,91.3146565 C92.9975573,90.8259212 92.9998626,90.507787 93.0044733,90.3602443 C93.009084,90.2127016 93.0183052,90.0236653 93.0321374,89.7931298 C93.0459696,89.5625943 93.071328,89.3989165 93.1082137,89.3020916 C93.1450995,89.2052667 93.1981218,89.0830847 93.2672824,88.935542 C93.3364431,88.7879993 93.42174,88.6865651 93.5231756,88.6312366 C93.6246111,88.5759082 93.7490985,88.5159698 93.8966412,88.4514198 C94.1363981,88.3407628 94.5513558,88.2854351 95.1415267,88.2854351 L97.6451298,88.2854351 C97.6451298,88.7280633 97.603634,89.0231443 97.5206412,89.170687 C97.4376484,89.3182297 97.2716654,89.4012213 97.022687,89.4196641 C97.1886726,89.7792996 97.2716641,90.3233551 97.2716641,91.0518473 L97.2716641,91.6742901 C97.2716641,92.1261397 97.2532216,92.4304419 97.2163359,92.5872061 C97.1794502,92.7439703 97.1356491,92.900732 97.0849313,93.0574962 C97.0342135,93.2142603 96.9742752,93.3249157 96.9051145,93.3894656 C96.8359539,93.4540156 96.7483517,93.5323965 96.6423053,93.6246107 C96.536259,93.7168249 96.414077,93.7813738 96.2757557,93.8182595 C95.8792347,93.9012524 95.4804142,93.9427481 95.0792824,93.9427481 C94.6781507,93.9427481 94.4268707,93.970412 94.3254351,94.0257405 C94.2239995,94.0810689 94.1732824,94.1825031 94.1732824,94.3300458 C94.1732824,94.4775885 94.1963356,94.5698013 94.2424427,94.606687 C94.3438783,94.6896799 94.7957212,94.7311756 95.5979847,94.7311756 C96.4002483,94.7311756 96.9212508,94.8279991 97.1610076,95.0216489 C97.4007645,95.2152986 97.5206412,95.6832788 97.5206412,96.4256031 C97.5206412,97.1679274 97.3846273,97.6820139 97.1125954,97.9678779 C96.8405635,98.2537418 96.3080345,98.3966718 95.5149924,98.3966718 L94.6850687,98.3966718 C94.2424406,98.3966718 93.9842446,98.3528707 93.9104733,98.2652672 C93.8367019,98.1776637 93.7998168,97.8756667 93.7998168,97.3592672 L95.5011603,97.2624427 C95.8607957,97.2624427 96.0913278,97.200199 96.1927634,97.0757099 Z M95.9991145,91.9163511 C96.0083359,91.6350979 96.0129466,91.3492381 96.0129466,91.0587634 C96.0129466,90.7682886 96.0106412,90.5608097 96.0060305,90.4363206 C96.0014198,90.3118315 95.9852826,90.1689016 95.9576183,90.0075267 C95.9299541,89.8461519 95.8884582,89.7378018 95.8331298,89.6824733 C95.6671442,89.5349306 95.406643,89.4611603 95.0516183,89.4611603 C94.6965937,89.4611603 94.4729776,89.5648997 94.3807634,89.7723817 C94.2885492,89.9798636 94.2424427,90.4086533 94.2424427,91.0587634 C94.2424427,91.7088735 94.2954651,92.1607163 94.4015115,92.4143053 C94.5075578,92.6678944 94.7334792,92.794687 95.0792824,92.794687 C95.4250857,92.794687 95.6625337,92.7186115 95.7916336,92.566458 C95.9207335,92.4143045 95.9898931,92.1976044 95.9991145,91.9163511 Z" id="Påfyllning" fill="#DCBC3F" fill-rule="nonzero" mask="url(#mask-4)"></path>
                    </g>
                    <g id="om-ca-30-min-Clipped" transform="translate(4.000000, 4.000000)">
                        <mask id="mask-6" fill="white">
                            <use xlink:href="#path-5"></use>
                        </mask>
                        <g id="path-1"></g>
                        <path d="M46.1068702,106.562198 L46.1068702,105.704611 C46.1068702,105.132883 46.1207022,104.750199 46.1483664,104.55655 C46.1760306,104.3629 46.2083051,104.171558 46.2451908,103.982519 C46.2820766,103.79348 46.3258776,103.655161 46.3765954,103.567557 C46.4273132,103.479954 46.4918622,103.376214 46.5702443,103.256336 C46.6486263,103.136457 46.7385339,103.053466 46.8399695,103.007359 C46.941405,102.961252 47.0612818,102.910535 47.1996031,102.855206 C47.4301386,102.762992 47.7667154,102.716885 48.2093435,102.716885 C48.6519717,102.716885 49.0092963,102.769908 49.2813282,102.875954 C49.5533602,102.982001 49.7654496,103.101877 49.9176031,103.235588 C50.0697565,103.369298 50.1781065,103.627494 50.2426565,104.010183 C50.3072065,104.392872 50.3463968,104.731754 50.360229,105.02684 C50.3740612,105.321925 50.3809771,105.723051 50.3809771,106.230229 L50.3809771,107.267634 C50.3809771,107.857805 50.3671452,108.249709 50.3394809,108.443359 C50.3118167,108.637009 50.2795422,108.830656 50.2426565,109.024305 C50.2057708,109.217955 50.1619697,109.35858 50.1112519,109.446183 C50.0605341,109.533787 49.9959851,109.639831 49.9176031,109.764321 C49.839221,109.88881 49.7470082,109.976412 49.6409618,110.02713 C49.5349155,110.077848 49.4127335,110.13087 49.2744122,110.186198 C49.0530981,110.287634 48.7580171,110.338351 48.3891603,110.338351 C48.0203035,110.338351 47.7367491,110.324519 47.5384885,110.296855 C47.340228,110.269191 47.1650237,110.209252 47.0128702,110.117038 C46.8607168,110.024824 46.7339241,109.937222 46.6324885,109.854229 C46.531053,109.771236 46.4457561,109.630612 46.3765954,109.432351 C46.3074348,109.234091 46.2544124,109.065802 46.2175267,108.927481 C46.180641,108.78916 46.1575878,108.563238 46.1483664,108.24971 C46.1207022,107.724089 46.1068702,107.161591 46.1068702,106.562198 Z M48.2370076,103.892611 C47.8220437,103.892611 47.5684585,104.060899 47.4762443,104.397481 C47.3840301,104.734063 47.3379237,105.315003 47.3379237,106.140321 C47.3379237,106.965638 47.3425344,107.500472 47.3517557,107.74484 C47.3609771,107.989207 47.3932517,108.247403 47.4485802,108.519435 C47.5039086,108.791467 47.5938162,108.966671 47.7183053,109.045053 C47.8427945,109.123435 48.0156935,109.162626 48.2370076,109.162626 C48.6519715,109.162626 48.9055568,108.987422 48.997771,108.637008 C49.0899852,108.286594 49.1360916,107.696432 49.1360916,106.866504 C49.1360916,106.036576 49.1314809,105.501742 49.1222595,105.261985 C49.1130382,105.022228 49.0807636,104.773253 49.0254351,104.515053 C48.9701066,104.256854 48.880199,104.088565 48.7557099,104.010183 C48.6312208,103.931801 48.4583218,103.892611 48.2370076,103.892611 Z M55.8999695,110.241527 C55.2821343,110.241527 54.9225043,110.206947 54.8210687,110.137786 C54.7196331,110.068626 54.668916,109.826567 54.668916,109.411603 L54.655084,106.022748 L54.655084,105.483298 C54.655084,105.271205 54.6573893,105.109833 54.662,104.999176 C54.6666107,104.888519 54.6643053,104.761726 54.655084,104.618794 C54.6458626,104.475862 54.6297253,104.369817 54.6066718,104.300656 C54.5836182,104.231496 54.5536491,104.160031 54.5167634,104.08626 C54.4522134,103.95716 54.3138942,103.892611 54.1018015,103.892611 L52.8707481,104.252244 L52.9952366,104.653374 L52.9952366,110.241527 C52.3774015,110.241527 52.0177715,110.206947 51.9163359,110.137786 C51.8149003,110.068626 51.7641832,109.826567 51.7641832,109.411603 L51.7641832,102.81371 C52.2713613,102.81371 52.5941062,102.827542 52.7324275,102.855206 C52.8707488,102.88287 52.9537403,102.965862 52.9814046,103.104183 L54.0188092,102.716885 C54.4245517,102.716885 54.7334646,102.751465 54.9455573,102.820626 C55.1576499,102.889787 55.3466862,103.02119 55.5126718,103.21484 L56.7852214,102.716885 C57.3292852,102.716885 57.6958311,102.756076 57.8848702,102.834458 C58.0739093,102.91284 58.2122285,102.979694 58.2998321,103.035023 C58.3874356,103.090351 58.4658164,103.205617 58.5349771,103.380824 C58.6041378,103.556031 58.6548548,103.712793 58.6871298,103.851115 C58.7194047,103.989436 58.7447632,104.219968 58.7632061,104.542718 C58.7908703,105.022231 58.8047023,105.695385 58.8047023,106.562198 L58.8047023,110.241527 C58.1776457,110.241527 57.813405,110.206947 57.7119695,110.137786 C57.6105339,110.068626 57.5598168,109.826567 57.5598168,109.411603 L57.5598168,106.548366 C57.5598168,105.27581 57.5459848,104.565772 57.5183206,104.418229 C57.4722135,104.150808 57.3431155,103.989435 57.1310229,103.934107 C57.0572516,103.915664 56.9650387,103.901832 56.8543817,103.892611 L55.7754809,104.210748 L55.8999695,104.598046 L55.8999695,110.241527 Z M63.9778931,106.493038 C63.9778931,107.073988 63.9825038,107.48664 63.9917252,107.731008 C64.0009466,107.975375 64.0309158,108.233571 64.0816336,108.505603 C64.1323514,108.777635 64.2153429,108.955145 64.3306107,109.038137 C64.4458784,109.12113 64.5980296,109.162626 64.7870687,109.162626 C64.9761078,109.162626 65.1513122,109.146489 65.312687,109.114214 C65.4740619,109.081939 65.6515716,109.040443 65.8452214,108.989725 C66.0388712,108.939007 66.2002436,108.904428 66.3293435,108.885985 L66.3293435,109.964885 C66.2463507,109.983328 66.0296506,110.050183 65.6792366,110.16545 C65.3288227,110.280718 65.0406576,110.338351 64.8147328,110.338351 C64.588808,110.338351 64.3859399,110.322214 64.2061221,110.289939 C64.0263044,110.257664 63.864932,110.220779 63.722,110.179282 C63.579068,110.137786 63.456886,110.059405 63.3554504,109.944137 C63.2540148,109.82887 63.1687179,109.729741 63.0995573,109.646748 C63.0303966,109.563755 62.9727636,109.420825 62.9266565,109.217954 C62.8805494,109.015083 62.8459696,108.8491 62.822916,108.72 C62.7998625,108.5909 62.78142,108.376505 62.7675878,108.076809 C62.7537556,107.777113 62.7468397,107.539665 62.7468397,107.364458 L62.7468397,105.649282 C62.7468397,105.022226 62.7652822,104.609574 62.8021679,104.411313 C62.8390537,104.213052 62.8805494,104.01249 62.9266565,103.809618 C62.9727636,103.606747 63.0303966,103.466122 63.0995573,103.38774 C63.1687179,103.309358 63.2540148,103.21484 63.3554504,103.104183 C63.456886,102.993526 63.5813734,102.919756 63.728916,102.88287 C64.0885515,102.772213 64.452792,102.716885 64.8216489,102.716885 L66.3846718,103.048855 C66.3109004,103.574476 66.2371301,103.869557 66.1633588,103.934107 C66.0895874,103.998657 65.9835427,104.030931 65.8452214,104.030931 C65.7069001,104.030931 65.540917,104.017099 65.3472672,103.989435 L64.8216489,103.892611 C64.6095562,103.892611 64.4458784,103.929496 64.3306107,104.003267 C64.2153429,104.077039 64.1323514,104.245327 64.0816336,104.508137 C64.0309158,104.770948 64.0009466,105.022228 63.9917252,105.261985 C63.9825038,105.501742 63.9778931,105.912089 63.9778931,106.493038 Z M69.9810076,104.528885 L69.9948397,104.15542 C69.9948397,104.02632 69.9810077,103.95716 69.9533435,103.947939 C69.9256793,103.938718 69.8934048,103.91797 69.8565191,103.885695 C69.8196334,103.85342 69.7712217,103.846504 69.7112824,103.864947 C69.6513432,103.883389 69.5798783,103.888 69.4968855,103.878779 L68.7499542,103.975603 C68.5563044,104.003267 68.3903213,104.017099 68.252,104.017099 C68.1136787,104.017099 68.0076339,103.984825 67.9338626,103.920275 C67.8600913,103.855725 67.786321,103.560644 67.7125496,103.035023 L69.3170687,102.716885 C69.9717895,102.716885 70.3821366,102.765297 70.5481221,102.862122 C70.7141077,102.958947 70.8339844,103.039633 70.9077557,103.104183 C70.9815271,103.168733 71.0322442,103.297831 71.0599084,103.491481 C71.1060155,103.731238 71.1290687,104.10931 71.1290687,104.62571 L71.1290687,110.241527 C70.5942264,110.241527 70.2576495,110.213863 70.1193282,110.158534 C69.9810069,110.103206 69.9072366,109.969497 69.8980153,109.757405 L68.7499542,110.338351 C68.4917545,110.338351 68.3004128,110.336046 68.1759237,110.331435 C68.0514345,110.326824 67.9269471,110.287634 67.802458,110.213863 C67.6779689,110.140091 67.5949773,110.066321 67.5534809,109.99255 C67.5119845,109.918778 67.4727941,109.762016 67.4359084,109.52226 C67.3898013,109.236396 67.3667481,108.650844 67.3667481,107.765588 L67.3667481,106.811176 C67.3667481,105.769155 68.2750443,105.22971 70.0916641,105.192824 L69.9810076,104.860855 L69.9810076,104.528885 Z M68.6669618,109.162626 C68.6761832,109.162626 69.141858,108.987422 70.064,108.637008 L69.9256794,108.235878 L69.9256794,106.589863 L70.0363359,106.271725 C69.6582577,106.280947 69.3262915,106.317832 69.0404275,106.382382 C68.7545635,106.446932 68.6116336,106.534534 68.6116336,106.645191 L68.5978015,108.471023 C68.5978015,108.932094 68.6208547,109.162626 68.6669618,109.162626 Z M75.2095267,109.024305 C75.9472403,109.11652 76.5374024,109.162626 76.9800305,109.162626 C77.4226587,109.162626 77.68316,109.031223 77.761542,108.768412 C77.839924,108.505602 77.8791145,107.876249 77.8791145,106.880336 C77.8791145,105.884423 77.839924,105.264291 77.761542,105.019924 C77.68316,104.775556 77.4457119,104.653374 77.0491908,104.653374 L76.0671145,104.653374 L77.3396641,101.610321 L75.2233588,101.610321 L75.2233588,100.448427 L79.1654962,100.448427 L77.8791145,103.532977 C78.3217426,103.597527 78.6583195,103.768121 78.888855,104.044763 C79.0456191,104.229192 79.1378319,104.662592 79.1654962,105.344977 C79.1747176,105.575513 79.1793282,105.925921 79.1793282,106.396214 L79.1793282,106.880336 C79.1793282,108.374206 79.0801995,109.323998 78.8819389,109.72974 C78.6836784,110.135483 78.0958216,110.338351 77.1183511,110.338351 C76.7771586,110.338351 76.406002,110.303771 76.0048702,110.234611 C75.6037385,110.16545 75.3386266,110.121649 75.2095267,110.103206 L75.2095267,109.024305 Z M80.8945038,106.866504 C80.8852824,106.534533 80.8806718,105.967424 80.8806718,105.16516 C80.8806718,104.362897 80.8875877,103.770429 80.9014198,103.38774 C80.915252,103.005051 80.9567477,102.560125 81.0259084,102.052947 C81.095069,101.545768 81.2080297,101.19536 81.3647939,101.00171 C81.7705364,100.522196 82.3606984,100.282443 83.1352977,100.282443 C83.5041545,100.282443 83.8176781,100.317023 84.0758779,100.386183 C84.3340776,100.455344 84.5461671,100.602884 84.7121527,100.828809 C84.8781382,101.054734 85.0072362,101.264518 85.0994504,101.458168 C85.1916646,101.651818 85.2562135,101.988395 85.2930992,102.467908 C85.3484277,103.187179 85.3760916,104.051674 85.3760916,105.06142 C85.3760916,106.071165 85.3691757,106.769677 85.3553435,107.156977 C85.3415113,107.544277 85.3000156,107.99612 85.230855,108.512519 C85.1616943,109.028919 85.0487336,109.383938 84.8919695,109.577588 C84.4954484,110.084766 83.909897,110.338351 83.1352977,110.338351 C82.7664409,110.338351 82.450612,110.301466 82.1878015,110.227695 C81.9249911,110.153923 81.7105962,109.999467 81.5446107,109.764321 C81.3786251,109.529174 81.2495272,109.312474 81.157313,109.114214 C81.0650988,108.915953 81.0005498,108.574766 80.9636641,108.090641 C80.9267784,107.606517 80.9037252,107.198475 80.8945038,106.866504 Z M82.3192061,102.301924 C82.2177705,102.836766 82.1670534,103.65746 82.1670534,104.764031 C82.1670534,105.870601 82.1716641,106.594472 82.1808855,106.935664 C82.1901069,107.276857 82.2246867,107.652624 82.284626,108.062977 C82.3445652,108.47333 82.4413886,108.752274 82.5750992,108.899817 C82.7088099,109.047359 82.8955408,109.12113 83.1352977,109.12113 C83.5687045,109.12113 83.8361217,108.842186 83.9375573,108.28429 C84.0389928,107.726394 84.0897099,106.894173 84.0897099,105.787603 C84.0897099,104.681033 84.0850992,103.959467 84.0758779,103.622885 C84.0666565,103.286304 84.0320767,102.917452 83.9721374,102.516321 C83.9121981,102.115189 83.8153747,101.845466 83.6816641,101.707145 C83.5479535,101.568824 83.3658332,101.499664 83.1352977,101.499664 C82.6926696,101.499664 82.4206417,101.767081 82.3192061,102.301924 Z M93.2465344,110.241527 C92.6286992,110.241527 92.2690692,110.206947 92.1676336,110.137786 C92.066198,110.068626 92.0154809,109.826567 92.0154809,109.411603 L92.0016489,106.022748 L92.0016489,105.483298 C92.0016489,105.271205 92.0039542,105.109833 92.0085649,104.999176 C92.0131756,104.888519 92.0108702,104.761726 92.0016489,104.618794 C91.9924275,104.475862 91.9762902,104.369817 91.9532366,104.300656 C91.9301831,104.231496 91.900214,104.160031 91.8633282,104.08626 C91.7987783,103.95716 91.6604591,103.892611 91.4483664,103.892611 L90.217313,104.252244 L90.3418015,104.653374 L90.3418015,110.241527 C89.7239664,110.241527 89.3643363,110.206947 89.2629008,110.137786 C89.1614652,110.068626 89.1107481,109.826567 89.1107481,109.411603 L89.1107481,102.81371 C89.6179262,102.81371 89.9406711,102.827542 90.0789924,102.855206 C90.2173137,102.88287 90.3003052,102.965862 90.3279695,103.104183 L91.365374,102.716885 C91.7711166,102.716885 92.0800295,102.751465 92.2921221,102.820626 C92.5042148,102.889787 92.6932511,103.02119 92.8592366,103.21484 L94.1317863,102.716885 C94.6758501,102.716885 95.042396,102.756076 95.2314351,102.834458 C95.4204742,102.91284 95.5587934,102.979694 95.6463969,103.035023 C95.7340005,103.090351 95.8123813,103.205617 95.881542,103.380824 C95.9507026,103.556031 96.0014197,103.712793 96.0336947,103.851115 C96.0659696,103.989436 96.0913281,104.219968 96.109771,104.542718 C96.1374352,105.022231 96.1512672,105.695385 96.1512672,106.562198 L96.1512672,110.241527 C95.5242106,110.241527 95.1599699,110.206947 95.0585344,110.137786 C94.9570988,110.068626 94.9063817,109.826567 94.9063817,109.411603 L94.9063817,106.548366 C94.9063817,105.27581 94.8925497,104.565772 94.8648855,104.418229 C94.8187784,104.150808 94.6896804,103.989435 94.4775878,103.934107 C94.4038164,103.915664 94.3116036,103.901832 94.2009466,103.892611 L93.1220458,104.210748 L93.2465344,104.598046 L93.2465344,110.241527 Z M97.8526107,101.852382 C97.6866251,101.681785 97.6036336,101.483528 97.6036336,101.257603 C97.6036336,101.031678 97.6866251,100.840337 97.8526107,100.683573 C98.0185962,100.526808 98.2122431,100.448427 98.4335573,100.448427 C98.6548714,100.448427 98.8485183,100.526808 99.0145038,100.683573 C99.1804894,100.840337 99.2634809,101.031678 99.2634809,101.257603 C99.2634809,101.483528 99.1804894,101.681785 99.0145038,101.852382 C98.8485183,102.022978 98.6548714,102.108275 98.4335573,102.108275 C98.2122431,102.108275 98.0185962,102.022978 97.8526107,101.852382 Z M97.8249466,109.466931 L97.8249466,102.81371 C98.4427817,102.81371 98.8024118,102.84829 98.9038473,102.91745 C99.0052829,102.986611 99.056,103.22867 99.056,103.643634 L99.056,110.296855 C98.4381648,110.296855 98.0785348,110.262275 97.9770992,110.193115 C97.8756637,110.123954 97.8249466,109.881895 97.8249466,109.466931 Z M103.828061,106.548366 L103.841893,105.331145 C103.841893,104.962288 103.832672,104.68565 103.814229,104.501221 C103.777343,104.113922 103.560643,103.911054 103.164122,103.892611 L101.891573,104.266076 L102.016061,104.653374 L102.016061,110.241527 C101.398226,110.241527 101.038596,110.206947 100.93716,110.137786 C100.835725,110.068626 100.785008,109.826567 100.785008,109.411603 L100.785008,102.81371 C101.31985,102.81371 101.656427,102.827542 101.794748,102.855206 C101.933069,102.88287 102.00684,102.965862 102.016061,103.104183 L103.039634,102.716885 C103.60214,102.716885 103.970991,102.753771 104.146198,102.827542 C104.321406,102.901313 104.455114,102.965862 104.547328,103.021191 C104.639542,103.076519 104.722534,103.18948 104.796305,103.360076 C104.870077,103.530673 104.920794,103.687434 104.948458,103.830366 C104.976122,103.973298 105.003786,104.201525 105.03145,104.515053 C105.059115,104.966903 105.072947,105.649278 105.072947,106.562198 L105.072947,110.241527 C104.455111,110.241527 104.093176,110.206947 103.98713,110.137786 C103.881083,110.068626 103.828061,109.826567 103.828061,109.411603 L103.828061,106.548366 Z" id="om-ca-30-min" fill="#DCBC3F" fill-rule="nonzero" mask="url(#mask-6)"></path>
                    </g>
                    <g id="path-3-Clipped" transform="translate(4.000000, 4.000000)">
                        <mask id="mask-8" fill="white">
                            <use xlink:href="#path-7"></use>
                        </mask>
                        <g id="path-1"></g>
                        <path d="M75.5,151 C117.197498,151 151,117.197498 151,75.5 C151,33.8025014 117.197498,0 75.5,0 C33.8025014,0 0,33.8025014 0,75.5 C0,117.197498 33.8025014,151 75.5,151 Z" id="path-3" stroke="#2B3E16" stroke-width="31" stroke-linecap="round" stroke-linejoin="round" stroke-dasharray="247.0299987792969,620" mask="url(#mask-8)"></path>
                    </g>
                </g>
            </g>
        </g>
    </g>
</svg>