<?xml version="1.0" encoding="UTF-8"?>
<svg width="337px" height="76px" viewBox="0 0 337 76" version="1.1" xmlns="http://www.w3.org/2000/svg" xmlns:xlink="http://www.w3.org/1999/xlink">
    <!-- Generator: Sketch 51.3 (57544) - http://www.bohemiancoding.com/sketch -->
    <title>Group 10</title>
    <desc>Created with Sketch.</desc>
    <defs></defs>
    <g id="Page-1" stroke="none" stroke-width="1" fill="none" fill-rule="evenodd">
        <g id="Desktop-Copy-9" transform="translate(-361.000000, -1346.000000)" fill="#E8E8E8">
            <g id="Group-10" transform="translate(361.000000, 1346.000000)">
                <path d="M99.4399836,75.150838 C98.732345,75.150838 98.3785311,74.797024 98.3785311,74.0893855 L98.3785311,1.91061453 C98.3785311,1.20297598 98.732345,0.849162011 99.4399836,0.849162011 L114.406464,0.849162011 C119.430698,0.849162011 123.411105,2.56515975 126.347805,5.9972067 C129.284505,9.42925366 130.752833,14.1526701 130.752833,20.1675978 L130.752833,55.8324022 C130.752833,61.8473299 129.284505,66.5707463 126.347805,70.0027933 C123.411105,73.4348403 119.430698,75.150838 114.406464,75.150838 L99.4399836,75.150838 Z M102.518196,71.0111732 C102.518196,71.2942286 102.659721,71.4357542 102.942777,71.4357542 L114.512609,71.4357542 C118.19233,71.3649903 121.111295,69.9497345 123.269593,67.1899441 C125.42789,64.4301538 126.507023,60.6443444 126.507023,55.8324022 L126.507023,20.273743 C126.507023,15.391037 125.445581,11.5521555 123.322665,8.75698324 C121.19975,5.96181098 118.263094,4.56424581 114.512609,4.56424581 L102.942777,4.56424581 C102.659721,4.56424581 102.518196,4.7057714 102.518196,4.98882682 L102.518196,71.0111732 Z M177.562889,3.5027933 C177.562889,4.21043184 177.209075,4.56424581 176.501436,4.56424581 L150.920431,4.56424581 C150.637375,4.56424581 150.49585,4.7057714 150.49585,4.98882682 L150.49585,35.6648045 C150.49585,35.9478599 150.637375,36.0893855 150.920431,36.0893855 L167.69138,36.0893855 C168.399019,36.0893855 168.752833,36.4431994 168.752833,37.150838 L168.752833,38.7430168 C168.752833,39.4506553 168.399019,39.8044693 167.69138,39.8044693 L150.920431,39.8044693 C150.637375,39.8044693 150.49585,39.9459949 150.49585,40.2290503 L150.49585,71.0111732 C150.49585,71.2942286 150.637375,71.4357542 150.920431,71.4357542 L176.501436,71.4357542 C177.209075,71.4357542 177.562889,71.7895682 177.562889,72.4972067 L177.562889,74.0893855 C177.562889,74.797024 177.209075,75.150838 176.501436,75.150838 L147.417637,75.150838 C146.709999,75.150838 146.356185,74.797024 146.356185,74.0893855 L146.356185,1.91061453 C146.356185,1.20297598 146.709999,0.849162011 147.417637,0.849162011 L176.501436,0.849162011 C177.209075,0.849162011 177.562889,1.20297598 177.562889,1.91061453 L177.562889,3.5027933 Z M203.886911,76 C199.004205,76 195.059179,74.301693 192.051715,70.9050279 C189.044252,67.5083629 187.540542,63.0503069 187.540542,57.5307263 L187.540542,55.5139665 C187.540542,54.8063279 187.894356,54.452514 188.601995,54.452514 L190.512609,54.452514 C191.220248,54.452514 191.574062,54.8063279 191.574062,55.5139665 L191.574062,57.424581 C191.574062,61.8827039 192.706266,65.4916063 194.97071,68.2513966 C197.235153,71.011187 200.171809,72.3910615 203.780766,72.3910615 C207.318958,72.3910615 210.273305,71.0642591 212.643894,68.4106145 C215.014483,65.75697 216.19976,62.2719024 216.19976,57.9553073 C216.19976,55.1247531 215.651348,52.7011274 214.554509,50.6843575 C213.457669,48.6675877 212.060104,46.9162085 210.361771,45.4301676 C208.663439,43.9441266 206.009834,41.8566242 202.400877,39.1675978 C198.791921,36.4785713 196.014481,34.2141619 194.068475,32.3743017 C192.122469,30.5344415 190.547997,28.3761763 189.345012,25.8994413 C188.142026,23.4227064 187.540542,20.4860505 187.540542,17.0893855 C187.540542,11.7820964 188.99118,7.60709156 191.892498,4.56424581 C194.793816,1.52140006 198.579625,0 203.250039,0 C208.203509,0 212.183916,1.71599774 215.19138,5.14804469 C218.198844,8.58009165 219.702553,13.0912197 219.702553,18.6815642 L219.702553,21.3351955 C219.702553,22.0428341 219.348739,22.396648 218.641101,22.396648 L216.624341,22.396648 C215.916703,22.396648 215.562889,22.0428341 215.562889,21.3351955 L215.562889,18.6815642 C215.562889,14.1526775 214.430684,10.5083937 212.166241,7.74860335 C209.901797,4.98881302 206.92976,3.60893855 203.250039,3.60893855 C199.853374,3.60893855 197.058244,4.81190603 194.864565,7.21787709 C192.670885,9.62384816 191.574062,12.9850808 191.574062,17.301676 C191.574062,19.8491747 192.03402,22.060512 192.95395,23.9357542 C193.87388,25.8109963 195.200683,27.5623755 196.934397,29.1899441 C198.668111,30.8175128 201.268644,32.9050152 204.736073,35.452514 C208.91114,38.5661236 212.007013,41.060512 214.023782,42.9357542 C216.040552,44.8109963 217.597334,46.8631173 218.694174,49.0921788 C219.791013,51.3212402 220.339425,54.027917 220.339425,57.2122905 C220.339425,62.8733989 218.800334,67.4199084 215.722106,70.8519553 C212.643879,74.2840023 208.698853,76 203.886911,76 Z M235.412051,75.150838 C234.704412,75.150838 234.350598,74.797024 234.350598,74.0893855 L234.350598,1.91061453 C234.350598,1.20297598 234.704412,0.849162011 235.412051,0.849162011 L237.42881,0.849162011 C238.136449,0.849162011 238.490263,1.20297598 238.490263,1.91061453 L238.490263,74.0893855 C238.490263,74.797024 238.136449,75.150838 237.42881,75.150838 L235.412051,75.150838 Z M270.97071,76 C266.01724,76 262.019142,74.4785999 258.976296,71.4357542 C255.933451,68.3929084 254.412051,64.3594292 254.412051,59.3351955 L254.412051,16.6648045 C254.412051,11.6405708 255.933451,7.60709156 258.976296,4.56424581 C262.019142,1.52140006 266.01724,0 270.97071,0 C275.994944,0 280.028423,1.52140006 283.071269,4.56424581 C286.114114,7.60709156 287.635514,11.6405708 287.635514,16.6648045 L287.635514,21.547486 C287.635514,22.2551246 287.2817,22.6089385 286.574062,22.6089385 L284.557302,22.6089385 C283.849663,22.6089385 283.49585,22.2551246 283.49585,21.547486 L283.49585,16.5586592 C283.49585,12.7374111 282.345954,9.64153885 280.046129,7.27094972 C277.746304,4.90036059 274.721194,3.7150838 270.97071,3.7150838 C267.290989,3.7150838 264.301261,4.90036059 262.001436,7.27094972 C259.701611,9.64153885 258.551715,12.7374111 258.551715,16.5586592 L258.551715,59.4413408 C258.551715,63.2625889 259.701611,66.3584611 262.001436,68.7290503 C264.301261,71.0996394 267.290989,72.2849162 270.97071,72.2849162 C274.721194,72.2849162 277.746304,71.0996394 280.046129,68.7290503 C282.345954,66.3584611 283.49585,63.2625889 283.49585,59.4413408 L283.49585,43.3072626 C283.49585,43.0242072 283.354324,42.8826816 283.071269,42.8826816 L272.456743,42.8826816 C271.749105,42.8826816 271.395291,42.5288676 271.395291,41.8212291 L271.395291,40.2290503 C271.395291,39.5214117 271.749105,39.1675978 272.456743,39.1675978 L286.574062,39.1675978 C287.2817,39.1675978 287.635514,39.5214117 287.635514,40.2290503 L287.635514,59.3351955 C287.635514,64.3594292 286.114114,68.3929084 283.071269,71.4357542 C280.028423,74.4785999 275.994944,76 270.97071,76 Z M332.853391,1.91061453 C332.853391,1.20297598 333.207205,0.849162011 333.914844,0.849162011 L335.931604,0.849162011 C336.639242,0.849162011 336.993056,1.20297598 336.993056,1.91061453 L336.993056,74.0893855 C336.993056,74.797024 336.639242,75.150838 335.931604,75.150838 L333.384118,75.150838 C332.818007,75.150838 332.428811,74.8677868 332.21652,74.301676 L308.121548,11.4636872 C308.050784,11.2513956 307.94464,11.1629421 307.803112,11.198324 C307.661584,11.2337059 307.590822,11.3575408 307.590822,11.5698324 L307.590822,74.0893855 C307.590822,74.797024 307.237008,75.150838 306.529369,75.150838 L304.512609,75.150838 C303.804971,75.150838 303.451157,74.797024 303.451157,74.0893855 L303.451157,1.91061453 C303.451157,1.20297598 303.804971,0.849162011 304.512609,0.849162011 L306.95395,0.849162011 C307.520061,0.849162011 307.909256,1.13221318 308.121548,1.69832402 L332.322665,64.2178771 C332.393429,64.4301687 332.499573,64.5186222 332.641101,64.4832402 C332.782629,64.4478583 332.853391,64.3240234 332.853391,64.1117318 L332.853391,1.91061453 Z" id="DESIGN"></path>
                <path d="M19.1737288,76 C13.3827394,76 8.73942426,74.0755842 5.24364407,70.2266949 C1.74786388,66.3778056 0,61.3107659 0,55.0254237 L0,2.05932203 C0,1.35310381 0.353103814,1 1.05932203,1 L9.11016949,1 C9.81638771,1 10.1694915,1.35310381 10.1694915,2.05932203 L10.1694915,56.0847458 C10.1694915,59.4039714 10.9992855,62.0875604 12.6588983,64.1355932 C14.3185111,66.1836261 16.4900996,67.2076271 19.1737288,67.2076271 C21.9279799,67.2076271 24.1348787,66.1836261 25.7944915,64.1355932 C27.4541043,62.0875604 28.2838983,59.4039714 28.2838983,56.0847458 L28.2838983,2.05932203 C28.2838983,1.35310381 28.6370021,1 29.3432203,1 L37.3940678,1 C38.100286,1 38.4533898,1.35310381 38.4533898,2.05932203 L38.4533898,55.0254237 C38.4533898,61.3107659 36.6878708,66.3778056 33.1567797,70.2266949 C29.6256886,74.0755842 24.9647182,76 19.1737288,76 Z M48.940678,75.1525424 C48.5875689,75.1525424 48.322741,75.028956 48.1461864,74.7817797 C47.9696319,74.5346033 47.9519767,74.234465 48.0932203,73.8813559 L62.8177966,38.3940678 C62.9590403,38.1822023 62.9590403,37.97034 62.8177966,37.7584746 L48.0932203,2.27118644 L47.9872881,1.84745763 C47.9872881,1.28248305 48.3050816,1 48.940678,1 L57.2033898,1 C57.7683644,1 58.1567786,1.28248305 58.3686441,1.84745763 L68.0084746,27.3771186 C68.0790964,27.5889841 68.1850275,27.6949153 68.3262712,27.6949153 C68.4675148,27.6949153 68.573446,27.5889841 68.6440678,27.3771186 L78.1779661,1.84745763 C78.3898316,1.28248305 78.7782458,1 79.3432203,1 L87.6059322,1 C87.9590413,1 88.2238692,1.12358633 88.4004237,1.37076271 C88.5769783,1.61793909 88.5946335,1.91807733 88.4533898,2.27118644 L73.7288136,37.8644068 C73.6581917,38.0762722 73.6581917,38.2881345 73.7288136,38.5 L88.4533898,73.8813559 L88.559322,74.3050847 C88.559322,74.8700593 88.2415286,75.1525424 87.6059322,75.1525424 L79.4491525,75.1525424 C78.884178,75.1525424 78.4957638,74.8700593 78.2838983,74.3050847 L68.6440678,48.8813559 C68.573446,48.6694905 68.4675148,48.5635593 68.3262712,48.5635593 C68.1850275,48.5635593 68.0790964,48.6694905 68.0084746,48.8813559 L58.3686441,74.3050847 C58.1567786,74.8700593 57.7683644,75.1525424 57.2033898,75.1525424 L48.940678,75.1525424 Z" id="UX"></path>
            </g>
        </g>
    </g>
</svg>