<?xml version="1.0" encoding="UTF-8"?>
<svg width="1022px" height="283px" viewBox="0 0 1022 283" version="1.1" xmlns="http://www.w3.org/2000/svg" xmlns:xlink="http://www.w3.org/1999/xlink">
    <!-- Generator: Sketch 50.2 (55047) - http://www.bohemiancoding.com/sketch -->
    <title>Group 7</title>
    <desc>Created with Sketch.</desc>
    <defs></defs>
    <g id="Page-1" stroke="none" stroke-width="1" fill="none" fill-rule="evenodd">
        <g id="Group-7">
            <rect id="Rectangle-8" fill="#DCBC3F" x="311" y="0" width="711" height="283"></rect>
            <path d="M373.322806,230.125248 C368.332237,225.434465 365.030833,219.205814 363.418495,211.439109 C361.806157,203.672403 361,193.714252 361,181.564356 L361.460666,105.435644 C361.460666,93.439544 364.493351,83.6351866 370.558812,76.0222772 C376.624274,68.4093679 385.184892,64.6029703 396.240923,64.6029703 C407.143398,64.6029703 415.281743,68.2171256 420.656203,75.4455446 L420.656203,35.9970297 L460.964448,35.9970297 L460.964448,235.315842 L420.656203,235.315842 L420.656203,217.321782 C418.352863,223.935017 415.243401,228.894868 411.327723,232.201485 C407.412045,235.508102 402.152832,237.161386 395.549924,237.161386 C385.722341,237.161386 378.313376,234.81603 373.322806,230.125248 Z M418.81354,199.673762 C420.041988,195.751961 420.656203,190.484522 420.656203,183.871287 L420.656203,113.279208 C420.656203,108.357731 419.965211,104.205297 418.583207,100.821782 C417.201203,97.4382669 414.744344,95.7465347 411.212557,95.7465347 C407.220101,95.7465347 404.5713,97.3229215 403.266074,100.475743 C401.960848,103.628564 401.308245,107.896343 401.308245,113.279208 L401.308245,184.332673 C401.308245,198.481919 404.532872,205.556436 410.982224,205.556436 C414.97468,205.556436 417.585092,203.595564 418.81354,199.673762 Z M486.992057,222.858416 C479.467814,213.323055 475.705749,199.097124 475.705749,180.180198 L475.705749,112.356436 C475.705749,96.8230246 480.158806,84.9808988 489.065053,76.829703 C497.9713,68.6785071 510.409149,64.6029703 526.378971,64.6029703 C558.779285,64.6029703 574.979198,80.5206329 574.979198,112.356436 L574.979198,124.583168 C574.979198,136.88686 574.825645,146.88346 574.518533,154.573267 L516.013994,154.573267 L516.013994,187.331683 C516.013994,193.175937 516.628209,197.751304 517.856657,201.057921 C519.085104,204.364538 521.695517,206.017822 525.687973,206.017822 C528.759093,206.017822 530.947233,205.095059 532.252458,203.249505 C533.557684,201.403951 534.325453,199.289286 534.555787,196.905446 C534.786121,194.521605 534.901286,191.022795 534.901286,186.408911 L534.901286,170.029703 L574.979198,170.029703 L574.979198,179.718812 C574.979198,199.404719 571.178745,213.899788 563.577723,223.204455 C555.976702,232.509122 542.88625,237.161386 524.305976,237.161386 C506.954149,237.161386 494.516301,232.393777 486.992057,222.858416 Z M534.901286,134.50297 L534.901286,112.817822 C534.901286,100.667926 531.906989,94.5930693 525.918306,94.5930693 C519.161842,94.5930693 515.783661,100.667926 515.783661,112.817822 L515.783661,134.50297 L534.901286,134.50297 Z M585.804841,186.408911 L586.035174,173.028713 L626.343419,173.028713 L626.573752,192.868317 C626.573752,196.867017 627.34152,199.904445 628.87708,201.980693 C630.41264,204.056941 632.946276,205.09505 636.478064,205.09505 C641.852523,205.09505 644.539713,200.711925 644.539713,191.945545 C644.539713,185.486106 643.272895,180.41091 640.739221,176.719802 C638.205547,173.028694 634.174763,169.106951 628.646747,164.954455 L607.225794,148.344554 C599.855107,142.654097 594.557505,136.771483 591.332829,130.696535 C588.108153,124.621587 586.49584,116.04758 586.49584,104.974257 C586.49584,96.3616731 588.760756,89.0180172 593.290658,82.9430693 C597.82056,76.8681214 603.847542,72.2927547 611.371785,69.2168317 C618.896029,66.1409087 627.264704,64.6029703 636.478064,64.6029703 C669.185489,64.6029703 685.538956,80.9051175 685.538956,113.509901 L685.538956,116.739604 L643.848714,116.739604 L643.848714,110.280198 C643.848714,106.281498 643.196111,102.859585 641.890885,100.014356 C640.585659,97.1691277 638.397519,95.7465347 635.326399,95.7465347 C632.562392,95.7465347 630.451028,96.5539523 628.992247,98.1688119 C627.533465,99.7836714 626.804085,101.975234 626.804085,104.743564 C626.804085,110.89541 629.184167,115.663019 633.944402,119.046535 L658.820348,137.271287 C667.726595,143.884522 674.559734,151.074384 679.31997,158.841089 C684.080205,166.607795 686.460287,176.412152 686.460287,188.254455 C686.460287,203.941663 682.007231,216.014479 673.100983,224.473267 C664.194736,232.932055 651.756888,237.161386 635.787065,237.161386 C602.465416,237.161386 585.804841,220.244064 585.804841,186.408911 Z M698.667927,55.1445545 L698.667927,27 L738.976172,27 L738.976172,55.1445545 L698.667927,55.1445545 Z M698.667927,235.315842 L698.667927,66.4485149 L738.976172,66.4485149 L738.976172,235.315842 L698.667927,235.315842 Z M772.028933,257.116337 C765.195692,255.193885 758.477718,251.541281 751.874811,246.158416 L765.694781,222.858416 C775.522364,228.702669 785.273023,231.624752 794.94705,231.624752 C801.242845,231.624752 806.00301,229.625433 809.227685,225.626733 C812.452361,221.628033 814.064675,216.168351 814.064675,209.247525 L814.064675,200.019802 C810.839999,211.554513 802.31777,217.321782 788.497731,217.321782 C776.981032,217.321782 768.497191,213.400039 763.045953,205.556436 C757.594716,197.712832 754.869138,187.254851 754.869138,174.182178 L754.869138,110.741584 C754.869138,95.8233578 757.364385,84.404165 762.354955,76.4836634 C767.345524,68.5631617 776.059696,64.6029703 788.497731,64.6029703 C795.714862,64.6029703 801.434737,66.4100479 805.657526,70.0242574 C809.880316,73.6384669 812.682671,78.7521121 814.064675,85.3653465 L814.064675,66.4485149 L855.294251,66.4485149 L855.294251,206.709901 C855.294251,225.626827 850.917971,239.237582 842.16528,247.542574 C833.412589,255.847566 819.439203,260 800.244705,260 C788.267338,260 778.862175,259.038788 772.028933,257.116337 Z M814.064675,169.79901 L814.064675,109.588119 C814.064675,106.204604 813.143353,102.974933 811.300681,99.8990099 C809.458009,96.8230869 807.154704,95.2851485 804.390696,95.2851485 C800.858908,95.2851485 798.478826,96.5539477 797.250378,99.0915842 C796.02193,101.629221 795.407716,105.128031 795.407716,109.588119 L795.407716,169.79901 C795.407716,174.874283 796.02193,178.988268 797.250378,182.141089 C798.478826,185.29391 800.935685,186.870297 804.621029,186.870297 C810.916824,186.870297 814.064675,181.179925 814.064675,169.79901 Z M870.956884,66.4485149 L911.265129,66.4485149 L911.265129,87.9029703 C912.954244,80.9821436 915.871764,75.3686684 920.017776,71.0623762 C924.163788,66.7560841 929.69172,64.6029703 936.60174,64.6029703 C947.964883,64.6029703 956.371947,68.1017802 961.823185,75.099505 C967.274422,82.0972297 970,92.055381 970,104.974257 L970,235.315842 L930.382753,235.315842 L930.382753,109.126733 C930.382753,105.435625 929.653373,102.282851 928.194592,99.6683168 C926.73581,97.0537823 924.470893,95.7465347 921.399773,95.7465347 C917.253761,95.7465347 914.528184,97.6305092 913.222958,101.398515 C911.917732,105.16652 911.265129,110.203269 911.265129,116.508911 L911.265129,235.315842 L870.956884,235.315842 L870.956884,66.4485149 Z" id="design" fill="#FFFFFF"></path>
            <path d="M16.3863636,257.83045 C5.46206659,245.050686 0,226.09432 0,200.960784 L0,0 L53.1363636,0 L53.1363636,198.724337 C53.1363636,207.457176 53.98484,214.272947 55.6818182,219.171857 C57.3787964,224.070767 60.9848209,226.520185 66.5,226.520185 C72.0151791,226.520185 75.6212036,224.124015 77.3181818,219.331603 C79.01516,214.539192 79.8636364,207.670172 79.8636364,198.724337 L79.8636364,0 L133,0 L133,200.960784 C133,226.09432 127.537933,245.050686 116.613636,257.83045 C105.689339,270.610214 88.9849609,277 66.5,277 C44.0150391,277 27.3106607,270.610214 16.3863636,257.83045 Z M147,275 L176.126638,129.186047 L153.015284,0 L206.203057,0 L220.449782,94.6511628 L232.796943,0 L286.30131,0 L262.873362,129.186047 L292,275 L236.912664,275 L219.816594,167.55814 L202.40393,275 L147,275 Z" id="UX" fill="#DCBC3F"></path>
        </g>
    </g>
</svg>