<?xml version="1.0" encoding="UTF-8"?>
<svg width="260px" height="68px" viewBox="0 0 260 68" version="1.1" xmlns="http://www.w3.org/2000/svg" xmlns:xlink="http://www.w3.org/1999/xlink">
    <!-- Generator: Sketch 51.3 (57544) - http://www.bohemiancoding.com/sketch -->
    <title>Group 2</title>
    <desc>Created with Sketch.</desc>
    <defs></defs>
    <g id="Page-1" stroke="none" stroke-width="1" fill="none" fill-rule="evenodd">
        <g id="Desktop-Copy-7" transform="translate(-216.000000, -94.000000)">
            <g id="Group-2" transform="translate(216.000000, 94.000000)">
                <path d="M64.9079792,0.621714286 L83.4027028,0.621714286 C88.1889843,0.621714286 91.7786416,1.94284393 94.1717823,4.58514286 C96.5649231,7.22744178 97.7874875,11.1390217 97.8395123,16.32 L97.9955859,47.5611429 C98.0476107,54.1409853 96.9030823,59.0887453 94.5619664,62.4045714 C92.2208504,65.7203975 88.345061,67.3782857 82.9344819,67.3782857 L64.9079792,67.3782857 L64.9079792,0.621714286 Z M80.7494513,55.5657143 C83.1946168,55.5657143 84.4171813,54.3741072 84.4171813,51.9908571 L84.4171813,17.5634286 C84.4171813,16.0609449 84.3001272,14.934099 84.0660156,14.1828571 C83.831904,13.4316153 83.4027059,12.9264775 82.7784083,12.6674286 C82.1541107,12.4083797 81.1916664,12.2788571 79.8910464,12.2788571 L78.408347,12.2788571 L78.408347,55.5657143 L80.7494513,55.5657143 Z M103.380126,67.3782857 L103.380126,0.621714286 L130.224788,0.621714286 L130.224788,13.5222857 L117.036567,13.5222857 L117.036567,26.5005714 L129.67853,26.5005714 L129.67853,39.0902857 L117.036567,39.0902857 L117.036567,54.4 L131.083193,54.4 L131.083193,67.3782857 L103.380126,67.3782857 Z M138.262579,63.4925714 C135.557289,60.487604 134.204665,55.643462 134.204665,48.96 L134.204665,42.432 L147.392886,42.432 L147.392886,50.7474286 C147.392886,54.0632547 148.459378,55.7211429 150.592395,55.7211429 C151.788965,55.7211429 152.621349,55.3714321 153.089573,54.672 C153.557796,53.9725679 153.791904,52.7939131 153.791904,51.136 C153.791904,48.9599891 153.531784,47.1596262 153.011536,45.7348571 C152.491288,44.3100881 151.827982,43.118481 151.021597,42.16 C150.215213,41.201519 148.771546,39.7120101 146.690554,37.6914286 L140.915831,31.9405714 C136.441698,27.5885497 134.204665,22.7703121 134.204665,17.4857143 C134.204665,11.7866382 135.518271,7.44763394 138.145524,4.46857143 C140.772776,1.48950891 144.609548,0 149.655953,0 C155.69083,0 160.034835,1.59312693 162.6881,4.77942857 C165.341365,7.96573022 166.667977,12.952347 166.667977,19.7394286 L153.011536,19.7394286 L152.933499,15.1542857 C152.933499,14.2735194 152.686385,13.5740978 152.192149,13.056 C151.697914,12.5379022 151.008595,12.2788571 150.124174,12.2788571 C149.083678,12.2788571 148.303318,12.5638067 147.78307,13.1337143 C147.262822,13.7036219 147.002702,14.480757 147.002702,15.4651429 C147.002702,17.6411537 148.251278,19.8948455 150.748468,22.2262857 L158.552149,29.6868571 C160.373017,31.4483898 161.881714,33.1192302 163.078284,34.6994286 C164.274854,36.2796269 165.237299,38.1447512 165.965646,40.2948571 C166.693993,42.4449631 167.058161,44.9965567 167.058161,47.9497143 C167.058161,54.5295567 165.848603,59.5161735 163.42945,62.9097143 C161.010297,66.3032551 157.017453,68 151.4508,68 C145.363898,68 140.967869,66.4975388 138.262579,63.4925714 Z M170.881965,67.3782857 L170.881965,0.621714286 L183.836075,0.621714286 L183.836075,67.3782857 L170.881965,67.3782857 Z M192.225032,62.9097143 C189.857904,59.5161735 188.674357,54.3741297 188.674357,47.4834286 L188.674357,18.7291429 C188.674357,12.5637787 190.052994,7.90096818 192.810308,4.74057143 C195.567622,1.58017467 199.67752,0 205.140124,0 C209.562232,0 212.995817,0.880753097 215.440982,2.64228571 C217.886148,4.40381833 219.576929,6.96836411 220.513375,10.336 C221.449821,13.7036359 221.918038,18.0296879 221.918038,23.3142857 L208.807854,23.3142857 L208.807854,17.3302857 C208.807854,15.7241824 208.586752,14.4807663 208.144541,13.6 C207.70233,12.7192337 206.908964,12.2788571 205.764418,12.2788571 C203.215203,12.2788571 201.940615,13.9367453 201.940615,17.2525714 L201.940615,49.5817143 C201.940615,51.6022958 202.200735,53.1306615 202.720983,54.1668571 C203.241231,55.2030528 204.151651,55.7211429 205.452271,55.7211429 C206.752891,55.7211429 207.663311,55.2030528 208.183559,54.1668571 C208.703807,53.1306615 208.963927,51.6022958 208.963927,49.5817143 L208.963927,40.0228571 L205.374234,40.0228571 L205.374234,28.5211429 L221.761964,28.5211429 L221.761964,67.3782857 L216.377424,67.3782857 L214.114357,61.7828571 C211.721216,65.9276398 208.027511,68 203.03313,68 C198.194824,68 194.59216,66.3032551 192.225032,62.9097143 Z M227.068467,67.3782857 L227.068467,0.621714286 L240.880982,0.621714286 L247.04589,32.5622857 L247.04589,0.621714286 L260,0.621714286 L260,67.3782857 L246.889816,67.3782857 L240.178651,33.9611429 L240.178651,67.3782857 L227.068467,67.3782857 Z M0,0.621714286 L64.9079792,0.621714286 L64.9079792,67.3782857 L0,67.3782857 L0,0.621714286 Z" id="Combined-Shape" fill="#2B3E16"></path>
                <path d="M64.9079792,0.621714286 L83.4027028,0.621714286 C88.1889843,0.621714286 91.7786416,1.94284393 94.1717823,4.58514286 C96.5649231,7.22744178 97.7874875,11.1390217 97.8395123,16.32 L97.9955859,47.5611429 C98.0476107,54.1409853 96.9030823,59.0887453 94.5619664,62.4045714 C92.2208504,65.7203975 88.345061,67.3782857 82.9344819,67.3782857 L64.9079792,67.3782857 L64.9079792,0.621714286 Z M80.7494513,55.5657143 C83.1946168,55.5657143 84.4171813,54.3741072 84.4171813,51.9908571 L84.4171813,17.5634286 C84.4171813,16.0609449 84.3001272,14.934099 84.0660156,14.1828571 C83.831904,13.4316153 83.4027059,12.9264775 82.7784083,12.6674286 C82.1541107,12.4083797 81.1916664,12.2788571 79.8910464,12.2788571 L78.408347,12.2788571 L78.408347,55.5657143 L80.7494513,55.5657143 Z M103.380126,67.3782857 L103.380126,0.621714286 L130.224788,0.621714286 L130.224788,13.5222857 L117.036567,13.5222857 L117.036567,26.5005714 L129.67853,26.5005714 L129.67853,39.0902857 L117.036567,39.0902857 L117.036567,54.4 L131.083193,54.4 L131.083193,67.3782857 L103.380126,67.3782857 Z M138.262579,63.4925714 C135.557289,60.487604 134.204665,55.643462 134.204665,48.96 L134.204665,42.432 L147.392886,42.432 L147.392886,50.7474286 C147.392886,54.0632547 148.459378,55.7211429 150.592395,55.7211429 C151.788965,55.7211429 152.621349,55.3714321 153.089573,54.672 C153.557796,53.9725679 153.791904,52.7939131 153.791904,51.136 C153.791904,48.9599891 153.531784,47.1596262 153.011536,45.7348571 C152.491288,44.3100881 151.827982,43.118481 151.021597,42.16 C150.215213,41.201519 148.771546,39.7120101 146.690554,37.6914286 L140.915831,31.9405714 C136.441698,27.5885497 134.204665,22.7703121 134.204665,17.4857143 C134.204665,11.7866382 135.518271,7.44763394 138.145524,4.46857143 C140.772776,1.48950891 144.609548,0 149.655953,0 C155.69083,0 160.034835,1.59312693 162.6881,4.77942857 C165.341365,7.96573022 166.667977,12.952347 166.667977,19.7394286 L153.011536,19.7394286 L152.933499,15.1542857 C152.933499,14.2735194 152.686385,13.5740978 152.192149,13.056 C151.697914,12.5379022 151.008595,12.2788571 150.124174,12.2788571 C149.083678,12.2788571 148.303318,12.5638067 147.78307,13.1337143 C147.262822,13.7036219 147.002702,14.480757 147.002702,15.4651429 C147.002702,17.6411537 148.251278,19.8948455 150.748468,22.2262857 L158.552149,29.6868571 C160.373017,31.4483898 161.881714,33.1192302 163.078284,34.6994286 C164.274854,36.2796269 165.237299,38.1447512 165.965646,40.2948571 C166.693993,42.4449631 167.058161,44.9965567 167.058161,47.9497143 C167.058161,54.5295567 165.848603,59.5161735 163.42945,62.9097143 C161.010297,66.3032551 157.017453,68 151.4508,68 C145.363898,68 140.967869,66.4975388 138.262579,63.4925714 Z M170.881965,67.3782857 L170.881965,0.621714286 L183.836075,0.621714286 L183.836075,67.3782857 L170.881965,67.3782857 Z M192.225032,62.9097143 C189.857904,59.5161735 188.674357,54.3741297 188.674357,47.4834286 L188.674357,18.7291429 C188.674357,12.5637787 190.052994,7.90096818 192.810308,4.74057143 C195.567622,1.58017467 199.67752,0 205.140124,0 C209.562232,0 212.995817,0.880753097 215.440982,2.64228571 C217.886148,4.40381833 219.576929,6.96836411 220.513375,10.336 C221.449821,13.7036359 221.918038,18.0296879 221.918038,23.3142857 L208.807854,23.3142857 L208.807854,17.3302857 C208.807854,15.7241824 208.586752,14.4807663 208.144541,13.6 C207.70233,12.7192337 206.908964,12.2788571 205.764418,12.2788571 C203.215203,12.2788571 201.940615,13.9367453 201.940615,17.2525714 L201.940615,49.5817143 C201.940615,51.6022958 202.200735,53.1306615 202.720983,54.1668571 C203.241231,55.2030528 204.151651,55.7211429 205.452271,55.7211429 C206.752891,55.7211429 207.663311,55.2030528 208.183559,54.1668571 C208.703807,53.1306615 208.963927,51.6022958 208.963927,49.5817143 L208.963927,40.0228571 L205.374234,40.0228571 L205.374234,28.5211429 L221.761964,28.5211429 L221.761964,67.3782857 L216.377424,67.3782857 L214.114357,61.7828571 C211.721216,65.9276398 208.027511,68 203.03313,68 C198.194824,68 194.59216,66.3032551 192.225032,62.9097143 Z M227.068467,67.3782857 L227.068467,0.621714286 L240.880982,0.621714286 L247.04589,32.5622857 L247.04589,0.621714286 L260,0.621714286 L260,67.3782857 L246.889816,67.3782857 L240.178651,33.9611429 L240.178651,67.3782857 L227.068467,67.3782857 Z M0,0.621714286 L64.9079792,0.621714286 L64.9079792,67.3782857 L0,67.3782857 L0,0.621714286 Z" id="Combined-Shape" fill="#DCBC3F"></path>
                <path d="M8.42584515,58.9907834 C6.14193696,56.317959 5,52.3533289 5,47.0967742 L5,5.06682028 L16.1090513,5.06682028 L16.1090513,46.6290323 C16.1090513,48.4554623 16.2864395,49.8809473 16.6412214,50.90553 C16.9960032,51.9301126 17.7499034,52.4423963 18.9029444,52.4423963 C20.0559854,52.4423963 20.8098855,51.9412493 21.1646674,50.9389401 C21.5194492,49.9366309 21.6968375,48.5000094 21.6968375,46.6290323 L21.6968375,5.06682028 L32.8058888,5.06682028 L32.8058888,47.0967742 C32.8058888,52.3533289 31.6639518,56.317959 29.3800436,58.9907834 C27.0961354,61.6636078 23.6038039,63 18.9029444,63 C14.2020848,63 10.7097533,61.6636078 8.42584515,58.9907834 Z M35.5332606,62.4654378 L41.653217,31.9953917 L36.7971647,5 L47.9727372,5 L50.9661941,24.7788018 L53.5605234,5 L64.8026172,5 L59.8800436,31.9953917 L66,62.4654378 L54.4252999,62.4654378 L50.8331516,40.0138249 L47.174482,62.4654378 L35.5332606,62.4654378 Z" id="UX" fill="#FFFFFF"></path>
            </g>
        </g>
    </g>
</svg>