<?xml version="1.0" encoding="UTF-8"?>
<svg width="998px" height="262px" viewBox="0 0 998 262" version="1.1" xmlns="http://www.w3.org/2000/svg" xmlns:xlink="http://www.w3.org/1999/xlink">
    <!-- Generator: Sketch 50.2 (55047) - http://www.bohemiancoding.com/sketch -->
    <title>Group 24</title>
    <desc>Created with Sketch.</desc>
    <defs></defs>
    <g id="Page-1" stroke="none" stroke-width="1" fill="none" fill-rule="evenodd">
        <g id="Group-24">
            <path d="M249,2.39491853 L319.949461,2.39491853 C338.310595,2.39491853 352.081239,7.48406952 361.261806,17.6625242 C370.442373,27.8409788 375.132375,42.9088572 375.331952,62.8666114 L375.930682,183.211268 C376.13026,208.557615 371.73962,227.616985 362.75863,240.389948 C353.777641,253.16291 338.909337,259.549296 318.153273,259.549296 L249,259.549296 L249,2.39491853 Z M309.771058,214.045844 C319.151202,214.045844 323.841204,209.455629 323.841204,200.275062 L323.841204,67.6564485 C323.841204,61.8686998 323.392161,57.5279533 322.494062,54.634079 C321.595963,51.7402046 319.949473,49.7943528 317.554543,48.7964651 C315.159612,47.7985774 311.467483,47.299641 306.478045,47.299641 L300.790113,47.299641 L300.790113,214.045844 L309.771058,214.045844 Z M396.586854,259.549296 L396.586854,2.39491853 L499.568351,2.39491853 L499.568351,52.089478 L448.975697,52.089478 L448.975697,102.083402 L497.472798,102.083402 L497.472798,150.580503 L448.975697,150.580503 L448.975697,209.555371 L502.861364,209.555371 L502.861364,259.549296 L396.586854,259.549296 Z M530.402927,244.581055 C520.024895,233.005558 514.835957,214.345337 514.835957,188.599834 L514.835957,163.45319 L565.428611,163.45319 L565.428611,195.485225 C565.428611,208.258188 569.519889,214.644573 577.702568,214.644573 C582.292852,214.644573 585.486045,213.297445 587.282242,210.603148 C589.07844,207.908851 589.976526,203.368531 589.976526,196.982049 C589.976526,188.599792 588.978653,181.664577 586.982878,176.176194 C584.987102,170.687812 582.442527,166.097597 579.349075,162.405413 C576.255623,158.713228 570.717429,152.97546 562.734328,145.191936 L540.581331,123.03894 C523.417663,106.274426 514.835957,87.713993 514.835957,67.3570837 C514.835957,45.403554 519.875214,28.6891856 529.95388,17.2134769 C540.032546,5.73776827 554.751169,0 574.110191,0 C597.261185,0 613.92566,6.13691737 624.104115,18.4109362 C634.28257,30.684955 639.371721,49.8940053 639.371721,76.0386634 L586.982878,76.0386634 L586.683513,58.3761392 C586.683513,54.983321 585.735534,52.2890646 583.839547,50.2932891 C581.94356,48.2975137 579.299198,47.299641 575.906379,47.299641 C571.914829,47.299641 568.92121,48.397301 566.925435,50.592654 C564.92966,52.7880069 563.931787,55.7816252 563.931787,59.5735985 C563.931787,67.9558552 568.721576,76.6373481 578.301298,85.6183375 L608.23778,114.35736 C615.222994,121.142996 621.010655,127.579275 625.600939,133.66639 C630.191222,139.753506 633.883352,146.938189 636.677437,155.220657 C639.471523,163.503125 640.868545,173.332172 640.868545,184.708092 C640.868545,210.05444 636.228436,229.26349 626.948081,242.335819 C617.667725,255.408148 602.350378,261.944214 580.995581,261.944214 C557.645009,261.944214 540.78096,256.156552 530.402927,244.581055 Z M655.537421,259.549296 L655.537421,2.39491853 L705.23198,2.39491853 L705.23198,259.549296 L655.537421,259.549296 Z M737.413698,242.335819 C728.33292,229.26349 723.792599,209.455716 723.792599,182.911903 L723.792599,72.1469207 C723.792599,48.3971932 729.081324,30.4354839 739.658934,18.2612538 C750.236544,6.08702373 766.002933,0 786.958575,0 C803.922666,0 817.094586,3.39276732 826.474731,10.1784038 C835.854875,16.9640402 842.341048,26.8429803 845.933444,39.8155206 C849.52584,52.7880608 851.32201,69.4525356 851.32201,89.8094449 L801.028721,89.8094449 L801.028721,66.758354 C801.028721,60.5714502 800.18053,55.7816611 798.48412,52.3888429 C796.787711,48.9960246 793.744199,47.299641 789.353494,47.299641 C779.574194,47.299641 774.684618,53.6860265 774.684618,66.4589892 L774.684618,190.994753 C774.684618,198.778277 775.68249,204.665726 777.678266,208.657277 C779.674041,212.648828 783.166596,214.644573 788.156034,214.644573 C793.145473,214.644573 796.638027,212.648828 798.633803,208.657277 C800.629578,204.665726 801.627451,198.778277 801.627451,190.994753 L801.627451,154.17288 L787.856669,154.17288 L787.856669,109.866888 L850.723281,109.866888 L850.723281,259.549296 L830.067109,259.549296 L821.385529,237.995029 C812.204962,253.961232 798.035169,261.944214 778.875725,261.944214 C760.315014,261.944214 746.494476,255.408148 737.413698,242.335819 Z M871.080088,259.549296 L871.080088,2.39491853 L924.067661,2.39491853 L947.717481,125.433858 L947.717481,2.39491853 L997.412041,2.39491853 L997.412041,259.549296 L947.118752,259.549296 L921.373378,130.822425 L921.373378,259.549296 L871.080088,259.549296 Z M0,2.39491853 L249,2.39491853 L249,259.549296 L0,259.549296 L0,2.39491853 Z" id="Combined-Shape" fill="#DCBC3F"></path>
            <path d="M42.875,225 C34.2916237,214.99995 30,200.166765 30,180.5 L30,23.25 L71.75,23.25 L71.75,178.75 C71.75,185.583367 72.41666,190.916648 73.75,194.75 C75.08334,198.583353 77.916645,200.5 82.25,200.5 C86.583355,200.5 89.41666,198.625019 90.75,194.875 C92.08334,191.124981 92.75,185.750035 92.75,178.75 L92.75,23.25 L134.5,23.25 L134.5,180.5 C134.5,200.166765 130.208376,214.99995 121.625,225 C113.041624,235.00005 99.916755,240 82.25,240 C64.583245,240 51.4583762,235.00005 42.875,225 Z M144.75,238 L167.75,124 L149.5,23 L191.5,23 L202.75,97 L212.5,23 L254.75,23 L236.25,124 L259.25,238 L215.75,238 L202.25,154 L188.5,238 L144.75,238 Z" id="UX" fill="#FFFFFF"></path>
        </g>
    </g>
</svg>