<?xml version="1.0" encoding="UTF-8"?>
<svg width="183px" height="40px" viewBox="0 0 183 40" version="1.1" xmlns="http://www.w3.org/2000/svg" xmlns:xlink="http://www.w3.org/1999/xlink">
    <!-- Generator: Sketch 51.3 (57544) - http://www.bohemiancoding.com/sketch -->
    <title>Group 5</title>
    <desc>Created with Sketch.</desc>
    <defs></defs>
    <g id="Page-1" stroke="none" stroke-width="1" fill="none" fill-rule="evenodd">
        <g id="Desktop-Copy-7" transform="translate(-831.000000, -78.000000)">
            <g id="Group-5" transform="translate(831.000000, 78.000000)">
                <path d="M0,38.3413019 L0,0.165502023 L51.5494954,0.441338727 C53.9768706,0.441338727 56.1191809,0.901061971 57.9764906,1.82052225 C59.8338004,2.73998253 61.2773314,4.03640208 62.3071269,5.70981979 C63.3369224,7.3832375 63.8518124,9.30488065 63.8518124,11.4748069 L63.8518124,28.0250092 C63.8518124,30.1949355 63.3369224,32.1165786 62.3071269,33.7899963 C61.2773314,35.463414 59.8338004,36.7598336 57.9764906,37.6792939 C56.1191809,38.5987541 53.9768706,39.0584774 51.5494954,39.0584774 L0,38.3413019 Z M50.2254792,29.8455314 C50.2254792,30.0662019 50.3358128,30.1765355 50.5564833,30.1765355 L51.3288261,30.1213682 C51.9172806,30.0845897 52.4137817,29.8087558 52.8183443,29.293858 C53.2229068,28.7789603 53.4435739,28.1169588 53.4803524,27.3078338 L53.4803524,12.136815 C53.4803524,11.2909115 53.2780741,10.6105211 52.8735116,10.0956234 C52.4689491,9.58072563 51.9356701,9.32328062 51.2736587,9.32328062 L50.5564833,9.32328062 C50.3358128,9.32328062 50.2254792,9.4336142 50.2254792,9.65428466 L50.2254792,29.8455314 Z M88.5667812,8.4957705 C88.5667812,8.75321938 88.4932255,8.95549761 88.3461118,9.10261125 C88.1989982,9.2497249 87.9967199,9.32328062 87.7392711,9.32328062 L77.202309,9.32328062 C76.9816385,9.32328062 76.8713049,9.4336142 76.8713049,9.65428466 L76.8713049,14.9503494 C76.8713049,15.1710199 76.9816385,15.2813534 77.202309,15.2813534 L82.6638757,15.2813534 C82.9213246,15.2813534 83.1236028,15.3549092 83.2707165,15.5020228 C83.4178301,15.6491364 83.4913858,15.8514147 83.4913858,16.1088636 L83.4913858,23.3357852 C83.4913858,23.5932341 83.4178301,23.7955123 83.2707165,23.942626 C83.1236028,24.0897396 82.9213246,24.1632953 82.6638757,24.1632953 L77.202309,24.1632953 C76.9816385,24.1632953 76.8713049,24.2736289 76.8713049,24.4942994 L76.8713049,29.8455314 C76.8713049,30.0662019 76.9816385,30.1765355 77.202309,30.1765355 L87.7392711,30.1765355 C87.9967199,30.1765355 88.1989982,30.2500912 88.3461118,30.3972049 C88.4932255,30.5443185 88.5667812,30.7465967 88.5667812,31.0040456 L88.5667812,38.2309673 C88.5667812,38.4884161 88.4932255,38.6906944 88.3461118,38.837808 C88.1989982,38.9849217 87.9967199,39.0584774 87.7392711,39.0584774 L67.3273549,39.0584774 C67.069906,39.0584774 66.8676278,38.9849217 66.7205142,38.837808 C66.5734005,38.6906944 66.4998448,38.4884161 66.4998448,38.2309673 L66.4998448,1.26884884 C66.4998448,1.01139996 66.5734005,0.809121736 66.7205142,0.662008091 C66.8676278,0.514894446 67.069906,0.441338727 67.3273549,0.441338727 L87.7392711,0.441338727 C87.9967199,0.441338727 88.1989982,0.514894446 88.3461118,0.662008091 C88.4932255,0.809121736 88.5667812,1.01139996 88.5667812,1.26884884 L88.5667812,8.4957705 Z M102.524118,39.4998161 C100.1703,39.4998161 98.11074,39.0584818 96.3453763,38.1757999 C94.5800125,37.2931181 93.2100373,36.0702542 92.2354094,34.5071718 C91.2607815,32.9440893 90.7734748,31.1511686 90.7734748,29.128356 L90.7734748,27.4181684 C90.7734748,27.1607196 90.8470305,26.9584413 90.9941442,26.8113277 C91.1412578,26.664214 91.3435361,26.5906583 91.6009849,26.5906583 L100.20709,26.5906583 C100.464539,26.5906583 100.666817,26.664214 100.813931,26.8113277 C100.961045,26.9584413 101.0346,27.1607196 101.0346,27.4181684 L101.0346,28.6318499 C101.0346,29.2203045 101.181712,29.6984167 101.475939,30.0662008 C101.770166,30.4339849 102.137945,30.6178742 102.579286,30.6178742 C103.020627,30.6178742 103.388405,30.4523739 103.682633,30.1213682 C103.97686,29.7903624 104.123971,29.3674171 104.123971,28.8525193 C104.123971,28.2272863 103.829748,27.6112572 103.241294,27.0044134 C102.652839,26.3975696 101.420781,25.4321508 99.545082,24.108128 C97.7061615,22.8208836 96.1890748,21.6439921 94.9937764,20.5774182 C93.798478,19.5108442 92.7595035,18.1684524 91.8768216,16.5502023 C90.9941398,14.9319522 90.5528055,13.0746703 90.5528055,10.9783008 C90.5528055,8.80837459 91.0401121,6.89592589 92.01474,5.24089739 C92.9893679,3.58586889 94.3685376,2.2986438 96.1522906,1.37918352 C97.9360435,0.459723244 99.9864092,0 102.303449,0 C104.657267,0 106.726022,0.459723244 108.509775,1.37918352 C110.293528,2.2986438 111.672698,3.58586889 112.647326,5.24089739 C113.621953,6.89592589 114.10926,8.80837459 114.10926,10.9783008 L114.10926,12.1919823 C114.10926,12.4494312 114.035704,12.6517095 113.888591,12.7988231 C113.741477,12.9459367 113.539199,13.0194925 113.28175,13.0194925 L104.730812,13.0194925 C104.473363,13.0194925 104.271085,12.9459367 104.123971,12.7988231 C103.976858,12.6517095 103.903302,12.4494312 103.903302,12.1919823 L103.903302,10.7576315 C103.903302,10.2059553 103.756191,9.75542654 103.461963,9.40603163 C103.167736,9.05663672 102.781568,8.88194189 102.303449,8.88194189 C101.82533,8.88194189 101.448357,9.06583119 101.172519,9.4336153 C100.896681,9.80139941 100.758764,10.2979005 100.758764,10.9231335 C100.758764,11.6587017 101.052986,12.3666755 101.641441,13.0470761 C102.229896,13.7274767 103.406787,14.7112845 105.172151,15.9985289 C107.525969,17.7271142 109.300501,19.1246729 110.495799,20.1912468 C111.691098,21.2578207 112.628933,22.4622956 113.309334,23.8047076 C113.989734,25.1471196 114.329929,26.7193731 114.329929,28.5215153 C114.329929,31.8683507 113.244983,34.5347455 111.075056,36.5207797 C108.90513,38.5068139 106.054846,39.4998161 102.524118,39.4998161 Z M117.364133,39.0584774 C117.106684,39.0584774 116.904406,38.9849217 116.757292,38.837808 C116.610179,38.6906944 116.536623,38.4884161 116.536623,38.2309673 L116.536623,1.26884884 C116.536623,1.01139996 116.610179,0.809121736 116.757292,0.662008091 C116.904406,0.514894446 117.106684,0.441338727 117.364133,0.441338727 L126.080573,0.441338727 C126.338022,0.441338727 126.5403,0.514894446 126.687414,0.662008091 C126.834527,0.809121736 126.908083,1.01139996 126.908083,1.26884884 L126.908083,38.2309673 C126.908083,38.4884161 126.834527,38.6906944 126.687414,38.837808 C126.5403,38.9849217 126.338022,39.0584774 126.080573,39.0584774 L117.364133,39.0584774 Z M141.527428,39.4998161 C137.886366,39.4998161 134.962526,38.4792305 132.755821,36.4380287 C130.549117,34.3968269 129.445781,31.6660708 129.445781,28.2456786 L129.445781,11.1989702 C129.445781,7.77857797 130.549117,5.05701637 132.755821,3.03420375 C134.962526,1.01139114 137.886366,0 141.527428,0 C143.918025,0 146.023558,0.459723244 147.844089,1.37918352 C149.66462,2.2986438 151.080568,3.61345228 152.091974,5.3236484 C153.103381,7.03384452 153.609076,9.0290434 153.609076,11.3093049 L153.609076,13.1298271 C153.609076,13.387276 153.53552,13.5895542 153.388407,13.7366679 C153.241293,13.8837815 153.039015,13.9573373 152.781566,13.9573373 L144.065126,13.9573373 C143.807677,13.9573373 143.605399,13.8837815 143.458285,13.7366679 C143.311172,13.5895542 143.237616,13.387276 143.237616,13.1298271 L143.237616,11.1989702 C143.237616,10.5001804 143.08131,9.93931804 142.768694,9.51636631 C142.456077,9.09341458 142.042326,8.88194189 141.527428,8.88194189 C141.012531,8.88194189 140.59878,9.09341458 140.286163,9.51636631 C139.973547,9.93931804 139.817241,10.5001804 139.817241,11.1989702 L139.817241,28.3008459 C139.817241,28.9996357 139.973547,29.5604981 140.286163,29.9834498 C140.59878,30.4064015 141.012531,30.6178742 141.527428,30.6178742 C142.042326,30.6178742 142.456077,30.4064015 142.768694,29.9834498 C143.08131,29.5604981 143.237616,28.9996357 143.237616,28.3008459 L143.237616,25.5976462 C143.237616,25.3769757 143.127282,25.2666421 142.906612,25.2666421 L142.465273,25.2666421 C142.207824,25.2666421 142.005546,25.1930864 141.858433,25.0459728 C141.711319,24.8988591 141.637763,24.6965809 141.637763,24.439132 L141.637763,18.0948878 C141.637763,17.8374389 141.711319,17.6351607 141.858433,17.4880471 C142.005546,17.3409334 142.207824,17.2673777 142.465273,17.2673777 L152.781566,17.2673777 C153.039015,17.2673777 153.241293,17.3409334 153.388407,17.4880471 C153.53552,17.6351607 153.609076,17.8374389 153.609076,18.0948878 L153.609076,28.2456786 C153.609076,30.4891616 153.103381,32.4659716 152.091974,34.1761677 C151.080568,35.8863638 149.66462,37.2011723 147.844089,38.1206326 C146.023558,39.0400929 143.918025,39.4998161 141.527428,39.4998161 Z M172.145303,1.26884884 C172.145303,1.01139996 172.218858,0.809121736 172.365972,0.662008091 C172.513086,0.514894446 172.715364,0.441338727 172.972813,0.441338727 L181.578918,0.441338727 C181.836367,0.441338727 182.038645,0.514894446 182.185759,0.662008091 C182.332872,0.809121736 182.406428,1.01139996 182.406428,1.26884884 L182.406428,38.2309673 C182.406428,38.4884161 182.332872,38.6906944 182.185759,38.837808 C182.038645,38.9849217 181.836367,39.0584774 181.578918,39.0584774 L171.759131,39.0584774 C171.281012,39.0584774 170.986789,38.8194213 170.876454,38.3413019 L166.683736,21.6255976 C166.646958,21.5152624 166.573402,21.4600956 166.463067,21.4600956 C166.352731,21.4600956 166.297565,21.5336513 166.297565,21.680765 L166.407899,38.2309673 C166.407899,38.4884161 166.334344,38.6906944 166.18723,38.837808 C166.040116,38.9849217 165.837838,39.0584774 165.580389,39.0584774 L156.974284,39.0584774 C156.716835,39.0584774 156.514557,38.9849217 156.367443,38.837808 C156.22033,38.6906944 156.146774,38.4884161 156.146774,38.2309673 L156.146774,1.26884884 C156.146774,1.01139996 156.22033,0.809121736 156.367443,0.662008091 C156.514557,0.514894446 156.716835,0.441338727 156.974284,0.441338727 L166.683736,0.441338727 C167.161855,0.441338727 167.456078,0.680394814 167.566413,1.15851416 L171.814299,17.9293858 C171.851077,18.0764994 171.924633,18.1500552 172.034968,18.1500552 C172.145303,18.1500552 172.20047,18.0764994 172.20047,17.9293858 L172.145303,1.26884884 Z" id="DESIGN" fill="#F7F7F7"></path>
                <path d="M13.6712104,35.5539953 C11.7399299,35.5539953 10.0463708,35.1528892 8.59048237,34.350665 C7.13459395,33.5484408 6.00555456,32.4194014 5.20333033,30.963513 C4.4011061,29.5076245 4,27.8289212 4,25.9273527 L4,4.66851685 C4,4.46053279 4.05942313,4.29711919 4.17827116,4.17827116 C4.29711919,4.05942313 4.46053279,4 4.66851685,4 L11.7102277,4 C11.9182117,4 12.0816253,4.05942313 12.2004734,4.17827116 C12.3193214,4.29711919 12.3787445,4.46053279 12.3787445,4.66851685 L12.3787445,26.7295729 C12.3787445,27.234677 12.4975908,27.6357831 12.7352868,27.9329032 C12.9729829,28.2300233 13.2849543,28.3785811 13.6712104,28.3785811 C14.0574665,28.3785811 14.3620101,28.2300233 14.5848501,27.9329032 C14.8076902,27.6357831 14.9191086,27.234677 14.9191086,26.7295729 L14.9191086,4.66851685 C14.9191086,4.46053279 14.9785317,4.29711919 15.0973797,4.17827116 C15.2162277,4.05942313 15.3796413,4 15.5876254,4 L22.6293362,4 C22.8373203,4 23.0007339,4.05942313 23.1195819,4.17827116 C23.2384299,4.29711919 23.2978531,4.46053279 23.2978531,4.66851685 L23.2978531,25.9273527 C23.2978531,27.8289212 22.896747,29.5076245 22.0945227,30.963513 C21.2922985,32.4194014 20.1632591,33.5484408 18.7073707,34.350665 C17.2514823,35.1528892 15.572779,35.5539953 13.6712104,35.5539953 Z M25.7490815,35.197453 C25.5113855,35.197453 25.340544,35.130602 25.2365519,34.9968979 C25.1325599,34.8631939 25.125132,34.6774966 25.214268,34.4398006 L31.0526485,19.7769977 C31.1120726,19.6581496 31.1120726,19.5393034 31.0526485,19.4204553 L25.214268,4.75765243 C25.184556,4.6685164 25.1697003,4.56452593 25.1697003,4.4456779 C25.1697003,4.14855781 25.3628254,4 25.7490815,4 L32.8799279,4 C33.0582,4 33.2216136,4.05199524 33.3701736,4.15598727 C33.5187337,4.25997929 33.6078683,4.40110922 33.6375804,4.57938127 L35.420292,10.6851685 C35.479716,10.8040165 35.546567,10.8634397 35.620847,10.8634397 C35.695127,10.8634397 35.7471223,10.8040165 35.7768343,10.6851685 L37.5595459,4.57938127 C37.5892579,4.40110922 37.6783926,4.25997929 37.8269526,4.15598727 C37.9755127,4.05199524 38.1389263,4 38.3171983,4 L45.4034769,4 C45.641173,4 45.8120145,4.06685102 45.9160065,4.20055506 C46.0199985,4.33425909 46.0274264,4.51995636 45.9382904,4.75765243 L40.0999099,19.4204553 C40.0404859,19.5393034 40.0404859,19.6581496 40.0999099,19.7769977 L45.9382904,34.4398006 C45.9680024,34.5289366 45.9828582,34.6329271 45.9828582,34.7517751 C45.9828582,35.0488952 45.789733,35.197453 45.4034769,35.197453 L38.3617661,35.197453 C38.183494,35.197453 38.0200804,35.1454578 37.8715204,35.0414657 C37.7229604,34.9374737 37.6338257,34.7963438 37.6041137,34.6180717 L35.7768343,28.5568523 C35.7471223,28.4380043 35.695127,28.3785811 35.620847,28.3785811 C35.546567,28.3785811 35.479716,28.4380043 35.420292,28.5568523 L33.5930126,34.6180717 C33.5633006,34.7963438 33.4741659,34.9374737 33.3256058,35.0414657 C33.1770458,35.1454578 33.0136322,35.197453 32.8353601,35.197453 L25.7490815,35.197453 Z" id="UX" fill="#FFFFFF"></path>
            </g>
        </g>
    </g>
</svg>