<?xml version="1.0" encoding="UTF-8"?>
<svg width="349px" height="91px" viewBox="0 0 349 91" version="1.1" xmlns="http://www.w3.org/2000/svg" xmlns:xlink="http://www.w3.org/1999/xlink">
    <!-- Generator: Sketch 51.3 (57544) - http://www.bohemiancoding.com/sketch -->
    <title>Group</title>
    <desc>Created with Sketch.</desc>
    <defs></defs>
    <g id="Page-1" stroke="none" stroke-width="1" fill="none" fill-rule="evenodd">
        <g id="Desktop-menu" transform="translate(-338.000000, -225.000000)">
            <g id="Group" transform="translate(338.000000, 225.000000)">
                <path d="M87.1264798,0.832 L111.952089,0.832 C118.376752,0.832 123.195177,2.59998232 126.407508,6.136 C129.619839,9.67201768 131.260897,14.906632 131.33073,21.84 L131.540229,63.648 C131.610062,72.4533774 130.073753,79.0746445 126.931255,83.512 C123.788757,87.9493555 118.586255,90.168 111.323593,90.168 L87.1264798,90.168 L87.1264798,0.832 Z M108.39061,74.36 C111.672774,74.36 113.313832,72.7653493 113.313832,69.576 L113.313832,23.504 C113.313832,21.4933233 113.156709,19.9853384 112.842459,18.98 C112.52821,17.9746616 111.952094,17.2986684 111.114094,16.952 C110.276095,16.6053316 108.984198,16.432 107.238366,16.432 L105.248127,16.432 L105.248127,74.36 L108.39061,74.36 Z M138.767938,90.168 L138.767938,0.832 L174.801734,0.832 L174.801734,18.096 L157.099084,18.096 L157.099084,35.464 L174.068488,35.464 L174.068488,52.312 L157.099084,52.312 L157.099084,72.8 L175.953978,72.8 L175.953978,90.168 L138.767938,90.168 Z M185.590923,84.968 C181.959592,80.9466466 180.143954,74.4640447 180.143954,65.52 L180.143954,56.784 L197.846604,56.784 L197.846604,67.912 C197.846604,72.3493555 199.278165,74.568 202.14133,74.568 C203.747495,74.568 204.864811,74.1000047 205.493311,73.164 C206.121811,72.2279953 206.436056,70.6506778 206.436056,68.432 C206.436056,65.5199854 206.086894,63.1106762 205.388562,61.204 C204.690229,59.2973238 203.799868,57.7026731 202.717452,56.42 C201.635036,55.1373269 199.697191,53.1440135 196.903859,50.44 L189.152403,42.744 C183.14674,36.9199709 180.143954,30.4720354 180.143954,23.4 C180.143954,15.7732952 181.907218,9.9666866 185.433799,5.98 C188.96038,1.9933134 194.110508,0 200.884337,0 C208.984998,0 214.81599,2.13197868 218.377488,6.396 C221.938986,10.6600213 223.719708,17.3332879 223.719708,26.416 L205.388562,26.416 L205.283812,20.28 C205.283812,19.1013274 204.952109,18.1653368 204.288693,17.472 C203.625276,16.7786632 202.699999,16.432 201.512833,16.432 C200.116168,16.432 199.068684,16.8133295 198.370351,17.576 C197.672018,18.3386705 197.322857,19.3786601 197.322857,20.696 C197.322857,23.6080146 198.998831,26.6239844 202.350829,29.744 L212.825769,39.728 C215.269935,42.0853451 217.29507,44.3213228 218.901235,46.436 C220.507401,48.5506772 221.799297,51.0466523 222.776963,53.924 C223.754629,56.8013477 224.243455,60.2159802 224.243455,64.168 C224.243455,72.9733774 222.619855,79.646644 219.372607,84.188 C216.12536,88.729356 210.765735,91 203.293573,91 C195.123079,91 189.222254,88.9893534 185.590923,84.968 Z M229.376176,90.168 L229.376176,0.832 L246.764578,0.832 L246.764578,90.168 L229.376176,90.168 Z M258.025139,84.188 C254.847724,79.646644 253.259041,72.7653794 253.259041,63.544 L253.259041,25.064 C253.259041,16.8132921 255.109595,10.5733545 258.81076,6.344 C262.511924,2.11464552 268.028671,0 275.361166,0 C281.296996,0 285.905923,1.17865488 289.188088,3.536 C292.470253,5.89334512 294.7398,9.3253108 295.9968,13.832 C297.253799,18.3386892 297.882289,24.1279646 297.882289,31.2 L280.284388,31.2 L280.284388,23.192 C280.284388,21.0426559 279.987601,19.3786726 279.394018,18.2 C278.800435,17.0213274 277.735494,16.432 276.199161,16.432 C272.77733,16.432 271.06644,18.6506445 271.06644,23.088 L271.06644,66.352 C271.06644,69.0560135 271.415602,71.1013264 272.113934,72.488 C272.812267,73.8746736 274.034332,74.568 275.780164,74.568 C277.525996,74.568 278.74806,73.8746736 279.446393,72.488 C280.144726,71.1013264 280.493887,69.0560135 280.493887,66.352 L280.493887,53.56 L275.675414,53.56 L275.675414,38.168 L297.67279,38.168 L297.67279,90.168 L290.445081,90.168 L287.407348,82.68 C284.195017,88.2266944 279.236928,91 272.532932,91 C266.038436,91 261.202554,88.729356 258.025139,84.188 Z M304.79575,90.168 L304.79575,0.832 L323.336395,0.832 L331.611598,43.576 L331.611598,0.832 L349,0.832 L349,90.168 L331.402099,90.168 L322.39365,45.448 L322.39365,90.168 L304.79575,90.168 Z M0,0.832 L87.1264798,0.832 L87.1264798,90.168 L0,90.168 L0,0.832 Z" id="Combined-Shape" fill="#244005"></path>
                <path d="M14.4929117,77.8156682 C11.4976222,74.3594297 10,69.2327529 10,62.4354839 L10,8.08640553 L24.5692475,8.08640553 L24.5692475,61.8306452 C24.5692475,64.1924081 24.8018879,66.0357077 25.2671756,67.3605991 C25.7324632,68.6854905 26.7211847,69.3479263 28.2333697,69.3479263 C29.7455546,69.3479263 30.7342761,68.6998913 31.1995638,67.4038018 C31.6648515,66.1077124 31.8974918,64.2500121 31.8974918,61.8306452 L31.8974918,8.08640553 L46.4667394,8.08640553 L46.4667394,62.4354839 C46.4667394,69.2327529 44.9691171,74.3594297 41.9738277,77.8156682 C38.9785383,81.2719067 34.3984314,83 28.2333697,83 C22.068308,83 17.4882011,81.2719067 14.4929117,77.8156682 Z M50.0436205,82.3087558 L58.0697928,42.9078341 L51.7011996,8 L66.3576881,8 L70.2835333,33.5760369 L73.6859324,8 L88.4296619,8 L81.9738277,42.9078341 L90,82.3087558 L74.8200654,82.3087558 L70.1090513,53.2764977 L65.3107961,82.3087558 L50.0436205,82.3087558 Z" id="UX" fill="#FFFFFF"></path>
            </g>
        </g>
    </g>
</svg>