<?xml version="1.0" encoding="UTF-8"?>
<svg width="155px" height="53px" viewBox="0 0 155 53" version="1.1" xmlns="http://www.w3.org/2000/svg" xmlns:xlink="http://www.w3.org/1999/xlink">
    <!-- Generator: Sketch 50.2 (55047) - http://www.bohemiancoding.com/sketch -->
    <title>Group 5</title>
    <desc>Created with Sketch.</desc>
    <defs></defs>
    <g id="Page-1" stroke="none" stroke-width="1" fill="none" fill-rule="evenodd">
        <g id="Group-5" fill-rule="nonzero">
            <rect id="Rectangle-10" fill="#DCBC3F" x="67.74" y="0" width="87" height="53"></rect>
            <g id="Webbdesign" transform="translate(0.000000, 8.000000)" fill="#0B0B0B">
                <polygon id="Shape" points="0 0.88 2.34 0.88 6.19 24.53 10.58 1.27 12.85 1.27 17.35 24.56 20.92 0.84 23.22 0.84 18.5 30 16.38 30 11.74 6 7.16 30 4.93 30"></polygon>
                <path d="M28.08,29.53 C27.2049086,28.9207741 26.5686404,28.0264638 26.28,27 C25.8456473,25.4418315 25.6500909,23.8268056 25.7,22.21 L25.7,16.93 C25.6427603,15.3056278 25.8418693,13.6823829 26.29,12.12 C26.5850033,11.0936245 27.2377206,10.2067803 28.13,9.62 C29.1133901,9.07633139 30.227297,8.81342169 31.35,8.86 C32.5316798,8.78535595 33.7042393,9.10930632 34.68,9.78 C35.5166348,10.4860905 36.0879747,11.4559577 36.3,12.53 C36.638883,14.1505909 36.7898791,15.8048365 36.75,17.46 L36.75,19.33 L28.33,19.33 L28.33,22.43 C28.3048363,23.5886164 28.3885371,24.7470358 28.58,25.89 C28.677214,26.5862033 28.9922539,27.2337853 29.48,27.74 C29.9957614,28.1639142 30.6538972,28.3749469 31.32,28.33 C32.1176925,28.3801832 32.8946631,28.0635033 33.43,27.47 C34.0146588,26.5366418 34.2747896,25.4363588 34.17,24.34 L34.17,22.91 L36.73,22.91 L36.73,24.06 C36.8358721,25.703568 36.3926556,27.3357305 35.47,28.7 C34.4256166,29.8668798 32.8889705,30.4681761 31.33,30.32 C30.1930888,30.3762466 29.0642358,30.1018485 28.08,29.53 Z M34.16,17.83 L34.16,16.1 C34.1809804,15.0960803 34.1140584,14.0922505 33.96,13.1 C33.8701927,12.4667811 33.5873472,11.8766465 33.15,11.41 C32.6442435,10.9664713 31.9805513,10.7464429 31.31,10.8 C30.6856212,10.7672628 30.0676311,10.9393169 29.55,11.29 C29.0502662,11.7342601 28.7213359,12.3390673 28.62,13 C28.3980084,14.1191375 28.3007479,15.2594329 28.33,16.4 L28.33,17.8 L34.16,17.83 Z" id="Shape"></path>
                <path d="M43,28.34 L43,30 L40.36,30 L40.36,0.84 L43,0.84 L43,10.92 C43.456765,10.3168165 44.0318342,9.81320555 44.69,9.44 C45.3937493,9.04224656 46.191828,8.84186316 47,8.86 C48.6061268,8.72935181 50.1145569,9.6448963 50.74,11.13 C51.4796084,13.0407152 51.8199381,15.0826937 51.74,17.13 L51.74,21.52 C51.8332912,23.738936 51.4372641,25.9512251 50.58,28 C49.8669762,29.4763332 48.325243,30.3680813 46.69,30.25 C45.2361226,30.1977157 43.8821282,29.4968677 43,28.34 Z M48.49,26.68 C48.9227891,25.026835 49.0948605,23.3162422 49,21.61 L49,17.15 C49.0810842,15.5332988 48.8918183,13.9143995 48.44,12.36 C48.0938976,11.4143233 47.152261,10.8222024 46.15,10.92 C44.9270863,11.0222007 43.7944597,11.6046944 43,12.54 L43,26.72 C43.8038242,27.6773551 44.9899352,28.2301414 46.24,28.23 C47.2508694,28.2971961 48.174807,27.6591405 48.47,26.69 L48.49,26.68 Z" id="Shape"></path>
                <path d="M57.71,28.34 L57.71,30 L55.08,30 L55.08,0.84 L57.71,0.84 L57.71,10.92 C58.166765,10.3168165 58.7418342,9.81320555 59.4,9.44 C60.0920015,9.04917668 60.8753375,8.84902915 61.67,8.86 C63.2761268,8.72935181 64.7845569,9.6448963 65.41,11.13 C66.1496084,13.0407152 66.4899381,15.0826937 66.41,17.13 L66.41,21.52 C66.5159408,23.73597 66.1335893,25.9481463 65.29,28 C64.592102,29.4958586 63.0470234,30.4094012 61.4,30.3 C59.9375934,30.2357152 58.5820599,29.5157028 57.71,28.34 Z M63.2,26.68 C63.6506652,25.026274 63.8396202,23.3121826 63.76,21.6 L63.76,17.15 C63.8410842,15.5332988 63.6518183,13.9143995 63.2,12.36 C62.8538976,11.4143233 61.912261,10.8222024 60.91,10.92 C59.669308,11.0092401 58.5164003,11.5928997 57.71,12.54 L57.71,26.72 C58.5138242,27.6773551 59.6999352,28.2301414 60.95,28.23 C61.9680877,28.306888 62.9031599,27.666883 63.2,26.69 L63.2,26.68 Z" id="Shape"></path>
                <path d="M70.79,28.31 C70.01,26.9766667 69.62,24.7433333 69.62,21.61 L69.62,17.76 C69.4884308,15.4946992 69.8289606,13.2267709 70.62,11.1 C71.3050713,9.61952807 72.8449325,8.72760848 74.47,8.87 C75.8964853,8.90937192 77.2355983,9.56615761 78.14,10.67 L78.14,0.84 L80.77,0.84 L80.77,30 L78.19,30 L78.19,28.52 C77.318955,29.6059499 76.020925,30.2622572 74.63,30.32 C73.0710298,30.4390445 71.5805955,29.6588953 70.79,28.31 Z M78.19,26.87 L78.19,12.4 C77.3723849,11.5442241 76.2695343,11.0177018 75.09,10.92 C74.1131727,10.8387699 73.1986839,11.4077852 72.84,12.32 C72.3663119,13.7946124 72.1663546,15.3434343 72.25,16.89 L72.25,21.82 C72.1659986,23.4750209 72.3655392,25.1322226 72.84,26.72 C73.1814741,27.6911681 74.1337361,28.3109593 75.16,28.23 C76.3055181,28.1756278 77.388019,27.6897528 78.19,26.87 Z" id="Shape"></path>
                <path d="M86.87,29.53 C85.9955007,28.9201761 85.3593995,28.0261004 85.07,27 C84.6356473,25.4418315 84.4400909,23.8268056 84.49,22.21 L84.49,16.93 C84.4329272,15.3056351 84.632033,13.6824162 85.08,12.12 C85.3750033,11.0936245 86.0277206,10.2067803 86.92,9.62 C87.9033901,9.07633139 89.017297,8.81342169 90.14,8.86 C91.3217607,8.7845744 92.4945712,9.10859412 93.47,9.78 C94.3066348,10.4860905 94.8779747,11.4559577 95.09,12.53 C95.4283565,14.1506696 95.579347,15.8048544 95.54,17.46 L95.54,19.33 L87.12,19.33 L87.12,22.43 C87.0948363,23.5886164 87.1785371,24.7470358 87.37,25.89 C87.467214,26.5862033 87.7822539,27.2337853 88.27,27.74 C89.473416,28.6229624 91.1382833,28.5088726 92.21,27.47 C92.8142343,26.5473465 93.0923342,25.4490282 93,24.35 L93,22.91 L95.56,22.91 L95.56,24.06 C95.6658721,25.703568 95.2226556,27.3357305 94.3,28.7 C93.2556166,29.8668798 91.7189705,30.4681761 90.16,30.32 C89.0096718,30.3841042 87.8658003,30.109436 86.87,29.53 Z M93,17.83 L93,16.1 C93.0209804,15.0960803 92.9540584,14.0922505 92.8,13.1 C92.7129982,12.4679428 92.4337056,11.8779371 92,11.41 C91.4942435,10.9664713 90.8305513,10.7464429 90.16,10.8 C88.7947146,10.6536897 87.5669551,11.6358973 87.41,13 C87.1880084,14.1191375 87.0907479,15.2594329 87.12,16.4 L87.12,17.8 L93,17.83 Z" id="Shape"></path>
                <path d="M99.92,28.74 C98.8648669,27.5427353 98.2601641,26.0150649 98.21,24.42 L100.41,23.74 C100.440938,24.9836682 100.822217,26.1933603 101.51,27.23 C102.114247,27.9775366 103.040105,28.3902682 104,28.34 C104.792026,28.3848551 105.567101,28.0987291 106.14,27.55 C106.672574,26.9603742 106.949495,26.1835577 106.91,25.39 C106.91,24.0566667 106.07,22.6633333 104.39,21.21 L101.55,18.76 C100.704901,18.0958558 99.9809171,17.2906776 99.41,16.38 C98.9313899,15.5474996 98.689341,14.6000509 98.71,13.64 C98.6261083,12.3404834 99.0945415,11.0659093 100,10.13 C101.00088,9.24844399 102.308307,8.79587334 103.64,8.87 C104.988229,8.789605 106.298146,9.33571153 107.19,10.35 C108.074549,11.4968142 108.559244,12.901727 108.57,14.35 L106.7,15 C106.553333,12.2666667 105.553333,10.9 103.7,10.9 C102.971765,10.8562199 102.254902,11.096369 101.7,11.57 C101.196137,12.0472402 100.938268,12.728751 101,13.42 C100.987345,14.0100588 101.110517,14.5951282 101.36,15.13 C101.692982,15.7376276 102.145378,16.2716595 102.69,16.7 L105.69,19.33 C106.650759,20.1553919 107.510108,21.0919487 108.25,22.12 C108.87641,23.0890197 109.190536,24.226854 109.15,25.38 C109.221399,26.7311779 108.711953,28.0484609 107.75,29 C106.668897,29.9186367 105.276569,30.3875183 103.86,30.31 C102.382569,30.3742512 100.948348,29.802747 99.92,28.74 Z" id="Shape"></path>
                <path d="M112.46,2.75 L115.09,2.75 L115.09,6.31 L112.46,6.31 L112.46,2.75 Z M112.46,9.19 L115.09,9.19 L115.09,30 L112.46,30 L112.46,9.19 Z" id="Shape"></path>
                <path d="M120,36 C118.857575,35.5919492 118.10975,34.4924441 118.15,33.28 C118.153627,32.2689224 118.506943,31.2902365 119.15,30.51 C119.808337,29.677898 120.636821,28.9960185 121.58,28.51 C120.997055,28.3606758 120.447467,28.1028444 119.96,27.75 C119.590521,27.5401556 119.339325,27.170749 119.28,26.75 C119.310332,26.0319456 119.546365,25.3377311 119.96,24.75 C120.490057,23.9621208 121.092684,23.225576 121.76,22.55 C120.863139,21.9002962 120.169501,21.008972 119.76,19.98 C119.312739,18.7781512 119.098915,17.5019972 119.13,16.22 C119.055676,14.3668872 119.574114,12.5383408 120.61,11 C121.627796,9.63420445 123.270875,8.88049859 124.97,9 C126.847673,8.86467744 128.616909,9.89210373 129.43,11.59 C129.740852,11.1242493 130.118182,10.7064907 130.55,10.35 C131.052583,9.89752378 131.622797,9.52637834 132.24,9.25 L132.78,9.07 L133.5,10.91 C132.821521,11.042486 132.169474,11.285737 131.57,11.63 C130.992633,11.8697611 130.46138,12.2081393 130,12.63 C130.199341,13.2097566 130.349865,13.8051633 130.45,14.41 C130.570013,15.0197268 130.63693,15.6387118 130.65,16.26 C130.747604,18.1285036 130.269408,19.9819494 129.28,21.57 C128.269584,22.9448866 126.621201,23.7010254 124.92,23.57 C124.541604,23.5685109 124.163861,23.5384253 123.79,23.48 C123.449933,23.4362972 123.114988,23.3592598 122.79,23.25 L122.27,24.02 C122.037361,24.3593777 121.826921,24.7134505 121.64,25.08 C121.496992,25.3350637 121.411654,25.618384 121.39,25.91 C121.39,26.27 121.966667,26.5466667 123.12,26.74 C123.509176,26.8513236 123.90737,26.9282854 124.31,26.97 L125.68,27.17 C125.937551,27.1663223 126.194061,27.2034486 126.44,27.28 C127.866882,27.4388846 129.221058,27.9930231 130.35,28.88 C131.226574,29.6774731 131.715221,30.8152176 131.69,32 C131.791828,33.4402717 131.126709,34.8275198 129.94,35.65 C128.51333,36.498204 126.867577,36.9052932 125.21,36.82 C123.436281,36.8923882 121.665732,36.613722 120,36 Z M128.44,34 C129.099384,33.6346735 129.537894,32.9694192 129.613692,32.2194157 C129.68949,31.4694122 129.392954,30.7298713 128.82,30.24 C127.868203,29.6767943 126.801857,29.3350167 125.7,29.24 L123,28.88 C121.226667,29.9866667 120.34,31.1733333 120.34,32.44 C120.313603,33.1944773 120.760817,33.8852625 121.46,34.17 C122.64621,34.603859 123.909329,34.7877092 125.17,34.71 C126.292673,34.7512339 127.407453,34.5069457 128.41,34 L128.44,34 Z M127.72,20 C128.217912,18.7551536 128.449553,17.4198149 128.4,16.08 C128.4,12.48 127.26,10.68 124.98,10.68 C123.825537,10.579211 122.731061,11.2103323 122.24,12.26 C121.704522,13.4605834 121.444828,14.7658841 121.48,16.08 C121.48,19.7066667 122.643333,21.52 124.97,21.52 C126.092911,21.6507614 127.178396,21.0681112 127.69,20.06 L127.72,20 Z" id="Shape"></path>
                <path d="M135,9.19 L137.63,9.19 L137.63,11.35 C138.303988,10.6055994 139.106873,9.98903806 140,9.53 C140.825177,9.09106284 141.745344,8.86102112 142.68,8.86 C143.594866,8.83020646 144.464589,9.2575702 145,10 C145.610685,10.9805628 145.900788,12.1269913 145.83,13.28 L145.83,30 L143.2,30 L143.2,13.87 C143.264743,13.0815262 143.094222,12.2915607 142.71,11.6 C142.361245,11.1347527 141.799975,10.8786029 141.22,10.92 C140.585324,10.9360327 139.96545,11.1151074 139.42,11.44 C138.752751,11.8212286 138.14608,12.2998248 137.62,12.86 L137.62,30 L135,30 L135,9.19 Z" id="Shape"></path>
            </g>
        </g>
    </g>
</svg>