<svg xmlns="http://www.w3.org/2000/svg" viewBox="0 0 154.74 53"><defs><style>.cls-1{fill:#f1c929;}.cls-2{fill:#0b0b0b;}</style></defs><title>StoryboardAsset 1</title><g id="Layer_2" data-name="Layer 2"><g id="Layer_1-2" data-name="Layer 1"><g id="Layer_2-2" data-name="Layer 2"><g id="Layer_1-2-2" data-name="Layer 1-2"><g id="Page-1"><g id="Home-desktop"><g id="Group"><rect id="Rectangle-10" class="cls-1" x="67.74" width="87" height="53"/><g id="Webbdesign"><path class="cls-2" d="M0,8.88H2.34L6.19,32.53,10.58,9.27h2.27l4.5,23.29L20.92,8.84h2.3L18.5,38H16.38L11.74,14,7.16,38H4.93Z"/><path class="cls-2" d="M28.08,37.53A4.6,4.6,0,0,1,26.28,35a16,16,0,0,1-.58-4.79V24.93a15.47,15.47,0,0,1,.59-4.81,4.47,4.47,0,0,1,1.84-2.5,6.13,6.13,0,0,1,3.22-.76,5.29,5.29,0,0,1,3.33.92,4.82,4.82,0,0,1,1.62,2.75,21.55,21.55,0,0,1,.45,4.93v1.87H28.33v3.1a18.51,18.51,0,0,0,.25,3.46,3.33,3.33,0,0,0,.9,1.85,2.62,2.62,0,0,0,1.84.59,2.62,2.62,0,0,0,2.11-.86,5,5,0,0,0,.74-3.13V30.91h2.56v1.15a7.43,7.43,0,0,1-1.26,4.64,4.93,4.93,0,0,1-4.14,1.62A5.89,5.89,0,0,1,28.08,37.53Zm6.08-11.7V24.1a17.21,17.21,0,0,0-.2-3,3.11,3.11,0,0,0-.81-1.69,2.49,2.49,0,0,0-1.84-.61,2.87,2.87,0,0,0-1.76.49A2.87,2.87,0,0,0,28.62,21a15.44,15.44,0,0,0-.29,3.4v1.4Z"/><path class="cls-2" d="M43,36.34V38H40.36V8.84H43V18.92a5.56,5.56,0,0,1,1.69-1.48A4.49,4.49,0,0,1,47,16.86a3.73,3.73,0,0,1,3.74,2.27,15,15,0,0,1,1,6v4.39A15.14,15.14,0,0,1,50.58,36a4,4,0,0,1-3.89,2.25A4.86,4.86,0,0,1,43,36.34Zm5.49-1.66A16.42,16.42,0,0,0,49,29.61V25.15a14.55,14.55,0,0,0-.56-4.79,2.21,2.21,0,0,0-2.29-1.44A4.64,4.64,0,0,0,43,20.54V34.72a4.23,4.23,0,0,0,3.24,1.51,2.18,2.18,0,0,0,2.23-1.54Z"/><path class="cls-2" d="M57.71,36.34V38H55.08V8.84h2.63V18.92a5.56,5.56,0,0,1,1.69-1.48,4.49,4.49,0,0,1,2.27-.58,3.73,3.73,0,0,1,3.74,2.27,15,15,0,0,1,1,6v4.39A15.14,15.14,0,0,1,65.29,36,4,4,0,0,1,61.4,38.3,4.86,4.86,0,0,1,57.71,36.34Zm5.49-1.66a16.42,16.42,0,0,0,.56-5.08V25.15a14.55,14.55,0,0,0-.56-4.79,2.21,2.21,0,0,0-2.29-1.44,4.64,4.64,0,0,0-3.2,1.62V34.72a4.23,4.23,0,0,0,3.24,1.51,2.18,2.18,0,0,0,2.25-1.54Z"/><path class="cls-2" d="M70.79,36.31q-1.17-2-1.17-6.7V25.76a16.38,16.38,0,0,1,1-6.66,3.87,3.87,0,0,1,3.85-2.23,4.92,4.92,0,0,1,3.67,1.8V8.84h2.63V38H78.19V36.52a4.82,4.82,0,0,1-3.56,1.8A4.09,4.09,0,0,1,70.79,36.31Zm7.4-1.44V20.4a4.84,4.84,0,0,0-3.1-1.48,2.22,2.22,0,0,0-2.25,1.4,12.7,12.7,0,0,0-.59,4.57v4.93a14.54,14.54,0,0,0,.59,4.9,2.27,2.27,0,0,0,2.32,1.51A4.54,4.54,0,0,0,78.19,34.87Z"/><path class="cls-2" d="M86.87,37.53A4.61,4.61,0,0,1,85.07,35a16,16,0,0,1-.58-4.79V24.93a15.48,15.48,0,0,1,.59-4.81,4.47,4.47,0,0,1,1.84-2.5,6.13,6.13,0,0,1,3.22-.76,5.28,5.28,0,0,1,3.33.92,4.82,4.82,0,0,1,1.62,2.75,21.61,21.61,0,0,1,.45,4.93v1.87H87.12v3.1a18.51,18.51,0,0,0,.25,3.46,3.33,3.33,0,0,0,.9,1.85,3.06,3.06,0,0,0,3.94-.27A4.94,4.94,0,0,0,93,32.35V30.91h2.56v1.15A7.43,7.43,0,0,1,94.3,36.7a4.93,4.93,0,0,1-4.14,1.62A5.89,5.89,0,0,1,86.87,37.53ZM93,25.83V24.1a17.21,17.21,0,0,0-.2-3A3.11,3.11,0,0,0,92,19.41a2.49,2.49,0,0,0-1.84-.61A2.5,2.5,0,0,0,87.41,21a15.44,15.44,0,0,0-.29,3.4v1.4Z"/><path class="cls-2" d="M99.92,36.74a6.86,6.86,0,0,1-1.71-4.32l2.2-.68a6.61,6.61,0,0,0,1.1,3.49A3,3,0,0,0,104,36.34a2.86,2.86,0,0,0,2.14-.79,3,3,0,0,0,.77-2.16q0-2-2.52-4.18l-2.84-2.45a9.33,9.33,0,0,1-2.14-2.38,5.27,5.27,0,0,1-.7-2.74A4.62,4.62,0,0,1,100,18.13a5.08,5.08,0,0,1,3.64-1.26,4.38,4.38,0,0,1,3.55,1.48,6.63,6.63,0,0,1,1.38,4L106.7,23q-.22-4.1-3-4.1a2.82,2.82,0,0,0-2,.67,2.27,2.27,0,0,0-.7,1.85,3.85,3.85,0,0,0,.36,1.71,5.14,5.14,0,0,0,1.33,1.57l3,2.63a16,16,0,0,1,2.56,2.79,5.64,5.64,0,0,1,.9,3.26,4.74,4.74,0,0,1-1.4,3.62,5.54,5.54,0,0,1-3.89,1.31A5.17,5.17,0,0,1,99.92,36.74Z"/><path class="cls-2" d="M112.46,10.75h2.63v3.56h-2.63Zm0,6.44h2.63V38h-2.63Z"/><path class="cls-2" d="M120,44a2.79,2.79,0,0,1-1.85-2.72,4.38,4.38,0,0,1,1-2.77,7.45,7.45,0,0,1,2.43-2,4.79,4.79,0,0,1-1.62-.76,1.37,1.37,0,0,1-.68-1,3.75,3.75,0,0,1,.68-2,15.22,15.22,0,0,1,1.8-2.2,5.84,5.84,0,0,1-2-2.57,10.08,10.08,0,0,1-.63-3.76A8.72,8.72,0,0,1,120.61,19a5,5,0,0,1,4.36-2,4.58,4.58,0,0,1,4.46,2.59,5.74,5.74,0,0,1,1.12-1.24,6.49,6.49,0,0,1,1.69-1.1l.54-.18.72,1.84a6.3,6.3,0,0,0-1.93.72,5.39,5.39,0,0,0-1.57,1,11,11,0,0,1,.45,1.78,10.75,10.75,0,0,1,.2,1.85,9.14,9.14,0,0,1-1.37,5.31,4.94,4.94,0,0,1-4.36,2,7.51,7.51,0,0,1-1.13-.09,5.23,5.23,0,0,1-1-.23l-.52.77a9.54,9.54,0,0,0-.63,1.06,2,2,0,0,0-.25.83q0,.54,1.73.83a6.92,6.92,0,0,0,1.19.23l1.37.2a2.44,2.44,0,0,1,.76.11,7.71,7.71,0,0,1,3.91,1.6A4.1,4.1,0,0,1,131.69,40a4.09,4.09,0,0,1-1.75,3.65,8.41,8.41,0,0,1-4.73,1.17A13.48,13.48,0,0,1,120,44Zm8.44-2a2.3,2.3,0,0,0,.38-3.76,7.37,7.37,0,0,0-3.12-1l-2.7-.36q-2.66,1.66-2.66,3.56a1.8,1.8,0,0,0,1.12,1.73,9.16,9.16,0,0,0,3.71.54,6.64,6.64,0,0,0,3.24-.71Zm-.72-14a9.6,9.6,0,0,0,.68-3.92q0-5.4-3.42-5.4a2.76,2.76,0,0,0-2.74,1.58,8.8,8.8,0,0,0-.76,3.82q0,5.44,3.49,5.44a2.7,2.7,0,0,0,2.72-1.46Z"/><path class="cls-2" d="M135,17.19h2.63v2.16A8.34,8.34,0,0,1,140,17.53a5.72,5.72,0,0,1,2.68-.67A2.75,2.75,0,0,1,145,18a5.56,5.56,0,0,1,.83,3.28V38H143.2V21.87a4,4,0,0,0-.49-2.27,1.71,1.71,0,0,0-1.49-.68,3.7,3.7,0,0,0-1.8.52,7.73,7.73,0,0,0-1.8,1.42V38H135Z"/></g></g></g></g></g></g></g></g></svg>