<?xml version="1.0" encoding="UTF-8"?>
<svg width="652px" height="601px" viewBox="0 0 652 601" version="1.1" xmlns="http://www.w3.org/2000/svg" xmlns:xlink="http://www.w3.org/1999/xlink">
    <!-- Generator: Sketch 50.2 (55047) - http://www.bohemiancoding.com/sketch -->
    <title>Group 16</title>
    <desc>Created with Sketch.</desc>
    <defs></defs>
    <g id="Page-1" stroke="none" stroke-width="1" fill="none" fill-rule="evenodd">
        <g id="Group-16">
            <rect id="Rectangle-8" fill="#DCBC3F" x="0" y="0" width="652" height="252"></rect>
            <path d="M64.4,211.8 L64.4,73 L44,73 L44,40 L119.2,40 L119.2,73 L98.8,73 L98.8,211.8 L64.4,211.8 Z M136.8,201 C130.266634,192.733292 127,180.400082 127,164 L127,105.2 C127,91.733266 130.866628,81.466702 138.6,74.4 C146.333372,67.333298 157.133264,63.8 171,63.8 C199.133474,63.8 213.2,77.599862 213.2,105.2 L213.2,115.8 C213.2,126.46672 213.066668,135.1333 212.8,141.8 L162,141.8 L162,170.2 C162,175.266692 162.533328,179.233319 163.6,182.1 C164.666672,184.966681 166.933316,186.4 170.4,186.4 C173.06668,186.4 174.966661,185.600008 176.1,184 C177.233339,182.399992 177.899999,180.566677 178.1,178.5 C178.300001,176.433323 178.4,173.40002 178.4,169.4 L178.4,155.2 L213.2,155.2 L213.2,163.6 C213.2,180.666752 209.900033,193.233293 203.3,201.3 C196.699967,209.366707 185.333414,213.4 169.2,213.4 C154.133258,213.4 143.333366,209.266708 136.8,201 Z M178.4,124.4 L178.4,105.6 C178.4,95.066614 175.800026,89.8 170.6,89.8 C164.733304,89.8 161.8,95.066614 161.8,105.6 L161.8,124.4 L178.4,124.4 Z M225.8,211.8 L225.8,39 L261.4,39 L261.4,211.8 L225.8,211.8 Z M275.4,211.8 L275.4,39 L311,39 L311,211.8 L275.4,211.8 Z M371.8,65.4 L406,65.4 L406,82.4 C407.600008,76.133302 410.333314,71.466682 414.2,68.4 C418.066686,65.333318 423.533298,63.8 430.6,63.8 C436.333362,63.8 441.299979,65.099987 445.5,67.7 C449.700021,70.300013 452.666658,73.866644 454.4,78.4 C457.333348,73.333308 460.599982,69.633345 464.2,67.3 C467.800018,64.966655 472.799968,63.8 479.2,63.8 C490.666724,63.8 498.633311,67.299965 503.1,74.3 C507.566689,81.300035 509.8,91.4666 509.8,104.8 L509.4,211.8 L474.2,211.8 L474.2,104.2 C474.2,94.733286 471.800024,90 467,90 C463.66665,90 461.266674,91.633317 459.8,94.9 C458.333326,98.166683 457.6,102.066644 457.6,106.6 L457.6,211.8 L422.6,211.8 L422.6,104.2 C422.6,100.066646 422.166671,96.733346 421.3,94.2 C420.433329,91.666654 418.600014,90.4 415.8,90.4 C412.199982,90.4 409.666674,92.166649 408.2,95.7 C406.733326,99.233351 406,103.466642 406,108.4 L406,211.8 L371.8,211.8 L371.8,65.4 Z M532,201 C525.466634,192.733292 522.2,180.400082 522.2,164 L522.2,105.2 C522.2,91.733266 526.066628,81.466702 533.8,74.4 C541.533372,67.333298 552.333264,63.8 566.2,63.8 C594.333474,63.8 608.4,77.599862 608.4,105.2 L608.4,115.8 C608.4,126.46672 608.266668,135.1333 608,141.8 L557.2,141.8 L557.2,170.2 C557.2,175.266692 557.733328,179.233319 558.8,182.1 C559.866672,184.966681 562.133316,186.4 565.6,186.4 C568.26668,186.4 570.166661,185.600008 571.3,184 C572.433339,182.399992 573.099999,180.566677 573.3,178.5 C573.500001,176.433323 573.6,173.40002 573.6,169.4 L573.6,155.2 L608.4,155.2 L608.4,163.6 C608.4,180.666752 605.100033,193.233293 598.5,201.3 C591.899967,209.366707 580.533414,213.4 564.4,213.4 C549.333258,213.4 538.533366,209.266708 532,201 Z M573.6,124.4 L573.6,105.6 C573.6,95.066614 571.000026,89.8 565.8,89.8 C559.933304,89.8 557,95.066614 557,105.6 L557,124.4 L573.6,124.4 Z" id="Tell-me" fill="#FFFFFF"></path>
            <path d="M47.9498313,598.20001 L47.9498313,499.150358 L0,297.551068 L59.4997906,297.551068 L76.2997315,399.400709 L93.0996724,297.551068 L152.599463,297.551068 L104.649632,499.150358 L104.649632,598.20001 L47.9498313,598.20001 Z M184.099352,578.775078 C171.499334,563.95839 165.199419,543.133671 165.199419,516.300298 L165.199419,373.150802 C165.199419,347.250763 171.499334,327.709361 184.099352,314.526008 C196.699371,301.342655 215.132455,294.751078 239.399158,294.751078 C263.66586,294.751078 282.098944,301.342655 294.698963,314.526008 C307.298982,327.709361 313.598897,347.250763 313.598897,373.150802 L313.598897,516.300298 C313.598897,543.367005 307.298982,564.250056 294.698963,578.950078 C282.098944,593.650099 263.66586,601 239.399158,601 C215.132455,601 196.699371,593.591767 184.099352,578.775078 Z M250.249119,538.700219 C252.115789,534.033546 253.04911,527.500301 253.04911,519.100288 L253.04911,372.100805 C253.04911,365.567462 252.174121,360.259201 250.424119,356.175861 C248.674116,352.092522 245.115831,350.050883 239.749156,350.050883 C229.715808,350.050883 224.699209,357.634114 224.699209,372.800803 L224.699209,519.450287 C224.699209,528.083633 225.749195,534.616878 227.849198,539.050218 C229.949201,543.483558 233.799149,545.700195 239.399158,545.700195 C244.765832,545.700195 248.38245,543.366893 250.249119,538.700219 Z M352.27376,580.000074 C340.257076,566.000053 334.248824,545.233667 334.248824,517.700293 L334.248824,297.551068 L392.698618,297.551068 L392.698618,515.250302 C392.698618,524.816983 393.631939,532.283548 395.498608,537.650223 C397.365278,543.016898 401.331891,545.700195 407.398567,545.700195 C413.465242,545.700195 417.431855,543.07523 419.298525,537.825222 C421.165194,532.575215 422.098515,525.050316 422.098515,515.250302 L422.098515,297.551068 L480.548309,297.551068 L480.548309,517.700293 C480.548309,545.233667 474.540057,566.000053 462.523373,580.000074 C450.506688,594.000095 432.131936,601 407.398567,601 C382.665197,601 364.290445,594.000095 352.27376,580.000074 Z M503.648228,297.551068 L596.047903,297.551068 C610.747924,297.551068 622.122771,300.876023 630.172783,307.526033 C638.222795,314.176042 643.647721,323.50925 646.447725,335.525934 C649.24773,347.542619 650.647711,362.884078 650.647711,381.550772 C650.647711,398.584131 648.431074,411.883951 643.997734,421.450632 C639.564394,431.017313 631.864498,437.667223 620.897815,441.400562 C629.997829,443.267231 636.589406,447.817169 640.672746,455.050514 C644.756085,462.283858 646.797724,472.083725 646.797724,484.45041 L646.097727,598.20001 L587.297933,598.20001 L587.297933,480.600424 C587.297933,472.200411 585.664622,466.833817 582.397951,464.50048 C579.131279,462.167144 573.18136,461.000493 564.548014,461.000493 L564.548014,598.20001 L503.648228,598.20001 L503.648228,297.551068 Z M579.247962,408.850676 C587.647974,408.850676 591.847917,399.750799 591.847917,381.550772 C591.847917,373.617427 591.497922,367.667508 590.797921,363.700835 C590.09792,359.734162 588.814604,356.992533 586.947935,355.475864 C585.081265,353.959195 582.397968,353.200872 578.897963,353.200872 L564.898012,353.200872 L564.898012,408.850676 L579.247962,408.850676 Z" id="YOURS" fill="#DCBC3F"></path>
        </g>
    </g>
</svg>