<?xml version="1.0" encoding="UTF-8"?>
<svg width="989px" height="680px" viewBox="0 0 989 680" version="1.1" xmlns="http://www.w3.org/2000/svg" xmlns:xlink="http://www.w3.org/1999/xlink">
    <!-- Generator: Sketch 50.2 (55047) - http://www.bohemiancoding.com/sketch -->
    <title>Group 16</title>
    <desc>Created with Sketch.</desc>
    <defs></defs>
    <g id="Page-1" stroke="none" stroke-width="1" fill="none" fill-rule="evenodd">
        <g id="Group-16">
            <rect id="Rectangle-8" fill="#DCBC3F" x="0" y="0" width="988" height="252"></rect>
            <path d="M39.4,200.6 L21,28.8 L54.6,28.8 L64.2,137.2 L73.8,28.8 L105.8,28.8 L115,137.2 L124.2,28.8 L158.2,28.8 L139.4,200.6 L98.2,200.6 L89.6,117.8 L81.4,200.6 L39.4,200.6 Z M167.8,27.8 L203.8,27.8 L203.8,68.6 C207.533352,57.93328 214.666614,52.6 225.2,52.6 C235.066716,52.6 242.533308,55.733302 247.6,62 C252.666692,68.266698 255.2,76.866612 255.2,87.8 L255.2,200.6 L220.2,200.6 L220.2,90 C220.2,86.799984 219.466674,84.20001 218,82.2 C216.533326,80.19999 214.400014,79.2 211.6,79.2 C209.199988,79.2 207.300007,80.233323 205.9,82.3 C204.499993,84.366677 203.8,86.866652 203.8,89.8 L203.8,200.6 L167.8,200.6 L167.8,27.8 Z M272.1,190.9 C267.899979,183.366629 265.8,172.60007 265.8,158.6 C265.8,147.133276 267.299985,138.333364 270.3,132.2 C273.300015,126.066636 277.46664,121.566681 282.8,118.7 C288.13336,115.833319 296.266612,112.666684 307.2,109.2 L316.8,106 L316.8,91 C316.8,87.133314 316.033341,84.166677 314.5,82.1 C312.966659,80.033323 311.133344,79 309,79 C307.133324,79 305.500007,79.866658 304.1,81.6 C302.699993,83.333342 302,85.666652 302,88.6 L302,97.4 L268,97.4 L268,92.6 C268,78.199928 271.366633,67.933364 278.1,61.8 C284.833367,55.666636 295.799924,52.6 311,52.6 C323.133394,52.6 332.999962,55.766635 340.6,62.1 C348.200038,68.433365 352,77.399942 352,89 L352,200.6 L317.2,200.6 L317.2,183.2 C315.466658,189.20003 312.700019,193.86665 308.9,197.2 C305.099981,200.53335 300.600026,202.2 295.4,202.2 C284.06661,202.2 276.300021,198.433371 272.1,190.9 Z M314.9,171.7 C316.033339,169.499989 316.6,166.800016 316.6,163.6 L316.6,122.8 C311.399974,124.80001 307.566679,127.333318 305.1,130.4 C302.633321,133.466682 301.4,137.733306 301.4,143.2 L301.4,162 C301.4,170.66671 303.999974,175 309.2,175 C311.86668,175 313.766661,173.900011 314.9,171.7 Z M376.6,196.4 C373.133316,192.533314 371.4,186.333376 371.4,177.8 L371.4,86.4 L361.6,86.4 L361.6,59.8 L371.4,59.8 L371.4,28.8 L405.4,28.8 L405.4,59.8 L415.4,59.8 L415.4,86.4 L405.4,86.4 L405.4,168.6 C405.4,171.133346 405.599998,172.999994 406,174.2 C406.400002,175.400006 407.466658,176 409.2,176 C410.53334,176 411.799994,175.933334 413,175.8 C414.200006,175.666666 414.999998,175.6 415.4,175.6 L415.4,199.6 C413.39999,200.133336 410.500019,200.699997 406.7,201.3 C402.899981,201.900003 399.200018,202.2 395.6,202.2 C386.399954,202.2 380.066684,200.266686 376.6,196.4 Z M430.2,79.2 L436.6,56 L424.2,56 L424.2,27 L460.8,27 L460.8,55.2 L450.8,79.2 L430.2,79.2 Z M469.6,158.2 L469.8,146.6 L504.8,146.6 L505,163.8 C505,167.266684 505.66666,169.899991 507,171.7 C508.33334,173.500009 510.533318,174.4 513.6,174.4 C518.26669,174.4 520.6,170.600038 520.6,163 C520.6,157.399972 519.500011,153.000016 517.3,149.8 C515.099989,146.599984 511.600024,143.200018 506.8,139.6 L488.2,125.2 C481.799968,120.266642 477.200014,115.166693 474.4,109.9 C471.599986,104.633307 470.2,97.200048 470.2,87.6 C470.2,80.133296 472.166647,73.766693 476.1,68.5 C480.033353,63.233307 485.266634,59.26668 491.8,56.6 C498.333366,53.93332 505.59996,52.6 513.6,52.6 C542.000142,52.6 556.2,66.733192 556.2,95 L556.2,97.8 L520,97.8 L520,92.2 C520,88.733316 519.433339,85.766679 518.3,83.3 C517.166661,80.833321 515.26668,79.6 512.6,79.6 C510.199988,79.6 508.366673,80.299993 507.1,81.7 C505.833327,83.100007 505.2,84.999988 505.2,87.4 C505.2,92.73336 507.266646,96.866652 511.4,99.8 L533,115.6 C540.733372,121.333362 546.666646,127.566633 550.8,134.3 C554.933354,141.033367 557,149.533282 557,159.8 C557,173.400068 553.133372,183.86663 545.4,191.2 C537.666628,198.53337 526.866736,202.2 513,202.2 C484.066522,202.2 469.6,187.53348 469.6,158.2 Z M611.8,202.8 L628.6,202.8 C631.000012,202.8 632.2,201.80001 632.2,199.8 C632.2,198.866662 632.133334,198.133336 632,197.6 L609.2,54.2 L642.6,54.2 L649.2,125.6 L652.4,162 L656.2,125.6 L664,54.2 L697.6,54.2 L670.4,208.2 C669.466662,213.933362 667.566681,218.166653 664.7,220.9 C661.833319,223.633347 657.333364,225 651.2,225 L611.8,225 L611.8,202.8 Z M705.6,156.8 L705.6,98 C705.6,84.133264 709.499961,73.100041 717.3,64.9 C725.100039,56.699959 735.799932,52.6 749.4,52.6 C763.000068,52.6 773.699961,56.699959 781.5,64.9 C789.300039,73.100041 793.2,84.133264 793.2,98 L793.2,156.8 C793.2,187.066818 778.600146,202.2 749.4,202.2 C720.199854,202.2 705.6,187.066818 705.6,156.8 Z M755.6,172.2 C756.93334,170.19999 757.6,167.466684 757.6,164 L757.6,92.4 C757.6,83.866624 754.866694,79.6 749.4,79.6 C743.933306,79.6 741.2,83.866624 741.2,92.4 L741.2,164 C741.2,167.466684 741.86666,170.19999 743.2,172.2 C744.53334,174.20001 746.599986,175.2 749.4,175.2 C752.200014,175.2 754.26666,174.20001 755.6,172.2 Z M811.9,192.4 C807.833313,185.866634 805.8,176.133398 805.8,163.2 L805.8,54.2 L841,54.2 L841,163.7 C841,167.766687 841.633327,170.633325 842.9,172.3 C844.166673,173.966675 846.13332,174.8 848.8,174.8 C852.400018,174.8 854.666662,173.300015 855.6,170.3 C856.533338,167.299985 857,163.000028 857,157.4 L857,156.2 L857.2,54.2 L892,54.2 L892,200.6 L857,200.6 L857,185 C854.599988,191.133364 851.800016,195.53332 848.6,198.2 C845.399984,200.86668 840.666698,202.2 834.4,202.2 C823.466612,202.2 815.966687,198.933366 811.9,192.4 Z M906,54.2 L941,54.2 L941,70.4 C942.733342,64.666638 945.766645,60.233349 950.1,57.1 C954.433355,53.966651 959.799968,52.4 966.2,52.4 L966.2,81.6 C961.266642,81.6 955.833363,82.299993 949.9,83.7 C943.966637,85.100007 941,86.733324 941,88.6 L941,200.6 L906,200.6 L906,54.2 Z" id="What’s-your" fill="#FFFFFF"></path>
            <path d="M24.9125,653.990625 C9.63742363,636.95304 2,609.487689 2,571.59375 L2,534.58125 L76.465625,534.58125 L76.465625,581.728125 C76.465625,600.528219 82.4874398,609.928125 94.53125,609.928125 C101.287534,609.928125 105.987487,607.945332 108.63125,603.979688 C111.275013,600.014043 112.596875,593.331297 112.596875,583.93125 C112.596875,571.593688 111.12814,561.385978 108.190625,553.307813 C105.25311,545.229647 101.507835,538.473465 96.9546875,533.039063 C92.4015397,527.60466 84.2500588,519.159432 72.5,507.703125 L39.89375,475.096875 C14.6311237,450.421752 2,423.103275 2,393.140625 C2,360.827963 9.41711333,336.226647 24.2515625,319.335938 C39.0860117,302.445228 60.7498575,294 89.24375,294 C123.31892,294 147.8468,303.032722 162.828125,321.098437 C177.80945,339.164153 185.3,367.437308 185.3,405.91875 L108.190625,405.91875 L107.75,379.921875 C107.75,374.9281 106.354701,370.962515 103.564062,368.025 C100.773424,365.087485 96.881275,363.61875 91.8875,363.61875 C86.0124706,363.61875 81.6062647,365.234359 78.66875,368.465625 C75.7312353,371.696891 74.2625,376.103097 74.2625,381.684375 C74.2625,394.021937 81.3124295,406.799934 95.4125,420.01875 L139.475,462.31875 C149.756301,472.3063 158.274966,481.779643 165.03125,490.739062 C171.787534,499.698482 177.221854,510.273377 181.334375,522.464063 C185.446896,534.654748 187.503125,549.121791 187.503125,565.865625 C187.503125,603.172062 180.673506,631.445216 167.014063,650.685938 C153.354619,669.926659 130.809532,679.546875 99.378125,679.546875 C65.0092032,679.546875 40.1875764,671.02821 24.9125,653.990625 Z M245.225,676.021875 L245.225,370.228125 L200.28125,370.228125 L200.28125,297.525 L365.95625,297.525 L365.95625,370.228125 L321.0125,370.228125 L321.0125,676.021875 L245.225,676.021875 Z M407.815625,651.567187 C391.953046,632.913969 384.021875,606.697044 384.021875,572.915625 L384.021875,392.7 C384.021875,360.093587 391.953046,335.49227 407.815625,318.895312 C423.678204,302.298355 446.884222,294 477.434375,294 C507.984528,294 531.190546,302.298355 547.053125,318.895312 C562.915704,335.49227 570.846875,360.093587 570.846875,392.7 L570.846875,572.915625 C570.846875,606.990795 562.915704,633.281157 547.053125,651.7875 C531.190546,670.293843 507.984528,679.546875 477.434375,679.546875 C446.884222,679.546875 423.678204,670.220406 407.815625,651.567187 Z M491.09375,601.115625 C493.443762,595.240596 494.61875,587.015678 494.61875,576.440625 L494.61875,391.378125 C494.61875,383.153084 493.517199,376.470338 491.314062,371.329687 C489.110926,366.189037 484.631284,363.61875 477.875,363.61875 C465.243687,363.61875 458.928125,373.16553 458.928125,392.259375 L458.928125,576.88125 C458.928125,587.750054 460.249987,595.974972 462.89375,601.55625 C465.537513,607.137528 470.38434,609.928125 477.434375,609.928125 C484.190659,609.928125 488.743738,606.990654 491.09375,601.115625 Z M601.25,297.525 L717.575,297.525 C736.081343,297.525 750.401512,301.710896 760.535938,310.082812 C770.670363,318.454729 777.499982,330.204612 781.025,345.332812 C784.550018,360.461013 786.3125,379.774882 786.3125,403.275 C786.3125,424.718857 783.521903,441.46244 777.940625,453.50625 C772.359347,465.55006 762.665694,473.921851 748.859375,478.621875 C760.315682,480.971887 768.614037,486.699954 773.754688,495.80625 C778.895338,504.912546 781.465625,517.249922 781.465625,532.81875 L780.584375,676.021875 L706.559375,676.021875 L706.559375,527.971875 C706.559375,517.396822 704.503146,510.64064 700.390625,507.703125 C696.278104,504.76561 688.787554,503.296875 677.91875,503.296875 L677.91875,676.021875 L601.25,676.021875 L601.25,297.525 Z M696.425,437.64375 C707.000053,437.64375 712.2875,426.187615 712.2875,403.275 C712.2875,393.28745 711.846879,385.7969 710.965625,380.803125 C710.084371,375.80935 708.468762,372.357822 706.11875,370.448437 C703.768738,368.539053 700.390647,367.584375 695.984375,367.584375 L678.359375,367.584375 L678.359375,437.64375 L696.425,437.64375 Z M857.253125,676.021875 L857.253125,551.325 L796.8875,297.525 L871.79375,297.525 L892.94375,425.746875 L914.09375,297.525 L989,297.525 L928.634375,551.325 L928.634375,676.021875 L857.253125,676.021875 Z" id="STORY?" fill="#DCBC3F"></path>
        </g>
    </g>
</svg>