<?xml version="1.0" encoding="UTF-8"?>
<svg width="652px" height="541px" viewBox="0 0 652 541" version="1.1" xmlns="http://www.w3.org/2000/svg" xmlns:xlink="http://www.w3.org/1999/xlink">
    <!-- Generator: Sketch 50.2 (55047) - http://www.bohemiancoding.com/sketch -->
    <title>Group 16</title>
    <desc>Created with Sketch.</desc>
    <defs></defs>
    <g id="Page-1" stroke="none" stroke-width="1" fill="none" fill-rule="evenodd">
        <g id="Group-16">
            <rect id="Rectangle-8" fill="#DCBC3F" x="0" y="0" width="652" height="252"></rect>
            <path d="M64.4,211.8 L64.4,73 L44,73 L44,40 L119.2,40 L119.2,73 L98.8,73 L98.8,211.8 L64.4,211.8 Z M136.8,201 C130.266634,192.733292 127,180.400082 127,164 L127,105.2 C127,91.733266 130.866628,81.466702 138.6,74.4 C146.333372,67.333298 157.133264,63.8 171,63.8 C199.133474,63.8 213.2,77.599862 213.2,105.2 L213.2,115.8 C213.2,126.46672 213.066668,135.1333 212.8,141.8 L162,141.8 L162,170.2 C162,175.266692 162.533328,179.233319 163.6,182.1 C164.666672,184.966681 166.933316,186.4 170.4,186.4 C173.06668,186.4 174.966661,185.600008 176.1,184 C177.233339,182.399992 177.899999,180.566677 178.1,178.5 C178.300001,176.433323 178.4,173.40002 178.4,169.4 L178.4,155.2 L213.2,155.2 L213.2,163.6 C213.2,180.666752 209.900033,193.233293 203.3,201.3 C196.699967,209.366707 185.333414,213.4 169.2,213.4 C154.133258,213.4 143.333366,209.266708 136.8,201 Z M178.4,124.4 L178.4,105.6 C178.4,95.066614 175.800026,89.8 170.6,89.8 C164.733304,89.8 161.8,95.066614 161.8,105.6 L161.8,124.4 L178.4,124.4 Z M225.8,211.8 L225.8,39 L261.4,39 L261.4,211.8 L225.8,211.8 Z M275.4,211.8 L275.4,39 L311,39 L311,211.8 L275.4,211.8 Z M371.8,65.4 L406,65.4 L406,82.4 C407.600008,76.133302 410.333314,71.466682 414.2,68.4 C418.066686,65.333318 423.533298,63.8 430.6,63.8 C436.333362,63.8 441.299979,65.099987 445.5,67.7 C449.700021,70.300013 452.666658,73.866644 454.4,78.4 C457.333348,73.333308 460.599982,69.633345 464.2,67.3 C467.800018,64.966655 472.799968,63.8 479.2,63.8 C490.666724,63.8 498.633311,67.299965 503.1,74.3 C507.566689,81.300035 509.8,91.4666 509.8,104.8 L509.4,211.8 L474.2,211.8 L474.2,104.2 C474.2,94.733286 471.800024,90 467,90 C463.66665,90 461.266674,91.633317 459.8,94.9 C458.333326,98.166683 457.6,102.066644 457.6,106.6 L457.6,211.8 L422.6,211.8 L422.6,104.2 C422.6,100.066646 422.166671,96.733346 421.3,94.2 C420.433329,91.666654 418.600014,90.4 415.8,90.4 C412.199982,90.4 409.666674,92.166649 408.2,95.7 C406.733326,99.233351 406,103.466642 406,108.4 L406,211.8 L371.8,211.8 L371.8,65.4 Z M532,201 C525.466634,192.733292 522.2,180.400082 522.2,164 L522.2,105.2 C522.2,91.733266 526.066628,81.466702 533.8,74.4 C541.533372,67.333298 552.333264,63.8 566.2,63.8 C594.333474,63.8 608.4,77.599862 608.4,105.2 L608.4,115.8 C608.4,126.46672 608.266668,135.1333 608,141.8 L557.2,141.8 L557.2,170.2 C557.2,175.266692 557.733328,179.233319 558.8,182.1 C559.866672,184.966681 562.133316,186.4 565.6,186.4 C568.26668,186.4 570.166661,185.600008 571.3,184 C572.433339,182.399992 573.099999,180.566677 573.3,178.5 C573.500001,176.433323 573.6,173.40002 573.6,169.4 L573.6,155.2 L608.4,155.2 L608.4,163.6 C608.4,180.666752 605.100033,193.233293 598.5,201.3 C591.899967,209.366707 580.533414,213.4 564.4,213.4 C549.333258,213.4 538.533366,209.266708 532,201 Z M573.6,124.4 L573.6,105.6 C573.6,95.066614 571.000026,89.8 565.8,89.8 C559.933304,89.8 557,95.066614 557,105.6 L557,124.4 L573.6,124.4 Z" id="Tell-me" fill="#FFFFFF"></path>
            <path d="M38.5017241,538.407974 L38.5017241,458.875216 L0,296.999353 L47.7758621,296.999353 L61.2655172,378.780388 L74.7551724,296.999353 L122.531034,296.999353 L84.0293103,458.875216 L84.0293103,538.407974 L38.5017241,538.407974 Z M147.824138,522.81056 C137.706846,510.913374 132.648276,494.19199 132.648276,472.645905 L132.648276,357.702802 C132.648276,336.906146 137.706846,321.215211 147.824138,310.629526 C157.94143,300.043841 172.742431,294.751078 192.227586,294.751078 C211.712741,294.751078 226.513743,300.043841 236.631034,310.629526 C246.748326,321.215211 251.806897,336.906146 251.806897,357.702802 L251.806897,472.645905 C251.806897,494.379347 246.748326,511.14757 236.631034,522.951078 C226.513743,534.754585 211.712741,540.65625 192.227586,540.65625 C172.742431,540.65625 157.94143,534.707746 147.824138,522.81056 Z M200.939655,490.632112 C202.438513,486.884967 203.187931,481.639042 203.187931,474.894181 L203.187931,356.859698 C203.187931,351.613695 202.485352,347.351381 201.080172,344.072629 C199.674993,340.793877 196.817838,339.154526 192.508621,339.154526 C184.452259,339.154526 180.424138,345.243545 180.424138,357.421767 L180.424138,475.175216 C180.424138,482.107434 181.267233,487.353359 182.953448,490.913147 C184.639664,494.472934 187.731012,496.252802 192.227586,496.252802 C196.536803,496.252802 199.440797,494.379257 200.939655,490.632112 Z M282.861207,523.794181 C273.212308,512.552746 268.387931,495.8782 268.387931,473.770043 L268.387931,296.999353 L315.32069,296.999353 L315.32069,471.802802 C315.32069,479.484449 316.070107,485.479792 317.568966,489.789009 C319.067824,494.098226 322.252849,496.252802 327.124138,496.252802 C331.995427,496.252802 335.180452,494.145064 336.67931,489.929526 C338.178168,485.713988 338.927586,479.671807 338.927586,471.802802 L338.927586,296.999353 L385.860345,296.999353 L385.860345,473.770043 C385.860345,495.8782 381.035968,512.552746 371.387069,523.794181 C361.73817,535.035617 346.984007,540.65625 327.124138,540.65625 C307.264269,540.65625 292.510106,535.035617 282.861207,523.794181 Z M404.408621,296.999353 L478.601724,296.999353 C490.405231,296.999353 499.538761,299.669154 506.002586,305.008836 C512.466412,310.348518 516.822403,317.842696 519.07069,327.491595 C521.318977,337.140494 522.443103,349.459049 522.443103,364.447629 C522.443103,378.124709 520.663236,388.803913 517.103448,396.48556 C513.54366,404.167208 507.360964,409.50681 498.555172,412.504526 C505.862106,414.003384 511.154869,417.656796 514.433621,423.464871 C517.712373,429.272946 519.351724,437.141833 519.351724,447.071767 L518.789655,538.407974 L471.575862,538.407974 L471.575862,443.980388 C471.575862,437.235527 470.264381,432.926374 467.641379,431.052802 C465.018378,429.179229 460.240839,428.242457 453.308621,428.242457 L453.308621,538.407974 L404.408621,538.407974 L404.408621,296.999353 Z M465.112069,386.368319 C471.85693,386.368319 475.22931,379.061495 475.22931,364.447629 C475.22931,358.077483 474.948279,353.299944 474.386207,350.114871 C473.824135,346.929797 472.793686,344.728383 471.294828,343.51056 C469.79597,342.292738 467.641393,341.683836 464.831034,341.683836 L453.589655,341.683836 L453.589655,386.368319 L465.112069,386.368319 Z M548.298276,524.35625 C538.555698,513.489529 533.684483,495.971888 533.684483,471.802802 L533.684483,448.195905 L581.17931,448.195905 L581.17931,478.266595 C581.17931,490.257459 585.020077,496.252802 592.701724,496.252802 C597.010941,496.252802 600.008612,494.988159 601.694828,492.458836 C603.381043,489.929513 604.224138,485.6672 604.224138,479.671767 C604.224138,471.802762 603.287366,465.292195 601.413793,460.139871 C599.540221,454.987546 597.151451,450.678394 594.247414,447.212284 C591.343376,443.746175 586.14429,438.359735 578.65,431.052802 L557.853448,410.25625 C541.740724,394.51824 533.684483,377.094277 533.684483,357.983836 C533.684483,337.374538 538.415183,321.683603 547.876724,310.91056 C557.338266,300.137518 571.155656,294.751078 589.32931,294.751078 C611.062752,294.751078 626.706849,300.512227 636.262069,312.034698 C645.817289,323.55717 650.594828,341.590035 650.594828,366.133836 L601.413793,366.133836 L601.132759,349.552802 C601.132759,346.367728 600.242825,343.838443 598.462931,341.964871 C596.683037,340.091298 594.200591,339.154526 591.015517,339.154526 C587.268372,339.154526 584.458055,340.184975 582.584483,342.245905 C580.71091,344.306835 579.774138,347.117152 579.774138,350.67694 C579.774138,358.545945 584.270645,366.695863 593.263793,375.12694 L621.367241,402.10625 C627.924745,408.476397 633.358024,414.518578 637.667241,420.232974 C641.976458,425.947371 645.442516,432.692131 648.065517,440.467457 C650.688519,448.242783 652,457.46999 652,468.149353 C652,491.943725 647.644009,509.976591 638.931897,522.248491 C630.219784,534.520392 615.84033,540.65625 595.793103,540.65625 C573.872304,540.65625 558.040853,535.222971 548.298276,524.35625 Z" id="YOURS" fill="#DCBC3F"></path>
        </g>
    </g>
</svg>